G75*
%MOIN*%
%OFA0B0*%
%FSLAX25Y25*%
%IPPOS*%
%LPD*%
%AMOC8*
5,1,8,0,0,1.08239X$1,22.5*
%
%ADD10C,0.00000*%
%ADD11C,0.06737*%
%ADD12C,0.06800*%
%ADD13R,0.05131X0.04737*%
%ADD14R,0.04737X0.05131*%
%ADD15C,0.04762*%
%ADD16R,0.07887X0.07887*%
D10*
X0003500Y0001000D02*
X0003500Y0315961D01*
X0397201Y0315961D01*
X0397201Y0001000D01*
X0003500Y0001000D01*
D11*
X0076500Y0287531D02*
X0076500Y0293469D01*
X0086500Y0293469D02*
X0086500Y0287531D01*
X0096500Y0287531D02*
X0096500Y0293469D01*
X0106500Y0293469D02*
X0106500Y0287531D01*
D12*
X0132500Y0278500D02*
X0132500Y0272500D01*
X0142500Y0272500D02*
X0142500Y0278500D01*
X0152500Y0278500D02*
X0152500Y0272500D01*
X0162500Y0272500D02*
X0162500Y0278500D01*
X0172500Y0278500D02*
X0172500Y0272500D01*
X0182500Y0272500D02*
X0182500Y0278500D01*
X0300500Y0259000D02*
X0300500Y0253000D01*
X0310500Y0253000D02*
X0310500Y0259000D01*
X0320500Y0259000D02*
X0320500Y0253000D01*
X0320500Y0239000D02*
X0320500Y0233000D01*
X0310500Y0233000D02*
X0310500Y0239000D01*
X0300500Y0239000D02*
X0300500Y0233000D01*
X0300500Y0219000D02*
X0300500Y0213000D01*
X0310500Y0213000D02*
X0310500Y0219000D01*
X0320500Y0219000D02*
X0320500Y0213000D01*
X0320500Y0199000D02*
X0320500Y0193000D01*
X0310500Y0193000D02*
X0310500Y0199000D01*
X0300500Y0199000D02*
X0300500Y0193000D01*
X0300500Y0179000D02*
X0300500Y0173000D01*
X0310500Y0173000D02*
X0310500Y0179000D01*
X0320500Y0179000D02*
X0320500Y0173000D01*
X0320500Y0159000D02*
X0320500Y0153000D01*
X0310500Y0153000D02*
X0310500Y0159000D01*
X0300500Y0159000D02*
X0300500Y0153000D01*
X0350500Y0153000D02*
X0350500Y0159000D01*
X0360500Y0159000D02*
X0360500Y0153000D01*
X0370500Y0153000D02*
X0370500Y0159000D01*
X0370500Y0173000D02*
X0370500Y0179000D01*
X0360500Y0179000D02*
X0360500Y0173000D01*
X0350500Y0173000D02*
X0350500Y0179000D01*
X0350500Y0193000D02*
X0350500Y0199000D01*
X0360500Y0199000D02*
X0360500Y0193000D01*
X0370500Y0193000D02*
X0370500Y0199000D01*
X0370500Y0213000D02*
X0370500Y0219000D01*
X0360500Y0219000D02*
X0360500Y0213000D01*
X0350500Y0213000D02*
X0350500Y0219000D01*
X0350500Y0233000D02*
X0350500Y0239000D01*
X0360500Y0239000D02*
X0360500Y0233000D01*
X0370500Y0233000D02*
X0370500Y0239000D01*
X0370500Y0253000D02*
X0370500Y0259000D01*
X0360500Y0259000D02*
X0360500Y0253000D01*
X0350500Y0253000D02*
X0350500Y0259000D01*
X0021500Y0268500D02*
X0015500Y0268500D01*
X0015500Y0278500D02*
X0021500Y0278500D01*
X0021500Y0288500D02*
X0015500Y0288500D01*
X0015500Y0298500D02*
X0021500Y0298500D01*
D13*
X0054500Y0083846D03*
X0054500Y0077154D03*
X0079500Y0077654D03*
X0079500Y0084346D03*
X0104500Y0083846D03*
X0104500Y0077154D03*
X0129000Y0078154D03*
X0129000Y0084846D03*
X0154000Y0084346D03*
X0154000Y0077654D03*
X0179500Y0077654D03*
X0179500Y0084346D03*
X0204000Y0084346D03*
X0204000Y0077654D03*
X0229000Y0077654D03*
X0229000Y0084346D03*
X0254500Y0084346D03*
X0254500Y0077654D03*
X0279000Y0077654D03*
X0279000Y0084346D03*
X0304000Y0084346D03*
X0304000Y0077654D03*
X0334000Y0077154D03*
X0334000Y0083846D03*
D14*
X0150846Y0294500D03*
X0144154Y0294500D03*
X0156154Y0306000D03*
X0162846Y0306000D03*
D15*
X0173000Y0253500D03*
X0127500Y0210500D03*
X0126500Y0200500D03*
X0104500Y0205500D03*
X0089000Y0210500D03*
X0083000Y0196000D03*
X0115000Y0167500D03*
X0116500Y0163000D03*
X0116500Y0158000D03*
X0129500Y0155000D03*
X0132500Y0151500D03*
X0129500Y0147500D03*
X0132500Y0143000D03*
X0125000Y0142000D03*
X0130500Y0133000D03*
X0125000Y0129500D03*
X0118000Y0131000D03*
X0116000Y0118000D03*
X0124000Y0117500D03*
X0130000Y0116000D03*
X0136000Y0116000D03*
X0155000Y0116500D03*
X0137000Y0136500D03*
X0163000Y0157500D03*
X0179500Y0164500D03*
X0200000Y0179500D03*
X0190000Y0204000D03*
X0168500Y0204000D03*
X0150500Y0204000D03*
X0156500Y0181500D03*
X0076000Y0135500D03*
X0076000Y0116000D03*
X0073500Y0073500D03*
X0048500Y0073500D03*
X0098500Y0073500D03*
X0123000Y0074500D03*
X0142000Y0088500D03*
X0148500Y0089500D03*
X0148000Y0074000D03*
X0173500Y0074000D03*
X0198000Y0074000D03*
X0223000Y0074000D03*
X0248000Y0074000D03*
X0273000Y0074000D03*
X0297500Y0074000D03*
X0328000Y0073500D03*
D16*
X0333500Y0026000D03*
X0303500Y0026000D03*
X0278500Y0026000D03*
X0253500Y0026000D03*
X0228500Y0026000D03*
X0203500Y0026000D03*
X0178500Y0026000D03*
X0153500Y0026000D03*
X0128500Y0026000D03*
X0103500Y0026000D03*
X0078500Y0026000D03*
X0053500Y0026000D03*
X0029000Y0026500D03*
M02*
