G75*
%MOIN*%
%OFA0B0*%
%FSLAX25Y25*%
%IPPOS*%
%LPD*%
%AMOC8*
5,1,8,0,0,1.08239X$1,22.5*
%
%ADD10C,0.00000*%
%ADD11C,0.01942*%
%ADD12R,0.04934X0.05052*%
%ADD13R,0.05052X0.04934*%
%ADD14R,0.05918X0.07099*%
%ADD15R,0.07099X0.03162*%
%ADD16C,0.06737*%
%ADD17C,0.06800*%
%ADD18R,0.05131X0.04737*%
%ADD19C,0.04762*%
%ADD20R,0.07887X0.07887*%
D10*
X0003500Y0001000D02*
X0003500Y0315961D01*
X0397201Y0315961D01*
X0397201Y0001000D01*
X0003500Y0001000D01*
D11*
X0114051Y0106690D02*
X0114051Y0110862D01*
X0116020Y0110862D02*
X0116020Y0106690D01*
X0117988Y0106690D02*
X0117988Y0110862D01*
X0119957Y0110862D02*
X0119957Y0106690D01*
X0121925Y0106690D02*
X0121925Y0110862D01*
X0123894Y0110862D02*
X0123894Y0106690D01*
X0125862Y0106690D02*
X0125862Y0110862D01*
X0127831Y0110862D02*
X0127831Y0106690D01*
X0129799Y0106690D02*
X0129799Y0110862D01*
X0131768Y0110862D02*
X0131768Y0106690D01*
X0133736Y0106690D02*
X0133736Y0110862D01*
X0135705Y0110862D02*
X0135705Y0106690D01*
X0137673Y0106690D02*
X0137673Y0110862D01*
X0139642Y0110862D02*
X0139642Y0106690D01*
X0141610Y0106690D02*
X0141610Y0110862D01*
X0143579Y0110862D02*
X0143579Y0106690D01*
X0145547Y0106690D02*
X0145547Y0110862D01*
X0147516Y0110862D02*
X0147516Y0106690D01*
X0149484Y0106690D02*
X0149484Y0110862D01*
X0151453Y0110862D02*
X0151453Y0106690D01*
X0153421Y0106690D02*
X0153421Y0110862D01*
X0155390Y0110862D02*
X0155390Y0106690D01*
X0157358Y0106690D02*
X0157358Y0110862D01*
X0159327Y0110862D02*
X0159327Y0106690D01*
X0161295Y0106690D02*
X0161295Y0110862D01*
X0163264Y0110862D02*
X0163264Y0106690D01*
X0165232Y0106690D02*
X0165232Y0110862D01*
X0167201Y0110862D02*
X0167201Y0106690D01*
X0169169Y0106690D02*
X0169169Y0110862D01*
X0171138Y0110862D02*
X0171138Y0106690D01*
X0173106Y0106690D02*
X0173106Y0110862D01*
X0175075Y0110862D02*
X0175075Y0106690D01*
X0177043Y0106690D02*
X0177043Y0110862D01*
X0179012Y0110862D02*
X0179012Y0106690D01*
X0180980Y0106690D02*
X0180980Y0110862D01*
X0182949Y0110862D02*
X0182949Y0106690D01*
X0188638Y0116551D02*
X0192810Y0116551D01*
X0192810Y0118520D02*
X0188638Y0118520D01*
X0188638Y0120488D02*
X0192810Y0120488D01*
X0192810Y0122457D02*
X0188638Y0122457D01*
X0188638Y0124425D02*
X0192810Y0124425D01*
X0192810Y0126394D02*
X0188638Y0126394D01*
X0188638Y0128362D02*
X0192810Y0128362D01*
X0192810Y0130331D02*
X0188638Y0130331D01*
X0188638Y0132299D02*
X0192810Y0132299D01*
X0192810Y0134268D02*
X0188638Y0134268D01*
X0188638Y0136236D02*
X0192810Y0136236D01*
X0192810Y0138205D02*
X0188638Y0138205D01*
X0188638Y0140173D02*
X0192810Y0140173D01*
X0192810Y0142142D02*
X0188638Y0142142D01*
X0188638Y0144110D02*
X0192810Y0144110D01*
X0192810Y0146079D02*
X0188638Y0146079D01*
X0188638Y0148047D02*
X0192810Y0148047D01*
X0192810Y0150016D02*
X0188638Y0150016D01*
X0188638Y0151984D02*
X0192810Y0151984D01*
X0192810Y0153953D02*
X0188638Y0153953D01*
X0188638Y0155921D02*
X0192810Y0155921D01*
X0192810Y0157890D02*
X0188638Y0157890D01*
X0188638Y0159858D02*
X0192810Y0159858D01*
X0192810Y0161827D02*
X0188638Y0161827D01*
X0188638Y0163795D02*
X0192810Y0163795D01*
X0192810Y0165764D02*
X0188638Y0165764D01*
X0188638Y0167732D02*
X0192810Y0167732D01*
X0192810Y0169701D02*
X0188638Y0169701D01*
X0188638Y0171669D02*
X0192810Y0171669D01*
X0192810Y0173638D02*
X0188638Y0173638D01*
X0188638Y0175606D02*
X0192810Y0175606D01*
X0192810Y0177575D02*
X0188638Y0177575D01*
X0188638Y0179543D02*
X0192810Y0179543D01*
X0192810Y0181512D02*
X0188638Y0181512D01*
X0188638Y0183480D02*
X0192810Y0183480D01*
X0192810Y0185449D02*
X0188638Y0185449D01*
X0182949Y0191138D02*
X0182949Y0195310D01*
X0180980Y0195310D02*
X0180980Y0191138D01*
X0179012Y0191138D02*
X0179012Y0195310D01*
X0177043Y0195310D02*
X0177043Y0191138D01*
X0175075Y0191138D02*
X0175075Y0195310D01*
X0173106Y0195310D02*
X0173106Y0191138D01*
X0171138Y0191138D02*
X0171138Y0195310D01*
X0169169Y0195310D02*
X0169169Y0191138D01*
X0167201Y0191138D02*
X0167201Y0195310D01*
X0165232Y0195310D02*
X0165232Y0191138D01*
X0163264Y0191138D02*
X0163264Y0195310D01*
X0161295Y0195310D02*
X0161295Y0191138D01*
X0159327Y0191138D02*
X0159327Y0195310D01*
X0157358Y0195310D02*
X0157358Y0191138D01*
X0155390Y0191138D02*
X0155390Y0195310D01*
X0153421Y0195310D02*
X0153421Y0191138D01*
X0151453Y0191138D02*
X0151453Y0195310D01*
X0149484Y0195310D02*
X0149484Y0191138D01*
X0147516Y0191138D02*
X0147516Y0195310D01*
X0145547Y0195310D02*
X0145547Y0191138D01*
X0143579Y0191138D02*
X0143579Y0195310D01*
X0141610Y0195310D02*
X0141610Y0191138D01*
X0139642Y0191138D02*
X0139642Y0195310D01*
X0137673Y0195310D02*
X0137673Y0191138D01*
X0135705Y0191138D02*
X0135705Y0195310D01*
X0133736Y0195310D02*
X0133736Y0191138D01*
X0131768Y0191138D02*
X0131768Y0195310D01*
X0129799Y0195310D02*
X0129799Y0191138D01*
X0127831Y0191138D02*
X0127831Y0195310D01*
X0125862Y0195310D02*
X0125862Y0191138D01*
X0123894Y0191138D02*
X0123894Y0195310D01*
X0121925Y0195310D02*
X0121925Y0191138D01*
X0119957Y0191138D02*
X0119957Y0195310D01*
X0117988Y0195310D02*
X0117988Y0191138D01*
X0116020Y0191138D02*
X0116020Y0195310D01*
X0114051Y0195310D02*
X0114051Y0191138D01*
X0108362Y0185449D02*
X0104190Y0185449D01*
X0104190Y0183480D02*
X0108362Y0183480D01*
X0108362Y0181512D02*
X0104190Y0181512D01*
X0104190Y0179543D02*
X0108362Y0179543D01*
X0108362Y0177575D02*
X0104190Y0177575D01*
X0104190Y0175606D02*
X0108362Y0175606D01*
X0108362Y0173638D02*
X0104190Y0173638D01*
X0104190Y0171669D02*
X0108362Y0171669D01*
X0108362Y0169701D02*
X0104190Y0169701D01*
X0104190Y0167732D02*
X0108362Y0167732D01*
X0108362Y0165764D02*
X0104190Y0165764D01*
X0104190Y0163795D02*
X0108362Y0163795D01*
X0108362Y0161827D02*
X0104190Y0161827D01*
X0104190Y0159858D02*
X0108362Y0159858D01*
X0108362Y0157890D02*
X0104190Y0157890D01*
X0104190Y0155921D02*
X0108362Y0155921D01*
X0108362Y0153953D02*
X0104190Y0153953D01*
X0104190Y0151984D02*
X0108362Y0151984D01*
X0108362Y0150016D02*
X0104190Y0150016D01*
X0104190Y0148047D02*
X0108362Y0148047D01*
X0108362Y0146079D02*
X0104190Y0146079D01*
X0104190Y0144110D02*
X0108362Y0144110D01*
X0108362Y0142142D02*
X0104190Y0142142D01*
X0104190Y0140173D02*
X0108362Y0140173D01*
X0108362Y0138205D02*
X0104190Y0138205D01*
X0104190Y0136236D02*
X0108362Y0136236D01*
X0108362Y0134268D02*
X0104190Y0134268D01*
X0104190Y0132299D02*
X0108362Y0132299D01*
X0108362Y0130331D02*
X0104190Y0130331D01*
X0104190Y0128362D02*
X0108362Y0128362D01*
X0108362Y0126394D02*
X0104190Y0126394D01*
X0104190Y0124425D02*
X0108362Y0124425D01*
X0108362Y0122457D02*
X0104190Y0122457D01*
X0104190Y0120488D02*
X0108362Y0120488D01*
X0108362Y0118520D02*
X0104190Y0118520D01*
X0104190Y0116551D02*
X0108362Y0116551D01*
D12*
X0138969Y0098000D03*
X0145859Y0098000D03*
X0159469Y0097500D03*
X0166359Y0097500D03*
G36*
X0185034Y0105105D02*
X0188523Y0108594D01*
X0192094Y0105023D01*
X0188605Y0101534D01*
X0185034Y0105105D01*
G37*
G36*
X0189906Y0109977D02*
X0193395Y0113466D01*
X0196966Y0109895D01*
X0193477Y0106406D01*
X0189906Y0109977D01*
G37*
X0120359Y0091000D03*
X0113469Y0091000D03*
G36*
X0194895Y0186534D02*
X0191406Y0190023D01*
X0194977Y0193594D01*
X0198466Y0190105D01*
X0194895Y0186534D01*
G37*
G36*
X0190023Y0191406D02*
X0186534Y0194895D01*
X0190105Y0198466D01*
X0193594Y0194977D01*
X0190023Y0191406D01*
G37*
X0163531Y0204000D03*
X0156641Y0204000D03*
X0144531Y0204500D03*
X0137641Y0204500D03*
X0121445Y0201000D03*
X0114555Y0201000D03*
X0115055Y0211000D03*
X0121945Y0211000D03*
D13*
X0098000Y0158359D03*
X0098000Y0151469D03*
X0094000Y0135859D03*
X0094000Y0128969D03*
X0094000Y0123359D03*
X0094000Y0116469D03*
X0085000Y0116469D03*
X0085000Y0123359D03*
X0085000Y0128969D03*
X0085000Y0135859D03*
X0199000Y0155641D03*
X0199000Y0162531D03*
X0203500Y0140531D03*
X0203500Y0133641D03*
D14*
X0154437Y0214500D03*
X0146563Y0214500D03*
D15*
X0073949Y0215500D03*
X0073949Y0210500D03*
X0073949Y0205500D03*
X0073949Y0200500D03*
X0053051Y0200539D03*
X0053051Y0205539D03*
X0053051Y0210539D03*
X0053051Y0215500D03*
D16*
X0076500Y0287531D02*
X0076500Y0293469D01*
X0086500Y0293469D02*
X0086500Y0287531D01*
X0096500Y0287531D02*
X0096500Y0293469D01*
X0106500Y0293469D02*
X0106500Y0287531D01*
D17*
X0132500Y0278500D02*
X0132500Y0272500D01*
X0142500Y0272500D02*
X0142500Y0278500D01*
X0152500Y0278500D02*
X0152500Y0272500D01*
X0162500Y0272500D02*
X0162500Y0278500D01*
X0172500Y0278500D02*
X0172500Y0272500D01*
X0182500Y0272500D02*
X0182500Y0278500D01*
X0300500Y0259000D02*
X0300500Y0253000D01*
X0310500Y0253000D02*
X0310500Y0259000D01*
X0320500Y0259000D02*
X0320500Y0253000D01*
X0320500Y0239000D02*
X0320500Y0233000D01*
X0310500Y0233000D02*
X0310500Y0239000D01*
X0300500Y0239000D02*
X0300500Y0233000D01*
X0300500Y0219000D02*
X0300500Y0213000D01*
X0310500Y0213000D02*
X0310500Y0219000D01*
X0320500Y0219000D02*
X0320500Y0213000D01*
X0320500Y0199000D02*
X0320500Y0193000D01*
X0310500Y0193000D02*
X0310500Y0199000D01*
X0300500Y0199000D02*
X0300500Y0193000D01*
X0300500Y0179000D02*
X0300500Y0173000D01*
X0310500Y0173000D02*
X0310500Y0179000D01*
X0320500Y0179000D02*
X0320500Y0173000D01*
X0320500Y0159000D02*
X0320500Y0153000D01*
X0310500Y0153000D02*
X0310500Y0159000D01*
X0300500Y0159000D02*
X0300500Y0153000D01*
X0350500Y0153000D02*
X0350500Y0159000D01*
X0360500Y0159000D02*
X0360500Y0153000D01*
X0370500Y0153000D02*
X0370500Y0159000D01*
X0370500Y0173000D02*
X0370500Y0179000D01*
X0360500Y0179000D02*
X0360500Y0173000D01*
X0350500Y0173000D02*
X0350500Y0179000D01*
X0350500Y0193000D02*
X0350500Y0199000D01*
X0360500Y0199000D02*
X0360500Y0193000D01*
X0370500Y0193000D02*
X0370500Y0199000D01*
X0370500Y0213000D02*
X0370500Y0219000D01*
X0360500Y0219000D02*
X0360500Y0213000D01*
X0350500Y0213000D02*
X0350500Y0219000D01*
X0350500Y0233000D02*
X0350500Y0239000D01*
X0360500Y0239000D02*
X0360500Y0233000D01*
X0370500Y0233000D02*
X0370500Y0239000D01*
X0370500Y0253000D02*
X0370500Y0259000D01*
X0360500Y0259000D02*
X0360500Y0253000D01*
X0350500Y0253000D02*
X0350500Y0259000D01*
X0021500Y0268500D02*
X0015500Y0268500D01*
X0015500Y0278500D02*
X0021500Y0278500D01*
X0021500Y0288500D02*
X0015500Y0288500D01*
X0015500Y0298500D02*
X0021500Y0298500D01*
D18*
X0054500Y0069346D03*
X0054500Y0062654D03*
X0079000Y0063154D03*
X0079000Y0069846D03*
X0104500Y0069346D03*
X0104500Y0062654D03*
X0129000Y0063154D03*
X0129000Y0069846D03*
X0154500Y0069846D03*
X0154500Y0063154D03*
X0179500Y0063154D03*
X0179500Y0069846D03*
X0204000Y0069846D03*
X0204000Y0063154D03*
X0229000Y0063154D03*
X0229000Y0069846D03*
X0254000Y0069846D03*
X0254000Y0063154D03*
X0279000Y0063154D03*
X0279000Y0069846D03*
X0304000Y0069846D03*
X0304000Y0063154D03*
X0334000Y0062654D03*
X0334000Y0069346D03*
D19*
X0328000Y0073500D03*
X0297500Y0074000D03*
X0273000Y0074000D03*
X0248000Y0074000D03*
X0223000Y0074000D03*
X0198000Y0074000D03*
X0173500Y0074000D03*
X0148000Y0074000D03*
X0142000Y0088500D03*
X0148500Y0089500D03*
X0123000Y0074500D03*
X0098500Y0073500D03*
X0073500Y0073500D03*
X0048500Y0073500D03*
X0076000Y0116000D03*
X0076000Y0135500D03*
X0118000Y0131000D03*
X0125000Y0129500D03*
X0130500Y0133000D03*
X0137000Y0136500D03*
X0132500Y0143000D03*
X0129500Y0147500D03*
X0132500Y0151500D03*
X0129500Y0155000D03*
X0116500Y0158000D03*
X0116500Y0163000D03*
X0115000Y0167500D03*
X0125000Y0142000D03*
X0124000Y0117500D03*
X0130000Y0116000D03*
X0136000Y0116000D03*
X0155000Y0116500D03*
X0116000Y0118000D03*
X0163000Y0157500D03*
X0179500Y0164500D03*
X0200000Y0179500D03*
X0190000Y0204000D03*
X0168500Y0204000D03*
X0150500Y0204000D03*
X0127500Y0210500D03*
X0126500Y0200500D03*
X0104500Y0205500D03*
X0089000Y0210500D03*
X0083000Y0196000D03*
X0156500Y0181500D03*
X0173000Y0253500D03*
D20*
X0178500Y0026000D03*
X0153500Y0026000D03*
X0128500Y0026000D03*
X0103500Y0026000D03*
X0078500Y0026000D03*
X0053500Y0026000D03*
X0029000Y0026500D03*
X0203500Y0026000D03*
X0228500Y0026000D03*
X0253500Y0026000D03*
X0278500Y0026000D03*
X0303500Y0026000D03*
X0333500Y0026000D03*
M02*
