G75*
%MOIN*%
%OFA0B0*%
%FSLAX25Y25*%
%IPPOS*%
%LPD*%
%AMOC8*
5,1,8,0,0,1.08239X$1,22.5*
%
%ADD10C,0.00000*%
%ADD11C,0.01142*%
%ADD12R,0.04134X0.04252*%
%ADD13R,0.04252X0.04134*%
%ADD14R,0.05118X0.06299*%
%ADD15R,0.06299X0.02362*%
%ADD16R,0.04331X0.03937*%
D10*
X0003500Y0001000D02*
X0003500Y0315961D01*
X0397201Y0315961D01*
X0397201Y0001000D01*
X0003500Y0001000D01*
D11*
X0114051Y0106690D02*
X0114051Y0110862D01*
X0116020Y0110862D02*
X0116020Y0106690D01*
X0117988Y0106690D02*
X0117988Y0110862D01*
X0119957Y0110862D02*
X0119957Y0106690D01*
X0121925Y0106690D02*
X0121925Y0110862D01*
X0123894Y0110862D02*
X0123894Y0106690D01*
X0125862Y0106690D02*
X0125862Y0110862D01*
X0127831Y0110862D02*
X0127831Y0106690D01*
X0129799Y0106690D02*
X0129799Y0110862D01*
X0131768Y0110862D02*
X0131768Y0106690D01*
X0133736Y0106690D02*
X0133736Y0110862D01*
X0135705Y0110862D02*
X0135705Y0106690D01*
X0137673Y0106690D02*
X0137673Y0110862D01*
X0139642Y0110862D02*
X0139642Y0106690D01*
X0141610Y0106690D02*
X0141610Y0110862D01*
X0143579Y0110862D02*
X0143579Y0106690D01*
X0145547Y0106690D02*
X0145547Y0110862D01*
X0147516Y0110862D02*
X0147516Y0106690D01*
X0149484Y0106690D02*
X0149484Y0110862D01*
X0151453Y0110862D02*
X0151453Y0106690D01*
X0153421Y0106690D02*
X0153421Y0110862D01*
X0155390Y0110862D02*
X0155390Y0106690D01*
X0157358Y0106690D02*
X0157358Y0110862D01*
X0159327Y0110862D02*
X0159327Y0106690D01*
X0161295Y0106690D02*
X0161295Y0110862D01*
X0163264Y0110862D02*
X0163264Y0106690D01*
X0165232Y0106690D02*
X0165232Y0110862D01*
X0167201Y0110862D02*
X0167201Y0106690D01*
X0169169Y0106690D02*
X0169169Y0110862D01*
X0171138Y0110862D02*
X0171138Y0106690D01*
X0173106Y0106690D02*
X0173106Y0110862D01*
X0175075Y0110862D02*
X0175075Y0106690D01*
X0177043Y0106690D02*
X0177043Y0110862D01*
X0179012Y0110862D02*
X0179012Y0106690D01*
X0180980Y0106690D02*
X0180980Y0110862D01*
X0182949Y0110862D02*
X0182949Y0106690D01*
X0188638Y0116551D02*
X0192810Y0116551D01*
X0192810Y0118520D02*
X0188638Y0118520D01*
X0188638Y0120488D02*
X0192810Y0120488D01*
X0192810Y0122457D02*
X0188638Y0122457D01*
X0188638Y0124425D02*
X0192810Y0124425D01*
X0192810Y0126394D02*
X0188638Y0126394D01*
X0188638Y0128362D02*
X0192810Y0128362D01*
X0192810Y0130331D02*
X0188638Y0130331D01*
X0188638Y0132299D02*
X0192810Y0132299D01*
X0192810Y0134268D02*
X0188638Y0134268D01*
X0188638Y0136236D02*
X0192810Y0136236D01*
X0192810Y0138205D02*
X0188638Y0138205D01*
X0188638Y0140173D02*
X0192810Y0140173D01*
X0192810Y0142142D02*
X0188638Y0142142D01*
X0188638Y0144110D02*
X0192810Y0144110D01*
X0192810Y0146079D02*
X0188638Y0146079D01*
X0188638Y0148047D02*
X0192810Y0148047D01*
X0192810Y0150016D02*
X0188638Y0150016D01*
X0188638Y0151984D02*
X0192810Y0151984D01*
X0192810Y0153953D02*
X0188638Y0153953D01*
X0188638Y0155921D02*
X0192810Y0155921D01*
X0192810Y0157890D02*
X0188638Y0157890D01*
X0188638Y0159858D02*
X0192810Y0159858D01*
X0192810Y0161827D02*
X0188638Y0161827D01*
X0188638Y0163795D02*
X0192810Y0163795D01*
X0192810Y0165764D02*
X0188638Y0165764D01*
X0188638Y0167732D02*
X0192810Y0167732D01*
X0192810Y0169701D02*
X0188638Y0169701D01*
X0188638Y0171669D02*
X0192810Y0171669D01*
X0192810Y0173638D02*
X0188638Y0173638D01*
X0188638Y0175606D02*
X0192810Y0175606D01*
X0192810Y0177575D02*
X0188638Y0177575D01*
X0188638Y0179543D02*
X0192810Y0179543D01*
X0192810Y0181512D02*
X0188638Y0181512D01*
X0188638Y0183480D02*
X0192810Y0183480D01*
X0192810Y0185449D02*
X0188638Y0185449D01*
X0182949Y0191138D02*
X0182949Y0195310D01*
X0180980Y0195310D02*
X0180980Y0191138D01*
X0179012Y0191138D02*
X0179012Y0195310D01*
X0177043Y0195310D02*
X0177043Y0191138D01*
X0175075Y0191138D02*
X0175075Y0195310D01*
X0173106Y0195310D02*
X0173106Y0191138D01*
X0171138Y0191138D02*
X0171138Y0195310D01*
X0169169Y0195310D02*
X0169169Y0191138D01*
X0167201Y0191138D02*
X0167201Y0195310D01*
X0165232Y0195310D02*
X0165232Y0191138D01*
X0163264Y0191138D02*
X0163264Y0195310D01*
X0161295Y0195310D02*
X0161295Y0191138D01*
X0159327Y0191138D02*
X0159327Y0195310D01*
X0157358Y0195310D02*
X0157358Y0191138D01*
X0155390Y0191138D02*
X0155390Y0195310D01*
X0153421Y0195310D02*
X0153421Y0191138D01*
X0151453Y0191138D02*
X0151453Y0195310D01*
X0149484Y0195310D02*
X0149484Y0191138D01*
X0147516Y0191138D02*
X0147516Y0195310D01*
X0145547Y0195310D02*
X0145547Y0191138D01*
X0143579Y0191138D02*
X0143579Y0195310D01*
X0141610Y0195310D02*
X0141610Y0191138D01*
X0139642Y0191138D02*
X0139642Y0195310D01*
X0137673Y0195310D02*
X0137673Y0191138D01*
X0135705Y0191138D02*
X0135705Y0195310D01*
X0133736Y0195310D02*
X0133736Y0191138D01*
X0131768Y0191138D02*
X0131768Y0195310D01*
X0129799Y0195310D02*
X0129799Y0191138D01*
X0127831Y0191138D02*
X0127831Y0195310D01*
X0125862Y0195310D02*
X0125862Y0191138D01*
X0123894Y0191138D02*
X0123894Y0195310D01*
X0121925Y0195310D02*
X0121925Y0191138D01*
X0119957Y0191138D02*
X0119957Y0195310D01*
X0117988Y0195310D02*
X0117988Y0191138D01*
X0116020Y0191138D02*
X0116020Y0195310D01*
X0114051Y0195310D02*
X0114051Y0191138D01*
X0108362Y0185449D02*
X0104190Y0185449D01*
X0104190Y0183480D02*
X0108362Y0183480D01*
X0108362Y0181512D02*
X0104190Y0181512D01*
X0104190Y0179543D02*
X0108362Y0179543D01*
X0108362Y0177575D02*
X0104190Y0177575D01*
X0104190Y0175606D02*
X0108362Y0175606D01*
X0108362Y0173638D02*
X0104190Y0173638D01*
X0104190Y0171669D02*
X0108362Y0171669D01*
X0108362Y0169701D02*
X0104190Y0169701D01*
X0104190Y0167732D02*
X0108362Y0167732D01*
X0108362Y0165764D02*
X0104190Y0165764D01*
X0104190Y0163795D02*
X0108362Y0163795D01*
X0108362Y0161827D02*
X0104190Y0161827D01*
X0104190Y0159858D02*
X0108362Y0159858D01*
X0108362Y0157890D02*
X0104190Y0157890D01*
X0104190Y0155921D02*
X0108362Y0155921D01*
X0108362Y0153953D02*
X0104190Y0153953D01*
X0104190Y0151984D02*
X0108362Y0151984D01*
X0108362Y0150016D02*
X0104190Y0150016D01*
X0104190Y0148047D02*
X0108362Y0148047D01*
X0108362Y0146079D02*
X0104190Y0146079D01*
X0104190Y0144110D02*
X0108362Y0144110D01*
X0108362Y0142142D02*
X0104190Y0142142D01*
X0104190Y0140173D02*
X0108362Y0140173D01*
X0108362Y0138205D02*
X0104190Y0138205D01*
X0104190Y0136236D02*
X0108362Y0136236D01*
X0108362Y0134268D02*
X0104190Y0134268D01*
X0104190Y0132299D02*
X0108362Y0132299D01*
X0108362Y0130331D02*
X0104190Y0130331D01*
X0104190Y0128362D02*
X0108362Y0128362D01*
X0108362Y0126394D02*
X0104190Y0126394D01*
X0104190Y0124425D02*
X0108362Y0124425D01*
X0108362Y0122457D02*
X0104190Y0122457D01*
X0104190Y0120488D02*
X0108362Y0120488D01*
X0108362Y0118520D02*
X0104190Y0118520D01*
X0104190Y0116551D02*
X0108362Y0116551D01*
D12*
X0138969Y0098000D03*
X0145859Y0098000D03*
X0159469Y0097500D03*
X0166359Y0097500D03*
G36*
X0185600Y0105105D02*
X0188523Y0108028D01*
X0191528Y0105023D01*
X0188605Y0102100D01*
X0185600Y0105105D01*
G37*
G36*
X0190472Y0109977D02*
X0193395Y0112900D01*
X0196400Y0109895D01*
X0193477Y0106972D01*
X0190472Y0109977D01*
G37*
X0120359Y0091000D03*
X0113469Y0091000D03*
G36*
X0194895Y0187100D02*
X0191972Y0190023D01*
X0194977Y0193028D01*
X0197900Y0190105D01*
X0194895Y0187100D01*
G37*
G36*
X0190023Y0191972D02*
X0187100Y0194895D01*
X0190105Y0197900D01*
X0193028Y0194977D01*
X0190023Y0191972D01*
G37*
X0163531Y0204000D03*
X0156641Y0204000D03*
X0144531Y0204500D03*
X0137641Y0204500D03*
X0121445Y0201000D03*
X0114555Y0201000D03*
X0115055Y0211000D03*
X0121945Y0211000D03*
D13*
X0098000Y0158359D03*
X0098000Y0151469D03*
X0094000Y0135859D03*
X0094000Y0128969D03*
X0094000Y0123359D03*
X0094000Y0116469D03*
X0085000Y0116469D03*
X0085000Y0123359D03*
X0085000Y0128969D03*
X0085000Y0135859D03*
X0199000Y0155641D03*
X0199000Y0162531D03*
X0203500Y0140531D03*
X0203500Y0133641D03*
D14*
X0154437Y0214500D03*
X0146563Y0214500D03*
D15*
X0073949Y0215500D03*
X0073949Y0210500D03*
X0073949Y0205500D03*
X0073949Y0200500D03*
X0053051Y0200539D03*
X0053051Y0205539D03*
X0053051Y0210539D03*
X0053051Y0215500D03*
D16*
X0054500Y0069346D03*
X0054500Y0062654D03*
X0079000Y0063154D03*
X0079000Y0069846D03*
X0104500Y0069346D03*
X0104500Y0062654D03*
X0129000Y0063154D03*
X0129000Y0069846D03*
X0154500Y0069846D03*
X0154500Y0063154D03*
X0179500Y0063154D03*
X0179500Y0069846D03*
X0204000Y0069846D03*
X0204000Y0063154D03*
X0229000Y0063154D03*
X0229000Y0069846D03*
X0254000Y0069846D03*
X0254000Y0063154D03*
X0279000Y0063154D03*
X0279000Y0069846D03*
X0304000Y0069846D03*
X0304000Y0063154D03*
X0334000Y0062654D03*
X0334000Y0069346D03*
M02*
