G75*
%MOIN*%
%OFA0B0*%
%FSLAX25Y25*%
%IPPOS*%
%LPD*%
%AMOC8*
5,1,8,0,0,1.08239X$1,22.5*
%
%ADD10C,0.00000*%
%ADD11R,0.06000X0.12000*%
%ADD12C,0.01142*%
%ADD13R,0.04134X0.04252*%
%ADD14R,0.04252X0.04134*%
%ADD15R,0.05118X0.06299*%
%ADD16R,0.06299X0.02362*%
%ADD17C,0.05937*%
%ADD18C,0.06000*%
%ADD19R,0.04331X0.03937*%
%ADD20C,0.01000*%
%ADD21C,0.03962*%
%ADD22C,0.01200*%
%ADD23R,0.07087X0.07087*%
D10*
X0003500Y0001000D02*
X0003500Y0315961D01*
X0397201Y0315961D01*
X0397201Y0001000D01*
X0003500Y0001000D01*
D11*
X0076500Y0290500D03*
D12*
X0114051Y0195310D02*
X0114051Y0191138D01*
X0116020Y0191138D02*
X0116020Y0195310D01*
X0117988Y0195310D02*
X0117988Y0191138D01*
X0119957Y0191138D02*
X0119957Y0195310D01*
X0121925Y0195310D02*
X0121925Y0191138D01*
X0123894Y0191138D02*
X0123894Y0195310D01*
X0125862Y0195310D02*
X0125862Y0191138D01*
X0127831Y0191138D02*
X0127831Y0195310D01*
X0129799Y0195310D02*
X0129799Y0191138D01*
X0131768Y0191138D02*
X0131768Y0195310D01*
X0133736Y0195310D02*
X0133736Y0191138D01*
X0135705Y0191138D02*
X0135705Y0195310D01*
X0137673Y0195310D02*
X0137673Y0191138D01*
X0139642Y0191138D02*
X0139642Y0195310D01*
X0141610Y0195310D02*
X0141610Y0191138D01*
X0143579Y0191138D02*
X0143579Y0195310D01*
X0145547Y0195310D02*
X0145547Y0191138D01*
X0147516Y0191138D02*
X0147516Y0195310D01*
X0149484Y0195310D02*
X0149484Y0191138D01*
X0151453Y0191138D02*
X0151453Y0195310D01*
X0153421Y0195310D02*
X0153421Y0191138D01*
X0155390Y0191138D02*
X0155390Y0195310D01*
X0157358Y0195310D02*
X0157358Y0191138D01*
X0159327Y0191138D02*
X0159327Y0195310D01*
X0161295Y0195310D02*
X0161295Y0191138D01*
X0163264Y0191138D02*
X0163264Y0195310D01*
X0165232Y0195310D02*
X0165232Y0191138D01*
X0167201Y0191138D02*
X0167201Y0195310D01*
X0169169Y0195310D02*
X0169169Y0191138D01*
X0171138Y0191138D02*
X0171138Y0195310D01*
X0173106Y0195310D02*
X0173106Y0191138D01*
X0175075Y0191138D02*
X0175075Y0195310D01*
X0177043Y0195310D02*
X0177043Y0191138D01*
X0179012Y0191138D02*
X0179012Y0195310D01*
X0180980Y0195310D02*
X0180980Y0191138D01*
X0182949Y0191138D02*
X0182949Y0195310D01*
X0188638Y0185449D02*
X0192810Y0185449D01*
X0192810Y0183480D02*
X0188638Y0183480D01*
X0188638Y0181512D02*
X0192810Y0181512D01*
X0192810Y0179543D02*
X0188638Y0179543D01*
X0188638Y0177575D02*
X0192810Y0177575D01*
X0192810Y0175606D02*
X0188638Y0175606D01*
X0188638Y0173638D02*
X0192810Y0173638D01*
X0192810Y0171669D02*
X0188638Y0171669D01*
X0188638Y0169701D02*
X0192810Y0169701D01*
X0192810Y0167732D02*
X0188638Y0167732D01*
X0188638Y0165764D02*
X0192810Y0165764D01*
X0192810Y0163795D02*
X0188638Y0163795D01*
X0188638Y0161827D02*
X0192810Y0161827D01*
X0192810Y0159858D02*
X0188638Y0159858D01*
X0188638Y0157890D02*
X0192810Y0157890D01*
X0192810Y0155921D02*
X0188638Y0155921D01*
X0188638Y0153953D02*
X0192810Y0153953D01*
X0192810Y0151984D02*
X0188638Y0151984D01*
X0188638Y0150016D02*
X0192810Y0150016D01*
X0192810Y0148047D02*
X0188638Y0148047D01*
X0188638Y0146079D02*
X0192810Y0146079D01*
X0192810Y0144110D02*
X0188638Y0144110D01*
X0188638Y0142142D02*
X0192810Y0142142D01*
X0192810Y0140173D02*
X0188638Y0140173D01*
X0188638Y0138205D02*
X0192810Y0138205D01*
X0192810Y0136236D02*
X0188638Y0136236D01*
X0188638Y0134268D02*
X0192810Y0134268D01*
X0192810Y0132299D02*
X0188638Y0132299D01*
X0188638Y0130331D02*
X0192810Y0130331D01*
X0192810Y0128362D02*
X0188638Y0128362D01*
X0188638Y0126394D02*
X0192810Y0126394D01*
X0192810Y0124425D02*
X0188638Y0124425D01*
X0188638Y0122457D02*
X0192810Y0122457D01*
X0192810Y0120488D02*
X0188638Y0120488D01*
X0188638Y0118520D02*
X0192810Y0118520D01*
X0192810Y0116551D02*
X0188638Y0116551D01*
X0182949Y0110862D02*
X0182949Y0106690D01*
X0180980Y0106690D02*
X0180980Y0110862D01*
X0179012Y0110862D02*
X0179012Y0106690D01*
X0177043Y0106690D02*
X0177043Y0110862D01*
X0175075Y0110862D02*
X0175075Y0106690D01*
X0173106Y0106690D02*
X0173106Y0110862D01*
X0171138Y0110862D02*
X0171138Y0106690D01*
X0169169Y0106690D02*
X0169169Y0110862D01*
X0167201Y0110862D02*
X0167201Y0106690D01*
X0165232Y0106690D02*
X0165232Y0110862D01*
X0163264Y0110862D02*
X0163264Y0106690D01*
X0161295Y0106690D02*
X0161295Y0110862D01*
X0159327Y0110862D02*
X0159327Y0106690D01*
X0157358Y0106690D02*
X0157358Y0110862D01*
X0155390Y0110862D02*
X0155390Y0106690D01*
X0153421Y0106690D02*
X0153421Y0110862D01*
X0151453Y0110862D02*
X0151453Y0106690D01*
X0149484Y0106690D02*
X0149484Y0110862D01*
X0147516Y0110862D02*
X0147516Y0106690D01*
X0145547Y0106690D02*
X0145547Y0110862D01*
X0143579Y0110862D02*
X0143579Y0106690D01*
X0141610Y0106690D02*
X0141610Y0110862D01*
X0139642Y0110862D02*
X0139642Y0106690D01*
X0137673Y0106690D02*
X0137673Y0110862D01*
X0135705Y0110862D02*
X0135705Y0106690D01*
X0133736Y0106690D02*
X0133736Y0110862D01*
X0131768Y0110862D02*
X0131768Y0106690D01*
X0129799Y0106690D02*
X0129799Y0110862D01*
X0127831Y0110862D02*
X0127831Y0106690D01*
X0125862Y0106690D02*
X0125862Y0110862D01*
X0123894Y0110862D02*
X0123894Y0106690D01*
X0121925Y0106690D02*
X0121925Y0110862D01*
X0119957Y0110862D02*
X0119957Y0106690D01*
X0117988Y0106690D02*
X0117988Y0110862D01*
X0116020Y0110862D02*
X0116020Y0106690D01*
X0114051Y0106690D02*
X0114051Y0110862D01*
X0108362Y0116551D02*
X0104190Y0116551D01*
X0104190Y0118520D02*
X0108362Y0118520D01*
X0108362Y0120488D02*
X0104190Y0120488D01*
X0104190Y0122457D02*
X0108362Y0122457D01*
X0108362Y0124425D02*
X0104190Y0124425D01*
X0104190Y0126394D02*
X0108362Y0126394D01*
X0108362Y0128362D02*
X0104190Y0128362D01*
X0104190Y0130331D02*
X0108362Y0130331D01*
X0108362Y0132299D02*
X0104190Y0132299D01*
X0104190Y0134268D02*
X0108362Y0134268D01*
X0108362Y0136236D02*
X0104190Y0136236D01*
X0104190Y0138205D02*
X0108362Y0138205D01*
X0108362Y0140173D02*
X0104190Y0140173D01*
X0104190Y0142142D02*
X0108362Y0142142D01*
X0108362Y0144110D02*
X0104190Y0144110D01*
X0104190Y0146079D02*
X0108362Y0146079D01*
X0108362Y0148047D02*
X0104190Y0148047D01*
X0104190Y0150016D02*
X0108362Y0150016D01*
X0108362Y0151984D02*
X0104190Y0151984D01*
X0104190Y0153953D02*
X0108362Y0153953D01*
X0108362Y0155921D02*
X0104190Y0155921D01*
X0104190Y0157890D02*
X0108362Y0157890D01*
X0108362Y0159858D02*
X0104190Y0159858D01*
X0104190Y0161827D02*
X0108362Y0161827D01*
X0108362Y0163795D02*
X0104190Y0163795D01*
X0104190Y0165764D02*
X0108362Y0165764D01*
X0108362Y0167732D02*
X0104190Y0167732D01*
X0104190Y0169701D02*
X0108362Y0169701D01*
X0108362Y0171669D02*
X0104190Y0171669D01*
X0104190Y0173638D02*
X0108362Y0173638D01*
X0108362Y0175606D02*
X0104190Y0175606D01*
X0104190Y0177575D02*
X0108362Y0177575D01*
X0108362Y0179543D02*
X0104190Y0179543D01*
X0104190Y0181512D02*
X0108362Y0181512D01*
X0108362Y0183480D02*
X0104190Y0183480D01*
X0104190Y0185449D02*
X0108362Y0185449D01*
D13*
X0114555Y0201000D03*
X0121445Y0201000D03*
X0121945Y0211000D03*
X0115055Y0211000D03*
X0137641Y0204500D03*
X0144531Y0204500D03*
X0156641Y0204000D03*
X0163531Y0204000D03*
G36*
X0190023Y0191972D02*
X0187100Y0194895D01*
X0190105Y0197900D01*
X0193028Y0194977D01*
X0190023Y0191972D01*
G37*
G36*
X0194895Y0187100D02*
X0191972Y0190023D01*
X0194977Y0193028D01*
X0197900Y0190105D01*
X0194895Y0187100D01*
G37*
G36*
X0190472Y0109977D02*
X0193395Y0112900D01*
X0196400Y0109895D01*
X0193477Y0106972D01*
X0190472Y0109977D01*
G37*
G36*
X0185600Y0105105D02*
X0188523Y0108028D01*
X0191528Y0105023D01*
X0188605Y0102100D01*
X0185600Y0105105D01*
G37*
X0166359Y0097500D03*
X0159469Y0097500D03*
X0145859Y0098000D03*
X0138969Y0098000D03*
X0120359Y0091000D03*
X0113469Y0091000D03*
D14*
X0094000Y0116469D03*
X0094000Y0123359D03*
X0094000Y0128969D03*
X0094000Y0135859D03*
X0085000Y0135859D03*
X0085000Y0128969D03*
X0085000Y0123359D03*
X0085000Y0116469D03*
X0098000Y0151469D03*
X0098000Y0158359D03*
X0199000Y0155641D03*
X0199000Y0162531D03*
X0203500Y0140531D03*
X0203500Y0133641D03*
D15*
X0154437Y0214500D03*
X0146563Y0214500D03*
D16*
X0073949Y0215500D03*
X0073949Y0210500D03*
X0073949Y0205500D03*
X0073949Y0200500D03*
X0053051Y0200539D03*
X0053051Y0205539D03*
X0053051Y0210539D03*
X0053051Y0215500D03*
D17*
X0076500Y0287531D02*
X0076500Y0293469D01*
X0086500Y0293469D02*
X0086500Y0287531D01*
X0096500Y0287531D02*
X0096500Y0293469D01*
X0106500Y0293469D02*
X0106500Y0287531D01*
D18*
X0132500Y0278500D02*
X0132500Y0272500D01*
X0142500Y0272500D02*
X0142500Y0278500D01*
X0152500Y0278500D02*
X0152500Y0272500D01*
X0162500Y0272500D02*
X0162500Y0278500D01*
X0172500Y0278500D02*
X0172500Y0272500D01*
X0182500Y0272500D02*
X0182500Y0278500D01*
X0300500Y0259000D02*
X0300500Y0253000D01*
X0310500Y0253000D02*
X0310500Y0259000D01*
X0320500Y0259000D02*
X0320500Y0253000D01*
X0320500Y0239000D02*
X0320500Y0233000D01*
X0310500Y0233000D02*
X0310500Y0239000D01*
X0300500Y0239000D02*
X0300500Y0233000D01*
X0300500Y0219000D02*
X0300500Y0213000D01*
X0310500Y0213000D02*
X0310500Y0219000D01*
X0320500Y0219000D02*
X0320500Y0213000D01*
X0320500Y0199000D02*
X0320500Y0193000D01*
X0310500Y0193000D02*
X0310500Y0199000D01*
X0300500Y0199000D02*
X0300500Y0193000D01*
X0300500Y0179000D02*
X0300500Y0173000D01*
X0310500Y0173000D02*
X0310500Y0179000D01*
X0320500Y0179000D02*
X0320500Y0173000D01*
X0320500Y0159000D02*
X0320500Y0153000D01*
X0310500Y0153000D02*
X0310500Y0159000D01*
X0300500Y0159000D02*
X0300500Y0153000D01*
X0350500Y0153000D02*
X0350500Y0159000D01*
X0360500Y0159000D02*
X0360500Y0153000D01*
X0370500Y0153000D02*
X0370500Y0159000D01*
X0370500Y0173000D02*
X0370500Y0179000D01*
X0360500Y0179000D02*
X0360500Y0173000D01*
X0350500Y0173000D02*
X0350500Y0179000D01*
X0350500Y0193000D02*
X0350500Y0199000D01*
X0360500Y0199000D02*
X0360500Y0193000D01*
X0370500Y0193000D02*
X0370500Y0199000D01*
X0370500Y0213000D02*
X0370500Y0219000D01*
X0360500Y0219000D02*
X0360500Y0213000D01*
X0350500Y0213000D02*
X0350500Y0219000D01*
X0350500Y0233000D02*
X0350500Y0239000D01*
X0360500Y0239000D02*
X0360500Y0233000D01*
X0370500Y0233000D02*
X0370500Y0239000D01*
X0370500Y0253000D02*
X0370500Y0259000D01*
X0360500Y0259000D02*
X0360500Y0253000D01*
X0350500Y0253000D02*
X0350500Y0259000D01*
X0021500Y0268500D02*
X0015500Y0268500D01*
X0015500Y0278500D02*
X0021500Y0278500D01*
X0021500Y0288500D02*
X0015500Y0288500D01*
X0015500Y0298500D02*
X0021500Y0298500D01*
D19*
X0054500Y0069346D03*
X0054500Y0062654D03*
X0079000Y0063154D03*
X0079000Y0069846D03*
X0104500Y0069346D03*
X0104500Y0062654D03*
X0129000Y0063154D03*
X0129000Y0069846D03*
X0154500Y0069846D03*
X0154500Y0063154D03*
X0179500Y0063154D03*
X0179500Y0069846D03*
X0204000Y0069846D03*
X0204000Y0063154D03*
X0229000Y0063154D03*
X0229000Y0069846D03*
X0254000Y0069846D03*
X0254000Y0063154D03*
X0279000Y0063154D03*
X0279000Y0069846D03*
X0304000Y0069846D03*
X0304000Y0063154D03*
X0334000Y0062654D03*
X0334000Y0069346D03*
D20*
X0334000Y0069500D02*
X0328000Y0073500D01*
X0310000Y0091500D01*
X0162500Y0091500D01*
X0160000Y0094000D01*
X0136500Y0094000D01*
X0135000Y0095500D01*
X0135000Y0102000D01*
X0134000Y0103000D01*
X0134000Y0106500D01*
X0132000Y0106500D02*
X0132000Y0102000D01*
X0133000Y0101000D01*
X0133000Y0095000D01*
X0135500Y0092500D01*
X0159000Y0092500D01*
X0161500Y0090000D01*
X0292000Y0090000D01*
X0297500Y0084500D01*
X0297500Y0074000D01*
X0298000Y0074000D02*
X0304000Y0070000D01*
X0303500Y0063500D02*
X0303500Y0025500D01*
X0278500Y0025500D02*
X0278500Y0063500D01*
X0279000Y0070000D02*
X0273500Y0074000D01*
X0273000Y0074000D02*
X0273000Y0079000D01*
X0263500Y0088500D01*
X0149500Y0088500D01*
X0148500Y0089500D01*
X0144500Y0086500D02*
X0236000Y0086500D01*
X0248500Y0074000D01*
X0248000Y0074000D02*
X0254000Y0070000D01*
X0253500Y0063500D02*
X0253500Y0025500D01*
X0228500Y0025500D02*
X0228500Y0063500D01*
X0229000Y0070000D02*
X0223000Y0074000D01*
X0223000Y0081500D01*
X0219500Y0085000D01*
X0135500Y0085000D01*
X0131000Y0089500D01*
X0131000Y0094500D01*
X0126000Y0099500D01*
X0126000Y0106500D01*
X0124000Y0106500D02*
X0124000Y0099000D01*
X0129000Y0094000D01*
X0129000Y0088500D01*
X0137000Y0080500D01*
X0191500Y0080500D01*
X0198000Y0074000D01*
X0198500Y0074000D02*
X0204000Y0070000D01*
X0203500Y0063500D02*
X0203500Y0025500D01*
X0179000Y0025500D02*
X0179000Y0063500D01*
X0179500Y0070000D02*
X0173500Y0074000D01*
X0169000Y0078500D01*
X0136000Y0078500D01*
X0127000Y0087500D01*
X0127000Y0093000D01*
X0122000Y0098000D01*
X0122000Y0106500D01*
X0120000Y0107000D02*
X0120000Y0097500D01*
X0125000Y0092500D01*
X0125000Y0085500D01*
X0136500Y0074000D01*
X0148000Y0074000D01*
X0154500Y0070000D01*
X0154000Y0063500D02*
X0154000Y0025500D01*
X0128500Y0025500D02*
X0128500Y0063500D01*
X0129000Y0070000D02*
X0123000Y0074500D01*
X0123000Y0076000D01*
X0109500Y0089500D01*
X0109500Y0102000D01*
X0114000Y0106500D01*
X0116000Y0106500D02*
X0116000Y0093000D01*
X0115000Y0092000D01*
X0118000Y0093000D02*
X0119000Y0092000D01*
X0118000Y0093000D02*
X0118000Y0107000D01*
X0118000Y0109000D02*
X0118000Y0113000D01*
X0119500Y0114500D01*
X0119500Y0120000D01*
X0117000Y0122500D01*
X0138500Y0122500D01*
X0140000Y0121000D01*
X0159500Y0121000D01*
X0163500Y0117000D01*
X0163500Y0111000D01*
X0161500Y0111000D02*
X0161500Y0113000D01*
X0158000Y0116500D01*
X0155000Y0116500D01*
X0143500Y0117500D02*
X0143500Y0110500D01*
X0141500Y0111000D02*
X0141500Y0116000D01*
X0137500Y0120000D01*
X0125500Y0120000D01*
X0124000Y0118500D01*
X0128000Y0114000D02*
X0130000Y0116000D01*
X0128000Y0114000D02*
X0128000Y0111000D01*
X0130000Y0111000D02*
X0130000Y0112000D01*
X0130500Y0112500D01*
X0132500Y0112500D01*
X0136000Y0116000D01*
X0140000Y0121000D02*
X0143500Y0117500D01*
X0139500Y0124500D02*
X0179500Y0164500D01*
X0186500Y0161000D02*
X0186500Y0180500D01*
X0185000Y0182000D01*
X0185000Y0188500D01*
X0187000Y0188500D01*
X0189500Y0191000D01*
X0191000Y0191000D01*
X0194000Y0194000D01*
X0197000Y0194000D01*
X0199000Y0192000D01*
X0199000Y0187500D01*
X0197000Y0185500D01*
X0191000Y0185500D01*
X0191500Y0183500D02*
X0199000Y0183500D01*
X0202000Y0186500D01*
X0207500Y0181000D01*
X0207500Y0155500D01*
X0207500Y0137000D01*
X0204500Y0134000D01*
X0200000Y0134000D01*
X0200000Y0135000D01*
X0198500Y0136500D01*
X0192500Y0136500D01*
X0193000Y0138000D02*
X0200000Y0138000D01*
X0202000Y0140000D01*
X0200000Y0134000D02*
X0200000Y0112000D01*
X0182000Y0094000D01*
X0162500Y0094000D01*
X0160500Y0096000D01*
X0160500Y0098500D02*
X0161000Y0099000D01*
X0161000Y0107000D01*
X0163500Y0108500D02*
X0163500Y0104500D01*
X0181500Y0104500D01*
X0183000Y0106000D01*
X0183000Y0106500D01*
X0181000Y0110500D02*
X0181000Y0111500D01*
X0182000Y0112500D01*
X0184000Y0112500D01*
X0188500Y0108000D01*
X0188500Y0107500D01*
X0194500Y0109000D02*
X0195500Y0108000D01*
X0165000Y0099000D02*
X0163500Y0100500D01*
X0163500Y0104500D01*
X0145000Y0100000D02*
X0143500Y0101500D01*
X0143500Y0107000D01*
X0141500Y0107000D02*
X0141500Y0101000D01*
X0140000Y0099500D01*
X0142000Y0088500D02*
X0142500Y0088500D01*
X0144500Y0086500D01*
X0116000Y0111000D02*
X0116000Y0118000D01*
X0117000Y0122500D02*
X0108000Y0122500D01*
X0108500Y0124500D02*
X0139500Y0124500D01*
X0132500Y0126500D02*
X0163000Y0157500D01*
X0156500Y0161000D02*
X0156500Y0181500D01*
X0161000Y0188500D02*
X0141500Y0188500D01*
X0134500Y0188500D01*
X0134500Y0164500D01*
X0124000Y0154000D01*
X0108000Y0154000D01*
X0105000Y0154000D02*
X0100500Y0154000D01*
X0099500Y0153000D01*
X0099500Y0134500D01*
X0098000Y0133000D01*
X0097500Y0133000D01*
X0096000Y0134500D01*
X0086000Y0134500D01*
X0085000Y0135500D02*
X0076000Y0135500D01*
X0078500Y0126500D02*
X0058000Y0106000D01*
X0028500Y0076000D01*
X0028500Y0026000D01*
X0054000Y0025000D02*
X0054000Y0063000D01*
X0054500Y0069500D02*
X0098000Y0113000D01*
X0098000Y0117000D01*
X0101500Y0120500D01*
X0104000Y0120500D01*
X0104000Y0118500D02*
X0102500Y0118500D01*
X0100000Y0116000D01*
X0100000Y0111500D01*
X0079000Y0090500D01*
X0079000Y0070000D01*
X0073500Y0073500D01*
X0078500Y0063500D02*
X0078500Y0025500D01*
X0104000Y0025000D02*
X0104000Y0063000D01*
X0104500Y0069500D02*
X0098500Y0073500D01*
X0104500Y0070000D02*
X0104500Y0116500D01*
X0104000Y0122500D02*
X0099500Y0122500D01*
X0099000Y0122000D01*
X0099000Y0120500D01*
X0096500Y0118000D01*
X0095500Y0118000D01*
X0085500Y0118000D01*
X0084500Y0116500D02*
X0076000Y0116500D01*
X0078500Y0126500D02*
X0086500Y0126500D01*
X0086500Y0127500D01*
X0086500Y0126500D02*
X0086500Y0125000D01*
X0086500Y0126500D02*
X0095000Y0126500D01*
X0104000Y0126500D01*
X0104500Y0124500D02*
X0099500Y0124500D01*
X0095000Y0124500D02*
X0095000Y0126500D01*
X0095000Y0128000D01*
X0099000Y0128500D02*
X0099000Y0131500D01*
X0097500Y0133000D01*
X0096000Y0134500D02*
X0095500Y0135000D01*
X0099000Y0128500D02*
X0105000Y0128500D01*
X0108500Y0126500D02*
X0132500Y0126500D01*
X0130500Y0133000D02*
X0129500Y0134000D01*
X0108500Y0134000D01*
X0108000Y0132000D02*
X0117000Y0132000D01*
X0118000Y0131000D01*
X0114000Y0128000D02*
X0123500Y0128000D01*
X0125000Y0129500D01*
X0114000Y0128000D02*
X0111500Y0130500D01*
X0108500Y0130500D01*
X0107500Y0136000D02*
X0136000Y0136000D01*
X0136500Y0136500D01*
X0137000Y0136500D01*
X0133500Y0138000D02*
X0156500Y0161000D01*
X0132500Y0151500D02*
X0128500Y0151500D01*
X0127000Y0150000D01*
X0106500Y0150000D01*
X0107500Y0148000D02*
X0127000Y0148000D01*
X0127500Y0147500D01*
X0129500Y0147500D01*
X0126000Y0146000D02*
X0128500Y0143500D01*
X0132000Y0143500D01*
X0132500Y0143000D01*
X0133500Y0138000D02*
X0107000Y0138000D01*
X0108000Y0144000D02*
X0123000Y0144000D01*
X0125000Y0142000D01*
X0126000Y0146000D02*
X0107500Y0146000D01*
X0105000Y0152000D02*
X0119000Y0152000D01*
X0119500Y0152000D01*
X0126500Y0152000D01*
X0129500Y0155000D01*
X0116500Y0158000D02*
X0108000Y0158000D01*
X0108500Y0160000D02*
X0113500Y0160000D01*
X0116500Y0163000D01*
X0115000Y0167500D02*
X0109500Y0162000D01*
X0108500Y0162000D01*
X0104500Y0156000D02*
X0100500Y0156000D01*
X0097500Y0159000D01*
X0097500Y0181500D01*
X0083000Y0196000D01*
X0078500Y0200500D01*
X0075000Y0200500D01*
X0076000Y0205500D02*
X0104500Y0205500D01*
X0114500Y0211000D02*
X0115000Y0211500D01*
X0114000Y0212500D02*
X0111000Y0215500D01*
X0076000Y0215500D01*
X0076500Y0210500D02*
X0089000Y0210500D01*
X0114000Y0212500D02*
X0114000Y0190000D01*
X0115500Y0188500D01*
X0116000Y0188500D01*
X0116000Y0192000D01*
X0116000Y0188500D02*
X0134500Y0188500D01*
X0139500Y0190500D02*
X0141500Y0188500D01*
X0139500Y0190500D02*
X0139500Y0201000D01*
X0138000Y0202500D01*
X0138000Y0205000D01*
X0145000Y0212000D01*
X0147500Y0208000D02*
X0145000Y0205500D01*
X0143500Y0202500D02*
X0141500Y0200500D01*
X0141500Y0195000D01*
X0150500Y0204000D02*
X0150500Y0208000D01*
X0147500Y0208000D01*
X0150500Y0208000D02*
X0154500Y0208000D01*
X0154500Y0211500D01*
X0154000Y0212000D01*
X0154000Y0215500D01*
X0154500Y0213000D02*
X0154500Y0211500D01*
X0154500Y0208000D02*
X0161000Y0208000D01*
X0162000Y0207000D01*
X0162000Y0202500D01*
X0162500Y0202000D01*
X0164500Y0204000D01*
X0168500Y0204000D01*
X0162500Y0202000D02*
X0161500Y0201000D01*
X0161500Y0195500D01*
X0159500Y0195500D02*
X0159500Y0200000D01*
X0157500Y0202000D01*
X0159500Y0191000D02*
X0159500Y0190000D01*
X0161000Y0188500D01*
X0185000Y0188500D01*
X0187000Y0186000D02*
X0187000Y0182500D01*
X0188000Y0181500D01*
X0189000Y0181500D01*
X0191500Y0179500D02*
X0200000Y0179500D01*
X0202000Y0186500D02*
X0202000Y0195000D01*
X0200000Y0197000D01*
X0192000Y0197000D01*
X0190000Y0204000D01*
X0192000Y0197000D02*
X0190500Y0195500D01*
X0190500Y0189500D02*
X0194000Y0189500D01*
X0190500Y0189500D02*
X0187000Y0186000D01*
X0183000Y0195500D02*
X0183000Y0219500D01*
X0142000Y0259500D01*
X0142000Y0275500D01*
X0132500Y0276000D02*
X0132500Y0264500D01*
X0153000Y0275500D02*
X0153000Y0297500D01*
X0149500Y0301000D01*
X0099500Y0301000D01*
X0096500Y0298000D01*
X0096500Y0291000D01*
X0037000Y0293500D02*
X0037000Y0228000D01*
X0049500Y0215500D01*
X0052000Y0215500D01*
X0052000Y0210000D02*
X0049500Y0210000D01*
X0033000Y0226500D01*
X0033000Y0279000D01*
X0023000Y0289000D01*
X0022500Y0278500D02*
X0025500Y0278500D01*
X0029000Y0275000D01*
X0029000Y0225000D01*
X0048500Y0205500D01*
X0052500Y0205500D01*
X0053000Y0205000D01*
X0051500Y0200500D02*
X0048000Y0200500D01*
X0025000Y0223500D01*
X0025000Y0266000D01*
X0022500Y0268500D01*
X0037000Y0293500D02*
X0030500Y0300000D01*
X0021500Y0300000D01*
X0122000Y0211000D02*
X0125000Y0211000D01*
X0126500Y0209500D01*
X0127500Y0210500D01*
X0126500Y0209500D02*
X0129500Y0206500D01*
X0129500Y0195500D01*
X0127500Y0195000D02*
X0127500Y0198500D01*
X0127500Y0199500D01*
X0126500Y0200500D01*
X0125500Y0200500D02*
X0122500Y0200500D01*
X0125500Y0200500D02*
X0127500Y0198500D01*
X0186500Y0161000D02*
X0187500Y0160000D01*
X0188500Y0160000D01*
X0192000Y0160000D02*
X0196500Y0160000D01*
X0197500Y0161000D01*
X0196500Y0158000D02*
X0191500Y0158000D01*
X0196500Y0158000D02*
X0197500Y0157000D01*
X0201000Y0155500D02*
X0207500Y0155500D01*
X0300000Y0155500D02*
X0300000Y0256500D01*
X0320500Y0262500D02*
X0320500Y0156000D01*
X0320000Y0155500D01*
X0350000Y0156000D02*
X0350500Y0155500D01*
X0350000Y0156000D02*
X0350000Y0256500D01*
X0365500Y0266000D02*
X0370500Y0261000D01*
X0370500Y0257000D01*
X0370500Y0256000D01*
X0370500Y0155500D01*
X0333500Y0063000D02*
X0333500Y0025000D01*
X0054500Y0069500D02*
X0048500Y0073500D01*
X0173000Y0253500D02*
X0163000Y0263500D01*
X0163000Y0275500D01*
X0320500Y0262500D02*
X0324000Y0266000D01*
X0365500Y0266000D01*
D21*
X0200000Y0179500D03*
X0179500Y0164500D03*
X0163000Y0157500D03*
X0156500Y0181500D03*
X0150500Y0204000D03*
X0168500Y0204000D03*
X0190000Y0204000D03*
X0127500Y0210500D03*
X0126500Y0200500D03*
X0104500Y0205500D03*
X0089000Y0210500D03*
X0083000Y0196000D03*
X0115000Y0167500D03*
X0116500Y0163000D03*
X0116500Y0158000D03*
X0129500Y0155000D03*
X0132500Y0151500D03*
X0129500Y0147500D03*
X0132500Y0143000D03*
X0125000Y0142000D03*
X0130500Y0133000D03*
X0125000Y0129500D03*
X0118000Y0131000D03*
X0116000Y0118000D03*
X0124000Y0117500D03*
X0130000Y0116000D03*
X0136000Y0116000D03*
X0155000Y0116500D03*
X0137000Y0136500D03*
X0148500Y0089500D03*
X0142000Y0088500D03*
X0148000Y0074000D03*
X0173500Y0074000D03*
X0198000Y0074000D03*
X0223000Y0074000D03*
X0248000Y0074000D03*
X0273000Y0074000D03*
X0297500Y0074000D03*
X0328000Y0073500D03*
X0123000Y0074500D03*
X0098500Y0073500D03*
X0073500Y0073500D03*
X0048500Y0073500D03*
X0076000Y0116000D03*
X0076000Y0135500D03*
X0173000Y0253500D03*
D22*
X0154000Y0243000D02*
X0132500Y0264500D01*
X0106500Y0290500D01*
X0154000Y0243000D02*
X0154000Y0215500D01*
D23*
X0153500Y0026000D03*
X0128500Y0026000D03*
X0103500Y0026000D03*
X0078500Y0026000D03*
X0053500Y0026000D03*
X0029000Y0026500D03*
X0178500Y0026000D03*
X0203500Y0026000D03*
X0228500Y0026000D03*
X0253500Y0026000D03*
X0278500Y0026000D03*
X0303500Y0026000D03*
X0333500Y0026000D03*
M02*
