G75*
%MOIN*%
%OFA0B0*%
%FSLAX25Y25*%
%IPPOS*%
%LPD*%
%AMOC8*
5,1,8,0,0,1.08239X$1,22.5*
%
%ADD10C,0.00000*%
%ADD11C,0.05000*%
%ADD12C,0.00600*%
%ADD13C,0.02400*%
%ADD14C,0.01000*%
%ADD15C,0.00400*%
%ADD16C,0.00300*%
%ADD17C,0.00200*%
%ADD18C,0.00500*%
D10*
X0003500Y0001000D02*
X0003500Y0315961D01*
X0397201Y0315961D01*
X0397201Y0001000D01*
X0003500Y0001000D01*
D11*
X0003500Y0183000D02*
X0021750Y0183000D01*
X0031750Y0183000D02*
X0050000Y0183000D01*
X0053714Y0186714D01*
X0060786Y0193786D02*
X0064500Y0197500D01*
X0064500Y0208750D01*
X0064500Y0218750D02*
X0064500Y0230000D01*
X0074464Y0239964D01*
X0081536Y0247036D02*
X0091500Y0257000D01*
X0091500Y0274500D01*
X0091500Y0284500D02*
X0091500Y0302000D01*
X0068450Y0277000D02*
X0068452Y0277101D01*
X0068458Y0277201D01*
X0068468Y0277302D01*
X0068482Y0277401D01*
X0068500Y0277501D01*
X0068521Y0277599D01*
X0068547Y0277696D01*
X0068576Y0277793D01*
X0068610Y0277888D01*
X0068647Y0277982D01*
X0068687Y0278074D01*
X0068731Y0278164D01*
X0068779Y0278253D01*
X0068830Y0278340D01*
X0068885Y0278425D01*
X0068943Y0278507D01*
X0069004Y0278587D01*
X0069068Y0278665D01*
X0069136Y0278740D01*
X0069206Y0278812D01*
X0069279Y0278881D01*
X0069354Y0278948D01*
X0069433Y0279011D01*
X0069513Y0279072D01*
X0069596Y0279129D01*
X0069682Y0279183D01*
X0069769Y0279233D01*
X0069858Y0279280D01*
X0069949Y0279323D01*
X0070042Y0279363D01*
X0070136Y0279399D01*
X0070231Y0279431D01*
X0070328Y0279460D01*
X0070426Y0279484D01*
X0070524Y0279505D01*
X0070624Y0279522D01*
X0070723Y0279535D01*
X0070824Y0279544D01*
X0070924Y0279549D01*
X0071025Y0279550D01*
X0071126Y0279547D01*
X0071226Y0279540D01*
X0071327Y0279529D01*
X0071426Y0279514D01*
X0071525Y0279495D01*
X0071623Y0279473D01*
X0071721Y0279446D01*
X0071817Y0279416D01*
X0071911Y0279382D01*
X0072005Y0279344D01*
X0072097Y0279302D01*
X0072187Y0279257D01*
X0072275Y0279208D01*
X0072361Y0279156D01*
X0072445Y0279101D01*
X0072527Y0279042D01*
X0072607Y0278980D01*
X0072684Y0278915D01*
X0072758Y0278847D01*
X0072830Y0278776D01*
X0072898Y0278703D01*
X0072964Y0278626D01*
X0073027Y0278547D01*
X0073086Y0278466D01*
X0073143Y0278382D01*
X0073196Y0278297D01*
X0073245Y0278209D01*
X0073291Y0278119D01*
X0073334Y0278028D01*
X0073372Y0277935D01*
X0073407Y0277841D01*
X0073439Y0277745D01*
X0073466Y0277648D01*
X0073490Y0277550D01*
X0073510Y0277451D01*
X0073526Y0277352D01*
X0073538Y0277252D01*
X0073546Y0277151D01*
X0073550Y0277050D01*
X0073550Y0276950D01*
X0073546Y0276849D01*
X0073538Y0276748D01*
X0073526Y0276648D01*
X0073510Y0276549D01*
X0073490Y0276450D01*
X0073466Y0276352D01*
X0073439Y0276255D01*
X0073407Y0276159D01*
X0073372Y0276065D01*
X0073334Y0275972D01*
X0073291Y0275881D01*
X0073245Y0275791D01*
X0073196Y0275703D01*
X0073143Y0275618D01*
X0073086Y0275534D01*
X0073027Y0275453D01*
X0072964Y0275374D01*
X0072898Y0275297D01*
X0072830Y0275224D01*
X0072758Y0275153D01*
X0072684Y0275085D01*
X0072607Y0275020D01*
X0072527Y0274958D01*
X0072445Y0274899D01*
X0072361Y0274844D01*
X0072275Y0274792D01*
X0072187Y0274743D01*
X0072097Y0274698D01*
X0072005Y0274656D01*
X0071911Y0274618D01*
X0071817Y0274584D01*
X0071721Y0274554D01*
X0071623Y0274527D01*
X0071525Y0274505D01*
X0071426Y0274486D01*
X0071327Y0274471D01*
X0071226Y0274460D01*
X0071126Y0274453D01*
X0071025Y0274450D01*
X0070924Y0274451D01*
X0070824Y0274456D01*
X0070723Y0274465D01*
X0070624Y0274478D01*
X0070524Y0274495D01*
X0070426Y0274516D01*
X0070328Y0274540D01*
X0070231Y0274569D01*
X0070136Y0274601D01*
X0070042Y0274637D01*
X0069949Y0274677D01*
X0069858Y0274720D01*
X0069769Y0274767D01*
X0069682Y0274817D01*
X0069596Y0274871D01*
X0069513Y0274928D01*
X0069433Y0274989D01*
X0069354Y0275052D01*
X0069279Y0275119D01*
X0069206Y0275188D01*
X0069136Y0275260D01*
X0069068Y0275335D01*
X0069004Y0275413D01*
X0068943Y0275493D01*
X0068885Y0275575D01*
X0068830Y0275660D01*
X0068779Y0275747D01*
X0068731Y0275836D01*
X0068687Y0275926D01*
X0068647Y0276018D01*
X0068610Y0276112D01*
X0068576Y0276207D01*
X0068547Y0276304D01*
X0068521Y0276401D01*
X0068500Y0276499D01*
X0068482Y0276599D01*
X0068468Y0276698D01*
X0068458Y0276799D01*
X0068452Y0276899D01*
X0068450Y0277000D01*
D12*
X0043961Y0275300D02*
X0039691Y0275300D01*
X0039691Y0281705D01*
X0037516Y0280638D02*
X0036448Y0281705D01*
X0034313Y0281705D01*
X0033245Y0280638D01*
X0033245Y0276368D01*
X0034313Y0275300D01*
X0036448Y0275300D01*
X0037516Y0276368D01*
X0037516Y0271205D02*
X0037516Y0264800D01*
X0033245Y0271205D01*
X0033245Y0264800D01*
X0031070Y0265868D02*
X0031070Y0268003D01*
X0028935Y0268003D01*
X0026800Y0270138D02*
X0026800Y0265868D01*
X0027868Y0264800D01*
X0030003Y0264800D01*
X0031070Y0265868D01*
X0031070Y0270138D02*
X0030003Y0271205D01*
X0027868Y0271205D01*
X0026800Y0270138D01*
X0023500Y0271000D02*
X0023500Y0266000D01*
X0021000Y0263500D01*
X0016000Y0263500D01*
X0013500Y0266000D01*
X0013500Y0271000D01*
X0016000Y0273500D01*
X0013500Y0276000D01*
X0013500Y0281000D01*
X0016000Y0283500D01*
X0013500Y0286000D01*
X0013500Y0291000D01*
X0016000Y0293500D01*
X0013500Y0296000D01*
X0013500Y0301000D01*
X0016000Y0303500D01*
X0021000Y0303500D01*
X0023500Y0301000D01*
X0023500Y0296000D01*
X0021000Y0293500D01*
X0023500Y0291000D01*
X0023500Y0286000D01*
X0021000Y0283500D01*
X0023500Y0281000D01*
X0023500Y0276000D01*
X0021000Y0273500D01*
X0023500Y0271000D01*
X0027868Y0275300D02*
X0026800Y0276368D01*
X0027868Y0275300D02*
X0030003Y0275300D01*
X0031070Y0276368D01*
X0031070Y0277435D01*
X0030003Y0278503D01*
X0027868Y0278503D01*
X0026800Y0279570D01*
X0026800Y0280638D01*
X0027868Y0281705D01*
X0030003Y0281705D01*
X0031070Y0280638D01*
X0030003Y0285800D02*
X0027868Y0285800D01*
X0026800Y0286868D01*
X0027868Y0289003D02*
X0030003Y0289003D01*
X0031070Y0287935D01*
X0031070Y0286868D01*
X0030003Y0285800D01*
X0033245Y0285800D02*
X0036448Y0285800D01*
X0037516Y0286868D01*
X0037516Y0291138D01*
X0036448Y0292205D01*
X0033245Y0292205D01*
X0033245Y0285800D01*
X0039691Y0285800D02*
X0039691Y0290070D01*
X0041826Y0292205D01*
X0043961Y0290070D01*
X0043961Y0285800D01*
X0043961Y0289003D02*
X0039691Y0289003D01*
X0040759Y0296300D02*
X0042894Y0296300D01*
X0043961Y0297368D01*
X0040759Y0296300D02*
X0039691Y0297368D01*
X0039691Y0301638D01*
X0040759Y0302705D01*
X0042894Y0302705D01*
X0043961Y0301638D01*
X0037516Y0301638D02*
X0036448Y0302705D01*
X0034313Y0302705D01*
X0033245Y0301638D01*
X0033245Y0297368D01*
X0034313Y0296300D01*
X0036448Y0296300D01*
X0037516Y0297368D01*
X0031070Y0298435D02*
X0028935Y0296300D01*
X0026800Y0298435D01*
X0026800Y0302705D01*
X0031070Y0302705D02*
X0031070Y0298435D01*
X0030003Y0292205D02*
X0027868Y0292205D01*
X0026800Y0291138D01*
X0026800Y0290070D01*
X0027868Y0289003D01*
X0031070Y0291138D02*
X0030003Y0292205D01*
X0039691Y0271205D02*
X0042894Y0271205D01*
X0043961Y0270138D01*
X0043961Y0265868D01*
X0042894Y0264800D01*
X0039691Y0264800D01*
X0039691Y0271205D01*
X0056945Y0217547D02*
X0070094Y0217547D01*
X0071079Y0199398D02*
X0071079Y0199299D01*
X0070094Y0198453D02*
X0056906Y0198453D01*
X0130000Y0270500D02*
X0135000Y0270500D01*
X0137500Y0273000D01*
X0140000Y0270500D01*
X0145000Y0270500D01*
X0147500Y0273000D01*
X0150000Y0270500D01*
X0155000Y0270500D01*
X0157500Y0273000D01*
X0160000Y0270500D01*
X0165000Y0270500D01*
X0167500Y0273000D01*
X0170000Y0270500D01*
X0175000Y0270500D01*
X0177500Y0273000D01*
X0180000Y0270500D01*
X0185000Y0270500D01*
X0187500Y0273000D01*
X0187500Y0278000D01*
X0185000Y0280500D01*
X0180000Y0280500D01*
X0177500Y0278000D01*
X0175000Y0280500D01*
X0170000Y0280500D01*
X0167500Y0278000D01*
X0165000Y0280500D01*
X0160000Y0280500D01*
X0157500Y0278000D01*
X0155000Y0280500D01*
X0150000Y0280500D01*
X0147500Y0278000D01*
X0145000Y0280500D01*
X0140000Y0280500D01*
X0137500Y0278000D01*
X0135000Y0280500D01*
X0130000Y0280500D01*
X0127500Y0278000D01*
X0127500Y0273000D01*
X0130000Y0270500D01*
X0129295Y0282300D02*
X0133565Y0282300D01*
X0135700Y0284435D01*
X0133565Y0286570D01*
X0129295Y0286570D01*
X0129295Y0288745D02*
X0129295Y0291948D01*
X0130362Y0293016D01*
X0134632Y0293016D01*
X0135700Y0291948D01*
X0135700Y0288745D01*
X0129295Y0288745D01*
X0129295Y0295191D02*
X0129295Y0298394D01*
X0130362Y0299461D01*
X0134632Y0299461D01*
X0135700Y0298394D01*
X0135700Y0295191D01*
X0129295Y0295191D01*
X0139795Y0296259D02*
X0140862Y0295191D01*
X0145132Y0295191D01*
X0146200Y0296259D01*
X0146200Y0298394D01*
X0145132Y0299461D01*
X0146200Y0301636D02*
X0139795Y0301636D01*
X0140862Y0299461D02*
X0139795Y0298394D01*
X0139795Y0296259D01*
X0139795Y0293016D02*
X0146200Y0293016D01*
X0144065Y0290881D01*
X0146200Y0288745D01*
X0139795Y0288745D01*
X0140862Y0286570D02*
X0139795Y0285503D01*
X0139795Y0283368D01*
X0140862Y0282300D01*
X0141930Y0282300D01*
X0142997Y0283368D01*
X0142997Y0285503D01*
X0144065Y0286570D01*
X0145132Y0286570D01*
X0146200Y0285503D01*
X0146200Y0283368D01*
X0145132Y0282300D01*
X0150295Y0283368D02*
X0150295Y0285503D01*
X0151362Y0286570D01*
X0153497Y0286570D02*
X0153497Y0284435D01*
X0153497Y0286570D02*
X0155632Y0286570D01*
X0156700Y0285503D01*
X0156700Y0283368D01*
X0155632Y0282300D01*
X0151362Y0282300D01*
X0150295Y0283368D01*
X0150295Y0288745D02*
X0156700Y0293016D01*
X0150295Y0293016D01*
X0150295Y0295191D02*
X0150295Y0298394D01*
X0151362Y0299461D01*
X0155632Y0299461D01*
X0156700Y0298394D01*
X0156700Y0295191D01*
X0150295Y0295191D01*
X0150295Y0288745D02*
X0156700Y0288745D01*
X0160795Y0288745D02*
X0167200Y0288745D01*
X0165065Y0290881D01*
X0167200Y0293016D01*
X0160795Y0293016D01*
X0160795Y0295191D02*
X0160795Y0298394D01*
X0161862Y0299461D01*
X0166132Y0299461D01*
X0167200Y0298394D01*
X0167200Y0295191D01*
X0160795Y0295191D01*
X0160795Y0301636D02*
X0160795Y0303772D01*
X0160795Y0302704D02*
X0167200Y0302704D01*
X0167200Y0301636D02*
X0167200Y0303772D01*
X0166132Y0305933D02*
X0167200Y0307001D01*
X0167200Y0309136D01*
X0166132Y0310204D01*
X0161862Y0310204D01*
X0160795Y0309136D01*
X0160795Y0307001D01*
X0161862Y0305933D01*
X0166132Y0305933D01*
X0171295Y0305907D02*
X0171295Y0301636D01*
X0171295Y0303772D02*
X0177700Y0303772D01*
X0176632Y0299461D02*
X0177700Y0298394D01*
X0177700Y0296259D01*
X0176632Y0295191D01*
X0174497Y0296259D02*
X0174497Y0298394D01*
X0175565Y0299461D01*
X0176632Y0299461D01*
X0174497Y0296259D02*
X0173430Y0295191D01*
X0172362Y0295191D01*
X0171295Y0296259D01*
X0171295Y0298394D01*
X0172362Y0299461D01*
X0172362Y0293016D02*
X0174497Y0293016D01*
X0175565Y0291948D01*
X0175565Y0288745D01*
X0177700Y0288745D02*
X0171295Y0288745D01*
X0171295Y0291948D01*
X0172362Y0293016D01*
X0175565Y0290881D02*
X0177700Y0293016D01*
X0181795Y0293016D02*
X0188200Y0288745D01*
X0188200Y0286570D02*
X0181795Y0286570D01*
X0177700Y0286570D02*
X0171295Y0286570D01*
X0171295Y0282300D02*
X0177700Y0286570D01*
X0177700Y0282300D02*
X0171295Y0282300D01*
X0167200Y0283368D02*
X0166132Y0282300D01*
X0167200Y0283368D02*
X0167200Y0285503D01*
X0166132Y0286570D01*
X0165065Y0286570D01*
X0163997Y0285503D01*
X0163997Y0283368D01*
X0162930Y0282300D01*
X0161862Y0282300D01*
X0160795Y0283368D01*
X0160795Y0285503D01*
X0161862Y0286570D01*
X0181795Y0282300D02*
X0188200Y0286570D01*
X0188200Y0282300D02*
X0181795Y0282300D01*
X0182862Y0295191D02*
X0187132Y0295191D01*
X0188200Y0296259D01*
X0188200Y0298394D01*
X0187132Y0299461D01*
X0182862Y0299461D02*
X0181795Y0298394D01*
X0181795Y0296259D01*
X0182862Y0295191D01*
X0146200Y0301636D02*
X0146200Y0305907D01*
X0146200Y0308082D02*
X0139795Y0308082D01*
X0142997Y0309150D02*
X0146200Y0312352D01*
X0144065Y0308082D02*
X0139795Y0312352D01*
X0295500Y0258500D02*
X0295500Y0253500D01*
X0298000Y0251000D01*
X0303000Y0251000D01*
X0305500Y0253500D01*
X0308000Y0251000D01*
X0313000Y0251000D01*
X0315500Y0253500D01*
X0318000Y0251000D01*
X0323000Y0251000D01*
X0325500Y0253500D01*
X0325500Y0258500D01*
X0323000Y0261000D01*
X0318000Y0261000D01*
X0315500Y0258500D01*
X0313000Y0261000D01*
X0308000Y0261000D01*
X0305500Y0258500D01*
X0303000Y0261000D01*
X0298000Y0261000D01*
X0295500Y0258500D01*
X0298795Y0271800D02*
X0303065Y0271800D01*
X0305200Y0273935D01*
X0303065Y0276070D01*
X0298795Y0276070D01*
X0298795Y0278245D02*
X0298795Y0281448D01*
X0299862Y0282516D01*
X0304132Y0282516D01*
X0305200Y0281448D01*
X0305200Y0278245D01*
X0298795Y0278245D01*
X0298795Y0284691D02*
X0298795Y0287894D01*
X0299862Y0288961D01*
X0304132Y0288961D01*
X0305200Y0287894D01*
X0305200Y0284691D01*
X0298795Y0284691D01*
X0310362Y0292204D02*
X0314632Y0292204D01*
X0315700Y0293272D01*
X0311430Y0293272D02*
X0311430Y0291136D01*
X0311430Y0288961D02*
X0315700Y0288961D01*
X0315700Y0285759D01*
X0314632Y0284691D01*
X0311430Y0284691D01*
X0312497Y0282516D02*
X0311430Y0281448D01*
X0311430Y0279313D01*
X0312497Y0278245D01*
X0314632Y0278245D01*
X0315700Y0279313D01*
X0315700Y0281448D01*
X0314632Y0282516D01*
X0312497Y0282516D01*
X0313565Y0276070D02*
X0309295Y0276070D01*
X0313565Y0276070D02*
X0315700Y0273935D01*
X0313565Y0271800D01*
X0309295Y0271800D01*
X0319795Y0272868D02*
X0320862Y0271800D01*
X0325132Y0271800D01*
X0326200Y0272868D01*
X0326200Y0275003D01*
X0325132Y0276070D01*
X0322997Y0276070D01*
X0322997Y0273935D01*
X0320862Y0276070D02*
X0319795Y0275003D01*
X0319795Y0272868D01*
X0319795Y0278245D02*
X0326200Y0282516D01*
X0319795Y0282516D01*
X0319795Y0284691D02*
X0319795Y0287894D01*
X0320862Y0288961D01*
X0325132Y0288961D01*
X0326200Y0287894D01*
X0326200Y0284691D01*
X0319795Y0284691D01*
X0319795Y0278245D02*
X0326200Y0278245D01*
X0343795Y0278245D02*
X0343795Y0281448D01*
X0344862Y0282516D01*
X0349132Y0282516D01*
X0350200Y0281448D01*
X0350200Y0278245D01*
X0343795Y0278245D01*
X0343795Y0276070D02*
X0348065Y0276070D01*
X0350200Y0273935D01*
X0348065Y0271800D01*
X0343795Y0271800D01*
X0354295Y0271800D02*
X0358565Y0271800D01*
X0360700Y0273935D01*
X0358565Y0276070D01*
X0354295Y0276070D01*
X0357497Y0278245D02*
X0359632Y0278245D01*
X0360700Y0279313D01*
X0360700Y0281448D01*
X0359632Y0282516D01*
X0357497Y0282516D01*
X0356430Y0281448D01*
X0356430Y0279313D01*
X0357497Y0278245D01*
X0356430Y0284691D02*
X0359632Y0284691D01*
X0360700Y0285759D01*
X0360700Y0288961D01*
X0356430Y0288961D01*
X0356430Y0291136D02*
X0356430Y0293272D01*
X0355362Y0292204D02*
X0359632Y0292204D01*
X0360700Y0293272D01*
X0365862Y0288961D02*
X0364795Y0287894D01*
X0364795Y0284691D01*
X0371200Y0284691D01*
X0371200Y0287894D01*
X0370132Y0288961D01*
X0365862Y0288961D01*
X0364795Y0282516D02*
X0371200Y0282516D01*
X0364795Y0278245D01*
X0371200Y0278245D01*
X0370132Y0276070D02*
X0367997Y0276070D01*
X0367997Y0273935D01*
X0365862Y0271800D02*
X0370132Y0271800D01*
X0371200Y0272868D01*
X0371200Y0275003D01*
X0370132Y0276070D01*
X0365862Y0276070D02*
X0364795Y0275003D01*
X0364795Y0272868D01*
X0365862Y0271800D01*
X0368000Y0261000D02*
X0373000Y0261000D01*
X0375500Y0258500D01*
X0375500Y0253500D01*
X0373000Y0251000D01*
X0368000Y0251000D01*
X0365500Y0253500D01*
X0363000Y0251000D01*
X0358000Y0251000D01*
X0355500Y0253500D01*
X0353000Y0251000D01*
X0348000Y0251000D01*
X0345500Y0253500D01*
X0345500Y0258500D01*
X0348000Y0261000D01*
X0353000Y0261000D01*
X0355500Y0258500D01*
X0358000Y0261000D01*
X0363000Y0261000D01*
X0365500Y0258500D01*
X0368000Y0261000D01*
X0368000Y0241000D02*
X0373000Y0241000D01*
X0375500Y0238500D01*
X0375500Y0233500D01*
X0373000Y0231000D01*
X0368000Y0231000D01*
X0365500Y0233500D01*
X0363000Y0231000D01*
X0358000Y0231000D01*
X0355500Y0233500D01*
X0353000Y0231000D01*
X0348000Y0231000D01*
X0345500Y0233500D01*
X0345500Y0238500D01*
X0348000Y0241000D01*
X0353000Y0241000D01*
X0355500Y0238500D01*
X0358000Y0241000D01*
X0363000Y0241000D01*
X0365500Y0238500D01*
X0368000Y0241000D01*
X0368000Y0221000D02*
X0373000Y0221000D01*
X0375500Y0218500D01*
X0375500Y0213500D01*
X0373000Y0211000D01*
X0368000Y0211000D01*
X0365500Y0213500D01*
X0363000Y0211000D01*
X0358000Y0211000D01*
X0355500Y0213500D01*
X0353000Y0211000D01*
X0348000Y0211000D01*
X0345500Y0213500D01*
X0345500Y0218500D01*
X0348000Y0221000D01*
X0353000Y0221000D01*
X0355500Y0218500D01*
X0358000Y0221000D01*
X0363000Y0221000D01*
X0365500Y0218500D01*
X0368000Y0221000D01*
X0368000Y0201000D02*
X0365500Y0198500D01*
X0363000Y0201000D01*
X0358000Y0201000D01*
X0355500Y0198500D01*
X0353000Y0201000D01*
X0348000Y0201000D01*
X0345500Y0198500D01*
X0345500Y0193500D01*
X0348000Y0191000D01*
X0353000Y0191000D01*
X0355500Y0193500D01*
X0358000Y0191000D01*
X0363000Y0191000D01*
X0365500Y0193500D01*
X0368000Y0191000D01*
X0373000Y0191000D01*
X0375500Y0193500D01*
X0375500Y0198500D01*
X0373000Y0201000D01*
X0368000Y0201000D01*
X0368000Y0181000D02*
X0373000Y0181000D01*
X0375500Y0178500D01*
X0375500Y0173500D01*
X0373000Y0171000D01*
X0368000Y0171000D01*
X0365500Y0173500D01*
X0363000Y0171000D01*
X0358000Y0171000D01*
X0355500Y0173500D01*
X0353000Y0171000D01*
X0348000Y0171000D01*
X0345500Y0173500D01*
X0345500Y0178500D01*
X0348000Y0181000D01*
X0353000Y0181000D01*
X0355500Y0178500D01*
X0358000Y0181000D01*
X0363000Y0181000D01*
X0365500Y0178500D01*
X0368000Y0181000D01*
X0368000Y0161000D02*
X0373000Y0161000D01*
X0375500Y0158500D01*
X0375500Y0153500D01*
X0373000Y0151000D01*
X0368000Y0151000D01*
X0365500Y0153500D01*
X0363000Y0151000D01*
X0358000Y0151000D01*
X0355500Y0153500D01*
X0353000Y0151000D01*
X0348000Y0151000D01*
X0345500Y0153500D01*
X0345500Y0158500D01*
X0348000Y0161000D01*
X0353000Y0161000D01*
X0355500Y0158500D01*
X0358000Y0161000D01*
X0363000Y0161000D01*
X0365500Y0158500D01*
X0368000Y0161000D01*
X0325500Y0158500D02*
X0325500Y0153500D01*
X0323000Y0151000D01*
X0318000Y0151000D01*
X0315500Y0153500D01*
X0313000Y0151000D01*
X0308000Y0151000D01*
X0305500Y0153500D01*
X0303000Y0151000D01*
X0298000Y0151000D01*
X0295500Y0153500D01*
X0295500Y0158500D01*
X0298000Y0161000D01*
X0303000Y0161000D01*
X0305500Y0158500D01*
X0308000Y0161000D01*
X0313000Y0161000D01*
X0315500Y0158500D01*
X0318000Y0161000D01*
X0323000Y0161000D01*
X0325500Y0158500D01*
X0323000Y0171000D02*
X0318000Y0171000D01*
X0315500Y0173500D01*
X0313000Y0171000D01*
X0308000Y0171000D01*
X0305500Y0173500D01*
X0303000Y0171000D01*
X0298000Y0171000D01*
X0295500Y0173500D01*
X0295500Y0178500D01*
X0298000Y0181000D01*
X0303000Y0181000D01*
X0305500Y0178500D01*
X0308000Y0181000D01*
X0313000Y0181000D01*
X0315500Y0178500D01*
X0318000Y0181000D01*
X0323000Y0181000D01*
X0325500Y0178500D01*
X0325500Y0173500D01*
X0323000Y0171000D01*
X0323000Y0191000D02*
X0318000Y0191000D01*
X0315500Y0193500D01*
X0313000Y0191000D01*
X0308000Y0191000D01*
X0305500Y0193500D01*
X0303000Y0191000D01*
X0298000Y0191000D01*
X0295500Y0193500D01*
X0295500Y0198500D01*
X0298000Y0201000D01*
X0303000Y0201000D01*
X0305500Y0198500D01*
X0308000Y0201000D01*
X0313000Y0201000D01*
X0315500Y0198500D01*
X0318000Y0201000D01*
X0323000Y0201000D01*
X0325500Y0198500D01*
X0325500Y0193500D01*
X0323000Y0191000D01*
X0323000Y0211000D02*
X0318000Y0211000D01*
X0315500Y0213500D01*
X0313000Y0211000D01*
X0308000Y0211000D01*
X0305500Y0213500D01*
X0303000Y0211000D01*
X0298000Y0211000D01*
X0295500Y0213500D01*
X0295500Y0218500D01*
X0298000Y0221000D01*
X0303000Y0221000D01*
X0305500Y0218500D01*
X0308000Y0221000D01*
X0313000Y0221000D01*
X0315500Y0218500D01*
X0318000Y0221000D01*
X0323000Y0221000D01*
X0325500Y0218500D01*
X0325500Y0213500D01*
X0323000Y0211000D01*
X0323000Y0231000D02*
X0318000Y0231000D01*
X0315500Y0233500D01*
X0313000Y0231000D01*
X0308000Y0231000D01*
X0305500Y0233500D01*
X0303000Y0231000D01*
X0298000Y0231000D01*
X0295500Y0233500D01*
X0295500Y0238500D01*
X0298000Y0241000D01*
X0303000Y0241000D01*
X0305500Y0238500D01*
X0308000Y0241000D01*
X0313000Y0241000D01*
X0315500Y0238500D01*
X0318000Y0241000D01*
X0323000Y0241000D01*
X0325500Y0238500D01*
X0325500Y0233500D01*
X0323000Y0231000D01*
X0343795Y0284691D02*
X0343795Y0287894D01*
X0344862Y0288961D01*
X0349132Y0288961D01*
X0350200Y0287894D01*
X0350200Y0284691D01*
X0343795Y0284691D01*
X0344082Y0299300D02*
X0344082Y0300368D01*
X0348352Y0304638D01*
X0348352Y0305705D01*
X0344082Y0305705D01*
X0341907Y0304638D02*
X0341907Y0300368D01*
X0340839Y0299300D01*
X0338704Y0299300D01*
X0337636Y0300368D01*
X0338704Y0302503D02*
X0337636Y0303570D01*
X0337636Y0304638D01*
X0338704Y0305705D01*
X0340839Y0305705D01*
X0341907Y0304638D01*
X0341907Y0302503D02*
X0338704Y0302503D01*
X0335461Y0302503D02*
X0335461Y0304638D01*
X0334394Y0305705D01*
X0331191Y0305705D01*
X0331191Y0299300D01*
X0331191Y0301435D02*
X0334394Y0301435D01*
X0335461Y0302503D01*
X0329016Y0304638D02*
X0327948Y0305705D01*
X0325813Y0305705D01*
X0324745Y0304638D01*
X0324745Y0300368D01*
X0325813Y0299300D01*
X0327948Y0299300D01*
X0329016Y0300368D01*
X0322570Y0299300D02*
X0322570Y0305705D01*
X0320435Y0303570D01*
X0318300Y0305705D01*
X0318300Y0299300D01*
X0350527Y0300368D02*
X0351595Y0299300D01*
X0353730Y0299300D01*
X0354798Y0300368D01*
X0354798Y0304638D01*
X0350527Y0300368D01*
X0350527Y0304638D01*
X0351595Y0305705D01*
X0353730Y0305705D01*
X0354798Y0304638D01*
X0356973Y0304638D02*
X0358041Y0305705D01*
X0360176Y0305705D01*
X0361243Y0304638D01*
X0356973Y0300368D01*
X0358041Y0299300D01*
X0360176Y0299300D01*
X0361243Y0300368D01*
X0361243Y0304638D01*
X0356973Y0304638D02*
X0356973Y0300368D01*
X0346200Y0065298D02*
X0346200Y0061027D01*
X0341930Y0065298D01*
X0340862Y0065298D01*
X0339795Y0064230D01*
X0339795Y0062095D01*
X0340862Y0061027D01*
X0346200Y0058852D02*
X0346200Y0054582D01*
X0346200Y0056717D02*
X0339795Y0056717D01*
X0341930Y0054582D01*
X0347268Y0052407D02*
X0347268Y0048136D01*
X0346200Y0043826D02*
X0339795Y0043826D01*
X0339795Y0041691D02*
X0339795Y0045961D01*
X0341930Y0039516D02*
X0346200Y0039516D01*
X0342997Y0039516D02*
X0342997Y0035245D01*
X0341930Y0035245D02*
X0346200Y0035245D01*
X0345132Y0033070D02*
X0346200Y0032003D01*
X0346200Y0028800D01*
X0339795Y0028800D01*
X0339795Y0032003D01*
X0340862Y0033070D01*
X0341930Y0033070D01*
X0342997Y0032003D01*
X0342997Y0028800D01*
X0342997Y0032003D02*
X0344065Y0033070D01*
X0345132Y0033070D01*
X0341930Y0035245D02*
X0339795Y0037381D01*
X0341930Y0039516D01*
X0316768Y0046636D02*
X0316768Y0050907D01*
X0315700Y0053082D02*
X0315700Y0057352D01*
X0315700Y0055217D02*
X0309295Y0055217D01*
X0311430Y0053082D01*
X0311430Y0059527D02*
X0309295Y0061663D01*
X0315700Y0061663D01*
X0315700Y0063798D02*
X0315700Y0059527D01*
X0309295Y0044461D02*
X0309295Y0040191D01*
X0309295Y0042326D02*
X0315700Y0042326D01*
X0315700Y0038016D02*
X0311430Y0038016D01*
X0309295Y0035881D01*
X0311430Y0033745D01*
X0315700Y0033745D01*
X0314632Y0031570D02*
X0313565Y0031570D01*
X0312497Y0030503D01*
X0312497Y0027300D01*
X0309295Y0027300D02*
X0309295Y0030503D01*
X0310362Y0031570D01*
X0311430Y0031570D01*
X0312497Y0030503D01*
X0314632Y0031570D02*
X0315700Y0030503D01*
X0315700Y0027300D01*
X0309295Y0027300D01*
X0312497Y0033745D02*
X0312497Y0038016D01*
X0290768Y0046636D02*
X0290768Y0050907D01*
X0289700Y0053082D02*
X0289700Y0057352D01*
X0289700Y0055217D02*
X0283295Y0055217D01*
X0285430Y0053082D01*
X0284362Y0059527D02*
X0283295Y0060595D01*
X0283295Y0062730D01*
X0284362Y0063798D01*
X0288632Y0059527D01*
X0289700Y0060595D01*
X0289700Y0062730D01*
X0288632Y0063798D01*
X0284362Y0063798D01*
X0284362Y0059527D02*
X0288632Y0059527D01*
X0283295Y0044461D02*
X0283295Y0040191D01*
X0283295Y0042326D02*
X0289700Y0042326D01*
X0289700Y0038016D02*
X0285430Y0038016D01*
X0283295Y0035881D01*
X0285430Y0033745D01*
X0289700Y0033745D01*
X0288632Y0031570D02*
X0289700Y0030503D01*
X0289700Y0027300D01*
X0283295Y0027300D01*
X0283295Y0030503D01*
X0284362Y0031570D01*
X0285430Y0031570D01*
X0286497Y0030503D01*
X0286497Y0027300D01*
X0286497Y0030503D02*
X0287565Y0031570D01*
X0288632Y0031570D01*
X0286497Y0033745D02*
X0286497Y0038016D01*
X0259268Y0050636D02*
X0259268Y0054907D01*
X0257132Y0057082D02*
X0258200Y0058150D01*
X0258200Y0060285D01*
X0257132Y0061352D01*
X0252862Y0061352D01*
X0251795Y0060285D01*
X0251795Y0058150D01*
X0252862Y0057082D01*
X0253930Y0057082D01*
X0254997Y0058150D01*
X0254997Y0061352D01*
X0251795Y0048461D02*
X0251795Y0044191D01*
X0251795Y0046326D02*
X0258200Y0046326D01*
X0258200Y0042016D02*
X0253930Y0042016D01*
X0251795Y0039881D01*
X0253930Y0037745D01*
X0258200Y0037745D01*
X0257132Y0035570D02*
X0258200Y0034503D01*
X0258200Y0031300D01*
X0251795Y0031300D01*
X0251795Y0034503D01*
X0252862Y0035570D01*
X0253930Y0035570D01*
X0254997Y0034503D01*
X0254997Y0031300D01*
X0254997Y0034503D02*
X0256065Y0035570D01*
X0257132Y0035570D01*
X0254997Y0037745D02*
X0254997Y0042016D01*
X0233200Y0042016D02*
X0228930Y0042016D01*
X0226795Y0039881D01*
X0228930Y0037745D01*
X0233200Y0037745D01*
X0232132Y0035570D02*
X0233200Y0034503D01*
X0233200Y0031300D01*
X0226795Y0031300D01*
X0226795Y0034503D01*
X0227862Y0035570D01*
X0228930Y0035570D01*
X0229997Y0034503D01*
X0229997Y0031300D01*
X0229997Y0034503D02*
X0231065Y0035570D01*
X0232132Y0035570D01*
X0229997Y0037745D02*
X0229997Y0042016D01*
X0226795Y0044191D02*
X0226795Y0048461D01*
X0226795Y0046326D02*
X0233200Y0046326D01*
X0234268Y0050636D02*
X0234268Y0054907D01*
X0232132Y0057082D02*
X0231065Y0057082D01*
X0229997Y0058150D01*
X0229997Y0060285D01*
X0231065Y0061352D01*
X0232132Y0061352D01*
X0233200Y0060285D01*
X0233200Y0058150D01*
X0232132Y0057082D01*
X0229997Y0058150D02*
X0228930Y0057082D01*
X0227862Y0057082D01*
X0226795Y0058150D01*
X0226795Y0060285D01*
X0227862Y0061352D01*
X0228930Y0061352D01*
X0229997Y0060285D01*
X0209268Y0054907D02*
X0209268Y0050636D01*
X0208200Y0046326D02*
X0201795Y0046326D01*
X0201795Y0044191D02*
X0201795Y0048461D01*
X0203930Y0042016D02*
X0208200Y0042016D01*
X0204997Y0042016D02*
X0204997Y0037745D01*
X0203930Y0037745D02*
X0201795Y0039881D01*
X0203930Y0042016D01*
X0203930Y0037745D02*
X0208200Y0037745D01*
X0207132Y0035570D02*
X0208200Y0034503D01*
X0208200Y0031300D01*
X0201795Y0031300D01*
X0201795Y0034503D01*
X0202862Y0035570D01*
X0203930Y0035570D01*
X0204997Y0034503D01*
X0204997Y0031300D01*
X0204997Y0034503D02*
X0206065Y0035570D01*
X0207132Y0035570D01*
X0207132Y0057082D02*
X0208200Y0057082D01*
X0207132Y0057082D02*
X0202862Y0061352D01*
X0201795Y0061352D01*
X0201795Y0057082D01*
X0184268Y0054907D02*
X0184268Y0050636D01*
X0183200Y0046326D02*
X0176795Y0046326D01*
X0176795Y0044191D02*
X0176795Y0048461D01*
X0178930Y0042016D02*
X0183200Y0042016D01*
X0179997Y0042016D02*
X0179997Y0037745D01*
X0178930Y0037745D02*
X0176795Y0039881D01*
X0178930Y0042016D01*
X0178930Y0037745D02*
X0183200Y0037745D01*
X0182132Y0035570D02*
X0183200Y0034503D01*
X0183200Y0031300D01*
X0176795Y0031300D01*
X0176795Y0034503D01*
X0177862Y0035570D01*
X0178930Y0035570D01*
X0179997Y0034503D01*
X0179997Y0031300D01*
X0179997Y0034503D02*
X0181065Y0035570D01*
X0182132Y0035570D01*
X0182132Y0057082D02*
X0183200Y0058150D01*
X0183200Y0060285D01*
X0182132Y0061352D01*
X0181065Y0061352D01*
X0179997Y0060285D01*
X0179997Y0057082D01*
X0182132Y0057082D01*
X0179997Y0057082D02*
X0177862Y0059217D01*
X0176795Y0061352D01*
X0158200Y0060285D02*
X0158200Y0058150D01*
X0157132Y0057082D01*
X0154997Y0057082D02*
X0153930Y0059217D01*
X0153930Y0060285D01*
X0154997Y0061352D01*
X0157132Y0061352D01*
X0158200Y0060285D01*
X0154997Y0057082D02*
X0151795Y0057082D01*
X0151795Y0061352D01*
X0159268Y0054907D02*
X0159268Y0050636D01*
X0158200Y0046326D02*
X0151795Y0046326D01*
X0151795Y0044191D02*
X0151795Y0048461D01*
X0153930Y0042016D02*
X0158200Y0042016D01*
X0154997Y0042016D02*
X0154997Y0037745D01*
X0153930Y0037745D02*
X0151795Y0039881D01*
X0153930Y0042016D01*
X0153930Y0037745D02*
X0158200Y0037745D01*
X0157132Y0035570D02*
X0158200Y0034503D01*
X0158200Y0031300D01*
X0151795Y0031300D01*
X0151795Y0034503D01*
X0152862Y0035570D01*
X0153930Y0035570D01*
X0154997Y0034503D01*
X0154997Y0031300D01*
X0154997Y0034503D02*
X0156065Y0035570D01*
X0157132Y0035570D01*
X0133200Y0034503D02*
X0133200Y0031300D01*
X0126795Y0031300D01*
X0126795Y0034503D01*
X0127862Y0035570D01*
X0128930Y0035570D01*
X0129997Y0034503D01*
X0129997Y0031300D01*
X0129997Y0034503D02*
X0131065Y0035570D01*
X0132132Y0035570D01*
X0133200Y0034503D01*
X0133200Y0037745D02*
X0128930Y0037745D01*
X0126795Y0039881D01*
X0128930Y0042016D01*
X0133200Y0042016D01*
X0129997Y0042016D02*
X0129997Y0037745D01*
X0126795Y0044191D02*
X0126795Y0048461D01*
X0126795Y0046326D02*
X0133200Y0046326D01*
X0134268Y0050636D02*
X0134268Y0054907D01*
X0129997Y0057082D02*
X0129997Y0061352D01*
X0126795Y0060285D02*
X0129997Y0057082D01*
X0133200Y0060285D02*
X0126795Y0060285D01*
X0109268Y0054907D02*
X0109268Y0050636D01*
X0108200Y0046326D02*
X0101795Y0046326D01*
X0101795Y0044191D02*
X0101795Y0048461D01*
X0103930Y0042016D02*
X0108200Y0042016D01*
X0104997Y0042016D02*
X0104997Y0037745D01*
X0103930Y0037745D02*
X0101795Y0039881D01*
X0103930Y0042016D01*
X0103930Y0037745D02*
X0108200Y0037745D01*
X0107132Y0035570D02*
X0108200Y0034503D01*
X0108200Y0031300D01*
X0101795Y0031300D01*
X0101795Y0034503D01*
X0102862Y0035570D01*
X0103930Y0035570D01*
X0104997Y0034503D01*
X0104997Y0031300D01*
X0104997Y0034503D02*
X0106065Y0035570D01*
X0107132Y0035570D01*
X0084268Y0050636D02*
X0084268Y0054907D01*
X0083200Y0057082D02*
X0078930Y0061352D01*
X0077862Y0061352D01*
X0076795Y0060285D01*
X0076795Y0058150D01*
X0077862Y0057082D01*
X0083200Y0057082D02*
X0083200Y0061352D01*
X0076795Y0048461D02*
X0076795Y0044191D01*
X0076795Y0046326D02*
X0083200Y0046326D01*
X0083200Y0042016D02*
X0078930Y0042016D01*
X0076795Y0039881D01*
X0078930Y0037745D01*
X0083200Y0037745D01*
X0082132Y0035570D02*
X0083200Y0034503D01*
X0083200Y0031300D01*
X0076795Y0031300D01*
X0076795Y0034503D01*
X0077862Y0035570D01*
X0078930Y0035570D01*
X0079997Y0034503D01*
X0079997Y0031300D01*
X0079997Y0034503D02*
X0081065Y0035570D01*
X0082132Y0035570D01*
X0079997Y0037745D02*
X0079997Y0042016D01*
X0101795Y0058150D02*
X0101795Y0060285D01*
X0102862Y0061352D01*
X0103930Y0061352D01*
X0104997Y0060285D01*
X0106065Y0061352D01*
X0107132Y0061352D01*
X0108200Y0060285D01*
X0108200Y0058150D01*
X0107132Y0057082D01*
X0104997Y0059217D02*
X0104997Y0060285D01*
X0101795Y0058150D02*
X0102862Y0057082D01*
X0059268Y0054907D02*
X0059268Y0050636D01*
X0058200Y0046326D02*
X0051795Y0046326D01*
X0051795Y0044191D02*
X0051795Y0048461D01*
X0053930Y0042016D02*
X0058200Y0042016D01*
X0054997Y0042016D02*
X0054997Y0037745D01*
X0053930Y0037745D02*
X0051795Y0039881D01*
X0053930Y0042016D01*
X0053930Y0037745D02*
X0058200Y0037745D01*
X0057132Y0035570D02*
X0058200Y0034503D01*
X0058200Y0031300D01*
X0051795Y0031300D01*
X0051795Y0034503D01*
X0052862Y0035570D01*
X0053930Y0035570D01*
X0054997Y0034503D01*
X0054997Y0031300D01*
X0054997Y0034503D02*
X0056065Y0035570D01*
X0057132Y0035570D01*
X0058200Y0057082D02*
X0058200Y0061352D01*
X0058200Y0059217D02*
X0051795Y0059217D01*
X0053930Y0057082D01*
X0034268Y0054907D02*
X0034268Y0050636D01*
X0033200Y0046326D02*
X0026795Y0046326D01*
X0026795Y0044191D02*
X0026795Y0048461D01*
X0028930Y0042016D02*
X0033200Y0042016D01*
X0029997Y0042016D02*
X0029997Y0037745D01*
X0028930Y0037745D02*
X0026795Y0039881D01*
X0028930Y0042016D01*
X0028930Y0037745D02*
X0033200Y0037745D01*
X0032132Y0035570D02*
X0033200Y0034503D01*
X0033200Y0031300D01*
X0026795Y0031300D01*
X0026795Y0034503D01*
X0027862Y0035570D01*
X0028930Y0035570D01*
X0029997Y0034503D01*
X0029997Y0031300D01*
X0029997Y0034503D02*
X0031065Y0035570D01*
X0032132Y0035570D01*
X0032132Y0057082D02*
X0027862Y0057082D01*
X0026795Y0058150D01*
X0026795Y0060285D01*
X0027862Y0061352D01*
X0029997Y0061352D02*
X0029997Y0059217D01*
X0029997Y0061352D02*
X0032132Y0061352D01*
X0033200Y0060285D01*
X0033200Y0058150D01*
X0032132Y0057082D01*
X0033200Y0063527D02*
X0026795Y0063527D01*
X0033200Y0067798D01*
X0026795Y0067798D01*
X0026795Y0069973D02*
X0026795Y0073176D01*
X0027862Y0074243D01*
X0032132Y0074243D01*
X0033200Y0073176D01*
X0033200Y0069973D01*
X0026795Y0069973D01*
D13*
X0031500Y0082000D02*
X0036553Y0082000D01*
X0041353Y0082000D02*
X0046406Y0082000D01*
X0051206Y0082000D02*
X0056259Y0082000D01*
X0061059Y0082000D02*
X0066113Y0082000D01*
X0070913Y0082000D02*
X0075966Y0082000D01*
X0080766Y0082000D02*
X0085819Y0082000D01*
X0090619Y0082000D02*
X0095672Y0082000D01*
X0100472Y0082000D02*
X0105525Y0082000D01*
X0110325Y0082000D02*
X0115378Y0082000D01*
X0120178Y0082000D02*
X0125231Y0082000D01*
X0130031Y0082000D02*
X0135084Y0082000D01*
X0139884Y0082000D02*
X0144938Y0082000D01*
X0149738Y0082000D02*
X0154791Y0082000D01*
X0159591Y0082000D02*
X0164644Y0082000D01*
X0169444Y0082000D02*
X0174497Y0082000D01*
X0179297Y0082000D02*
X0184350Y0082000D01*
X0189150Y0082000D02*
X0194203Y0082000D01*
X0199003Y0082000D02*
X0204056Y0082000D01*
X0208856Y0082000D02*
X0213909Y0082000D01*
X0218709Y0082000D02*
X0223762Y0082000D01*
X0228562Y0082000D02*
X0233616Y0082000D01*
X0238416Y0082000D02*
X0243469Y0082000D01*
X0248269Y0082000D02*
X0253322Y0082000D01*
X0258122Y0082000D02*
X0263175Y0082000D01*
X0267975Y0082000D02*
X0273028Y0082000D01*
X0277828Y0082000D02*
X0282881Y0082000D01*
X0287681Y0082000D02*
X0292734Y0082000D01*
X0297534Y0082000D02*
X0302588Y0082000D01*
X0307388Y0082000D02*
X0312441Y0082000D01*
X0317241Y0082000D02*
X0322294Y0082000D01*
X0327094Y0082000D02*
X0332147Y0082000D01*
X0336947Y0082000D02*
X0342000Y0082000D01*
D14*
X0187280Y0114583D02*
X0184917Y0112220D01*
X0112083Y0112220D01*
X0109720Y0114583D01*
X0109720Y0187417D01*
X0112083Y0189780D01*
X0184917Y0189780D01*
X0187280Y0187417D01*
X0187280Y0114583D01*
X0111500Y0278000D02*
X0071500Y0278000D01*
X0071500Y0295500D01*
X0111500Y0295500D01*
X0111500Y0278000D01*
X0111500Y0295500D02*
X0111500Y0303000D01*
X0071500Y0303000D01*
X0071500Y0295500D01*
D15*
X0072301Y0305700D02*
X0073502Y0305700D01*
X0074102Y0306301D01*
X0075383Y0305700D02*
X0075383Y0309303D01*
X0076584Y0308102D01*
X0077785Y0309303D01*
X0077785Y0305700D01*
X0079066Y0305700D02*
X0081468Y0305700D01*
X0082749Y0306301D02*
X0085151Y0308703D01*
X0085151Y0306301D01*
X0084551Y0305700D01*
X0083350Y0305700D01*
X0082749Y0306301D01*
X0082749Y0308703D01*
X0083350Y0309303D01*
X0084551Y0309303D01*
X0085151Y0308703D01*
X0086433Y0308703D02*
X0087033Y0309303D01*
X0088234Y0309303D01*
X0088835Y0308703D01*
X0088835Y0308102D01*
X0088234Y0307502D01*
X0088835Y0306901D01*
X0088835Y0306301D01*
X0088234Y0305700D01*
X0087033Y0305700D01*
X0086433Y0306301D01*
X0087634Y0307502D02*
X0088234Y0307502D01*
X0090116Y0308703D02*
X0090716Y0309303D01*
X0091917Y0309303D01*
X0092518Y0308703D01*
X0090116Y0306301D01*
X0090716Y0305700D01*
X0091917Y0305700D01*
X0092518Y0306301D01*
X0092518Y0308703D01*
X0093799Y0308703D02*
X0094399Y0309303D01*
X0095600Y0309303D01*
X0096201Y0308703D01*
X0096201Y0308102D01*
X0095600Y0307502D01*
X0096201Y0306901D01*
X0096201Y0306301D01*
X0095600Y0305700D01*
X0094399Y0305700D01*
X0093799Y0306301D01*
X0095000Y0307502D02*
X0095600Y0307502D01*
X0097482Y0308102D02*
X0098083Y0307502D01*
X0099284Y0307502D01*
X0099884Y0306901D01*
X0099884Y0306301D01*
X0099284Y0305700D01*
X0098083Y0305700D01*
X0097482Y0306301D01*
X0097482Y0308102D02*
X0097482Y0308703D01*
X0098083Y0309303D01*
X0099284Y0309303D01*
X0099884Y0308703D01*
X0101165Y0308703D02*
X0101766Y0309303D01*
X0102967Y0309303D01*
X0103567Y0308703D01*
X0103567Y0308102D01*
X0102967Y0307502D01*
X0103567Y0306901D01*
X0103567Y0306301D01*
X0102967Y0305700D01*
X0101766Y0305700D01*
X0101165Y0306301D01*
X0102366Y0307502D02*
X0102967Y0307502D01*
X0104848Y0308703D02*
X0104848Y0306301D01*
X0105449Y0305700D01*
X0106650Y0305700D01*
X0107250Y0306301D01*
X0107250Y0308703D02*
X0106650Y0309303D01*
X0105449Y0309303D01*
X0104848Y0308703D01*
X0090116Y0308703D02*
X0090116Y0306301D01*
X0081468Y0309303D02*
X0079066Y0309303D01*
X0079066Y0305700D01*
X0079066Y0307502D02*
X0080267Y0307502D01*
X0074102Y0308703D02*
X0073502Y0309303D01*
X0072301Y0309303D01*
X0071700Y0308703D01*
X0071700Y0306301D01*
X0072301Y0305700D01*
X0124467Y0175804D02*
X0123700Y0175037D01*
X0123700Y0174269D01*
X0124467Y0173502D01*
X0126002Y0173502D01*
X0126769Y0172735D01*
X0126769Y0171967D01*
X0126002Y0171200D01*
X0124467Y0171200D01*
X0123700Y0171967D01*
X0126769Y0175037D02*
X0126002Y0175804D01*
X0124467Y0175804D01*
X0128304Y0175804D02*
X0131373Y0175804D01*
X0129839Y0175804D02*
X0129839Y0171200D01*
X0132908Y0171200D02*
X0132908Y0175804D01*
X0134442Y0174269D01*
X0135977Y0175804D01*
X0135977Y0171200D01*
X0137512Y0171967D02*
X0138279Y0171200D01*
X0139814Y0171200D01*
X0140581Y0171967D01*
X0140581Y0172735D01*
X0139814Y0173502D01*
X0139046Y0173502D01*
X0139814Y0173502D02*
X0140581Y0174269D01*
X0140581Y0175037D01*
X0139814Y0175804D01*
X0138279Y0175804D01*
X0137512Y0175037D01*
X0142116Y0175037D02*
X0142883Y0175804D01*
X0144418Y0175804D01*
X0145185Y0175037D01*
X0145185Y0174269D01*
X0142116Y0171200D01*
X0145185Y0171200D01*
X0146720Y0171200D02*
X0146720Y0175804D01*
X0149789Y0175804D01*
X0151324Y0173502D02*
X0154393Y0173502D01*
X0155927Y0171967D02*
X0155927Y0175037D01*
X0156695Y0175804D01*
X0158229Y0175804D01*
X0158997Y0175037D01*
X0155927Y0171967D01*
X0156695Y0171200D01*
X0158229Y0171200D01*
X0158997Y0171967D01*
X0158997Y0175037D01*
X0160531Y0175804D02*
X0163601Y0175804D01*
X0163601Y0175037D01*
X0160531Y0171967D01*
X0160531Y0171200D01*
X0165135Y0171200D02*
X0168205Y0171200D01*
X0169739Y0171967D02*
X0170507Y0171200D01*
X0172041Y0171200D01*
X0172809Y0171967D01*
X0172809Y0173502D01*
X0171274Y0173502D01*
X0172809Y0175037D02*
X0172041Y0175804D01*
X0170507Y0175804D01*
X0169739Y0175037D01*
X0169739Y0171967D01*
X0168205Y0175037D02*
X0165135Y0171967D01*
X0165135Y0171200D01*
X0168205Y0175037D02*
X0168205Y0175804D01*
X0165135Y0175804D01*
X0174343Y0175804D02*
X0177412Y0175804D01*
X0175878Y0175804D02*
X0175878Y0171200D01*
X0178947Y0171200D02*
X0178947Y0171967D01*
X0182016Y0175037D01*
X0182016Y0175804D01*
X0178947Y0175804D01*
X0153626Y0175804D02*
X0153626Y0171200D01*
X0151324Y0173502D02*
X0153626Y0175804D01*
X0148254Y0173502D02*
X0146720Y0173502D01*
D16*
X0135840Y0203209D02*
X0135840Y0205678D01*
X0134606Y0206912D01*
X0133372Y0205678D01*
X0133372Y0203209D01*
X0132157Y0203826D02*
X0132157Y0206295D01*
X0131540Y0206912D01*
X0129688Y0206912D01*
X0129688Y0203209D01*
X0131540Y0203209D01*
X0132157Y0203826D01*
X0133372Y0205061D02*
X0135840Y0205061D01*
X0128474Y0204443D02*
X0128474Y0203826D01*
X0127857Y0203209D01*
X0126622Y0203209D01*
X0126005Y0203826D01*
X0126622Y0205061D02*
X0127857Y0205061D01*
X0128474Y0204443D01*
X0128474Y0206295D02*
X0127857Y0206912D01*
X0126622Y0206912D01*
X0126005Y0206295D01*
X0126005Y0205678D01*
X0126622Y0205061D01*
X0124791Y0202592D02*
X0122322Y0202592D01*
X0121108Y0203826D02*
X0120491Y0203209D01*
X0119256Y0203209D01*
X0118639Y0203826D01*
X0118639Y0206295D01*
X0119256Y0206912D01*
X0120491Y0206912D01*
X0121108Y0206295D01*
X0117425Y0206295D02*
X0116807Y0206912D01*
X0115573Y0206912D01*
X0114956Y0206295D01*
X0113735Y0206912D02*
X0112500Y0206912D01*
X0113118Y0206912D02*
X0113118Y0203209D01*
X0113735Y0203209D02*
X0112500Y0203209D01*
X0114956Y0203209D02*
X0117425Y0205678D01*
X0117425Y0206295D01*
X0117425Y0203209D02*
X0114956Y0203209D01*
X0114956Y0213709D02*
X0117425Y0216178D01*
X0117425Y0216795D01*
X0116807Y0217412D01*
X0115573Y0217412D01*
X0114956Y0216795D01*
X0113735Y0217412D02*
X0112500Y0217412D01*
X0113118Y0217412D02*
X0113118Y0213709D01*
X0113735Y0213709D02*
X0112500Y0213709D01*
X0114956Y0213709D02*
X0117425Y0213709D01*
X0118639Y0214326D02*
X0119256Y0213709D01*
X0120491Y0213709D01*
X0121108Y0214326D01*
X0122322Y0213092D02*
X0124791Y0213092D01*
X0126005Y0214326D02*
X0126622Y0213709D01*
X0127857Y0213709D01*
X0128474Y0214326D01*
X0128474Y0214943D01*
X0127857Y0215561D01*
X0126622Y0215561D01*
X0126005Y0216178D01*
X0126005Y0216795D01*
X0126622Y0217412D01*
X0127857Y0217412D01*
X0128474Y0216795D01*
X0129688Y0216795D02*
X0129688Y0214326D01*
X0130306Y0213709D01*
X0131540Y0213709D01*
X0132157Y0214326D01*
X0133372Y0213709D02*
X0135840Y0213709D01*
X0133372Y0213709D02*
X0133372Y0217412D01*
X0132157Y0216795D02*
X0131540Y0217412D01*
X0130306Y0217412D01*
X0129688Y0216795D01*
X0121108Y0216795D02*
X0120491Y0217412D01*
X0119256Y0217412D01*
X0118639Y0216795D01*
X0118639Y0214326D01*
D17*
X0057141Y0213591D02*
X0057143Y0213679D01*
X0057149Y0213767D01*
X0057159Y0213855D01*
X0057173Y0213943D01*
X0057190Y0214029D01*
X0057212Y0214115D01*
X0057237Y0214199D01*
X0057267Y0214283D01*
X0057299Y0214365D01*
X0057336Y0214445D01*
X0057376Y0214524D01*
X0057420Y0214601D01*
X0057467Y0214676D01*
X0057517Y0214748D01*
X0057571Y0214819D01*
X0057627Y0214886D01*
X0057687Y0214952D01*
X0057749Y0215014D01*
X0057815Y0215074D01*
X0057882Y0215130D01*
X0057953Y0215184D01*
X0058025Y0215234D01*
X0058100Y0215281D01*
X0058177Y0215325D01*
X0058256Y0215365D01*
X0058336Y0215402D01*
X0058418Y0215434D01*
X0058502Y0215464D01*
X0058586Y0215489D01*
X0058672Y0215511D01*
X0058758Y0215528D01*
X0058846Y0215542D01*
X0058934Y0215552D01*
X0059022Y0215558D01*
X0059110Y0215560D01*
X0059198Y0215558D01*
X0059286Y0215552D01*
X0059374Y0215542D01*
X0059462Y0215528D01*
X0059548Y0215511D01*
X0059634Y0215489D01*
X0059718Y0215464D01*
X0059802Y0215434D01*
X0059884Y0215402D01*
X0059964Y0215365D01*
X0060043Y0215325D01*
X0060120Y0215281D01*
X0060195Y0215234D01*
X0060267Y0215184D01*
X0060338Y0215130D01*
X0060405Y0215074D01*
X0060471Y0215014D01*
X0060533Y0214952D01*
X0060593Y0214886D01*
X0060649Y0214819D01*
X0060703Y0214748D01*
X0060753Y0214676D01*
X0060800Y0214601D01*
X0060844Y0214524D01*
X0060884Y0214445D01*
X0060921Y0214365D01*
X0060953Y0214283D01*
X0060983Y0214199D01*
X0061008Y0214115D01*
X0061030Y0214029D01*
X0061047Y0213943D01*
X0061061Y0213855D01*
X0061071Y0213767D01*
X0061077Y0213679D01*
X0061079Y0213591D01*
X0061077Y0213503D01*
X0061071Y0213415D01*
X0061061Y0213327D01*
X0061047Y0213239D01*
X0061030Y0213153D01*
X0061008Y0213067D01*
X0060983Y0212983D01*
X0060953Y0212899D01*
X0060921Y0212817D01*
X0060884Y0212737D01*
X0060844Y0212658D01*
X0060800Y0212581D01*
X0060753Y0212506D01*
X0060703Y0212434D01*
X0060649Y0212363D01*
X0060593Y0212296D01*
X0060533Y0212230D01*
X0060471Y0212168D01*
X0060405Y0212108D01*
X0060338Y0212052D01*
X0060267Y0211998D01*
X0060195Y0211948D01*
X0060120Y0211901D01*
X0060043Y0211857D01*
X0059964Y0211817D01*
X0059884Y0211780D01*
X0059802Y0211748D01*
X0059718Y0211718D01*
X0059634Y0211693D01*
X0059548Y0211671D01*
X0059462Y0211654D01*
X0059374Y0211640D01*
X0059286Y0211630D01*
X0059198Y0211624D01*
X0059110Y0211622D01*
X0059022Y0211624D01*
X0058934Y0211630D01*
X0058846Y0211640D01*
X0058758Y0211654D01*
X0058672Y0211671D01*
X0058586Y0211693D01*
X0058502Y0211718D01*
X0058418Y0211748D01*
X0058336Y0211780D01*
X0058256Y0211817D01*
X0058177Y0211857D01*
X0058100Y0211901D01*
X0058025Y0211948D01*
X0057953Y0211998D01*
X0057882Y0212052D01*
X0057815Y0212108D01*
X0057749Y0212168D01*
X0057687Y0212230D01*
X0057627Y0212296D01*
X0057571Y0212363D01*
X0057517Y0212434D01*
X0057467Y0212506D01*
X0057420Y0212581D01*
X0057376Y0212658D01*
X0057336Y0212737D01*
X0057299Y0212817D01*
X0057267Y0212899D01*
X0057237Y0212983D01*
X0057212Y0213067D01*
X0057190Y0213153D01*
X0057173Y0213239D01*
X0057159Y0213327D01*
X0057149Y0213415D01*
X0057143Y0213503D01*
X0057141Y0213591D01*
D18*
X0046000Y0212882D02*
X0045249Y0212131D01*
X0046000Y0212882D02*
X0046000Y0214383D01*
X0045249Y0215134D01*
X0043748Y0215134D01*
X0042997Y0214383D01*
X0042997Y0213632D01*
X0043748Y0212131D01*
X0041496Y0212131D01*
X0041496Y0215134D01*
X0043748Y0216735D02*
X0043748Y0219738D01*
X0042997Y0221339D02*
X0041496Y0222840D01*
X0046000Y0222840D01*
X0046000Y0221339D02*
X0046000Y0224341D01*
X0046000Y0225943D02*
X0046000Y0228195D01*
X0045249Y0228945D01*
X0042247Y0228945D01*
X0041496Y0228195D01*
X0041496Y0225943D01*
X0046000Y0225943D01*
X0046000Y0230547D02*
X0041496Y0230547D01*
X0041496Y0232799D01*
X0042247Y0233549D01*
X0043748Y0233549D01*
X0044499Y0232799D01*
X0044499Y0230547D01*
X0044499Y0232048D02*
X0046000Y0233549D01*
X0046000Y0218987D02*
X0041496Y0218987D01*
X0043748Y0216735D01*
X0046000Y0210530D02*
X0046000Y0207527D01*
X0046000Y0209028D02*
X0041496Y0209028D01*
X0042997Y0207527D01*
X0042247Y0205926D02*
X0041496Y0205175D01*
X0041496Y0203674D01*
X0042247Y0202923D01*
X0045249Y0202923D01*
X0046000Y0203674D01*
X0046000Y0205175D01*
X0045249Y0205926D01*
X0042247Y0205926D01*
X0042247Y0201322D02*
X0041496Y0200571D01*
X0041496Y0199070D01*
X0042247Y0198319D01*
X0042997Y0198319D01*
X0043748Y0199070D01*
X0043748Y0200571D01*
X0044499Y0201322D01*
X0045249Y0201322D01*
X0046000Y0200571D01*
X0046000Y0199070D01*
X0045249Y0198319D01*
X0046000Y0196751D02*
X0046000Y0195250D01*
X0046000Y0196001D02*
X0041496Y0196001D01*
X0041496Y0196751D02*
X0041496Y0195250D01*
X0020750Y0259250D02*
X0020750Y0262253D01*
X0020750Y0260751D02*
X0016246Y0260751D01*
X0017747Y0259250D01*
X0011750Y0263750D02*
X0011750Y0265251D01*
X0011750Y0264501D02*
X0007246Y0264501D01*
X0007246Y0265251D02*
X0007246Y0263750D01*
X0007997Y0266819D02*
X0007246Y0267570D01*
X0007246Y0269071D01*
X0007997Y0269822D01*
X0007997Y0271423D02*
X0010999Y0271423D01*
X0011750Y0272174D01*
X0011750Y0273675D01*
X0010999Y0274426D01*
X0007997Y0274426D01*
X0007246Y0273675D01*
X0007246Y0272174D01*
X0007997Y0271423D01*
X0010249Y0269822D02*
X0010999Y0269822D01*
X0011750Y0269071D01*
X0011750Y0267570D01*
X0010999Y0266819D01*
X0009498Y0267570D02*
X0009498Y0269071D01*
X0010249Y0269822D01*
X0009498Y0267570D02*
X0008747Y0266819D01*
X0007997Y0266819D01*
X0007246Y0276027D02*
X0011750Y0276027D01*
X0011750Y0279030D01*
X0011750Y0280631D02*
X0008747Y0280631D01*
X0007246Y0282132D01*
X0008747Y0283634D01*
X0011750Y0283634D01*
X0009498Y0283634D02*
X0009498Y0280631D01*
X0007246Y0285235D02*
X0007246Y0288238D01*
X0007246Y0286736D02*
X0011750Y0286736D01*
X0011750Y0289839D02*
X0007246Y0289839D01*
X0007246Y0292841D01*
X0007246Y0294443D02*
X0007246Y0296695D01*
X0007997Y0297445D01*
X0010999Y0297445D01*
X0011750Y0296695D01*
X0011750Y0294443D01*
X0007246Y0294443D01*
X0009498Y0291340D02*
X0009498Y0289839D01*
X0011750Y0289839D02*
X0011750Y0292841D01*
X0012501Y0299047D02*
X0012501Y0302049D01*
X0011750Y0303651D02*
X0011750Y0305152D01*
X0011750Y0304401D02*
X0007246Y0304401D01*
X0007246Y0303651D02*
X0007246Y0305152D01*
X0007997Y0306720D02*
X0007246Y0307471D01*
X0007246Y0308972D01*
X0007997Y0309723D01*
X0008747Y0309723D01*
X0011750Y0306720D01*
X0011750Y0309723D01*
X0010999Y0311324D02*
X0011750Y0312075D01*
X0011750Y0313576D01*
X0010999Y0314326D01*
X0010999Y0311324D02*
X0007997Y0311324D01*
X0007246Y0312075D01*
X0007246Y0313576D01*
X0007997Y0314326D01*
X0016246Y0307002D02*
X0018498Y0304750D01*
X0018498Y0307753D01*
X0020750Y0307002D02*
X0016246Y0307002D01*
X0130250Y0267253D02*
X0131751Y0268754D01*
X0131751Y0264250D01*
X0130250Y0264250D02*
X0133253Y0264250D01*
X0150750Y0263501D02*
X0151501Y0262750D01*
X0153002Y0262750D01*
X0153753Y0263501D01*
X0153753Y0264251D01*
X0153002Y0265002D01*
X0151501Y0265002D01*
X0150750Y0265753D01*
X0150750Y0266503D01*
X0151501Y0267254D01*
X0153002Y0267254D01*
X0153753Y0266503D01*
X0155354Y0267254D02*
X0155354Y0262750D01*
X0156855Y0264251D01*
X0158356Y0262750D01*
X0158356Y0267254D01*
X0159958Y0267254D02*
X0159958Y0262750D01*
X0162210Y0262750D01*
X0162960Y0263501D01*
X0162960Y0266503D01*
X0162210Y0267254D01*
X0159958Y0267254D01*
X0180250Y0283001D02*
X0181001Y0282250D01*
X0182502Y0282250D01*
X0183253Y0283001D01*
X0183253Y0283751D01*
X0182502Y0284502D01*
X0180250Y0284502D01*
X0180250Y0283001D01*
X0180250Y0284502D02*
X0181751Y0286003D01*
X0183253Y0286754D01*
X0290750Y0256753D02*
X0292251Y0258254D01*
X0292251Y0253750D01*
X0290750Y0253750D02*
X0293753Y0253750D01*
X0295750Y0247254D02*
X0298753Y0247254D01*
X0297251Y0247254D02*
X0297251Y0242750D01*
X0300354Y0242750D02*
X0303356Y0245753D01*
X0303356Y0246503D01*
X0302606Y0247254D01*
X0301105Y0247254D01*
X0300354Y0246503D01*
X0300354Y0242750D02*
X0303356Y0242750D01*
X0292251Y0238254D02*
X0292251Y0233750D01*
X0290750Y0233750D02*
X0293753Y0233750D01*
X0290750Y0236753D02*
X0292251Y0238254D01*
X0295750Y0227254D02*
X0298753Y0227254D01*
X0297251Y0227254D02*
X0297251Y0222750D01*
X0300354Y0223501D02*
X0301105Y0222750D01*
X0302606Y0222750D01*
X0303356Y0223501D01*
X0303356Y0224251D01*
X0302606Y0225002D01*
X0301855Y0225002D01*
X0302606Y0225002D02*
X0303356Y0225753D01*
X0303356Y0226503D01*
X0302606Y0227254D01*
X0301105Y0227254D01*
X0300354Y0226503D01*
X0292251Y0218254D02*
X0292251Y0213750D01*
X0290750Y0213750D02*
X0293753Y0213750D01*
X0290750Y0216753D02*
X0292251Y0218254D01*
X0295750Y0207254D02*
X0298753Y0207254D01*
X0297251Y0207254D02*
X0297251Y0202750D01*
X0300354Y0205002D02*
X0303356Y0205002D01*
X0302606Y0202750D02*
X0302606Y0207254D01*
X0300354Y0205002D01*
X0292251Y0198254D02*
X0292251Y0193750D01*
X0290750Y0193750D02*
X0293753Y0193750D01*
X0290750Y0196753D02*
X0292251Y0198254D01*
X0295750Y0187254D02*
X0298753Y0187254D01*
X0297251Y0187254D02*
X0297251Y0182750D01*
X0300354Y0183501D02*
X0301105Y0182750D01*
X0302606Y0182750D01*
X0303356Y0183501D01*
X0303356Y0185002D01*
X0302606Y0185753D01*
X0301855Y0185753D01*
X0300354Y0185002D01*
X0300354Y0187254D01*
X0303356Y0187254D01*
X0292251Y0178254D02*
X0292251Y0173750D01*
X0290750Y0173750D02*
X0293753Y0173750D01*
X0290750Y0176753D02*
X0292251Y0178254D01*
X0295750Y0167254D02*
X0298753Y0167254D01*
X0297251Y0167254D02*
X0297251Y0162750D01*
X0300354Y0163501D02*
X0301105Y0162750D01*
X0302606Y0162750D01*
X0303356Y0163501D01*
X0303356Y0164251D01*
X0302606Y0165002D01*
X0300354Y0165002D01*
X0300354Y0163501D01*
X0300354Y0165002D02*
X0301855Y0166503D01*
X0303356Y0167254D01*
X0292251Y0158254D02*
X0292251Y0153750D01*
X0290750Y0153750D02*
X0293753Y0153750D01*
X0290750Y0156753D02*
X0292251Y0158254D01*
X0340750Y0156753D02*
X0342251Y0158254D01*
X0342251Y0153750D01*
X0340750Y0153750D02*
X0343753Y0153750D01*
X0347251Y0162750D02*
X0347251Y0167254D01*
X0345750Y0167254D02*
X0348753Y0167254D01*
X0350354Y0165753D02*
X0351855Y0167254D01*
X0351855Y0162750D01*
X0350354Y0162750D02*
X0353356Y0162750D01*
X0354958Y0162750D02*
X0357960Y0165753D01*
X0357960Y0166503D01*
X0357210Y0167254D01*
X0355708Y0167254D01*
X0354958Y0166503D01*
X0354958Y0162750D02*
X0357960Y0162750D01*
X0343753Y0173750D02*
X0340750Y0173750D01*
X0342251Y0173750D02*
X0342251Y0178254D01*
X0340750Y0176753D01*
X0347251Y0182750D02*
X0347251Y0187254D01*
X0345750Y0187254D02*
X0348753Y0187254D01*
X0350354Y0185753D02*
X0351855Y0187254D01*
X0351855Y0182750D01*
X0350354Y0182750D02*
X0353356Y0182750D01*
X0354958Y0182750D02*
X0357960Y0182750D01*
X0356459Y0182750D02*
X0356459Y0187254D01*
X0354958Y0185753D01*
X0343753Y0193750D02*
X0340750Y0193750D01*
X0342251Y0193750D02*
X0342251Y0198254D01*
X0340750Y0196753D01*
X0347251Y0202750D02*
X0347251Y0207254D01*
X0345750Y0207254D02*
X0348753Y0207254D01*
X0350354Y0205753D02*
X0351855Y0207254D01*
X0351855Y0202750D01*
X0350354Y0202750D02*
X0353356Y0202750D01*
X0354958Y0203501D02*
X0357960Y0206503D01*
X0357960Y0203501D01*
X0357210Y0202750D01*
X0355708Y0202750D01*
X0354958Y0203501D01*
X0354958Y0206503D01*
X0355708Y0207254D01*
X0357210Y0207254D01*
X0357960Y0206503D01*
X0343753Y0213750D02*
X0340750Y0213750D01*
X0342251Y0213750D02*
X0342251Y0218254D01*
X0340750Y0216753D01*
X0347251Y0222750D02*
X0347251Y0227254D01*
X0345750Y0227254D02*
X0348753Y0227254D01*
X0350354Y0226503D02*
X0350354Y0225753D01*
X0351105Y0225002D01*
X0353356Y0225002D01*
X0353356Y0226503D02*
X0352606Y0227254D01*
X0351105Y0227254D01*
X0350354Y0226503D01*
X0350354Y0223501D02*
X0351105Y0222750D01*
X0352606Y0222750D01*
X0353356Y0223501D01*
X0353356Y0226503D01*
X0343753Y0233750D02*
X0340750Y0233750D01*
X0342251Y0233750D02*
X0342251Y0238254D01*
X0340750Y0236753D01*
X0347251Y0242750D02*
X0347251Y0247254D01*
X0345750Y0247254D02*
X0348753Y0247254D01*
X0350354Y0246503D02*
X0350354Y0245753D01*
X0351105Y0245002D01*
X0352606Y0245002D01*
X0353356Y0244251D01*
X0353356Y0243501D01*
X0352606Y0242750D01*
X0351105Y0242750D01*
X0350354Y0243501D01*
X0350354Y0244251D01*
X0351105Y0245002D01*
X0352606Y0245002D02*
X0353356Y0245753D01*
X0353356Y0246503D01*
X0352606Y0247254D01*
X0351105Y0247254D01*
X0350354Y0246503D01*
X0343753Y0253750D02*
X0340750Y0253750D01*
X0342251Y0253750D02*
X0342251Y0258254D01*
X0340750Y0256753D01*
X0347251Y0262750D02*
X0347251Y0267254D01*
X0345750Y0267254D02*
X0348753Y0267254D01*
X0350354Y0267254D02*
X0353356Y0267254D01*
X0353356Y0266503D01*
X0350354Y0263501D01*
X0350354Y0262750D01*
X0303356Y0262750D02*
X0300354Y0262750D01*
X0301855Y0262750D02*
X0301855Y0267254D01*
X0300354Y0265753D01*
X0298753Y0267254D02*
X0295750Y0267254D01*
X0297251Y0267254D02*
X0297251Y0262750D01*
M02*
