G75*
%MOIN*%
%OFA0B0*%
%FSLAX25Y25*%
%IPPOS*%
%LPD*%
%AMOC8*
5,1,8,0,0,1.08239X$1,22.5*
%
%ADD10C,0.00000*%
%ADD11C,0.05000*%
%ADD12C,0.00600*%
%ADD13C,0.02400*%
%ADD14C,0.00400*%
D10*
X0003500Y0001000D02*
X0003500Y0315961D01*
X0397201Y0315961D01*
X0397201Y0001000D01*
X0003500Y0001000D01*
D11*
X0003500Y0183000D02*
X0021750Y0183000D01*
X0031750Y0183000D02*
X0050000Y0183000D01*
X0053714Y0186714D01*
X0060786Y0193786D02*
X0064500Y0197500D01*
X0064500Y0208750D01*
X0064500Y0218750D02*
X0064500Y0230000D01*
X0074464Y0239964D01*
X0081536Y0247036D02*
X0091500Y0257000D01*
X0091500Y0270000D01*
X0091500Y0280000D02*
X0091500Y0293000D01*
X0091500Y0303000D02*
X0091500Y0316000D01*
D12*
X0033638Y0075243D02*
X0029368Y0075243D01*
X0028300Y0074176D01*
X0028300Y0070973D01*
X0034705Y0070973D01*
X0034705Y0074176D01*
X0033638Y0075243D01*
X0034705Y0068798D02*
X0028300Y0068798D01*
X0034705Y0064527D01*
X0028300Y0064527D01*
X0029368Y0062352D02*
X0031503Y0062352D01*
X0031503Y0060217D01*
X0033638Y0058082D02*
X0029368Y0058082D01*
X0028300Y0059150D01*
X0028300Y0061285D01*
X0029368Y0062352D01*
X0033638Y0062352D02*
X0034705Y0061285D01*
X0034705Y0059150D01*
X0033638Y0058082D01*
X0027232Y0055907D02*
X0027232Y0051636D01*
X0028300Y0047326D02*
X0034705Y0047326D01*
X0034705Y0045191D02*
X0034705Y0049461D01*
X0032570Y0043016D02*
X0028300Y0043016D01*
X0031503Y0043016D02*
X0031503Y0038745D01*
X0032570Y0038745D02*
X0028300Y0038745D01*
X0029368Y0036570D02*
X0028300Y0035503D01*
X0028300Y0032300D01*
X0034705Y0032300D01*
X0034705Y0035503D01*
X0033638Y0036570D01*
X0032570Y0036570D01*
X0031503Y0035503D01*
X0031503Y0032300D01*
X0031503Y0035503D02*
X0030435Y0036570D01*
X0029368Y0036570D01*
X0032570Y0038745D02*
X0034705Y0040881D01*
X0032570Y0043016D01*
X0051300Y0042016D02*
X0055570Y0042016D01*
X0057705Y0039881D01*
X0055570Y0037745D01*
X0051300Y0037745D01*
X0052368Y0035570D02*
X0051300Y0034503D01*
X0051300Y0031300D01*
X0057705Y0031300D01*
X0057705Y0034503D01*
X0056638Y0035570D01*
X0055570Y0035570D01*
X0054503Y0034503D01*
X0054503Y0031300D01*
X0054503Y0034503D02*
X0053435Y0035570D01*
X0052368Y0035570D01*
X0054503Y0037745D02*
X0054503Y0042016D01*
X0057705Y0044191D02*
X0057705Y0048461D01*
X0057705Y0046326D02*
X0051300Y0046326D01*
X0050232Y0050636D02*
X0050232Y0054907D01*
X0051300Y0057082D02*
X0051300Y0061352D01*
X0051300Y0059217D02*
X0057705Y0059217D01*
X0055570Y0057082D01*
X0075732Y0054907D02*
X0075732Y0050636D01*
X0076800Y0046326D02*
X0083205Y0046326D01*
X0083205Y0044191D02*
X0083205Y0048461D01*
X0081070Y0042016D02*
X0076800Y0042016D01*
X0080003Y0042016D02*
X0080003Y0037745D01*
X0081070Y0037745D02*
X0083205Y0039881D01*
X0081070Y0042016D01*
X0081070Y0037745D02*
X0076800Y0037745D01*
X0077868Y0035570D02*
X0076800Y0034503D01*
X0076800Y0031300D01*
X0083205Y0031300D01*
X0083205Y0034503D01*
X0082138Y0035570D01*
X0081070Y0035570D01*
X0080003Y0034503D01*
X0080003Y0031300D01*
X0080003Y0034503D02*
X0078935Y0035570D01*
X0077868Y0035570D01*
X0076800Y0057082D02*
X0081070Y0061352D01*
X0082138Y0061352D01*
X0083205Y0060285D01*
X0083205Y0058150D01*
X0082138Y0057082D01*
X0076800Y0057082D02*
X0076800Y0061352D01*
X0100732Y0054907D02*
X0100732Y0050636D01*
X0101800Y0046326D02*
X0108205Y0046326D01*
X0108205Y0044191D02*
X0108205Y0048461D01*
X0106070Y0042016D02*
X0101800Y0042016D01*
X0105003Y0042016D02*
X0105003Y0037745D01*
X0106070Y0037745D02*
X0108205Y0039881D01*
X0106070Y0042016D01*
X0106070Y0037745D02*
X0101800Y0037745D01*
X0102868Y0035570D02*
X0101800Y0034503D01*
X0101800Y0031300D01*
X0108205Y0031300D01*
X0108205Y0034503D01*
X0107138Y0035570D01*
X0106070Y0035570D01*
X0105003Y0034503D01*
X0105003Y0031300D01*
X0105003Y0034503D02*
X0103935Y0035570D01*
X0102868Y0035570D01*
X0102868Y0057082D02*
X0101800Y0058150D01*
X0101800Y0060285D01*
X0102868Y0061352D01*
X0103935Y0061352D01*
X0105003Y0060285D01*
X0105003Y0059217D01*
X0105003Y0060285D02*
X0106070Y0061352D01*
X0107138Y0061352D01*
X0108205Y0060285D01*
X0108205Y0058150D01*
X0107138Y0057082D01*
X0125232Y0054907D02*
X0125232Y0050636D01*
X0126300Y0046326D02*
X0132705Y0046326D01*
X0132705Y0044191D02*
X0132705Y0048461D01*
X0130570Y0042016D02*
X0126300Y0042016D01*
X0129503Y0042016D02*
X0129503Y0037745D01*
X0130570Y0037745D02*
X0132705Y0039881D01*
X0130570Y0042016D01*
X0130570Y0037745D02*
X0126300Y0037745D01*
X0127368Y0035570D02*
X0126300Y0034503D01*
X0126300Y0031300D01*
X0132705Y0031300D01*
X0132705Y0034503D01*
X0131638Y0035570D01*
X0130570Y0035570D01*
X0129503Y0034503D01*
X0129503Y0031300D01*
X0129503Y0034503D02*
X0128435Y0035570D01*
X0127368Y0035570D01*
X0129503Y0057082D02*
X0129503Y0061352D01*
X0132705Y0060285D02*
X0126300Y0060285D01*
X0129503Y0057082D02*
X0132705Y0060285D01*
X0150232Y0054907D02*
X0150232Y0050636D01*
X0151300Y0046326D02*
X0157705Y0046326D01*
X0157705Y0044191D02*
X0157705Y0048461D01*
X0155570Y0042016D02*
X0151300Y0042016D01*
X0154503Y0042016D02*
X0154503Y0037745D01*
X0155570Y0037745D02*
X0157705Y0039881D01*
X0155570Y0042016D01*
X0155570Y0037745D02*
X0151300Y0037745D01*
X0152368Y0035570D02*
X0151300Y0034503D01*
X0151300Y0031300D01*
X0157705Y0031300D01*
X0157705Y0034503D01*
X0156638Y0035570D01*
X0155570Y0035570D01*
X0154503Y0034503D01*
X0154503Y0031300D01*
X0154503Y0034503D02*
X0153435Y0035570D01*
X0152368Y0035570D01*
X0152368Y0057082D02*
X0151300Y0058150D01*
X0151300Y0060285D01*
X0152368Y0061352D01*
X0154503Y0061352D01*
X0155570Y0060285D01*
X0155570Y0059217D01*
X0154503Y0057082D01*
X0157705Y0057082D01*
X0157705Y0061352D01*
X0175732Y0055407D02*
X0175732Y0051136D01*
X0176800Y0046826D02*
X0183205Y0046826D01*
X0183205Y0044691D02*
X0183205Y0048961D01*
X0181070Y0042516D02*
X0176800Y0042516D01*
X0180003Y0042516D02*
X0180003Y0038245D01*
X0181070Y0038245D02*
X0183205Y0040381D01*
X0181070Y0042516D01*
X0181070Y0038245D02*
X0176800Y0038245D01*
X0177868Y0036070D02*
X0176800Y0035003D01*
X0176800Y0031800D01*
X0183205Y0031800D01*
X0183205Y0035003D01*
X0182138Y0036070D01*
X0181070Y0036070D01*
X0180003Y0035003D01*
X0180003Y0031800D01*
X0180003Y0035003D02*
X0178935Y0036070D01*
X0177868Y0036070D01*
X0200800Y0035003D02*
X0200800Y0031800D01*
X0207205Y0031800D01*
X0207205Y0035003D01*
X0206138Y0036070D01*
X0205070Y0036070D01*
X0204003Y0035003D01*
X0204003Y0031800D01*
X0204003Y0035003D02*
X0202935Y0036070D01*
X0201868Y0036070D01*
X0200800Y0035003D01*
X0200800Y0038245D02*
X0205070Y0038245D01*
X0207205Y0040381D01*
X0205070Y0042516D01*
X0200800Y0042516D01*
X0204003Y0042516D02*
X0204003Y0038245D01*
X0207205Y0044691D02*
X0207205Y0048961D01*
X0207205Y0046826D02*
X0200800Y0046826D01*
X0199732Y0051136D02*
X0199732Y0055407D01*
X0200800Y0057582D02*
X0201868Y0057582D01*
X0206138Y0061852D01*
X0207205Y0061852D01*
X0207205Y0057582D01*
X0225232Y0056407D02*
X0225232Y0052136D01*
X0226300Y0047826D02*
X0232705Y0047826D01*
X0232705Y0045691D02*
X0232705Y0049961D01*
X0230570Y0043516D02*
X0226300Y0043516D01*
X0229503Y0043516D02*
X0229503Y0039245D01*
X0230570Y0039245D02*
X0232705Y0041381D01*
X0230570Y0043516D01*
X0230570Y0039245D02*
X0226300Y0039245D01*
X0227368Y0037070D02*
X0226300Y0036003D01*
X0226300Y0032800D01*
X0232705Y0032800D01*
X0232705Y0036003D01*
X0231638Y0037070D01*
X0230570Y0037070D01*
X0229503Y0036003D01*
X0229503Y0032800D01*
X0229503Y0036003D02*
X0228435Y0037070D01*
X0227368Y0037070D01*
X0250232Y0051136D02*
X0250232Y0055407D01*
X0252368Y0057582D02*
X0251300Y0058650D01*
X0251300Y0060785D01*
X0252368Y0061852D01*
X0256638Y0061852D01*
X0257705Y0060785D01*
X0257705Y0058650D01*
X0256638Y0057582D01*
X0255570Y0057582D01*
X0254503Y0058650D01*
X0254503Y0061852D01*
X0257705Y0048961D02*
X0257705Y0044691D01*
X0257705Y0046826D02*
X0251300Y0046826D01*
X0251300Y0042516D02*
X0255570Y0042516D01*
X0257705Y0040381D01*
X0255570Y0038245D01*
X0251300Y0038245D01*
X0252368Y0036070D02*
X0251300Y0035003D01*
X0251300Y0031800D01*
X0257705Y0031800D01*
X0257705Y0035003D01*
X0256638Y0036070D01*
X0255570Y0036070D01*
X0254503Y0035003D01*
X0254503Y0031800D01*
X0254503Y0035003D02*
X0253435Y0036070D01*
X0252368Y0036070D01*
X0254503Y0038245D02*
X0254503Y0042516D01*
X0274232Y0051136D02*
X0274232Y0055407D01*
X0275300Y0057582D02*
X0275300Y0061852D01*
X0275300Y0059717D02*
X0281705Y0059717D01*
X0279570Y0057582D01*
X0280638Y0064027D02*
X0276368Y0064027D01*
X0280638Y0068298D01*
X0276368Y0068298D01*
X0275300Y0067230D01*
X0275300Y0065095D01*
X0276368Y0064027D01*
X0280638Y0064027D02*
X0281705Y0065095D01*
X0281705Y0067230D01*
X0280638Y0068298D01*
X0299800Y0067663D02*
X0306205Y0067663D01*
X0304070Y0065527D01*
X0299800Y0065527D02*
X0299800Y0069798D01*
X0299800Y0063352D02*
X0299800Y0059082D01*
X0299800Y0061217D02*
X0306205Y0061217D01*
X0304070Y0059082D01*
X0298732Y0056907D02*
X0298732Y0052636D01*
X0299800Y0048326D02*
X0306205Y0048326D01*
X0306205Y0046191D02*
X0306205Y0050461D01*
X0304070Y0044016D02*
X0299800Y0044016D01*
X0303003Y0044016D02*
X0303003Y0039745D01*
X0304070Y0039745D02*
X0306205Y0041881D01*
X0304070Y0044016D01*
X0304070Y0039745D02*
X0299800Y0039745D01*
X0300868Y0037570D02*
X0299800Y0036503D01*
X0299800Y0033300D01*
X0306205Y0033300D01*
X0306205Y0036503D01*
X0305138Y0037570D01*
X0304070Y0037570D01*
X0303003Y0036503D01*
X0303003Y0033300D01*
X0303003Y0036503D02*
X0301935Y0037570D01*
X0300868Y0037570D01*
X0281705Y0035003D02*
X0281705Y0031800D01*
X0275300Y0031800D01*
X0275300Y0035003D01*
X0276368Y0036070D01*
X0277435Y0036070D01*
X0278503Y0035003D01*
X0278503Y0031800D01*
X0278503Y0035003D02*
X0279570Y0036070D01*
X0280638Y0036070D01*
X0281705Y0035003D01*
X0279570Y0038245D02*
X0275300Y0038245D01*
X0278503Y0038245D02*
X0278503Y0042516D01*
X0279570Y0042516D02*
X0275300Y0042516D01*
X0279570Y0042516D02*
X0281705Y0040381D01*
X0279570Y0038245D01*
X0281705Y0044691D02*
X0281705Y0048961D01*
X0281705Y0046826D02*
X0275300Y0046826D01*
X0232705Y0059650D02*
X0232705Y0061785D01*
X0231638Y0062852D01*
X0230570Y0062852D01*
X0229503Y0061785D01*
X0229503Y0059650D01*
X0230570Y0058582D01*
X0231638Y0058582D01*
X0232705Y0059650D01*
X0229503Y0059650D02*
X0228435Y0058582D01*
X0227368Y0058582D01*
X0226300Y0059650D01*
X0226300Y0061785D01*
X0227368Y0062852D01*
X0228435Y0062852D01*
X0229503Y0061785D01*
X0183205Y0061852D02*
X0182138Y0059717D01*
X0180003Y0057582D01*
X0180003Y0060785D01*
X0178935Y0061852D01*
X0177868Y0061852D01*
X0176800Y0060785D01*
X0176800Y0058650D01*
X0177868Y0057582D01*
X0180003Y0057582D01*
X0329232Y0054907D02*
X0329232Y0050636D01*
X0330300Y0046326D02*
X0336705Y0046326D01*
X0336705Y0044191D02*
X0336705Y0048461D01*
X0334570Y0042016D02*
X0330300Y0042016D01*
X0333503Y0042016D02*
X0333503Y0037745D01*
X0334570Y0037745D02*
X0336705Y0039881D01*
X0334570Y0042016D01*
X0334570Y0037745D02*
X0330300Y0037745D01*
X0331368Y0035570D02*
X0330300Y0034503D01*
X0330300Y0031300D01*
X0336705Y0031300D01*
X0336705Y0034503D01*
X0335638Y0035570D01*
X0334570Y0035570D01*
X0333503Y0034503D01*
X0333503Y0031300D01*
X0333503Y0034503D02*
X0332435Y0035570D01*
X0331368Y0035570D01*
X0330300Y0057082D02*
X0330300Y0061352D01*
X0330300Y0059217D02*
X0336705Y0059217D01*
X0334570Y0057082D01*
X0335638Y0063527D02*
X0336705Y0064595D01*
X0336705Y0066730D01*
X0335638Y0067798D01*
X0334570Y0067798D01*
X0330300Y0063527D01*
X0330300Y0067798D01*
D13*
X0329006Y0067500D02*
X0334103Y0067500D01*
X0338903Y0067500D02*
X0344000Y0067500D01*
X0324206Y0067500D02*
X0319110Y0067500D01*
X0314310Y0067500D02*
X0309213Y0067500D01*
X0304413Y0067500D02*
X0299316Y0067500D01*
X0294516Y0067500D02*
X0289419Y0067500D01*
X0284619Y0067500D02*
X0279523Y0067500D01*
X0274723Y0067500D02*
X0269626Y0067500D01*
X0264826Y0067500D02*
X0259729Y0067500D01*
X0254929Y0067500D02*
X0249832Y0067500D01*
X0245032Y0067500D02*
X0239935Y0067500D01*
X0235135Y0067500D02*
X0230039Y0067500D01*
X0225239Y0067500D02*
X0220142Y0067500D01*
X0215342Y0067500D02*
X0210245Y0067500D01*
X0205445Y0067500D02*
X0200348Y0067500D01*
X0195548Y0067500D02*
X0190452Y0067500D01*
X0185652Y0067500D02*
X0180555Y0067500D01*
X0175755Y0067500D02*
X0170658Y0067500D01*
X0165858Y0067500D02*
X0160761Y0067500D01*
X0155961Y0067500D02*
X0150865Y0067500D01*
X0146065Y0067500D02*
X0140968Y0067500D01*
X0136168Y0067500D02*
X0131071Y0067500D01*
X0126271Y0067500D02*
X0121174Y0067500D01*
X0116374Y0067500D02*
X0111277Y0067500D01*
X0106477Y0067500D02*
X0101381Y0067500D01*
X0096581Y0067500D02*
X0091484Y0067500D01*
X0086684Y0067500D02*
X0081587Y0067500D01*
X0076787Y0067500D02*
X0071690Y0067500D01*
X0066890Y0067500D02*
X0061794Y0067500D01*
X0056994Y0067500D02*
X0051897Y0067500D01*
X0047097Y0067500D02*
X0042000Y0067500D01*
D14*
X0137523Y0297200D02*
X0139825Y0299502D01*
X0140592Y0298735D02*
X0137523Y0301804D01*
X0140592Y0301804D02*
X0140592Y0297200D01*
X0142127Y0297200D02*
X0145196Y0297200D01*
X0145196Y0301804D01*
X0146731Y0301037D02*
X0147498Y0301804D01*
X0149033Y0301804D01*
X0149800Y0301037D01*
X0149800Y0297967D01*
X0149033Y0297200D01*
X0147498Y0297200D01*
X0146731Y0297967D01*
X0146454Y0308700D02*
X0146454Y0313304D01*
X0147988Y0311769D01*
X0149523Y0313304D02*
X0152592Y0310235D01*
X0151825Y0311002D02*
X0149523Y0308700D01*
X0147988Y0308700D02*
X0144919Y0308700D01*
X0152592Y0308700D02*
X0152592Y0313304D01*
X0157196Y0313304D02*
X0157196Y0308700D01*
X0154127Y0308700D01*
X0158731Y0309467D02*
X0159498Y0308700D01*
X0161033Y0308700D01*
X0161800Y0309467D01*
X0161800Y0312537D01*
X0161033Y0313304D01*
X0159498Y0313304D01*
X0158731Y0312537D01*
M02*
