%
M48
M72
T01C0.02362
T02C0.03937
T03C0.04000
T04C0.04724
%
T01
X165000Y203000
X186500Y203000
X147000Y203000
X79500Y195000
X111500Y166500
X124000Y209500
X101000Y204500
X123000Y199500
X85500Y209500
X196500Y178500
X169500Y252500
X153000Y180500
X176000Y163500
X159500Y156500
X113000Y157000
X113000Y162000
X126000Y154000
X126000Y146500
X121500Y141000
X129000Y142000
X129000Y150500
X133500Y135500
X127000Y132000
X114500Y130000
X121500Y128500
X324500Y72500
X294000Y73000
X269500Y73000
X132500Y115000
X145000Y88500
X244500Y73000
X219500Y73000
X170000Y73000
X144500Y73000
X119500Y73500
X95000Y72500
X70000Y72500
X45000Y72500
X194500Y73000
X126500Y115000
X138500Y87500
X72500Y134500
X72500Y115000
X112500Y117000
X151500Y115500
X120500Y116500
T02
X73000Y289500
X83000Y289500
X93000Y289500
X103000Y289500
T03
X15000Y267500
X15000Y277500
X15000Y287500
X15000Y297500
X129000Y274500
X139000Y274500
X149000Y274500
X159000Y274500
X169000Y274500
X179000Y274500
X297000Y235000
X307000Y235000
X317000Y235000
X297000Y215000
X307000Y215000
X317000Y215000
X297000Y195000
X307000Y195000
X317000Y195000
X297000Y255000
X307000Y255000
X317000Y255000
X297000Y175000
X307000Y175000
X317000Y175000
X297000Y155000
X307000Y155000
X317000Y155000
X347000Y255000
X357000Y255000
X367000Y255000
X347000Y235000
X357000Y235000
X367000Y235000
X347000Y215000
X357000Y215000
X367000Y215000
X347000Y195000
X357000Y195000
X367000Y195000
X347000Y175000
X357000Y175000
X367000Y175000
X347000Y155000
X357000Y155000
X367000Y155000
T04
X50000Y25000
X25500Y25500
X75000Y25000
X100000Y25000
X125000Y25000
X150000Y25000
X175000Y25000
X200000Y25000
X225000Y25000
X250000Y25000
X275000Y25000
X300000Y25000
X330000Y25000
M30
