%
M48
M72
T01C0.04000
T02C0.25400
%
T01
X30000Y132500
X30000Y112500
X192500Y190000
X192500Y170000
X155000Y115000
X155000Y135000
X135000Y190000
X135000Y170000
X212500Y117500
X212500Y137500
X77500Y190000
X77500Y170000
X270000Y112500
X270000Y132500
X77500Y80000
X57500Y80000
X97500Y117500
X97500Y137500
X122500Y25000
X142500Y25000
X192500Y25000
X212500Y25000
X232500Y85000
X232500Y65000
X15000Y60000
X15000Y70000
X15000Y80000
X15000Y90000
T02
X25000Y25000
X265000Y25000
X25000Y175000
X265000Y175000
M30
