G75*
%MOIN*%
%OFA0B0*%
%FSLAX25Y25*%
%IPPOS*%
%LPD*%
%AMOC8*
5,1,8,0,0,1.08239X$1,22.5*
%
%ADD10R,0.45000X0.55000*%
%ADD11R,0.05512X0.05512*%
%ADD12R,0.04331X0.03937*%
%ADD13C,0.10000*%
%ADD14OC8,0.10000*%
%ADD15R,0.12598X0.03543*%
%ADD16R,0.32087X0.42520*%
%ADD17C,0.06000*%
%ADD18C,0.02400*%
%ADD19C,0.01600*%
%ADD20R,0.45000X0.45000*%
%ADD21C,0.04000*%
%ADD22C,0.07000*%
%ADD23C,0.25400*%
%ADD24C,0.03200*%
D10*
X0169800Y0085330D03*
D11*
X0067280Y0060330D03*
X0052320Y0060330D03*
D12*
G36*
X0039805Y0067542D02*
X0036744Y0070603D01*
X0039527Y0073386D01*
X0042588Y0070325D01*
X0039805Y0067542D01*
G37*
G36*
X0035073Y0072275D02*
X0032012Y0075336D01*
X0034795Y0078119D01*
X0037856Y0075058D01*
X0035073Y0072275D01*
G37*
D13*
X0079800Y0092830D03*
X0099800Y0130330D03*
X0157300Y0127830D03*
X0214800Y0130330D03*
X0234800Y0097830D03*
X0272300Y0125330D03*
X0194800Y0202830D03*
X0137300Y0202830D03*
X0079800Y0202830D03*
X0032300Y0145330D03*
X0124800Y0037830D03*
X0194800Y0037830D03*
D14*
X0214800Y0037830D03*
X0234800Y0077830D03*
X0144800Y0037830D03*
X0059800Y0092830D03*
X0032300Y0125330D03*
X0099800Y0150330D03*
X0079800Y0182830D03*
X0137300Y0182830D03*
X0157300Y0147830D03*
X0194800Y0182830D03*
X0214800Y0150330D03*
X0272300Y0145330D03*
D15*
X0126473Y0100330D03*
X0126473Y0095330D03*
X0126473Y0090330D03*
X0126473Y0080330D03*
X0126473Y0075330D03*
X0126473Y0070330D03*
D16*
X0168442Y0085330D03*
D17*
X0020300Y0082830D02*
X0014300Y0082830D01*
X0014300Y0092830D02*
X0020300Y0092830D01*
X0020300Y0102830D02*
X0014300Y0102830D01*
X0014300Y0072830D02*
X0020300Y0072830D01*
D18*
X0027300Y0037830D02*
X0027300Y0022830D01*
X0102300Y0022830D01*
X0107300Y0027830D01*
X0107300Y0052830D01*
X0116312Y0061843D01*
X0115261Y0062278D01*
X0114248Y0063291D01*
X0113700Y0064614D01*
X0113700Y0066046D01*
X0114248Y0067370D01*
X0117974Y0071096D01*
X0117974Y0072392D01*
X0118092Y0072830D01*
X0117974Y0073269D01*
X0117974Y0075330D01*
X0126473Y0075330D01*
X0126473Y0075330D01*
X0126473Y0074302D01*
X0126473Y0070331D01*
X0126473Y0070331D01*
X0126473Y0075330D01*
X0126473Y0075330D01*
X0117974Y0075330D01*
X0117974Y0077392D01*
X0118092Y0077830D01*
X0117974Y0078269D01*
X0117974Y0080330D01*
X0126473Y0080330D01*
X0126473Y0080330D01*
X0126473Y0079302D01*
X0126473Y0075331D01*
X0126473Y0075331D01*
X0126473Y0080330D01*
X0126473Y0080330D01*
X0117974Y0080330D01*
X0117974Y0082392D01*
X0118124Y0082951D01*
X0118414Y0083453D01*
X0118823Y0083863D01*
X0119325Y0084152D01*
X0119884Y0084302D01*
X0126473Y0084302D01*
X0126473Y0080331D01*
X0126473Y0080331D01*
X0126473Y0084302D01*
X0132300Y0084302D01*
X0132300Y0086359D01*
X0126473Y0086359D01*
X0126473Y0090330D01*
X0126473Y0090330D01*
X0117974Y0090330D01*
X0117974Y0088269D01*
X0118124Y0087710D01*
X0118414Y0087208D01*
X0118823Y0086798D01*
X0119325Y0086509D01*
X0119884Y0086359D01*
X0126473Y0086359D01*
X0126473Y0090330D01*
X0126473Y0090330D01*
X0117974Y0090330D01*
X0117974Y0092392D01*
X0118092Y0092830D01*
X0117974Y0093269D01*
X0117974Y0095330D01*
X0126473Y0095330D01*
X0126473Y0095330D01*
X0126473Y0094302D01*
X0126473Y0090331D01*
X0126473Y0090331D01*
X0126473Y0095330D01*
X0126473Y0095330D01*
X0107300Y0095330D01*
X0074800Y0062830D01*
X0074800Y0057830D01*
X0072300Y0052830D01*
X0042300Y0052830D01*
X0027300Y0037830D01*
X0027300Y0022830D01*
X0102300Y0022830D01*
X0107300Y0027830D01*
X0107300Y0052830D01*
X0124800Y0070330D01*
X0126473Y0070330D01*
X0126473Y0070395D02*
X0126473Y0070395D01*
X0126473Y0072793D02*
X0126473Y0072793D01*
X0126473Y0075192D02*
X0126473Y0075192D01*
X0126473Y0077590D02*
X0126473Y0077590D01*
X0126473Y0079989D02*
X0126473Y0079989D01*
X0126473Y0082387D02*
X0126473Y0082387D01*
X0132300Y0084786D02*
X0096755Y0084786D01*
X0094357Y0082387D02*
X0117974Y0082387D01*
X0117974Y0079989D02*
X0091958Y0079989D01*
X0089560Y0077590D02*
X0118027Y0077590D01*
X0117974Y0075192D02*
X0087161Y0075192D01*
X0084763Y0072793D02*
X0118082Y0072793D01*
X0117273Y0070395D02*
X0082364Y0070395D01*
X0079966Y0067996D02*
X0114875Y0067996D01*
X0113700Y0065598D02*
X0077567Y0065598D01*
X0077300Y0062830D02*
X0077300Y0057830D01*
X0072300Y0052830D01*
X0042300Y0052830D01*
X0027300Y0037830D01*
X0017300Y0047830D01*
X0028684Y0039214D02*
X0107300Y0039214D01*
X0107300Y0036816D02*
X0027300Y0036816D01*
X0027300Y0034417D02*
X0107300Y0034417D01*
X0107300Y0032019D02*
X0027300Y0032019D01*
X0027300Y0029620D02*
X0107300Y0029620D01*
X0106691Y0027221D02*
X0027300Y0027221D01*
X0027300Y0024823D02*
X0104293Y0024823D01*
X0117300Y0024823D02*
X0286600Y0024823D01*
X0286600Y0027221D02*
X0117300Y0027221D01*
X0117300Y0029620D02*
X0286600Y0029620D01*
X0286600Y0032019D02*
X0219170Y0032019D01*
X0217782Y0030630D02*
X0214800Y0030630D01*
X0214800Y0037830D01*
X0214800Y0037830D01*
X0214800Y0030630D01*
X0211818Y0030630D01*
X0207600Y0034848D01*
X0207600Y0037830D01*
X0214800Y0037830D01*
X0214800Y0037830D01*
X0222000Y0037830D01*
X0222000Y0034848D01*
X0217782Y0030630D01*
X0214800Y0032019D02*
X0214800Y0032019D01*
X0214800Y0034417D02*
X0214800Y0034417D01*
X0214800Y0036816D02*
X0214800Y0036816D01*
X0214800Y0037830D02*
X0214800Y0037830D01*
X0222000Y0037830D01*
X0222000Y0040813D01*
X0217782Y0045030D01*
X0214800Y0045030D01*
X0211818Y0045030D01*
X0207600Y0040813D01*
X0207600Y0037830D01*
X0214800Y0037830D01*
X0214800Y0037831D02*
X0214800Y0045030D01*
X0214800Y0037831D01*
X0214800Y0037831D01*
X0214800Y0039214D02*
X0214800Y0039214D01*
X0214800Y0041613D02*
X0214800Y0041613D01*
X0214800Y0044011D02*
X0214800Y0044011D01*
X0218802Y0044011D02*
X0286600Y0044011D01*
X0286600Y0041613D02*
X0221200Y0041613D01*
X0222000Y0039214D02*
X0286600Y0039214D01*
X0286600Y0036816D02*
X0222000Y0036816D01*
X0221569Y0034417D02*
X0286600Y0034417D01*
X0286600Y0022424D02*
X0117300Y0022424D01*
X0117300Y0020026D02*
X0286600Y0020026D01*
X0286600Y0018530D02*
X0117300Y0018530D01*
X0117300Y0047830D01*
X0127300Y0057830D01*
X0132300Y0057830D01*
X0142300Y0067830D01*
X0142300Y0102830D01*
X0137300Y0107830D01*
X0102300Y0107830D01*
X0086800Y0092330D01*
X0086800Y0094223D01*
X0085734Y0096796D01*
X0083765Y0098765D01*
X0081192Y0099830D01*
X0078408Y0099830D01*
X0075835Y0098765D01*
X0073866Y0096796D01*
X0072800Y0094223D01*
X0072800Y0091438D01*
X0073866Y0088865D01*
X0075835Y0086896D01*
X0078408Y0085830D01*
X0080300Y0085830D01*
X0067300Y0072830D01*
X0047300Y0072830D01*
X0042300Y0077830D01*
X0042300Y0082830D01*
X0032300Y0092830D01*
X0032300Y0102830D01*
X0022300Y0112830D01*
X0008000Y0112830D01*
X0008000Y0163330D01*
X0050628Y0163330D01*
X0051800Y0164502D01*
X0051800Y0207130D01*
X0074201Y0207130D01*
X0073866Y0206796D01*
X0072800Y0204223D01*
X0072800Y0201438D01*
X0073866Y0198865D01*
X0075835Y0196896D01*
X0078408Y0195830D01*
X0081192Y0195830D01*
X0083765Y0196896D01*
X0085734Y0198865D01*
X0086800Y0201438D01*
X0086800Y0204223D01*
X0085734Y0206796D01*
X0085399Y0207130D01*
X0131701Y0207130D01*
X0131366Y0206796D01*
X0130300Y0204223D01*
X0130300Y0201438D01*
X0131366Y0198865D01*
X0133335Y0196896D01*
X0135908Y0195830D01*
X0138692Y0195830D01*
X0141265Y0196896D01*
X0143234Y0198865D01*
X0144300Y0201438D01*
X0144300Y0204223D01*
X0143234Y0206796D01*
X0142899Y0207130D01*
X0189201Y0207130D01*
X0188866Y0206796D01*
X0187800Y0204223D01*
X0187800Y0201438D01*
X0188866Y0198865D01*
X0190835Y0196896D01*
X0193408Y0195830D01*
X0196192Y0195830D01*
X0198765Y0196896D01*
X0200734Y0198865D01*
X0201800Y0201438D01*
X0201800Y0204223D01*
X0200734Y0206796D01*
X0200399Y0207130D01*
X0242800Y0207130D01*
X0242800Y0164502D01*
X0243972Y0163330D01*
X0286600Y0163330D01*
X0286600Y0018530D01*
X0286600Y0046410D02*
X0117300Y0046410D01*
X0117300Y0044011D02*
X0121430Y0044011D01*
X0120835Y0043765D02*
X0118866Y0041796D01*
X0117800Y0039223D01*
X0117800Y0036438D01*
X0118866Y0033865D01*
X0120835Y0031896D01*
X0123408Y0030830D01*
X0126192Y0030830D01*
X0128765Y0031896D01*
X0130734Y0033865D01*
X0131800Y0036438D01*
X0131800Y0039223D01*
X0130734Y0041796D01*
X0128765Y0043765D01*
X0126192Y0044830D01*
X0123408Y0044830D01*
X0120835Y0043765D01*
X0118790Y0041613D02*
X0117300Y0041613D01*
X0117300Y0039214D02*
X0117800Y0039214D01*
X0117800Y0036816D02*
X0117300Y0036816D01*
X0117300Y0034417D02*
X0118637Y0034417D01*
X0117300Y0032019D02*
X0120712Y0032019D01*
X0128888Y0032019D02*
X0140430Y0032019D01*
X0141818Y0030630D02*
X0137600Y0034848D01*
X0137600Y0037830D01*
X0144800Y0037830D01*
X0144800Y0030630D01*
X0147782Y0030630D01*
X0152000Y0034848D01*
X0152000Y0037830D01*
X0144800Y0037830D01*
X0144800Y0037830D01*
X0144800Y0030630D01*
X0141818Y0030630D01*
X0144800Y0032019D02*
X0144800Y0032019D01*
X0144800Y0034417D02*
X0144800Y0034417D01*
X0144800Y0036816D02*
X0144800Y0036816D01*
X0144800Y0037830D02*
X0144800Y0037830D01*
X0144800Y0037830D01*
X0152000Y0037830D01*
X0152000Y0040813D01*
X0147782Y0045030D01*
X0144800Y0045030D01*
X0141818Y0045030D01*
X0137600Y0040813D01*
X0137600Y0037830D01*
X0144800Y0037830D01*
X0144800Y0037831D02*
X0144800Y0045030D01*
X0144800Y0037831D01*
X0144800Y0037831D01*
X0144800Y0039214D02*
X0144800Y0039214D01*
X0144800Y0041613D02*
X0144800Y0041613D01*
X0144800Y0044011D02*
X0144800Y0044011D01*
X0148802Y0044011D02*
X0191430Y0044011D01*
X0190835Y0043765D02*
X0188866Y0041796D01*
X0187800Y0039223D01*
X0187800Y0036438D01*
X0188866Y0033865D01*
X0190835Y0031896D01*
X0193408Y0030830D01*
X0196192Y0030830D01*
X0198765Y0031896D01*
X0200734Y0033865D01*
X0201800Y0036438D01*
X0201800Y0039223D01*
X0200734Y0041796D01*
X0198765Y0043765D01*
X0196192Y0044830D01*
X0193408Y0044830D01*
X0190835Y0043765D01*
X0188790Y0041613D02*
X0151200Y0041613D01*
X0152000Y0039214D02*
X0187800Y0039214D01*
X0187800Y0036816D02*
X0152000Y0036816D01*
X0151569Y0034417D02*
X0188637Y0034417D01*
X0190712Y0032019D02*
X0149170Y0032019D01*
X0138031Y0034417D02*
X0130963Y0034417D01*
X0131800Y0036816D02*
X0137600Y0036816D01*
X0137600Y0039214D02*
X0131800Y0039214D01*
X0130810Y0041613D02*
X0138400Y0041613D01*
X0140798Y0044011D02*
X0128170Y0044011D01*
X0118278Y0048808D02*
X0286600Y0048808D01*
X0286600Y0051207D02*
X0120676Y0051207D01*
X0123075Y0053605D02*
X0286600Y0053605D01*
X0286600Y0056004D02*
X0193302Y0056004D01*
X0193128Y0055830D02*
X0194300Y0057002D01*
X0194300Y0113659D01*
X0193128Y0114830D01*
X0146472Y0114830D01*
X0145300Y0113659D01*
X0145300Y0057002D01*
X0146472Y0055830D01*
X0193128Y0055830D01*
X0194300Y0058402D02*
X0286600Y0058402D01*
X0286600Y0060801D02*
X0194300Y0060801D01*
X0194300Y0063199D02*
X0286600Y0063199D01*
X0286600Y0065598D02*
X0194300Y0065598D01*
X0194300Y0067996D02*
X0286600Y0067996D01*
X0286600Y0070395D02*
X0194300Y0070395D01*
X0194300Y0072793D02*
X0229655Y0072793D01*
X0227600Y0074848D02*
X0231818Y0070630D01*
X0234800Y0070630D01*
X0237782Y0070630D01*
X0242000Y0074848D01*
X0242000Y0077830D01*
X0234800Y0077830D01*
X0234800Y0070630D01*
X0234800Y0077830D01*
X0234800Y0077830D01*
X0234800Y0077830D01*
X0227600Y0077830D01*
X0227600Y0074848D01*
X0227600Y0075192D02*
X0194300Y0075192D01*
X0194300Y0077590D02*
X0227600Y0077590D01*
X0227600Y0077830D02*
X0234800Y0077830D01*
X0234800Y0077830D01*
X0242000Y0077830D01*
X0242000Y0080813D01*
X0237782Y0085030D01*
X0234800Y0085030D01*
X0231818Y0085030D01*
X0227600Y0080813D01*
X0227600Y0077830D01*
X0227600Y0079989D02*
X0194300Y0079989D01*
X0194300Y0082387D02*
X0229175Y0082387D01*
X0231573Y0084786D02*
X0194300Y0084786D01*
X0194300Y0087184D02*
X0286600Y0087184D01*
X0286600Y0084786D02*
X0238027Y0084786D01*
X0240425Y0082387D02*
X0286600Y0082387D01*
X0286600Y0079989D02*
X0242000Y0079989D01*
X0242000Y0077590D02*
X0286600Y0077590D01*
X0286600Y0075192D02*
X0242000Y0075192D01*
X0239945Y0072793D02*
X0286600Y0072793D01*
X0286600Y0089583D02*
X0194300Y0089583D01*
X0194300Y0091981D02*
X0230750Y0091981D01*
X0230835Y0091896D02*
X0233408Y0090830D01*
X0236192Y0090830D01*
X0238765Y0091896D01*
X0240734Y0093865D01*
X0241800Y0096438D01*
X0241800Y0099223D01*
X0240734Y0101796D01*
X0238765Y0103765D01*
X0236192Y0104830D01*
X0233408Y0104830D01*
X0230835Y0103765D01*
X0228866Y0101796D01*
X0227800Y0099223D01*
X0227800Y0096438D01*
X0228866Y0093865D01*
X0230835Y0091896D01*
X0228653Y0094380D02*
X0194300Y0094380D01*
X0194300Y0096778D02*
X0227800Y0096778D01*
X0227800Y0099177D02*
X0194300Y0099177D01*
X0194300Y0101575D02*
X0228774Y0101575D01*
X0231340Y0103974D02*
X0194300Y0103974D01*
X0194300Y0106372D02*
X0286600Y0106372D01*
X0286600Y0103974D02*
X0238260Y0103974D01*
X0240826Y0101575D02*
X0286600Y0101575D01*
X0286600Y0099177D02*
X0241800Y0099177D01*
X0241800Y0096778D02*
X0286600Y0096778D01*
X0286600Y0094380D02*
X0240947Y0094380D01*
X0238850Y0091981D02*
X0286600Y0091981D01*
X0286600Y0108771D02*
X0194300Y0108771D01*
X0194300Y0111169D02*
X0286600Y0111169D01*
X0286600Y0113568D02*
X0194300Y0113568D01*
X0209670Y0125560D02*
X0163936Y0125560D01*
X0164300Y0126438D02*
X0163234Y0123865D01*
X0161265Y0121896D01*
X0158692Y0120830D01*
X0155908Y0120830D01*
X0153335Y0121896D01*
X0151366Y0123865D01*
X0150300Y0126438D01*
X0150300Y0129223D01*
X0151366Y0131796D01*
X0153335Y0133765D01*
X0155908Y0134830D01*
X0158692Y0134830D01*
X0161265Y0133765D01*
X0163234Y0131796D01*
X0164300Y0129223D01*
X0164300Y0126438D01*
X0164300Y0127959D02*
X0208206Y0127959D01*
X0207800Y0128938D02*
X0208866Y0126365D01*
X0210835Y0124396D01*
X0213408Y0123330D01*
X0216192Y0123330D01*
X0218765Y0124396D01*
X0220734Y0126365D01*
X0221800Y0128938D01*
X0221800Y0131723D01*
X0220734Y0134296D01*
X0218765Y0136265D01*
X0216192Y0137330D01*
X0213408Y0137330D01*
X0210835Y0136265D01*
X0208866Y0134296D01*
X0207800Y0131723D01*
X0207800Y0128938D01*
X0207800Y0130357D02*
X0163830Y0130357D01*
X0162274Y0132756D02*
X0208228Y0132756D01*
X0209725Y0135154D02*
X0104875Y0135154D01*
X0105734Y0134296D02*
X0103765Y0136265D01*
X0101192Y0137330D01*
X0098408Y0137330D01*
X0095835Y0136265D01*
X0093866Y0134296D01*
X0092800Y0131723D01*
X0092800Y0128938D01*
X0093866Y0126365D01*
X0095835Y0124396D01*
X0098408Y0123330D01*
X0101192Y0123330D01*
X0103765Y0124396D01*
X0105734Y0126365D01*
X0106800Y0128938D01*
X0106800Y0131723D01*
X0105734Y0134296D01*
X0106372Y0132756D02*
X0152326Y0132756D01*
X0150770Y0130357D02*
X0106800Y0130357D01*
X0106394Y0127959D02*
X0150300Y0127959D01*
X0150663Y0125560D02*
X0104930Y0125560D01*
X0094670Y0125560D02*
X0039500Y0125560D01*
X0039500Y0125330D02*
X0039500Y0128313D01*
X0035282Y0132530D01*
X0032300Y0132530D01*
X0029318Y0132530D01*
X0025100Y0128313D01*
X0025100Y0125330D01*
X0025100Y0122348D01*
X0029318Y0118130D01*
X0032300Y0118130D01*
X0035282Y0118130D01*
X0039500Y0122348D01*
X0039500Y0125330D01*
X0032300Y0125330D01*
X0032300Y0118130D01*
X0032300Y0125330D01*
X0032300Y0125330D01*
X0032300Y0125330D01*
X0025100Y0125330D01*
X0032300Y0125330D01*
X0032300Y0125330D01*
X0039500Y0125330D01*
X0039500Y0123162D02*
X0152069Y0123162D01*
X0162531Y0123162D02*
X0265621Y0123162D01*
X0265300Y0123938D02*
X0266366Y0121365D01*
X0268335Y0119396D01*
X0270908Y0118330D01*
X0273692Y0118330D01*
X0276265Y0119396D01*
X0278234Y0121365D01*
X0279300Y0123938D01*
X0279300Y0126723D01*
X0278234Y0129296D01*
X0276265Y0131265D01*
X0273692Y0132330D01*
X0270908Y0132330D01*
X0268335Y0131265D01*
X0266366Y0129296D01*
X0265300Y0126723D01*
X0265300Y0123938D01*
X0265300Y0125560D02*
X0219930Y0125560D01*
X0221394Y0127959D02*
X0265812Y0127959D01*
X0267428Y0130357D02*
X0221800Y0130357D01*
X0221372Y0132756D02*
X0286600Y0132756D01*
X0286600Y0135154D02*
X0219875Y0135154D01*
X0217782Y0143130D02*
X0214800Y0143130D01*
X0214800Y0150330D01*
X0214800Y0150330D01*
X0214800Y0143130D01*
X0211818Y0143130D01*
X0207600Y0147348D01*
X0207600Y0150330D01*
X0214800Y0150330D01*
X0214800Y0150330D01*
X0222000Y0150330D01*
X0222000Y0147348D01*
X0217782Y0143130D01*
X0219400Y0144749D02*
X0265100Y0144749D01*
X0265100Y0145330D02*
X0265100Y0142348D01*
X0269318Y0138130D01*
X0272300Y0138130D01*
X0275282Y0138130D01*
X0279500Y0142348D01*
X0279500Y0145330D01*
X0272300Y0145330D01*
X0272300Y0138130D01*
X0272300Y0145330D01*
X0272300Y0145330D01*
X0272300Y0145330D01*
X0265100Y0145330D01*
X0272300Y0145330D01*
X0272300Y0145330D01*
X0279500Y0145330D01*
X0279500Y0148313D01*
X0275282Y0152530D01*
X0272300Y0152530D01*
X0269318Y0152530D01*
X0265100Y0148313D01*
X0265100Y0145330D01*
X0265100Y0147147D02*
X0221799Y0147147D01*
X0222000Y0149546D02*
X0266333Y0149546D01*
X0268731Y0151944D02*
X0222000Y0151944D01*
X0222000Y0153313D02*
X0222000Y0150330D01*
X0214800Y0150330D01*
X0214800Y0150330D01*
X0207600Y0150330D01*
X0207600Y0153313D01*
X0211818Y0157530D01*
X0214800Y0157530D01*
X0214800Y0150331D01*
X0214800Y0150331D01*
X0214800Y0157530D01*
X0217782Y0157530D01*
X0222000Y0153313D01*
X0220970Y0154343D02*
X0286600Y0154343D01*
X0286600Y0156741D02*
X0218572Y0156741D01*
X0214800Y0156741D02*
X0214800Y0156741D01*
X0214800Y0154343D02*
X0214800Y0154343D01*
X0214800Y0151944D02*
X0214800Y0151944D01*
X0214800Y0149546D02*
X0214800Y0149546D01*
X0214800Y0147147D02*
X0214800Y0147147D01*
X0214800Y0144749D02*
X0214800Y0144749D01*
X0210200Y0144749D02*
X0164400Y0144749D01*
X0164500Y0144848D02*
X0164500Y0147830D01*
X0157300Y0147830D01*
X0157300Y0140630D01*
X0160282Y0140630D01*
X0164500Y0144848D01*
X0164500Y0147147D02*
X0207801Y0147147D01*
X0207600Y0149546D02*
X0164500Y0149546D01*
X0164500Y0150813D02*
X0164500Y0147830D01*
X0157300Y0147830D01*
X0157300Y0147830D01*
X0157300Y0140630D01*
X0154318Y0140630D01*
X0150100Y0144848D01*
X0150100Y0147830D01*
X0157300Y0147830D01*
X0157300Y0147830D01*
X0157300Y0147830D01*
X0150100Y0147830D01*
X0150100Y0150813D01*
X0154318Y0155030D01*
X0157300Y0155030D01*
X0157300Y0147831D01*
X0157300Y0147831D01*
X0157300Y0155030D01*
X0160282Y0155030D01*
X0164500Y0150813D01*
X0163369Y0151944D02*
X0207600Y0151944D01*
X0208630Y0154343D02*
X0160970Y0154343D01*
X0157300Y0154343D02*
X0157300Y0154343D01*
X0157300Y0151944D02*
X0157300Y0151944D01*
X0157300Y0149546D02*
X0157300Y0149546D01*
X0157300Y0147147D02*
X0157300Y0147147D01*
X0157300Y0144749D02*
X0157300Y0144749D01*
X0157300Y0142350D02*
X0157300Y0142350D01*
X0162002Y0142350D02*
X0265100Y0142350D01*
X0267497Y0139952D02*
X0036821Y0139952D01*
X0036265Y0139396D02*
X0038234Y0141365D01*
X0039300Y0143938D01*
X0039300Y0146723D01*
X0038234Y0149296D01*
X0036265Y0151265D01*
X0033692Y0152330D01*
X0030908Y0152330D01*
X0028335Y0151265D01*
X0026366Y0149296D01*
X0025300Y0146723D01*
X0025300Y0143938D01*
X0026366Y0141365D01*
X0028335Y0139396D01*
X0030908Y0138330D01*
X0033692Y0138330D01*
X0036265Y0139396D01*
X0038642Y0142350D02*
X0152598Y0142350D01*
X0150200Y0144749D02*
X0104400Y0144749D01*
X0102782Y0143130D02*
X0099800Y0143130D01*
X0099800Y0150330D01*
X0099800Y0150330D01*
X0099800Y0143130D01*
X0096818Y0143130D01*
X0092600Y0147348D01*
X0092600Y0150330D01*
X0099800Y0150330D01*
X0099800Y0150330D01*
X0107000Y0150330D01*
X0107000Y0147348D01*
X0102782Y0143130D01*
X0099800Y0144749D02*
X0099800Y0144749D01*
X0099800Y0147147D02*
X0099800Y0147147D01*
X0099800Y0149546D02*
X0099800Y0149546D01*
X0099800Y0150330D02*
X0099800Y0150330D01*
X0092600Y0150330D01*
X0092600Y0153313D01*
X0096818Y0157530D01*
X0099800Y0157530D01*
X0099800Y0150331D01*
X0099800Y0150331D01*
X0099800Y0157530D01*
X0102782Y0157530D01*
X0107000Y0153313D01*
X0107000Y0150330D01*
X0099800Y0150330D01*
X0099800Y0151944D02*
X0099800Y0151944D01*
X0099800Y0154343D02*
X0099800Y0154343D01*
X0099800Y0156741D02*
X0099800Y0156741D01*
X0103572Y0156741D02*
X0211028Y0156741D01*
X0197782Y0175630D02*
X0194800Y0175630D01*
X0194800Y0182830D01*
X0194800Y0182830D01*
X0194800Y0175630D01*
X0191818Y0175630D01*
X0187600Y0179848D01*
X0187600Y0182830D01*
X0194800Y0182830D01*
X0194800Y0182830D01*
X0202000Y0182830D01*
X0202000Y0179848D01*
X0197782Y0175630D01*
X0198081Y0175929D02*
X0242800Y0175929D01*
X0242800Y0173531D02*
X0051800Y0173531D01*
X0051800Y0175929D02*
X0076519Y0175929D01*
X0076818Y0175630D02*
X0072600Y0179848D01*
X0072600Y0182830D01*
X0079800Y0182830D01*
X0079800Y0175630D01*
X0082782Y0175630D01*
X0087000Y0179848D01*
X0087000Y0182830D01*
X0079800Y0182830D01*
X0079800Y0182830D01*
X0079800Y0175630D01*
X0076818Y0175630D01*
X0079800Y0175929D02*
X0079800Y0175929D01*
X0079800Y0178328D02*
X0079800Y0178328D01*
X0079800Y0180726D02*
X0079800Y0180726D01*
X0079800Y0182830D02*
X0079800Y0182830D01*
X0079800Y0182830D01*
X0072600Y0182830D01*
X0072600Y0185813D01*
X0076818Y0190030D01*
X0079800Y0190030D01*
X0079800Y0182831D01*
X0079800Y0182831D01*
X0079800Y0190030D01*
X0082782Y0190030D01*
X0087000Y0185813D01*
X0087000Y0182830D01*
X0079800Y0182830D01*
X0079800Y0183125D02*
X0079800Y0183125D01*
X0079800Y0185523D02*
X0079800Y0185523D01*
X0079800Y0187922D02*
X0079800Y0187922D01*
X0084891Y0187922D02*
X0132209Y0187922D01*
X0134318Y0190030D02*
X0130100Y0185813D01*
X0130100Y0182830D01*
X0130100Y0179848D01*
X0134318Y0175630D01*
X0137300Y0175630D01*
X0140282Y0175630D01*
X0144500Y0179848D01*
X0144500Y0182830D01*
X0137300Y0182830D01*
X0137300Y0175630D01*
X0137300Y0182830D01*
X0137300Y0182830D01*
X0137300Y0182830D01*
X0130100Y0182830D01*
X0137300Y0182830D01*
X0137300Y0182830D01*
X0144500Y0182830D01*
X0144500Y0185813D01*
X0140282Y0190030D01*
X0137300Y0190030D01*
X0134318Y0190030D01*
X0137300Y0190030D02*
X0137300Y0182831D01*
X0137300Y0182831D01*
X0137300Y0190030D01*
X0137300Y0187922D02*
X0137300Y0187922D01*
X0137300Y0185523D02*
X0137300Y0185523D01*
X0137300Y0183125D02*
X0137300Y0183125D01*
X0137300Y0180726D02*
X0137300Y0180726D01*
X0137300Y0178328D02*
X0137300Y0178328D01*
X0137300Y0175929D02*
X0137300Y0175929D01*
X0140581Y0175929D02*
X0191519Y0175929D01*
X0194800Y0175929D02*
X0194800Y0175929D01*
X0194800Y0178328D02*
X0194800Y0178328D01*
X0194800Y0180726D02*
X0194800Y0180726D01*
X0194800Y0182830D02*
X0194800Y0182830D01*
X0187600Y0182830D01*
X0187600Y0185813D01*
X0191818Y0190030D01*
X0194800Y0190030D01*
X0194800Y0182831D01*
X0194800Y0182831D01*
X0194800Y0190030D01*
X0197782Y0190030D01*
X0202000Y0185813D01*
X0202000Y0182830D01*
X0194800Y0182830D01*
X0194800Y0183125D02*
X0194800Y0183125D01*
X0194800Y0185523D02*
X0194800Y0185523D01*
X0194800Y0187922D02*
X0194800Y0187922D01*
X0189709Y0187922D02*
X0142391Y0187922D01*
X0144500Y0185523D02*
X0187600Y0185523D01*
X0187600Y0183125D02*
X0144500Y0183125D01*
X0144500Y0180726D02*
X0187600Y0180726D01*
X0189120Y0178328D02*
X0142980Y0178328D01*
X0134019Y0175929D02*
X0083081Y0175929D01*
X0085480Y0178328D02*
X0131620Y0178328D01*
X0130100Y0180726D02*
X0087000Y0180726D01*
X0087000Y0183125D02*
X0130100Y0183125D01*
X0130100Y0185523D02*
X0087000Y0185523D01*
X0074709Y0187922D02*
X0051800Y0187922D01*
X0051800Y0190320D02*
X0242800Y0190320D01*
X0242800Y0187922D02*
X0199891Y0187922D01*
X0202000Y0185523D02*
X0242800Y0185523D01*
X0242800Y0183125D02*
X0202000Y0183125D01*
X0202000Y0180726D02*
X0242800Y0180726D01*
X0242800Y0178328D02*
X0200480Y0178328D01*
X0199385Y0197516D02*
X0242800Y0197516D01*
X0242800Y0199914D02*
X0201169Y0199914D01*
X0201800Y0202313D02*
X0242800Y0202313D01*
X0242800Y0204711D02*
X0201598Y0204711D01*
X0200420Y0207110D02*
X0242800Y0207110D01*
X0242800Y0195117D02*
X0051800Y0195117D01*
X0051800Y0197516D02*
X0075215Y0197516D01*
X0073431Y0199914D02*
X0051800Y0199914D01*
X0051800Y0202313D02*
X0072800Y0202313D01*
X0073002Y0204711D02*
X0051800Y0204711D01*
X0051800Y0207110D02*
X0074180Y0207110D01*
X0085420Y0207110D02*
X0131680Y0207110D01*
X0130502Y0204711D02*
X0086598Y0204711D01*
X0086800Y0202313D02*
X0130300Y0202313D01*
X0130931Y0199914D02*
X0086169Y0199914D01*
X0084385Y0197516D02*
X0132715Y0197516D01*
X0141885Y0197516D02*
X0190215Y0197516D01*
X0188431Y0199914D02*
X0143669Y0199914D01*
X0144300Y0202313D02*
X0187800Y0202313D01*
X0188002Y0204711D02*
X0144098Y0204711D01*
X0142920Y0207110D02*
X0189180Y0207110D01*
X0242800Y0192719D02*
X0051800Y0192719D01*
X0051800Y0185523D02*
X0072600Y0185523D01*
X0072600Y0183125D02*
X0051800Y0183125D01*
X0051800Y0180726D02*
X0072600Y0180726D01*
X0074120Y0178328D02*
X0051800Y0178328D01*
X0051800Y0171132D02*
X0242800Y0171132D01*
X0242800Y0168734D02*
X0051800Y0168734D01*
X0051800Y0166335D02*
X0242800Y0166335D01*
X0243365Y0163937D02*
X0051235Y0163937D01*
X0037984Y0149546D02*
X0092600Y0149546D01*
X0092600Y0151944D02*
X0034625Y0151944D01*
X0029975Y0151944D02*
X0008000Y0151944D01*
X0008000Y0149546D02*
X0026616Y0149546D01*
X0025476Y0147147D02*
X0008000Y0147147D01*
X0008000Y0144749D02*
X0025300Y0144749D01*
X0025958Y0142350D02*
X0008000Y0142350D01*
X0008000Y0139952D02*
X0027779Y0139952D01*
X0039124Y0147147D02*
X0092801Y0147147D01*
X0095200Y0144749D02*
X0039300Y0144749D01*
X0032300Y0132530D02*
X0032300Y0125331D01*
X0032300Y0132530D01*
X0032300Y0130357D02*
X0032300Y0130357D01*
X0032300Y0127959D02*
X0032300Y0127959D01*
X0032300Y0125560D02*
X0032300Y0125560D01*
X0032300Y0125331D02*
X0032300Y0125331D01*
X0032300Y0123162D02*
X0032300Y0123162D01*
X0032300Y0120763D02*
X0032300Y0120763D01*
X0032300Y0118365D02*
X0032300Y0118365D01*
X0035517Y0118365D02*
X0270824Y0118365D01*
X0273776Y0118365D02*
X0286600Y0118365D01*
X0286600Y0120763D02*
X0277632Y0120763D01*
X0278979Y0123162D02*
X0286600Y0123162D01*
X0286600Y0125560D02*
X0279300Y0125560D01*
X0278788Y0127959D02*
X0286600Y0127959D01*
X0286600Y0130357D02*
X0277172Y0130357D01*
X0286600Y0137553D02*
X0008000Y0137553D01*
X0008000Y0135154D02*
X0094725Y0135154D01*
X0093228Y0132756D02*
X0008000Y0132756D01*
X0008000Y0130357D02*
X0027145Y0130357D01*
X0025100Y0127959D02*
X0008000Y0127959D01*
X0008000Y0125560D02*
X0025100Y0125560D01*
X0025100Y0123162D02*
X0008000Y0123162D01*
X0008000Y0120763D02*
X0026685Y0120763D01*
X0029083Y0118365D02*
X0008000Y0118365D01*
X0008000Y0115966D02*
X0286600Y0115966D01*
X0266967Y0120763D02*
X0037915Y0120763D01*
X0039500Y0127959D02*
X0093206Y0127959D01*
X0092800Y0130357D02*
X0037455Y0130357D01*
X0023961Y0111169D02*
X0145300Y0111169D01*
X0145300Y0108771D02*
X0026360Y0108771D01*
X0028758Y0106372D02*
X0100842Y0106372D01*
X0098443Y0103974D02*
X0031157Y0103974D01*
X0032300Y0101575D02*
X0096045Y0101575D01*
X0093646Y0099177D02*
X0082770Y0099177D01*
X0085741Y0096778D02*
X0091248Y0096778D01*
X0088849Y0094380D02*
X0086735Y0094380D01*
X0076830Y0099177D02*
X0063636Y0099177D01*
X0062782Y0100030D02*
X0059800Y0100030D01*
X0056818Y0100030D01*
X0052600Y0095813D01*
X0052600Y0092830D01*
X0052600Y0089848D01*
X0056818Y0085630D01*
X0059800Y0085630D01*
X0062782Y0085630D01*
X0067000Y0089848D01*
X0067000Y0092830D01*
X0059800Y0092830D01*
X0059800Y0085630D01*
X0059800Y0092830D01*
X0059800Y0092830D01*
X0059800Y0092830D01*
X0052600Y0092830D01*
X0059800Y0092830D01*
X0059800Y0092830D01*
X0067000Y0092830D01*
X0067000Y0095813D01*
X0062782Y0100030D01*
X0059800Y0100030D02*
X0059800Y0092831D01*
X0059800Y0100030D01*
X0059800Y0099177D02*
X0059800Y0099177D01*
X0059800Y0096778D02*
X0059800Y0096778D01*
X0059800Y0094380D02*
X0059800Y0094380D01*
X0059800Y0092831D02*
X0059800Y0092831D01*
X0059800Y0091981D02*
X0059800Y0091981D01*
X0059800Y0089583D02*
X0059800Y0089583D01*
X0059800Y0087184D02*
X0059800Y0087184D01*
X0055264Y0087184D02*
X0037946Y0087184D01*
X0040345Y0084786D02*
X0079255Y0084786D01*
X0076857Y0082387D02*
X0042300Y0082387D01*
X0042300Y0079989D02*
X0074458Y0079989D01*
X0072060Y0077590D02*
X0042540Y0077590D01*
X0044939Y0075192D02*
X0069661Y0075192D01*
X0062320Y0067830D02*
X0067280Y0060330D01*
X0067280Y0062811D01*
X0104800Y0100330D01*
X0126473Y0100330D01*
X0126473Y0095330D02*
X0109800Y0095330D01*
X0077300Y0062830D01*
X0075169Y0063199D02*
X0114340Y0063199D01*
X0115270Y0060801D02*
X0074800Y0060801D01*
X0074800Y0058402D02*
X0112872Y0058402D01*
X0110473Y0056004D02*
X0073887Y0056004D01*
X0072687Y0053605D02*
X0108075Y0053605D01*
X0107300Y0051207D02*
X0040676Y0051207D01*
X0042300Y0052830D02*
X0049800Y0060330D01*
X0052320Y0060330D01*
X0047300Y0067830D02*
X0062320Y0067830D01*
X0047300Y0067830D02*
X0038954Y0069484D01*
X0039666Y0070464D01*
X0034666Y0067697D01*
X0032300Y0070330D01*
X0022300Y0082830D01*
X0029934Y0085197D02*
X0022300Y0092830D01*
X0017300Y0092830D01*
X0029934Y0085197D02*
X0034934Y0075197D01*
X0035548Y0089583D02*
X0052865Y0089583D01*
X0052600Y0091981D02*
X0033149Y0091981D01*
X0032300Y0094380D02*
X0052600Y0094380D01*
X0053566Y0096778D02*
X0032300Y0096778D01*
X0032300Y0099177D02*
X0055964Y0099177D01*
X0066034Y0096778D02*
X0073859Y0096778D01*
X0072865Y0094380D02*
X0067000Y0094380D01*
X0067000Y0091981D02*
X0072800Y0091981D01*
X0073568Y0089583D02*
X0066735Y0089583D01*
X0064336Y0087184D02*
X0075547Y0087184D01*
X0099154Y0087184D02*
X0118437Y0087184D01*
X0117974Y0089583D02*
X0101552Y0089583D01*
X0103951Y0091981D02*
X0117974Y0091981D01*
X0117974Y0094380D02*
X0106349Y0094380D01*
X0126473Y0094380D02*
X0126473Y0094380D01*
X0126473Y0091981D02*
X0126473Y0091981D01*
X0126473Y0089583D02*
X0126473Y0089583D01*
X0126473Y0087184D02*
X0126473Y0087184D01*
X0142300Y0087184D02*
X0145300Y0087184D01*
X0145300Y0084786D02*
X0142300Y0084786D01*
X0142300Y0082387D02*
X0145300Y0082387D01*
X0145300Y0079989D02*
X0142300Y0079989D01*
X0142300Y0077590D02*
X0145300Y0077590D01*
X0145300Y0075192D02*
X0142300Y0075192D01*
X0142300Y0072793D02*
X0145300Y0072793D01*
X0145300Y0070395D02*
X0142300Y0070395D01*
X0142300Y0067996D02*
X0145300Y0067996D01*
X0145300Y0065598D02*
X0140067Y0065598D01*
X0137669Y0063199D02*
X0145300Y0063199D01*
X0145300Y0060801D02*
X0135270Y0060801D01*
X0132872Y0058402D02*
X0145300Y0058402D01*
X0146298Y0056004D02*
X0125473Y0056004D01*
X0107300Y0048808D02*
X0038278Y0048808D01*
X0035879Y0046410D02*
X0107300Y0046410D01*
X0107300Y0044011D02*
X0033481Y0044011D01*
X0031082Y0041613D02*
X0107300Y0041613D01*
X0142300Y0089583D02*
X0145300Y0089583D01*
X0145300Y0091981D02*
X0142300Y0091981D01*
X0142300Y0094380D02*
X0145300Y0094380D01*
X0145300Y0096778D02*
X0142300Y0096778D01*
X0142300Y0099177D02*
X0145300Y0099177D01*
X0145300Y0101575D02*
X0142300Y0101575D01*
X0141157Y0103974D02*
X0145300Y0103974D01*
X0145300Y0106372D02*
X0138758Y0106372D01*
X0145300Y0113568D02*
X0008000Y0113568D01*
X0008000Y0154343D02*
X0093630Y0154343D01*
X0096028Y0156741D02*
X0008000Y0156741D01*
X0008000Y0159140D02*
X0286600Y0159140D01*
X0286600Y0161538D02*
X0008000Y0161538D01*
X0105970Y0154343D02*
X0153630Y0154343D01*
X0151231Y0151944D02*
X0107000Y0151944D01*
X0107000Y0149546D02*
X0150100Y0149546D01*
X0150100Y0147147D02*
X0106799Y0147147D01*
X0234800Y0085030D02*
X0234800Y0077831D01*
X0234800Y0077831D01*
X0234800Y0085030D01*
X0234800Y0084786D02*
X0234800Y0084786D01*
X0234800Y0082387D02*
X0234800Y0082387D01*
X0234800Y0079989D02*
X0234800Y0079989D01*
X0234800Y0077590D02*
X0234800Y0077590D01*
X0234800Y0075192D02*
X0234800Y0075192D01*
X0234800Y0072793D02*
X0234800Y0072793D01*
X0210798Y0044011D02*
X0198170Y0044011D01*
X0200810Y0041613D02*
X0208400Y0041613D01*
X0207600Y0039214D02*
X0201800Y0039214D01*
X0201800Y0036816D02*
X0207600Y0036816D01*
X0208031Y0034417D02*
X0200963Y0034417D01*
X0198888Y0032019D02*
X0210430Y0032019D01*
X0272300Y0139952D02*
X0272300Y0139952D01*
X0272300Y0142350D02*
X0272300Y0142350D01*
X0272300Y0144749D02*
X0272300Y0144749D01*
X0272300Y0145331D02*
X0272300Y0152530D01*
X0272300Y0145331D01*
X0272300Y0145331D01*
X0272300Y0147147D02*
X0272300Y0147147D01*
X0272300Y0149546D02*
X0272300Y0149546D01*
X0272300Y0151944D02*
X0272300Y0151944D01*
X0275869Y0151944D02*
X0286600Y0151944D01*
X0286600Y0149546D02*
X0278267Y0149546D01*
X0279500Y0147147D02*
X0286600Y0147147D01*
X0286600Y0144749D02*
X0279500Y0144749D01*
X0279500Y0142350D02*
X0286600Y0142350D01*
X0286600Y0139952D02*
X0277103Y0139952D01*
D19*
X0024800Y0080330D02*
X0022300Y0082830D01*
X0017300Y0082830D01*
X0018954Y0091177D02*
X0017300Y0092830D01*
D20*
X0027300Y0037830D03*
X0027300Y0187830D03*
X0267300Y0187830D03*
X0267300Y0037830D03*
D21*
X0017300Y0047830D02*
X0017300Y0072830D01*
D22*
X0107300Y0077830D02*
X0122300Y0092830D01*
X0122300Y0077830D01*
X0112300Y0067830D01*
X0112300Y0062830D01*
X0122300Y0072830D01*
X0127300Y0072830D01*
X0127300Y0092830D01*
X0168442Y0085330D02*
X0168442Y0073972D01*
X0152300Y0057830D01*
X0144800Y0050330D01*
X0144800Y0037830D01*
D23*
X0152300Y0057830D02*
X0152300Y0107830D01*
X0187300Y0107830D01*
X0187300Y0062830D01*
X0157300Y0062830D01*
D24*
X0122300Y0070330D02*
X0117300Y0065330D01*
M02*
