G75*
%MOIN*%
%OFA0B0*%
%FSLAX25Y25*%
%IPPOS*%
%LPD*%
%AMOC8*
5,1,8,0,0,1.08239X$1,22.5*
%
%ADD10C,0.10000*%
%ADD11OC8,0.10000*%
%ADD12C,0.06000*%
%ADD13R,0.45000X0.45000*%
%ADD14C,0.01600*%
D10*
X0124800Y0037830D03*
X0194800Y0037830D03*
X0234800Y0097830D03*
X0272300Y0125330D03*
X0214800Y0130330D03*
X0157300Y0127830D03*
X0099800Y0130330D03*
X0079800Y0092830D03*
X0032300Y0145330D03*
X0079800Y0202830D03*
X0137300Y0202830D03*
X0194800Y0202830D03*
D11*
X0194800Y0182830D03*
X0214800Y0150330D03*
X0157300Y0147830D03*
X0137300Y0182830D03*
X0099800Y0150330D03*
X0079800Y0182830D03*
X0032300Y0125330D03*
X0059800Y0092830D03*
X0144800Y0037830D03*
X0214800Y0037830D03*
X0234800Y0077830D03*
X0272300Y0145330D03*
D12*
X0020300Y0102830D02*
X0014300Y0102830D01*
X0014300Y0092830D02*
X0020300Y0092830D01*
X0020300Y0082830D02*
X0014300Y0082830D01*
X0014300Y0072830D02*
X0020300Y0072830D01*
D13*
X0027300Y0037830D03*
X0027300Y0187830D03*
X0267300Y0187830D03*
X0267300Y0037830D03*
D14*
X0243200Y0038407D02*
X0221400Y0038407D01*
X0221400Y0040005D02*
X0243200Y0040005D01*
X0243200Y0041604D02*
X0220361Y0041604D01*
X0221400Y0040564D02*
X0217534Y0044430D01*
X0212066Y0044430D01*
X0208200Y0040564D01*
X0208200Y0035097D01*
X0212066Y0031230D01*
X0217534Y0031230D01*
X0221400Y0035097D01*
X0221400Y0040564D01*
X0218762Y0043202D02*
X0243200Y0043202D01*
X0243200Y0044801D02*
X0051400Y0044801D01*
X0051400Y0046399D02*
X0243200Y0046399D01*
X0243200Y0047998D02*
X0051400Y0047998D01*
X0051400Y0049596D02*
X0243200Y0049596D01*
X0243200Y0051195D02*
X0051400Y0051195D01*
X0051400Y0052793D02*
X0243200Y0052793D01*
X0243200Y0054392D02*
X0051400Y0054392D01*
X0051400Y0055990D02*
X0243200Y0055990D01*
X0243200Y0057589D02*
X0051400Y0057589D01*
X0051400Y0059187D02*
X0243200Y0059187D01*
X0243200Y0060786D02*
X0051400Y0060786D01*
X0051400Y0060993D02*
X0050463Y0061930D01*
X0007600Y0061930D01*
X0007600Y0207530D01*
X0074883Y0207530D01*
X0074677Y0207324D01*
X0074134Y0206616D01*
X0073688Y0205844D01*
X0073347Y0205021D01*
X0073116Y0204160D01*
X0073000Y0203276D01*
X0073000Y0203030D01*
X0079600Y0203030D01*
X0079600Y0202630D01*
X0080000Y0202630D01*
X0080000Y0196030D01*
X0080246Y0196030D01*
X0081129Y0196147D01*
X0081990Y0196377D01*
X0082814Y0196719D01*
X0083586Y0197164D01*
X0084293Y0197707D01*
X0084923Y0198337D01*
X0085466Y0199044D01*
X0085912Y0199816D01*
X0086253Y0200640D01*
X0086484Y0201501D01*
X0086600Y0202385D01*
X0086600Y0202630D01*
X0080000Y0202630D01*
X0080000Y0203030D01*
X0086600Y0203030D01*
X0086600Y0203276D01*
X0086484Y0204160D01*
X0086253Y0205021D01*
X0085912Y0205844D01*
X0085466Y0206616D01*
X0084923Y0207324D01*
X0084717Y0207530D01*
X0132383Y0207530D01*
X0132177Y0207324D01*
X0131634Y0206616D01*
X0131188Y0205844D01*
X0130847Y0205021D01*
X0130616Y0204160D01*
X0130500Y0203276D01*
X0130500Y0203030D01*
X0137100Y0203030D01*
X0137100Y0202630D01*
X0137500Y0202630D01*
X0137500Y0196030D01*
X0137746Y0196030D01*
X0138629Y0196147D01*
X0139490Y0196377D01*
X0140314Y0196719D01*
X0141086Y0197164D01*
X0141793Y0197707D01*
X0142423Y0198337D01*
X0142966Y0199044D01*
X0143412Y0199816D01*
X0143753Y0200640D01*
X0143984Y0201501D01*
X0144100Y0202385D01*
X0144100Y0202630D01*
X0137500Y0202630D01*
X0137500Y0203030D01*
X0144100Y0203030D01*
X0144100Y0203276D01*
X0143984Y0204160D01*
X0143753Y0205021D01*
X0143412Y0205844D01*
X0142966Y0206616D01*
X0142423Y0207324D01*
X0142217Y0207530D01*
X0189883Y0207530D01*
X0189677Y0207324D01*
X0189134Y0206616D01*
X0188688Y0205844D01*
X0188347Y0205021D01*
X0188116Y0204160D01*
X0188000Y0203276D01*
X0188000Y0203030D01*
X0194600Y0203030D01*
X0194600Y0202630D01*
X0195000Y0202630D01*
X0195000Y0196030D01*
X0195246Y0196030D01*
X0196129Y0196147D01*
X0196990Y0196377D01*
X0197814Y0196719D01*
X0198586Y0197164D01*
X0199293Y0197707D01*
X0199923Y0198337D01*
X0200466Y0199044D01*
X0200912Y0199816D01*
X0201253Y0200640D01*
X0201484Y0201501D01*
X0201600Y0202385D01*
X0201600Y0202630D01*
X0195000Y0202630D01*
X0195000Y0203030D01*
X0201600Y0203030D01*
X0201600Y0203276D01*
X0201484Y0204160D01*
X0201253Y0205021D01*
X0200912Y0205844D01*
X0200466Y0206616D01*
X0199923Y0207324D01*
X0199717Y0207530D01*
X0287000Y0207530D01*
X0287000Y0061930D01*
X0244137Y0061930D01*
X0243200Y0060993D01*
X0243200Y0018130D01*
X0051400Y0018130D01*
X0051400Y0060993D01*
X0051400Y0043202D02*
X0120630Y0043202D01*
X0120307Y0042954D02*
X0121014Y0043497D01*
X0121786Y0043942D01*
X0122610Y0044283D01*
X0123471Y0044514D01*
X0124354Y0044630D01*
X0124600Y0044630D01*
X0124600Y0038030D01*
X0124600Y0037630D01*
X0125000Y0037630D01*
X0125000Y0031030D01*
X0125246Y0031030D01*
X0126129Y0031147D01*
X0126990Y0031377D01*
X0127814Y0031719D01*
X0128586Y0032164D01*
X0129293Y0032707D01*
X0129923Y0033337D01*
X0130466Y0034044D01*
X0130912Y0034816D01*
X0131253Y0035640D01*
X0131484Y0036501D01*
X0131600Y0037385D01*
X0131600Y0037630D01*
X0125000Y0037630D01*
X0125000Y0038030D01*
X0131600Y0038030D01*
X0131600Y0038276D01*
X0131484Y0039160D01*
X0131253Y0040021D01*
X0130912Y0040844D01*
X0130466Y0041616D01*
X0129923Y0042324D01*
X0129293Y0042954D01*
X0128586Y0043497D01*
X0127814Y0043942D01*
X0126990Y0044283D01*
X0126129Y0044514D01*
X0125246Y0044630D01*
X0125000Y0044630D01*
X0125000Y0038030D01*
X0124600Y0038030D01*
X0118000Y0038030D01*
X0118000Y0038276D01*
X0118116Y0039160D01*
X0118347Y0040021D01*
X0118688Y0040844D01*
X0119134Y0041616D01*
X0119677Y0042324D01*
X0120307Y0042954D01*
X0119127Y0041604D02*
X0051400Y0041604D01*
X0051400Y0040005D02*
X0118343Y0040005D01*
X0118017Y0038407D02*
X0051400Y0038407D01*
X0051400Y0036808D02*
X0118076Y0036808D01*
X0118116Y0036501D02*
X0118347Y0035640D01*
X0118688Y0034816D01*
X0119134Y0034044D01*
X0119677Y0033337D01*
X0120307Y0032707D01*
X0121014Y0032164D01*
X0121786Y0031719D01*
X0122610Y0031377D01*
X0123471Y0031147D01*
X0124354Y0031030D01*
X0124600Y0031030D01*
X0124600Y0037630D01*
X0118000Y0037630D01*
X0118000Y0037385D01*
X0118116Y0036501D01*
X0118525Y0035210D02*
X0051400Y0035210D01*
X0051400Y0033611D02*
X0119466Y0033611D01*
X0121277Y0032013D02*
X0051400Y0032013D01*
X0051400Y0030414D02*
X0243200Y0030414D01*
X0243200Y0028816D02*
X0051400Y0028816D01*
X0051400Y0027217D02*
X0243200Y0027217D01*
X0243200Y0025619D02*
X0051400Y0025619D01*
X0051400Y0024020D02*
X0243200Y0024020D01*
X0243200Y0022421D02*
X0051400Y0022421D01*
X0051400Y0020823D02*
X0243200Y0020823D01*
X0243200Y0019224D02*
X0051400Y0019224D01*
X0007600Y0062384D02*
X0287000Y0062384D01*
X0287000Y0063983D02*
X0007600Y0063983D01*
X0007600Y0065581D02*
X0287000Y0065581D01*
X0287000Y0067180D02*
X0007600Y0067180D01*
X0007600Y0068778D02*
X0012062Y0068778D01*
X0011694Y0068931D02*
X0013385Y0068230D01*
X0021215Y0068230D01*
X0022906Y0068931D01*
X0024200Y0070225D01*
X0024900Y0071915D01*
X0024900Y0073745D01*
X0024200Y0075436D01*
X0022906Y0076730D01*
X0021215Y0077430D01*
X0013385Y0077430D01*
X0011694Y0076730D01*
X0010400Y0075436D01*
X0009700Y0073745D01*
X0009700Y0071915D01*
X0010400Y0070225D01*
X0011694Y0068931D01*
X0010337Y0070377D02*
X0007600Y0070377D01*
X0007600Y0071975D02*
X0009700Y0071975D01*
X0009700Y0073574D02*
X0007600Y0073574D01*
X0007600Y0075172D02*
X0010291Y0075172D01*
X0011793Y0076771D02*
X0007600Y0076771D01*
X0007600Y0078369D02*
X0013049Y0078369D01*
X0013385Y0078230D02*
X0011694Y0078931D01*
X0010400Y0080225D01*
X0009700Y0081915D01*
X0009700Y0083745D01*
X0010400Y0085436D01*
X0011694Y0086730D01*
X0013385Y0087430D01*
X0021215Y0087430D01*
X0022906Y0086730D01*
X0024200Y0085436D01*
X0024900Y0083745D01*
X0024900Y0081915D01*
X0024200Y0080225D01*
X0022906Y0078931D01*
X0021215Y0078230D01*
X0013385Y0078230D01*
X0010657Y0079968D02*
X0007600Y0079968D01*
X0007600Y0081566D02*
X0009845Y0081566D01*
X0009700Y0083165D02*
X0007600Y0083165D01*
X0007600Y0084763D02*
X0010122Y0084763D01*
X0011326Y0086362D02*
X0007600Y0086362D01*
X0007600Y0087960D02*
X0055336Y0087960D01*
X0056935Y0086362D02*
X0023274Y0086362D01*
X0024478Y0084763D02*
X0287000Y0084763D01*
X0287000Y0083165D02*
X0238799Y0083165D01*
X0237534Y0084430D02*
X0232066Y0084430D01*
X0228200Y0080564D01*
X0228200Y0075097D01*
X0232066Y0071230D01*
X0237534Y0071230D01*
X0241400Y0075097D01*
X0241400Y0080564D01*
X0237534Y0084430D01*
X0240398Y0081566D02*
X0287000Y0081566D01*
X0287000Y0079968D02*
X0241400Y0079968D01*
X0241400Y0078369D02*
X0287000Y0078369D01*
X0287000Y0076771D02*
X0241400Y0076771D01*
X0241400Y0075172D02*
X0287000Y0075172D01*
X0287000Y0073574D02*
X0239877Y0073574D01*
X0238279Y0071975D02*
X0287000Y0071975D01*
X0287000Y0070377D02*
X0024263Y0070377D01*
X0024900Y0071975D02*
X0231321Y0071975D01*
X0229723Y0073574D02*
X0024900Y0073574D01*
X0024309Y0075172D02*
X0228200Y0075172D01*
X0228200Y0076771D02*
X0022807Y0076771D01*
X0021550Y0078369D02*
X0228200Y0078369D01*
X0228200Y0079968D02*
X0023943Y0079968D01*
X0024755Y0081566D02*
X0229202Y0081566D01*
X0230801Y0083165D02*
X0024900Y0083165D01*
X0022906Y0088931D02*
X0021215Y0088230D01*
X0013385Y0088230D01*
X0011694Y0088931D01*
X0010400Y0090225D01*
X0009700Y0091915D01*
X0009700Y0093745D01*
X0010400Y0095436D01*
X0011694Y0096730D01*
X0013385Y0097430D01*
X0021215Y0097430D01*
X0022906Y0096730D01*
X0024200Y0095436D01*
X0024900Y0093745D01*
X0024900Y0091915D01*
X0024200Y0090225D01*
X0022906Y0088931D01*
X0023534Y0089559D02*
X0053738Y0089559D01*
X0053200Y0090097D02*
X0057066Y0086230D01*
X0062534Y0086230D01*
X0066400Y0090097D01*
X0066400Y0095564D01*
X0062534Y0099430D01*
X0057066Y0099430D01*
X0053200Y0095564D01*
X0053200Y0090097D01*
X0053200Y0091157D02*
X0024586Y0091157D01*
X0024900Y0092756D02*
X0053200Y0092756D01*
X0053200Y0094354D02*
X0024648Y0094354D01*
X0023683Y0095953D02*
X0053589Y0095953D01*
X0055187Y0097552D02*
X0007600Y0097552D01*
X0007600Y0099150D02*
X0011475Y0099150D01*
X0011694Y0098931D02*
X0013385Y0098230D01*
X0021215Y0098230D01*
X0022906Y0098931D01*
X0024200Y0100225D01*
X0024900Y0101915D01*
X0024900Y0103745D01*
X0024200Y0105436D01*
X0022906Y0106730D01*
X0021215Y0107430D01*
X0013385Y0107430D01*
X0011694Y0106730D01*
X0010400Y0105436D01*
X0009700Y0103745D01*
X0009700Y0101915D01*
X0010400Y0100225D01*
X0011694Y0098931D01*
X0010183Y0100749D02*
X0007600Y0100749D01*
X0007600Y0102347D02*
X0009700Y0102347D01*
X0009783Y0103946D02*
X0007600Y0103946D01*
X0007600Y0105544D02*
X0010508Y0105544D01*
X0012690Y0107143D02*
X0007600Y0107143D01*
X0007600Y0108741D02*
X0287000Y0108741D01*
X0287000Y0107143D02*
X0021910Y0107143D01*
X0024092Y0105544D02*
X0287000Y0105544D01*
X0287000Y0103946D02*
X0237806Y0103946D01*
X0237814Y0103942D02*
X0236990Y0104283D01*
X0236129Y0104514D01*
X0235246Y0104630D01*
X0235000Y0104630D01*
X0235000Y0098030D01*
X0241600Y0098030D01*
X0241600Y0098276D01*
X0241484Y0099160D01*
X0241253Y0100021D01*
X0240912Y0100844D01*
X0240466Y0101616D01*
X0239923Y0102324D01*
X0239293Y0102954D01*
X0238586Y0103497D01*
X0237814Y0103942D01*
X0239900Y0102347D02*
X0287000Y0102347D01*
X0287000Y0100749D02*
X0240952Y0100749D01*
X0241485Y0099150D02*
X0287000Y0099150D01*
X0287000Y0097552D02*
X0241600Y0097552D01*
X0241600Y0097630D02*
X0235000Y0097630D01*
X0235000Y0091030D01*
X0235246Y0091030D01*
X0236129Y0091147D01*
X0236990Y0091377D01*
X0237814Y0091719D01*
X0238586Y0092164D01*
X0239293Y0092707D01*
X0239923Y0093337D01*
X0240466Y0094044D01*
X0240912Y0094816D01*
X0241253Y0095640D01*
X0241484Y0096501D01*
X0241600Y0097385D01*
X0241600Y0097630D01*
X0241337Y0095953D02*
X0287000Y0095953D01*
X0287000Y0094354D02*
X0240645Y0094354D01*
X0239342Y0092756D02*
X0287000Y0092756D01*
X0287000Y0091157D02*
X0236169Y0091157D01*
X0235000Y0091157D02*
X0234600Y0091157D01*
X0234600Y0091030D02*
X0234600Y0097630D01*
X0235000Y0097630D01*
X0235000Y0098030D01*
X0234600Y0098030D01*
X0234600Y0097630D01*
X0228000Y0097630D01*
X0228000Y0097385D01*
X0228116Y0096501D01*
X0228347Y0095640D01*
X0228688Y0094816D01*
X0229134Y0094044D01*
X0229677Y0093337D01*
X0230307Y0092707D01*
X0231014Y0092164D01*
X0231786Y0091719D01*
X0232610Y0091377D01*
X0233471Y0091147D01*
X0234354Y0091030D01*
X0234600Y0091030D01*
X0233431Y0091157D02*
X0086392Y0091157D01*
X0086484Y0091501D02*
X0086600Y0092385D01*
X0086600Y0092630D01*
X0080000Y0092630D01*
X0080000Y0086030D01*
X0080246Y0086030D01*
X0081129Y0086147D01*
X0081990Y0086377D01*
X0082814Y0086719D01*
X0083586Y0087164D01*
X0084293Y0087707D01*
X0084923Y0088337D01*
X0085466Y0089044D01*
X0085912Y0089816D01*
X0086253Y0090640D01*
X0086484Y0091501D01*
X0086600Y0093030D02*
X0086600Y0093276D01*
X0086484Y0094160D01*
X0086253Y0095021D01*
X0085912Y0095844D01*
X0085466Y0096616D01*
X0084923Y0097324D01*
X0084293Y0097954D01*
X0083586Y0098497D01*
X0082814Y0098942D01*
X0081990Y0099283D01*
X0081129Y0099514D01*
X0080246Y0099630D01*
X0080000Y0099630D01*
X0080000Y0093030D01*
X0086600Y0093030D01*
X0086431Y0094354D02*
X0228955Y0094354D01*
X0228263Y0095953D02*
X0085849Y0095953D01*
X0084696Y0097552D02*
X0228000Y0097552D01*
X0228000Y0098030D02*
X0234600Y0098030D01*
X0234600Y0104630D01*
X0234354Y0104630D01*
X0233471Y0104514D01*
X0232610Y0104283D01*
X0231786Y0103942D01*
X0231014Y0103497D01*
X0230307Y0102954D01*
X0229677Y0102324D01*
X0229134Y0101616D01*
X0228688Y0100844D01*
X0228347Y0100021D01*
X0228116Y0099160D01*
X0228000Y0098276D01*
X0228000Y0098030D01*
X0228115Y0099150D02*
X0082312Y0099150D01*
X0080000Y0099150D02*
X0079600Y0099150D01*
X0079600Y0099630D02*
X0079354Y0099630D01*
X0078471Y0099514D01*
X0077610Y0099283D01*
X0076786Y0098942D01*
X0076014Y0098497D01*
X0075307Y0097954D01*
X0074677Y0097324D01*
X0074134Y0096616D01*
X0073688Y0095844D01*
X0073347Y0095021D01*
X0073116Y0094160D01*
X0073000Y0093276D01*
X0073000Y0093030D01*
X0079600Y0093030D01*
X0079600Y0092630D01*
X0080000Y0092630D01*
X0080000Y0093030D01*
X0079600Y0093030D01*
X0079600Y0099630D01*
X0079600Y0097552D02*
X0080000Y0097552D01*
X0080000Y0095953D02*
X0079600Y0095953D01*
X0079600Y0094354D02*
X0080000Y0094354D01*
X0080000Y0092756D02*
X0230258Y0092756D01*
X0234600Y0092756D02*
X0235000Y0092756D01*
X0235000Y0094354D02*
X0234600Y0094354D01*
X0234600Y0095953D02*
X0235000Y0095953D01*
X0235000Y0097552D02*
X0234600Y0097552D01*
X0234600Y0099150D02*
X0235000Y0099150D01*
X0235000Y0100749D02*
X0234600Y0100749D01*
X0234600Y0102347D02*
X0235000Y0102347D01*
X0235000Y0103946D02*
X0234600Y0103946D01*
X0231794Y0103946D02*
X0024817Y0103946D01*
X0024900Y0102347D02*
X0229700Y0102347D01*
X0228648Y0100749D02*
X0024417Y0100749D01*
X0023125Y0099150D02*
X0056786Y0099150D01*
X0062814Y0099150D02*
X0077288Y0099150D01*
X0074904Y0097552D02*
X0064413Y0097552D01*
X0066011Y0095953D02*
X0073751Y0095953D01*
X0073169Y0094354D02*
X0066400Y0094354D01*
X0066400Y0092756D02*
X0079600Y0092756D01*
X0079600Y0092630D02*
X0073000Y0092630D01*
X0073000Y0092385D01*
X0073116Y0091501D01*
X0073347Y0090640D01*
X0073688Y0089816D01*
X0074134Y0089044D01*
X0074677Y0088337D01*
X0075307Y0087707D01*
X0076014Y0087164D01*
X0076786Y0086719D01*
X0077610Y0086377D01*
X0078471Y0086147D01*
X0079354Y0086030D01*
X0079600Y0086030D01*
X0079600Y0092630D01*
X0079600Y0091157D02*
X0080000Y0091157D01*
X0080000Y0089559D02*
X0079600Y0089559D01*
X0079600Y0087960D02*
X0080000Y0087960D01*
X0080000Y0086362D02*
X0079600Y0086362D01*
X0077667Y0086362D02*
X0062665Y0086362D01*
X0064264Y0087960D02*
X0075053Y0087960D01*
X0073837Y0089559D02*
X0065862Y0089559D01*
X0066400Y0091157D02*
X0073208Y0091157D01*
X0081932Y0086362D02*
X0287000Y0086362D01*
X0287000Y0087960D02*
X0084547Y0087960D01*
X0085763Y0089559D02*
X0287000Y0089559D01*
X0287000Y0110340D02*
X0007600Y0110340D01*
X0007600Y0111938D02*
X0287000Y0111938D01*
X0287000Y0113537D02*
X0007600Y0113537D01*
X0007600Y0115135D02*
X0287000Y0115135D01*
X0287000Y0116734D02*
X0007600Y0116734D01*
X0007600Y0118332D02*
X0287000Y0118332D01*
X0287000Y0119931D02*
X0276433Y0119931D01*
X0276086Y0119664D02*
X0276793Y0120207D01*
X0277423Y0120837D01*
X0277966Y0121544D01*
X0278412Y0122316D01*
X0278753Y0123140D01*
X0278984Y0124001D01*
X0279100Y0124885D01*
X0279100Y0125130D01*
X0272500Y0125130D01*
X0272500Y0118530D01*
X0272746Y0118530D01*
X0273629Y0118647D01*
X0274490Y0118877D01*
X0275314Y0119219D01*
X0276086Y0119664D01*
X0277954Y0121529D02*
X0287000Y0121529D01*
X0287000Y0123128D02*
X0278748Y0123128D01*
X0279079Y0124726D02*
X0287000Y0124726D01*
X0287000Y0126325D02*
X0279028Y0126325D01*
X0278984Y0126660D02*
X0279100Y0125776D01*
X0279100Y0125530D01*
X0272500Y0125530D01*
X0272500Y0125130D01*
X0272100Y0125130D01*
X0272100Y0118530D01*
X0271854Y0118530D01*
X0270971Y0118647D01*
X0270110Y0118877D01*
X0269286Y0119219D01*
X0268514Y0119664D01*
X0267807Y0120207D01*
X0267177Y0120837D01*
X0266634Y0121544D01*
X0266188Y0122316D01*
X0265847Y0123140D01*
X0265616Y0124001D01*
X0265500Y0124885D01*
X0265500Y0125130D01*
X0272100Y0125130D01*
X0272100Y0125530D01*
X0265500Y0125530D01*
X0265500Y0125776D01*
X0265616Y0126660D01*
X0265847Y0127521D01*
X0266188Y0128344D01*
X0266634Y0129116D01*
X0267177Y0129824D01*
X0267807Y0130454D01*
X0268514Y0130997D01*
X0269286Y0131442D01*
X0270110Y0131783D01*
X0270971Y0132014D01*
X0271854Y0132130D01*
X0272100Y0132130D01*
X0272100Y0125530D01*
X0272500Y0125530D01*
X0272500Y0132130D01*
X0272746Y0132130D01*
X0273629Y0132014D01*
X0274490Y0131783D01*
X0275314Y0131442D01*
X0276086Y0130997D01*
X0276793Y0130454D01*
X0277423Y0129824D01*
X0277966Y0129116D01*
X0278412Y0128344D01*
X0278753Y0127521D01*
X0278984Y0126660D01*
X0278586Y0127923D02*
X0287000Y0127923D01*
X0287000Y0129522D02*
X0277655Y0129522D01*
X0275872Y0131120D02*
X0287000Y0131120D01*
X0287000Y0132719D02*
X0221171Y0132719D01*
X0221253Y0132521D02*
X0220912Y0133344D01*
X0220466Y0134116D01*
X0219923Y0134824D01*
X0219293Y0135454D01*
X0218586Y0135997D01*
X0217814Y0136442D01*
X0216990Y0136783D01*
X0216129Y0137014D01*
X0215246Y0137130D01*
X0215000Y0137130D01*
X0215000Y0130530D01*
X0221600Y0130530D01*
X0221600Y0130776D01*
X0221484Y0131660D01*
X0221253Y0132521D01*
X0221555Y0131120D02*
X0268728Y0131120D01*
X0266945Y0129522D02*
X0221552Y0129522D01*
X0221600Y0129885D02*
X0221600Y0130130D01*
X0215000Y0130130D01*
X0215000Y0123530D01*
X0215246Y0123530D01*
X0216129Y0123647D01*
X0216990Y0123877D01*
X0217814Y0124219D01*
X0218586Y0124664D01*
X0219293Y0125207D01*
X0219923Y0125837D01*
X0220466Y0126544D01*
X0220912Y0127316D01*
X0221253Y0128140D01*
X0221484Y0129001D01*
X0221600Y0129885D01*
X0221163Y0127923D02*
X0266014Y0127923D01*
X0265572Y0126325D02*
X0220298Y0126325D01*
X0218667Y0124726D02*
X0265521Y0124726D01*
X0265852Y0123128D02*
X0162214Y0123128D01*
X0162423Y0123337D02*
X0162966Y0124044D01*
X0163412Y0124816D01*
X0163753Y0125640D01*
X0163984Y0126501D01*
X0164100Y0127385D01*
X0164100Y0127630D01*
X0157500Y0127630D01*
X0157500Y0121030D01*
X0157746Y0121030D01*
X0158629Y0121147D01*
X0159490Y0121377D01*
X0160314Y0121719D01*
X0161086Y0122164D01*
X0161793Y0122707D01*
X0162423Y0123337D01*
X0163360Y0124726D02*
X0210933Y0124726D01*
X0211014Y0124664D02*
X0211786Y0124219D01*
X0212610Y0123877D01*
X0213471Y0123647D01*
X0214354Y0123530D01*
X0214600Y0123530D01*
X0214600Y0130130D01*
X0215000Y0130130D01*
X0215000Y0130530D01*
X0214600Y0130530D01*
X0214600Y0130130D01*
X0208000Y0130130D01*
X0208000Y0129885D01*
X0208116Y0129001D01*
X0208347Y0128140D01*
X0208688Y0127316D01*
X0209134Y0126544D01*
X0209677Y0125837D01*
X0210307Y0125207D01*
X0211014Y0124664D01*
X0209302Y0126325D02*
X0163936Y0126325D01*
X0164100Y0128030D02*
X0164100Y0128276D01*
X0163984Y0129160D01*
X0163753Y0130021D01*
X0163412Y0130844D01*
X0162966Y0131616D01*
X0162423Y0132324D01*
X0161793Y0132954D01*
X0161086Y0133497D01*
X0160314Y0133942D01*
X0159490Y0134283D01*
X0158629Y0134514D01*
X0157746Y0134630D01*
X0157500Y0134630D01*
X0157500Y0128030D01*
X0164100Y0128030D01*
X0163887Y0129522D02*
X0208048Y0129522D01*
X0208000Y0130530D02*
X0214600Y0130530D01*
X0214600Y0137130D01*
X0214354Y0137130D01*
X0213471Y0137014D01*
X0212610Y0136783D01*
X0211786Y0136442D01*
X0211014Y0135997D01*
X0210307Y0135454D01*
X0209677Y0134824D01*
X0209134Y0134116D01*
X0208688Y0133344D01*
X0208347Y0132521D01*
X0208116Y0131660D01*
X0208000Y0130776D01*
X0208000Y0130530D01*
X0208045Y0131120D02*
X0163253Y0131120D01*
X0162028Y0132719D02*
X0208429Y0132719D01*
X0209288Y0134317D02*
X0159364Y0134317D01*
X0157500Y0134317D02*
X0157100Y0134317D01*
X0157100Y0134630D02*
X0156854Y0134630D01*
X0155971Y0134514D01*
X0155110Y0134283D01*
X0154286Y0133942D01*
X0153514Y0133497D01*
X0152807Y0132954D01*
X0152177Y0132324D01*
X0151634Y0131616D01*
X0151188Y0130844D01*
X0150847Y0130021D01*
X0150616Y0129160D01*
X0150500Y0128276D01*
X0150500Y0128030D01*
X0157100Y0128030D01*
X0157100Y0127630D01*
X0157500Y0127630D01*
X0157500Y0128030D01*
X0157100Y0128030D01*
X0157100Y0134630D01*
X0155236Y0134317D02*
X0105312Y0134317D01*
X0105466Y0134116D02*
X0104923Y0134824D01*
X0104293Y0135454D01*
X0103586Y0135997D01*
X0102814Y0136442D01*
X0101990Y0136783D01*
X0101129Y0137014D01*
X0100246Y0137130D01*
X0100000Y0137130D01*
X0100000Y0130530D01*
X0106600Y0130530D01*
X0106600Y0130776D01*
X0106484Y0131660D01*
X0106253Y0132521D01*
X0105912Y0133344D01*
X0105466Y0134116D01*
X0106171Y0132719D02*
X0152572Y0132719D01*
X0151347Y0131120D02*
X0106555Y0131120D01*
X0106600Y0130130D02*
X0100000Y0130130D01*
X0100000Y0123530D01*
X0100246Y0123530D01*
X0101129Y0123647D01*
X0101990Y0123877D01*
X0102814Y0124219D01*
X0103586Y0124664D01*
X0104293Y0125207D01*
X0104923Y0125837D01*
X0105466Y0126544D01*
X0105912Y0127316D01*
X0106253Y0128140D01*
X0106484Y0129001D01*
X0106600Y0129885D01*
X0106600Y0130130D01*
X0106552Y0129522D02*
X0150713Y0129522D01*
X0150500Y0127630D02*
X0150500Y0127385D01*
X0150616Y0126501D01*
X0150847Y0125640D01*
X0151188Y0124816D01*
X0151634Y0124044D01*
X0152177Y0123337D01*
X0152807Y0122707D01*
X0153514Y0122164D01*
X0154286Y0121719D01*
X0155110Y0121377D01*
X0155971Y0121147D01*
X0156854Y0121030D01*
X0157100Y0121030D01*
X0157100Y0127630D01*
X0150500Y0127630D01*
X0150664Y0126325D02*
X0105298Y0126325D01*
X0106163Y0127923D02*
X0157100Y0127923D01*
X0157500Y0127923D02*
X0208437Y0127923D01*
X0214600Y0127923D02*
X0215000Y0127923D01*
X0215000Y0126325D02*
X0214600Y0126325D01*
X0214600Y0124726D02*
X0215000Y0124726D01*
X0215000Y0129522D02*
X0214600Y0129522D01*
X0214600Y0131120D02*
X0215000Y0131120D01*
X0215000Y0132719D02*
X0214600Y0132719D01*
X0214600Y0134317D02*
X0215000Y0134317D01*
X0215000Y0135916D02*
X0214600Y0135916D01*
X0210909Y0135916D02*
X0103691Y0135916D01*
X0100000Y0135916D02*
X0099600Y0135916D01*
X0099600Y0137130D02*
X0099354Y0137130D01*
X0098471Y0137014D01*
X0097610Y0136783D01*
X0096786Y0136442D01*
X0096014Y0135997D01*
X0095307Y0135454D01*
X0094677Y0134824D01*
X0094134Y0134116D01*
X0093688Y0133344D01*
X0093347Y0132521D01*
X0093116Y0131660D01*
X0093000Y0130776D01*
X0093000Y0130530D01*
X0099600Y0130530D01*
X0099600Y0130130D01*
X0100000Y0130130D01*
X0100000Y0130530D01*
X0099600Y0130530D01*
X0099600Y0137130D01*
X0099600Y0134317D02*
X0100000Y0134317D01*
X0100000Y0132719D02*
X0099600Y0132719D01*
X0099600Y0131120D02*
X0100000Y0131120D01*
X0099600Y0130130D02*
X0093000Y0130130D01*
X0093000Y0129885D01*
X0093116Y0129001D01*
X0093347Y0128140D01*
X0093688Y0127316D01*
X0094134Y0126544D01*
X0094677Y0125837D01*
X0095307Y0125207D01*
X0096014Y0124664D01*
X0096786Y0124219D01*
X0097610Y0123877D01*
X0098471Y0123647D01*
X0099354Y0123530D01*
X0099600Y0123530D01*
X0099600Y0130130D01*
X0099600Y0129522D02*
X0100000Y0129522D01*
X0100000Y0127923D02*
X0099600Y0127923D01*
X0099600Y0126325D02*
X0100000Y0126325D01*
X0100000Y0124726D02*
X0099600Y0124726D01*
X0103667Y0124726D02*
X0151240Y0124726D01*
X0152386Y0123128D02*
X0038900Y0123128D01*
X0038900Y0122597D02*
X0035034Y0118730D01*
X0029566Y0118730D01*
X0025700Y0122597D01*
X0025700Y0128064D01*
X0029566Y0131930D01*
X0035034Y0131930D01*
X0038900Y0128064D01*
X0038900Y0122597D01*
X0037833Y0121529D02*
X0154743Y0121529D01*
X0157100Y0121529D02*
X0157500Y0121529D01*
X0157500Y0123128D02*
X0157100Y0123128D01*
X0157100Y0124726D02*
X0157500Y0124726D01*
X0157500Y0126325D02*
X0157100Y0126325D01*
X0157100Y0129522D02*
X0157500Y0129522D01*
X0157500Y0131120D02*
X0157100Y0131120D01*
X0157100Y0132719D02*
X0157500Y0132719D01*
X0160034Y0141230D02*
X0154566Y0141230D01*
X0150700Y0145097D01*
X0150700Y0150564D01*
X0154566Y0154430D01*
X0160034Y0154430D01*
X0163900Y0150564D01*
X0163900Y0145097D01*
X0160034Y0141230D01*
X0161113Y0142310D02*
X0265987Y0142310D01*
X0265700Y0142597D02*
X0269566Y0138730D01*
X0275034Y0138730D01*
X0278900Y0142597D01*
X0278900Y0148064D01*
X0275034Y0151930D01*
X0269566Y0151930D01*
X0265700Y0148064D01*
X0265700Y0142597D01*
X0265700Y0143908D02*
X0217712Y0143908D01*
X0217534Y0143730D02*
X0221400Y0147597D01*
X0221400Y0153064D01*
X0217534Y0156930D01*
X0212066Y0156930D01*
X0208200Y0153064D01*
X0208200Y0147597D01*
X0212066Y0143730D01*
X0217534Y0143730D01*
X0219310Y0145507D02*
X0265700Y0145507D01*
X0265700Y0147105D02*
X0220909Y0147105D01*
X0221400Y0148704D02*
X0266340Y0148704D01*
X0267938Y0150302D02*
X0221400Y0150302D01*
X0221400Y0151901D02*
X0269537Y0151901D01*
X0275063Y0151901D02*
X0287000Y0151901D01*
X0287000Y0153499D02*
X0220965Y0153499D01*
X0219366Y0155098D02*
X0287000Y0155098D01*
X0287000Y0156696D02*
X0217768Y0156696D01*
X0211832Y0156696D02*
X0102768Y0156696D01*
X0102534Y0156930D02*
X0097066Y0156930D01*
X0093200Y0153064D01*
X0093200Y0147597D01*
X0097066Y0143730D01*
X0102534Y0143730D01*
X0106400Y0147597D01*
X0106400Y0153064D01*
X0102534Y0156930D01*
X0104366Y0155098D02*
X0210234Y0155098D01*
X0208635Y0153499D02*
X0160965Y0153499D01*
X0162563Y0151901D02*
X0208200Y0151901D01*
X0208200Y0150302D02*
X0163900Y0150302D01*
X0163900Y0148704D02*
X0208200Y0148704D01*
X0208691Y0147105D02*
X0163900Y0147105D01*
X0163900Y0145507D02*
X0210290Y0145507D01*
X0211888Y0143908D02*
X0162712Y0143908D01*
X0153487Y0142310D02*
X0038408Y0142310D01*
X0038412Y0142316D02*
X0038753Y0143140D01*
X0038984Y0144001D01*
X0039100Y0144885D01*
X0039100Y0145130D01*
X0032500Y0145130D01*
X0032500Y0138530D01*
X0032746Y0138530D01*
X0033629Y0138647D01*
X0034490Y0138877D01*
X0035314Y0139219D01*
X0036086Y0139664D01*
X0036793Y0140207D01*
X0037423Y0140837D01*
X0037966Y0141544D01*
X0038412Y0142316D01*
X0038959Y0143908D02*
X0096888Y0143908D01*
X0095290Y0145507D02*
X0032500Y0145507D01*
X0032500Y0145530D02*
X0039100Y0145530D01*
X0039100Y0145776D01*
X0038984Y0146660D01*
X0038753Y0147521D01*
X0038412Y0148344D01*
X0037966Y0149116D01*
X0037423Y0149824D01*
X0036793Y0150454D01*
X0036086Y0150997D01*
X0035314Y0151442D01*
X0034490Y0151783D01*
X0033629Y0152014D01*
X0032746Y0152130D01*
X0032500Y0152130D01*
X0032500Y0145530D01*
X0032500Y0145130D01*
X0032100Y0145130D01*
X0032100Y0138530D01*
X0031854Y0138530D01*
X0030971Y0138647D01*
X0030110Y0138877D01*
X0029286Y0139219D01*
X0028514Y0139664D01*
X0027807Y0140207D01*
X0027177Y0140837D01*
X0026634Y0141544D01*
X0026188Y0142316D01*
X0025847Y0143140D01*
X0025616Y0144001D01*
X0025500Y0144885D01*
X0025500Y0145130D01*
X0032100Y0145130D01*
X0032100Y0145530D01*
X0025500Y0145530D01*
X0025500Y0145776D01*
X0025616Y0146660D01*
X0025847Y0147521D01*
X0026188Y0148344D01*
X0026634Y0149116D01*
X0027177Y0149824D01*
X0027807Y0150454D01*
X0028514Y0150997D01*
X0029286Y0151442D01*
X0030110Y0151783D01*
X0030971Y0152014D01*
X0031854Y0152130D01*
X0032100Y0152130D01*
X0032100Y0145530D01*
X0032500Y0145530D01*
X0032100Y0145507D02*
X0007600Y0145507D01*
X0007600Y0147105D02*
X0025736Y0147105D01*
X0026396Y0148704D02*
X0007600Y0148704D01*
X0007600Y0150302D02*
X0027655Y0150302D01*
X0030548Y0151901D02*
X0007600Y0151901D01*
X0007600Y0153499D02*
X0093635Y0153499D01*
X0093200Y0151901D02*
X0034052Y0151901D01*
X0032500Y0151901D02*
X0032100Y0151901D01*
X0032100Y0150302D02*
X0032500Y0150302D01*
X0032500Y0148704D02*
X0032100Y0148704D01*
X0032100Y0147105D02*
X0032500Y0147105D01*
X0032500Y0143908D02*
X0032100Y0143908D01*
X0032100Y0142310D02*
X0032500Y0142310D01*
X0032500Y0140711D02*
X0032100Y0140711D01*
X0032100Y0139113D02*
X0032500Y0139113D01*
X0035059Y0139113D02*
X0269184Y0139113D01*
X0267585Y0140711D02*
X0037298Y0140711D01*
X0038864Y0147105D02*
X0093691Y0147105D01*
X0093200Y0148704D02*
X0038204Y0148704D01*
X0036945Y0150302D02*
X0093200Y0150302D01*
X0095234Y0155098D02*
X0007600Y0155098D01*
X0007600Y0156696D02*
X0096832Y0156696D01*
X0105965Y0153499D02*
X0153635Y0153499D01*
X0152037Y0151901D02*
X0106400Y0151901D01*
X0106400Y0150302D02*
X0150700Y0150302D01*
X0150700Y0148704D02*
X0106400Y0148704D01*
X0105909Y0147105D02*
X0150700Y0147105D01*
X0150700Y0145507D02*
X0104310Y0145507D01*
X0102712Y0143908D02*
X0151888Y0143908D01*
X0159857Y0121529D02*
X0266646Y0121529D01*
X0268167Y0119931D02*
X0036234Y0119931D01*
X0038900Y0124726D02*
X0095933Y0124726D01*
X0094302Y0126325D02*
X0038900Y0126325D01*
X0038900Y0127923D02*
X0093437Y0127923D01*
X0093048Y0129522D02*
X0037442Y0129522D01*
X0035844Y0131120D02*
X0093045Y0131120D01*
X0093429Y0132719D02*
X0007600Y0132719D01*
X0007600Y0134317D02*
X0094288Y0134317D01*
X0095909Y0135916D02*
X0007600Y0135916D01*
X0007600Y0137514D02*
X0287000Y0137514D01*
X0287000Y0135916D02*
X0218691Y0135916D01*
X0220312Y0134317D02*
X0287000Y0134317D01*
X0287000Y0139113D02*
X0275416Y0139113D01*
X0277015Y0140711D02*
X0287000Y0140711D01*
X0287000Y0142310D02*
X0278613Y0142310D01*
X0278900Y0143908D02*
X0287000Y0143908D01*
X0287000Y0145507D02*
X0278900Y0145507D01*
X0278900Y0147105D02*
X0287000Y0147105D01*
X0287000Y0148704D02*
X0278260Y0148704D01*
X0276662Y0150302D02*
X0287000Y0150302D01*
X0287000Y0158295D02*
X0007600Y0158295D01*
X0007600Y0159893D02*
X0287000Y0159893D01*
X0287000Y0161492D02*
X0007600Y0161492D01*
X0007600Y0163090D02*
X0287000Y0163090D01*
X0287000Y0164689D02*
X0007600Y0164689D01*
X0007600Y0166288D02*
X0287000Y0166288D01*
X0287000Y0167886D02*
X0007600Y0167886D01*
X0007600Y0169485D02*
X0287000Y0169485D01*
X0287000Y0171083D02*
X0007600Y0171083D01*
X0007600Y0172682D02*
X0287000Y0172682D01*
X0287000Y0174280D02*
X0007600Y0174280D01*
X0007600Y0175879D02*
X0287000Y0175879D01*
X0287000Y0177477D02*
X0198780Y0177477D01*
X0197534Y0176230D02*
X0201400Y0180097D01*
X0201400Y0185564D01*
X0197534Y0189430D01*
X0192066Y0189430D01*
X0188200Y0185564D01*
X0188200Y0180097D01*
X0192066Y0176230D01*
X0197534Y0176230D01*
X0200379Y0179076D02*
X0287000Y0179076D01*
X0287000Y0180674D02*
X0201400Y0180674D01*
X0201400Y0182273D02*
X0287000Y0182273D01*
X0287000Y0183871D02*
X0201400Y0183871D01*
X0201400Y0185470D02*
X0287000Y0185470D01*
X0287000Y0187068D02*
X0199896Y0187068D01*
X0198298Y0188667D02*
X0287000Y0188667D01*
X0287000Y0190265D02*
X0007600Y0190265D01*
X0007600Y0188667D02*
X0076302Y0188667D01*
X0077066Y0189430D02*
X0073200Y0185564D01*
X0073200Y0180097D01*
X0077066Y0176230D01*
X0082534Y0176230D01*
X0086400Y0180097D01*
X0086400Y0185564D01*
X0082534Y0189430D01*
X0077066Y0189430D01*
X0074704Y0187068D02*
X0007600Y0187068D01*
X0007600Y0185470D02*
X0073200Y0185470D01*
X0073200Y0183871D02*
X0007600Y0183871D01*
X0007600Y0182273D02*
X0073200Y0182273D01*
X0073200Y0180674D02*
X0007600Y0180674D01*
X0007600Y0179076D02*
X0074221Y0179076D01*
X0075820Y0177477D02*
X0007600Y0177477D01*
X0007600Y0191864D02*
X0287000Y0191864D01*
X0287000Y0193462D02*
X0007600Y0193462D01*
X0007600Y0195061D02*
X0287000Y0195061D01*
X0287000Y0196659D02*
X0197671Y0196659D01*
X0195000Y0196659D02*
X0194600Y0196659D01*
X0194600Y0196030D02*
X0194600Y0202630D01*
X0188000Y0202630D01*
X0188000Y0202385D01*
X0188116Y0201501D01*
X0188347Y0200640D01*
X0188688Y0199816D01*
X0189134Y0199044D01*
X0189677Y0198337D01*
X0190307Y0197707D01*
X0191014Y0197164D01*
X0191786Y0196719D01*
X0192610Y0196377D01*
X0193471Y0196147D01*
X0194354Y0196030D01*
X0194600Y0196030D01*
X0194600Y0198258D02*
X0195000Y0198258D01*
X0195000Y0199856D02*
X0194600Y0199856D01*
X0194600Y0201455D02*
X0195000Y0201455D01*
X0189756Y0198258D02*
X0142344Y0198258D01*
X0143428Y0199856D02*
X0188672Y0199856D01*
X0188129Y0201455D02*
X0143971Y0201455D01*
X0144100Y0203053D02*
X0188000Y0203053D01*
X0188248Y0204652D02*
X0143852Y0204652D01*
X0143177Y0206250D02*
X0188923Y0206250D01*
X0200677Y0206250D02*
X0287000Y0206250D01*
X0287000Y0204652D02*
X0201352Y0204652D01*
X0201600Y0203053D02*
X0287000Y0203053D01*
X0287000Y0201455D02*
X0201471Y0201455D01*
X0200928Y0199856D02*
X0287000Y0199856D01*
X0287000Y0198258D02*
X0199844Y0198258D01*
X0191929Y0196659D02*
X0140171Y0196659D01*
X0137500Y0196659D02*
X0137100Y0196659D01*
X0137100Y0196030D02*
X0137100Y0202630D01*
X0130500Y0202630D01*
X0130500Y0202385D01*
X0130616Y0201501D01*
X0130847Y0200640D01*
X0131188Y0199816D01*
X0131634Y0199044D01*
X0132177Y0198337D01*
X0132807Y0197707D01*
X0133514Y0197164D01*
X0134286Y0196719D01*
X0135110Y0196377D01*
X0135971Y0196147D01*
X0136854Y0196030D01*
X0137100Y0196030D01*
X0137100Y0198258D02*
X0137500Y0198258D01*
X0137500Y0199856D02*
X0137100Y0199856D01*
X0137100Y0201455D02*
X0137500Y0201455D01*
X0134429Y0196659D02*
X0082671Y0196659D01*
X0080000Y0196659D02*
X0079600Y0196659D01*
X0079600Y0196030D02*
X0079600Y0202630D01*
X0073000Y0202630D01*
X0073000Y0202385D01*
X0073116Y0201501D01*
X0073347Y0200640D01*
X0073688Y0199816D01*
X0074134Y0199044D01*
X0074677Y0198337D01*
X0075307Y0197707D01*
X0076014Y0197164D01*
X0076786Y0196719D01*
X0077610Y0196377D01*
X0078471Y0196147D01*
X0079354Y0196030D01*
X0079600Y0196030D01*
X0079600Y0198258D02*
X0080000Y0198258D01*
X0080000Y0199856D02*
X0079600Y0199856D01*
X0079600Y0201455D02*
X0080000Y0201455D01*
X0076929Y0196659D02*
X0007600Y0196659D01*
X0007600Y0198258D02*
X0074756Y0198258D01*
X0073672Y0199856D02*
X0007600Y0199856D01*
X0007600Y0201455D02*
X0073129Y0201455D01*
X0073000Y0203053D02*
X0007600Y0203053D01*
X0007600Y0204652D02*
X0073248Y0204652D01*
X0073923Y0206250D02*
X0007600Y0206250D01*
X0083298Y0188667D02*
X0133802Y0188667D01*
X0134566Y0189430D02*
X0130700Y0185564D01*
X0130700Y0180097D01*
X0134566Y0176230D01*
X0140034Y0176230D01*
X0143900Y0180097D01*
X0143900Y0185564D01*
X0140034Y0189430D01*
X0134566Y0189430D01*
X0132204Y0187068D02*
X0084896Y0187068D01*
X0086400Y0185470D02*
X0130700Y0185470D01*
X0130700Y0183871D02*
X0086400Y0183871D01*
X0086400Y0182273D02*
X0130700Y0182273D01*
X0130700Y0180674D02*
X0086400Y0180674D01*
X0085379Y0179076D02*
X0131721Y0179076D01*
X0133320Y0177477D02*
X0083780Y0177477D01*
X0084844Y0198258D02*
X0132256Y0198258D01*
X0131172Y0199856D02*
X0085928Y0199856D01*
X0086471Y0201455D02*
X0130629Y0201455D01*
X0130500Y0203053D02*
X0086600Y0203053D01*
X0086352Y0204652D02*
X0130748Y0204652D01*
X0131423Y0206250D02*
X0085677Y0206250D01*
X0140798Y0188667D02*
X0191302Y0188667D01*
X0189704Y0187068D02*
X0142396Y0187068D01*
X0143900Y0185470D02*
X0188200Y0185470D01*
X0188200Y0183871D02*
X0143900Y0183871D01*
X0143900Y0182273D02*
X0188200Y0182273D01*
X0188200Y0180674D02*
X0143900Y0180674D01*
X0142879Y0179076D02*
X0189221Y0179076D01*
X0190820Y0177477D02*
X0141280Y0177477D01*
X0029541Y0139113D02*
X0007600Y0139113D01*
X0007600Y0140711D02*
X0027302Y0140711D01*
X0026192Y0142310D02*
X0007600Y0142310D01*
X0007600Y0143908D02*
X0025641Y0143908D01*
X0028756Y0131120D02*
X0007600Y0131120D01*
X0007600Y0129522D02*
X0027158Y0129522D01*
X0025700Y0127923D02*
X0007600Y0127923D01*
X0007600Y0126325D02*
X0025700Y0126325D01*
X0025700Y0124726D02*
X0007600Y0124726D01*
X0007600Y0123128D02*
X0025700Y0123128D01*
X0026767Y0121529D02*
X0007600Y0121529D01*
X0007600Y0119931D02*
X0028366Y0119931D01*
X0010917Y0095953D02*
X0007600Y0095953D01*
X0007600Y0094354D02*
X0009952Y0094354D01*
X0009700Y0092756D02*
X0007600Y0092756D01*
X0007600Y0091157D02*
X0010014Y0091157D01*
X0011066Y0089559D02*
X0007600Y0089559D01*
X0022538Y0068778D02*
X0287000Y0068778D01*
X0243200Y0036808D02*
X0221400Y0036808D01*
X0221400Y0035210D02*
X0243200Y0035210D01*
X0243200Y0033611D02*
X0219914Y0033611D01*
X0218316Y0032013D02*
X0243200Y0032013D01*
X0211284Y0032013D02*
X0198323Y0032013D01*
X0198586Y0032164D02*
X0199293Y0032707D01*
X0199923Y0033337D01*
X0200466Y0034044D01*
X0200912Y0034816D01*
X0201253Y0035640D01*
X0201484Y0036501D01*
X0201600Y0037385D01*
X0201600Y0037630D01*
X0195000Y0037630D01*
X0195000Y0031030D01*
X0195246Y0031030D01*
X0196129Y0031147D01*
X0196990Y0031377D01*
X0197814Y0031719D01*
X0198586Y0032164D01*
X0200134Y0033611D02*
X0209686Y0033611D01*
X0208200Y0035210D02*
X0201075Y0035210D01*
X0201524Y0036808D02*
X0208200Y0036808D01*
X0208200Y0038407D02*
X0201583Y0038407D01*
X0201600Y0038276D02*
X0201484Y0039160D01*
X0201253Y0040021D01*
X0200912Y0040844D01*
X0200466Y0041616D01*
X0199923Y0042324D01*
X0199293Y0042954D01*
X0198586Y0043497D01*
X0197814Y0043942D01*
X0196990Y0044283D01*
X0196129Y0044514D01*
X0195246Y0044630D01*
X0195000Y0044630D01*
X0195000Y0038030D01*
X0201600Y0038030D01*
X0201600Y0038276D01*
X0201257Y0040005D02*
X0208200Y0040005D01*
X0209239Y0041604D02*
X0200473Y0041604D01*
X0198970Y0043202D02*
X0210838Y0043202D01*
X0195000Y0043202D02*
X0194600Y0043202D01*
X0194600Y0044630D02*
X0194354Y0044630D01*
X0193471Y0044514D01*
X0192610Y0044283D01*
X0191786Y0043942D01*
X0191014Y0043497D01*
X0190307Y0042954D01*
X0189677Y0042324D01*
X0189134Y0041616D01*
X0188688Y0040844D01*
X0188347Y0040021D01*
X0188116Y0039160D01*
X0188000Y0038276D01*
X0188000Y0038030D01*
X0194600Y0038030D01*
X0194600Y0037630D01*
X0195000Y0037630D01*
X0195000Y0038030D01*
X0194600Y0038030D01*
X0194600Y0044630D01*
X0190630Y0043202D02*
X0148762Y0043202D01*
X0147534Y0044430D02*
X0142066Y0044430D01*
X0138200Y0040564D01*
X0138200Y0035097D01*
X0142066Y0031230D01*
X0147534Y0031230D01*
X0151400Y0035097D01*
X0151400Y0040564D01*
X0147534Y0044430D01*
X0150361Y0041604D02*
X0189127Y0041604D01*
X0188343Y0040005D02*
X0151400Y0040005D01*
X0151400Y0038407D02*
X0188017Y0038407D01*
X0188000Y0037630D02*
X0188000Y0037385D01*
X0188116Y0036501D01*
X0188347Y0035640D01*
X0188688Y0034816D01*
X0189134Y0034044D01*
X0189677Y0033337D01*
X0190307Y0032707D01*
X0191014Y0032164D01*
X0191786Y0031719D01*
X0192610Y0031377D01*
X0193471Y0031147D01*
X0194354Y0031030D01*
X0194600Y0031030D01*
X0194600Y0037630D01*
X0188000Y0037630D01*
X0188076Y0036808D02*
X0151400Y0036808D01*
X0151400Y0035210D02*
X0188525Y0035210D01*
X0189466Y0033611D02*
X0149914Y0033611D01*
X0148316Y0032013D02*
X0191277Y0032013D01*
X0194600Y0032013D02*
X0195000Y0032013D01*
X0195000Y0033611D02*
X0194600Y0033611D01*
X0194600Y0035210D02*
X0195000Y0035210D01*
X0195000Y0036808D02*
X0194600Y0036808D01*
X0194600Y0038407D02*
X0195000Y0038407D01*
X0195000Y0040005D02*
X0194600Y0040005D01*
X0194600Y0041604D02*
X0195000Y0041604D01*
X0140838Y0043202D02*
X0128970Y0043202D01*
X0130473Y0041604D02*
X0139239Y0041604D01*
X0138200Y0040005D02*
X0131257Y0040005D01*
X0131583Y0038407D02*
X0138200Y0038407D01*
X0138200Y0036808D02*
X0131524Y0036808D01*
X0131075Y0035210D02*
X0138200Y0035210D01*
X0139686Y0033611D02*
X0130134Y0033611D01*
X0128323Y0032013D02*
X0141284Y0032013D01*
X0125000Y0032013D02*
X0124600Y0032013D01*
X0124600Y0033611D02*
X0125000Y0033611D01*
X0125000Y0035210D02*
X0124600Y0035210D01*
X0124600Y0036808D02*
X0125000Y0036808D01*
X0125000Y0038407D02*
X0124600Y0038407D01*
X0124600Y0040005D02*
X0125000Y0040005D01*
X0125000Y0041604D02*
X0124600Y0041604D01*
X0124600Y0043202D02*
X0125000Y0043202D01*
X0272100Y0119931D02*
X0272500Y0119931D01*
X0272500Y0121529D02*
X0272100Y0121529D01*
X0272100Y0123128D02*
X0272500Y0123128D01*
X0272500Y0124726D02*
X0272100Y0124726D01*
X0272100Y0126325D02*
X0272500Y0126325D01*
X0272500Y0127923D02*
X0272100Y0127923D01*
X0272100Y0129522D02*
X0272500Y0129522D01*
X0272500Y0131120D02*
X0272100Y0131120D01*
M02*
