G75*
%MOIN*%
%OFA0B0*%
%FSLAX25Y25*%
%IPPOS*%
%LPD*%
%AMOC8*
5,1,8,0,0,1.08239X$1,22.5*
%
%ADD10R,0.06312X0.06312*%
%ADD11R,0.05131X0.04737*%
%ADD12C,0.10800*%
%ADD13OC8,0.10800*%
%ADD14R,0.13398X0.04343*%
%ADD15R,0.32887X0.43320*%
%ADD16C,0.06800*%
%ADD17R,0.45800X0.45800*%
D10*
X0052320Y0060330D03*
X0067280Y0060330D03*
D11*
G36*
X0039805Y0066976D02*
X0036178Y0070603D01*
X0039527Y0073952D01*
X0043154Y0070325D01*
X0039805Y0066976D01*
G37*
G36*
X0035073Y0071709D02*
X0031446Y0075336D01*
X0034795Y0078685D01*
X0038422Y0075058D01*
X0035073Y0071709D01*
G37*
D12*
X0079800Y0092830D03*
X0099800Y0130330D03*
X0157300Y0127830D03*
X0214800Y0130330D03*
X0234800Y0097830D03*
X0272300Y0125330D03*
X0194800Y0202830D03*
X0137300Y0202830D03*
X0079800Y0202830D03*
X0032300Y0145330D03*
X0124800Y0037830D03*
X0194800Y0037830D03*
D13*
X0214800Y0037830D03*
X0234800Y0077830D03*
X0144800Y0037830D03*
X0059800Y0092830D03*
X0032300Y0125330D03*
X0099800Y0150330D03*
X0079800Y0182830D03*
X0137300Y0182830D03*
X0157300Y0147830D03*
X0194800Y0182830D03*
X0214800Y0150330D03*
X0272300Y0145330D03*
D14*
X0126473Y0100330D03*
X0126473Y0095330D03*
X0126473Y0090330D03*
X0126473Y0080330D03*
X0126473Y0075330D03*
X0126473Y0070330D03*
D15*
X0168442Y0085330D03*
D16*
X0020300Y0082830D02*
X0014300Y0082830D01*
X0014300Y0092830D02*
X0020300Y0092830D01*
X0020300Y0102830D02*
X0014300Y0102830D01*
X0014300Y0072830D02*
X0020300Y0072830D01*
D17*
X0027300Y0037830D03*
X0027300Y0187830D03*
X0267300Y0187830D03*
X0267300Y0037830D03*
M02*
