G75*
%MOIN*%
%OFA0B0*%
%FSLAX25Y25*%
%IPPOS*%
%LPD*%
%AMOC8*
5,1,8,0,0,1.08239X$1,22.5*
%
%ADD10C,0.00600*%
%ADD11R,0.05600X0.00200*%
%ADD12R,0.04800X0.00200*%
%ADD13R,0.10000X0.00200*%
%ADD14R,0.08800X0.00200*%
%ADD15R,0.13000X0.00200*%
%ADD16R,0.11200X0.00200*%
%ADD17R,0.15000X0.00200*%
%ADD18R,0.13200X0.00200*%
%ADD19R,0.17000X0.00200*%
%ADD20R,0.18800X0.00200*%
%ADD21R,0.16400X0.00200*%
%ADD22R,0.14800X0.00200*%
%ADD23R,0.20000X0.00200*%
%ADD24R,0.17800X0.00200*%
%ADD25R,0.21600X0.00200*%
%ADD26R,0.19000X0.00200*%
%ADD27R,0.22800X0.00200*%
%ADD28R,0.20200X0.00200*%
%ADD29R,0.24000X0.00200*%
%ADD30R,0.21400X0.00200*%
%ADD31R,0.25000X0.00200*%
%ADD32R,0.22200X0.00200*%
%ADD33R,0.26000X0.00200*%
%ADD34R,0.23400X0.00200*%
%ADD35R,0.27000X0.00200*%
%ADD36R,0.24200X0.00200*%
%ADD37R,0.27800X0.00200*%
%ADD38R,0.28600X0.00200*%
%ADD39R,0.25800X0.00200*%
%ADD40R,0.29400X0.00200*%
%ADD41R,0.26600X0.00200*%
%ADD42R,0.30200X0.00200*%
%ADD43R,0.27400X0.00200*%
%ADD44R,0.31000X0.00200*%
%ADD45R,0.28200X0.00200*%
%ADD46R,0.31600X0.00200*%
%ADD47R,0.28800X0.00200*%
%ADD48R,0.32200X0.00200*%
%ADD49R,0.33000X0.00200*%
%ADD50R,0.33600X0.00200*%
%ADD51R,0.30600X0.00200*%
%ADD52R,0.34200X0.00200*%
%ADD53R,0.31400X0.00200*%
%ADD54R,0.34600X0.00200*%
%ADD55R,0.31800X0.00200*%
%ADD56R,0.35200X0.00200*%
%ADD57R,0.32400X0.00200*%
%ADD58R,0.35800X0.00200*%
%ADD59R,0.36200X0.00200*%
%ADD60R,0.36600X0.00200*%
%ADD61R,0.34000X0.00200*%
%ADD62R,0.37200X0.00200*%
%ADD63R,0.34400X0.00200*%
%ADD64R,0.37600X0.00200*%
%ADD65R,0.35000X0.00200*%
%ADD66R,0.38000X0.00200*%
%ADD67R,0.35600X0.00200*%
%ADD68R,0.38400X0.00200*%
%ADD69R,0.36000X0.00200*%
%ADD70R,0.38800X0.00200*%
%ADD71R,0.36400X0.00200*%
%ADD72R,0.39200X0.00200*%
%ADD73R,0.36800X0.00200*%
%ADD74R,0.39600X0.00200*%
%ADD75R,0.40000X0.00200*%
%ADD76R,0.40400X0.00200*%
%ADD77R,0.40600X0.00200*%
%ADD78R,0.41000X0.00200*%
%ADD79R,0.41200X0.00200*%
%ADD80R,0.41600X0.00200*%
%ADD81R,0.42000X0.00200*%
%ADD82R,0.42200X0.00200*%
%ADD83R,0.42400X0.00200*%
%ADD84R,0.42800X0.00200*%
%ADD85R,0.43000X0.00200*%
%ADD86R,0.41400X0.00200*%
%ADD87R,0.43200X0.00200*%
%ADD88R,0.41800X0.00200*%
%ADD89R,0.43600X0.00200*%
%ADD90R,0.44000X0.00200*%
%ADD91R,0.42600X0.00200*%
%ADD92R,0.44200X0.00200*%
%ADD93R,0.44400X0.00200*%
%ADD94R,0.44600X0.00200*%
%ADD95R,0.44800X0.00200*%
%ADD96R,0.43800X0.00200*%
%ADD97R,0.45000X0.00200*%
%ADD98R,0.45200X0.00200*%
%ADD99R,0.45400X0.00200*%
%ADD100R,0.20400X0.00200*%
%ADD101R,0.19600X0.00200*%
%ADD102R,0.19200X0.00200*%
%ADD103R,0.18600X0.00200*%
%ADD104R,0.18200X0.00200*%
%ADD105R,0.17400X0.00200*%
%ADD106R,0.45600X0.00200*%
%ADD107R,0.45800X0.00200*%
%ADD108R,0.16600X0.00200*%
%ADD109R,0.46000X0.00200*%
%ADD110R,0.20800X0.00200*%
%ADD111R,0.16000X0.00200*%
%ADD112R,0.15800X0.00200*%
%ADD113R,0.19400X0.00200*%
%ADD114R,0.15600X0.00200*%
%ADD115R,0.15400X0.00200*%
%ADD116R,0.18400X0.00200*%
%ADD117R,0.15200X0.00200*%
%ADD118R,0.18000X0.00200*%
%ADD119R,0.17600X0.00200*%
%ADD120R,0.17200X0.00200*%
%ADD121R,0.14600X0.00200*%
%ADD122R,0.16800X0.00200*%
%ADD123R,0.16200X0.00200*%
%ADD124R,0.14400X0.00200*%
%ADD125R,0.21200X0.00200*%
%ADD126R,0.22000X0.00200*%
%ADD127R,0.22600X0.00200*%
%ADD128R,0.23200X0.00200*%
%ADD129R,0.24800X0.00200*%
%ADD130R,0.25400X0.00200*%
%ADD131R,0.26200X0.00200*%
%ADD132R,0.30000X0.00200*%
%ADD133R,0.32000X0.00200*%
%ADD134R,0.32600X0.00200*%
%ADD135R,0.33200X0.00200*%
%ADD136R,0.34800X0.00200*%
%ADD137R,0.35400X0.00200*%
%ADD138R,0.33800X0.00200*%
%ADD139R,0.33400X0.00200*%
%ADD140R,0.32800X0.00200*%
%ADD141R,0.30400X0.00200*%
%ADD142R,0.29200X0.00200*%
%ADD143R,0.28000X0.00200*%
%ADD144R,0.25200X0.00200*%
%ADD145R,0.24400X0.00200*%
%ADD146R,0.23800X0.00200*%
%ADD147R,0.23000X0.00200*%
%ADD148R,0.14200X0.00200*%
%ADD149R,0.06400X0.00200*%
%ADD150R,0.05800X0.00200*%
%ADD151R,0.05400X0.00200*%
%ADD152R,0.05200X0.00200*%
%ADD153R,0.05000X0.00200*%
%ADD154R,0.04600X0.00200*%
%ADD155R,0.01400X0.00200*%
%ADD156R,0.04400X0.00200*%
%ADD157R,0.02800X0.00200*%
%ADD158R,0.04200X0.00200*%
%ADD159R,0.03200X0.00200*%
%ADD160R,0.04000X0.00200*%
%ADD161R,0.03800X0.00200*%
%ADD162R,0.03600X0.00200*%
%ADD163R,0.02000X0.00200*%
%ADD164R,0.01600X0.00200*%
%ADD165R,0.01800X0.00200*%
%ADD166R,0.03400X0.00200*%
%ADD167R,0.46400X0.00200*%
%ADD168R,0.46200X0.00200*%
%ADD169R,0.01200X0.00200*%
%ADD170R,0.40800X0.00200*%
%ADD171R,0.40200X0.00200*%
%ADD172R,0.02400X0.00200*%
%ADD173R,0.39800X0.00200*%
%ADD174R,0.39400X0.00200*%
%ADD175R,0.38600X0.00200*%
%ADD176R,0.39000X0.00200*%
%ADD177R,0.38200X0.00200*%
%ADD178R,0.37800X0.00200*%
%ADD179R,0.12200X0.00200*%
%ADD180R,0.11800X0.00200*%
%ADD181R,0.37400X0.00200*%
%ADD182R,0.11400X0.00200*%
%ADD183R,0.11000X0.00200*%
%ADD184R,0.10600X0.00200*%
%ADD185R,0.10400X0.00200*%
%ADD186R,0.09800X0.00200*%
%ADD187R,0.09600X0.00200*%
%ADD188R,0.09000X0.00200*%
%ADD189R,0.08200X0.00200*%
%ADD190R,0.31200X0.00200*%
%ADD191R,0.27200X0.00200*%
%ADD192R,0.26400X0.00200*%
%ADD193R,0.25600X0.00200*%
%ADD194R,0.24600X0.00200*%
%ADD195R,0.21800X0.00200*%
%ADD196R,0.21000X0.00200*%
%ADD197R,0.20600X0.00200*%
%ADD198R,0.19800X0.00200*%
%ADD199R,0.13600X0.00200*%
%ADD200R,0.12800X0.00200*%
%ADD201R,0.11600X0.00200*%
%ADD202R,0.10800X0.00200*%
%ADD203R,0.00400X0.00200*%
%ADD204R,0.08400X0.00200*%
%ADD205R,0.00600X0.00200*%
%ADD206R,0.01000X0.00200*%
%ADD207R,0.00200X0.00200*%
%ADD208R,0.00800X0.00200*%
%ADD209R,0.02200X0.00200*%
%ADD210R,0.02600X0.00200*%
%ADD211R,0.03000X0.00200*%
%ADD212R,0.06000X0.00200*%
%ADD213R,0.06200X0.00200*%
%ADD214R,0.07000X0.00200*%
%ADD215R,0.08000X0.00200*%
%ADD216R,0.09200X0.00200*%
%ADD217R,0.06600X0.00200*%
%ADD218R,0.07800X0.00200*%
%ADD219R,0.07200X0.00200*%
%ADD220R,0.08600X0.00200*%
%ADD221R,0.06800X0.00200*%
%ADD222R,0.07600X0.00200*%
%ADD223R,0.07400X0.00200*%
%ADD224R,0.10200X0.00200*%
%ADD225R,0.09400X0.00200*%
%ADD226R,0.13800X0.00200*%
%ADD227R,0.12400X0.00200*%
%ADD228C,0.00700*%
%ADD229C,0.01800*%
%ADD230C,0.00200*%
%ADD231R,0.02500X0.03000*%
%ADD232R,0.11000X0.05000*%
%ADD233C,0.00800*%
%ADD234C,0.01200*%
%ADD235C,0.00100*%
%ADD236C,0.00400*%
%ADD237C,0.00500*%
D10*
X0157000Y0216500D02*
X0206000Y0216500D01*
X0206000Y0220000D01*
X0212000Y0220000D01*
X0212000Y0216500D01*
X0219500Y0216500D01*
X0219500Y0257500D01*
X0212000Y0257500D01*
X0212000Y0254000D01*
X0206000Y0254000D01*
X0206000Y0257500D01*
X0157000Y0257500D01*
X0157000Y0216500D01*
X0198900Y0237000D02*
X0198902Y0237174D01*
X0198909Y0237348D01*
X0198919Y0237522D01*
X0198934Y0237696D01*
X0198953Y0237869D01*
X0198977Y0238042D01*
X0199005Y0238214D01*
X0199036Y0238385D01*
X0199073Y0238556D01*
X0199113Y0238725D01*
X0199157Y0238894D01*
X0199206Y0239061D01*
X0199258Y0239227D01*
X0199315Y0239392D01*
X0199376Y0239555D01*
X0199440Y0239717D01*
X0199509Y0239877D01*
X0199582Y0240036D01*
X0199658Y0240192D01*
X0199738Y0240347D01*
X0199822Y0240500D01*
X0199910Y0240650D01*
X0200002Y0240798D01*
X0200097Y0240945D01*
X0200195Y0241088D01*
X0200297Y0241229D01*
X0200403Y0241368D01*
X0200512Y0241504D01*
X0200624Y0241638D01*
X0200739Y0241768D01*
X0200858Y0241896D01*
X0200980Y0242020D01*
X0201104Y0242142D01*
X0201232Y0242261D01*
X0201362Y0242376D01*
X0201496Y0242488D01*
X0201632Y0242597D01*
X0201771Y0242703D01*
X0201912Y0242805D01*
X0202055Y0242903D01*
X0202202Y0242998D01*
X0202350Y0243090D01*
X0202500Y0243178D01*
X0202653Y0243262D01*
X0202808Y0243342D01*
X0202964Y0243418D01*
X0203123Y0243491D01*
X0203283Y0243560D01*
X0203445Y0243624D01*
X0203608Y0243685D01*
X0203773Y0243742D01*
X0203939Y0243794D01*
X0204106Y0243843D01*
X0204275Y0243887D01*
X0204444Y0243927D01*
X0204615Y0243964D01*
X0204786Y0243995D01*
X0204958Y0244023D01*
X0205131Y0244047D01*
X0205304Y0244066D01*
X0205478Y0244081D01*
X0205652Y0244091D01*
X0205826Y0244098D01*
X0206000Y0244100D01*
X0206174Y0244098D01*
X0206348Y0244091D01*
X0206522Y0244081D01*
X0206696Y0244066D01*
X0206869Y0244047D01*
X0207042Y0244023D01*
X0207214Y0243995D01*
X0207385Y0243964D01*
X0207556Y0243927D01*
X0207725Y0243887D01*
X0207894Y0243843D01*
X0208061Y0243794D01*
X0208227Y0243742D01*
X0208392Y0243685D01*
X0208555Y0243624D01*
X0208717Y0243560D01*
X0208877Y0243491D01*
X0209036Y0243418D01*
X0209192Y0243342D01*
X0209347Y0243262D01*
X0209500Y0243178D01*
X0209650Y0243090D01*
X0209798Y0242998D01*
X0209945Y0242903D01*
X0210088Y0242805D01*
X0210229Y0242703D01*
X0210368Y0242597D01*
X0210504Y0242488D01*
X0210638Y0242376D01*
X0210768Y0242261D01*
X0210896Y0242142D01*
X0211020Y0242020D01*
X0211142Y0241896D01*
X0211261Y0241768D01*
X0211376Y0241638D01*
X0211488Y0241504D01*
X0211597Y0241368D01*
X0211703Y0241229D01*
X0211805Y0241088D01*
X0211903Y0240945D01*
X0211998Y0240798D01*
X0212090Y0240650D01*
X0212178Y0240500D01*
X0212262Y0240347D01*
X0212342Y0240192D01*
X0212418Y0240036D01*
X0212491Y0239877D01*
X0212560Y0239717D01*
X0212624Y0239555D01*
X0212685Y0239392D01*
X0212742Y0239227D01*
X0212794Y0239061D01*
X0212843Y0238894D01*
X0212887Y0238725D01*
X0212927Y0238556D01*
X0212964Y0238385D01*
X0212995Y0238214D01*
X0213023Y0238042D01*
X0213047Y0237869D01*
X0213066Y0237696D01*
X0213081Y0237522D01*
X0213091Y0237348D01*
X0213098Y0237174D01*
X0213100Y0237000D01*
X0213098Y0236826D01*
X0213091Y0236652D01*
X0213081Y0236478D01*
X0213066Y0236304D01*
X0213047Y0236131D01*
X0213023Y0235958D01*
X0212995Y0235786D01*
X0212964Y0235615D01*
X0212927Y0235444D01*
X0212887Y0235275D01*
X0212843Y0235106D01*
X0212794Y0234939D01*
X0212742Y0234773D01*
X0212685Y0234608D01*
X0212624Y0234445D01*
X0212560Y0234283D01*
X0212491Y0234123D01*
X0212418Y0233964D01*
X0212342Y0233808D01*
X0212262Y0233653D01*
X0212178Y0233500D01*
X0212090Y0233350D01*
X0211998Y0233202D01*
X0211903Y0233055D01*
X0211805Y0232912D01*
X0211703Y0232771D01*
X0211597Y0232632D01*
X0211488Y0232496D01*
X0211376Y0232362D01*
X0211261Y0232232D01*
X0211142Y0232104D01*
X0211020Y0231980D01*
X0210896Y0231858D01*
X0210768Y0231739D01*
X0210638Y0231624D01*
X0210504Y0231512D01*
X0210368Y0231403D01*
X0210229Y0231297D01*
X0210088Y0231195D01*
X0209945Y0231097D01*
X0209798Y0231002D01*
X0209650Y0230910D01*
X0209500Y0230822D01*
X0209347Y0230738D01*
X0209192Y0230658D01*
X0209036Y0230582D01*
X0208877Y0230509D01*
X0208717Y0230440D01*
X0208555Y0230376D01*
X0208392Y0230315D01*
X0208227Y0230258D01*
X0208061Y0230206D01*
X0207894Y0230157D01*
X0207725Y0230113D01*
X0207556Y0230073D01*
X0207385Y0230036D01*
X0207214Y0230005D01*
X0207042Y0229977D01*
X0206869Y0229953D01*
X0206696Y0229934D01*
X0206522Y0229919D01*
X0206348Y0229909D01*
X0206174Y0229902D01*
X0206000Y0229900D01*
X0205826Y0229902D01*
X0205652Y0229909D01*
X0205478Y0229919D01*
X0205304Y0229934D01*
X0205131Y0229953D01*
X0204958Y0229977D01*
X0204786Y0230005D01*
X0204615Y0230036D01*
X0204444Y0230073D01*
X0204275Y0230113D01*
X0204106Y0230157D01*
X0203939Y0230206D01*
X0203773Y0230258D01*
X0203608Y0230315D01*
X0203445Y0230376D01*
X0203283Y0230440D01*
X0203123Y0230509D01*
X0202964Y0230582D01*
X0202808Y0230658D01*
X0202653Y0230738D01*
X0202500Y0230822D01*
X0202350Y0230910D01*
X0202202Y0231002D01*
X0202055Y0231097D01*
X0201912Y0231195D01*
X0201771Y0231297D01*
X0201632Y0231403D01*
X0201496Y0231512D01*
X0201362Y0231624D01*
X0201232Y0231739D01*
X0201104Y0231858D01*
X0200980Y0231980D01*
X0200858Y0232104D01*
X0200739Y0232232D01*
X0200624Y0232362D01*
X0200512Y0232496D01*
X0200403Y0232632D01*
X0200297Y0232771D01*
X0200195Y0232912D01*
X0200097Y0233055D01*
X0200002Y0233202D01*
X0199910Y0233350D01*
X0199822Y0233500D01*
X0199738Y0233653D01*
X0199658Y0233808D01*
X0199582Y0233964D01*
X0199509Y0234123D01*
X0199440Y0234283D01*
X0199376Y0234445D01*
X0199315Y0234608D01*
X0199258Y0234773D01*
X0199206Y0234939D01*
X0199157Y0235106D01*
X0199113Y0235275D01*
X0199073Y0235444D01*
X0199036Y0235615D01*
X0199005Y0235786D01*
X0198977Y0235958D01*
X0198953Y0236131D01*
X0198934Y0236304D01*
X0198919Y0236478D01*
X0198909Y0236652D01*
X0198902Y0236826D01*
X0198900Y0237000D01*
X0225627Y0223705D02*
X0225627Y0220503D01*
X0227762Y0221570D01*
X0228830Y0221570D01*
X0229897Y0220503D01*
X0229897Y0218368D01*
X0228830Y0217300D01*
X0226695Y0217300D01*
X0225627Y0218368D01*
X0225627Y0223705D02*
X0229897Y0223705D01*
X0232072Y0223705D02*
X0232072Y0219435D01*
X0234208Y0217300D01*
X0236343Y0219435D01*
X0236343Y0223705D01*
X0244963Y0222638D02*
X0244963Y0218368D01*
X0246031Y0217300D01*
X0248166Y0217300D01*
X0249234Y0218368D01*
X0249234Y0220503D01*
X0247099Y0220503D01*
X0249234Y0222638D02*
X0248166Y0223705D01*
X0246031Y0223705D01*
X0244963Y0222638D01*
X0251409Y0223705D02*
X0251409Y0217300D01*
X0255679Y0217300D02*
X0255679Y0223705D01*
X0257854Y0223705D02*
X0261057Y0223705D01*
X0262125Y0222638D01*
X0262125Y0218368D01*
X0261057Y0217300D01*
X0257854Y0217300D01*
X0257854Y0223705D01*
X0251409Y0223705D02*
X0255679Y0217300D01*
X0266642Y0227299D02*
X0266642Y0228098D01*
X0227343Y0228098D01*
X0227343Y0254098D01*
X0227343Y0263500D01*
X0266642Y0263500D01*
X0266642Y0254098D01*
X0266642Y0228098D01*
X0266642Y0227299D02*
X0227343Y0227299D01*
X0227343Y0228098D01*
X0235143Y0233300D02*
X0235145Y0233389D01*
X0235151Y0233478D01*
X0235161Y0233567D01*
X0235175Y0233655D01*
X0235192Y0233742D01*
X0235214Y0233828D01*
X0235240Y0233914D01*
X0235269Y0233998D01*
X0235302Y0234081D01*
X0235338Y0234162D01*
X0235379Y0234242D01*
X0235422Y0234319D01*
X0235469Y0234395D01*
X0235520Y0234468D01*
X0235573Y0234539D01*
X0235630Y0234608D01*
X0235690Y0234674D01*
X0235753Y0234738D01*
X0235818Y0234798D01*
X0235886Y0234856D01*
X0235957Y0234910D01*
X0236030Y0234961D01*
X0236105Y0235009D01*
X0236182Y0235054D01*
X0236261Y0235095D01*
X0236342Y0235132D01*
X0236424Y0235166D01*
X0236508Y0235197D01*
X0236593Y0235223D01*
X0236679Y0235246D01*
X0236766Y0235264D01*
X0236854Y0235279D01*
X0236943Y0235290D01*
X0237032Y0235297D01*
X0237121Y0235300D01*
X0237210Y0235299D01*
X0237299Y0235294D01*
X0237387Y0235285D01*
X0237476Y0235272D01*
X0237563Y0235255D01*
X0237650Y0235235D01*
X0237736Y0235210D01*
X0237820Y0235182D01*
X0237903Y0235150D01*
X0237985Y0235114D01*
X0238065Y0235075D01*
X0238143Y0235032D01*
X0238219Y0234986D01*
X0238293Y0234936D01*
X0238365Y0234883D01*
X0238434Y0234827D01*
X0238501Y0234768D01*
X0238565Y0234706D01*
X0238626Y0234642D01*
X0238685Y0234574D01*
X0238740Y0234504D01*
X0238792Y0234432D01*
X0238841Y0234357D01*
X0238886Y0234281D01*
X0238928Y0234202D01*
X0238966Y0234122D01*
X0239001Y0234040D01*
X0239032Y0233956D01*
X0239060Y0233871D01*
X0239083Y0233785D01*
X0239103Y0233698D01*
X0239119Y0233611D01*
X0239131Y0233522D01*
X0239139Y0233434D01*
X0239143Y0233345D01*
X0239143Y0233255D01*
X0239139Y0233166D01*
X0239131Y0233078D01*
X0239119Y0232989D01*
X0239103Y0232902D01*
X0239083Y0232815D01*
X0239060Y0232729D01*
X0239032Y0232644D01*
X0239001Y0232560D01*
X0238966Y0232478D01*
X0238928Y0232398D01*
X0238886Y0232319D01*
X0238841Y0232243D01*
X0238792Y0232168D01*
X0238740Y0232096D01*
X0238685Y0232026D01*
X0238626Y0231958D01*
X0238565Y0231894D01*
X0238501Y0231832D01*
X0238434Y0231773D01*
X0238365Y0231717D01*
X0238293Y0231664D01*
X0238219Y0231614D01*
X0238143Y0231568D01*
X0238065Y0231525D01*
X0237985Y0231486D01*
X0237903Y0231450D01*
X0237820Y0231418D01*
X0237736Y0231390D01*
X0237650Y0231365D01*
X0237563Y0231345D01*
X0237476Y0231328D01*
X0237387Y0231315D01*
X0237299Y0231306D01*
X0237210Y0231301D01*
X0237121Y0231300D01*
X0237032Y0231303D01*
X0236943Y0231310D01*
X0236854Y0231321D01*
X0236766Y0231336D01*
X0236679Y0231354D01*
X0236593Y0231377D01*
X0236508Y0231403D01*
X0236424Y0231434D01*
X0236342Y0231468D01*
X0236261Y0231505D01*
X0236182Y0231546D01*
X0236105Y0231591D01*
X0236030Y0231639D01*
X0235957Y0231690D01*
X0235886Y0231744D01*
X0235818Y0231802D01*
X0235753Y0231862D01*
X0235690Y0231926D01*
X0235630Y0231992D01*
X0235573Y0232061D01*
X0235520Y0232132D01*
X0235469Y0232205D01*
X0235422Y0232281D01*
X0235379Y0232358D01*
X0235338Y0232438D01*
X0235302Y0232519D01*
X0235269Y0232602D01*
X0235240Y0232686D01*
X0235214Y0232772D01*
X0235192Y0232858D01*
X0235175Y0232945D01*
X0235161Y0233033D01*
X0235151Y0233122D01*
X0235145Y0233211D01*
X0235143Y0233300D01*
X0254843Y0233300D02*
X0254845Y0233389D01*
X0254851Y0233478D01*
X0254861Y0233567D01*
X0254875Y0233655D01*
X0254892Y0233742D01*
X0254914Y0233828D01*
X0254940Y0233914D01*
X0254969Y0233998D01*
X0255002Y0234081D01*
X0255038Y0234162D01*
X0255079Y0234242D01*
X0255122Y0234319D01*
X0255169Y0234395D01*
X0255220Y0234468D01*
X0255273Y0234539D01*
X0255330Y0234608D01*
X0255390Y0234674D01*
X0255453Y0234738D01*
X0255518Y0234798D01*
X0255586Y0234856D01*
X0255657Y0234910D01*
X0255730Y0234961D01*
X0255805Y0235009D01*
X0255882Y0235054D01*
X0255961Y0235095D01*
X0256042Y0235132D01*
X0256124Y0235166D01*
X0256208Y0235197D01*
X0256293Y0235223D01*
X0256379Y0235246D01*
X0256466Y0235264D01*
X0256554Y0235279D01*
X0256643Y0235290D01*
X0256732Y0235297D01*
X0256821Y0235300D01*
X0256910Y0235299D01*
X0256999Y0235294D01*
X0257087Y0235285D01*
X0257176Y0235272D01*
X0257263Y0235255D01*
X0257350Y0235235D01*
X0257436Y0235210D01*
X0257520Y0235182D01*
X0257603Y0235150D01*
X0257685Y0235114D01*
X0257765Y0235075D01*
X0257843Y0235032D01*
X0257919Y0234986D01*
X0257993Y0234936D01*
X0258065Y0234883D01*
X0258134Y0234827D01*
X0258201Y0234768D01*
X0258265Y0234706D01*
X0258326Y0234642D01*
X0258385Y0234574D01*
X0258440Y0234504D01*
X0258492Y0234432D01*
X0258541Y0234357D01*
X0258586Y0234281D01*
X0258628Y0234202D01*
X0258666Y0234122D01*
X0258701Y0234040D01*
X0258732Y0233956D01*
X0258760Y0233871D01*
X0258783Y0233785D01*
X0258803Y0233698D01*
X0258819Y0233611D01*
X0258831Y0233522D01*
X0258839Y0233434D01*
X0258843Y0233345D01*
X0258843Y0233255D01*
X0258839Y0233166D01*
X0258831Y0233078D01*
X0258819Y0232989D01*
X0258803Y0232902D01*
X0258783Y0232815D01*
X0258760Y0232729D01*
X0258732Y0232644D01*
X0258701Y0232560D01*
X0258666Y0232478D01*
X0258628Y0232398D01*
X0258586Y0232319D01*
X0258541Y0232243D01*
X0258492Y0232168D01*
X0258440Y0232096D01*
X0258385Y0232026D01*
X0258326Y0231958D01*
X0258265Y0231894D01*
X0258201Y0231832D01*
X0258134Y0231773D01*
X0258065Y0231717D01*
X0257993Y0231664D01*
X0257919Y0231614D01*
X0257843Y0231568D01*
X0257765Y0231525D01*
X0257685Y0231486D01*
X0257603Y0231450D01*
X0257520Y0231418D01*
X0257436Y0231390D01*
X0257350Y0231365D01*
X0257263Y0231345D01*
X0257176Y0231328D01*
X0257087Y0231315D01*
X0256999Y0231306D01*
X0256910Y0231301D01*
X0256821Y0231300D01*
X0256732Y0231303D01*
X0256643Y0231310D01*
X0256554Y0231321D01*
X0256466Y0231336D01*
X0256379Y0231354D01*
X0256293Y0231377D01*
X0256208Y0231403D01*
X0256124Y0231434D01*
X0256042Y0231468D01*
X0255961Y0231505D01*
X0255882Y0231546D01*
X0255805Y0231591D01*
X0255730Y0231639D01*
X0255657Y0231690D01*
X0255586Y0231744D01*
X0255518Y0231802D01*
X0255453Y0231862D01*
X0255390Y0231926D01*
X0255330Y0231992D01*
X0255273Y0232061D01*
X0255220Y0232132D01*
X0255169Y0232205D01*
X0255122Y0232281D01*
X0255079Y0232358D01*
X0255038Y0232438D01*
X0255002Y0232519D01*
X0254969Y0232602D01*
X0254940Y0232686D01*
X0254914Y0232772D01*
X0254892Y0232858D01*
X0254875Y0232945D01*
X0254861Y0233033D01*
X0254851Y0233122D01*
X0254845Y0233211D01*
X0254843Y0233300D01*
X0272299Y0246657D02*
X0272299Y0207358D01*
X0273098Y0207358D01*
X0273098Y0246657D01*
X0299098Y0246657D01*
X0308500Y0246657D01*
X0308500Y0207358D01*
X0299098Y0207358D01*
X0273098Y0207358D01*
X0282300Y0202638D02*
X0282300Y0198368D01*
X0283368Y0197300D01*
X0285503Y0197300D01*
X0286570Y0198368D01*
X0286570Y0200503D01*
X0284435Y0200503D01*
X0282300Y0202638D02*
X0283368Y0203705D01*
X0285503Y0203705D01*
X0286570Y0202638D01*
X0288745Y0203705D02*
X0293016Y0197300D01*
X0293016Y0203705D01*
X0295191Y0203705D02*
X0298394Y0203705D01*
X0299461Y0202638D01*
X0299461Y0198368D01*
X0298394Y0197300D01*
X0295191Y0197300D01*
X0295191Y0203705D01*
X0299098Y0207358D02*
X0299098Y0213657D01*
X0299098Y0220657D02*
X0299098Y0233358D01*
X0299098Y0240358D02*
X0299098Y0246657D01*
X0295881Y0252300D02*
X0298016Y0254435D01*
X0298016Y0258705D01*
X0293745Y0258705D02*
X0293745Y0254435D01*
X0295881Y0252300D01*
X0291570Y0253368D02*
X0291570Y0254435D01*
X0290503Y0255503D01*
X0288368Y0255503D01*
X0287300Y0256570D01*
X0287300Y0257638D01*
X0288368Y0258705D01*
X0290503Y0258705D01*
X0291570Y0257638D01*
X0291570Y0256570D01*
X0290503Y0255503D01*
X0288368Y0255503D02*
X0287300Y0254435D01*
X0287300Y0253368D01*
X0288368Y0252300D01*
X0290503Y0252300D01*
X0291570Y0253368D01*
X0273098Y0246657D02*
X0272299Y0246657D01*
X0266642Y0254098D02*
X0260343Y0254098D01*
X0253343Y0254098D02*
X0240642Y0254098D01*
X0233642Y0254098D02*
X0227343Y0254098D01*
X0276300Y0236857D02*
X0276302Y0236946D01*
X0276308Y0237035D01*
X0276318Y0237124D01*
X0276332Y0237212D01*
X0276349Y0237299D01*
X0276371Y0237385D01*
X0276397Y0237471D01*
X0276426Y0237555D01*
X0276459Y0237638D01*
X0276495Y0237719D01*
X0276536Y0237799D01*
X0276579Y0237876D01*
X0276626Y0237952D01*
X0276677Y0238025D01*
X0276730Y0238096D01*
X0276787Y0238165D01*
X0276847Y0238231D01*
X0276910Y0238295D01*
X0276975Y0238355D01*
X0277043Y0238413D01*
X0277114Y0238467D01*
X0277187Y0238518D01*
X0277262Y0238566D01*
X0277339Y0238611D01*
X0277418Y0238652D01*
X0277499Y0238689D01*
X0277581Y0238723D01*
X0277665Y0238754D01*
X0277750Y0238780D01*
X0277836Y0238803D01*
X0277923Y0238821D01*
X0278011Y0238836D01*
X0278100Y0238847D01*
X0278189Y0238854D01*
X0278278Y0238857D01*
X0278367Y0238856D01*
X0278456Y0238851D01*
X0278544Y0238842D01*
X0278633Y0238829D01*
X0278720Y0238812D01*
X0278807Y0238792D01*
X0278893Y0238767D01*
X0278977Y0238739D01*
X0279060Y0238707D01*
X0279142Y0238671D01*
X0279222Y0238632D01*
X0279300Y0238589D01*
X0279376Y0238543D01*
X0279450Y0238493D01*
X0279522Y0238440D01*
X0279591Y0238384D01*
X0279658Y0238325D01*
X0279722Y0238263D01*
X0279783Y0238199D01*
X0279842Y0238131D01*
X0279897Y0238061D01*
X0279949Y0237989D01*
X0279998Y0237914D01*
X0280043Y0237838D01*
X0280085Y0237759D01*
X0280123Y0237679D01*
X0280158Y0237597D01*
X0280189Y0237513D01*
X0280217Y0237428D01*
X0280240Y0237342D01*
X0280260Y0237255D01*
X0280276Y0237168D01*
X0280288Y0237079D01*
X0280296Y0236991D01*
X0280300Y0236902D01*
X0280300Y0236812D01*
X0280296Y0236723D01*
X0280288Y0236635D01*
X0280276Y0236546D01*
X0280260Y0236459D01*
X0280240Y0236372D01*
X0280217Y0236286D01*
X0280189Y0236201D01*
X0280158Y0236117D01*
X0280123Y0236035D01*
X0280085Y0235955D01*
X0280043Y0235876D01*
X0279998Y0235800D01*
X0279949Y0235725D01*
X0279897Y0235653D01*
X0279842Y0235583D01*
X0279783Y0235515D01*
X0279722Y0235451D01*
X0279658Y0235389D01*
X0279591Y0235330D01*
X0279522Y0235274D01*
X0279450Y0235221D01*
X0279376Y0235171D01*
X0279300Y0235125D01*
X0279222Y0235082D01*
X0279142Y0235043D01*
X0279060Y0235007D01*
X0278977Y0234975D01*
X0278893Y0234947D01*
X0278807Y0234922D01*
X0278720Y0234902D01*
X0278633Y0234885D01*
X0278544Y0234872D01*
X0278456Y0234863D01*
X0278367Y0234858D01*
X0278278Y0234857D01*
X0278189Y0234860D01*
X0278100Y0234867D01*
X0278011Y0234878D01*
X0277923Y0234893D01*
X0277836Y0234911D01*
X0277750Y0234934D01*
X0277665Y0234960D01*
X0277581Y0234991D01*
X0277499Y0235025D01*
X0277418Y0235062D01*
X0277339Y0235103D01*
X0277262Y0235148D01*
X0277187Y0235196D01*
X0277114Y0235247D01*
X0277043Y0235301D01*
X0276975Y0235359D01*
X0276910Y0235419D01*
X0276847Y0235483D01*
X0276787Y0235549D01*
X0276730Y0235618D01*
X0276677Y0235689D01*
X0276626Y0235762D01*
X0276579Y0235838D01*
X0276536Y0235915D01*
X0276495Y0235995D01*
X0276459Y0236076D01*
X0276426Y0236159D01*
X0276397Y0236243D01*
X0276371Y0236329D01*
X0276349Y0236415D01*
X0276332Y0236502D01*
X0276318Y0236590D01*
X0276308Y0236679D01*
X0276302Y0236768D01*
X0276300Y0236857D01*
X0276300Y0217157D02*
X0276302Y0217246D01*
X0276308Y0217335D01*
X0276318Y0217424D01*
X0276332Y0217512D01*
X0276349Y0217599D01*
X0276371Y0217685D01*
X0276397Y0217771D01*
X0276426Y0217855D01*
X0276459Y0217938D01*
X0276495Y0218019D01*
X0276536Y0218099D01*
X0276579Y0218176D01*
X0276626Y0218252D01*
X0276677Y0218325D01*
X0276730Y0218396D01*
X0276787Y0218465D01*
X0276847Y0218531D01*
X0276910Y0218595D01*
X0276975Y0218655D01*
X0277043Y0218713D01*
X0277114Y0218767D01*
X0277187Y0218818D01*
X0277262Y0218866D01*
X0277339Y0218911D01*
X0277418Y0218952D01*
X0277499Y0218989D01*
X0277581Y0219023D01*
X0277665Y0219054D01*
X0277750Y0219080D01*
X0277836Y0219103D01*
X0277923Y0219121D01*
X0278011Y0219136D01*
X0278100Y0219147D01*
X0278189Y0219154D01*
X0278278Y0219157D01*
X0278367Y0219156D01*
X0278456Y0219151D01*
X0278544Y0219142D01*
X0278633Y0219129D01*
X0278720Y0219112D01*
X0278807Y0219092D01*
X0278893Y0219067D01*
X0278977Y0219039D01*
X0279060Y0219007D01*
X0279142Y0218971D01*
X0279222Y0218932D01*
X0279300Y0218889D01*
X0279376Y0218843D01*
X0279450Y0218793D01*
X0279522Y0218740D01*
X0279591Y0218684D01*
X0279658Y0218625D01*
X0279722Y0218563D01*
X0279783Y0218499D01*
X0279842Y0218431D01*
X0279897Y0218361D01*
X0279949Y0218289D01*
X0279998Y0218214D01*
X0280043Y0218138D01*
X0280085Y0218059D01*
X0280123Y0217979D01*
X0280158Y0217897D01*
X0280189Y0217813D01*
X0280217Y0217728D01*
X0280240Y0217642D01*
X0280260Y0217555D01*
X0280276Y0217468D01*
X0280288Y0217379D01*
X0280296Y0217291D01*
X0280300Y0217202D01*
X0280300Y0217112D01*
X0280296Y0217023D01*
X0280288Y0216935D01*
X0280276Y0216846D01*
X0280260Y0216759D01*
X0280240Y0216672D01*
X0280217Y0216586D01*
X0280189Y0216501D01*
X0280158Y0216417D01*
X0280123Y0216335D01*
X0280085Y0216255D01*
X0280043Y0216176D01*
X0279998Y0216100D01*
X0279949Y0216025D01*
X0279897Y0215953D01*
X0279842Y0215883D01*
X0279783Y0215815D01*
X0279722Y0215751D01*
X0279658Y0215689D01*
X0279591Y0215630D01*
X0279522Y0215574D01*
X0279450Y0215521D01*
X0279376Y0215471D01*
X0279300Y0215425D01*
X0279222Y0215382D01*
X0279142Y0215343D01*
X0279060Y0215307D01*
X0278977Y0215275D01*
X0278893Y0215247D01*
X0278807Y0215222D01*
X0278720Y0215202D01*
X0278633Y0215185D01*
X0278544Y0215172D01*
X0278456Y0215163D01*
X0278367Y0215158D01*
X0278278Y0215157D01*
X0278189Y0215160D01*
X0278100Y0215167D01*
X0278011Y0215178D01*
X0277923Y0215193D01*
X0277836Y0215211D01*
X0277750Y0215234D01*
X0277665Y0215260D01*
X0277581Y0215291D01*
X0277499Y0215325D01*
X0277418Y0215362D01*
X0277339Y0215403D01*
X0277262Y0215448D01*
X0277187Y0215496D01*
X0277114Y0215547D01*
X0277043Y0215601D01*
X0276975Y0215659D01*
X0276910Y0215719D01*
X0276847Y0215783D01*
X0276787Y0215849D01*
X0276730Y0215918D01*
X0276677Y0215989D01*
X0276626Y0216062D01*
X0276579Y0216138D01*
X0276536Y0216215D01*
X0276495Y0216295D01*
X0276459Y0216376D01*
X0276426Y0216459D01*
X0276397Y0216543D01*
X0276371Y0216629D01*
X0276349Y0216715D01*
X0276332Y0216802D01*
X0276318Y0216890D01*
X0276308Y0216979D01*
X0276302Y0217068D01*
X0276300Y0217157D01*
X0288745Y0203705D02*
X0288745Y0197300D01*
D11*
X0157300Y0152400D03*
X0150500Y0144200D03*
X0104700Y0116800D03*
X0147700Y0074000D03*
D12*
X0114500Y0117200D03*
X0109500Y0122200D03*
X0105500Y0124400D03*
X0102900Y0120800D03*
X0102900Y0120600D03*
X0102900Y0120400D03*
X0104100Y0117600D03*
X0113500Y0124400D03*
X0098900Y0149800D03*
X0124500Y0155400D03*
X0124900Y0166200D03*
X0150300Y0158400D03*
X0156500Y0158400D03*
X0149900Y0143400D03*
X0204700Y0074000D03*
D13*
X0147700Y0074200D03*
X0153300Y0159200D03*
D14*
X0153300Y0159800D03*
X0147700Y0131600D03*
X0110300Y0127000D03*
X0098300Y0153600D03*
X0204700Y0074200D03*
D15*
X0147800Y0074400D03*
X0154800Y0151000D03*
X0154400Y0151600D03*
X0154200Y0151800D03*
X0154000Y0152000D03*
D16*
X0109700Y0125600D03*
X0204700Y0074400D03*
D17*
X0204800Y0074800D03*
X0221800Y0091800D03*
X0222000Y0092200D03*
X0222000Y0092400D03*
X0222000Y0092600D03*
X0222200Y0092800D03*
X0222200Y0093000D03*
X0222400Y0113200D03*
X0222400Y0113400D03*
X0222200Y0113800D03*
X0185800Y0112200D03*
X0185600Y0111800D03*
X0185600Y0111600D03*
X0185400Y0111400D03*
X0185400Y0111200D03*
X0185400Y0111000D03*
X0185200Y0110600D03*
X0185200Y0095200D03*
X0185400Y0094800D03*
X0185400Y0094600D03*
X0185400Y0094400D03*
X0185600Y0094200D03*
X0185600Y0094000D03*
X0185800Y0093600D03*
X0164400Y0092600D03*
X0164400Y0092400D03*
X0164000Y0088200D03*
X0163800Y0087800D03*
X0147800Y0074600D03*
X0131400Y0089600D03*
X0131200Y0090000D03*
X0131200Y0090200D03*
X0131200Y0090400D03*
X0131000Y0091000D03*
X0132600Y0114200D03*
X0132600Y0114400D03*
X0132800Y0118200D03*
X0133000Y0118400D03*
X0162200Y0117400D03*
X0162400Y0117200D03*
X0162400Y0117000D03*
X0156200Y0148600D03*
X0155400Y0149400D03*
D18*
X0154700Y0151200D03*
X0154500Y0151400D03*
X0204700Y0074600D03*
D19*
X0219800Y0088400D03*
X0220000Y0088600D03*
X0220400Y0117200D03*
X0220200Y0117400D03*
X0163200Y0094800D03*
X0162400Y0086200D03*
X0147800Y0074800D03*
X0133200Y0086600D03*
X0133000Y0086800D03*
X0160800Y0119400D03*
X0134400Y0120000D03*
X0156800Y0146800D03*
D20*
X0134900Y0111600D03*
X0162300Y0095600D03*
X0147900Y0075000D03*
X0134300Y0085800D03*
X0218500Y0087200D03*
D21*
X0220300Y0089000D03*
X0220500Y0089200D03*
X0204700Y0075000D03*
X0187900Y0089600D03*
X0163700Y0094200D03*
X0163500Y0094400D03*
X0162900Y0086600D03*
X0132700Y0087200D03*
X0132500Y0087400D03*
X0133300Y0113000D03*
X0134100Y0119800D03*
X0187900Y0116200D03*
X0220700Y0116800D03*
X0220900Y0116600D03*
D22*
X0222500Y0113000D03*
X0222500Y0112800D03*
X0222500Y0112600D03*
X0222500Y0112400D03*
X0222700Y0112200D03*
X0222700Y0112000D03*
X0222700Y0111800D03*
X0222700Y0111600D03*
X0222700Y0095600D03*
X0222500Y0094400D03*
X0222500Y0094200D03*
X0222500Y0094000D03*
X0222300Y0093600D03*
X0222300Y0093400D03*
X0222300Y0093200D03*
X0185300Y0095000D03*
X0185100Y0095400D03*
X0185100Y0095600D03*
X0185100Y0095800D03*
X0185100Y0096000D03*
X0184900Y0096200D03*
X0184900Y0096400D03*
X0184900Y0096600D03*
X0184700Y0097200D03*
X0184700Y0097400D03*
X0184700Y0097600D03*
X0184500Y0098600D03*
X0184500Y0107200D03*
X0184700Y0108200D03*
X0184700Y0108400D03*
X0184700Y0108600D03*
X0184900Y0109200D03*
X0184900Y0109400D03*
X0184900Y0109600D03*
X0185100Y0109800D03*
X0185100Y0110000D03*
X0185100Y0110200D03*
X0185100Y0110400D03*
X0185300Y0110800D03*
X0162700Y0115800D03*
X0162500Y0116400D03*
X0162500Y0116600D03*
X0162500Y0116800D03*
X0164500Y0092200D03*
X0164500Y0092000D03*
X0164300Y0089000D03*
X0164100Y0088600D03*
X0164100Y0088400D03*
X0131100Y0090600D03*
X0131100Y0090800D03*
X0130900Y0091200D03*
X0130900Y0091400D03*
X0130900Y0091600D03*
X0130900Y0091800D03*
X0109500Y0091800D03*
X0109500Y0092000D03*
X0109500Y0092200D03*
X0109500Y0092400D03*
X0109500Y0092600D03*
X0109500Y0092800D03*
X0109500Y0093000D03*
X0109500Y0093200D03*
X0109500Y0093400D03*
X0109500Y0093600D03*
X0109500Y0093800D03*
X0109500Y0094000D03*
X0109500Y0094200D03*
X0109500Y0094400D03*
X0109500Y0094600D03*
X0109500Y0094800D03*
X0109500Y0095000D03*
X0109500Y0095200D03*
X0109500Y0095400D03*
X0109500Y0095600D03*
X0109500Y0095800D03*
X0109500Y0096000D03*
X0109500Y0096200D03*
X0109500Y0096400D03*
X0109500Y0096600D03*
X0109500Y0096800D03*
X0109500Y0097000D03*
X0109500Y0097200D03*
X0109500Y0097400D03*
X0109500Y0097600D03*
X0109500Y0097800D03*
X0109500Y0098000D03*
X0109500Y0098200D03*
X0109500Y0098400D03*
X0109500Y0098600D03*
X0109500Y0098800D03*
X0109500Y0099000D03*
X0109500Y0099200D03*
X0109500Y0099400D03*
X0109500Y0099600D03*
X0109500Y0099800D03*
X0109500Y0100000D03*
X0109500Y0100200D03*
X0109500Y0100400D03*
X0109500Y0100600D03*
X0109500Y0100800D03*
X0109500Y0101000D03*
X0109500Y0101200D03*
X0109500Y0101400D03*
X0109500Y0101600D03*
X0109500Y0101800D03*
X0109500Y0102000D03*
X0109500Y0102200D03*
X0109500Y0102400D03*
X0109500Y0102600D03*
X0109500Y0102800D03*
X0109500Y0103000D03*
X0109500Y0103200D03*
X0109500Y0103400D03*
X0109500Y0103600D03*
X0109500Y0103800D03*
X0109500Y0104000D03*
X0109500Y0104200D03*
X0109500Y0104400D03*
X0109500Y0104600D03*
X0109500Y0104800D03*
X0109500Y0105000D03*
X0109500Y0105200D03*
X0109500Y0105400D03*
X0109500Y0105600D03*
X0109500Y0105800D03*
X0109500Y0106000D03*
X0109500Y0106200D03*
X0109500Y0106400D03*
X0109500Y0106600D03*
X0109500Y0106800D03*
X0109500Y0107000D03*
X0109500Y0107200D03*
X0109500Y0107400D03*
X0109500Y0107600D03*
X0109500Y0107800D03*
X0109500Y0108000D03*
X0109500Y0108200D03*
X0109500Y0108400D03*
X0109500Y0108600D03*
X0109500Y0108800D03*
X0109500Y0109000D03*
X0109500Y0109200D03*
X0109500Y0109400D03*
X0109500Y0109600D03*
X0109500Y0109800D03*
X0109500Y0110000D03*
X0109500Y0110200D03*
X0109500Y0110400D03*
X0109500Y0110600D03*
X0109500Y0110800D03*
X0109500Y0111000D03*
X0109500Y0111200D03*
X0109500Y0111400D03*
X0109500Y0111600D03*
X0109500Y0111800D03*
X0109500Y0112000D03*
X0109500Y0112200D03*
X0109500Y0112400D03*
X0109500Y0112600D03*
X0109500Y0112800D03*
X0109500Y0113000D03*
X0109500Y0113200D03*
X0109500Y0113400D03*
X0109500Y0113600D03*
X0109500Y0113800D03*
X0109500Y0114000D03*
X0109500Y0114200D03*
X0109500Y0114400D03*
X0109500Y0114600D03*
X0109500Y0114800D03*
X0109500Y0115000D03*
X0109500Y0115200D03*
X0109500Y0115400D03*
X0109500Y0115600D03*
X0109500Y0115800D03*
X0109500Y0116000D03*
X0109500Y0116200D03*
X0132500Y0114800D03*
X0132500Y0114600D03*
X0132700Y0117800D03*
X0132700Y0118000D03*
X0109500Y0091600D03*
X0109500Y0091400D03*
X0109500Y0091200D03*
X0109500Y0091000D03*
X0109500Y0090800D03*
X0109500Y0090600D03*
X0109500Y0090400D03*
X0109500Y0090200D03*
X0109500Y0090000D03*
X0109500Y0089800D03*
X0109500Y0089600D03*
X0109500Y0089400D03*
X0109500Y0089200D03*
X0109500Y0089000D03*
X0109500Y0088800D03*
X0109500Y0088600D03*
X0109500Y0088400D03*
X0109500Y0088200D03*
X0109500Y0088000D03*
X0109500Y0087800D03*
X0109500Y0087600D03*
X0109500Y0087400D03*
X0109500Y0087200D03*
X0109500Y0087000D03*
X0109500Y0086800D03*
X0109500Y0086600D03*
X0109500Y0086400D03*
X0109500Y0086200D03*
X0109500Y0086000D03*
X0109500Y0085800D03*
X0109500Y0085600D03*
X0109500Y0085400D03*
X0109500Y0085200D03*
X0109500Y0085000D03*
X0109500Y0084800D03*
X0109500Y0084600D03*
X0109500Y0084400D03*
X0109500Y0084200D03*
X0109500Y0084000D03*
X0109500Y0083800D03*
X0109500Y0083600D03*
X0109500Y0083400D03*
X0109500Y0083200D03*
X0109500Y0083000D03*
X0109500Y0082800D03*
X0109500Y0082600D03*
X0109500Y0082400D03*
X0109500Y0082200D03*
X0109500Y0082000D03*
X0109500Y0081800D03*
X0109500Y0081600D03*
X0109500Y0081400D03*
X0109500Y0081200D03*
X0109500Y0081000D03*
X0109500Y0080800D03*
X0109500Y0080600D03*
X0109500Y0080400D03*
X0109500Y0080200D03*
X0109500Y0080000D03*
X0109500Y0079800D03*
X0109500Y0079600D03*
X0109500Y0079400D03*
X0109500Y0079200D03*
X0109500Y0079000D03*
X0109500Y0078800D03*
X0109500Y0078600D03*
X0109500Y0078400D03*
X0109500Y0078200D03*
X0109500Y0078000D03*
X0109500Y0077800D03*
X0109500Y0077600D03*
X0109500Y0077400D03*
X0109500Y0077200D03*
X0109500Y0077000D03*
X0109500Y0076800D03*
X0109500Y0076600D03*
X0109500Y0076400D03*
X0109500Y0076200D03*
X0109500Y0076000D03*
X0109500Y0075800D03*
X0109500Y0075600D03*
X0109500Y0075400D03*
X0109500Y0075200D03*
X0156100Y0148800D03*
D23*
X0191100Y0119000D03*
X0191100Y0086800D03*
X0217700Y0086800D03*
X0147900Y0075200D03*
D24*
X0161800Y0085800D03*
X0162800Y0095200D03*
X0133600Y0086200D03*
X0157000Y0146000D03*
X0157000Y0146200D03*
X0153400Y0150000D03*
X0219600Y0118000D03*
X0219800Y0117800D03*
X0219200Y0087800D03*
X0204800Y0075200D03*
D25*
X0147900Y0075400D03*
D26*
X0162000Y0095800D03*
X0190400Y0087200D03*
X0204800Y0075400D03*
X0218800Y0118600D03*
X0190400Y0118600D03*
D27*
X0147900Y0075600D03*
D28*
X0161400Y0096200D03*
X0135600Y0111200D03*
X0204800Y0075600D03*
X0218000Y0119000D03*
D29*
X0159100Y0097400D03*
X0147900Y0075800D03*
D30*
X0136400Y0110800D03*
X0204800Y0075800D03*
D31*
X0204800Y0076600D03*
X0148000Y0076000D03*
D32*
X0136800Y0110600D03*
X0204800Y0076000D03*
D33*
X0147900Y0076200D03*
X0138900Y0109600D03*
D34*
X0204800Y0076200D03*
D35*
X0157400Y0098200D03*
X0148000Y0076400D03*
D36*
X0204800Y0076400D03*
D37*
X0148000Y0076600D03*
X0204600Y0128400D03*
D38*
X0204600Y0128200D03*
X0148000Y0076800D03*
D39*
X0204800Y0076800D03*
D40*
X0204800Y0077800D03*
X0155800Y0099000D03*
X0148000Y0077000D03*
D41*
X0139400Y0109400D03*
X0204800Y0077000D03*
D42*
X0204800Y0078000D03*
X0148000Y0077200D03*
D43*
X0157000Y0098400D03*
X0139800Y0109200D03*
X0204800Y0077200D03*
D44*
X0154600Y0099600D03*
X0142200Y0108000D03*
X0148000Y0077400D03*
D45*
X0156600Y0098600D03*
X0204800Y0077400D03*
D46*
X0154300Y0099800D03*
X0147900Y0077600D03*
X0147500Y0127400D03*
X0204700Y0127200D03*
D47*
X0156100Y0098800D03*
X0140700Y0108800D03*
X0147500Y0128400D03*
X0204700Y0077600D03*
D48*
X0148000Y0077800D03*
D49*
X0148000Y0078000D03*
X0153200Y0100400D03*
X0204800Y0079000D03*
D50*
X0204700Y0079200D03*
X0204700Y0126600D03*
X0152500Y0100800D03*
X0144300Y0106800D03*
X0147900Y0078200D03*
D51*
X0155000Y0099400D03*
X0147600Y0127800D03*
X0204800Y0078200D03*
D52*
X0152000Y0101200D03*
X0148000Y0078400D03*
D53*
X0142600Y0107800D03*
X0204800Y0078400D03*
D54*
X0151600Y0101400D03*
X0145200Y0106200D03*
X0148000Y0078600D03*
D55*
X0204800Y0078600D03*
D56*
X0150900Y0102000D03*
X0146100Y0105600D03*
X0147500Y0126000D03*
X0147900Y0078800D03*
D57*
X0143300Y0107400D03*
X0147500Y0127200D03*
X0204700Y0127000D03*
X0204700Y0078800D03*
D58*
X0150000Y0102600D03*
X0149800Y0102800D03*
X0149200Y0103200D03*
X0147400Y0104600D03*
X0147200Y0104800D03*
X0148000Y0079000D03*
D59*
X0148000Y0079200D03*
D60*
X0148000Y0079400D03*
D61*
X0152300Y0101000D03*
X0204700Y0079400D03*
X0204700Y0126400D03*
D62*
X0204700Y0080800D03*
X0147900Y0079600D03*
X0147500Y0125000D03*
D63*
X0147500Y0126400D03*
X0144900Y0106400D03*
X0204700Y0126200D03*
X0204700Y0079600D03*
D64*
X0204700Y0081000D03*
X0147900Y0079800D03*
X0147500Y0124800D03*
D65*
X0145800Y0105800D03*
X0151000Y0101800D03*
X0204800Y0079800D03*
X0204800Y0126000D03*
D66*
X0204700Y0081200D03*
X0147900Y0080000D03*
D67*
X0150300Y0102400D03*
X0146900Y0105000D03*
X0147500Y0125800D03*
X0204700Y0125800D03*
X0204700Y0080000D03*
D68*
X0204700Y0081400D03*
X0147900Y0080200D03*
D69*
X0149500Y0103000D03*
X0148900Y0103400D03*
X0148700Y0103600D03*
X0148500Y0103800D03*
X0148100Y0104000D03*
X0147900Y0104200D03*
X0147700Y0104400D03*
X0147500Y0125600D03*
X0204700Y0125600D03*
X0204700Y0080200D03*
D70*
X0204700Y0081600D03*
X0147900Y0080400D03*
X0147500Y0124000D03*
D71*
X0147500Y0125400D03*
X0204700Y0125400D03*
X0204700Y0080400D03*
D72*
X0204700Y0081800D03*
X0147900Y0080600D03*
X0147500Y0123800D03*
D73*
X0147500Y0125200D03*
X0204700Y0125200D03*
X0204700Y0080600D03*
D74*
X0204700Y0082000D03*
X0147900Y0080800D03*
D75*
X0147900Y0081000D03*
X0147500Y0123200D03*
X0204700Y0082200D03*
D76*
X0204700Y0082400D03*
X0147900Y0081200D03*
D77*
X0148000Y0081400D03*
X0147400Y0122800D03*
X0204800Y0123400D03*
X0204600Y0082600D03*
D78*
X0204600Y0082800D03*
X0148000Y0081600D03*
X0147400Y0122400D03*
D79*
X0147500Y0122200D03*
X0147900Y0081800D03*
X0204700Y0123000D03*
D80*
X0204700Y0122800D03*
X0147500Y0121800D03*
X0147900Y0082000D03*
D81*
X0147900Y0082200D03*
X0147500Y0121400D03*
X0204700Y0122600D03*
X0204500Y0083400D03*
D82*
X0148000Y0082400D03*
X0147400Y0121200D03*
D83*
X0147500Y0121000D03*
X0147900Y0082600D03*
X0204700Y0122400D03*
D84*
X0204700Y0122000D03*
X0147500Y0120600D03*
X0147900Y0082800D03*
D85*
X0148000Y0083000D03*
X0204600Y0084000D03*
D86*
X0204600Y0083000D03*
X0147400Y0122000D03*
D87*
X0147900Y0083200D03*
X0204500Y0084200D03*
X0204700Y0121800D03*
D88*
X0204600Y0083200D03*
X0147400Y0121600D03*
D89*
X0147900Y0083600D03*
X0147900Y0083400D03*
X0204500Y0084400D03*
X0204700Y0121600D03*
D90*
X0204700Y0121400D03*
X0204700Y0121200D03*
X0204500Y0084800D03*
X0147900Y0083800D03*
D91*
X0147400Y0120800D03*
X0204800Y0122200D03*
X0204600Y0083800D03*
D92*
X0147800Y0084000D03*
D93*
X0147900Y0084200D03*
X0204500Y0085000D03*
X0204700Y0121000D03*
D94*
X0204400Y0085200D03*
X0147800Y0084400D03*
D95*
X0147900Y0084600D03*
X0204500Y0085400D03*
X0204700Y0120800D03*
D96*
X0204600Y0084600D03*
D97*
X0204600Y0120600D03*
X0147800Y0084800D03*
D98*
X0147900Y0085000D03*
X0204500Y0085600D03*
X0204700Y0120400D03*
D99*
X0204600Y0120200D03*
X0204400Y0085800D03*
X0147800Y0085200D03*
D100*
X0135300Y0085400D03*
D101*
X0160900Y0085400D03*
X0161700Y0096000D03*
X0159100Y0120400D03*
D102*
X0134700Y0085600D03*
X0218100Y0087000D03*
D103*
X0219000Y0118400D03*
X0204600Y0130400D03*
X0159600Y0120200D03*
X0134600Y0111800D03*
X0161400Y0085600D03*
D104*
X0162600Y0095400D03*
X0134000Y0086000D03*
X0135200Y0120400D03*
X0147600Y0130600D03*
X0160000Y0120000D03*
X0189800Y0118200D03*
X0189800Y0087600D03*
X0219000Y0087600D03*
D105*
X0219400Y0088000D03*
X0220000Y0117600D03*
X0204600Y0130600D03*
X0163000Y0095000D03*
X0162200Y0086000D03*
X0133400Y0086400D03*
D106*
X0204500Y0086000D03*
D107*
X0204400Y0086200D03*
X0204600Y0120000D03*
D108*
X0188200Y0116600D03*
X0188000Y0116400D03*
X0161000Y0119200D03*
X0133400Y0112800D03*
X0132800Y0087000D03*
X0162600Y0086400D03*
X0188000Y0089400D03*
X0188200Y0089200D03*
X0220200Y0088800D03*
X0156600Y0147200D03*
X0154200Y0149800D03*
D109*
X0204700Y0119800D03*
X0204500Y0086400D03*
D110*
X0217100Y0086600D03*
X0191700Y0086600D03*
X0161100Y0096400D03*
X0135900Y0111000D03*
X0151500Y0150600D03*
X0191700Y0119200D03*
D111*
X0187500Y0115600D03*
X0187300Y0115400D03*
X0204500Y0130800D03*
X0221100Y0116200D03*
X0221300Y0116000D03*
X0220900Y0089800D03*
X0220700Y0089600D03*
X0187500Y0090200D03*
X0187300Y0090400D03*
X0163900Y0093800D03*
X0163100Y0086800D03*
X0132300Y0087600D03*
X0132100Y0088000D03*
X0133100Y0113200D03*
D112*
X0133000Y0113400D03*
X0133600Y0119400D03*
X0161600Y0118600D03*
X0187000Y0115000D03*
X0187000Y0114800D03*
X0187200Y0115200D03*
X0164000Y0093600D03*
X0163200Y0087000D03*
X0187000Y0090800D03*
X0187000Y0091000D03*
X0187200Y0090600D03*
X0221000Y0090000D03*
X0221200Y0090400D03*
X0221600Y0115400D03*
X0221400Y0115600D03*
X0221400Y0115800D03*
X0156400Y0147800D03*
X0156400Y0148000D03*
X0132000Y0088200D03*
X0132200Y0087800D03*
D113*
X0135200Y0111400D03*
X0147600Y0130400D03*
X0152200Y0150400D03*
X0190800Y0118800D03*
X0218400Y0118800D03*
X0190800Y0087000D03*
D114*
X0186900Y0091200D03*
X0186700Y0091400D03*
X0186700Y0091600D03*
X0164100Y0093400D03*
X0163500Y0087200D03*
X0186700Y0114200D03*
X0186700Y0114400D03*
X0186900Y0114600D03*
X0161700Y0118400D03*
X0133500Y0119200D03*
X0133300Y0119000D03*
X0132900Y0113600D03*
X0131700Y0088800D03*
X0131900Y0088400D03*
X0154900Y0149600D03*
X0221700Y0115200D03*
X0221700Y0115000D03*
X0221300Y0090600D03*
X0221100Y0090200D03*
D115*
X0221400Y0090800D03*
X0221400Y0091000D03*
X0221600Y0091200D03*
X0221600Y0091400D03*
X0222000Y0114400D03*
X0222000Y0114600D03*
X0221800Y0114800D03*
X0186600Y0114000D03*
X0186400Y0113800D03*
X0186400Y0113600D03*
X0186200Y0113200D03*
X0186200Y0092600D03*
X0186200Y0092400D03*
X0186400Y0092200D03*
X0186400Y0092000D03*
X0186600Y0091800D03*
X0164200Y0093200D03*
X0163600Y0087400D03*
X0131800Y0088600D03*
X0131600Y0089000D03*
X0132800Y0113800D03*
X0133200Y0118800D03*
X0161800Y0118200D03*
X0162000Y0118000D03*
X0162000Y0117800D03*
X0156400Y0148200D03*
D116*
X0152900Y0150200D03*
X0190100Y0118400D03*
X0219300Y0118200D03*
X0218700Y0087400D03*
X0190100Y0087400D03*
D117*
X0186100Y0092800D03*
X0186100Y0093000D03*
X0185900Y0093200D03*
X0185900Y0093400D03*
X0185700Y0093800D03*
X0185700Y0112000D03*
X0185900Y0112400D03*
X0185900Y0112600D03*
X0186100Y0112800D03*
X0186100Y0113000D03*
X0186300Y0113400D03*
X0164300Y0093000D03*
X0164300Y0092800D03*
X0163900Y0088000D03*
X0163700Y0087600D03*
X0131500Y0089200D03*
X0131500Y0089400D03*
X0131300Y0089800D03*
X0132700Y0114000D03*
X0133100Y0118600D03*
X0147700Y0131000D03*
X0162100Y0117600D03*
X0156300Y0148400D03*
X0222100Y0114200D03*
X0222100Y0114000D03*
X0222300Y0113600D03*
X0221900Y0092000D03*
X0221700Y0091600D03*
D118*
X0189500Y0087800D03*
X0189500Y0118000D03*
X0134300Y0112000D03*
D119*
X0134100Y0112200D03*
X0134700Y0120200D03*
X0160300Y0119800D03*
X0189100Y0117600D03*
X0189300Y0117800D03*
X0156900Y0146400D03*
X0189100Y0088200D03*
X0189300Y0088000D03*
D120*
X0188900Y0088400D03*
X0188700Y0088600D03*
X0219700Y0088200D03*
X0188900Y0117400D03*
X0188700Y0117200D03*
X0160500Y0119600D03*
X0133900Y0112400D03*
X0156900Y0146600D03*
D121*
X0132600Y0117600D03*
X0132600Y0117400D03*
X0132600Y0117200D03*
X0132400Y0117000D03*
X0132400Y0116800D03*
X0132400Y0116600D03*
X0132400Y0116400D03*
X0132400Y0116200D03*
X0132400Y0116000D03*
X0132400Y0115800D03*
X0132400Y0115600D03*
X0132400Y0115400D03*
X0132400Y0115200D03*
X0132400Y0115000D03*
X0130800Y0093600D03*
X0130800Y0093400D03*
X0130800Y0093200D03*
X0130800Y0093000D03*
X0130800Y0092800D03*
X0130800Y0092600D03*
X0130800Y0092400D03*
X0130800Y0092200D03*
X0130800Y0092000D03*
X0162600Y0116000D03*
X0162600Y0116200D03*
X0162800Y0115600D03*
X0162800Y0115400D03*
X0162800Y0115200D03*
X0162800Y0115000D03*
X0162800Y0114800D03*
X0162800Y0114600D03*
X0162800Y0114400D03*
X0162800Y0114200D03*
X0162800Y0114000D03*
X0184800Y0109000D03*
X0184800Y0108800D03*
X0184600Y0108000D03*
X0184600Y0107800D03*
X0184600Y0107600D03*
X0184600Y0107400D03*
X0184400Y0107000D03*
X0184400Y0106800D03*
X0184400Y0106600D03*
X0184400Y0106400D03*
X0184400Y0106200D03*
X0184400Y0106000D03*
X0184400Y0105800D03*
X0184400Y0105600D03*
X0184400Y0105400D03*
X0184200Y0105200D03*
X0184200Y0105000D03*
X0184200Y0104800D03*
X0184200Y0104600D03*
X0184200Y0104400D03*
X0184200Y0104200D03*
X0184200Y0104000D03*
X0184200Y0103800D03*
X0184200Y0103600D03*
X0184200Y0103400D03*
X0184200Y0103200D03*
X0184200Y0103000D03*
X0184200Y0102800D03*
X0184200Y0102600D03*
X0184200Y0102400D03*
X0184200Y0102200D03*
X0184200Y0102000D03*
X0184200Y0101800D03*
X0184200Y0101600D03*
X0184200Y0101400D03*
X0184200Y0101200D03*
X0184200Y0101000D03*
X0184200Y0100800D03*
X0184200Y0100600D03*
X0184400Y0100200D03*
X0184400Y0100000D03*
X0184400Y0099800D03*
X0184400Y0099600D03*
X0184400Y0099400D03*
X0184400Y0099200D03*
X0184400Y0099000D03*
X0184400Y0098800D03*
X0184600Y0098400D03*
X0184600Y0098200D03*
X0184600Y0098000D03*
X0184600Y0097800D03*
X0184800Y0097000D03*
X0184800Y0096800D03*
X0164600Y0091800D03*
X0164600Y0091600D03*
X0164600Y0091400D03*
X0164600Y0091200D03*
X0164600Y0091000D03*
X0164600Y0090800D03*
X0164600Y0090600D03*
X0164400Y0089600D03*
X0164400Y0089400D03*
X0164400Y0089200D03*
X0164200Y0088800D03*
X0222400Y0093800D03*
X0222600Y0094600D03*
X0222600Y0094800D03*
X0222600Y0095000D03*
X0222600Y0095200D03*
X0222600Y0095400D03*
X0222800Y0095800D03*
X0222800Y0096000D03*
X0222800Y0096200D03*
X0222800Y0096400D03*
X0222800Y0096600D03*
X0222800Y0111000D03*
X0222800Y0111200D03*
X0222800Y0111400D03*
D122*
X0220500Y0117000D03*
X0188500Y0117000D03*
X0188300Y0116800D03*
X0163300Y0094600D03*
X0188300Y0089000D03*
X0188500Y0088800D03*
X0147700Y0130800D03*
X0156700Y0147000D03*
X0133700Y0112600D03*
D123*
X0133800Y0119600D03*
X0161200Y0119000D03*
X0161400Y0118800D03*
X0187600Y0115800D03*
X0187800Y0116000D03*
X0163800Y0094000D03*
X0187600Y0090000D03*
X0187800Y0089800D03*
X0220600Y0089400D03*
X0221000Y0116400D03*
X0156600Y0147400D03*
X0156600Y0147600D03*
D124*
X0156100Y0149000D03*
X0155900Y0149200D03*
X0204500Y0131000D03*
X0184300Y0100400D03*
X0164500Y0090400D03*
X0164500Y0090200D03*
X0164500Y0090000D03*
X0164500Y0089800D03*
X0130700Y0093800D03*
D125*
X0160700Y0096600D03*
X0217300Y0119200D03*
X0150900Y0150800D03*
D126*
X0160300Y0096800D03*
D127*
X0160000Y0097000D03*
D128*
X0159500Y0097200D03*
D129*
X0158700Y0097600D03*
X0147500Y0129400D03*
D130*
X0158200Y0097800D03*
D131*
X0157800Y0098000D03*
D132*
X0155300Y0099200D03*
X0141500Y0108400D03*
X0147500Y0128000D03*
X0204700Y0127800D03*
D133*
X0153900Y0100000D03*
X0142900Y0107600D03*
D134*
X0153600Y0100200D03*
D135*
X0152900Y0100600D03*
X0147500Y0126800D03*
D136*
X0147500Y0126200D03*
X0145500Y0106000D03*
X0151300Y0101600D03*
D137*
X0150600Y0102200D03*
X0146600Y0105200D03*
X0146400Y0105400D03*
D138*
X0144600Y0106600D03*
X0147400Y0126600D03*
D139*
X0144000Y0107000D03*
D140*
X0143700Y0107200D03*
X0147500Y0127000D03*
X0204700Y0126800D03*
D141*
X0204700Y0127600D03*
X0141900Y0108200D03*
D142*
X0141100Y0108600D03*
X0147500Y0128200D03*
X0204700Y0128000D03*
D143*
X0147500Y0128600D03*
X0140300Y0109000D03*
D144*
X0138500Y0109800D03*
D145*
X0138100Y0110000D03*
D146*
X0137600Y0110200D03*
X0147600Y0129600D03*
X0204600Y0129400D03*
D147*
X0204600Y0129600D03*
X0147600Y0129800D03*
X0137200Y0110400D03*
D148*
X0222800Y0110800D03*
D149*
X0113700Y0116400D03*
X0105300Y0116400D03*
D150*
X0105000Y0116600D03*
X0114000Y0116600D03*
X0109800Y0127400D03*
X0131000Y0153400D03*
X0124800Y0166000D03*
X0150600Y0144600D03*
X0150600Y0144400D03*
X0163400Y0145200D03*
D151*
X0150200Y0152200D03*
X0150000Y0152400D03*
X0114200Y0116800D03*
D152*
X0113100Y0124600D03*
X0105900Y0124600D03*
X0104500Y0117000D03*
X0150100Y0143800D03*
X0150300Y0144000D03*
D153*
X0150000Y0143600D03*
X0157400Y0152600D03*
X0163600Y0145000D03*
X0147800Y0131800D03*
X0114400Y0117000D03*
X0104400Y0117200D03*
X0104200Y0117400D03*
X0099000Y0143200D03*
X0109000Y0144600D03*
X0097800Y0154400D03*
D154*
X0124400Y0162000D03*
X0149400Y0152800D03*
X0149600Y0152600D03*
X0149800Y0143200D03*
X0149600Y0143000D03*
X0114600Y0117400D03*
X0109400Y0118600D03*
X0103800Y0118000D03*
X0103800Y0117800D03*
X0103000Y0119800D03*
X0103000Y0120000D03*
X0103000Y0120200D03*
X0109800Y0127600D03*
X0204600Y0131800D03*
D155*
X0163000Y0137600D03*
X0163000Y0138000D03*
X0163000Y0138200D03*
X0162800Y0137200D03*
X0153800Y0134600D03*
X0153600Y0134800D03*
X0153400Y0135000D03*
X0152400Y0154200D03*
X0152400Y0156600D03*
X0131800Y0157600D03*
X0131800Y0158000D03*
X0131800Y0159800D03*
X0131800Y0160000D03*
X0127000Y0161200D03*
X0126800Y0161400D03*
X0122200Y0161400D03*
X0121800Y0161200D03*
X0127200Y0156400D03*
X0126800Y0156000D03*
X0126600Y0155800D03*
X0122000Y0156000D03*
X0121800Y0156200D03*
X0105600Y0149200D03*
X0105400Y0149600D03*
X0106000Y0148200D03*
X0106200Y0147600D03*
X0106400Y0147000D03*
X0106600Y0146400D03*
X0107000Y0145400D03*
X0107200Y0145000D03*
X0108400Y0141800D03*
X0108600Y0141200D03*
X0108800Y0140600D03*
X0109400Y0139200D03*
X0109400Y0139000D03*
X0109600Y0138600D03*
X0109600Y0138400D03*
X0109800Y0138000D03*
X0110000Y0137400D03*
X0110400Y0136400D03*
X0110600Y0135800D03*
X0110800Y0135200D03*
X0111200Y0134400D03*
X0111400Y0133800D03*
X0111600Y0133400D03*
X0111600Y0133200D03*
X0111800Y0132800D03*
X0111800Y0132600D03*
X0112000Y0132200D03*
X0112400Y0131200D03*
X0112600Y0130600D03*
X0112800Y0130000D03*
X0113000Y0129400D03*
X0113400Y0128400D03*
X0113600Y0127800D03*
X0113800Y0127400D03*
X0109400Y0123400D03*
X0111400Y0121800D03*
X0111600Y0121600D03*
X0111600Y0121400D03*
X0111800Y0121200D03*
X0111800Y0121000D03*
X0111800Y0120800D03*
X0111800Y0120600D03*
X0111800Y0120200D03*
X0111800Y0120000D03*
X0111800Y0119800D03*
X0111600Y0119600D03*
X0111600Y0119400D03*
X0111400Y0119200D03*
X0109400Y0117600D03*
X0107400Y0119400D03*
X0107400Y0119600D03*
X0107200Y0119800D03*
X0107200Y0120000D03*
X0107200Y0121000D03*
X0107200Y0121200D03*
X0107400Y0121400D03*
X0107400Y0121600D03*
X0100400Y0122800D03*
X0100400Y0123000D03*
X0100200Y0123400D03*
X0100200Y0123600D03*
X0100000Y0124000D03*
X0099400Y0125600D03*
X0099200Y0126200D03*
X0099000Y0126600D03*
X0099000Y0126800D03*
X0098200Y0128600D03*
X0098200Y0128800D03*
X0098000Y0129200D03*
X0098000Y0129400D03*
X0097800Y0129800D03*
X0097400Y0130800D03*
X0097200Y0131400D03*
X0097000Y0132000D03*
X0096400Y0133600D03*
X0096200Y0134000D03*
X0096200Y0134200D03*
X0096000Y0134600D03*
X0095800Y0135000D03*
X0095800Y0135200D03*
X0095600Y0135600D03*
X0095000Y0137200D03*
X0094800Y0137800D03*
X0094200Y0139400D03*
X0094000Y0139800D03*
X0094000Y0140000D03*
X0093800Y0140400D03*
X0093800Y0140600D03*
X0093400Y0141600D03*
X0093200Y0142000D03*
X0092800Y0143000D03*
X0092600Y0143600D03*
X0092400Y0144200D03*
X0092200Y0144600D03*
X0092200Y0144800D03*
X0092200Y0145000D03*
X0092000Y0145200D03*
X0092000Y0145400D03*
X0092000Y0145600D03*
X0092000Y0146200D03*
X0091800Y0146600D03*
X0091800Y0147000D03*
X0096200Y0148800D03*
X0096400Y0149000D03*
X0096600Y0149200D03*
X0101400Y0149000D03*
X0101600Y0144000D03*
X0096600Y0143800D03*
D156*
X0098900Y0143000D03*
X0108900Y0144400D03*
X0124500Y0155200D03*
X0149900Y0158200D03*
X0157500Y0152800D03*
X0163900Y0144800D03*
X0149500Y0142800D03*
X0113700Y0124200D03*
X0109500Y0122600D03*
X0109500Y0122400D03*
X0109500Y0118400D03*
X0114700Y0117600D03*
X0105300Y0124200D03*
X0103100Y0119600D03*
X0103300Y0119200D03*
X0103500Y0118800D03*
X0103500Y0118600D03*
X0103700Y0118400D03*
X0103700Y0118200D03*
D157*
X0109500Y0117800D03*
X0108300Y0143800D03*
X0098900Y0142600D03*
X0098900Y0145800D03*
X0098900Y0147200D03*
X0102500Y0152800D03*
X0093900Y0152000D03*
X0093700Y0151800D03*
X0124500Y0158000D03*
X0150500Y0138600D03*
X0150700Y0138400D03*
X0150900Y0138200D03*
X0163900Y0142000D03*
X0164100Y0142800D03*
X0164100Y0143000D03*
X0153500Y0157000D03*
D158*
X0149000Y0153400D03*
X0149200Y0153000D03*
X0149400Y0142600D03*
X0124400Y0162200D03*
X0095400Y0153000D03*
X0105000Y0124000D03*
X0103200Y0119400D03*
X0103400Y0119000D03*
X0114800Y0117800D03*
X0114000Y0124000D03*
D159*
X0115100Y0122000D03*
X0115300Y0121400D03*
X0115300Y0121200D03*
X0115300Y0121000D03*
X0115300Y0120800D03*
X0115300Y0120600D03*
X0115300Y0120400D03*
X0115300Y0120200D03*
X0115300Y0120000D03*
X0115300Y0119800D03*
X0115300Y0119600D03*
X0109500Y0118000D03*
X0109500Y0123000D03*
X0109700Y0127800D03*
X0103900Y0122000D03*
X0103700Y0121400D03*
X0103700Y0121200D03*
X0103700Y0121000D03*
X0098900Y0146400D03*
X0098900Y0146600D03*
X0098900Y0150200D03*
X0101900Y0153000D03*
X0094100Y0152200D03*
X0124300Y0162400D03*
X0124500Y0158800D03*
X0124500Y0158400D03*
X0127900Y0152600D03*
X0127300Y0152200D03*
X0148700Y0141600D03*
X0148700Y0141400D03*
X0149700Y0139600D03*
X0149900Y0139400D03*
X0150100Y0139200D03*
X0164300Y0144000D03*
X0164300Y0144200D03*
X0158100Y0154200D03*
X0158100Y0154400D03*
X0158100Y0154600D03*
X0158100Y0154800D03*
X0158100Y0155000D03*
X0158100Y0155200D03*
X0158100Y0155800D03*
X0158100Y0156000D03*
X0158100Y0156200D03*
X0158100Y0156400D03*
X0157900Y0156800D03*
D160*
X0157100Y0158000D03*
X0156900Y0158200D03*
X0157500Y0153000D03*
X0149100Y0153200D03*
X0148900Y0153600D03*
X0149500Y0157800D03*
X0149700Y0158000D03*
X0149300Y0142400D03*
X0164100Y0144600D03*
X0121500Y0165000D03*
X0098900Y0150000D03*
X0097500Y0154600D03*
X0108700Y0144200D03*
X0104900Y0123800D03*
X0104700Y0123600D03*
X0109500Y0122800D03*
X0114100Y0123800D03*
X0114300Y0123600D03*
X0114900Y0118000D03*
X0109500Y0118200D03*
D161*
X0115000Y0118200D03*
X0115000Y0118400D03*
X0114400Y0123400D03*
X0104400Y0123200D03*
X0110200Y0144800D03*
X0112200Y0145600D03*
X0116200Y0147400D03*
X0117200Y0147800D03*
X0117800Y0148000D03*
X0122800Y0150200D03*
X0115400Y0162400D03*
X0108400Y0159400D03*
X0104800Y0157800D03*
X0102800Y0157000D03*
X0098800Y0155200D03*
X0095000Y0152800D03*
X0148800Y0153800D03*
X0148800Y0154000D03*
X0149000Y0157000D03*
X0149200Y0157200D03*
X0149200Y0157400D03*
X0149400Y0157600D03*
X0157200Y0157800D03*
X0157400Y0157600D03*
X0157800Y0153400D03*
X0157600Y0153200D03*
X0149000Y0142200D03*
D162*
X0148900Y0142000D03*
X0148700Y0141200D03*
X0148700Y0141000D03*
X0148900Y0140800D03*
X0149100Y0140600D03*
X0149300Y0140200D03*
X0148700Y0154200D03*
X0148700Y0154400D03*
X0148700Y0154600D03*
X0148700Y0154800D03*
X0148500Y0155000D03*
X0148700Y0156000D03*
X0148700Y0156200D03*
X0148900Y0156400D03*
X0148900Y0156600D03*
X0148900Y0156800D03*
X0153500Y0154000D03*
X0157900Y0153600D03*
X0157700Y0157200D03*
X0157700Y0157400D03*
X0164300Y0144400D03*
X0130300Y0153600D03*
X0126700Y0152000D03*
X0126100Y0151600D03*
X0125500Y0151400D03*
X0124100Y0150800D03*
X0123500Y0150600D03*
X0123100Y0150400D03*
X0121900Y0149800D03*
X0120900Y0149400D03*
X0120500Y0149200D03*
X0119900Y0149000D03*
X0119500Y0148800D03*
X0119100Y0148600D03*
X0118500Y0148400D03*
X0116700Y0147600D03*
X0115900Y0147200D03*
X0115300Y0147000D03*
X0114900Y0146800D03*
X0114300Y0146600D03*
X0113900Y0146400D03*
X0113500Y0146200D03*
X0112900Y0146000D03*
X0112700Y0145800D03*
X0111500Y0145400D03*
X0110900Y0145000D03*
X0108500Y0144000D03*
X0098900Y0142800D03*
X0094700Y0152600D03*
X0097900Y0154800D03*
X0099100Y0155400D03*
X0099700Y0155600D03*
X0100100Y0155800D03*
X0101500Y0156400D03*
X0102100Y0156600D03*
X0102500Y0156800D03*
X0103500Y0157200D03*
X0103900Y0157400D03*
X0105700Y0158200D03*
X0106100Y0158400D03*
X0106500Y0158600D03*
X0107100Y0158800D03*
X0107900Y0159200D03*
X0109700Y0160000D03*
X0110300Y0160200D03*
X0110700Y0160400D03*
X0111100Y0160600D03*
X0111700Y0160800D03*
X0112100Y0161000D03*
X0112700Y0161200D03*
X0113100Y0161400D03*
X0113500Y0161600D03*
X0114100Y0161800D03*
X0114500Y0162000D03*
X0114700Y0162200D03*
X0115900Y0162600D03*
X0116700Y0163000D03*
X0117700Y0163400D03*
X0118100Y0163600D03*
X0118700Y0163800D03*
X0119100Y0164000D03*
X0120300Y0164600D03*
X0121100Y0164800D03*
X0124500Y0155000D03*
X0114500Y0123200D03*
X0114700Y0123000D03*
X0114900Y0122600D03*
X0115100Y0118800D03*
X0115100Y0118600D03*
X0104500Y0123400D03*
X0104300Y0123000D03*
X0104100Y0122800D03*
X0104100Y0122600D03*
D163*
X0108100Y0118800D03*
X0110900Y0118800D03*
X0098900Y0145200D03*
X0098900Y0147600D03*
X0103700Y0152000D03*
X0104100Y0151600D03*
X0092700Y0150400D03*
X0092500Y0150200D03*
X0092500Y0150000D03*
X0092300Y0149800D03*
X0126100Y0155600D03*
X0130100Y0154200D03*
X0130500Y0154800D03*
X0130500Y0163000D03*
X0130300Y0163200D03*
X0152100Y0136600D03*
X0152300Y0136400D03*
X0152500Y0136200D03*
X0163500Y0140000D03*
X0163500Y0140200D03*
D164*
X0163300Y0139200D03*
X0163100Y0138600D03*
X0163100Y0138400D03*
X0162900Y0137800D03*
X0153300Y0135200D03*
X0153100Y0135400D03*
X0131300Y0156000D03*
X0131300Y0156200D03*
X0131500Y0156400D03*
X0131500Y0156600D03*
X0131700Y0156800D03*
X0131700Y0157000D03*
X0131700Y0157200D03*
X0131700Y0157400D03*
X0131900Y0157800D03*
X0131900Y0158200D03*
X0131900Y0158400D03*
X0131900Y0158600D03*
X0131900Y0158800D03*
X0131900Y0159000D03*
X0131900Y0159200D03*
X0131900Y0159400D03*
X0131900Y0159600D03*
X0131700Y0160200D03*
X0131700Y0160400D03*
X0131700Y0160600D03*
X0131500Y0160800D03*
X0131500Y0161000D03*
X0131500Y0161200D03*
X0131300Y0161400D03*
X0131300Y0161600D03*
X0131300Y0161800D03*
X0126500Y0161600D03*
X0124500Y0160000D03*
X0122300Y0155800D03*
X0105900Y0148600D03*
X0105900Y0148400D03*
X0105700Y0148800D03*
X0105700Y0149000D03*
X0105500Y0149400D03*
X0105300Y0149800D03*
X0105100Y0150200D03*
X0104900Y0150400D03*
X0104900Y0150600D03*
X0104700Y0150800D03*
X0106100Y0148000D03*
X0106100Y0147800D03*
X0106300Y0147400D03*
X0106300Y0147200D03*
X0106500Y0146800D03*
X0106500Y0146600D03*
X0106700Y0146200D03*
X0106700Y0146000D03*
X0106900Y0145800D03*
X0106900Y0145600D03*
X0107100Y0145200D03*
X0107300Y0144800D03*
X0107900Y0143200D03*
X0107900Y0143000D03*
X0107900Y0142800D03*
X0108100Y0142600D03*
X0108100Y0142400D03*
X0108300Y0142200D03*
X0108300Y0142000D03*
X0108500Y0141600D03*
X0108500Y0141400D03*
X0108700Y0141000D03*
X0108700Y0140800D03*
X0108900Y0140400D03*
X0108900Y0140200D03*
X0109100Y0140000D03*
X0109100Y0139800D03*
X0109300Y0139600D03*
X0109300Y0139400D03*
X0109500Y0138800D03*
X0109700Y0138200D03*
X0109900Y0137800D03*
X0109900Y0137600D03*
X0110100Y0137200D03*
X0110100Y0137000D03*
X0110300Y0136800D03*
X0110300Y0136600D03*
X0110500Y0136200D03*
X0110500Y0136000D03*
X0110700Y0135600D03*
X0110700Y0135400D03*
X0110900Y0135000D03*
X0110900Y0134800D03*
X0111100Y0134600D03*
X0111300Y0134200D03*
X0111300Y0134000D03*
X0111500Y0133600D03*
X0111700Y0133000D03*
X0111900Y0132400D03*
X0112100Y0132000D03*
X0112100Y0131800D03*
X0112300Y0131600D03*
X0112300Y0131400D03*
X0112500Y0131000D03*
X0112500Y0130800D03*
X0112700Y0130400D03*
X0112700Y0130200D03*
X0112900Y0129800D03*
X0112900Y0129600D03*
X0113100Y0129200D03*
X0113100Y0129000D03*
X0113300Y0128800D03*
X0113300Y0128600D03*
X0113500Y0128200D03*
X0113500Y0128000D03*
X0113700Y0127600D03*
X0107500Y0121800D03*
X0107500Y0119200D03*
X0107700Y0119000D03*
X0101100Y0121000D03*
X0101100Y0121200D03*
X0100900Y0121400D03*
X0100900Y0121800D03*
X0100700Y0122000D03*
X0100700Y0122200D03*
X0100500Y0122400D03*
X0100500Y0122600D03*
X0100300Y0123200D03*
X0100100Y0123800D03*
X0099900Y0124200D03*
X0099900Y0124400D03*
X0099700Y0124600D03*
X0099700Y0124800D03*
X0099700Y0125000D03*
X0099500Y0125200D03*
X0099500Y0125400D03*
X0099300Y0125800D03*
X0099300Y0126000D03*
X0099100Y0126400D03*
X0098900Y0127000D03*
X0098700Y0127200D03*
X0098700Y0127400D03*
X0098500Y0127800D03*
X0098500Y0128000D03*
X0098300Y0128200D03*
X0098300Y0128400D03*
X0098100Y0129000D03*
X0097900Y0129600D03*
X0097700Y0130000D03*
X0097700Y0130200D03*
X0097500Y0130400D03*
X0097500Y0130600D03*
X0097300Y0131000D03*
X0097300Y0131200D03*
X0097100Y0131600D03*
X0097100Y0131800D03*
X0096900Y0132200D03*
X0096900Y0132400D03*
X0096700Y0132600D03*
X0096700Y0132800D03*
X0096700Y0133000D03*
X0096500Y0133200D03*
X0096500Y0133400D03*
X0096300Y0133800D03*
X0096100Y0134400D03*
X0095900Y0134800D03*
X0095700Y0135400D03*
X0095500Y0135800D03*
X0095500Y0136000D03*
X0095300Y0136200D03*
X0095300Y0136400D03*
X0095300Y0136600D03*
X0095100Y0136800D03*
X0095100Y0137000D03*
X0094900Y0137400D03*
X0094900Y0137600D03*
X0094700Y0138000D03*
X0094700Y0138200D03*
X0094500Y0138400D03*
X0094500Y0138600D03*
X0094500Y0138800D03*
X0094300Y0139000D03*
X0094300Y0139200D03*
X0094100Y0139600D03*
X0093900Y0140200D03*
X0093700Y0140800D03*
X0093700Y0141000D03*
X0093500Y0141200D03*
X0093500Y0141400D03*
X0093300Y0141800D03*
X0093100Y0142200D03*
X0093100Y0142400D03*
X0092900Y0142600D03*
X0092900Y0142800D03*
X0092700Y0143200D03*
X0092700Y0143400D03*
X0092500Y0143800D03*
X0092500Y0144000D03*
X0092300Y0144400D03*
X0091900Y0145800D03*
X0091900Y0146000D03*
X0091900Y0146400D03*
X0091900Y0146800D03*
X0091900Y0147200D03*
X0091900Y0147400D03*
X0091900Y0147600D03*
X0091900Y0147800D03*
X0091900Y0148000D03*
X0091900Y0148200D03*
X0092100Y0148800D03*
X0092100Y0149000D03*
X0096900Y0149400D03*
X0098900Y0147800D03*
X0100900Y0149400D03*
X0101100Y0149200D03*
X0101300Y0143800D03*
X0101100Y0143600D03*
D165*
X0100800Y0143400D03*
X0097200Y0143400D03*
X0096800Y0143600D03*
X0092000Y0148400D03*
X0092000Y0148600D03*
X0092200Y0149200D03*
X0092200Y0149400D03*
X0092400Y0149600D03*
X0104200Y0151400D03*
X0104400Y0151200D03*
X0104600Y0151000D03*
X0105200Y0150000D03*
X0107800Y0143400D03*
X0122600Y0155600D03*
X0124400Y0157400D03*
X0122400Y0161600D03*
X0130200Y0163400D03*
X0130600Y0162800D03*
X0130800Y0162600D03*
X0131000Y0162400D03*
X0131000Y0162200D03*
X0131200Y0162000D03*
X0131200Y0155800D03*
X0131200Y0155600D03*
X0131000Y0155400D03*
X0131000Y0155200D03*
X0130800Y0155000D03*
X0130400Y0154600D03*
X0130200Y0154400D03*
X0152600Y0136000D03*
X0152800Y0135800D03*
X0153000Y0135600D03*
X0163200Y0138800D03*
X0163200Y0139000D03*
X0163200Y0139400D03*
X0163400Y0139600D03*
X0163400Y0139800D03*
X0153400Y0157400D03*
X0111200Y0122000D03*
X0111200Y0119000D03*
X0107800Y0122000D03*
X0101000Y0121600D03*
X0098600Y0127600D03*
D166*
X0104000Y0122400D03*
X0104000Y0122200D03*
X0103800Y0121800D03*
X0103800Y0121600D03*
X0114800Y0122800D03*
X0115000Y0122400D03*
X0115000Y0122200D03*
X0115200Y0121800D03*
X0115200Y0121600D03*
X0115200Y0119400D03*
X0115200Y0119200D03*
X0115200Y0119000D03*
X0111200Y0145200D03*
X0118000Y0148200D03*
X0121200Y0149600D03*
X0122200Y0150000D03*
X0124600Y0151000D03*
X0125000Y0151200D03*
X0126400Y0151800D03*
X0127600Y0152400D03*
X0120000Y0164400D03*
X0119600Y0164200D03*
X0117200Y0163200D03*
X0116200Y0162800D03*
X0109400Y0159800D03*
X0109000Y0159600D03*
X0107600Y0159000D03*
X0105200Y0158000D03*
X0104200Y0157600D03*
X0101000Y0156200D03*
X0100600Y0156000D03*
X0098400Y0155000D03*
X0124800Y0166400D03*
X0148600Y0155800D03*
X0148600Y0155600D03*
X0148600Y0155400D03*
X0148600Y0155200D03*
X0153400Y0156800D03*
X0157800Y0157000D03*
X0158000Y0156600D03*
X0158200Y0155600D03*
X0158000Y0154000D03*
X0158000Y0153800D03*
X0148800Y0141800D03*
X0149200Y0140400D03*
X0149400Y0140000D03*
X0149600Y0139800D03*
D167*
X0204700Y0119400D03*
D168*
X0204600Y0119600D03*
D169*
X0162700Y0136800D03*
X0162900Y0137400D03*
X0154100Y0134200D03*
X0153900Y0134400D03*
X0154700Y0154200D03*
X0154900Y0154400D03*
X0155100Y0154800D03*
X0154700Y0156600D03*
X0152100Y0156400D03*
X0151900Y0156200D03*
X0152100Y0154400D03*
X0127700Y0157000D03*
X0127500Y0156600D03*
X0127100Y0156200D03*
X0124500Y0157200D03*
X0121700Y0156400D03*
X0121500Y0156600D03*
X0121300Y0156800D03*
X0121300Y0160400D03*
X0121500Y0160800D03*
X0121700Y0161000D03*
X0127100Y0161000D03*
X0127500Y0160600D03*
X0127700Y0160200D03*
X0102100Y0148200D03*
X0101700Y0148800D03*
X0095900Y0148400D03*
X0095700Y0148000D03*
X0095700Y0144800D03*
X0095900Y0144400D03*
X0096100Y0144200D03*
X0096300Y0144000D03*
X0098900Y0145000D03*
X0098900Y0142400D03*
X0101900Y0144400D03*
X0107100Y0120800D03*
X0107100Y0120600D03*
X0107100Y0120400D03*
X0107100Y0120200D03*
X0111900Y0120400D03*
D170*
X0147500Y0122600D03*
X0204700Y0123200D03*
D171*
X0204800Y0123600D03*
X0147400Y0123000D03*
D172*
X0151700Y0137200D03*
X0151500Y0137400D03*
X0151300Y0137600D03*
X0163700Y0141200D03*
X0163700Y0141400D03*
X0153500Y0157200D03*
X0124500Y0157600D03*
X0124500Y0154800D03*
X0108100Y0143600D03*
X0098900Y0145400D03*
X0097500Y0149600D03*
X0099100Y0150400D03*
X0100300Y0149600D03*
X0103100Y0152400D03*
X0093300Y0151400D03*
X0093300Y0151200D03*
X0109500Y0123200D03*
D173*
X0147400Y0123400D03*
X0204800Y0123800D03*
D174*
X0204800Y0124000D03*
X0147400Y0123600D03*
D175*
X0147400Y0124200D03*
X0204800Y0124400D03*
D176*
X0204800Y0124200D03*
D177*
X0204800Y0124600D03*
X0147400Y0124400D03*
D178*
X0147400Y0124600D03*
X0204800Y0124800D03*
D179*
X0109600Y0124800D03*
D180*
X0109600Y0125000D03*
X0109600Y0125200D03*
D181*
X0204800Y0125000D03*
D182*
X0109600Y0125400D03*
D183*
X0109800Y0125800D03*
D184*
X0109800Y0126000D03*
X0133000Y0164400D03*
X0126200Y0165600D03*
D185*
X0132100Y0152800D03*
X0153300Y0158800D03*
X0153300Y0159000D03*
X0109900Y0126200D03*
D186*
X0110000Y0126400D03*
X0098400Y0153200D03*
D187*
X0110100Y0126600D03*
X0152900Y0145800D03*
X0153300Y0159400D03*
D188*
X0110200Y0126800D03*
D189*
X0110400Y0127200D03*
X0135200Y0152400D03*
X0135400Y0164200D03*
D190*
X0147500Y0127600D03*
X0204700Y0127400D03*
D191*
X0204700Y0128600D03*
X0147500Y0128800D03*
D192*
X0147500Y0129000D03*
X0204700Y0128800D03*
D193*
X0204700Y0129000D03*
X0147500Y0129200D03*
D194*
X0204600Y0129200D03*
D195*
X0204600Y0129800D03*
X0147600Y0130000D03*
D196*
X0204600Y0130000D03*
D197*
X0147600Y0130200D03*
D198*
X0204600Y0130200D03*
D199*
X0147700Y0131200D03*
D200*
X0204500Y0131200D03*
D201*
X0147700Y0131400D03*
D202*
X0153300Y0158600D03*
X0204500Y0131400D03*
D203*
X0162300Y0134400D03*
X0162300Y0134800D03*
X0162300Y0135000D03*
X0162100Y0134000D03*
X0162100Y0133800D03*
X0156100Y0131600D03*
X0155900Y0131800D03*
X0155700Y0132200D03*
X0155500Y0132400D03*
X0143300Y0150200D03*
X0140500Y0152200D03*
X0132500Y0153600D03*
X0131700Y0153800D03*
X0124300Y0160200D03*
X0138100Y0163000D03*
X0152100Y0162000D03*
D204*
X0153300Y0160000D03*
X0148900Y0161800D03*
X0145500Y0162400D03*
X0144700Y0162600D03*
X0143500Y0162800D03*
X0140900Y0163200D03*
X0140100Y0163400D03*
X0138700Y0163600D03*
X0136700Y0164000D03*
X0130700Y0165000D03*
X0137300Y0152000D03*
X0138500Y0151800D03*
X0139900Y0151600D03*
X0141900Y0151200D03*
X0143300Y0151000D03*
X0204500Y0131600D03*
D205*
X0162400Y0135200D03*
X0162400Y0135400D03*
X0162200Y0134600D03*
X0162200Y0134200D03*
X0155800Y0132000D03*
X0155400Y0132600D03*
X0155200Y0132800D03*
D206*
X0155000Y0133000D03*
X0154600Y0133600D03*
X0154400Y0133800D03*
X0154200Y0134000D03*
X0162600Y0136000D03*
X0162600Y0136200D03*
X0162600Y0136400D03*
X0162600Y0136600D03*
X0162800Y0137000D03*
X0155000Y0154600D03*
X0155200Y0155200D03*
X0155200Y0155400D03*
X0155200Y0155600D03*
X0155000Y0156200D03*
X0154800Y0156400D03*
X0151800Y0156000D03*
X0151800Y0155800D03*
X0151800Y0155200D03*
X0151800Y0155000D03*
X0151800Y0154800D03*
X0151800Y0154600D03*
X0128000Y0157800D03*
X0128000Y0158000D03*
X0128000Y0158200D03*
X0128000Y0158400D03*
X0128000Y0158600D03*
X0128000Y0158800D03*
X0128000Y0159000D03*
X0128000Y0159200D03*
X0128000Y0159400D03*
X0128000Y0159600D03*
X0127800Y0159800D03*
X0127800Y0160000D03*
X0127600Y0160400D03*
X0127400Y0160800D03*
X0127800Y0157400D03*
X0127800Y0157200D03*
X0127600Y0156800D03*
X0121400Y0160600D03*
X0121200Y0160200D03*
X0121000Y0160000D03*
X0121000Y0159800D03*
X0121000Y0159600D03*
X0120800Y0159200D03*
X0120800Y0159000D03*
X0120800Y0158800D03*
X0120800Y0158600D03*
X0120800Y0158400D03*
X0120800Y0158200D03*
X0120800Y0158000D03*
X0121000Y0157600D03*
X0121000Y0157400D03*
X0121200Y0157200D03*
X0121200Y0157000D03*
X0102400Y0147800D03*
X0102400Y0147600D03*
X0102400Y0147400D03*
X0102600Y0147200D03*
X0102600Y0146800D03*
X0102600Y0146400D03*
X0102600Y0146200D03*
X0102600Y0146000D03*
X0102400Y0145600D03*
X0102400Y0145400D03*
X0102400Y0145200D03*
X0102200Y0145000D03*
X0102200Y0144800D03*
X0102000Y0144600D03*
X0101800Y0144200D03*
X0095800Y0144600D03*
X0095600Y0145000D03*
X0095400Y0145600D03*
X0095400Y0145800D03*
X0095400Y0146000D03*
X0095400Y0146200D03*
X0095400Y0146800D03*
X0095400Y0147000D03*
X0095400Y0147200D03*
X0095600Y0147600D03*
X0095600Y0147800D03*
X0095800Y0148200D03*
X0096000Y0148600D03*
X0101800Y0148600D03*
X0102000Y0148400D03*
X0102200Y0148000D03*
D207*
X0100000Y0153000D03*
X0100600Y0154400D03*
X0097800Y0153000D03*
X0123800Y0154600D03*
X0124200Y0154600D03*
X0124600Y0154600D03*
X0125000Y0154600D03*
X0123800Y0155600D03*
X0124800Y0160200D03*
X0124600Y0161800D03*
X0124600Y0162800D03*
X0126200Y0165000D03*
X0128000Y0166000D03*
X0132200Y0164000D03*
X0133400Y0163800D03*
X0134200Y0163600D03*
X0134000Y0165200D03*
X0140200Y0162600D03*
X0142200Y0162200D03*
X0143600Y0162000D03*
X0145400Y0163200D03*
X0146600Y0163000D03*
X0147000Y0161400D03*
X0148200Y0161200D03*
X0149000Y0161000D03*
X0150800Y0162200D03*
X0153400Y0161800D03*
X0153400Y0153200D03*
X0153800Y0153200D03*
X0158000Y0145800D03*
X0145200Y0151400D03*
X0141800Y0152000D03*
X0140000Y0150800D03*
X0138400Y0152600D03*
X0136400Y0153000D03*
X0134000Y0151800D03*
X0129800Y0152600D03*
X0142000Y0163800D03*
X0162000Y0133600D03*
X0162000Y0133400D03*
X0162000Y0133200D03*
X0162000Y0133000D03*
D208*
X0162500Y0135600D03*
X0162500Y0135800D03*
X0154900Y0133200D03*
X0154700Y0133400D03*
X0155100Y0155000D03*
X0155100Y0155800D03*
X0155100Y0156000D03*
X0151700Y0155600D03*
X0151700Y0155400D03*
X0127900Y0157600D03*
X0120900Y0157800D03*
X0120900Y0159400D03*
X0129100Y0166000D03*
X0102500Y0147000D03*
X0102500Y0146600D03*
X0102500Y0145800D03*
X0098700Y0148000D03*
X0095500Y0147400D03*
X0095300Y0146600D03*
X0095300Y0146400D03*
X0095500Y0145400D03*
X0095500Y0145200D03*
D209*
X0092800Y0150600D03*
X0093000Y0150800D03*
X0093000Y0151000D03*
X0103400Y0152200D03*
X0103800Y0151800D03*
X0122800Y0161800D03*
X0124400Y0162600D03*
X0126000Y0161800D03*
X0124400Y0159800D03*
X0129600Y0164000D03*
X0129800Y0163800D03*
X0130000Y0163600D03*
X0130000Y0154000D03*
X0151800Y0137000D03*
X0152000Y0136800D03*
X0163600Y0140400D03*
X0163600Y0140600D03*
X0163600Y0140800D03*
X0163600Y0141000D03*
X0153400Y0153400D03*
D210*
X0153400Y0153600D03*
X0164000Y0142600D03*
X0164000Y0142400D03*
X0164000Y0142200D03*
X0163800Y0141800D03*
X0163800Y0141600D03*
X0151200Y0137800D03*
X0151000Y0138000D03*
X0130000Y0153800D03*
X0124400Y0157800D03*
X0124400Y0159600D03*
X0129400Y0164200D03*
X0102800Y0152600D03*
X0099000Y0147400D03*
X0099000Y0145600D03*
X0093600Y0151600D03*
D211*
X0094400Y0152400D03*
X0099000Y0147000D03*
X0099000Y0146800D03*
X0099000Y0146200D03*
X0099000Y0146000D03*
X0124400Y0158200D03*
X0124400Y0158600D03*
X0124400Y0159000D03*
X0124400Y0159200D03*
X0124400Y0159400D03*
X0150200Y0139000D03*
X0150400Y0138800D03*
X0164200Y0143200D03*
X0164200Y0143400D03*
X0164200Y0143600D03*
X0164200Y0143800D03*
X0158200Y0155400D03*
X0153400Y0153800D03*
D212*
X0150900Y0144800D03*
D213*
X0151000Y0145000D03*
X0163200Y0145400D03*
X0153200Y0160800D03*
X0098000Y0154200D03*
D214*
X0151400Y0145200D03*
X0162800Y0145800D03*
D215*
X0151900Y0145400D03*
X0140900Y0151400D03*
X0146500Y0162200D03*
X0137700Y0163800D03*
X0098300Y0153800D03*
D216*
X0098500Y0153400D03*
X0152500Y0145600D03*
X0153300Y0159600D03*
D217*
X0153400Y0160600D03*
X0152600Y0161000D03*
X0151800Y0161200D03*
X0163000Y0145600D03*
D218*
X0153200Y0160200D03*
X0150000Y0161600D03*
X0147800Y0162000D03*
X0142400Y0163000D03*
X0136200Y0152200D03*
X0134200Y0152600D03*
D219*
X0153300Y0160400D03*
X0156700Y0152200D03*
D220*
X0131600Y0153000D03*
D221*
X0131300Y0153200D03*
D222*
X0098100Y0154000D03*
D223*
X0151000Y0161400D03*
D224*
X0132400Y0164600D03*
D225*
X0131600Y0164800D03*
X0126000Y0165800D03*
D226*
X0126800Y0165200D03*
D227*
X0126700Y0165400D03*
D228*
X0144350Y0258850D02*
X0148554Y0258850D01*
X0150795Y0258850D02*
X0150795Y0265155D01*
X0152897Y0263054D01*
X0154999Y0265155D01*
X0154999Y0258850D01*
X0157241Y0258850D02*
X0157241Y0259901D01*
X0161445Y0264104D01*
X0161445Y0265155D01*
X0157241Y0265155D01*
X0163686Y0264104D02*
X0163686Y0263054D01*
X0164737Y0262003D01*
X0166839Y0262003D01*
X0167890Y0260952D01*
X0167890Y0259901D01*
X0166839Y0258850D01*
X0164737Y0258850D01*
X0163686Y0259901D01*
X0163686Y0260952D01*
X0164737Y0262003D01*
X0166839Y0262003D02*
X0167890Y0263054D01*
X0167890Y0264104D01*
X0166839Y0265155D01*
X0164737Y0265155D01*
X0163686Y0264104D01*
X0170132Y0264104D02*
X0170132Y0259901D01*
X0174336Y0264104D01*
X0174336Y0259901D01*
X0173285Y0258850D01*
X0171183Y0258850D01*
X0170132Y0259901D01*
X0170132Y0264104D02*
X0171183Y0265155D01*
X0173285Y0265155D01*
X0174336Y0264104D01*
X0176577Y0265155D02*
X0176577Y0262003D01*
X0178679Y0263054D01*
X0179730Y0263054D01*
X0180781Y0262003D01*
X0180781Y0259901D01*
X0179730Y0258850D01*
X0177628Y0258850D01*
X0176577Y0259901D01*
X0176577Y0265155D02*
X0180781Y0265155D01*
X0144350Y0265155D02*
X0144350Y0258850D01*
X0144989Y0064554D02*
X0141719Y0064554D01*
X0141719Y0062102D01*
X0143354Y0062919D01*
X0144171Y0062919D01*
X0144989Y0062102D01*
X0144989Y0060467D01*
X0144171Y0059650D01*
X0142537Y0059650D01*
X0141719Y0060467D01*
X0139832Y0060467D02*
X0139832Y0061285D01*
X0139015Y0062102D01*
X0136563Y0062102D01*
X0136563Y0060467D01*
X0137380Y0059650D01*
X0139015Y0059650D01*
X0139832Y0060467D01*
X0138198Y0063737D02*
X0136563Y0062102D01*
X0134676Y0061285D02*
X0134676Y0060467D01*
X0133858Y0059650D01*
X0132224Y0059650D01*
X0131406Y0060467D01*
X0131406Y0061285D01*
X0132224Y0062102D01*
X0133858Y0062102D01*
X0134676Y0061285D01*
X0133858Y0062102D02*
X0134676Y0062919D01*
X0134676Y0063737D01*
X0133858Y0064554D01*
X0132224Y0064554D01*
X0131406Y0063737D01*
X0131406Y0062919D01*
X0132224Y0062102D01*
X0129519Y0059650D02*
X0126250Y0059650D01*
X0127885Y0059650D02*
X0127885Y0064554D01*
X0126250Y0062919D01*
X0138198Y0063737D02*
X0139832Y0064554D01*
X0146876Y0063737D02*
X0146876Y0060467D01*
X0150145Y0063737D01*
X0150145Y0060467D01*
X0149328Y0059650D01*
X0147693Y0059650D01*
X0146876Y0060467D01*
X0146876Y0063737D02*
X0147693Y0064554D01*
X0149328Y0064554D01*
X0150145Y0063737D01*
X0157188Y0064554D02*
X0157188Y0059650D01*
X0157188Y0062102D02*
X0160458Y0062102D01*
X0162345Y0062102D02*
X0162345Y0060467D01*
X0163162Y0059650D01*
X0164797Y0059650D01*
X0165614Y0060467D01*
X0165614Y0062102D01*
X0164797Y0062919D01*
X0163162Y0062919D01*
X0162345Y0062102D01*
X0160458Y0064554D02*
X0160458Y0059650D01*
X0167501Y0059650D02*
X0169136Y0059650D01*
X0168319Y0059650D02*
X0168319Y0064554D01*
X0167501Y0064554D01*
X0170939Y0062102D02*
X0171756Y0062919D01*
X0174208Y0062919D01*
X0174208Y0064554D02*
X0174208Y0059650D01*
X0171756Y0059650D01*
X0170939Y0060467D01*
X0170939Y0062102D01*
X0176095Y0062102D02*
X0176095Y0060467D01*
X0176913Y0059650D01*
X0178547Y0059650D01*
X0179365Y0061285D02*
X0176095Y0061285D01*
X0176095Y0062102D02*
X0176913Y0062919D01*
X0178547Y0062919D01*
X0179365Y0062102D01*
X0179365Y0061285D01*
X0181252Y0061285D02*
X0182886Y0062919D01*
X0183704Y0062919D01*
X0181252Y0062919D02*
X0181252Y0059650D01*
X0190705Y0062919D02*
X0192340Y0059650D01*
X0193974Y0062919D01*
X0195861Y0062919D02*
X0197496Y0064554D01*
X0197496Y0059650D01*
X0195861Y0059650D02*
X0199131Y0059650D01*
X0201018Y0059650D02*
X0201835Y0059650D01*
X0201835Y0060467D01*
X0201018Y0060467D01*
X0201018Y0059650D01*
X0203596Y0060467D02*
X0206865Y0063737D01*
X0206865Y0060467D01*
X0206048Y0059650D01*
X0204413Y0059650D01*
X0203596Y0060467D01*
X0203596Y0063737D01*
X0204413Y0064554D01*
X0206048Y0064554D01*
X0206865Y0063737D01*
D229*
X0096553Y0211400D02*
X0092149Y0211400D01*
X0089947Y0213602D01*
X0092149Y0218006D02*
X0096553Y0218006D01*
X0098755Y0215804D01*
X0098755Y0213602D01*
X0096553Y0211400D01*
X0092149Y0218006D02*
X0089947Y0220208D01*
X0089947Y0222409D01*
X0092149Y0224611D01*
X0096553Y0224611D01*
X0098755Y0222409D01*
X0071131Y0222409D02*
X0068929Y0224611D01*
X0064525Y0224611D01*
X0062324Y0222409D01*
X0062324Y0220208D01*
X0064525Y0218006D01*
X0068929Y0218006D01*
X0071131Y0215804D01*
X0071131Y0213602D01*
X0068929Y0211400D01*
X0064525Y0211400D01*
X0062324Y0213602D01*
X0043508Y0213602D02*
X0043508Y0218006D01*
X0039104Y0218006D01*
X0043508Y0222409D02*
X0041306Y0224611D01*
X0036902Y0224611D01*
X0034700Y0222409D01*
X0034700Y0213602D01*
X0036902Y0211400D01*
X0041306Y0211400D01*
X0043508Y0213602D01*
D230*
X0159500Y0219000D02*
X0192000Y0219000D01*
X0192000Y0255000D01*
X0159500Y0255000D01*
X0159500Y0219000D01*
D231*
X0144750Y0227000D03*
X0144750Y0237000D03*
X0144750Y0247000D03*
D232*
X0151500Y0247000D03*
X0151500Y0237000D03*
X0151500Y0227000D03*
D233*
X0034657Y0039500D02*
X0034657Y0035100D01*
X0072157Y0035100D01*
X0072157Y0078900D01*
X0034657Y0078900D01*
X0034657Y0074500D01*
X0020957Y0074500D01*
X0020957Y0039500D01*
X0034657Y0039500D01*
X0034972Y0039461D02*
X0021272Y0039461D01*
X0021272Y0074461D01*
X0034972Y0074461D01*
X0034972Y0078861D01*
X0072512Y0078861D01*
X0072512Y0035061D01*
X0034972Y0035061D01*
X0034972Y0039461D01*
X0033791Y0101202D02*
X0033791Y0105602D01*
X0020091Y0105602D01*
X0020091Y0140602D01*
X0033791Y0140602D01*
X0033791Y0145002D01*
X0071331Y0145002D01*
X0071331Y0101202D01*
X0033791Y0101202D01*
X0034972Y0130061D02*
X0034972Y0134461D01*
X0021272Y0134461D01*
X0021272Y0169461D01*
X0034972Y0169461D01*
X0034972Y0173861D01*
X0072512Y0173861D01*
X0072512Y0130061D01*
X0034972Y0130061D01*
X0034972Y0134461D01*
X0021272Y0134461D01*
X0021272Y0169461D01*
X0034972Y0169461D01*
X0034972Y0173861D01*
X0072512Y0173861D01*
X0072512Y0130061D01*
X0034972Y0130061D01*
X0034657Y0130100D02*
X0034657Y0134500D01*
X0020957Y0134500D01*
X0020957Y0169500D01*
X0034657Y0169500D01*
X0034657Y0173900D01*
X0072157Y0173900D01*
X0072157Y0130100D01*
X0034657Y0130100D01*
X0251488Y0130139D02*
X0289028Y0130139D01*
X0289028Y0134539D01*
X0302728Y0134539D01*
X0302728Y0169539D01*
X0289028Y0169539D01*
X0289028Y0173939D01*
X0251488Y0173939D01*
X0251488Y0130139D01*
X0251843Y0130100D02*
X0289343Y0130100D01*
X0289343Y0134500D01*
X0303043Y0134500D01*
X0303043Y0169500D01*
X0289343Y0169500D01*
X0289343Y0173900D01*
X0251843Y0173900D01*
X0251843Y0130100D01*
X0252669Y0107798D02*
X0290209Y0107798D01*
X0290209Y0103398D01*
X0303909Y0103398D01*
X0303909Y0068398D01*
X0290209Y0068398D01*
X0290209Y0063998D01*
X0252669Y0063998D01*
X0252669Y0107798D01*
X0251488Y0078939D02*
X0289028Y0078939D01*
X0289028Y0074539D01*
X0302728Y0074539D01*
X0302728Y0039539D01*
X0289028Y0039539D01*
X0289028Y0035139D01*
X0251488Y0035139D01*
X0251488Y0078939D01*
X0289028Y0078939D01*
X0289028Y0074539D01*
X0302728Y0074539D01*
X0302728Y0039539D01*
X0289028Y0039539D01*
X0289028Y0035139D01*
X0251488Y0035139D01*
X0251488Y0078939D01*
X0251843Y0078900D02*
X0289343Y0078900D01*
X0289343Y0074500D01*
X0303043Y0074500D01*
X0303043Y0039500D01*
X0289343Y0039500D01*
X0289343Y0035100D01*
X0251843Y0035100D01*
X0251843Y0078900D01*
D234*
X0233472Y0057004D02*
X0227600Y0057004D01*
X0229328Y0149068D02*
X0229328Y0154940D01*
X0226392Y0152004D02*
X0232264Y0152004D01*
X0094264Y0152004D02*
X0088392Y0152004D01*
X0092536Y0059940D02*
X0092536Y0054068D01*
X0089600Y0057004D02*
X0095472Y0057004D01*
D235*
X0050092Y0057050D02*
X0049091Y0057050D01*
X0049591Y0057050D02*
X0049591Y0058551D01*
X0049091Y0058051D01*
X0048619Y0058301D02*
X0048368Y0058551D01*
X0047868Y0058551D01*
X0047618Y0058301D01*
X0047618Y0058051D01*
X0047868Y0057801D01*
X0048368Y0057801D01*
X0048619Y0057550D01*
X0048619Y0057300D01*
X0048368Y0057050D01*
X0047868Y0057050D01*
X0047618Y0057300D01*
X0047145Y0057300D02*
X0047145Y0058551D01*
X0046144Y0058551D02*
X0046144Y0057300D01*
X0046395Y0057050D01*
X0046895Y0057050D01*
X0047145Y0057300D01*
X0048118Y0056800D02*
X0048118Y0058801D01*
X0273536Y0150700D02*
X0273786Y0150450D01*
X0274286Y0150450D01*
X0274537Y0150700D01*
X0274537Y0151951D01*
X0275009Y0151701D02*
X0275259Y0151951D01*
X0275760Y0151951D01*
X0276010Y0151701D01*
X0276482Y0151701D02*
X0276732Y0151951D01*
X0277233Y0151951D01*
X0277483Y0151701D01*
X0277483Y0151451D01*
X0276482Y0150450D01*
X0277483Y0150450D01*
X0276010Y0150700D02*
X0275760Y0150450D01*
X0275259Y0150450D01*
X0275009Y0150700D01*
X0275259Y0151201D02*
X0275009Y0151451D01*
X0275009Y0151701D01*
X0275259Y0151201D02*
X0275760Y0151201D01*
X0276010Y0150950D01*
X0276010Y0150700D01*
X0275509Y0150200D02*
X0275509Y0152201D01*
X0273536Y0151951D02*
X0273536Y0150700D01*
D236*
X0051800Y0242967D02*
X0051800Y0244502D01*
X0051033Y0245269D01*
X0049498Y0245269D01*
X0049498Y0243735D01*
X0047963Y0245269D02*
X0047196Y0244502D01*
X0047196Y0242967D01*
X0047963Y0242200D01*
X0051033Y0242200D01*
X0051800Y0242967D01*
X0051800Y0246804D02*
X0047196Y0246804D01*
X0051800Y0249873D01*
X0047196Y0249873D01*
X0047196Y0251408D02*
X0047196Y0253710D01*
X0047963Y0254477D01*
X0051033Y0254477D01*
X0051800Y0253710D01*
X0051800Y0251408D01*
X0047196Y0251408D01*
D237*
X0240989Y0238503D02*
X0241739Y0239254D01*
X0243241Y0239254D01*
X0243991Y0238503D01*
X0243991Y0237753D01*
X0240989Y0234750D01*
X0243991Y0234750D01*
X0260489Y0234750D02*
X0263491Y0234750D01*
X0261990Y0234750D02*
X0261990Y0239254D01*
X0260489Y0237753D01*
X0279746Y0231159D02*
X0279746Y0229658D01*
X0280497Y0228907D01*
X0279746Y0231159D02*
X0280497Y0231910D01*
X0281247Y0231910D01*
X0284250Y0228907D01*
X0284250Y0231910D01*
X0301946Y0219714D02*
X0304949Y0219714D01*
X0306450Y0218213D01*
X0304949Y0216711D01*
X0301946Y0216711D01*
X0302697Y0215110D02*
X0303447Y0215110D01*
X0304198Y0214359D01*
X0304198Y0212858D01*
X0303447Y0212107D01*
X0302697Y0212107D01*
X0301946Y0212858D01*
X0301946Y0214359D01*
X0302697Y0215110D01*
X0304198Y0214359D02*
X0304949Y0215110D01*
X0305699Y0215110D01*
X0306450Y0214359D01*
X0306450Y0212858D01*
X0305699Y0212107D01*
X0304949Y0212107D01*
X0304198Y0212858D01*
X0284250Y0212410D02*
X0284250Y0209407D01*
X0284250Y0210909D02*
X0279746Y0210909D01*
X0281247Y0209407D01*
X0259290Y0256950D02*
X0257789Y0258451D01*
X0257789Y0261454D01*
X0256187Y0261454D02*
X0253185Y0261454D01*
X0253185Y0259202D01*
X0254686Y0259953D01*
X0255437Y0259953D01*
X0256187Y0259202D01*
X0256187Y0257701D01*
X0255437Y0256950D01*
X0253935Y0256950D01*
X0253185Y0257701D01*
X0259290Y0256950D02*
X0260791Y0258451D01*
X0260791Y0261454D01*
M02*
