%
M48
M72
T01C0.01378
T02C0.03150
T03C0.04400
T04C0.04700
T05C0.07200
T06C0.13000
%
T01
X10000Y10000
X305000Y10000
X305000Y265000
X10000Y265000
T02
X37500Y227500
X65000Y227500
X92500Y227500
T03
X145000Y245000
X145000Y235000
X145000Y225000
T04
X254843Y245000
X235157Y245000
X290000Y215157
X290000Y234843
T05
X286488Y55039
X259921Y65039
X259921Y45039
X33512Y54961
X60079Y64961
X60079Y44961
X33512Y149961
X60079Y139961
X60079Y159961
X286488Y150039
X259921Y140039
X259921Y160039
T06
X204000Y235000
M30
