G75*
%MOIN*%
%OFA0B0*%
%FSLAX25Y25*%
%IPPOS*%
%LPD*%
%AMOC8*
5,1,8,0,0,1.08239X$1,22.5*
%
%ADD10C,0.06600*%
%ADD11C,0.10800*%
%ADD12C,0.15000*%
%ADD13C,0.05150*%
%ADD14C,0.07050*%
%ADD15C,0.10000*%
%ADD16C,0.02000*%
D10*
X0143700Y0227000D02*
X0150300Y0227000D01*
X0150300Y0237000D02*
X0143700Y0237000D01*
X0143700Y0247000D02*
X0150300Y0247000D01*
D11*
X0062079Y0161961D03*
X0062079Y0141961D03*
X0035512Y0151961D03*
X0062079Y0066961D03*
X0062079Y0046961D03*
X0035512Y0056961D03*
X0261921Y0047039D03*
X0261921Y0067039D03*
X0288488Y0057039D03*
X0261921Y0142039D03*
X0261921Y0162039D03*
X0288488Y0152039D03*
D12*
X0093969Y0236331D02*
X0093969Y0256016D01*
X0093900Y0255919D02*
X0093900Y0236234D01*
X0066650Y0236484D02*
X0066650Y0256169D01*
X0066409Y0256016D02*
X0066409Y0236331D01*
X0038900Y0236484D02*
X0038900Y0256169D01*
X0038850Y0256016D02*
X0038850Y0236331D01*
D13*
X0039500Y0229500D03*
X0067000Y0229500D03*
X0094500Y0229500D03*
D14*
X0237157Y0243475D02*
X0237157Y0250525D01*
X0256843Y0250525D02*
X0256843Y0243475D01*
X0288475Y0236843D02*
X0295525Y0236843D01*
X0295525Y0217157D02*
X0288475Y0217157D01*
D15*
X0262000Y0162000D02*
X0262000Y0047000D01*
X0097000Y0112000D02*
X0062000Y0047000D01*
X0092000Y0117000D01*
X0092000Y0127000D01*
X0062000Y0067000D01*
X0062000Y0047000D01*
X0052000Y0057000D01*
X0062000Y0067000D01*
X0052000Y0057000D02*
X0037000Y0057000D01*
X0097000Y0112000D02*
X0097000Y0257000D01*
X0092000Y0257000D01*
X0092000Y0127000D01*
X0062000Y0142000D02*
X0062000Y0162000D01*
X0042000Y0227000D02*
X0037000Y0227000D01*
X0037000Y0262000D02*
X0042000Y0262000D01*
D16*
X0014795Y0007000D02*
X0304205Y0007000D01*
X0303777Y0007177D01*
X0302177Y0008777D01*
X0301311Y0010868D01*
X0301311Y0013132D01*
X0302177Y0015223D01*
X0303777Y0016823D01*
X0305868Y0017689D01*
X0308132Y0017689D01*
X0310223Y0016823D01*
X0311823Y0015223D01*
X0311921Y0014985D01*
X0311921Y0264015D01*
X0311823Y0263777D01*
X0310223Y0262177D01*
X0308132Y0261311D01*
X0305868Y0261311D01*
X0303777Y0262177D01*
X0302177Y0263777D01*
X0301311Y0265868D01*
X0301311Y0268132D01*
X0302177Y0270223D01*
X0302655Y0270701D01*
X0016345Y0270701D01*
X0016823Y0270223D01*
X0017689Y0268132D01*
X0017689Y0265868D01*
X0016823Y0263777D01*
X0015223Y0262177D01*
X0013132Y0261311D01*
X0010868Y0261311D01*
X0008777Y0262177D01*
X0007177Y0263777D01*
X0007000Y0264205D01*
X0007000Y0014795D01*
X0007177Y0015223D01*
X0008777Y0016823D01*
X0010868Y0017689D01*
X0013132Y0017689D01*
X0015223Y0016823D01*
X0016823Y0015223D01*
X0017689Y0013132D01*
X0017689Y0010868D01*
X0016823Y0008777D01*
X0015223Y0007177D01*
X0014795Y0007000D01*
X0016041Y0007996D02*
X0302959Y0007996D01*
X0301673Y0009994D02*
X0017327Y0009994D01*
X0017689Y0011993D02*
X0301311Y0011993D01*
X0301667Y0013991D02*
X0017333Y0013991D01*
X0016056Y0015990D02*
X0302944Y0015990D01*
X0311056Y0015990D02*
X0311921Y0015990D01*
X0311921Y0017988D02*
X0007000Y0017988D01*
X0007000Y0015990D02*
X0007944Y0015990D01*
X0007000Y0019987D02*
X0311921Y0019987D01*
X0311921Y0021985D02*
X0007000Y0021985D01*
X0007000Y0023984D02*
X0311921Y0023984D01*
X0311921Y0025982D02*
X0007000Y0025982D01*
X0007000Y0027981D02*
X0311921Y0027981D01*
X0311921Y0029979D02*
X0007000Y0029979D01*
X0007000Y0031978D02*
X0311921Y0031978D01*
X0311921Y0033976D02*
X0007000Y0033976D01*
X0007000Y0035975D02*
X0311921Y0035975D01*
X0311921Y0037973D02*
X0007000Y0037973D01*
X0007000Y0039972D02*
X0057188Y0039972D01*
X0057321Y0039839D02*
X0060408Y0038561D01*
X0063750Y0038561D01*
X0066837Y0039839D01*
X0069200Y0042202D01*
X0070479Y0045290D01*
X0070479Y0045872D01*
X0103487Y0107173D01*
X0103782Y0107468D01*
X0104236Y0108564D01*
X0104798Y0109608D01*
X0104840Y0110023D01*
X0105000Y0110409D01*
X0105000Y0111595D01*
X0105120Y0112775D01*
X0105000Y0113174D01*
X0105000Y0258591D01*
X0103782Y0261532D01*
X0101532Y0263782D01*
X0100430Y0264239D01*
X0100347Y0264321D01*
X0097952Y0265704D01*
X0095282Y0266419D01*
X0092517Y0266419D01*
X0089847Y0265704D01*
X0087452Y0264321D01*
X0085498Y0262366D01*
X0084115Y0259972D01*
X0083400Y0257302D01*
X0083400Y0234852D01*
X0084000Y0232611D01*
X0084000Y0128889D01*
X0055873Y0072634D01*
X0054958Y0071719D01*
X0054641Y0070955D01*
X0048686Y0065000D01*
X0038053Y0065000D01*
X0037183Y0065361D01*
X0033841Y0065361D01*
X0030754Y0064082D01*
X0028391Y0061719D01*
X0027112Y0058631D01*
X0027112Y0055290D01*
X0028391Y0052202D01*
X0030754Y0049839D01*
X0033841Y0048561D01*
X0037183Y0048561D01*
X0038243Y0049000D01*
X0048686Y0049000D01*
X0054585Y0043101D01*
X0054958Y0042202D01*
X0057321Y0039839D01*
X0055190Y0041970D02*
X0007000Y0041970D01*
X0007000Y0043969D02*
X0053718Y0043969D01*
X0051719Y0045967D02*
X0007000Y0045967D01*
X0007000Y0047966D02*
X0049721Y0047966D01*
X0066969Y0039972D02*
X0257110Y0039972D01*
X0257163Y0039918D02*
X0260250Y0038639D01*
X0263592Y0038639D01*
X0266679Y0039918D01*
X0269042Y0042281D01*
X0270321Y0045368D01*
X0270321Y0048710D01*
X0270000Y0049486D01*
X0270000Y0064593D01*
X0270321Y0065368D01*
X0270321Y0068710D01*
X0270000Y0069486D01*
X0270000Y0139593D01*
X0270321Y0140368D01*
X0270321Y0143710D01*
X0270000Y0144486D01*
X0270000Y0159593D01*
X0270321Y0160368D01*
X0270321Y0163710D01*
X0269042Y0166798D01*
X0266679Y0169161D01*
X0263592Y0170439D01*
X0260250Y0170439D01*
X0257163Y0169161D01*
X0254800Y0166798D01*
X0253521Y0163710D01*
X0253521Y0160368D01*
X0254000Y0159213D01*
X0254000Y0144866D01*
X0253521Y0143710D01*
X0253521Y0140368D01*
X0254000Y0139213D01*
X0254000Y0069866D01*
X0253521Y0068710D01*
X0253521Y0065368D01*
X0254000Y0064213D01*
X0254000Y0049866D01*
X0253521Y0048710D01*
X0253521Y0045368D01*
X0254800Y0042281D01*
X0257163Y0039918D01*
X0255111Y0041970D02*
X0068968Y0041970D01*
X0069932Y0043969D02*
X0254101Y0043969D01*
X0253521Y0045967D02*
X0070530Y0045967D01*
X0071606Y0047966D02*
X0253521Y0047966D01*
X0254000Y0049964D02*
X0072682Y0049964D01*
X0073758Y0051963D02*
X0254000Y0051963D01*
X0254000Y0053961D02*
X0074834Y0053961D01*
X0075911Y0055960D02*
X0254000Y0055960D01*
X0254000Y0057958D02*
X0076987Y0057958D01*
X0078063Y0059957D02*
X0254000Y0059957D01*
X0254000Y0061955D02*
X0079139Y0061955D01*
X0080215Y0063954D02*
X0254000Y0063954D01*
X0253521Y0065952D02*
X0081291Y0065952D01*
X0082367Y0067951D02*
X0253521Y0067951D01*
X0254000Y0069949D02*
X0083443Y0069949D01*
X0084520Y0071948D02*
X0254000Y0071948D01*
X0254000Y0073946D02*
X0085596Y0073946D01*
X0086672Y0075945D02*
X0254000Y0075945D01*
X0254000Y0077943D02*
X0087748Y0077943D01*
X0088824Y0079942D02*
X0254000Y0079942D01*
X0254000Y0081940D02*
X0089900Y0081940D01*
X0090976Y0083939D02*
X0254000Y0083939D01*
X0254000Y0085937D02*
X0092052Y0085937D01*
X0093128Y0087936D02*
X0254000Y0087936D01*
X0254000Y0089934D02*
X0094205Y0089934D01*
X0095281Y0091933D02*
X0254000Y0091933D01*
X0254000Y0093932D02*
X0096357Y0093932D01*
X0097433Y0095930D02*
X0254000Y0095930D01*
X0254000Y0097929D02*
X0098509Y0097929D01*
X0099585Y0099927D02*
X0254000Y0099927D01*
X0254000Y0101926D02*
X0100661Y0101926D01*
X0101737Y0103924D02*
X0254000Y0103924D01*
X0254000Y0105923D02*
X0102814Y0105923D01*
X0103970Y0107921D02*
X0254000Y0107921D01*
X0254000Y0109920D02*
X0104830Y0109920D01*
X0105033Y0111918D02*
X0254000Y0111918D01*
X0254000Y0113917D02*
X0105000Y0113917D01*
X0105000Y0115915D02*
X0254000Y0115915D01*
X0254000Y0117914D02*
X0105000Y0117914D01*
X0105000Y0119912D02*
X0254000Y0119912D01*
X0254000Y0121911D02*
X0105000Y0121911D01*
X0105000Y0123909D02*
X0254000Y0123909D01*
X0254000Y0125908D02*
X0105000Y0125908D01*
X0105000Y0127906D02*
X0254000Y0127906D01*
X0254000Y0129905D02*
X0105000Y0129905D01*
X0105000Y0131903D02*
X0254000Y0131903D01*
X0254000Y0133902D02*
X0105000Y0133902D01*
X0105000Y0135900D02*
X0254000Y0135900D01*
X0254000Y0137899D02*
X0105000Y0137899D01*
X0105000Y0139897D02*
X0253716Y0139897D01*
X0253521Y0141896D02*
X0105000Y0141896D01*
X0105000Y0143894D02*
X0253598Y0143894D01*
X0254000Y0145893D02*
X0105000Y0145893D01*
X0105000Y0147891D02*
X0254000Y0147891D01*
X0254000Y0149890D02*
X0105000Y0149890D01*
X0105000Y0151888D02*
X0254000Y0151888D01*
X0254000Y0153887D02*
X0105000Y0153887D01*
X0105000Y0155885D02*
X0254000Y0155885D01*
X0254000Y0157884D02*
X0105000Y0157884D01*
X0105000Y0159882D02*
X0253723Y0159882D01*
X0253521Y0161881D02*
X0105000Y0161881D01*
X0105000Y0163879D02*
X0253591Y0163879D01*
X0254419Y0165878D02*
X0105000Y0165878D01*
X0105000Y0167876D02*
X0255879Y0167876D01*
X0258888Y0169875D02*
X0105000Y0169875D01*
X0105000Y0171873D02*
X0311921Y0171873D01*
X0311921Y0169875D02*
X0264955Y0169875D01*
X0267964Y0167876D02*
X0311921Y0167876D01*
X0311921Y0165878D02*
X0269423Y0165878D01*
X0270251Y0163879D02*
X0311921Y0163879D01*
X0311921Y0161881D02*
X0270321Y0161881D01*
X0270120Y0159882D02*
X0285473Y0159882D01*
X0286817Y0160439D02*
X0283730Y0159161D01*
X0281367Y0156798D01*
X0280088Y0153710D01*
X0280088Y0150368D01*
X0281367Y0147281D01*
X0283730Y0144918D01*
X0286817Y0143639D01*
X0290159Y0143639D01*
X0293246Y0144918D01*
X0295609Y0147281D01*
X0296888Y0150368D01*
X0296888Y0153710D01*
X0295609Y0156798D01*
X0293246Y0159161D01*
X0290159Y0160439D01*
X0286817Y0160439D01*
X0282453Y0157884D02*
X0270000Y0157884D01*
X0270000Y0155885D02*
X0280989Y0155885D01*
X0280161Y0153887D02*
X0270000Y0153887D01*
X0270000Y0151888D02*
X0280088Y0151888D01*
X0280286Y0149890D02*
X0270000Y0149890D01*
X0270000Y0147891D02*
X0281114Y0147891D01*
X0282755Y0145893D02*
X0270000Y0145893D01*
X0270245Y0143894D02*
X0286202Y0143894D01*
X0290775Y0143894D02*
X0311921Y0143894D01*
X0311921Y0141896D02*
X0270321Y0141896D01*
X0270126Y0139897D02*
X0311921Y0139897D01*
X0311921Y0137899D02*
X0270000Y0137899D01*
X0270000Y0135900D02*
X0311921Y0135900D01*
X0311921Y0133902D02*
X0270000Y0133902D01*
X0270000Y0131903D02*
X0311921Y0131903D01*
X0311921Y0129905D02*
X0270000Y0129905D01*
X0270000Y0127906D02*
X0311921Y0127906D01*
X0311921Y0125908D02*
X0270000Y0125908D01*
X0270000Y0123909D02*
X0311921Y0123909D01*
X0311921Y0121911D02*
X0270000Y0121911D01*
X0270000Y0119912D02*
X0311921Y0119912D01*
X0311921Y0117914D02*
X0270000Y0117914D01*
X0270000Y0115915D02*
X0311921Y0115915D01*
X0311921Y0113917D02*
X0270000Y0113917D01*
X0270000Y0111918D02*
X0311921Y0111918D01*
X0311921Y0109920D02*
X0270000Y0109920D01*
X0270000Y0107921D02*
X0311921Y0107921D01*
X0311921Y0105923D02*
X0270000Y0105923D01*
X0270000Y0103924D02*
X0311921Y0103924D01*
X0311921Y0101926D02*
X0270000Y0101926D01*
X0270000Y0099927D02*
X0311921Y0099927D01*
X0311921Y0097929D02*
X0270000Y0097929D01*
X0270000Y0095930D02*
X0311921Y0095930D01*
X0311921Y0093932D02*
X0270000Y0093932D01*
X0270000Y0091933D02*
X0311921Y0091933D01*
X0311921Y0089934D02*
X0270000Y0089934D01*
X0270000Y0087936D02*
X0311921Y0087936D01*
X0311921Y0085937D02*
X0270000Y0085937D01*
X0270000Y0083939D02*
X0311921Y0083939D01*
X0311921Y0081940D02*
X0270000Y0081940D01*
X0270000Y0079942D02*
X0311921Y0079942D01*
X0311921Y0077943D02*
X0270000Y0077943D01*
X0270000Y0075945D02*
X0311921Y0075945D01*
X0311921Y0073946D02*
X0270000Y0073946D01*
X0270000Y0071948D02*
X0311921Y0071948D01*
X0311921Y0069949D02*
X0270000Y0069949D01*
X0270321Y0067951D02*
X0311921Y0067951D01*
X0311921Y0065952D02*
X0270321Y0065952D01*
X0270000Y0063954D02*
X0283523Y0063954D01*
X0283730Y0064161D02*
X0281367Y0061798D01*
X0280088Y0058710D01*
X0280088Y0055368D01*
X0281367Y0052281D01*
X0283730Y0049918D01*
X0286817Y0048639D01*
X0290159Y0048639D01*
X0293246Y0049918D01*
X0295609Y0052281D01*
X0296888Y0055368D01*
X0296888Y0058710D01*
X0295609Y0061798D01*
X0293246Y0064161D01*
X0290159Y0065439D01*
X0286817Y0065439D01*
X0283730Y0064161D01*
X0281525Y0061955D02*
X0270000Y0061955D01*
X0270000Y0059957D02*
X0280605Y0059957D01*
X0280088Y0057958D02*
X0270000Y0057958D01*
X0270000Y0055960D02*
X0280088Y0055960D01*
X0280671Y0053961D02*
X0270000Y0053961D01*
X0270000Y0051963D02*
X0281685Y0051963D01*
X0283684Y0049964D02*
X0270000Y0049964D01*
X0270321Y0047966D02*
X0311921Y0047966D01*
X0311921Y0049964D02*
X0293292Y0049964D01*
X0295291Y0051963D02*
X0311921Y0051963D01*
X0311921Y0053961D02*
X0296305Y0053961D01*
X0296888Y0055960D02*
X0311921Y0055960D01*
X0311921Y0057958D02*
X0296888Y0057958D01*
X0296372Y0059957D02*
X0311921Y0059957D01*
X0311921Y0061955D02*
X0295452Y0061955D01*
X0293453Y0063954D02*
X0311921Y0063954D01*
X0311921Y0045967D02*
X0270321Y0045967D01*
X0269741Y0043969D02*
X0311921Y0043969D01*
X0311921Y0041970D02*
X0268731Y0041970D01*
X0266733Y0039972D02*
X0311921Y0039972D01*
X0311921Y0145893D02*
X0294221Y0145893D01*
X0295862Y0147891D02*
X0311921Y0147891D01*
X0311921Y0149890D02*
X0296690Y0149890D01*
X0296888Y0151888D02*
X0311921Y0151888D01*
X0311921Y0153887D02*
X0296815Y0153887D01*
X0295987Y0155885D02*
X0311921Y0155885D01*
X0311921Y0157884D02*
X0294523Y0157884D01*
X0291504Y0159882D02*
X0311921Y0159882D01*
X0311921Y0173872D02*
X0105000Y0173872D01*
X0105000Y0175870D02*
X0311921Y0175870D01*
X0311921Y0177869D02*
X0105000Y0177869D01*
X0105000Y0179868D02*
X0311921Y0179868D01*
X0311921Y0181866D02*
X0105000Y0181866D01*
X0105000Y0183865D02*
X0311921Y0183865D01*
X0311921Y0185863D02*
X0105000Y0185863D01*
X0105000Y0187862D02*
X0311921Y0187862D01*
X0311921Y0189860D02*
X0105000Y0189860D01*
X0105000Y0191859D02*
X0311921Y0191859D01*
X0311921Y0193857D02*
X0105000Y0193857D01*
X0105000Y0195856D02*
X0311921Y0195856D01*
X0311921Y0197854D02*
X0105000Y0197854D01*
X0105000Y0199853D02*
X0311921Y0199853D01*
X0311921Y0201851D02*
X0105000Y0201851D01*
X0105000Y0203850D02*
X0311921Y0203850D01*
X0311921Y0205848D02*
X0105000Y0205848D01*
X0105000Y0207847D02*
X0311921Y0207847D01*
X0311921Y0209845D02*
X0105000Y0209845D01*
X0105000Y0211844D02*
X0286950Y0211844D01*
X0287181Y0211769D02*
X0286354Y0212037D01*
X0285579Y0212432D01*
X0284876Y0212943D01*
X0284261Y0213558D01*
X0283750Y0214262D01*
X0283355Y0215037D01*
X0283086Y0215864D01*
X0282950Y0216723D01*
X0282950Y0216982D01*
X0291825Y0216982D01*
X0292175Y0216982D01*
X0292175Y0211632D01*
X0295960Y0211632D01*
X0296819Y0211769D01*
X0297646Y0212037D01*
X0298421Y0212432D01*
X0299124Y0212943D01*
X0299739Y0213558D01*
X0300250Y0214262D01*
X0300645Y0215037D01*
X0300914Y0215864D01*
X0301050Y0216723D01*
X0301050Y0216982D01*
X0292175Y0216982D01*
X0292175Y0217332D01*
X0301050Y0217332D01*
X0301050Y0217592D01*
X0300914Y0218451D01*
X0300645Y0219278D01*
X0300250Y0220053D01*
X0299739Y0220757D01*
X0299124Y0221372D01*
X0298421Y0221883D01*
X0297646Y0222278D01*
X0296819Y0222546D01*
X0295960Y0222682D01*
X0292175Y0222682D01*
X0292175Y0217333D01*
X0291825Y0217333D01*
X0291825Y0222682D01*
X0288040Y0222682D01*
X0287181Y0222546D01*
X0286354Y0222278D01*
X0285579Y0221883D01*
X0284876Y0221372D01*
X0284261Y0220757D01*
X0283750Y0220053D01*
X0283355Y0219278D01*
X0283086Y0218451D01*
X0282950Y0217592D01*
X0282950Y0217332D01*
X0291825Y0217332D01*
X0291825Y0216982D01*
X0291825Y0211632D01*
X0288040Y0211632D01*
X0287181Y0211769D01*
X0284054Y0213842D02*
X0105000Y0213842D01*
X0105000Y0215841D02*
X0283094Y0215841D01*
X0282989Y0217839D02*
X0105000Y0217839D01*
X0105000Y0219838D02*
X0283640Y0219838D01*
X0285515Y0221836D02*
X0154046Y0221836D01*
X0153869Y0221659D02*
X0155641Y0223431D01*
X0156600Y0225747D01*
X0156600Y0228253D01*
X0155641Y0230569D01*
X0153869Y0232341D01*
X0153254Y0232595D01*
X0153753Y0232957D01*
X0154343Y0233547D01*
X0154833Y0234222D01*
X0155212Y0234966D01*
X0155469Y0235759D01*
X0155600Y0236583D01*
X0155600Y0236900D01*
X0147100Y0236900D01*
X0147100Y0237100D01*
X0155600Y0237100D01*
X0155600Y0237417D01*
X0155469Y0238241D01*
X0155212Y0239034D01*
X0154833Y0239778D01*
X0154343Y0240453D01*
X0153753Y0241043D01*
X0153254Y0241405D01*
X0153869Y0241659D01*
X0155641Y0243431D01*
X0156600Y0245747D01*
X0156600Y0248253D01*
X0155641Y0250569D01*
X0153869Y0252341D01*
X0151553Y0253300D01*
X0142447Y0253300D01*
X0140131Y0252341D01*
X0138359Y0250569D01*
X0137400Y0248253D01*
X0137400Y0245747D01*
X0138359Y0243431D01*
X0140131Y0241659D01*
X0140746Y0241405D01*
X0140247Y0241043D01*
X0139657Y0240453D01*
X0139167Y0239778D01*
X0138788Y0239034D01*
X0138530Y0238241D01*
X0138400Y0237417D01*
X0138400Y0237100D01*
X0146900Y0237100D01*
X0146900Y0236900D01*
X0138400Y0236900D01*
X0138400Y0236583D01*
X0138530Y0235759D01*
X0138788Y0234966D01*
X0139167Y0234222D01*
X0139657Y0233547D01*
X0140247Y0232957D01*
X0140746Y0232595D01*
X0140131Y0232341D01*
X0138359Y0230569D01*
X0137400Y0228253D01*
X0137400Y0225747D01*
X0138359Y0223431D01*
X0140131Y0221659D01*
X0142447Y0220700D01*
X0151553Y0220700D01*
X0153869Y0221659D01*
X0155808Y0223835D02*
X0311921Y0223835D01*
X0311921Y0225833D02*
X0208758Y0225833D01*
X0207514Y0225500D02*
X0210439Y0226284D01*
X0213061Y0227798D01*
X0215202Y0229939D01*
X0216716Y0232561D01*
X0217500Y0235486D01*
X0217500Y0238514D01*
X0216716Y0241439D01*
X0215202Y0244061D01*
X0213061Y0246202D01*
X0210439Y0247716D01*
X0207514Y0248500D01*
X0204486Y0248500D01*
X0201561Y0247716D01*
X0198939Y0246202D01*
X0196798Y0244061D01*
X0195284Y0241439D01*
X0194500Y0238514D01*
X0194500Y0235486D01*
X0195284Y0232561D01*
X0196798Y0229939D01*
X0198939Y0227798D01*
X0201561Y0226284D01*
X0204486Y0225500D01*
X0207514Y0225500D01*
X0213095Y0227832D02*
X0311921Y0227832D01*
X0311921Y0229830D02*
X0215094Y0229830D01*
X0216293Y0231829D02*
X0284261Y0231829D01*
X0284779Y0231311D02*
X0287177Y0230318D01*
X0296823Y0230318D01*
X0299221Y0231311D01*
X0301057Y0233146D01*
X0302050Y0235545D01*
X0302050Y0238140D01*
X0301057Y0240539D01*
X0299221Y0242374D01*
X0296823Y0243368D01*
X0287177Y0243368D01*
X0284779Y0242374D01*
X0282943Y0240539D01*
X0281950Y0238140D01*
X0281950Y0235545D01*
X0282943Y0233146D01*
X0284779Y0231311D01*
X0282661Y0233827D02*
X0217056Y0233827D01*
X0217500Y0235826D02*
X0281950Y0235826D01*
X0281950Y0237824D02*
X0240566Y0237824D01*
X0240854Y0237943D02*
X0242689Y0239779D01*
X0243682Y0242177D01*
X0243682Y0251823D01*
X0242689Y0254221D01*
X0240854Y0256057D01*
X0238455Y0257050D01*
X0235860Y0257050D01*
X0233461Y0256057D01*
X0231626Y0254221D01*
X0230632Y0251823D01*
X0230632Y0242177D01*
X0231626Y0239779D01*
X0233461Y0237943D01*
X0235860Y0236950D01*
X0238455Y0236950D01*
X0240854Y0237943D01*
X0242707Y0239823D02*
X0252681Y0239823D01*
X0252628Y0239876D02*
X0253243Y0239261D01*
X0253947Y0238750D01*
X0254722Y0238355D01*
X0255549Y0238086D01*
X0256408Y0237950D01*
X0256667Y0237950D01*
X0256667Y0246825D01*
X0251318Y0246825D01*
X0251318Y0243040D01*
X0251454Y0242181D01*
X0251722Y0241354D01*
X0252117Y0240579D01*
X0252628Y0239876D01*
X0251570Y0241821D02*
X0243535Y0241821D01*
X0243682Y0243820D02*
X0251318Y0243820D01*
X0251318Y0245818D02*
X0243682Y0245818D01*
X0243682Y0247817D02*
X0251318Y0247817D01*
X0251318Y0247175D02*
X0256667Y0247175D01*
X0256667Y0246825D01*
X0257018Y0246825D01*
X0257018Y0247175D01*
X0262368Y0247175D01*
X0262368Y0250960D01*
X0262231Y0251819D01*
X0261963Y0252646D01*
X0261568Y0253421D01*
X0261057Y0254124D01*
X0260442Y0254739D01*
X0259738Y0255250D01*
X0258963Y0255645D01*
X0258136Y0255914D01*
X0257277Y0256050D01*
X0257018Y0256050D01*
X0257018Y0247175D01*
X0256667Y0247175D01*
X0256667Y0256050D01*
X0256408Y0256050D01*
X0255549Y0255914D01*
X0254722Y0255645D01*
X0253947Y0255250D01*
X0253243Y0254739D01*
X0252628Y0254124D01*
X0252117Y0253421D01*
X0251722Y0252646D01*
X0251454Y0251819D01*
X0251318Y0250960D01*
X0251318Y0247175D01*
X0251318Y0249815D02*
X0243682Y0249815D01*
X0243682Y0251814D02*
X0251453Y0251814D01*
X0252402Y0253812D02*
X0242858Y0253812D01*
X0241099Y0255811D02*
X0255232Y0255811D01*
X0256667Y0255811D02*
X0257018Y0255811D01*
X0258453Y0255811D02*
X0311921Y0255811D01*
X0311921Y0257809D02*
X0105000Y0257809D01*
X0105000Y0255811D02*
X0233216Y0255811D01*
X0231457Y0253812D02*
X0105000Y0253812D01*
X0105000Y0251814D02*
X0139604Y0251814D01*
X0138047Y0249815D02*
X0105000Y0249815D01*
X0105000Y0247817D02*
X0137400Y0247817D01*
X0137400Y0245818D02*
X0105000Y0245818D01*
X0105000Y0243820D02*
X0138198Y0243820D01*
X0139969Y0241821D02*
X0105000Y0241821D01*
X0105000Y0239823D02*
X0139200Y0239823D01*
X0138465Y0237824D02*
X0105000Y0237824D01*
X0105000Y0235826D02*
X0138520Y0235826D01*
X0139454Y0233827D02*
X0105000Y0233827D01*
X0105000Y0231829D02*
X0139619Y0231829D01*
X0138053Y0229830D02*
X0105000Y0229830D01*
X0105000Y0227832D02*
X0137400Y0227832D01*
X0137400Y0225833D02*
X0105000Y0225833D01*
X0105000Y0223835D02*
X0138192Y0223835D01*
X0139954Y0221836D02*
X0105000Y0221836D01*
X0084000Y0221836D02*
X0007000Y0221836D01*
X0007000Y0219838D02*
X0084000Y0219838D01*
X0084000Y0217839D02*
X0007000Y0217839D01*
X0007000Y0215841D02*
X0084000Y0215841D01*
X0084000Y0213842D02*
X0007000Y0213842D01*
X0007000Y0211844D02*
X0084000Y0211844D01*
X0084000Y0209845D02*
X0007000Y0209845D01*
X0007000Y0207847D02*
X0084000Y0207847D01*
X0084000Y0205848D02*
X0007000Y0205848D01*
X0007000Y0203850D02*
X0084000Y0203850D01*
X0084000Y0201851D02*
X0007000Y0201851D01*
X0007000Y0199853D02*
X0084000Y0199853D01*
X0084000Y0197854D02*
X0007000Y0197854D01*
X0007000Y0195856D02*
X0084000Y0195856D01*
X0084000Y0193857D02*
X0007000Y0193857D01*
X0007000Y0191859D02*
X0084000Y0191859D01*
X0084000Y0189860D02*
X0007000Y0189860D01*
X0007000Y0187862D02*
X0084000Y0187862D01*
X0084000Y0185863D02*
X0007000Y0185863D01*
X0007000Y0183865D02*
X0084000Y0183865D01*
X0084000Y0181866D02*
X0007000Y0181866D01*
X0007000Y0179868D02*
X0084000Y0179868D01*
X0084000Y0177869D02*
X0007000Y0177869D01*
X0007000Y0175870D02*
X0084000Y0175870D01*
X0084000Y0173872D02*
X0007000Y0173872D01*
X0007000Y0171873D02*
X0084000Y0171873D01*
X0084000Y0169875D02*
X0064922Y0169875D01*
X0063750Y0170361D02*
X0066837Y0169082D01*
X0069200Y0166719D01*
X0070479Y0163631D01*
X0070479Y0160290D01*
X0069200Y0157202D01*
X0066837Y0154839D01*
X0063750Y0153561D01*
X0060408Y0153561D01*
X0057321Y0154839D01*
X0054958Y0157202D01*
X0053679Y0160290D01*
X0053679Y0163631D01*
X0054958Y0166719D01*
X0057321Y0169082D01*
X0060408Y0170361D01*
X0063750Y0170361D01*
X0059235Y0169875D02*
X0007000Y0169875D01*
X0007000Y0167876D02*
X0056115Y0167876D01*
X0054609Y0165878D02*
X0007000Y0165878D01*
X0007000Y0163879D02*
X0053781Y0163879D01*
X0053679Y0161881D02*
X0007000Y0161881D01*
X0007000Y0159882D02*
X0053847Y0159882D01*
X0054675Y0157884D02*
X0039948Y0157884D01*
X0039632Y0158127D02*
X0038792Y0158612D01*
X0037896Y0158983D01*
X0036959Y0159234D01*
X0036312Y0159319D01*
X0036312Y0152761D01*
X0034712Y0152761D01*
X0034712Y0159319D01*
X0034065Y0159234D01*
X0033128Y0158983D01*
X0032232Y0158612D01*
X0031392Y0158127D01*
X0030622Y0157536D01*
X0029936Y0156850D01*
X0029346Y0156081D01*
X0028861Y0155241D01*
X0028489Y0154344D01*
X0028238Y0153407D01*
X0028153Y0152761D01*
X0034712Y0152761D01*
X0034712Y0151161D01*
X0028153Y0151161D01*
X0028238Y0150514D01*
X0028489Y0149577D01*
X0028861Y0148681D01*
X0029346Y0147841D01*
X0029936Y0147071D01*
X0030622Y0146385D01*
X0031392Y0145795D01*
X0032232Y0145310D01*
X0033128Y0144938D01*
X0034065Y0144687D01*
X0034712Y0144602D01*
X0034712Y0151161D01*
X0036312Y0151161D01*
X0036312Y0152761D01*
X0042870Y0152761D01*
X0042785Y0153407D01*
X0042534Y0154344D01*
X0042163Y0155241D01*
X0041678Y0156081D01*
X0041087Y0156850D01*
X0040401Y0157536D01*
X0039632Y0158127D01*
X0041791Y0155885D02*
X0056275Y0155885D01*
X0059620Y0153887D02*
X0042657Y0153887D01*
X0042870Y0151161D02*
X0036312Y0151161D01*
X0036312Y0144602D01*
X0036959Y0144687D01*
X0037896Y0144938D01*
X0038792Y0145310D01*
X0039632Y0145795D01*
X0040401Y0146385D01*
X0041087Y0147071D01*
X0041678Y0147841D01*
X0042163Y0148681D01*
X0042534Y0149577D01*
X0042785Y0150514D01*
X0042870Y0151161D01*
X0042618Y0149890D02*
X0059271Y0149890D01*
X0060408Y0150361D02*
X0057321Y0149082D01*
X0054958Y0146719D01*
X0053679Y0143631D01*
X0053679Y0140290D01*
X0054958Y0137202D01*
X0057321Y0134839D01*
X0060408Y0133561D01*
X0063750Y0133561D01*
X0066837Y0134839D01*
X0069200Y0137202D01*
X0070479Y0140290D01*
X0070479Y0143631D01*
X0069200Y0146719D01*
X0066837Y0149082D01*
X0063750Y0150361D01*
X0060408Y0150361D01*
X0056130Y0147891D02*
X0041707Y0147891D01*
X0039760Y0145893D02*
X0054615Y0145893D01*
X0053788Y0143894D02*
X0007000Y0143894D01*
X0007000Y0141896D02*
X0053679Y0141896D01*
X0053841Y0139897D02*
X0007000Y0139897D01*
X0007000Y0137899D02*
X0054669Y0137899D01*
X0056260Y0135900D02*
X0007000Y0135900D01*
X0007000Y0133902D02*
X0059584Y0133902D01*
X0064573Y0133902D02*
X0084000Y0133902D01*
X0084000Y0135900D02*
X0067898Y0135900D01*
X0069488Y0137899D02*
X0084000Y0137899D01*
X0084000Y0139897D02*
X0070316Y0139897D01*
X0070479Y0141896D02*
X0084000Y0141896D01*
X0084000Y0143894D02*
X0070370Y0143894D01*
X0069542Y0145893D02*
X0084000Y0145893D01*
X0084000Y0147891D02*
X0068027Y0147891D01*
X0064886Y0149890D02*
X0084000Y0149890D01*
X0084000Y0151888D02*
X0036312Y0151888D01*
X0034712Y0151888D02*
X0007000Y0151888D01*
X0007000Y0149890D02*
X0028406Y0149890D01*
X0029316Y0147891D02*
X0007000Y0147891D01*
X0007000Y0145893D02*
X0031264Y0145893D01*
X0034712Y0145893D02*
X0036312Y0145893D01*
X0036312Y0147891D02*
X0034712Y0147891D01*
X0034712Y0149890D02*
X0036312Y0149890D01*
X0036312Y0153887D02*
X0034712Y0153887D01*
X0034712Y0155885D02*
X0036312Y0155885D01*
X0036312Y0157884D02*
X0034712Y0157884D01*
X0031075Y0157884D02*
X0007000Y0157884D01*
X0007000Y0155885D02*
X0029233Y0155885D01*
X0028367Y0153887D02*
X0007000Y0153887D01*
X0007000Y0131903D02*
X0084000Y0131903D01*
X0084000Y0129905D02*
X0007000Y0129905D01*
X0007000Y0127906D02*
X0083509Y0127906D01*
X0082510Y0125908D02*
X0007000Y0125908D01*
X0007000Y0123909D02*
X0081510Y0123909D01*
X0080511Y0121911D02*
X0007000Y0121911D01*
X0007000Y0119912D02*
X0079512Y0119912D01*
X0078513Y0117914D02*
X0007000Y0117914D01*
X0007000Y0115915D02*
X0077513Y0115915D01*
X0076514Y0113917D02*
X0007000Y0113917D01*
X0007000Y0111918D02*
X0075515Y0111918D01*
X0074516Y0109920D02*
X0007000Y0109920D01*
X0007000Y0107921D02*
X0073516Y0107921D01*
X0072517Y0105923D02*
X0007000Y0105923D01*
X0007000Y0103924D02*
X0071518Y0103924D01*
X0070519Y0101926D02*
X0007000Y0101926D01*
X0007000Y0099927D02*
X0069519Y0099927D01*
X0068520Y0097929D02*
X0007000Y0097929D01*
X0007000Y0095930D02*
X0067521Y0095930D01*
X0066522Y0093932D02*
X0007000Y0093932D01*
X0007000Y0091933D02*
X0065522Y0091933D01*
X0064523Y0089934D02*
X0007000Y0089934D01*
X0007000Y0087936D02*
X0063524Y0087936D01*
X0062524Y0085937D02*
X0007000Y0085937D01*
X0007000Y0083939D02*
X0061525Y0083939D01*
X0060526Y0081940D02*
X0007000Y0081940D01*
X0007000Y0079942D02*
X0059527Y0079942D01*
X0058527Y0077943D02*
X0007000Y0077943D01*
X0007000Y0075945D02*
X0057528Y0075945D01*
X0056529Y0073946D02*
X0007000Y0073946D01*
X0007000Y0071948D02*
X0055187Y0071948D01*
X0053636Y0069949D02*
X0007000Y0069949D01*
X0007000Y0067951D02*
X0051637Y0067951D01*
X0049639Y0065952D02*
X0007000Y0065952D01*
X0007000Y0063954D02*
X0030626Y0063954D01*
X0028627Y0061955D02*
X0007000Y0061955D01*
X0007000Y0059957D02*
X0027661Y0059957D01*
X0027112Y0057958D02*
X0007000Y0057958D01*
X0007000Y0055960D02*
X0027112Y0055960D01*
X0027662Y0053961D02*
X0007000Y0053961D01*
X0007000Y0051963D02*
X0028630Y0051963D01*
X0030629Y0049964D02*
X0007000Y0049964D01*
X0064537Y0153887D02*
X0084000Y0153887D01*
X0084000Y0155885D02*
X0067883Y0155885D01*
X0069482Y0157884D02*
X0084000Y0157884D01*
X0084000Y0159882D02*
X0070310Y0159882D01*
X0070479Y0161881D02*
X0084000Y0161881D01*
X0084000Y0163879D02*
X0070376Y0163879D01*
X0069548Y0165878D02*
X0084000Y0165878D01*
X0084000Y0167876D02*
X0068042Y0167876D01*
X0068109Y0223925D02*
X0065891Y0223925D01*
X0063842Y0224774D01*
X0062274Y0226342D01*
X0061978Y0227057D01*
X0060202Y0228082D01*
X0058248Y0230037D01*
X0056865Y0232431D01*
X0056150Y0235102D01*
X0056150Y0257552D01*
X0056865Y0260222D01*
X0058248Y0262616D01*
X0060202Y0264571D01*
X0062597Y0265954D01*
X0065267Y0266669D01*
X0068032Y0266669D01*
X0070702Y0265954D01*
X0073097Y0264571D01*
X0075052Y0262616D01*
X0076434Y0260222D01*
X0077150Y0257552D01*
X0077150Y0235102D01*
X0076434Y0232431D01*
X0075052Y0230037D01*
X0073097Y0228082D01*
X0072243Y0227589D01*
X0071726Y0226342D01*
X0070158Y0224774D01*
X0068109Y0223925D01*
X0071217Y0225833D02*
X0084000Y0225833D01*
X0084000Y0223835D02*
X0007000Y0223835D01*
X0007000Y0225833D02*
X0036764Y0225833D01*
X0036520Y0226011D02*
X0037102Y0225587D01*
X0037744Y0225260D01*
X0038429Y0225038D01*
X0039140Y0224925D01*
X0039500Y0224925D01*
X0039860Y0224925D01*
X0040571Y0225038D01*
X0041256Y0225260D01*
X0041898Y0225587D01*
X0042480Y0226011D01*
X0042989Y0226520D01*
X0043242Y0226867D01*
X0045347Y0228082D01*
X0047302Y0230037D01*
X0048684Y0232431D01*
X0049400Y0235102D01*
X0049400Y0257552D01*
X0048684Y0260222D01*
X0047302Y0262616D01*
X0045347Y0264571D01*
X0042952Y0265954D01*
X0040282Y0266669D01*
X0037517Y0266669D01*
X0034847Y0265954D01*
X0032452Y0264571D01*
X0030498Y0262616D01*
X0029115Y0260222D01*
X0028400Y0257552D01*
X0028400Y0235102D01*
X0029115Y0232431D01*
X0030498Y0230037D01*
X0032452Y0228082D01*
X0034847Y0226700D01*
X0036191Y0226340D01*
X0036520Y0226011D01*
X0039500Y0225984D02*
X0039500Y0225984D01*
X0039500Y0224925D01*
X0039500Y0225984D01*
X0039500Y0225833D02*
X0039500Y0225833D01*
X0042236Y0225833D02*
X0062783Y0225833D01*
X0060636Y0227832D02*
X0044913Y0227832D01*
X0047095Y0229830D02*
X0058454Y0229830D01*
X0057213Y0231829D02*
X0048336Y0231829D01*
X0049058Y0233827D02*
X0056491Y0233827D01*
X0056150Y0235826D02*
X0049400Y0235826D01*
X0049400Y0237824D02*
X0056150Y0237824D01*
X0056150Y0239823D02*
X0049400Y0239823D01*
X0049400Y0241821D02*
X0056150Y0241821D01*
X0056150Y0243820D02*
X0049400Y0243820D01*
X0049400Y0245818D02*
X0056150Y0245818D01*
X0056150Y0247817D02*
X0049400Y0247817D01*
X0049400Y0249815D02*
X0056150Y0249815D01*
X0056150Y0251814D02*
X0049400Y0251814D01*
X0049400Y0253812D02*
X0056150Y0253812D01*
X0056150Y0255811D02*
X0049400Y0255811D01*
X0049331Y0257809D02*
X0056219Y0257809D01*
X0056754Y0259808D02*
X0048795Y0259808D01*
X0047769Y0261806D02*
X0057780Y0261806D01*
X0059436Y0263805D02*
X0046113Y0263805D01*
X0043213Y0265803D02*
X0062337Y0265803D01*
X0070963Y0265803D02*
X0090219Y0265803D01*
X0086936Y0263805D02*
X0073863Y0263805D01*
X0075519Y0261806D02*
X0085174Y0261806D01*
X0084071Y0259808D02*
X0076545Y0259808D01*
X0077081Y0257809D02*
X0083536Y0257809D01*
X0083400Y0255811D02*
X0077150Y0255811D01*
X0077150Y0253812D02*
X0083400Y0253812D01*
X0083400Y0251814D02*
X0077150Y0251814D01*
X0077150Y0249815D02*
X0083400Y0249815D01*
X0083400Y0247817D02*
X0077150Y0247817D01*
X0077150Y0245818D02*
X0083400Y0245818D01*
X0083400Y0243820D02*
X0077150Y0243820D01*
X0077150Y0241821D02*
X0083400Y0241821D01*
X0083400Y0239823D02*
X0077150Y0239823D01*
X0077150Y0237824D02*
X0083400Y0237824D01*
X0083400Y0235826D02*
X0077150Y0235826D01*
X0076808Y0233827D02*
X0083674Y0233827D01*
X0084000Y0231829D02*
X0076086Y0231829D01*
X0074845Y0229830D02*
X0084000Y0229830D01*
X0084000Y0227832D02*
X0072663Y0227832D01*
X0032886Y0227832D02*
X0007000Y0227832D01*
X0007000Y0229830D02*
X0030704Y0229830D01*
X0029463Y0231829D02*
X0007000Y0231829D01*
X0007000Y0233827D02*
X0028741Y0233827D01*
X0028400Y0235826D02*
X0007000Y0235826D01*
X0007000Y0237824D02*
X0028400Y0237824D01*
X0028400Y0239823D02*
X0007000Y0239823D01*
X0007000Y0241821D02*
X0028400Y0241821D01*
X0028400Y0243820D02*
X0007000Y0243820D01*
X0007000Y0245818D02*
X0028400Y0245818D01*
X0028400Y0247817D02*
X0007000Y0247817D01*
X0007000Y0249815D02*
X0028400Y0249815D01*
X0028400Y0251814D02*
X0007000Y0251814D01*
X0007000Y0253812D02*
X0028400Y0253812D01*
X0028400Y0255811D02*
X0007000Y0255811D01*
X0007000Y0257809D02*
X0028469Y0257809D01*
X0029004Y0259808D02*
X0007000Y0259808D01*
X0007000Y0261806D02*
X0009672Y0261806D01*
X0007166Y0263805D02*
X0007000Y0263805D01*
X0014328Y0261806D02*
X0030030Y0261806D01*
X0031686Y0263805D02*
X0016834Y0263805D01*
X0017662Y0265803D02*
X0034587Y0265803D01*
X0017689Y0267802D02*
X0301311Y0267802D01*
X0301338Y0265803D02*
X0097580Y0265803D01*
X0101476Y0263805D02*
X0302166Y0263805D01*
X0304672Y0261806D02*
X0103507Y0261806D01*
X0104496Y0259808D02*
X0311921Y0259808D01*
X0311921Y0261806D02*
X0309328Y0261806D01*
X0311834Y0263805D02*
X0311921Y0263805D01*
X0302002Y0269801D02*
X0016998Y0269801D01*
X0154396Y0251814D02*
X0230632Y0251814D01*
X0230632Y0249815D02*
X0155953Y0249815D01*
X0156600Y0247817D02*
X0201937Y0247817D01*
X0198555Y0245818D02*
X0156600Y0245818D01*
X0155802Y0243820D02*
X0196658Y0243820D01*
X0195505Y0241821D02*
X0154031Y0241821D01*
X0154800Y0239823D02*
X0194851Y0239823D01*
X0194500Y0237824D02*
X0155535Y0237824D01*
X0155480Y0235826D02*
X0194500Y0235826D01*
X0194944Y0233827D02*
X0154546Y0233827D01*
X0154381Y0231829D02*
X0195707Y0231829D01*
X0196906Y0229830D02*
X0155947Y0229830D01*
X0156600Y0227832D02*
X0198905Y0227832D01*
X0203242Y0225833D02*
X0156600Y0225833D01*
X0210063Y0247817D02*
X0230632Y0247817D01*
X0230632Y0245818D02*
X0213445Y0245818D01*
X0215342Y0243820D02*
X0230632Y0243820D01*
X0230780Y0241821D02*
X0216495Y0241821D01*
X0217149Y0239823D02*
X0231608Y0239823D01*
X0233749Y0237824D02*
X0217500Y0237824D01*
X0256667Y0239823D02*
X0257018Y0239823D01*
X0257018Y0237950D02*
X0257277Y0237950D01*
X0258136Y0238086D01*
X0258963Y0238355D01*
X0259738Y0238750D01*
X0260442Y0239261D01*
X0261057Y0239876D01*
X0261568Y0240579D01*
X0261963Y0241354D01*
X0262231Y0242181D01*
X0262368Y0243040D01*
X0262368Y0246825D01*
X0257018Y0246825D01*
X0257018Y0237950D01*
X0257018Y0241821D02*
X0256667Y0241821D01*
X0256667Y0243820D02*
X0257018Y0243820D01*
X0257018Y0245818D02*
X0256667Y0245818D01*
X0256667Y0247817D02*
X0257018Y0247817D01*
X0257018Y0249815D02*
X0256667Y0249815D01*
X0256667Y0251814D02*
X0257018Y0251814D01*
X0257018Y0253812D02*
X0256667Y0253812D01*
X0261283Y0253812D02*
X0311921Y0253812D01*
X0311921Y0251814D02*
X0262232Y0251814D01*
X0262368Y0249815D02*
X0311921Y0249815D01*
X0311921Y0247817D02*
X0262368Y0247817D01*
X0262368Y0245818D02*
X0311921Y0245818D01*
X0311921Y0243820D02*
X0262368Y0243820D01*
X0262115Y0241821D02*
X0284226Y0241821D01*
X0282647Y0239823D02*
X0261004Y0239823D01*
X0291825Y0221836D02*
X0292175Y0221836D01*
X0292175Y0219838D02*
X0291825Y0219838D01*
X0291825Y0217839D02*
X0292175Y0217839D01*
X0292175Y0215841D02*
X0291825Y0215841D01*
X0291825Y0213842D02*
X0292175Y0213842D01*
X0292175Y0211844D02*
X0291825Y0211844D01*
X0297050Y0211844D02*
X0311921Y0211844D01*
X0311921Y0213842D02*
X0299946Y0213842D01*
X0300906Y0215841D02*
X0311921Y0215841D01*
X0311921Y0217839D02*
X0301011Y0217839D01*
X0300360Y0219838D02*
X0311921Y0219838D01*
X0311921Y0221836D02*
X0298485Y0221836D01*
X0299739Y0231829D02*
X0311921Y0231829D01*
X0311921Y0233827D02*
X0301339Y0233827D01*
X0302050Y0235826D02*
X0311921Y0235826D01*
X0311921Y0237824D02*
X0302050Y0237824D01*
X0301353Y0239823D02*
X0311921Y0239823D01*
X0311921Y0241821D02*
X0299774Y0241821D01*
M02*
