G75*
%MOIN*%
%OFA0B0*%
%FSLAX25Y25*%
%IPPOS*%
%LPD*%
%AMOC8*
5,1,8,0,0,1.08239X$1,22.5*
%
%ADD10C,0.00600*%
%ADD11R,0.00300X0.08400*%
%ADD12R,0.00300X0.07200*%
%ADD13R,0.00300X0.15000*%
%ADD14R,0.00300X0.13200*%
%ADD15R,0.00300X0.19500*%
%ADD16R,0.00300X0.16800*%
%ADD17R,0.00300X0.22500*%
%ADD18R,0.00300X0.19800*%
%ADD19R,0.00300X0.25500*%
%ADD20R,0.00300X0.28200*%
%ADD21R,0.00300X0.24600*%
%ADD22R,0.00300X0.22200*%
%ADD23R,0.00300X0.30000*%
%ADD24R,0.00300X0.26700*%
%ADD25R,0.00300X0.32400*%
%ADD26R,0.00300X0.28500*%
%ADD27R,0.00300X0.34200*%
%ADD28R,0.00300X0.30300*%
%ADD29R,0.00300X0.36000*%
%ADD30R,0.00300X0.32100*%
%ADD31R,0.00300X0.37500*%
%ADD32R,0.00300X0.33300*%
%ADD33R,0.00300X0.39000*%
%ADD34R,0.00300X0.35100*%
%ADD35R,0.00300X0.40500*%
%ADD36R,0.00300X0.36300*%
%ADD37R,0.00300X0.41700*%
%ADD38R,0.00300X0.42900*%
%ADD39R,0.00300X0.38700*%
%ADD40R,0.00300X0.44100*%
%ADD41R,0.00300X0.39900*%
%ADD42R,0.00300X0.45300*%
%ADD43R,0.00300X0.41100*%
%ADD44R,0.00300X0.46500*%
%ADD45R,0.00300X0.42300*%
%ADD46R,0.00300X0.47400*%
%ADD47R,0.00300X0.43200*%
%ADD48R,0.00300X0.48300*%
%ADD49R,0.00300X0.49500*%
%ADD50R,0.00300X0.50400*%
%ADD51R,0.00300X0.45900*%
%ADD52R,0.00300X0.51300*%
%ADD53R,0.00300X0.47100*%
%ADD54R,0.00300X0.51900*%
%ADD55R,0.00300X0.47700*%
%ADD56R,0.00300X0.52800*%
%ADD57R,0.00300X0.48600*%
%ADD58R,0.00300X0.53700*%
%ADD59R,0.00300X0.54300*%
%ADD60R,0.00300X0.54900*%
%ADD61R,0.00300X0.51000*%
%ADD62R,0.00300X0.55800*%
%ADD63R,0.00300X0.51600*%
%ADD64R,0.00300X0.56400*%
%ADD65R,0.00300X0.52500*%
%ADD66R,0.00300X0.57000*%
%ADD67R,0.00300X0.53400*%
%ADD68R,0.00300X0.57600*%
%ADD69R,0.00300X0.54000*%
%ADD70R,0.00300X0.58200*%
%ADD71R,0.00300X0.54600*%
%ADD72R,0.00300X0.58800*%
%ADD73R,0.00300X0.55200*%
%ADD74R,0.00300X0.59400*%
%ADD75R,0.00300X0.60000*%
%ADD76R,0.00300X0.60600*%
%ADD77R,0.00300X0.60900*%
%ADD78R,0.00300X0.61500*%
%ADD79R,0.00300X0.61800*%
%ADD80R,0.00300X0.62400*%
%ADD81R,0.00300X0.63000*%
%ADD82R,0.00300X0.63300*%
%ADD83R,0.00300X0.63600*%
%ADD84R,0.00300X0.64200*%
%ADD85R,0.00300X0.64500*%
%ADD86R,0.00300X0.62100*%
%ADD87R,0.00300X0.64800*%
%ADD88R,0.00300X0.62700*%
%ADD89R,0.00300X0.65400*%
%ADD90R,0.00300X0.66000*%
%ADD91R,0.00300X0.63900*%
%ADD92R,0.00300X0.66300*%
%ADD93R,0.00300X0.66600*%
%ADD94R,0.00300X0.66900*%
%ADD95R,0.00300X0.67200*%
%ADD96R,0.00300X0.65700*%
%ADD97R,0.00300X0.67500*%
%ADD98R,0.00300X0.67800*%
%ADD99R,0.00300X0.68100*%
%ADD100R,0.00300X0.30600*%
%ADD101R,0.00300X0.29400*%
%ADD102R,0.00300X0.28800*%
%ADD103R,0.00300X0.27900*%
%ADD104R,0.00300X0.27300*%
%ADD105R,0.00300X0.26100*%
%ADD106R,0.00300X0.68400*%
%ADD107R,0.00300X0.68700*%
%ADD108R,0.00300X0.24900*%
%ADD109R,0.00300X0.69000*%
%ADD110R,0.00300X0.31200*%
%ADD111R,0.00300X0.24000*%
%ADD112R,0.00300X0.23700*%
%ADD113R,0.00300X0.29100*%
%ADD114R,0.00300X0.23400*%
%ADD115R,0.00300X0.23100*%
%ADD116R,0.00300X0.27600*%
%ADD117R,0.00300X0.22800*%
%ADD118R,0.00300X0.27000*%
%ADD119R,0.00300X0.26400*%
%ADD120R,0.00300X0.25800*%
%ADD121R,0.00300X0.21900*%
%ADD122R,0.00300X0.25200*%
%ADD123R,0.00300X0.24300*%
%ADD124R,0.00300X0.21600*%
%ADD125R,0.00300X0.31800*%
%ADD126R,0.00300X0.33000*%
%ADD127R,0.00300X0.33900*%
%ADD128R,0.00300X0.34800*%
%ADD129R,0.00300X0.37200*%
%ADD130R,0.00300X0.38100*%
%ADD131R,0.00300X0.39300*%
%ADD132R,0.00300X0.45000*%
%ADD133R,0.00300X0.48000*%
%ADD134R,0.00300X0.48900*%
%ADD135R,0.00300X0.49800*%
%ADD136R,0.00300X0.52200*%
%ADD137R,0.00300X0.53100*%
%ADD138R,0.00300X0.50700*%
%ADD139R,0.00300X0.50100*%
%ADD140R,0.00300X0.49200*%
%ADD141R,0.00300X0.45600*%
%ADD142R,0.00300X0.43800*%
%ADD143R,0.00300X0.42000*%
%ADD144R,0.00300X0.37800*%
%ADD145R,0.00300X0.36600*%
%ADD146R,0.00300X0.35700*%
%ADD147R,0.00300X0.34500*%
%ADD148R,0.00300X0.21300*%
%ADD149R,0.00300X0.09600*%
%ADD150R,0.00300X0.08700*%
%ADD151R,0.00300X0.08100*%
%ADD152R,0.00300X0.07800*%
%ADD153R,0.00300X0.07500*%
%ADD154R,0.00300X0.06900*%
%ADD155R,0.00300X0.02100*%
%ADD156R,0.00300X0.06600*%
%ADD157R,0.00300X0.04200*%
%ADD158R,0.00300X0.06300*%
%ADD159R,0.00300X0.04800*%
%ADD160R,0.00300X0.06000*%
%ADD161R,0.00300X0.05700*%
%ADD162R,0.00300X0.05400*%
%ADD163R,0.00300X0.03000*%
%ADD164R,0.00300X0.02400*%
%ADD165R,0.00300X0.02700*%
%ADD166R,0.00300X0.05100*%
%ADD167R,0.00300X0.69600*%
%ADD168R,0.00300X0.69300*%
%ADD169R,0.00300X0.01800*%
%ADD170R,0.00300X0.61200*%
%ADD171R,0.00300X0.60300*%
%ADD172R,0.00300X0.03600*%
%ADD173R,0.00300X0.59700*%
%ADD174R,0.00300X0.59100*%
%ADD175R,0.00300X0.57900*%
%ADD176R,0.00300X0.58500*%
%ADD177R,0.00300X0.57300*%
%ADD178R,0.00300X0.56700*%
%ADD179R,0.00300X0.18300*%
%ADD180R,0.00300X0.17700*%
%ADD181R,0.00300X0.56100*%
%ADD182R,0.00300X0.17100*%
%ADD183R,0.00300X0.16500*%
%ADD184R,0.00300X0.15900*%
%ADD185R,0.00300X0.15600*%
%ADD186R,0.00300X0.14700*%
%ADD187R,0.00300X0.14400*%
%ADD188R,0.00300X0.13500*%
%ADD189R,0.00300X0.12300*%
%ADD190R,0.00300X0.46800*%
%ADD191R,0.00300X0.40800*%
%ADD192R,0.00300X0.39600*%
%ADD193R,0.00300X0.38400*%
%ADD194R,0.00300X0.36900*%
%ADD195R,0.00300X0.32700*%
%ADD196R,0.00300X0.31500*%
%ADD197R,0.00300X0.30900*%
%ADD198R,0.00300X0.29700*%
%ADD199R,0.00300X0.20400*%
%ADD200R,0.00300X0.19200*%
%ADD201R,0.00300X0.17400*%
%ADD202R,0.00300X0.16200*%
%ADD203R,0.00300X0.00600*%
%ADD204R,0.00300X0.12600*%
%ADD205R,0.00300X0.00900*%
%ADD206R,0.00300X0.01500*%
%ADD207R,0.00300X0.00300*%
%ADD208R,0.00300X0.01200*%
%ADD209R,0.00300X0.03300*%
%ADD210R,0.00300X0.03900*%
%ADD211R,0.00300X0.04500*%
%ADD212R,0.00300X0.09000*%
%ADD213R,0.00300X0.09300*%
%ADD214R,0.00300X0.10500*%
%ADD215R,0.00300X0.12000*%
%ADD216R,0.00300X0.13800*%
%ADD217R,0.00300X0.09900*%
%ADD218R,0.00300X0.11700*%
%ADD219R,0.00300X0.10800*%
%ADD220R,0.00300X0.12900*%
%ADD221R,0.00300X0.10200*%
%ADD222R,0.00300X0.11400*%
%ADD223R,0.00300X0.11100*%
%ADD224R,0.00300X0.15300*%
%ADD225R,0.00300X0.14100*%
%ADD226R,0.00300X0.20700*%
%ADD227R,0.00300X0.18600*%
%ADD228C,0.01800*%
D10*
X0225984Y0219435D02*
X0228119Y0217300D01*
X0230255Y0219435D01*
X0230255Y0223705D01*
X0232430Y0223705D02*
X0236700Y0223705D01*
X0236700Y0220503D01*
X0234565Y0221570D01*
X0233497Y0221570D01*
X0232430Y0220503D01*
X0232430Y0218368D01*
X0233497Y0217300D01*
X0235632Y0217300D01*
X0236700Y0218368D01*
X0225984Y0219435D02*
X0225984Y0223705D01*
X0249539Y0222638D02*
X0249539Y0218368D01*
X0250606Y0217300D01*
X0253809Y0217300D01*
X0253809Y0223705D01*
X0250606Y0223705D01*
X0249539Y0222638D01*
X0255984Y0223705D02*
X0255984Y0217300D01*
X0260255Y0223705D01*
X0260255Y0217300D01*
X0262430Y0218368D02*
X0262430Y0220503D01*
X0264565Y0220503D01*
X0266700Y0222638D02*
X0266700Y0218368D01*
X0265632Y0217300D01*
X0263497Y0217300D01*
X0262430Y0218368D01*
X0262430Y0222638D02*
X0263497Y0223705D01*
X0265632Y0223705D01*
X0266700Y0222638D01*
X0285606Y0203705D02*
X0288809Y0203705D01*
X0288809Y0197300D01*
X0285606Y0197300D01*
X0284539Y0198368D01*
X0284539Y0202638D01*
X0285606Y0203705D01*
X0290984Y0203705D02*
X0290984Y0197300D01*
X0295255Y0203705D01*
X0295255Y0197300D01*
X0297430Y0198368D02*
X0297430Y0200503D01*
X0299565Y0200503D01*
X0301700Y0202638D02*
X0301700Y0198368D01*
X0300632Y0197300D01*
X0298497Y0197300D01*
X0297430Y0198368D01*
X0297430Y0202638D02*
X0298497Y0203705D01*
X0300632Y0203705D01*
X0301700Y0202638D01*
X0290632Y0252300D02*
X0288497Y0252300D01*
X0287430Y0253368D01*
X0287430Y0254435D01*
X0288497Y0255503D01*
X0290632Y0255503D01*
X0291700Y0256570D01*
X0291700Y0257638D01*
X0290632Y0258705D01*
X0288497Y0258705D01*
X0287430Y0257638D01*
X0287430Y0256570D01*
X0288497Y0255503D01*
X0290632Y0255503D02*
X0291700Y0254435D01*
X0291700Y0253368D01*
X0290632Y0252300D01*
X0285255Y0254435D02*
X0285255Y0258705D01*
X0285255Y0254435D02*
X0283119Y0252300D01*
X0280984Y0254435D01*
X0280984Y0258705D01*
D11*
X0141800Y0204050D03*
X0077600Y0139550D03*
X0182900Y0135350D03*
X0195200Y0125150D03*
D12*
X0077600Y0054050D03*
X0181700Y0136250D03*
X0204200Y0135650D03*
X0204200Y0126350D03*
X0199700Y0174350D03*
X0215900Y0173750D03*
X0191300Y0212750D03*
X0153200Y0202850D03*
X0147800Y0206750D03*
X0147500Y0206750D03*
X0147200Y0206750D03*
X0143000Y0204950D03*
X0149900Y0196850D03*
X0153200Y0190850D03*
X0142400Y0189350D03*
D13*
X0077900Y0139550D03*
X0205400Y0131150D03*
D14*
X0206300Y0131150D03*
X0164000Y0139550D03*
X0157100Y0195650D03*
X0197000Y0213650D03*
X0077900Y0054050D03*
D15*
X0078200Y0139400D03*
X0193100Y0128900D03*
X0194000Y0129500D03*
X0194300Y0129800D03*
X0194600Y0130100D03*
D16*
X0155000Y0196550D03*
X0078200Y0054050D03*
D17*
X0078800Y0053900D03*
X0104300Y0028400D03*
X0104900Y0028100D03*
X0105200Y0028100D03*
X0105500Y0028100D03*
X0105800Y0027800D03*
X0106100Y0027800D03*
X0136400Y0027500D03*
X0136700Y0027500D03*
X0137300Y0027800D03*
X0134900Y0082400D03*
X0134300Y0082700D03*
X0134000Y0082700D03*
X0133700Y0083000D03*
X0133400Y0083000D03*
X0133100Y0083000D03*
X0132500Y0083300D03*
X0109400Y0083300D03*
X0108800Y0083000D03*
X0108500Y0083000D03*
X0108200Y0083000D03*
X0107900Y0082700D03*
X0107600Y0082700D03*
X0107000Y0082400D03*
X0105500Y0114500D03*
X0105200Y0114500D03*
X0098900Y0115100D03*
X0098300Y0115400D03*
X0078500Y0139400D03*
X0101000Y0164000D03*
X0101600Y0164300D03*
X0101900Y0164300D03*
X0102200Y0164300D03*
X0103100Y0164600D03*
X0137900Y0162200D03*
X0138200Y0162200D03*
X0143900Y0161900D03*
X0144200Y0161600D03*
X0189500Y0126800D03*
X0190700Y0128000D03*
X0142700Y0117800D03*
X0142400Y0117500D03*
X0142100Y0117500D03*
D18*
X0193400Y0129050D03*
X0193700Y0129350D03*
X0078500Y0054050D03*
D19*
X0099200Y0031400D03*
X0099500Y0031100D03*
X0142400Y0030500D03*
X0142700Y0030800D03*
X0108800Y0116300D03*
X0095900Y0117500D03*
X0078800Y0139400D03*
X0096500Y0161300D03*
X0096800Y0161600D03*
X0146600Y0159500D03*
X0186800Y0125900D03*
X0145700Y0119900D03*
D20*
X0110000Y0117650D03*
X0079100Y0139250D03*
X0095300Y0159650D03*
X0134000Y0158750D03*
X0097400Y0033350D03*
D21*
X0100100Y0030650D03*
X0100400Y0030350D03*
X0079100Y0054050D03*
X0101000Y0079250D03*
X0107900Y0115550D03*
X0108200Y0115850D03*
X0096500Y0116750D03*
X0140900Y0079250D03*
X0141800Y0030050D03*
X0141500Y0029750D03*
X0146300Y0159950D03*
X0136100Y0161150D03*
X0097700Y0162350D03*
X0097400Y0162050D03*
D22*
X0102500Y0164450D03*
X0102800Y0164450D03*
X0103400Y0164750D03*
X0103700Y0164750D03*
X0104000Y0164750D03*
X0104300Y0164750D03*
X0104300Y0196850D03*
X0104600Y0196850D03*
X0104900Y0196850D03*
X0105200Y0196850D03*
X0105500Y0196850D03*
X0105800Y0196850D03*
X0106100Y0196850D03*
X0106400Y0196850D03*
X0106700Y0196850D03*
X0107000Y0196850D03*
X0107300Y0196850D03*
X0107600Y0196850D03*
X0107900Y0196850D03*
X0108200Y0196850D03*
X0108500Y0196850D03*
X0108800Y0196850D03*
X0109100Y0196850D03*
X0109400Y0196850D03*
X0109700Y0196850D03*
X0110000Y0196850D03*
X0110300Y0196850D03*
X0110600Y0196850D03*
X0110900Y0196850D03*
X0111200Y0196850D03*
X0111500Y0196850D03*
X0111800Y0196850D03*
X0112100Y0196850D03*
X0112400Y0196850D03*
X0112700Y0196850D03*
X0113000Y0196850D03*
X0113300Y0196850D03*
X0113600Y0196850D03*
X0113900Y0196850D03*
X0114200Y0196850D03*
X0114500Y0196850D03*
X0114800Y0196850D03*
X0115100Y0196850D03*
X0115400Y0196850D03*
X0115700Y0196850D03*
X0116000Y0196850D03*
X0116300Y0196850D03*
X0116600Y0196850D03*
X0116900Y0196850D03*
X0117200Y0196850D03*
X0117500Y0196850D03*
X0117800Y0196850D03*
X0118100Y0196850D03*
X0118400Y0196850D03*
X0118700Y0196850D03*
X0119000Y0196850D03*
X0119300Y0196850D03*
X0119600Y0196850D03*
X0119900Y0196850D03*
X0120200Y0196850D03*
X0120500Y0196850D03*
X0120800Y0196850D03*
X0121100Y0196850D03*
X0121400Y0196850D03*
X0121700Y0196850D03*
X0122000Y0196850D03*
X0122300Y0196850D03*
X0122600Y0196850D03*
X0122900Y0196850D03*
X0123200Y0196850D03*
X0123500Y0196850D03*
X0123800Y0196850D03*
X0124100Y0196850D03*
X0124400Y0196850D03*
X0124700Y0196850D03*
X0125000Y0196850D03*
X0125300Y0196850D03*
X0125600Y0196850D03*
X0125900Y0196850D03*
X0126200Y0196850D03*
X0126500Y0196850D03*
X0126800Y0196850D03*
X0127100Y0196850D03*
X0127400Y0196850D03*
X0127700Y0196850D03*
X0128000Y0196850D03*
X0128300Y0196850D03*
X0128600Y0196850D03*
X0128900Y0196850D03*
X0129200Y0196850D03*
X0129500Y0196850D03*
X0129800Y0196850D03*
X0130100Y0196850D03*
X0130400Y0196850D03*
X0130700Y0196850D03*
X0131000Y0196850D03*
X0131300Y0196850D03*
X0131600Y0196850D03*
X0131900Y0196850D03*
X0132200Y0196850D03*
X0132500Y0196850D03*
X0132800Y0196850D03*
X0133100Y0196850D03*
X0133400Y0196850D03*
X0133700Y0196850D03*
X0134000Y0196850D03*
X0134300Y0196850D03*
X0134600Y0196850D03*
X0134900Y0196850D03*
X0135200Y0196850D03*
X0135500Y0196850D03*
X0135800Y0196850D03*
X0136100Y0196850D03*
X0136400Y0196850D03*
X0136700Y0196850D03*
X0137000Y0196850D03*
X0137300Y0196850D03*
X0137600Y0196850D03*
X0137900Y0196850D03*
X0138200Y0196850D03*
X0138500Y0196850D03*
X0138800Y0196850D03*
X0139100Y0196850D03*
X0139400Y0196850D03*
X0139700Y0196850D03*
X0140000Y0196850D03*
X0140300Y0196850D03*
X0140600Y0196850D03*
X0140900Y0196850D03*
X0138800Y0162350D03*
X0138500Y0162350D03*
X0143300Y0162050D03*
X0143600Y0162050D03*
X0104000Y0196850D03*
X0103700Y0196850D03*
X0103400Y0196850D03*
X0103100Y0196850D03*
X0102800Y0196850D03*
X0102500Y0196850D03*
X0102200Y0196850D03*
X0101900Y0196850D03*
X0101600Y0196850D03*
X0101300Y0196850D03*
X0101000Y0196850D03*
X0100700Y0196850D03*
X0100400Y0196850D03*
X0100100Y0196850D03*
X0099800Y0196850D03*
X0099500Y0196850D03*
X0099200Y0196850D03*
X0098900Y0196850D03*
X0098600Y0196850D03*
X0098300Y0196850D03*
X0098000Y0196850D03*
X0097700Y0196850D03*
X0097400Y0196850D03*
X0097100Y0196850D03*
X0096800Y0196850D03*
X0096500Y0196850D03*
X0096200Y0196850D03*
X0095900Y0196850D03*
X0095600Y0196850D03*
X0095300Y0196850D03*
X0095000Y0196850D03*
X0094700Y0196850D03*
X0094400Y0196850D03*
X0094100Y0196850D03*
X0093800Y0196850D03*
X0093500Y0196850D03*
X0093200Y0196850D03*
X0092900Y0196850D03*
X0092600Y0196850D03*
X0092300Y0196850D03*
X0092000Y0196850D03*
X0091700Y0196850D03*
X0091400Y0196850D03*
X0091100Y0196850D03*
X0090800Y0196850D03*
X0090500Y0196850D03*
X0090200Y0196850D03*
X0089900Y0196850D03*
X0089600Y0196850D03*
X0089300Y0196850D03*
X0089000Y0196850D03*
X0088700Y0196850D03*
X0088400Y0196850D03*
X0088100Y0196850D03*
X0087800Y0196850D03*
X0087500Y0196850D03*
X0087200Y0196850D03*
X0086900Y0196850D03*
X0086600Y0196850D03*
X0086300Y0196850D03*
X0086000Y0196850D03*
X0085700Y0196850D03*
X0085400Y0196850D03*
X0085100Y0196850D03*
X0084800Y0196850D03*
X0084500Y0196850D03*
X0084200Y0196850D03*
X0083900Y0196850D03*
X0083600Y0196850D03*
X0083300Y0196850D03*
X0083000Y0196850D03*
X0082700Y0196850D03*
X0082400Y0196850D03*
X0082100Y0196850D03*
X0081800Y0196850D03*
X0081500Y0196850D03*
X0081200Y0196850D03*
X0080900Y0196850D03*
X0080600Y0196850D03*
X0080300Y0196850D03*
X0080000Y0196850D03*
X0079700Y0196850D03*
X0079400Y0196850D03*
X0141200Y0117350D03*
X0141500Y0117350D03*
X0141800Y0117350D03*
X0140300Y0117050D03*
X0131000Y0083750D03*
X0130700Y0083750D03*
X0130400Y0083750D03*
X0129500Y0084050D03*
X0129200Y0084050D03*
X0128900Y0084050D03*
X0127400Y0084350D03*
X0131300Y0083450D03*
X0131600Y0083450D03*
X0131900Y0083450D03*
X0132200Y0083450D03*
X0132800Y0083150D03*
X0114500Y0084350D03*
X0113000Y0084050D03*
X0112700Y0084050D03*
X0112400Y0084050D03*
X0111500Y0083750D03*
X0111200Y0083750D03*
X0110900Y0083750D03*
X0110600Y0083450D03*
X0110300Y0083450D03*
X0110000Y0083450D03*
X0109700Y0083450D03*
X0109100Y0083150D03*
X0104900Y0114350D03*
X0104600Y0114350D03*
X0100100Y0114650D03*
X0099500Y0114950D03*
X0099200Y0114950D03*
X0189800Y0126950D03*
X0136100Y0027350D03*
X0135800Y0027350D03*
X0135500Y0027350D03*
X0135200Y0027350D03*
X0134900Y0027050D03*
X0134600Y0027050D03*
X0134300Y0027050D03*
X0134000Y0027050D03*
X0110000Y0027050D03*
X0108200Y0027350D03*
X0107900Y0027350D03*
X0107600Y0027350D03*
X0107000Y0027650D03*
X0106700Y0027650D03*
X0106400Y0027650D03*
D23*
X0096800Y0034550D03*
X0096800Y0074450D03*
X0145100Y0074450D03*
X0079400Y0139250D03*
D24*
X0095300Y0118400D03*
X0109400Y0116900D03*
X0095900Y0160700D03*
X0185600Y0125600D03*
X0185900Y0125600D03*
X0191600Y0131000D03*
X0143600Y0031700D03*
X0143300Y0031400D03*
X0098300Y0032300D03*
X0079400Y0053900D03*
D25*
X0079700Y0139250D03*
D26*
X0110300Y0118100D03*
X0097400Y0075500D03*
X0079700Y0053900D03*
X0144500Y0032900D03*
X0144500Y0075500D03*
D27*
X0080000Y0139250D03*
D28*
X0110900Y0119000D03*
X0133400Y0157700D03*
X0080000Y0053900D03*
X0145100Y0034100D03*
D29*
X0112700Y0122450D03*
X0080300Y0139250D03*
D30*
X0132800Y0156500D03*
X0080300Y0053900D03*
D31*
X0081500Y0053900D03*
X0080600Y0139100D03*
D32*
X0132500Y0155900D03*
X0080600Y0053900D03*
D33*
X0080900Y0139250D03*
X0131000Y0152750D03*
D34*
X0080900Y0053900D03*
D35*
X0113900Y0125000D03*
X0081200Y0139100D03*
D36*
X0081200Y0053900D03*
D37*
X0159200Y0054200D03*
X0081500Y0139100D03*
D38*
X0081800Y0139100D03*
X0158900Y0054200D03*
D39*
X0081800Y0053900D03*
D40*
X0083300Y0053900D03*
X0115100Y0127400D03*
X0082100Y0139100D03*
D41*
X0130700Y0152000D03*
X0082100Y0053900D03*
D42*
X0083600Y0053900D03*
X0082400Y0139100D03*
D43*
X0114200Y0125600D03*
X0130400Y0151400D03*
X0082400Y0053900D03*
D44*
X0116000Y0129200D03*
X0128600Y0147800D03*
X0082700Y0139100D03*
D45*
X0114500Y0126200D03*
X0082700Y0053900D03*
D46*
X0157400Y0054050D03*
X0116300Y0129650D03*
X0083000Y0139250D03*
X0157700Y0139850D03*
D47*
X0159200Y0139850D03*
X0129800Y0150050D03*
X0114800Y0126950D03*
X0083000Y0054050D03*
D48*
X0083300Y0139100D03*
D49*
X0083600Y0139100D03*
X0117200Y0131300D03*
X0085100Y0053900D03*
D50*
X0085400Y0054050D03*
X0156500Y0054050D03*
X0117800Y0132350D03*
X0126800Y0144650D03*
X0083900Y0139250D03*
D51*
X0115700Y0128600D03*
X0158300Y0139700D03*
X0083900Y0053900D03*
D52*
X0118400Y0133100D03*
X0084200Y0139100D03*
D53*
X0128300Y0147200D03*
X0084200Y0053900D03*
D54*
X0118700Y0133700D03*
X0125900Y0143300D03*
X0084500Y0139100D03*
D55*
X0084500Y0053900D03*
D56*
X0119600Y0134750D03*
X0125000Y0141950D03*
X0155600Y0139850D03*
X0084800Y0139250D03*
D57*
X0127700Y0146150D03*
X0157400Y0139850D03*
X0157100Y0054050D03*
X0084800Y0054050D03*
D58*
X0120500Y0136100D03*
X0120800Y0136400D03*
X0121400Y0137300D03*
X0123500Y0140000D03*
X0123800Y0140300D03*
X0085100Y0139100D03*
D59*
X0085400Y0139100D03*
D60*
X0085700Y0139100D03*
D61*
X0118100Y0132650D03*
X0085700Y0054050D03*
X0156200Y0054050D03*
D62*
X0087800Y0054050D03*
X0086000Y0139250D03*
X0154100Y0139850D03*
D63*
X0156200Y0139850D03*
X0126200Y0143750D03*
X0155900Y0054050D03*
X0086000Y0054050D03*
D64*
X0088100Y0054050D03*
X0086300Y0139250D03*
X0153800Y0139850D03*
D65*
X0125300Y0142400D03*
X0119300Y0134600D03*
X0086300Y0053900D03*
X0155600Y0053900D03*
D66*
X0088400Y0054050D03*
X0086600Y0139250D03*
D67*
X0120200Y0135650D03*
X0124100Y0140750D03*
X0155300Y0139850D03*
X0155300Y0054050D03*
X0086600Y0054050D03*
D68*
X0088700Y0054050D03*
X0086900Y0139250D03*
D69*
X0121100Y0136850D03*
X0121700Y0137750D03*
X0122000Y0138050D03*
X0122300Y0138350D03*
X0122600Y0138950D03*
X0122900Y0139250D03*
X0123200Y0139550D03*
X0155000Y0139850D03*
X0155000Y0054050D03*
X0086900Y0054050D03*
D70*
X0089000Y0054050D03*
X0087200Y0139250D03*
X0152600Y0139850D03*
D71*
X0154700Y0139850D03*
X0154700Y0054050D03*
X0087200Y0054050D03*
D72*
X0089300Y0054050D03*
X0087500Y0139250D03*
X0152300Y0139850D03*
D73*
X0154400Y0139850D03*
X0154400Y0054050D03*
X0087500Y0054050D03*
D74*
X0089600Y0054050D03*
X0087800Y0139250D03*
D75*
X0088100Y0139250D03*
X0151400Y0139850D03*
X0089900Y0054050D03*
D76*
X0090200Y0054050D03*
X0088400Y0139250D03*
D77*
X0088700Y0139100D03*
X0150800Y0140000D03*
X0151700Y0053900D03*
X0090500Y0054200D03*
D78*
X0090800Y0054200D03*
X0089000Y0139100D03*
X0150200Y0140000D03*
D79*
X0149900Y0139850D03*
X0089300Y0139250D03*
X0151100Y0054050D03*
D80*
X0150800Y0054050D03*
X0089600Y0139250D03*
X0149300Y0139850D03*
D81*
X0148700Y0139850D03*
X0089900Y0139250D03*
X0091700Y0054350D03*
X0150500Y0054050D03*
D82*
X0092000Y0054200D03*
X0090200Y0139100D03*
X0148400Y0140000D03*
D83*
X0148100Y0139850D03*
X0090500Y0139250D03*
X0150200Y0054050D03*
D84*
X0149600Y0054050D03*
X0090800Y0139250D03*
X0147500Y0139850D03*
D85*
X0091100Y0139100D03*
X0092600Y0054200D03*
D86*
X0091100Y0054200D03*
X0149600Y0140000D03*
D87*
X0091400Y0139250D03*
X0092900Y0054350D03*
X0149300Y0054050D03*
D88*
X0091400Y0054200D03*
X0149000Y0140000D03*
D89*
X0092000Y0139250D03*
X0091700Y0139250D03*
X0093200Y0054350D03*
X0149000Y0054050D03*
D90*
X0148700Y0054050D03*
X0148400Y0054050D03*
X0093800Y0054350D03*
X0092300Y0139250D03*
D91*
X0147800Y0140000D03*
X0149900Y0053900D03*
X0092300Y0054200D03*
D92*
X0092600Y0139400D03*
D93*
X0092900Y0139250D03*
X0094100Y0054350D03*
X0148100Y0054050D03*
D94*
X0094400Y0054500D03*
X0093200Y0139400D03*
D95*
X0093500Y0139250D03*
X0094700Y0054350D03*
X0147800Y0054050D03*
D96*
X0093500Y0054200D03*
D97*
X0147500Y0054200D03*
X0093800Y0139400D03*
D98*
X0094100Y0139250D03*
X0095000Y0054350D03*
X0147200Y0054050D03*
D99*
X0146900Y0054200D03*
X0095300Y0054500D03*
X0094400Y0139400D03*
D100*
X0094700Y0158150D03*
D101*
X0094700Y0119750D03*
X0110600Y0118550D03*
X0147200Y0122450D03*
D102*
X0095000Y0159050D03*
X0097100Y0033950D03*
D103*
X0144200Y0032600D03*
X0162200Y0054200D03*
X0095000Y0119000D03*
X0134300Y0159200D03*
X0146900Y0121700D03*
D104*
X0146600Y0121100D03*
X0162500Y0139700D03*
X0147200Y0158300D03*
X0109700Y0117200D03*
X0098000Y0076400D03*
X0143900Y0076400D03*
X0098000Y0032600D03*
X0095600Y0160100D03*
D105*
X0096200Y0161000D03*
X0095600Y0117800D03*
X0109100Y0116600D03*
X0162500Y0054200D03*
X0143000Y0031100D03*
X0098600Y0032000D03*
D106*
X0095600Y0054350D03*
D107*
X0095900Y0054500D03*
X0146600Y0054200D03*
D108*
X0141500Y0078800D03*
X0141200Y0079100D03*
X0100700Y0079100D03*
X0100400Y0078800D03*
X0096200Y0117200D03*
X0145400Y0119600D03*
X0187400Y0126200D03*
X0191300Y0129800D03*
X0135800Y0161000D03*
X0097100Y0161900D03*
X0099800Y0030800D03*
D109*
X0096200Y0054350D03*
X0146300Y0054050D03*
D110*
X0145400Y0073550D03*
X0096500Y0073550D03*
X0096500Y0035450D03*
X0111200Y0119450D03*
X0133100Y0157250D03*
X0192500Y0133850D03*
D111*
X0136400Y0161450D03*
X0098600Y0162950D03*
X0098000Y0162650D03*
X0096800Y0116450D03*
X0107300Y0115250D03*
X0102200Y0080150D03*
X0101900Y0079850D03*
X0139700Y0080150D03*
X0140000Y0079850D03*
X0162800Y0054350D03*
X0140900Y0029450D03*
X0140600Y0029150D03*
X0101300Y0029750D03*
X0101000Y0030050D03*
D112*
X0101600Y0029600D03*
X0102200Y0029300D03*
X0139700Y0028700D03*
X0140000Y0029000D03*
X0140300Y0029000D03*
X0139400Y0080300D03*
X0139100Y0080600D03*
X0138800Y0080600D03*
X0103100Y0080600D03*
X0102800Y0080600D03*
X0102500Y0080300D03*
X0107000Y0115100D03*
X0097100Y0116300D03*
X0144500Y0118700D03*
X0188300Y0126500D03*
X0188600Y0126500D03*
X0145700Y0160700D03*
X0136700Y0161600D03*
X0098900Y0163100D03*
X0098300Y0162800D03*
D113*
X0133700Y0158300D03*
X0162200Y0139700D03*
X0192200Y0132800D03*
X0144800Y0074900D03*
X0144800Y0033500D03*
X0097100Y0074900D03*
D114*
X0103400Y0080750D03*
X0103700Y0081050D03*
X0104000Y0081050D03*
X0137900Y0081050D03*
X0138200Y0081050D03*
X0138500Y0080750D03*
X0106700Y0114950D03*
X0097400Y0115850D03*
X0144200Y0118550D03*
X0191000Y0128750D03*
X0145400Y0160850D03*
X0145100Y0161150D03*
X0137000Y0161750D03*
X0099800Y0163550D03*
X0099200Y0163250D03*
X0101900Y0029450D03*
X0102500Y0029150D03*
X0139100Y0028550D03*
X0139400Y0028550D03*
D115*
X0138800Y0028400D03*
X0138500Y0028100D03*
X0138200Y0028100D03*
X0103700Y0028700D03*
X0103400Y0028700D03*
X0103100Y0029000D03*
X0102800Y0029000D03*
X0104300Y0081200D03*
X0104600Y0081500D03*
X0104900Y0081500D03*
X0105200Y0081800D03*
X0105500Y0081800D03*
X0136400Y0081800D03*
X0137000Y0081500D03*
X0137300Y0081500D03*
X0137600Y0081200D03*
X0106400Y0114800D03*
X0097700Y0115700D03*
X0143300Y0118100D03*
X0143600Y0118100D03*
X0143900Y0118400D03*
X0188900Y0126500D03*
X0144800Y0161300D03*
X0137300Y0161900D03*
X0100100Y0163700D03*
X0099500Y0163400D03*
D116*
X0191900Y0131750D03*
X0144200Y0075950D03*
X0097700Y0075950D03*
X0097700Y0033050D03*
X0143900Y0032150D03*
D117*
X0137900Y0027950D03*
X0137600Y0027950D03*
X0137000Y0027650D03*
X0104600Y0028250D03*
X0104000Y0028550D03*
X0105800Y0081950D03*
X0106100Y0081950D03*
X0106400Y0082250D03*
X0106700Y0082250D03*
X0107300Y0082550D03*
X0134600Y0082550D03*
X0135200Y0082250D03*
X0135500Y0082250D03*
X0135800Y0081950D03*
X0136100Y0081950D03*
X0136700Y0081650D03*
X0106100Y0114650D03*
X0105800Y0114650D03*
X0098600Y0115250D03*
X0098000Y0115550D03*
X0143000Y0117950D03*
X0163100Y0139550D03*
X0144500Y0161450D03*
X0137600Y0162050D03*
X0101300Y0164150D03*
X0100700Y0163850D03*
X0100400Y0163850D03*
X0189200Y0126650D03*
D118*
X0134600Y0159650D03*
X0143600Y0076850D03*
X0098300Y0076850D03*
D119*
X0098600Y0077150D03*
X0098900Y0077450D03*
X0143000Y0077450D03*
X0143300Y0077150D03*
X0146300Y0120650D03*
X0186200Y0125750D03*
X0146900Y0159050D03*
X0134900Y0159950D03*
D120*
X0135200Y0160250D03*
X0146000Y0120350D03*
X0186500Y0125750D03*
X0142400Y0078050D03*
X0142700Y0077750D03*
X0099500Y0078050D03*
X0099200Y0077750D03*
X0098900Y0031550D03*
D121*
X0107300Y0027500D03*
X0108500Y0027200D03*
X0108800Y0027200D03*
X0109100Y0027200D03*
X0109400Y0027200D03*
X0109700Y0027200D03*
X0110300Y0026900D03*
X0110600Y0026900D03*
X0110900Y0026900D03*
X0111200Y0026900D03*
X0111500Y0026900D03*
X0133100Y0026900D03*
X0133400Y0026900D03*
X0133700Y0026900D03*
X0130100Y0083900D03*
X0129800Y0083900D03*
X0128600Y0084200D03*
X0128300Y0084200D03*
X0128000Y0084200D03*
X0127700Y0084200D03*
X0127100Y0084500D03*
X0126800Y0084500D03*
X0126500Y0084500D03*
X0126200Y0084500D03*
X0125900Y0084500D03*
X0125600Y0084500D03*
X0125300Y0084500D03*
X0125000Y0084500D03*
X0124700Y0084500D03*
X0124400Y0084800D03*
X0124100Y0084800D03*
X0123800Y0084800D03*
X0123500Y0084800D03*
X0123200Y0084800D03*
X0122900Y0084800D03*
X0122600Y0084800D03*
X0122300Y0084800D03*
X0122000Y0084800D03*
X0121700Y0084800D03*
X0121400Y0084800D03*
X0121100Y0084800D03*
X0120800Y0084800D03*
X0120500Y0084800D03*
X0120200Y0084800D03*
X0119900Y0084800D03*
X0119600Y0084800D03*
X0119300Y0084800D03*
X0119000Y0084800D03*
X0118700Y0084800D03*
X0118400Y0084800D03*
X0118100Y0084800D03*
X0117800Y0084800D03*
X0117500Y0084800D03*
X0116900Y0084500D03*
X0116600Y0084500D03*
X0116300Y0084500D03*
X0116000Y0084500D03*
X0115700Y0084500D03*
X0115400Y0084500D03*
X0115100Y0084500D03*
X0114800Y0084500D03*
X0114200Y0084200D03*
X0113900Y0084200D03*
X0113600Y0084200D03*
X0113300Y0084200D03*
X0112100Y0083900D03*
X0111800Y0083900D03*
X0104300Y0114200D03*
X0104000Y0114200D03*
X0103700Y0114200D03*
X0103400Y0114200D03*
X0103100Y0114200D03*
X0102800Y0114200D03*
X0102500Y0114200D03*
X0101000Y0114500D03*
X0100700Y0114500D03*
X0100400Y0114500D03*
X0099800Y0114800D03*
X0137600Y0116900D03*
X0137900Y0116900D03*
X0138200Y0116900D03*
X0138500Y0116900D03*
X0138800Y0116900D03*
X0139100Y0116900D03*
X0139400Y0116900D03*
X0139700Y0116900D03*
X0140000Y0116900D03*
X0140600Y0117200D03*
X0140900Y0117200D03*
X0142400Y0162200D03*
X0142700Y0162200D03*
X0143000Y0162200D03*
X0142100Y0162500D03*
X0141800Y0162500D03*
X0141500Y0162500D03*
X0141200Y0162500D03*
X0140900Y0162500D03*
X0140600Y0162500D03*
X0140300Y0162500D03*
X0140000Y0162500D03*
X0139700Y0162500D03*
X0139400Y0162500D03*
X0139100Y0162500D03*
X0107000Y0164900D03*
X0106700Y0164900D03*
X0106400Y0164900D03*
X0106100Y0164900D03*
X0105800Y0164900D03*
X0105500Y0164900D03*
X0105200Y0164900D03*
X0104900Y0164900D03*
X0104600Y0164900D03*
D122*
X0135500Y0160550D03*
X0162800Y0139550D03*
X0187100Y0126050D03*
X0141800Y0078650D03*
X0142100Y0078350D03*
X0100100Y0078650D03*
X0099800Y0078350D03*
X0108500Y0116150D03*
X0142100Y0030350D03*
D123*
X0141200Y0029600D03*
X0100700Y0030200D03*
X0101300Y0079400D03*
X0101600Y0079700D03*
X0140300Y0079700D03*
X0140600Y0079400D03*
X0107600Y0115400D03*
X0144800Y0119000D03*
X0145100Y0119300D03*
X0187700Y0126200D03*
X0188000Y0126200D03*
X0146000Y0160400D03*
D124*
X0107300Y0165050D03*
X0102200Y0114350D03*
X0101900Y0114350D03*
X0101600Y0114350D03*
X0101300Y0114350D03*
X0117200Y0084650D03*
X0163100Y0054350D03*
X0190100Y0126950D03*
X0190400Y0127250D03*
D125*
X0192800Y0134750D03*
X0111500Y0120050D03*
X0145400Y0035150D03*
D126*
X0111800Y0120650D03*
D127*
X0112100Y0121100D03*
D128*
X0112400Y0121850D03*
D129*
X0113000Y0123050D03*
X0160700Y0139850D03*
D130*
X0113300Y0123800D03*
D131*
X0113600Y0124400D03*
D132*
X0115400Y0128150D03*
X0129200Y0148850D03*
X0158600Y0139850D03*
X0158300Y0054050D03*
D133*
X0116600Y0130250D03*
X0128000Y0146750D03*
D134*
X0116900Y0130700D03*
D135*
X0117500Y0131750D03*
X0156800Y0139850D03*
D136*
X0155900Y0139850D03*
X0125600Y0142850D03*
X0119000Y0134150D03*
D137*
X0119900Y0135200D03*
X0124400Y0141200D03*
X0124700Y0141500D03*
D138*
X0126500Y0144200D03*
X0156500Y0140000D03*
D139*
X0127100Y0145100D03*
D140*
X0127400Y0145550D03*
X0157100Y0139850D03*
X0156800Y0054050D03*
D141*
X0158000Y0054050D03*
X0128900Y0148250D03*
D142*
X0129500Y0149450D03*
X0158900Y0139850D03*
X0158600Y0054050D03*
D143*
X0159500Y0139850D03*
X0130100Y0150650D03*
D144*
X0131300Y0153350D03*
D145*
X0131600Y0153950D03*
D146*
X0131900Y0154700D03*
X0161000Y0139700D03*
X0160700Y0054200D03*
D147*
X0161000Y0054200D03*
X0161300Y0139700D03*
X0132200Y0155300D03*
D148*
X0132800Y0026900D03*
D149*
X0141200Y0190550D03*
X0141200Y0203150D03*
D150*
X0141500Y0203600D03*
X0141500Y0190100D03*
X0157700Y0196400D03*
X0196700Y0164600D03*
X0215600Y0173900D03*
X0183500Y0135200D03*
X0183200Y0135200D03*
X0184400Y0116000D03*
D151*
X0194900Y0135800D03*
X0195200Y0136100D03*
X0141800Y0189800D03*
D152*
X0153500Y0191450D03*
X0153500Y0202250D03*
X0142100Y0204350D03*
X0182300Y0135950D03*
X0182600Y0135650D03*
D153*
X0182000Y0136100D03*
X0195500Y0125000D03*
X0184100Y0115700D03*
X0164300Y0139400D03*
X0142100Y0189500D03*
X0142400Y0204500D03*
X0142700Y0204800D03*
X0181400Y0212600D03*
X0183500Y0197600D03*
X0198200Y0214400D03*
D154*
X0158000Y0196400D03*
X0144500Y0197000D03*
X0142700Y0189200D03*
X0143300Y0205400D03*
X0143600Y0205400D03*
X0146300Y0206600D03*
X0146600Y0206600D03*
X0146900Y0206600D03*
X0209600Y0174500D03*
X0195800Y0137000D03*
X0195500Y0136700D03*
X0181400Y0136400D03*
X0181100Y0136700D03*
X0164300Y0054200D03*
D155*
X0173000Y0116600D03*
X0173600Y0116600D03*
X0173900Y0116600D03*
X0172400Y0116900D03*
X0168500Y0130400D03*
X0168800Y0130700D03*
X0169100Y0131000D03*
X0197900Y0132500D03*
X0201500Y0132500D03*
X0203000Y0163400D03*
X0203600Y0163400D03*
X0206300Y0163400D03*
X0206600Y0163400D03*
X0208400Y0170600D03*
X0208700Y0170900D03*
X0208700Y0177800D03*
X0208400Y0178400D03*
X0201200Y0170300D03*
X0200600Y0170900D03*
X0200300Y0171200D03*
X0200600Y0178100D03*
X0200900Y0178400D03*
X0177500Y0197900D03*
X0178400Y0198200D03*
X0179300Y0198500D03*
X0184100Y0200300D03*
X0184700Y0200600D03*
X0186200Y0201200D03*
X0187100Y0201500D03*
X0188000Y0201800D03*
X0188900Y0202100D03*
X0190400Y0202700D03*
X0191000Y0203000D03*
X0190100Y0209000D03*
X0182600Y0208700D03*
X0182300Y0216200D03*
X0179600Y0221300D03*
X0179000Y0221000D03*
X0177500Y0220400D03*
X0177200Y0220400D03*
X0176600Y0220100D03*
X0176300Y0220100D03*
X0175700Y0219800D03*
X0173300Y0218900D03*
X0172400Y0218600D03*
X0170000Y0217700D03*
X0169400Y0217400D03*
X0169100Y0217400D03*
X0168500Y0217100D03*
X0167900Y0216800D03*
X0167600Y0216800D03*
X0167000Y0216500D03*
X0164600Y0215600D03*
X0163700Y0215300D03*
X0162800Y0215000D03*
X0161300Y0214400D03*
X0160700Y0214100D03*
X0160400Y0214100D03*
X0159800Y0213800D03*
X0159500Y0213800D03*
X0156800Y0212600D03*
X0156500Y0212600D03*
X0155900Y0212300D03*
X0155000Y0212000D03*
X0152600Y0211100D03*
X0152000Y0210800D03*
X0151700Y0210800D03*
X0151100Y0210500D03*
X0150800Y0210500D03*
X0148400Y0200300D03*
X0148100Y0200300D03*
X0148700Y0200000D03*
X0149000Y0200000D03*
X0146600Y0200300D03*
X0146300Y0200300D03*
X0146000Y0200000D03*
X0145700Y0200000D03*
X0143000Y0197000D03*
X0145400Y0194000D03*
X0145700Y0193700D03*
X0146000Y0193700D03*
X0146300Y0193400D03*
X0146600Y0193400D03*
X0146900Y0193400D03*
X0147500Y0193400D03*
X0147800Y0193400D03*
X0148100Y0193400D03*
X0148400Y0193400D03*
X0148700Y0193700D03*
X0149000Y0193700D03*
X0149300Y0194000D03*
X0151700Y0197000D03*
X0157700Y0190400D03*
X0158300Y0190700D03*
X0159200Y0191000D03*
X0160700Y0191600D03*
X0161600Y0191900D03*
X0162500Y0192200D03*
X0163400Y0192500D03*
X0164900Y0193100D03*
X0165500Y0193400D03*
X0165800Y0193400D03*
X0166400Y0193700D03*
X0166700Y0193700D03*
X0167300Y0194000D03*
X0168200Y0194300D03*
X0169400Y0194900D03*
X0170300Y0195200D03*
X0171200Y0195500D03*
X0172700Y0196100D03*
X0173600Y0196400D03*
X0174200Y0196700D03*
X0174500Y0196700D03*
X0175100Y0197000D03*
X0175400Y0197000D03*
X0190400Y0216200D03*
X0190100Y0216500D03*
X0189800Y0216800D03*
X0185900Y0223100D03*
X0186500Y0223400D03*
X0187100Y0223400D03*
X0185000Y0223100D03*
X0184700Y0223100D03*
X0184400Y0223100D03*
X0184100Y0222800D03*
X0183800Y0222800D03*
X0183500Y0222800D03*
X0182900Y0222500D03*
X0182000Y0222200D03*
X0181100Y0221900D03*
D156*
X0181100Y0212750D03*
X0183200Y0197750D03*
X0199400Y0174350D03*
X0180800Y0136850D03*
X0195800Y0124850D03*
X0203900Y0136250D03*
X0183800Y0115250D03*
X0143000Y0189050D03*
X0144200Y0196850D03*
X0150200Y0196850D03*
X0150500Y0196850D03*
X0152900Y0190550D03*
X0152900Y0203150D03*
X0146000Y0206450D03*
X0145400Y0206150D03*
X0144800Y0205850D03*
X0144500Y0205850D03*
X0144200Y0205550D03*
X0143900Y0205550D03*
D157*
X0143300Y0196850D03*
X0180500Y0212750D03*
X0185300Y0212750D03*
X0187400Y0212750D03*
X0195800Y0207350D03*
X0194600Y0220250D03*
X0194300Y0220550D03*
X0182300Y0198650D03*
X0203600Y0174350D03*
X0174500Y0135350D03*
X0174200Y0135050D03*
X0173900Y0134750D03*
X0179600Y0115250D03*
X0180800Y0114950D03*
X0181100Y0114950D03*
X0202100Y0130850D03*
D158*
X0196700Y0137600D03*
X0196100Y0137300D03*
X0180500Y0137000D03*
X0209900Y0174500D03*
X0196100Y0218000D03*
X0152600Y0203600D03*
X0145700Y0206300D03*
X0145100Y0206000D03*
X0152600Y0190100D03*
X0143300Y0188900D03*
D159*
X0146000Y0188150D03*
X0146300Y0188150D03*
X0146600Y0188150D03*
X0146900Y0188150D03*
X0147200Y0188150D03*
X0147500Y0188150D03*
X0147800Y0188150D03*
X0148100Y0188150D03*
X0148400Y0188150D03*
X0148700Y0188150D03*
X0149600Y0188450D03*
X0151100Y0196850D03*
X0158300Y0196550D03*
X0149600Y0205250D03*
X0148700Y0205550D03*
X0148400Y0205550D03*
X0148100Y0205550D03*
X0143600Y0196850D03*
X0186200Y0212750D03*
X0186500Y0212750D03*
X0191900Y0212750D03*
X0196100Y0208250D03*
X0194900Y0219950D03*
X0204200Y0174350D03*
X0204800Y0174350D03*
X0210200Y0174650D03*
X0195500Y0169250D03*
X0194900Y0170150D03*
X0179000Y0138050D03*
X0178700Y0138050D03*
X0176000Y0136550D03*
X0175700Y0136250D03*
X0175400Y0135950D03*
X0182600Y0114650D03*
X0182900Y0114650D03*
X0197900Y0123950D03*
X0198200Y0123950D03*
X0198500Y0123950D03*
X0198800Y0123950D03*
X0199100Y0123950D03*
X0199400Y0123950D03*
X0200300Y0123950D03*
X0200600Y0123950D03*
X0200900Y0123950D03*
X0201200Y0123950D03*
X0201800Y0124250D03*
D160*
X0203600Y0125450D03*
X0203900Y0125750D03*
X0196100Y0124850D03*
X0203600Y0136550D03*
X0203300Y0136850D03*
X0197000Y0137750D03*
X0196400Y0137450D03*
X0180200Y0137150D03*
X0183500Y0114950D03*
X0214100Y0178850D03*
X0182900Y0198050D03*
X0191600Y0212750D03*
X0198500Y0214850D03*
X0152300Y0203750D03*
X0152000Y0204050D03*
X0150800Y0196850D03*
X0143900Y0196850D03*
X0152300Y0189950D03*
X0152000Y0189650D03*
X0143600Y0188750D03*
D161*
X0143900Y0188600D03*
X0144200Y0188600D03*
X0151700Y0189500D03*
X0151400Y0204500D03*
X0183800Y0195800D03*
X0185000Y0192800D03*
X0187700Y0186800D03*
X0188300Y0185300D03*
X0188600Y0184400D03*
X0191900Y0176900D03*
X0210200Y0188000D03*
X0205700Y0198500D03*
X0203300Y0203900D03*
X0202100Y0206900D03*
X0199400Y0212900D03*
X0195800Y0218600D03*
X0197300Y0137900D03*
X0197600Y0137900D03*
X0202100Y0137600D03*
X0202400Y0137300D03*
X0202700Y0137300D03*
X0203000Y0137000D03*
X0203300Y0125300D03*
X0203000Y0125000D03*
X0196700Y0124400D03*
X0196400Y0124700D03*
X0179900Y0137600D03*
D162*
X0179600Y0137750D03*
X0178400Y0138050D03*
X0178100Y0138050D03*
X0177800Y0137750D03*
X0177500Y0137450D03*
X0176900Y0137150D03*
X0197600Y0130850D03*
X0197000Y0124250D03*
X0202400Y0124550D03*
X0202700Y0124550D03*
X0201800Y0137750D03*
X0201500Y0137750D03*
X0201200Y0137750D03*
X0200900Y0138050D03*
X0200600Y0138050D03*
X0199100Y0138350D03*
X0198800Y0138050D03*
X0198500Y0138050D03*
X0198200Y0138050D03*
X0197900Y0138050D03*
X0183200Y0114650D03*
X0197000Y0165650D03*
X0194600Y0171050D03*
X0194000Y0171950D03*
X0193700Y0172850D03*
X0192800Y0174950D03*
X0192500Y0175850D03*
X0192200Y0176450D03*
X0191300Y0178250D03*
X0190700Y0179750D03*
X0190400Y0180350D03*
X0190100Y0181250D03*
X0189800Y0181850D03*
X0189500Y0182450D03*
X0189200Y0183350D03*
X0188000Y0186050D03*
X0187400Y0187250D03*
X0187100Y0188150D03*
X0186800Y0188750D03*
X0186500Y0189650D03*
X0186200Y0190250D03*
X0185900Y0190850D03*
X0185600Y0191750D03*
X0185300Y0192050D03*
X0184700Y0193850D03*
X0184100Y0194750D03*
X0182600Y0198350D03*
X0180800Y0212750D03*
X0195500Y0219050D03*
X0198800Y0214250D03*
X0199700Y0212450D03*
X0200000Y0211550D03*
X0200300Y0210950D03*
X0201200Y0208850D03*
X0201500Y0207950D03*
X0201800Y0207350D03*
X0202400Y0205850D03*
X0202700Y0205250D03*
X0203900Y0202550D03*
X0204200Y0201950D03*
X0204500Y0201350D03*
X0204800Y0200450D03*
X0205400Y0199250D03*
X0206600Y0196550D03*
X0206900Y0195650D03*
X0207200Y0195050D03*
X0207500Y0194450D03*
X0207800Y0193550D03*
X0208100Y0192950D03*
X0208400Y0192050D03*
X0208700Y0191450D03*
X0209000Y0190850D03*
X0209300Y0189950D03*
X0209600Y0189350D03*
X0209900Y0189050D03*
X0210500Y0187250D03*
X0211100Y0186050D03*
X0211700Y0184550D03*
X0212000Y0183950D03*
X0212300Y0183050D03*
X0212600Y0182450D03*
X0213500Y0180650D03*
X0213800Y0179450D03*
X0199100Y0174350D03*
X0151400Y0189350D03*
X0151100Y0189050D03*
X0150500Y0188750D03*
X0144800Y0188450D03*
X0144500Y0188450D03*
X0151700Y0204350D03*
X0151100Y0204650D03*
X0150800Y0204950D03*
X0150500Y0204950D03*
D163*
X0144800Y0198950D03*
X0144800Y0194750D03*
X0184400Y0212750D03*
X0188000Y0212750D03*
X0194600Y0205550D03*
X0194000Y0204950D03*
X0192200Y0222050D03*
X0191900Y0222350D03*
X0191600Y0222350D03*
X0191300Y0222650D03*
X0200000Y0171950D03*
X0197900Y0165950D03*
X0198800Y0165350D03*
X0211100Y0165350D03*
X0211400Y0165650D03*
X0171500Y0132950D03*
X0171200Y0132650D03*
X0170900Y0132350D03*
X0176600Y0115850D03*
X0176900Y0115850D03*
D164*
X0175400Y0116150D03*
X0174500Y0116450D03*
X0174200Y0116450D03*
X0173300Y0116750D03*
X0169400Y0131150D03*
X0169700Y0131450D03*
X0200600Y0164150D03*
X0200900Y0164150D03*
X0201200Y0163850D03*
X0201500Y0163850D03*
X0201800Y0163550D03*
X0202100Y0163550D03*
X0202400Y0163550D03*
X0202700Y0163550D03*
X0203300Y0163250D03*
X0203900Y0163250D03*
X0204200Y0163250D03*
X0204500Y0163250D03*
X0204800Y0163250D03*
X0205100Y0163250D03*
X0205400Y0163250D03*
X0205700Y0163250D03*
X0206000Y0163250D03*
X0206900Y0163550D03*
X0207200Y0163550D03*
X0207500Y0163550D03*
X0207800Y0163850D03*
X0208100Y0163850D03*
X0208400Y0163850D03*
X0208700Y0164150D03*
X0209000Y0164150D03*
X0209300Y0164150D03*
X0209000Y0171350D03*
X0206600Y0174350D03*
X0200300Y0177650D03*
X0178100Y0198050D03*
X0177800Y0198050D03*
X0177200Y0197750D03*
X0176900Y0197750D03*
X0176600Y0197450D03*
X0176300Y0197450D03*
X0176000Y0197150D03*
X0175700Y0197150D03*
X0174800Y0196850D03*
X0173900Y0196550D03*
X0173300Y0196250D03*
X0173000Y0196250D03*
X0172400Y0195950D03*
X0172100Y0195950D03*
X0171800Y0195650D03*
X0171500Y0195650D03*
X0170900Y0195350D03*
X0170600Y0195350D03*
X0170000Y0195050D03*
X0169700Y0195050D03*
X0169100Y0194750D03*
X0168800Y0194750D03*
X0168500Y0194450D03*
X0167900Y0194150D03*
X0167600Y0194150D03*
X0167000Y0193850D03*
X0166100Y0193550D03*
X0165200Y0193250D03*
X0164600Y0192950D03*
X0164300Y0192950D03*
X0164000Y0192650D03*
X0163700Y0192650D03*
X0163100Y0192350D03*
X0162800Y0192350D03*
X0162200Y0192050D03*
X0161900Y0192050D03*
X0161300Y0191750D03*
X0161000Y0191750D03*
X0160400Y0191450D03*
X0160100Y0191450D03*
X0159800Y0191150D03*
X0159500Y0191150D03*
X0158900Y0190850D03*
X0158600Y0190850D03*
X0158000Y0190550D03*
X0149300Y0199850D03*
X0145400Y0199850D03*
X0145100Y0199550D03*
X0148100Y0209450D03*
X0148400Y0209450D03*
X0148700Y0209750D03*
X0149300Y0209750D03*
X0149600Y0210050D03*
X0149900Y0210050D03*
X0150200Y0210350D03*
X0150500Y0210350D03*
X0151400Y0210650D03*
X0152300Y0210950D03*
X0152900Y0211250D03*
X0153200Y0211250D03*
X0153500Y0211550D03*
X0153800Y0211550D03*
X0154100Y0211550D03*
X0154400Y0211850D03*
X0154700Y0211850D03*
X0155300Y0212150D03*
X0155600Y0212150D03*
X0156200Y0212450D03*
X0157100Y0212750D03*
X0157400Y0213050D03*
X0157700Y0213050D03*
X0158300Y0213350D03*
X0158600Y0213350D03*
X0158900Y0213650D03*
X0159200Y0213650D03*
X0160100Y0213950D03*
X0161000Y0214250D03*
X0161600Y0214550D03*
X0161900Y0214550D03*
X0162200Y0214850D03*
X0162500Y0214850D03*
X0163100Y0215150D03*
X0163400Y0215150D03*
X0164000Y0215450D03*
X0164300Y0215450D03*
X0164900Y0215750D03*
X0165200Y0215750D03*
X0165500Y0216050D03*
X0165800Y0216050D03*
X0166100Y0216050D03*
X0166400Y0216350D03*
X0166700Y0216350D03*
X0167300Y0216650D03*
X0168200Y0216950D03*
X0168800Y0217250D03*
X0169700Y0217550D03*
X0170300Y0217850D03*
X0170600Y0217850D03*
X0170900Y0218150D03*
X0171200Y0218150D03*
X0171500Y0218150D03*
X0171800Y0218450D03*
X0172100Y0218450D03*
X0172700Y0218750D03*
X0173000Y0218750D03*
X0173600Y0219050D03*
X0173900Y0219050D03*
X0174200Y0219350D03*
X0174500Y0219350D03*
X0174800Y0219350D03*
X0175100Y0219650D03*
X0175400Y0219650D03*
X0176000Y0219950D03*
X0176900Y0220250D03*
X0177800Y0220550D03*
X0178100Y0220550D03*
X0178400Y0220850D03*
X0178700Y0220850D03*
X0179300Y0221150D03*
X0179900Y0221450D03*
X0180200Y0221450D03*
X0180500Y0221750D03*
X0180800Y0221750D03*
X0181400Y0222050D03*
X0181700Y0222050D03*
X0182300Y0222350D03*
X0182600Y0222350D03*
X0183200Y0222650D03*
X0185300Y0223250D03*
X0185600Y0223250D03*
X0186200Y0223250D03*
X0186800Y0223250D03*
X0187400Y0223250D03*
X0187700Y0223250D03*
X0188000Y0223250D03*
X0188300Y0223250D03*
X0188600Y0223250D03*
X0188900Y0223250D03*
X0189800Y0222950D03*
X0190100Y0222950D03*
X0190700Y0215750D03*
X0188300Y0212750D03*
X0190700Y0209750D03*
X0190400Y0209450D03*
X0192800Y0204050D03*
X0192500Y0203750D03*
X0192200Y0203750D03*
X0191900Y0203450D03*
X0191300Y0203150D03*
X0190700Y0202850D03*
X0190100Y0202550D03*
X0189800Y0202550D03*
X0189500Y0202250D03*
X0189200Y0202250D03*
X0188600Y0201950D03*
X0188300Y0201950D03*
X0187700Y0201650D03*
X0187400Y0201650D03*
X0186800Y0201350D03*
X0186500Y0201350D03*
X0185900Y0201050D03*
X0185600Y0201050D03*
X0185300Y0200750D03*
X0185000Y0200750D03*
X0184400Y0200450D03*
X0183800Y0200150D03*
X0181400Y0199250D03*
X0181100Y0199250D03*
X0180800Y0199250D03*
X0180500Y0198950D03*
X0180200Y0198950D03*
X0179900Y0198650D03*
X0179600Y0198650D03*
X0179000Y0198350D03*
X0178700Y0198350D03*
X0182300Y0209150D03*
X0182000Y0209450D03*
D165*
X0181700Y0209900D03*
X0181700Y0215300D03*
X0182000Y0215900D03*
X0189200Y0223100D03*
X0189500Y0223100D03*
X0190400Y0222800D03*
X0190700Y0222800D03*
X0191000Y0222500D03*
X0193700Y0204800D03*
X0193400Y0204500D03*
X0193100Y0204200D03*
X0191600Y0203300D03*
X0181700Y0199400D03*
X0158000Y0213200D03*
X0149000Y0209600D03*
X0149600Y0199400D03*
X0149600Y0194300D03*
X0145100Y0194300D03*
X0200000Y0177200D03*
X0202700Y0174500D03*
X0209000Y0177500D03*
X0211700Y0165800D03*
X0210800Y0165200D03*
X0210500Y0164900D03*
X0210200Y0164600D03*
X0209900Y0164600D03*
X0209600Y0164300D03*
X0200300Y0164300D03*
X0200000Y0164300D03*
X0199700Y0164600D03*
X0199400Y0164600D03*
X0199100Y0164900D03*
X0198500Y0165500D03*
X0198200Y0165800D03*
X0170600Y0132200D03*
X0170300Y0131900D03*
X0170000Y0131600D03*
X0174800Y0116300D03*
X0175100Y0116300D03*
X0175700Y0116300D03*
X0176000Y0116000D03*
X0176300Y0116000D03*
X0202700Y0131000D03*
D166*
X0201800Y0131000D03*
X0202100Y0124400D03*
X0201500Y0124100D03*
X0200000Y0123800D03*
X0197600Y0124100D03*
X0197300Y0124100D03*
X0199400Y0138200D03*
X0199700Y0138200D03*
X0200000Y0138200D03*
X0200300Y0138200D03*
X0179300Y0137900D03*
X0177200Y0137300D03*
X0176600Y0137000D03*
X0176300Y0136700D03*
X0195200Y0169700D03*
X0194300Y0171500D03*
X0193400Y0173600D03*
X0193100Y0174200D03*
X0191600Y0177800D03*
X0191000Y0179300D03*
X0188900Y0184100D03*
X0184400Y0194300D03*
X0203600Y0203300D03*
X0203000Y0204800D03*
X0200900Y0209600D03*
X0200600Y0210200D03*
X0199100Y0213500D03*
X0205100Y0199700D03*
X0206000Y0197600D03*
X0206300Y0197000D03*
X0210800Y0186800D03*
X0211400Y0185300D03*
X0212900Y0181700D03*
X0213200Y0181100D03*
X0216200Y0173900D03*
X0150800Y0188900D03*
X0150200Y0188600D03*
X0149900Y0188600D03*
X0149300Y0188300D03*
X0149000Y0188300D03*
X0145700Y0188300D03*
X0145400Y0188300D03*
X0145100Y0188300D03*
X0149900Y0205100D03*
X0150200Y0205100D03*
X0149300Y0205400D03*
X0149000Y0205400D03*
D167*
X0145700Y0054050D03*
D168*
X0146000Y0054200D03*
D169*
X0171800Y0117050D03*
X0172700Y0116750D03*
X0167900Y0129950D03*
X0168200Y0130250D03*
X0197900Y0129050D03*
X0198200Y0128750D03*
X0198800Y0128450D03*
X0201500Y0129050D03*
X0201200Y0132950D03*
X0200900Y0133250D03*
X0198200Y0132950D03*
X0202100Y0169550D03*
X0201500Y0169850D03*
X0200900Y0170450D03*
X0202400Y0174350D03*
X0201200Y0178550D03*
X0201500Y0178850D03*
X0201800Y0179150D03*
X0207200Y0179150D03*
X0207800Y0178850D03*
X0208100Y0178550D03*
X0208100Y0170450D03*
X0207500Y0169850D03*
X0206900Y0169550D03*
X0188900Y0207950D03*
X0189800Y0208550D03*
X0183200Y0208250D03*
X0184100Y0212750D03*
X0180200Y0212750D03*
X0182600Y0216650D03*
X0182900Y0216950D03*
X0183200Y0217250D03*
X0183800Y0217550D03*
X0188600Y0217550D03*
X0189200Y0217250D03*
X0147800Y0200450D03*
X0147500Y0200450D03*
X0147200Y0200450D03*
X0146900Y0200450D03*
X0147200Y0193250D03*
D170*
X0150500Y0139850D03*
X0151400Y0054050D03*
D171*
X0152000Y0053900D03*
X0151100Y0140000D03*
D172*
X0172400Y0133550D03*
X0172700Y0133850D03*
X0173000Y0134150D03*
X0178400Y0115550D03*
X0178700Y0115550D03*
X0202400Y0130850D03*
X0203000Y0174350D03*
X0198800Y0174350D03*
X0182000Y0198950D03*
X0191000Y0210650D03*
X0192200Y0212450D03*
X0191000Y0214850D03*
X0184700Y0212750D03*
X0193400Y0221150D03*
X0193700Y0221150D03*
X0195200Y0206450D03*
X0151400Y0196850D03*
D173*
X0151700Y0140000D03*
X0152300Y0053900D03*
D174*
X0152600Y0053900D03*
X0152000Y0140000D03*
D175*
X0152900Y0140000D03*
X0153200Y0053900D03*
D176*
X0152900Y0053900D03*
D177*
X0153500Y0053900D03*
X0153200Y0140000D03*
D178*
X0153500Y0140000D03*
X0153800Y0053900D03*
D179*
X0153800Y0196700D03*
D180*
X0154100Y0196700D03*
X0154400Y0196700D03*
D181*
X0154100Y0053900D03*
D182*
X0154700Y0196700D03*
D183*
X0155300Y0196400D03*
D184*
X0155600Y0196400D03*
X0213200Y0161600D03*
X0215000Y0171800D03*
D185*
X0195800Y0162950D03*
X0204800Y0131150D03*
X0205100Y0131150D03*
X0155900Y0196250D03*
D186*
X0156200Y0196100D03*
X0196400Y0213500D03*
D187*
X0156500Y0195950D03*
X0185300Y0131750D03*
X0205700Y0131150D03*
D188*
X0156800Y0195800D03*
D189*
X0157400Y0195500D03*
X0195200Y0158300D03*
X0212900Y0158000D03*
D190*
X0158000Y0139850D03*
X0157700Y0054050D03*
D191*
X0159500Y0054050D03*
X0159800Y0139850D03*
D192*
X0160100Y0139850D03*
X0159800Y0054050D03*
D193*
X0160100Y0054050D03*
X0160400Y0139850D03*
D194*
X0160400Y0054200D03*
D195*
X0161300Y0054200D03*
X0161600Y0139700D03*
D196*
X0161600Y0054200D03*
D197*
X0161900Y0139700D03*
D198*
X0161900Y0054200D03*
D199*
X0163400Y0139550D03*
D200*
X0163400Y0054350D03*
D201*
X0163700Y0139550D03*
D202*
X0204500Y0131150D03*
X0163700Y0054350D03*
D203*
X0168200Y0117650D03*
X0168800Y0117650D03*
X0169100Y0117650D03*
X0167600Y0117950D03*
X0167300Y0117950D03*
X0164000Y0126950D03*
X0164300Y0127250D03*
X0164900Y0127550D03*
X0165200Y0127850D03*
X0191900Y0146150D03*
X0194900Y0150350D03*
X0197000Y0162350D03*
X0197300Y0163550D03*
X0206900Y0174650D03*
X0211100Y0153950D03*
X0209600Y0132950D03*
D204*
X0206600Y0131150D03*
X0209300Y0137750D03*
X0210200Y0142850D03*
X0210500Y0144050D03*
X0210800Y0145850D03*
X0211400Y0149750D03*
X0211700Y0150950D03*
X0212000Y0153050D03*
X0212600Y0156050D03*
X0214100Y0165050D03*
X0194600Y0155150D03*
X0194300Y0153350D03*
X0194000Y0151250D03*
X0193400Y0148250D03*
X0193100Y0146150D03*
X0164000Y0054350D03*
D205*
X0169400Y0117500D03*
X0169700Y0117500D03*
X0168500Y0117800D03*
X0167900Y0117800D03*
X0164600Y0127400D03*
X0165500Y0128000D03*
X0165800Y0128300D03*
D206*
X0166100Y0128600D03*
X0167000Y0129200D03*
X0167300Y0129500D03*
X0167600Y0129800D03*
X0170600Y0117200D03*
X0170900Y0117200D03*
X0171200Y0117200D03*
X0171500Y0117200D03*
X0172100Y0116900D03*
X0198500Y0128600D03*
X0199400Y0128300D03*
X0199700Y0128300D03*
X0200000Y0128300D03*
X0200900Y0128600D03*
X0201200Y0128900D03*
X0200600Y0133400D03*
X0200300Y0133400D03*
X0199400Y0133400D03*
X0199100Y0133400D03*
X0198800Y0133400D03*
X0198500Y0133400D03*
X0203300Y0169100D03*
X0203600Y0169100D03*
X0203900Y0169100D03*
X0204200Y0169100D03*
X0204500Y0169100D03*
X0204800Y0169100D03*
X0205100Y0169100D03*
X0205400Y0169100D03*
X0205700Y0169100D03*
X0206000Y0169100D03*
X0206300Y0169400D03*
X0206600Y0169400D03*
X0207200Y0169700D03*
X0207800Y0170000D03*
X0202700Y0169400D03*
X0202400Y0169400D03*
X0201800Y0169700D03*
X0202100Y0179300D03*
X0202400Y0179300D03*
X0202700Y0179600D03*
X0203000Y0179600D03*
X0203600Y0179900D03*
X0203900Y0179900D03*
X0204200Y0179900D03*
X0204500Y0179900D03*
X0204800Y0179900D03*
X0205100Y0179900D03*
X0205400Y0179900D03*
X0206000Y0179600D03*
X0206300Y0179600D03*
X0206600Y0179600D03*
X0206900Y0179300D03*
X0207500Y0179000D03*
X0188300Y0207500D03*
X0188000Y0207500D03*
X0187700Y0207500D03*
X0187400Y0207200D03*
X0186800Y0207200D03*
X0186200Y0207200D03*
X0185900Y0207200D03*
X0185600Y0207200D03*
X0185000Y0207500D03*
X0184700Y0207500D03*
X0184400Y0207500D03*
X0184100Y0207800D03*
X0183800Y0207800D03*
X0183500Y0208100D03*
X0182900Y0208400D03*
X0188600Y0207800D03*
X0189200Y0208100D03*
X0189500Y0208400D03*
X0189500Y0217100D03*
X0188900Y0217400D03*
X0188300Y0217700D03*
X0188000Y0217700D03*
X0187400Y0218000D03*
X0187100Y0218000D03*
X0186800Y0218000D03*
X0185900Y0218000D03*
X0185600Y0218000D03*
X0185300Y0218000D03*
X0185000Y0218000D03*
X0184100Y0217700D03*
X0183500Y0217400D03*
D207*
X0196100Y0214400D03*
X0196100Y0211100D03*
X0198200Y0210200D03*
X0198500Y0175400D03*
X0198500Y0174800D03*
X0198500Y0174200D03*
X0198500Y0173600D03*
X0200000Y0175400D03*
X0206900Y0173900D03*
X0209300Y0174200D03*
X0210800Y0174200D03*
X0214100Y0171800D03*
X0215600Y0169100D03*
X0212600Y0162800D03*
X0212300Y0161000D03*
X0212000Y0159800D03*
X0214400Y0160100D03*
X0210500Y0150800D03*
X0212300Y0148100D03*
X0209900Y0147800D03*
X0209600Y0145700D03*
X0211400Y0143000D03*
X0211100Y0141200D03*
X0208700Y0140600D03*
X0208400Y0138800D03*
X0208100Y0137600D03*
X0209900Y0134900D03*
X0209300Y0131000D03*
X0196400Y0131000D03*
X0196400Y0130400D03*
X0185300Y0124100D03*
X0167000Y0118100D03*
X0166700Y0118100D03*
X0166400Y0118100D03*
X0166100Y0118100D03*
X0193700Y0143300D03*
X0194600Y0148400D03*
X0192800Y0151100D03*
X0195500Y0153500D03*
X0196100Y0156500D03*
X0194300Y0160100D03*
X0195500Y0166400D03*
D208*
X0203000Y0169250D03*
X0203300Y0179750D03*
X0205700Y0179750D03*
X0215600Y0167450D03*
X0200000Y0133550D03*
X0199700Y0133550D03*
X0200300Y0128450D03*
X0200600Y0128450D03*
X0199100Y0128450D03*
X0170300Y0117350D03*
X0170000Y0117350D03*
X0166400Y0128750D03*
X0166700Y0129050D03*
X0185300Y0207350D03*
X0186500Y0207350D03*
X0187100Y0207350D03*
X0188600Y0213050D03*
X0187700Y0217850D03*
X0186500Y0218150D03*
X0186200Y0218150D03*
X0184700Y0217850D03*
X0184400Y0217850D03*
D209*
X0192500Y0221900D03*
X0192800Y0221600D03*
X0193100Y0221600D03*
X0194900Y0206000D03*
X0194300Y0205400D03*
X0209300Y0176900D03*
X0210500Y0174500D03*
X0209300Y0172100D03*
X0206300Y0174500D03*
X0212600Y0166700D03*
X0212300Y0166400D03*
X0212000Y0166100D03*
X0197600Y0166100D03*
X0172100Y0133400D03*
X0171800Y0133100D03*
X0177200Y0115700D03*
X0177500Y0115700D03*
X0177800Y0115700D03*
X0178100Y0115700D03*
X0196700Y0131000D03*
D210*
X0197000Y0131000D03*
X0180500Y0115100D03*
X0180200Y0115100D03*
X0179900Y0115100D03*
X0179300Y0115400D03*
X0179000Y0115400D03*
X0173300Y0134300D03*
X0173600Y0134600D03*
X0197300Y0166100D03*
X0203300Y0174500D03*
X0206000Y0174500D03*
X0212900Y0167000D03*
X0195500Y0206900D03*
X0187700Y0212600D03*
X0185000Y0212600D03*
X0194000Y0220700D03*
D211*
X0195200Y0219500D03*
X0187100Y0212600D03*
X0186800Y0212600D03*
X0185900Y0212600D03*
X0185600Y0212600D03*
X0203900Y0174500D03*
X0204500Y0174500D03*
X0205100Y0174500D03*
X0205400Y0174500D03*
X0205700Y0174500D03*
X0175100Y0135800D03*
X0174800Y0135500D03*
X0181400Y0114800D03*
X0181700Y0114800D03*
X0182000Y0114800D03*
X0182300Y0114800D03*
X0199700Y0123800D03*
X0197300Y0131000D03*
D212*
X0183800Y0134750D03*
D213*
X0184100Y0134600D03*
X0184700Y0116300D03*
X0207800Y0131300D03*
X0197900Y0214100D03*
D214*
X0184400Y0134000D03*
X0185300Y0116900D03*
D215*
X0184700Y0133250D03*
X0193700Y0149750D03*
X0209900Y0141350D03*
X0212300Y0154550D03*
X0197300Y0213650D03*
D216*
X0196700Y0213350D03*
X0185000Y0132350D03*
X0206000Y0131150D03*
D217*
X0207500Y0131000D03*
X0208100Y0132200D03*
X0208400Y0133400D03*
X0185000Y0116600D03*
D218*
X0206900Y0131300D03*
X0209000Y0136100D03*
X0209600Y0139400D03*
X0211100Y0147500D03*
X0194900Y0156800D03*
X0195500Y0159800D03*
D219*
X0207200Y0131150D03*
X0194900Y0126050D03*
D220*
X0196100Y0163700D03*
D221*
X0196400Y0164150D03*
D222*
X0197600Y0213950D03*
D223*
X0208700Y0134600D03*
D224*
X0213500Y0162500D03*
D225*
X0213800Y0163700D03*
X0215300Y0172100D03*
D226*
X0214400Y0170900D03*
D227*
X0214700Y0171050D03*
D228*
X0098900Y0213602D02*
X0096698Y0211400D01*
X0092294Y0211400D01*
X0090092Y0213602D01*
X0090092Y0215804D01*
X0092294Y0218006D01*
X0096698Y0218006D01*
X0098900Y0220208D01*
X0098900Y0222409D01*
X0096698Y0224611D01*
X0092294Y0224611D01*
X0090092Y0222409D01*
X0071276Y0222409D02*
X0071276Y0220208D01*
X0069075Y0218006D01*
X0064671Y0218006D01*
X0062469Y0215804D01*
X0062469Y0213602D01*
X0064671Y0211400D01*
X0069075Y0211400D01*
X0071276Y0213602D01*
X0071276Y0222409D02*
X0069075Y0224611D01*
X0064671Y0224611D01*
X0062469Y0222409D01*
X0043653Y0222409D02*
X0043653Y0213602D01*
X0041451Y0211400D01*
X0037047Y0211400D01*
X0034845Y0213602D01*
X0034845Y0218006D01*
X0039249Y0218006D01*
X0043653Y0222409D02*
X0041451Y0224611D01*
X0037047Y0224611D01*
X0034845Y0222409D01*
M02*
