G75*
%MOIN*%
%OFA0B0*%
%FSLAX25Y25*%
%IPPOS*%
%LPD*%
%AMOC8*
5,1,8,0,0,1.08239X$1,22.5*
%
%ADD10C,0.00000*%
%ADD11C,0.00600*%
%ADD12C,0.00400*%
D10*
X0091654Y0013111D02*
X0091656Y0013309D01*
X0091664Y0013507D01*
X0091676Y0013705D01*
X0091693Y0013902D01*
X0091715Y0014099D01*
X0091741Y0014295D01*
X0091773Y0014491D01*
X0091809Y0014686D01*
X0091850Y0014879D01*
X0091896Y0015072D01*
X0091946Y0015264D01*
X0092002Y0015454D01*
X0092061Y0015643D01*
X0092126Y0015830D01*
X0092195Y0016016D01*
X0092268Y0016200D01*
X0092346Y0016382D01*
X0092429Y0016562D01*
X0092516Y0016740D01*
X0092607Y0016916D01*
X0092703Y0017089D01*
X0092802Y0017260D01*
X0092906Y0017429D01*
X0093014Y0017595D01*
X0093126Y0017758D01*
X0093242Y0017919D01*
X0093362Y0018077D01*
X0093486Y0018231D01*
X0093614Y0018383D01*
X0093745Y0018531D01*
X0093880Y0018676D01*
X0094018Y0018818D01*
X0094160Y0018956D01*
X0094305Y0019091D01*
X0094453Y0019222D01*
X0094605Y0019350D01*
X0094759Y0019474D01*
X0094917Y0019594D01*
X0095078Y0019710D01*
X0095241Y0019822D01*
X0095407Y0019930D01*
X0095576Y0020034D01*
X0095747Y0020133D01*
X0095920Y0020229D01*
X0096096Y0020320D01*
X0096274Y0020407D01*
X0096454Y0020490D01*
X0096636Y0020568D01*
X0096820Y0020641D01*
X0097006Y0020710D01*
X0097193Y0020775D01*
X0097382Y0020834D01*
X0097572Y0020890D01*
X0097764Y0020940D01*
X0097957Y0020986D01*
X0098150Y0021027D01*
X0098345Y0021063D01*
X0098541Y0021095D01*
X0098737Y0021121D01*
X0098934Y0021143D01*
X0099131Y0021160D01*
X0099329Y0021172D01*
X0099527Y0021180D01*
X0099725Y0021182D01*
X0099923Y0021180D01*
X0100121Y0021172D01*
X0100319Y0021160D01*
X0100516Y0021143D01*
X0100713Y0021121D01*
X0100909Y0021095D01*
X0101105Y0021063D01*
X0101300Y0021027D01*
X0101493Y0020986D01*
X0101686Y0020940D01*
X0101878Y0020890D01*
X0102068Y0020834D01*
X0102257Y0020775D01*
X0102444Y0020710D01*
X0102630Y0020641D01*
X0102814Y0020568D01*
X0102996Y0020490D01*
X0103176Y0020407D01*
X0103354Y0020320D01*
X0103530Y0020229D01*
X0103703Y0020133D01*
X0103874Y0020034D01*
X0104043Y0019930D01*
X0104209Y0019822D01*
X0104372Y0019710D01*
X0104533Y0019594D01*
X0104691Y0019474D01*
X0104845Y0019350D01*
X0104997Y0019222D01*
X0105145Y0019091D01*
X0105290Y0018956D01*
X0105432Y0018818D01*
X0105570Y0018676D01*
X0105705Y0018531D01*
X0105836Y0018383D01*
X0105964Y0018231D01*
X0106088Y0018077D01*
X0106208Y0017919D01*
X0106324Y0017758D01*
X0106436Y0017595D01*
X0106544Y0017429D01*
X0106648Y0017260D01*
X0106747Y0017089D01*
X0106843Y0016916D01*
X0106934Y0016740D01*
X0107021Y0016562D01*
X0107104Y0016382D01*
X0107182Y0016200D01*
X0107255Y0016016D01*
X0107324Y0015830D01*
X0107389Y0015643D01*
X0107448Y0015454D01*
X0107504Y0015264D01*
X0107554Y0015072D01*
X0107600Y0014879D01*
X0107641Y0014686D01*
X0107677Y0014491D01*
X0107709Y0014295D01*
X0107735Y0014099D01*
X0107757Y0013902D01*
X0107774Y0013705D01*
X0107786Y0013507D01*
X0107794Y0013309D01*
X0107796Y0013111D01*
X0107794Y0012913D01*
X0107786Y0012715D01*
X0107774Y0012517D01*
X0107757Y0012320D01*
X0107735Y0012123D01*
X0107709Y0011927D01*
X0107677Y0011731D01*
X0107641Y0011536D01*
X0107600Y0011343D01*
X0107554Y0011150D01*
X0107504Y0010958D01*
X0107448Y0010768D01*
X0107389Y0010579D01*
X0107324Y0010392D01*
X0107255Y0010206D01*
X0107182Y0010022D01*
X0107104Y0009840D01*
X0107021Y0009660D01*
X0106934Y0009482D01*
X0106843Y0009306D01*
X0106747Y0009133D01*
X0106648Y0008962D01*
X0106544Y0008793D01*
X0106436Y0008627D01*
X0106324Y0008464D01*
X0106208Y0008303D01*
X0106088Y0008145D01*
X0105964Y0007991D01*
X0105836Y0007839D01*
X0105705Y0007691D01*
X0105570Y0007546D01*
X0105432Y0007404D01*
X0105290Y0007266D01*
X0105145Y0007131D01*
X0104997Y0007000D01*
X0104845Y0006872D01*
X0104691Y0006748D01*
X0104533Y0006628D01*
X0104372Y0006512D01*
X0104209Y0006400D01*
X0104043Y0006292D01*
X0103874Y0006188D01*
X0103703Y0006089D01*
X0103530Y0005993D01*
X0103354Y0005902D01*
X0103176Y0005815D01*
X0102996Y0005732D01*
X0102814Y0005654D01*
X0102630Y0005581D01*
X0102444Y0005512D01*
X0102257Y0005447D01*
X0102068Y0005388D01*
X0101878Y0005332D01*
X0101686Y0005282D01*
X0101493Y0005236D01*
X0101300Y0005195D01*
X0101105Y0005159D01*
X0100909Y0005127D01*
X0100713Y0005101D01*
X0100516Y0005079D01*
X0100319Y0005062D01*
X0100121Y0005050D01*
X0099923Y0005042D01*
X0099725Y0005040D01*
X0099527Y0005042D01*
X0099329Y0005050D01*
X0099131Y0005062D01*
X0098934Y0005079D01*
X0098737Y0005101D01*
X0098541Y0005127D01*
X0098345Y0005159D01*
X0098150Y0005195D01*
X0097957Y0005236D01*
X0097764Y0005282D01*
X0097572Y0005332D01*
X0097382Y0005388D01*
X0097193Y0005447D01*
X0097006Y0005512D01*
X0096820Y0005581D01*
X0096636Y0005654D01*
X0096454Y0005732D01*
X0096274Y0005815D01*
X0096096Y0005902D01*
X0095920Y0005993D01*
X0095747Y0006089D01*
X0095576Y0006188D01*
X0095407Y0006292D01*
X0095241Y0006400D01*
X0095078Y0006512D01*
X0094917Y0006628D01*
X0094759Y0006748D01*
X0094605Y0006872D01*
X0094453Y0007000D01*
X0094305Y0007131D01*
X0094160Y0007266D01*
X0094018Y0007404D01*
X0093880Y0007546D01*
X0093745Y0007691D01*
X0093614Y0007839D01*
X0093486Y0007991D01*
X0093362Y0008145D01*
X0093242Y0008303D01*
X0093126Y0008464D01*
X0093014Y0008627D01*
X0092906Y0008793D01*
X0092802Y0008962D01*
X0092703Y0009133D01*
X0092607Y0009306D01*
X0092516Y0009482D01*
X0092429Y0009660D01*
X0092346Y0009840D01*
X0092268Y0010022D01*
X0092195Y0010206D01*
X0092126Y0010392D01*
X0092061Y0010579D01*
X0092002Y0010768D01*
X0091946Y0010958D01*
X0091896Y0011150D01*
X0091850Y0011343D01*
X0091809Y0011536D01*
X0091773Y0011731D01*
X0091741Y0011927D01*
X0091715Y0012123D01*
X0091693Y0012320D01*
X0091676Y0012517D01*
X0091664Y0012715D01*
X0091656Y0012913D01*
X0091654Y0013111D01*
X0058386Y0091851D02*
X0058398Y0092866D01*
X0058436Y0093879D01*
X0058498Y0094892D01*
X0058585Y0095903D01*
X0058697Y0096911D01*
X0058833Y0097917D01*
X0058995Y0098918D01*
X0059180Y0099916D01*
X0059390Y0100908D01*
X0059625Y0101896D01*
X0059883Y0102877D01*
X0060166Y0103851D01*
X0060472Y0104818D01*
X0060803Y0105778D01*
X0061156Y0106729D01*
X0061533Y0107671D01*
X0061932Y0108603D01*
X0062355Y0109526D01*
X0062800Y0110437D01*
X0063267Y0111338D01*
X0063756Y0112227D01*
X0064267Y0113103D01*
X0064800Y0113967D01*
X0065353Y0114818D01*
X0065927Y0115654D01*
X0066521Y0116477D01*
X0067136Y0117284D01*
X0067770Y0118076D01*
X0068423Y0118853D01*
X0069095Y0119613D01*
X0069785Y0120356D01*
X0070494Y0121082D01*
X0071220Y0121791D01*
X0071963Y0122481D01*
X0072723Y0123153D01*
X0073500Y0123806D01*
X0074292Y0124440D01*
X0075099Y0125055D01*
X0075922Y0125649D01*
X0076758Y0126223D01*
X0077609Y0126776D01*
X0078473Y0127309D01*
X0079349Y0127820D01*
X0080238Y0128309D01*
X0081139Y0128776D01*
X0082050Y0129221D01*
X0082973Y0129644D01*
X0083905Y0130043D01*
X0084847Y0130420D01*
X0085798Y0130773D01*
X0086758Y0131104D01*
X0087725Y0131410D01*
X0088699Y0131693D01*
X0089680Y0131951D01*
X0090668Y0132186D01*
X0091660Y0132396D01*
X0092658Y0132581D01*
X0093659Y0132743D01*
X0094665Y0132879D01*
X0095673Y0132991D01*
X0096684Y0133078D01*
X0097697Y0133140D01*
X0098710Y0133178D01*
X0099725Y0133190D01*
X0100740Y0133178D01*
X0101753Y0133140D01*
X0102766Y0133078D01*
X0103777Y0132991D01*
X0104785Y0132879D01*
X0105791Y0132743D01*
X0106792Y0132581D01*
X0107790Y0132396D01*
X0108782Y0132186D01*
X0109770Y0131951D01*
X0110751Y0131693D01*
X0111725Y0131410D01*
X0112692Y0131104D01*
X0113652Y0130773D01*
X0114603Y0130420D01*
X0115545Y0130043D01*
X0116477Y0129644D01*
X0117400Y0129221D01*
X0118311Y0128776D01*
X0119212Y0128309D01*
X0120101Y0127820D01*
X0120977Y0127309D01*
X0121841Y0126776D01*
X0122692Y0126223D01*
X0123528Y0125649D01*
X0124351Y0125055D01*
X0125158Y0124440D01*
X0125950Y0123806D01*
X0126727Y0123153D01*
X0127487Y0122481D01*
X0128230Y0121791D01*
X0128956Y0121082D01*
X0129665Y0120356D01*
X0130355Y0119613D01*
X0131027Y0118853D01*
X0131680Y0118076D01*
X0132314Y0117284D01*
X0132929Y0116477D01*
X0133523Y0115654D01*
X0134097Y0114818D01*
X0134650Y0113967D01*
X0135183Y0113103D01*
X0135694Y0112227D01*
X0136183Y0111338D01*
X0136650Y0110437D01*
X0137095Y0109526D01*
X0137518Y0108603D01*
X0137917Y0107671D01*
X0138294Y0106729D01*
X0138647Y0105778D01*
X0138978Y0104818D01*
X0139284Y0103851D01*
X0139567Y0102877D01*
X0139825Y0101896D01*
X0140060Y0100908D01*
X0140270Y0099916D01*
X0140455Y0098918D01*
X0140617Y0097917D01*
X0140753Y0096911D01*
X0140865Y0095903D01*
X0140952Y0094892D01*
X0141014Y0093879D01*
X0141052Y0092866D01*
X0141064Y0091851D01*
X0141052Y0090836D01*
X0141014Y0089823D01*
X0140952Y0088810D01*
X0140865Y0087799D01*
X0140753Y0086791D01*
X0140617Y0085785D01*
X0140455Y0084784D01*
X0140270Y0083786D01*
X0140060Y0082794D01*
X0139825Y0081806D01*
X0139567Y0080825D01*
X0139284Y0079851D01*
X0138978Y0078884D01*
X0138647Y0077924D01*
X0138294Y0076973D01*
X0137917Y0076031D01*
X0137518Y0075099D01*
X0137095Y0074176D01*
X0136650Y0073265D01*
X0136183Y0072364D01*
X0135694Y0071475D01*
X0135183Y0070599D01*
X0134650Y0069735D01*
X0134097Y0068884D01*
X0133523Y0068048D01*
X0132929Y0067225D01*
X0132314Y0066418D01*
X0131680Y0065626D01*
X0131027Y0064849D01*
X0130355Y0064089D01*
X0129665Y0063346D01*
X0128956Y0062620D01*
X0128230Y0061911D01*
X0127487Y0061221D01*
X0126727Y0060549D01*
X0125950Y0059896D01*
X0125158Y0059262D01*
X0124351Y0058647D01*
X0123528Y0058053D01*
X0122692Y0057479D01*
X0121841Y0056926D01*
X0120977Y0056393D01*
X0120101Y0055882D01*
X0119212Y0055393D01*
X0118311Y0054926D01*
X0117400Y0054481D01*
X0116477Y0054058D01*
X0115545Y0053659D01*
X0114603Y0053282D01*
X0113652Y0052929D01*
X0112692Y0052598D01*
X0111725Y0052292D01*
X0110751Y0052009D01*
X0109770Y0051751D01*
X0108782Y0051516D01*
X0107790Y0051306D01*
X0106792Y0051121D01*
X0105791Y0050959D01*
X0104785Y0050823D01*
X0103777Y0050711D01*
X0102766Y0050624D01*
X0101753Y0050562D01*
X0100740Y0050524D01*
X0099725Y0050512D01*
X0098710Y0050524D01*
X0097697Y0050562D01*
X0096684Y0050624D01*
X0095673Y0050711D01*
X0094665Y0050823D01*
X0093659Y0050959D01*
X0092658Y0051121D01*
X0091660Y0051306D01*
X0090668Y0051516D01*
X0089680Y0051751D01*
X0088699Y0052009D01*
X0087725Y0052292D01*
X0086758Y0052598D01*
X0085798Y0052929D01*
X0084847Y0053282D01*
X0083905Y0053659D01*
X0082973Y0054058D01*
X0082050Y0054481D01*
X0081139Y0054926D01*
X0080238Y0055393D01*
X0079349Y0055882D01*
X0078473Y0056393D01*
X0077609Y0056926D01*
X0076758Y0057479D01*
X0075922Y0058053D01*
X0075099Y0058647D01*
X0074292Y0059262D01*
X0073500Y0059896D01*
X0072723Y0060549D01*
X0071963Y0061221D01*
X0071220Y0061911D01*
X0070494Y0062620D01*
X0069785Y0063346D01*
X0069095Y0064089D01*
X0068423Y0064849D01*
X0067770Y0065626D01*
X0067136Y0066418D01*
X0066521Y0067225D01*
X0065927Y0068048D01*
X0065353Y0068884D01*
X0064800Y0069735D01*
X0064267Y0070599D01*
X0063756Y0071475D01*
X0063267Y0072364D01*
X0062800Y0073265D01*
X0062355Y0074176D01*
X0061932Y0075099D01*
X0061533Y0076031D01*
X0061156Y0076973D01*
X0060803Y0077924D01*
X0060472Y0078884D01*
X0060166Y0079851D01*
X0059883Y0080825D01*
X0059625Y0081806D01*
X0059390Y0082794D01*
X0059180Y0083786D01*
X0058995Y0084784D01*
X0058833Y0085785D01*
X0058697Y0086791D01*
X0058585Y0087799D01*
X0058498Y0088810D01*
X0058436Y0089823D01*
X0058398Y0090836D01*
X0058386Y0091851D01*
X0012914Y0091851D02*
X0012916Y0092049D01*
X0012924Y0092247D01*
X0012936Y0092445D01*
X0012953Y0092642D01*
X0012975Y0092839D01*
X0013001Y0093035D01*
X0013033Y0093231D01*
X0013069Y0093426D01*
X0013110Y0093619D01*
X0013156Y0093812D01*
X0013206Y0094004D01*
X0013262Y0094194D01*
X0013321Y0094383D01*
X0013386Y0094570D01*
X0013455Y0094756D01*
X0013528Y0094940D01*
X0013606Y0095122D01*
X0013689Y0095302D01*
X0013776Y0095480D01*
X0013867Y0095656D01*
X0013963Y0095829D01*
X0014062Y0096000D01*
X0014166Y0096169D01*
X0014274Y0096335D01*
X0014386Y0096498D01*
X0014502Y0096659D01*
X0014622Y0096817D01*
X0014746Y0096971D01*
X0014874Y0097123D01*
X0015005Y0097271D01*
X0015140Y0097416D01*
X0015278Y0097558D01*
X0015420Y0097696D01*
X0015565Y0097831D01*
X0015713Y0097962D01*
X0015865Y0098090D01*
X0016019Y0098214D01*
X0016177Y0098334D01*
X0016338Y0098450D01*
X0016501Y0098562D01*
X0016667Y0098670D01*
X0016836Y0098774D01*
X0017007Y0098873D01*
X0017180Y0098969D01*
X0017356Y0099060D01*
X0017534Y0099147D01*
X0017714Y0099230D01*
X0017896Y0099308D01*
X0018080Y0099381D01*
X0018266Y0099450D01*
X0018453Y0099515D01*
X0018642Y0099574D01*
X0018832Y0099630D01*
X0019024Y0099680D01*
X0019217Y0099726D01*
X0019410Y0099767D01*
X0019605Y0099803D01*
X0019801Y0099835D01*
X0019997Y0099861D01*
X0020194Y0099883D01*
X0020391Y0099900D01*
X0020589Y0099912D01*
X0020787Y0099920D01*
X0020985Y0099922D01*
X0021183Y0099920D01*
X0021381Y0099912D01*
X0021579Y0099900D01*
X0021776Y0099883D01*
X0021973Y0099861D01*
X0022169Y0099835D01*
X0022365Y0099803D01*
X0022560Y0099767D01*
X0022753Y0099726D01*
X0022946Y0099680D01*
X0023138Y0099630D01*
X0023328Y0099574D01*
X0023517Y0099515D01*
X0023704Y0099450D01*
X0023890Y0099381D01*
X0024074Y0099308D01*
X0024256Y0099230D01*
X0024436Y0099147D01*
X0024614Y0099060D01*
X0024790Y0098969D01*
X0024963Y0098873D01*
X0025134Y0098774D01*
X0025303Y0098670D01*
X0025469Y0098562D01*
X0025632Y0098450D01*
X0025793Y0098334D01*
X0025951Y0098214D01*
X0026105Y0098090D01*
X0026257Y0097962D01*
X0026405Y0097831D01*
X0026550Y0097696D01*
X0026692Y0097558D01*
X0026830Y0097416D01*
X0026965Y0097271D01*
X0027096Y0097123D01*
X0027224Y0096971D01*
X0027348Y0096817D01*
X0027468Y0096659D01*
X0027584Y0096498D01*
X0027696Y0096335D01*
X0027804Y0096169D01*
X0027908Y0096000D01*
X0028007Y0095829D01*
X0028103Y0095656D01*
X0028194Y0095480D01*
X0028281Y0095302D01*
X0028364Y0095122D01*
X0028442Y0094940D01*
X0028515Y0094756D01*
X0028584Y0094570D01*
X0028649Y0094383D01*
X0028708Y0094194D01*
X0028764Y0094004D01*
X0028814Y0093812D01*
X0028860Y0093619D01*
X0028901Y0093426D01*
X0028937Y0093231D01*
X0028969Y0093035D01*
X0028995Y0092839D01*
X0029017Y0092642D01*
X0029034Y0092445D01*
X0029046Y0092247D01*
X0029054Y0092049D01*
X0029056Y0091851D01*
X0029054Y0091653D01*
X0029046Y0091455D01*
X0029034Y0091257D01*
X0029017Y0091060D01*
X0028995Y0090863D01*
X0028969Y0090667D01*
X0028937Y0090471D01*
X0028901Y0090276D01*
X0028860Y0090083D01*
X0028814Y0089890D01*
X0028764Y0089698D01*
X0028708Y0089508D01*
X0028649Y0089319D01*
X0028584Y0089132D01*
X0028515Y0088946D01*
X0028442Y0088762D01*
X0028364Y0088580D01*
X0028281Y0088400D01*
X0028194Y0088222D01*
X0028103Y0088046D01*
X0028007Y0087873D01*
X0027908Y0087702D01*
X0027804Y0087533D01*
X0027696Y0087367D01*
X0027584Y0087204D01*
X0027468Y0087043D01*
X0027348Y0086885D01*
X0027224Y0086731D01*
X0027096Y0086579D01*
X0026965Y0086431D01*
X0026830Y0086286D01*
X0026692Y0086144D01*
X0026550Y0086006D01*
X0026405Y0085871D01*
X0026257Y0085740D01*
X0026105Y0085612D01*
X0025951Y0085488D01*
X0025793Y0085368D01*
X0025632Y0085252D01*
X0025469Y0085140D01*
X0025303Y0085032D01*
X0025134Y0084928D01*
X0024963Y0084829D01*
X0024790Y0084733D01*
X0024614Y0084642D01*
X0024436Y0084555D01*
X0024256Y0084472D01*
X0024074Y0084394D01*
X0023890Y0084321D01*
X0023704Y0084252D01*
X0023517Y0084187D01*
X0023328Y0084128D01*
X0023138Y0084072D01*
X0022946Y0084022D01*
X0022753Y0083976D01*
X0022560Y0083935D01*
X0022365Y0083899D01*
X0022169Y0083867D01*
X0021973Y0083841D01*
X0021776Y0083819D01*
X0021579Y0083802D01*
X0021381Y0083790D01*
X0021183Y0083782D01*
X0020985Y0083780D01*
X0020787Y0083782D01*
X0020589Y0083790D01*
X0020391Y0083802D01*
X0020194Y0083819D01*
X0019997Y0083841D01*
X0019801Y0083867D01*
X0019605Y0083899D01*
X0019410Y0083935D01*
X0019217Y0083976D01*
X0019024Y0084022D01*
X0018832Y0084072D01*
X0018642Y0084128D01*
X0018453Y0084187D01*
X0018266Y0084252D01*
X0018080Y0084321D01*
X0017896Y0084394D01*
X0017714Y0084472D01*
X0017534Y0084555D01*
X0017356Y0084642D01*
X0017180Y0084733D01*
X0017007Y0084829D01*
X0016836Y0084928D01*
X0016667Y0085032D01*
X0016501Y0085140D01*
X0016338Y0085252D01*
X0016177Y0085368D01*
X0016019Y0085488D01*
X0015865Y0085612D01*
X0015713Y0085740D01*
X0015565Y0085871D01*
X0015420Y0086006D01*
X0015278Y0086144D01*
X0015140Y0086286D01*
X0015005Y0086431D01*
X0014874Y0086579D01*
X0014746Y0086731D01*
X0014622Y0086885D01*
X0014502Y0087043D01*
X0014386Y0087204D01*
X0014274Y0087367D01*
X0014166Y0087533D01*
X0014062Y0087702D01*
X0013963Y0087873D01*
X0013867Y0088046D01*
X0013776Y0088222D01*
X0013689Y0088400D01*
X0013606Y0088580D01*
X0013528Y0088762D01*
X0013455Y0088946D01*
X0013386Y0089132D01*
X0013321Y0089319D01*
X0013262Y0089508D01*
X0013206Y0089698D01*
X0013156Y0089890D01*
X0013110Y0090083D01*
X0013069Y0090276D01*
X0013033Y0090471D01*
X0013001Y0090667D01*
X0012975Y0090863D01*
X0012953Y0091060D01*
X0012936Y0091257D01*
X0012924Y0091455D01*
X0012916Y0091653D01*
X0012914Y0091851D01*
X0091654Y0170591D02*
X0091656Y0170789D01*
X0091664Y0170987D01*
X0091676Y0171185D01*
X0091693Y0171382D01*
X0091715Y0171579D01*
X0091741Y0171775D01*
X0091773Y0171971D01*
X0091809Y0172166D01*
X0091850Y0172359D01*
X0091896Y0172552D01*
X0091946Y0172744D01*
X0092002Y0172934D01*
X0092061Y0173123D01*
X0092126Y0173310D01*
X0092195Y0173496D01*
X0092268Y0173680D01*
X0092346Y0173862D01*
X0092429Y0174042D01*
X0092516Y0174220D01*
X0092607Y0174396D01*
X0092703Y0174569D01*
X0092802Y0174740D01*
X0092906Y0174909D01*
X0093014Y0175075D01*
X0093126Y0175238D01*
X0093242Y0175399D01*
X0093362Y0175557D01*
X0093486Y0175711D01*
X0093614Y0175863D01*
X0093745Y0176011D01*
X0093880Y0176156D01*
X0094018Y0176298D01*
X0094160Y0176436D01*
X0094305Y0176571D01*
X0094453Y0176702D01*
X0094605Y0176830D01*
X0094759Y0176954D01*
X0094917Y0177074D01*
X0095078Y0177190D01*
X0095241Y0177302D01*
X0095407Y0177410D01*
X0095576Y0177514D01*
X0095747Y0177613D01*
X0095920Y0177709D01*
X0096096Y0177800D01*
X0096274Y0177887D01*
X0096454Y0177970D01*
X0096636Y0178048D01*
X0096820Y0178121D01*
X0097006Y0178190D01*
X0097193Y0178255D01*
X0097382Y0178314D01*
X0097572Y0178370D01*
X0097764Y0178420D01*
X0097957Y0178466D01*
X0098150Y0178507D01*
X0098345Y0178543D01*
X0098541Y0178575D01*
X0098737Y0178601D01*
X0098934Y0178623D01*
X0099131Y0178640D01*
X0099329Y0178652D01*
X0099527Y0178660D01*
X0099725Y0178662D01*
X0099923Y0178660D01*
X0100121Y0178652D01*
X0100319Y0178640D01*
X0100516Y0178623D01*
X0100713Y0178601D01*
X0100909Y0178575D01*
X0101105Y0178543D01*
X0101300Y0178507D01*
X0101493Y0178466D01*
X0101686Y0178420D01*
X0101878Y0178370D01*
X0102068Y0178314D01*
X0102257Y0178255D01*
X0102444Y0178190D01*
X0102630Y0178121D01*
X0102814Y0178048D01*
X0102996Y0177970D01*
X0103176Y0177887D01*
X0103354Y0177800D01*
X0103530Y0177709D01*
X0103703Y0177613D01*
X0103874Y0177514D01*
X0104043Y0177410D01*
X0104209Y0177302D01*
X0104372Y0177190D01*
X0104533Y0177074D01*
X0104691Y0176954D01*
X0104845Y0176830D01*
X0104997Y0176702D01*
X0105145Y0176571D01*
X0105290Y0176436D01*
X0105432Y0176298D01*
X0105570Y0176156D01*
X0105705Y0176011D01*
X0105836Y0175863D01*
X0105964Y0175711D01*
X0106088Y0175557D01*
X0106208Y0175399D01*
X0106324Y0175238D01*
X0106436Y0175075D01*
X0106544Y0174909D01*
X0106648Y0174740D01*
X0106747Y0174569D01*
X0106843Y0174396D01*
X0106934Y0174220D01*
X0107021Y0174042D01*
X0107104Y0173862D01*
X0107182Y0173680D01*
X0107255Y0173496D01*
X0107324Y0173310D01*
X0107389Y0173123D01*
X0107448Y0172934D01*
X0107504Y0172744D01*
X0107554Y0172552D01*
X0107600Y0172359D01*
X0107641Y0172166D01*
X0107677Y0171971D01*
X0107709Y0171775D01*
X0107735Y0171579D01*
X0107757Y0171382D01*
X0107774Y0171185D01*
X0107786Y0170987D01*
X0107794Y0170789D01*
X0107796Y0170591D01*
X0107794Y0170393D01*
X0107786Y0170195D01*
X0107774Y0169997D01*
X0107757Y0169800D01*
X0107735Y0169603D01*
X0107709Y0169407D01*
X0107677Y0169211D01*
X0107641Y0169016D01*
X0107600Y0168823D01*
X0107554Y0168630D01*
X0107504Y0168438D01*
X0107448Y0168248D01*
X0107389Y0168059D01*
X0107324Y0167872D01*
X0107255Y0167686D01*
X0107182Y0167502D01*
X0107104Y0167320D01*
X0107021Y0167140D01*
X0106934Y0166962D01*
X0106843Y0166786D01*
X0106747Y0166613D01*
X0106648Y0166442D01*
X0106544Y0166273D01*
X0106436Y0166107D01*
X0106324Y0165944D01*
X0106208Y0165783D01*
X0106088Y0165625D01*
X0105964Y0165471D01*
X0105836Y0165319D01*
X0105705Y0165171D01*
X0105570Y0165026D01*
X0105432Y0164884D01*
X0105290Y0164746D01*
X0105145Y0164611D01*
X0104997Y0164480D01*
X0104845Y0164352D01*
X0104691Y0164228D01*
X0104533Y0164108D01*
X0104372Y0163992D01*
X0104209Y0163880D01*
X0104043Y0163772D01*
X0103874Y0163668D01*
X0103703Y0163569D01*
X0103530Y0163473D01*
X0103354Y0163382D01*
X0103176Y0163295D01*
X0102996Y0163212D01*
X0102814Y0163134D01*
X0102630Y0163061D01*
X0102444Y0162992D01*
X0102257Y0162927D01*
X0102068Y0162868D01*
X0101878Y0162812D01*
X0101686Y0162762D01*
X0101493Y0162716D01*
X0101300Y0162675D01*
X0101105Y0162639D01*
X0100909Y0162607D01*
X0100713Y0162581D01*
X0100516Y0162559D01*
X0100319Y0162542D01*
X0100121Y0162530D01*
X0099923Y0162522D01*
X0099725Y0162520D01*
X0099527Y0162522D01*
X0099329Y0162530D01*
X0099131Y0162542D01*
X0098934Y0162559D01*
X0098737Y0162581D01*
X0098541Y0162607D01*
X0098345Y0162639D01*
X0098150Y0162675D01*
X0097957Y0162716D01*
X0097764Y0162762D01*
X0097572Y0162812D01*
X0097382Y0162868D01*
X0097193Y0162927D01*
X0097006Y0162992D01*
X0096820Y0163061D01*
X0096636Y0163134D01*
X0096454Y0163212D01*
X0096274Y0163295D01*
X0096096Y0163382D01*
X0095920Y0163473D01*
X0095747Y0163569D01*
X0095576Y0163668D01*
X0095407Y0163772D01*
X0095241Y0163880D01*
X0095078Y0163992D01*
X0094917Y0164108D01*
X0094759Y0164228D01*
X0094605Y0164352D01*
X0094453Y0164480D01*
X0094305Y0164611D01*
X0094160Y0164746D01*
X0094018Y0164884D01*
X0093880Y0165026D01*
X0093745Y0165171D01*
X0093614Y0165319D01*
X0093486Y0165471D01*
X0093362Y0165625D01*
X0093242Y0165783D01*
X0093126Y0165944D01*
X0093014Y0166107D01*
X0092906Y0166273D01*
X0092802Y0166442D01*
X0092703Y0166613D01*
X0092607Y0166786D01*
X0092516Y0166962D01*
X0092429Y0167140D01*
X0092346Y0167320D01*
X0092268Y0167502D01*
X0092195Y0167686D01*
X0092126Y0167872D01*
X0092061Y0168059D01*
X0092002Y0168248D01*
X0091946Y0168438D01*
X0091896Y0168630D01*
X0091850Y0168823D01*
X0091809Y0169016D01*
X0091773Y0169211D01*
X0091741Y0169407D01*
X0091715Y0169603D01*
X0091693Y0169800D01*
X0091676Y0169997D01*
X0091664Y0170195D01*
X0091656Y0170393D01*
X0091654Y0170591D01*
X0170394Y0091851D02*
X0170396Y0092049D01*
X0170404Y0092247D01*
X0170416Y0092445D01*
X0170433Y0092642D01*
X0170455Y0092839D01*
X0170481Y0093035D01*
X0170513Y0093231D01*
X0170549Y0093426D01*
X0170590Y0093619D01*
X0170636Y0093812D01*
X0170686Y0094004D01*
X0170742Y0094194D01*
X0170801Y0094383D01*
X0170866Y0094570D01*
X0170935Y0094756D01*
X0171008Y0094940D01*
X0171086Y0095122D01*
X0171169Y0095302D01*
X0171256Y0095480D01*
X0171347Y0095656D01*
X0171443Y0095829D01*
X0171542Y0096000D01*
X0171646Y0096169D01*
X0171754Y0096335D01*
X0171866Y0096498D01*
X0171982Y0096659D01*
X0172102Y0096817D01*
X0172226Y0096971D01*
X0172354Y0097123D01*
X0172485Y0097271D01*
X0172620Y0097416D01*
X0172758Y0097558D01*
X0172900Y0097696D01*
X0173045Y0097831D01*
X0173193Y0097962D01*
X0173345Y0098090D01*
X0173499Y0098214D01*
X0173657Y0098334D01*
X0173818Y0098450D01*
X0173981Y0098562D01*
X0174147Y0098670D01*
X0174316Y0098774D01*
X0174487Y0098873D01*
X0174660Y0098969D01*
X0174836Y0099060D01*
X0175014Y0099147D01*
X0175194Y0099230D01*
X0175376Y0099308D01*
X0175560Y0099381D01*
X0175746Y0099450D01*
X0175933Y0099515D01*
X0176122Y0099574D01*
X0176312Y0099630D01*
X0176504Y0099680D01*
X0176697Y0099726D01*
X0176890Y0099767D01*
X0177085Y0099803D01*
X0177281Y0099835D01*
X0177477Y0099861D01*
X0177674Y0099883D01*
X0177871Y0099900D01*
X0178069Y0099912D01*
X0178267Y0099920D01*
X0178465Y0099922D01*
X0178663Y0099920D01*
X0178861Y0099912D01*
X0179059Y0099900D01*
X0179256Y0099883D01*
X0179453Y0099861D01*
X0179649Y0099835D01*
X0179845Y0099803D01*
X0180040Y0099767D01*
X0180233Y0099726D01*
X0180426Y0099680D01*
X0180618Y0099630D01*
X0180808Y0099574D01*
X0180997Y0099515D01*
X0181184Y0099450D01*
X0181370Y0099381D01*
X0181554Y0099308D01*
X0181736Y0099230D01*
X0181916Y0099147D01*
X0182094Y0099060D01*
X0182270Y0098969D01*
X0182443Y0098873D01*
X0182614Y0098774D01*
X0182783Y0098670D01*
X0182949Y0098562D01*
X0183112Y0098450D01*
X0183273Y0098334D01*
X0183431Y0098214D01*
X0183585Y0098090D01*
X0183737Y0097962D01*
X0183885Y0097831D01*
X0184030Y0097696D01*
X0184172Y0097558D01*
X0184310Y0097416D01*
X0184445Y0097271D01*
X0184576Y0097123D01*
X0184704Y0096971D01*
X0184828Y0096817D01*
X0184948Y0096659D01*
X0185064Y0096498D01*
X0185176Y0096335D01*
X0185284Y0096169D01*
X0185388Y0096000D01*
X0185487Y0095829D01*
X0185583Y0095656D01*
X0185674Y0095480D01*
X0185761Y0095302D01*
X0185844Y0095122D01*
X0185922Y0094940D01*
X0185995Y0094756D01*
X0186064Y0094570D01*
X0186129Y0094383D01*
X0186188Y0094194D01*
X0186244Y0094004D01*
X0186294Y0093812D01*
X0186340Y0093619D01*
X0186381Y0093426D01*
X0186417Y0093231D01*
X0186449Y0093035D01*
X0186475Y0092839D01*
X0186497Y0092642D01*
X0186514Y0092445D01*
X0186526Y0092247D01*
X0186534Y0092049D01*
X0186536Y0091851D01*
X0186534Y0091653D01*
X0186526Y0091455D01*
X0186514Y0091257D01*
X0186497Y0091060D01*
X0186475Y0090863D01*
X0186449Y0090667D01*
X0186417Y0090471D01*
X0186381Y0090276D01*
X0186340Y0090083D01*
X0186294Y0089890D01*
X0186244Y0089698D01*
X0186188Y0089508D01*
X0186129Y0089319D01*
X0186064Y0089132D01*
X0185995Y0088946D01*
X0185922Y0088762D01*
X0185844Y0088580D01*
X0185761Y0088400D01*
X0185674Y0088222D01*
X0185583Y0088046D01*
X0185487Y0087873D01*
X0185388Y0087702D01*
X0185284Y0087533D01*
X0185176Y0087367D01*
X0185064Y0087204D01*
X0184948Y0087043D01*
X0184828Y0086885D01*
X0184704Y0086731D01*
X0184576Y0086579D01*
X0184445Y0086431D01*
X0184310Y0086286D01*
X0184172Y0086144D01*
X0184030Y0086006D01*
X0183885Y0085871D01*
X0183737Y0085740D01*
X0183585Y0085612D01*
X0183431Y0085488D01*
X0183273Y0085368D01*
X0183112Y0085252D01*
X0182949Y0085140D01*
X0182783Y0085032D01*
X0182614Y0084928D01*
X0182443Y0084829D01*
X0182270Y0084733D01*
X0182094Y0084642D01*
X0181916Y0084555D01*
X0181736Y0084472D01*
X0181554Y0084394D01*
X0181370Y0084321D01*
X0181184Y0084252D01*
X0180997Y0084187D01*
X0180808Y0084128D01*
X0180618Y0084072D01*
X0180426Y0084022D01*
X0180233Y0083976D01*
X0180040Y0083935D01*
X0179845Y0083899D01*
X0179649Y0083867D01*
X0179453Y0083841D01*
X0179256Y0083819D01*
X0179059Y0083802D01*
X0178861Y0083790D01*
X0178663Y0083782D01*
X0178465Y0083780D01*
X0178267Y0083782D01*
X0178069Y0083790D01*
X0177871Y0083802D01*
X0177674Y0083819D01*
X0177477Y0083841D01*
X0177281Y0083867D01*
X0177085Y0083899D01*
X0176890Y0083935D01*
X0176697Y0083976D01*
X0176504Y0084022D01*
X0176312Y0084072D01*
X0176122Y0084128D01*
X0175933Y0084187D01*
X0175746Y0084252D01*
X0175560Y0084321D01*
X0175376Y0084394D01*
X0175194Y0084472D01*
X0175014Y0084555D01*
X0174836Y0084642D01*
X0174660Y0084733D01*
X0174487Y0084829D01*
X0174316Y0084928D01*
X0174147Y0085032D01*
X0173981Y0085140D01*
X0173818Y0085252D01*
X0173657Y0085368D01*
X0173499Y0085488D01*
X0173345Y0085612D01*
X0173193Y0085740D01*
X0173045Y0085871D01*
X0172900Y0086006D01*
X0172758Y0086144D01*
X0172620Y0086286D01*
X0172485Y0086431D01*
X0172354Y0086579D01*
X0172226Y0086731D01*
X0172102Y0086885D01*
X0171982Y0087043D01*
X0171866Y0087204D01*
X0171754Y0087367D01*
X0171646Y0087533D01*
X0171542Y0087702D01*
X0171443Y0087873D01*
X0171347Y0088046D01*
X0171256Y0088222D01*
X0171169Y0088400D01*
X0171086Y0088580D01*
X0171008Y0088762D01*
X0170935Y0088946D01*
X0170866Y0089132D01*
X0170801Y0089319D01*
X0170742Y0089508D01*
X0170686Y0089698D01*
X0170636Y0089890D01*
X0170590Y0090083D01*
X0170549Y0090276D01*
X0170513Y0090471D01*
X0170481Y0090667D01*
X0170455Y0090863D01*
X0170433Y0091060D01*
X0170416Y0091257D01*
X0170404Y0091455D01*
X0170396Y0091653D01*
X0170394Y0091851D01*
X0251300Y0052481D02*
X0251302Y0052634D01*
X0251308Y0052788D01*
X0251318Y0052941D01*
X0251332Y0053093D01*
X0251350Y0053246D01*
X0251372Y0053397D01*
X0251397Y0053548D01*
X0251427Y0053699D01*
X0251461Y0053849D01*
X0251498Y0053997D01*
X0251539Y0054145D01*
X0251584Y0054291D01*
X0251633Y0054437D01*
X0251686Y0054581D01*
X0251742Y0054723D01*
X0251802Y0054864D01*
X0251866Y0055004D01*
X0251933Y0055142D01*
X0252004Y0055278D01*
X0252079Y0055412D01*
X0252156Y0055544D01*
X0252238Y0055674D01*
X0252322Y0055802D01*
X0252410Y0055928D01*
X0252501Y0056051D01*
X0252595Y0056172D01*
X0252693Y0056290D01*
X0252793Y0056406D01*
X0252897Y0056519D01*
X0253003Y0056630D01*
X0253112Y0056738D01*
X0253224Y0056843D01*
X0253338Y0056944D01*
X0253456Y0057043D01*
X0253575Y0057139D01*
X0253697Y0057232D01*
X0253822Y0057321D01*
X0253949Y0057408D01*
X0254078Y0057490D01*
X0254209Y0057570D01*
X0254342Y0057646D01*
X0254477Y0057719D01*
X0254614Y0057788D01*
X0254753Y0057853D01*
X0254893Y0057915D01*
X0255035Y0057973D01*
X0255178Y0058028D01*
X0255323Y0058079D01*
X0255469Y0058126D01*
X0255616Y0058169D01*
X0255764Y0058208D01*
X0255913Y0058244D01*
X0256063Y0058275D01*
X0256214Y0058303D01*
X0256365Y0058327D01*
X0256518Y0058347D01*
X0256670Y0058363D01*
X0256823Y0058375D01*
X0256976Y0058383D01*
X0257129Y0058387D01*
X0257283Y0058387D01*
X0257436Y0058383D01*
X0257589Y0058375D01*
X0257742Y0058363D01*
X0257894Y0058347D01*
X0258047Y0058327D01*
X0258198Y0058303D01*
X0258349Y0058275D01*
X0258499Y0058244D01*
X0258648Y0058208D01*
X0258796Y0058169D01*
X0258943Y0058126D01*
X0259089Y0058079D01*
X0259234Y0058028D01*
X0259377Y0057973D01*
X0259519Y0057915D01*
X0259659Y0057853D01*
X0259798Y0057788D01*
X0259935Y0057719D01*
X0260070Y0057646D01*
X0260203Y0057570D01*
X0260334Y0057490D01*
X0260463Y0057408D01*
X0260590Y0057321D01*
X0260715Y0057232D01*
X0260837Y0057139D01*
X0260956Y0057043D01*
X0261074Y0056944D01*
X0261188Y0056843D01*
X0261300Y0056738D01*
X0261409Y0056630D01*
X0261515Y0056519D01*
X0261619Y0056406D01*
X0261719Y0056290D01*
X0261817Y0056172D01*
X0261911Y0056051D01*
X0262002Y0055928D01*
X0262090Y0055802D01*
X0262174Y0055674D01*
X0262256Y0055544D01*
X0262333Y0055412D01*
X0262408Y0055278D01*
X0262479Y0055142D01*
X0262546Y0055004D01*
X0262610Y0054864D01*
X0262670Y0054723D01*
X0262726Y0054581D01*
X0262779Y0054437D01*
X0262828Y0054291D01*
X0262873Y0054145D01*
X0262914Y0053997D01*
X0262951Y0053849D01*
X0262985Y0053699D01*
X0263015Y0053548D01*
X0263040Y0053397D01*
X0263062Y0053246D01*
X0263080Y0053093D01*
X0263094Y0052941D01*
X0263104Y0052788D01*
X0263110Y0052634D01*
X0263112Y0052481D01*
X0263110Y0052328D01*
X0263104Y0052174D01*
X0263094Y0052021D01*
X0263080Y0051869D01*
X0263062Y0051716D01*
X0263040Y0051565D01*
X0263015Y0051414D01*
X0262985Y0051263D01*
X0262951Y0051113D01*
X0262914Y0050965D01*
X0262873Y0050817D01*
X0262828Y0050671D01*
X0262779Y0050525D01*
X0262726Y0050381D01*
X0262670Y0050239D01*
X0262610Y0050098D01*
X0262546Y0049958D01*
X0262479Y0049820D01*
X0262408Y0049684D01*
X0262333Y0049550D01*
X0262256Y0049418D01*
X0262174Y0049288D01*
X0262090Y0049160D01*
X0262002Y0049034D01*
X0261911Y0048911D01*
X0261817Y0048790D01*
X0261719Y0048672D01*
X0261619Y0048556D01*
X0261515Y0048443D01*
X0261409Y0048332D01*
X0261300Y0048224D01*
X0261188Y0048119D01*
X0261074Y0048018D01*
X0260956Y0047919D01*
X0260837Y0047823D01*
X0260715Y0047730D01*
X0260590Y0047641D01*
X0260463Y0047554D01*
X0260334Y0047472D01*
X0260203Y0047392D01*
X0260070Y0047316D01*
X0259935Y0047243D01*
X0259798Y0047174D01*
X0259659Y0047109D01*
X0259519Y0047047D01*
X0259377Y0046989D01*
X0259234Y0046934D01*
X0259089Y0046883D01*
X0258943Y0046836D01*
X0258796Y0046793D01*
X0258648Y0046754D01*
X0258499Y0046718D01*
X0258349Y0046687D01*
X0258198Y0046659D01*
X0258047Y0046635D01*
X0257894Y0046615D01*
X0257742Y0046599D01*
X0257589Y0046587D01*
X0257436Y0046579D01*
X0257283Y0046575D01*
X0257129Y0046575D01*
X0256976Y0046579D01*
X0256823Y0046587D01*
X0256670Y0046599D01*
X0256518Y0046615D01*
X0256365Y0046635D01*
X0256214Y0046659D01*
X0256063Y0046687D01*
X0255913Y0046718D01*
X0255764Y0046754D01*
X0255616Y0046793D01*
X0255469Y0046836D01*
X0255323Y0046883D01*
X0255178Y0046934D01*
X0255035Y0046989D01*
X0254893Y0047047D01*
X0254753Y0047109D01*
X0254614Y0047174D01*
X0254477Y0047243D01*
X0254342Y0047316D01*
X0254209Y0047392D01*
X0254078Y0047472D01*
X0253949Y0047554D01*
X0253822Y0047641D01*
X0253697Y0047730D01*
X0253575Y0047823D01*
X0253456Y0047919D01*
X0253338Y0048018D01*
X0253224Y0048119D01*
X0253112Y0048224D01*
X0253003Y0048332D01*
X0252897Y0048443D01*
X0252793Y0048556D01*
X0252693Y0048672D01*
X0252595Y0048790D01*
X0252501Y0048911D01*
X0252410Y0049034D01*
X0252322Y0049160D01*
X0252238Y0049288D01*
X0252156Y0049418D01*
X0252079Y0049550D01*
X0252004Y0049684D01*
X0251933Y0049820D01*
X0251866Y0049958D01*
X0251802Y0050098D01*
X0251742Y0050239D01*
X0251686Y0050381D01*
X0251633Y0050525D01*
X0251584Y0050671D01*
X0251539Y0050817D01*
X0251498Y0050965D01*
X0251461Y0051113D01*
X0251427Y0051263D01*
X0251397Y0051414D01*
X0251372Y0051565D01*
X0251350Y0051716D01*
X0251332Y0051869D01*
X0251318Y0052021D01*
X0251308Y0052174D01*
X0251302Y0052328D01*
X0251300Y0052481D01*
X0251300Y0131221D02*
X0251302Y0131374D01*
X0251308Y0131528D01*
X0251318Y0131681D01*
X0251332Y0131833D01*
X0251350Y0131986D01*
X0251372Y0132137D01*
X0251397Y0132288D01*
X0251427Y0132439D01*
X0251461Y0132589D01*
X0251498Y0132737D01*
X0251539Y0132885D01*
X0251584Y0133031D01*
X0251633Y0133177D01*
X0251686Y0133321D01*
X0251742Y0133463D01*
X0251802Y0133604D01*
X0251866Y0133744D01*
X0251933Y0133882D01*
X0252004Y0134018D01*
X0252079Y0134152D01*
X0252156Y0134284D01*
X0252238Y0134414D01*
X0252322Y0134542D01*
X0252410Y0134668D01*
X0252501Y0134791D01*
X0252595Y0134912D01*
X0252693Y0135030D01*
X0252793Y0135146D01*
X0252897Y0135259D01*
X0253003Y0135370D01*
X0253112Y0135478D01*
X0253224Y0135583D01*
X0253338Y0135684D01*
X0253456Y0135783D01*
X0253575Y0135879D01*
X0253697Y0135972D01*
X0253822Y0136061D01*
X0253949Y0136148D01*
X0254078Y0136230D01*
X0254209Y0136310D01*
X0254342Y0136386D01*
X0254477Y0136459D01*
X0254614Y0136528D01*
X0254753Y0136593D01*
X0254893Y0136655D01*
X0255035Y0136713D01*
X0255178Y0136768D01*
X0255323Y0136819D01*
X0255469Y0136866D01*
X0255616Y0136909D01*
X0255764Y0136948D01*
X0255913Y0136984D01*
X0256063Y0137015D01*
X0256214Y0137043D01*
X0256365Y0137067D01*
X0256518Y0137087D01*
X0256670Y0137103D01*
X0256823Y0137115D01*
X0256976Y0137123D01*
X0257129Y0137127D01*
X0257283Y0137127D01*
X0257436Y0137123D01*
X0257589Y0137115D01*
X0257742Y0137103D01*
X0257894Y0137087D01*
X0258047Y0137067D01*
X0258198Y0137043D01*
X0258349Y0137015D01*
X0258499Y0136984D01*
X0258648Y0136948D01*
X0258796Y0136909D01*
X0258943Y0136866D01*
X0259089Y0136819D01*
X0259234Y0136768D01*
X0259377Y0136713D01*
X0259519Y0136655D01*
X0259659Y0136593D01*
X0259798Y0136528D01*
X0259935Y0136459D01*
X0260070Y0136386D01*
X0260203Y0136310D01*
X0260334Y0136230D01*
X0260463Y0136148D01*
X0260590Y0136061D01*
X0260715Y0135972D01*
X0260837Y0135879D01*
X0260956Y0135783D01*
X0261074Y0135684D01*
X0261188Y0135583D01*
X0261300Y0135478D01*
X0261409Y0135370D01*
X0261515Y0135259D01*
X0261619Y0135146D01*
X0261719Y0135030D01*
X0261817Y0134912D01*
X0261911Y0134791D01*
X0262002Y0134668D01*
X0262090Y0134542D01*
X0262174Y0134414D01*
X0262256Y0134284D01*
X0262333Y0134152D01*
X0262408Y0134018D01*
X0262479Y0133882D01*
X0262546Y0133744D01*
X0262610Y0133604D01*
X0262670Y0133463D01*
X0262726Y0133321D01*
X0262779Y0133177D01*
X0262828Y0133031D01*
X0262873Y0132885D01*
X0262914Y0132737D01*
X0262951Y0132589D01*
X0262985Y0132439D01*
X0263015Y0132288D01*
X0263040Y0132137D01*
X0263062Y0131986D01*
X0263080Y0131833D01*
X0263094Y0131681D01*
X0263104Y0131528D01*
X0263110Y0131374D01*
X0263112Y0131221D01*
X0263110Y0131068D01*
X0263104Y0130914D01*
X0263094Y0130761D01*
X0263080Y0130609D01*
X0263062Y0130456D01*
X0263040Y0130305D01*
X0263015Y0130154D01*
X0262985Y0130003D01*
X0262951Y0129853D01*
X0262914Y0129705D01*
X0262873Y0129557D01*
X0262828Y0129411D01*
X0262779Y0129265D01*
X0262726Y0129121D01*
X0262670Y0128979D01*
X0262610Y0128838D01*
X0262546Y0128698D01*
X0262479Y0128560D01*
X0262408Y0128424D01*
X0262333Y0128290D01*
X0262256Y0128158D01*
X0262174Y0128028D01*
X0262090Y0127900D01*
X0262002Y0127774D01*
X0261911Y0127651D01*
X0261817Y0127530D01*
X0261719Y0127412D01*
X0261619Y0127296D01*
X0261515Y0127183D01*
X0261409Y0127072D01*
X0261300Y0126964D01*
X0261188Y0126859D01*
X0261074Y0126758D01*
X0260956Y0126659D01*
X0260837Y0126563D01*
X0260715Y0126470D01*
X0260590Y0126381D01*
X0260463Y0126294D01*
X0260334Y0126212D01*
X0260203Y0126132D01*
X0260070Y0126056D01*
X0259935Y0125983D01*
X0259798Y0125914D01*
X0259659Y0125849D01*
X0259519Y0125787D01*
X0259377Y0125729D01*
X0259234Y0125674D01*
X0259089Y0125623D01*
X0258943Y0125576D01*
X0258796Y0125533D01*
X0258648Y0125494D01*
X0258499Y0125458D01*
X0258349Y0125427D01*
X0258198Y0125399D01*
X0258047Y0125375D01*
X0257894Y0125355D01*
X0257742Y0125339D01*
X0257589Y0125327D01*
X0257436Y0125319D01*
X0257283Y0125315D01*
X0257129Y0125315D01*
X0256976Y0125319D01*
X0256823Y0125327D01*
X0256670Y0125339D01*
X0256518Y0125355D01*
X0256365Y0125375D01*
X0256214Y0125399D01*
X0256063Y0125427D01*
X0255913Y0125458D01*
X0255764Y0125494D01*
X0255616Y0125533D01*
X0255469Y0125576D01*
X0255323Y0125623D01*
X0255178Y0125674D01*
X0255035Y0125729D01*
X0254893Y0125787D01*
X0254753Y0125849D01*
X0254614Y0125914D01*
X0254477Y0125983D01*
X0254342Y0126056D01*
X0254209Y0126132D01*
X0254078Y0126212D01*
X0253949Y0126294D01*
X0253822Y0126381D01*
X0253697Y0126470D01*
X0253575Y0126563D01*
X0253456Y0126659D01*
X0253338Y0126758D01*
X0253224Y0126859D01*
X0253112Y0126964D01*
X0253003Y0127072D01*
X0252897Y0127183D01*
X0252793Y0127296D01*
X0252693Y0127412D01*
X0252595Y0127530D01*
X0252501Y0127651D01*
X0252410Y0127774D01*
X0252322Y0127900D01*
X0252238Y0128028D01*
X0252156Y0128158D01*
X0252079Y0128290D01*
X0252004Y0128424D01*
X0251933Y0128560D01*
X0251866Y0128698D01*
X0251802Y0128838D01*
X0251742Y0128979D01*
X0251686Y0129121D01*
X0251633Y0129265D01*
X0251584Y0129411D01*
X0251539Y0129557D01*
X0251498Y0129705D01*
X0251461Y0129853D01*
X0251427Y0130003D01*
X0251397Y0130154D01*
X0251372Y0130305D01*
X0251350Y0130456D01*
X0251332Y0130609D01*
X0251318Y0130761D01*
X0251308Y0130914D01*
X0251302Y0131068D01*
X0251300Y0131221D01*
D11*
X0259568Y0006024D02*
X0099725Y0001300D01*
X0097520Y0001327D01*
X0095316Y0001407D01*
X0093115Y0001542D01*
X0090918Y0001729D01*
X0088726Y0001970D01*
X0086541Y0002265D01*
X0084363Y0002613D01*
X0082195Y0003013D01*
X0080036Y0003466D01*
X0077890Y0003972D01*
X0075757Y0004530D01*
X0073637Y0005139D01*
X0071534Y0005800D01*
X0069446Y0006512D01*
X0067377Y0007275D01*
X0065327Y0008088D01*
X0063298Y0008950D01*
X0061290Y0009862D01*
X0059305Y0010822D01*
X0057344Y0011830D01*
X0055408Y0012886D01*
X0053498Y0013989D01*
X0051616Y0015137D01*
X0049762Y0016332D01*
X0047938Y0017571D01*
X0046144Y0018854D01*
X0044383Y0020180D01*
X0042654Y0021549D01*
X0040959Y0022960D01*
X0039299Y0024411D01*
X0037674Y0025903D01*
X0036087Y0027433D01*
X0034537Y0029002D01*
X0033026Y0030608D01*
X0031554Y0032250D01*
X0030123Y0033928D01*
X0028733Y0035640D01*
X0027386Y0037385D01*
X0026081Y0039163D01*
X0024820Y0040972D01*
X0023603Y0042811D01*
X0022431Y0044679D01*
X0021306Y0046575D01*
X0020226Y0048499D01*
X0019194Y0050447D01*
X0018210Y0052421D01*
X0017274Y0054417D01*
X0016387Y0056436D01*
X0015549Y0058476D01*
X0014761Y0060536D01*
X0014024Y0062614D01*
X0013337Y0064709D01*
X0012702Y0066821D01*
X0012118Y0068948D01*
X0011587Y0071088D01*
X0011107Y0073240D01*
X0010680Y0075404D01*
X0010306Y0077577D01*
X0009985Y0079758D01*
X0009717Y0081947D01*
X0009503Y0084142D01*
X0009342Y0086341D01*
X0009234Y0088544D01*
X0009181Y0090748D01*
X0009181Y0092954D01*
X0009234Y0095158D01*
X0009342Y0097361D01*
X0009503Y0099560D01*
X0009717Y0101755D01*
X0009985Y0103944D01*
X0010306Y0106125D01*
X0010680Y0108298D01*
X0011107Y0110462D01*
X0011587Y0112614D01*
X0012118Y0114754D01*
X0012702Y0116881D01*
X0013337Y0118993D01*
X0014024Y0121088D01*
X0014761Y0123166D01*
X0015549Y0125226D01*
X0016387Y0127266D01*
X0017274Y0129285D01*
X0018210Y0131281D01*
X0019194Y0133255D01*
X0020226Y0135203D01*
X0021306Y0137126D01*
X0022431Y0139023D01*
X0023603Y0140891D01*
X0024820Y0142730D01*
X0026081Y0144539D01*
X0027386Y0146317D01*
X0028733Y0148062D01*
X0030123Y0149774D01*
X0031554Y0151452D01*
X0033026Y0153094D01*
X0034537Y0154700D01*
X0036087Y0156269D01*
X0037674Y0157799D01*
X0039299Y0159291D01*
X0040959Y0160742D01*
X0042654Y0162153D01*
X0044383Y0163522D01*
X0046144Y0164848D01*
X0047938Y0166131D01*
X0049762Y0167370D01*
X0051616Y0168565D01*
X0053498Y0169713D01*
X0055408Y0170816D01*
X0057344Y0171872D01*
X0059305Y0172880D01*
X0061290Y0173840D01*
X0063298Y0174752D01*
X0065327Y0175614D01*
X0067377Y0176427D01*
X0069446Y0177190D01*
X0071534Y0177902D01*
X0073637Y0178563D01*
X0075757Y0179172D01*
X0077890Y0179730D01*
X0080036Y0180236D01*
X0082195Y0180689D01*
X0084363Y0181089D01*
X0086541Y0181437D01*
X0088726Y0181732D01*
X0090918Y0181973D01*
X0093115Y0182160D01*
X0095316Y0182295D01*
X0097520Y0182375D01*
X0099725Y0182402D01*
X0282796Y0156812D01*
X0284357Y0154792D01*
X0285869Y0152734D01*
X0287329Y0150640D01*
X0288738Y0148510D01*
X0290094Y0146347D01*
X0291397Y0144151D01*
X0292646Y0141924D01*
X0293840Y0139668D01*
X0294978Y0137382D01*
X0296060Y0135069D01*
X0297084Y0132731D01*
X0298052Y0130368D01*
X0298961Y0127982D01*
X0299811Y0125575D01*
X0300602Y0123148D01*
X0301334Y0120701D01*
X0302005Y0118238D01*
X0302616Y0115759D01*
X0303166Y0113266D01*
X0303655Y0110760D01*
X0304082Y0108243D01*
X0304448Y0105716D01*
X0304751Y0103181D01*
X0304992Y0100639D01*
X0305171Y0098092D01*
X0305288Y0095542D01*
X0305342Y0092989D01*
X0305333Y0090436D01*
X0305262Y0087884D01*
X0305129Y0085334D01*
X0304933Y0082789D01*
X0304675Y0080248D01*
X0304354Y0077715D01*
X0303972Y0075191D01*
X0303528Y0072677D01*
X0303023Y0070174D01*
X0302456Y0067685D01*
X0301829Y0065210D01*
X0301141Y0062751D01*
X0300393Y0060310D01*
X0299586Y0057888D01*
X0298719Y0055486D01*
X0297794Y0053106D01*
X0296811Y0050750D01*
X0295771Y0048418D01*
X0294674Y0046113D01*
X0293520Y0043835D01*
X0292311Y0041586D01*
X0291048Y0039368D01*
X0289730Y0037181D01*
X0288360Y0035027D01*
X0286937Y0032907D01*
X0285462Y0030823D01*
X0283937Y0028775D01*
X0282362Y0026765D01*
X0280739Y0024795D01*
X0279068Y0022865D01*
X0277350Y0020976D01*
X0275586Y0019130D01*
X0273777Y0017328D01*
X0271925Y0015570D01*
X0270031Y0013859D01*
X0268095Y0012194D01*
X0266119Y0010578D01*
X0264104Y0009010D01*
X0262051Y0007492D01*
X0259961Y0006024D01*
X0259568Y0006024D01*
D12*
X0270028Y0035693D02*
X0270028Y0040297D01*
X0272330Y0040297D01*
X0273098Y0039530D01*
X0273098Y0037995D01*
X0272330Y0037228D01*
X0270028Y0037228D01*
X0271563Y0037228D02*
X0273098Y0035693D01*
X0274632Y0035693D02*
X0277702Y0035693D01*
X0276167Y0035693D02*
X0276167Y0040297D01*
X0274632Y0038762D01*
X0253095Y0058055D02*
X0250026Y0058055D01*
X0251561Y0058055D02*
X0251561Y0062659D01*
X0250026Y0061124D01*
X0248491Y0061892D02*
X0247724Y0062659D01*
X0246189Y0062659D01*
X0245422Y0061892D01*
X0245422Y0058822D01*
X0246189Y0058055D01*
X0247724Y0058055D01*
X0248491Y0058822D01*
X0268720Y0072882D02*
X0270235Y0072642D01*
X0269477Y0072762D02*
X0270198Y0077309D01*
X0269440Y0077429D02*
X0270956Y0077189D01*
X0272351Y0076191D02*
X0271871Y0073160D01*
X0272509Y0072282D01*
X0274025Y0072042D01*
X0274903Y0072679D01*
X0276298Y0071681D02*
X0279330Y0071201D01*
X0277814Y0071441D02*
X0278534Y0075989D01*
X0276778Y0074713D01*
X0275383Y0075711D02*
X0274745Y0076589D01*
X0273229Y0076829D01*
X0272351Y0076191D01*
X0250772Y0080496D02*
X0247703Y0080496D01*
X0250772Y0083565D01*
X0250772Y0084333D01*
X0250005Y0085100D01*
X0248470Y0085100D01*
X0247703Y0084333D01*
X0246169Y0084333D02*
X0245401Y0085100D01*
X0243867Y0085100D01*
X0243099Y0084333D01*
X0243099Y0081263D01*
X0243867Y0080496D01*
X0245401Y0080496D01*
X0246169Y0081263D01*
X0269591Y0099551D02*
X0271125Y0099551D01*
X0270358Y0099551D02*
X0270358Y0104155D01*
X0269591Y0104155D02*
X0271125Y0104155D01*
X0272660Y0103388D02*
X0272660Y0100318D01*
X0273427Y0099551D01*
X0274962Y0099551D01*
X0275729Y0100318D01*
X0277264Y0099551D02*
X0280333Y0102620D01*
X0280333Y0103388D01*
X0279566Y0104155D01*
X0278031Y0104155D01*
X0277264Y0103388D01*
X0275729Y0103388D02*
X0274962Y0104155D01*
X0273427Y0104155D01*
X0272660Y0103388D01*
X0277264Y0099551D02*
X0280333Y0099551D01*
X0296634Y0098866D02*
X0296634Y0096564D01*
X0301238Y0096564D01*
X0299703Y0096564D02*
X0299703Y0098866D01*
X0298936Y0099633D01*
X0297401Y0099633D01*
X0296634Y0098866D01*
X0299703Y0098098D02*
X0301238Y0099633D01*
X0300470Y0101168D02*
X0301238Y0101935D01*
X0301238Y0103470D01*
X0300470Y0104237D01*
X0299703Y0104237D01*
X0298936Y0103470D01*
X0298936Y0102702D01*
X0298936Y0103470D02*
X0298169Y0104237D01*
X0297401Y0104237D01*
X0296634Y0103470D01*
X0296634Y0101935D01*
X0297401Y0101168D01*
X0271616Y0126871D02*
X0270100Y0126631D01*
X0269222Y0127269D01*
X0268742Y0130300D01*
X0269380Y0131178D01*
X0270895Y0131418D01*
X0271773Y0130781D01*
X0273289Y0131021D02*
X0273927Y0131899D01*
X0275443Y0132139D01*
X0276321Y0131501D01*
X0276441Y0130743D01*
X0275803Y0129865D01*
X0276681Y0129227D01*
X0276801Y0128469D01*
X0276163Y0127591D01*
X0274647Y0127351D01*
X0273769Y0127989D01*
X0272253Y0127749D02*
X0271616Y0126871D01*
X0267826Y0126271D02*
X0266311Y0126031D01*
X0267068Y0126151D02*
X0266348Y0130698D01*
X0265590Y0130578D02*
X0267106Y0130818D01*
X0275045Y0129745D02*
X0275803Y0129865D01*
X0251993Y0112679D02*
X0251226Y0113446D01*
X0249691Y0113446D01*
X0248924Y0112679D01*
X0247389Y0112679D02*
X0246622Y0113446D01*
X0245087Y0113446D01*
X0244320Y0112679D01*
X0244320Y0109610D01*
X0245087Y0108843D01*
X0246622Y0108843D01*
X0247389Y0109610D01*
X0248924Y0109610D02*
X0249691Y0108843D01*
X0251226Y0108843D01*
X0251993Y0109610D01*
X0251993Y0110377D01*
X0251226Y0111144D01*
X0250458Y0111144D01*
X0251226Y0111144D02*
X0251993Y0111912D01*
X0251993Y0112679D01*
X0295846Y0076265D02*
X0295846Y0074730D01*
X0296614Y0073963D01*
X0296614Y0072428D02*
X0298148Y0072428D01*
X0298916Y0071661D01*
X0298916Y0069359D01*
X0300450Y0069359D02*
X0295846Y0069359D01*
X0295846Y0071661D01*
X0296614Y0072428D01*
X0298916Y0070894D02*
X0300450Y0072428D01*
X0300450Y0073963D02*
X0297381Y0077032D01*
X0296614Y0077032D01*
X0295846Y0076265D01*
X0300450Y0077032D02*
X0300450Y0073963D01*
M02*
