%
M48
M72
T01C0.02000
T02C0.02756
T03C0.03200
T04C0.03937
T05C0.04000
T06C0.08661
%
T01
X100625Y98750
X71250Y39375
X84375Y56250
X68125Y61250
X90625Y36250
X138750Y36250
X60625Y17500
X120625Y55625
X86250Y33750
X121875Y25625
X78125Y29375
X112500Y45000
X93125Y53750
X58125Y9375
X20625Y78125
X29375Y70000
X20000Y60625
X65000Y26875
X60625Y26250
X37500Y90000
X105625Y9375
X105000Y26875
X107500Y13125
X112500Y31250
X110000Y10000
X101875Y29375
X115625Y17500
X116875Y30625
X95625Y29375
X73750Y9375
X115625Y24375
X69375Y9375
X109375Y26250
X102500Y11875
X125000Y28125
X115625Y3125
T02
X55118Y73406
X55118Y79311
X55118Y85217
X55118Y91122
X55118Y97028
X55118Y102933
T03
X15000Y78563
X15000Y86437
T04
X16339Y18937
X33661Y18937
X15000Y100000
X25000Y100000
X35000Y100000
T05
X97500Y80000
X87500Y80000
X77500Y80000
X77500Y110000
X87500Y110000
X97500Y110000
X15000Y110000
X25000Y110000
X35000Y110000
T06
X7874Y39370
X51181Y15748
X27559Y90551
M30
