G75*
%MOIN*%
%OFA0B0*%
%FSLAX25Y25*%
%IPPOS*%
%LPD*%
%AMOC8*
5,1,8,0,0,1.08239X$1,22.5*
%
%ADD10C,0.01000*%
%ADD11C,0.00000*%
%ADD12C,0.04134*%
%ADD13C,0.07400*%
%ADD14OC8,0.06600*%
%ADD15C,0.01600*%
%ADD16C,0.00800*%
%ADD17C,0.03200*%
%ADD18C,0.00600*%
%ADD19C,0.06600*%
D10*
X0001800Y0020396D02*
X0175028Y0020396D01*
X0175028Y0138506D01*
X0001800Y0138506D01*
X0001800Y0020396D01*
D11*
X0016170Y0039333D02*
X0016172Y0039421D01*
X0016178Y0039509D01*
X0016188Y0039597D01*
X0016202Y0039685D01*
X0016219Y0039771D01*
X0016241Y0039857D01*
X0016266Y0039941D01*
X0016296Y0040025D01*
X0016328Y0040107D01*
X0016365Y0040187D01*
X0016405Y0040266D01*
X0016449Y0040343D01*
X0016496Y0040418D01*
X0016546Y0040490D01*
X0016600Y0040561D01*
X0016656Y0040628D01*
X0016716Y0040694D01*
X0016778Y0040756D01*
X0016844Y0040816D01*
X0016911Y0040872D01*
X0016982Y0040926D01*
X0017054Y0040976D01*
X0017129Y0041023D01*
X0017206Y0041067D01*
X0017285Y0041107D01*
X0017365Y0041144D01*
X0017447Y0041176D01*
X0017531Y0041206D01*
X0017615Y0041231D01*
X0017701Y0041253D01*
X0017787Y0041270D01*
X0017875Y0041284D01*
X0017963Y0041294D01*
X0018051Y0041300D01*
X0018139Y0041302D01*
X0018227Y0041300D01*
X0018315Y0041294D01*
X0018403Y0041284D01*
X0018491Y0041270D01*
X0018577Y0041253D01*
X0018663Y0041231D01*
X0018747Y0041206D01*
X0018831Y0041176D01*
X0018913Y0041144D01*
X0018993Y0041107D01*
X0019072Y0041067D01*
X0019149Y0041023D01*
X0019224Y0040976D01*
X0019296Y0040926D01*
X0019367Y0040872D01*
X0019434Y0040816D01*
X0019500Y0040756D01*
X0019562Y0040694D01*
X0019622Y0040628D01*
X0019678Y0040561D01*
X0019732Y0040490D01*
X0019782Y0040418D01*
X0019829Y0040343D01*
X0019873Y0040266D01*
X0019913Y0040187D01*
X0019950Y0040107D01*
X0019982Y0040025D01*
X0020012Y0039941D01*
X0020037Y0039857D01*
X0020059Y0039771D01*
X0020076Y0039685D01*
X0020090Y0039597D01*
X0020100Y0039509D01*
X0020106Y0039421D01*
X0020108Y0039333D01*
X0020106Y0039245D01*
X0020100Y0039157D01*
X0020090Y0039069D01*
X0020076Y0038981D01*
X0020059Y0038895D01*
X0020037Y0038809D01*
X0020012Y0038725D01*
X0019982Y0038641D01*
X0019950Y0038559D01*
X0019913Y0038479D01*
X0019873Y0038400D01*
X0019829Y0038323D01*
X0019782Y0038248D01*
X0019732Y0038176D01*
X0019678Y0038105D01*
X0019622Y0038038D01*
X0019562Y0037972D01*
X0019500Y0037910D01*
X0019434Y0037850D01*
X0019367Y0037794D01*
X0019296Y0037740D01*
X0019224Y0037690D01*
X0019149Y0037643D01*
X0019072Y0037599D01*
X0018993Y0037559D01*
X0018913Y0037522D01*
X0018831Y0037490D01*
X0018747Y0037460D01*
X0018663Y0037435D01*
X0018577Y0037413D01*
X0018491Y0037396D01*
X0018403Y0037382D01*
X0018315Y0037372D01*
X0018227Y0037366D01*
X0018139Y0037364D01*
X0018051Y0037366D01*
X0017963Y0037372D01*
X0017875Y0037382D01*
X0017787Y0037396D01*
X0017701Y0037413D01*
X0017615Y0037435D01*
X0017531Y0037460D01*
X0017447Y0037490D01*
X0017365Y0037522D01*
X0017285Y0037559D01*
X0017206Y0037599D01*
X0017129Y0037643D01*
X0017054Y0037690D01*
X0016982Y0037740D01*
X0016911Y0037794D01*
X0016844Y0037850D01*
X0016778Y0037910D01*
X0016716Y0037972D01*
X0016656Y0038038D01*
X0016600Y0038105D01*
X0016546Y0038176D01*
X0016496Y0038248D01*
X0016449Y0038323D01*
X0016405Y0038400D01*
X0016365Y0038479D01*
X0016328Y0038559D01*
X0016296Y0038641D01*
X0016266Y0038725D01*
X0016241Y0038809D01*
X0016219Y0038895D01*
X0016202Y0038981D01*
X0016188Y0039069D01*
X0016178Y0039157D01*
X0016172Y0039245D01*
X0016170Y0039333D01*
X0033492Y0039333D02*
X0033494Y0039421D01*
X0033500Y0039509D01*
X0033510Y0039597D01*
X0033524Y0039685D01*
X0033541Y0039771D01*
X0033563Y0039857D01*
X0033588Y0039941D01*
X0033618Y0040025D01*
X0033650Y0040107D01*
X0033687Y0040187D01*
X0033727Y0040266D01*
X0033771Y0040343D01*
X0033818Y0040418D01*
X0033868Y0040490D01*
X0033922Y0040561D01*
X0033978Y0040628D01*
X0034038Y0040694D01*
X0034100Y0040756D01*
X0034166Y0040816D01*
X0034233Y0040872D01*
X0034304Y0040926D01*
X0034376Y0040976D01*
X0034451Y0041023D01*
X0034528Y0041067D01*
X0034607Y0041107D01*
X0034687Y0041144D01*
X0034769Y0041176D01*
X0034853Y0041206D01*
X0034937Y0041231D01*
X0035023Y0041253D01*
X0035109Y0041270D01*
X0035197Y0041284D01*
X0035285Y0041294D01*
X0035373Y0041300D01*
X0035461Y0041302D01*
X0035549Y0041300D01*
X0035637Y0041294D01*
X0035725Y0041284D01*
X0035813Y0041270D01*
X0035899Y0041253D01*
X0035985Y0041231D01*
X0036069Y0041206D01*
X0036153Y0041176D01*
X0036235Y0041144D01*
X0036315Y0041107D01*
X0036394Y0041067D01*
X0036471Y0041023D01*
X0036546Y0040976D01*
X0036618Y0040926D01*
X0036689Y0040872D01*
X0036756Y0040816D01*
X0036822Y0040756D01*
X0036884Y0040694D01*
X0036944Y0040628D01*
X0037000Y0040561D01*
X0037054Y0040490D01*
X0037104Y0040418D01*
X0037151Y0040343D01*
X0037195Y0040266D01*
X0037235Y0040187D01*
X0037272Y0040107D01*
X0037304Y0040025D01*
X0037334Y0039941D01*
X0037359Y0039857D01*
X0037381Y0039771D01*
X0037398Y0039685D01*
X0037412Y0039597D01*
X0037422Y0039509D01*
X0037428Y0039421D01*
X0037430Y0039333D01*
X0037428Y0039245D01*
X0037422Y0039157D01*
X0037412Y0039069D01*
X0037398Y0038981D01*
X0037381Y0038895D01*
X0037359Y0038809D01*
X0037334Y0038725D01*
X0037304Y0038641D01*
X0037272Y0038559D01*
X0037235Y0038479D01*
X0037195Y0038400D01*
X0037151Y0038323D01*
X0037104Y0038248D01*
X0037054Y0038176D01*
X0037000Y0038105D01*
X0036944Y0038038D01*
X0036884Y0037972D01*
X0036822Y0037910D01*
X0036756Y0037850D01*
X0036689Y0037794D01*
X0036618Y0037740D01*
X0036546Y0037690D01*
X0036471Y0037643D01*
X0036394Y0037599D01*
X0036315Y0037559D01*
X0036235Y0037522D01*
X0036153Y0037490D01*
X0036069Y0037460D01*
X0035985Y0037435D01*
X0035899Y0037413D01*
X0035813Y0037396D01*
X0035725Y0037382D01*
X0035637Y0037372D01*
X0035549Y0037366D01*
X0035461Y0037364D01*
X0035373Y0037366D01*
X0035285Y0037372D01*
X0035197Y0037382D01*
X0035109Y0037396D01*
X0035023Y0037413D01*
X0034937Y0037435D01*
X0034853Y0037460D01*
X0034769Y0037490D01*
X0034687Y0037522D01*
X0034607Y0037559D01*
X0034528Y0037599D01*
X0034451Y0037643D01*
X0034376Y0037690D01*
X0034304Y0037740D01*
X0034233Y0037794D01*
X0034166Y0037850D01*
X0034100Y0037910D01*
X0034038Y0037972D01*
X0033978Y0038038D01*
X0033922Y0038105D01*
X0033868Y0038176D01*
X0033818Y0038248D01*
X0033771Y0038323D01*
X0033727Y0038400D01*
X0033687Y0038479D01*
X0033650Y0038559D01*
X0033618Y0038641D01*
X0033588Y0038725D01*
X0033563Y0038809D01*
X0033541Y0038895D01*
X0033524Y0038981D01*
X0033510Y0039069D01*
X0033500Y0039157D01*
X0033494Y0039245D01*
X0033492Y0039333D01*
X0048650Y0036144D02*
X0048652Y0036275D01*
X0048658Y0036407D01*
X0048668Y0036538D01*
X0048682Y0036669D01*
X0048700Y0036799D01*
X0048722Y0036928D01*
X0048747Y0037057D01*
X0048777Y0037185D01*
X0048811Y0037312D01*
X0048848Y0037439D01*
X0048889Y0037563D01*
X0048934Y0037687D01*
X0048983Y0037809D01*
X0049035Y0037930D01*
X0049091Y0038048D01*
X0049151Y0038166D01*
X0049214Y0038281D01*
X0049281Y0038394D01*
X0049351Y0038506D01*
X0049424Y0038615D01*
X0049500Y0038721D01*
X0049580Y0038826D01*
X0049663Y0038928D01*
X0049749Y0039027D01*
X0049838Y0039124D01*
X0049930Y0039218D01*
X0050025Y0039309D01*
X0050122Y0039398D01*
X0050222Y0039483D01*
X0050325Y0039565D01*
X0050430Y0039644D01*
X0050537Y0039720D01*
X0050647Y0039792D01*
X0050759Y0039861D01*
X0050873Y0039927D01*
X0050988Y0039989D01*
X0051106Y0040048D01*
X0051225Y0040103D01*
X0051346Y0040155D01*
X0051469Y0040202D01*
X0051593Y0040246D01*
X0051718Y0040287D01*
X0051844Y0040323D01*
X0051972Y0040356D01*
X0052100Y0040384D01*
X0052229Y0040409D01*
X0052359Y0040430D01*
X0052489Y0040447D01*
X0052620Y0040460D01*
X0052751Y0040469D01*
X0052882Y0040474D01*
X0053014Y0040475D01*
X0053145Y0040472D01*
X0053277Y0040465D01*
X0053408Y0040454D01*
X0053538Y0040439D01*
X0053668Y0040420D01*
X0053798Y0040397D01*
X0053926Y0040371D01*
X0054054Y0040340D01*
X0054181Y0040305D01*
X0054307Y0040267D01*
X0054431Y0040225D01*
X0054555Y0040179D01*
X0054676Y0040129D01*
X0054796Y0040076D01*
X0054915Y0040019D01*
X0055032Y0039959D01*
X0055146Y0039895D01*
X0055259Y0039827D01*
X0055370Y0039756D01*
X0055479Y0039682D01*
X0055585Y0039605D01*
X0055689Y0039524D01*
X0055790Y0039441D01*
X0055889Y0039354D01*
X0055985Y0039264D01*
X0056078Y0039171D01*
X0056169Y0039076D01*
X0056256Y0038978D01*
X0056341Y0038877D01*
X0056422Y0038774D01*
X0056500Y0038668D01*
X0056575Y0038560D01*
X0056647Y0038450D01*
X0056715Y0038338D01*
X0056780Y0038224D01*
X0056841Y0038107D01*
X0056899Y0037989D01*
X0056953Y0037869D01*
X0057004Y0037748D01*
X0057051Y0037625D01*
X0057094Y0037501D01*
X0057133Y0037376D01*
X0057169Y0037249D01*
X0057200Y0037121D01*
X0057228Y0036993D01*
X0057252Y0036864D01*
X0057272Y0036734D01*
X0057288Y0036603D01*
X0057300Y0036472D01*
X0057308Y0036341D01*
X0057312Y0036210D01*
X0057312Y0036078D01*
X0057308Y0035947D01*
X0057300Y0035816D01*
X0057288Y0035685D01*
X0057272Y0035554D01*
X0057252Y0035424D01*
X0057228Y0035295D01*
X0057200Y0035167D01*
X0057169Y0035039D01*
X0057133Y0034912D01*
X0057094Y0034787D01*
X0057051Y0034663D01*
X0057004Y0034540D01*
X0056953Y0034419D01*
X0056899Y0034299D01*
X0056841Y0034181D01*
X0056780Y0034064D01*
X0056715Y0033950D01*
X0056647Y0033838D01*
X0056575Y0033728D01*
X0056500Y0033620D01*
X0056422Y0033514D01*
X0056341Y0033411D01*
X0056256Y0033310D01*
X0056169Y0033212D01*
X0056078Y0033117D01*
X0055985Y0033024D01*
X0055889Y0032934D01*
X0055790Y0032847D01*
X0055689Y0032764D01*
X0055585Y0032683D01*
X0055479Y0032606D01*
X0055370Y0032532D01*
X0055259Y0032461D01*
X0055147Y0032393D01*
X0055032Y0032329D01*
X0054915Y0032269D01*
X0054796Y0032212D01*
X0054676Y0032159D01*
X0054555Y0032109D01*
X0054431Y0032063D01*
X0054307Y0032021D01*
X0054181Y0031983D01*
X0054054Y0031948D01*
X0053926Y0031917D01*
X0053798Y0031891D01*
X0053668Y0031868D01*
X0053538Y0031849D01*
X0053408Y0031834D01*
X0053277Y0031823D01*
X0053145Y0031816D01*
X0053014Y0031813D01*
X0052882Y0031814D01*
X0052751Y0031819D01*
X0052620Y0031828D01*
X0052489Y0031841D01*
X0052359Y0031858D01*
X0052229Y0031879D01*
X0052100Y0031904D01*
X0051972Y0031932D01*
X0051844Y0031965D01*
X0051718Y0032001D01*
X0051593Y0032042D01*
X0051469Y0032086D01*
X0051346Y0032133D01*
X0051225Y0032185D01*
X0051106Y0032240D01*
X0050988Y0032299D01*
X0050873Y0032361D01*
X0050759Y0032427D01*
X0050647Y0032496D01*
X0050537Y0032568D01*
X0050430Y0032644D01*
X0050325Y0032723D01*
X0050222Y0032805D01*
X0050122Y0032890D01*
X0050025Y0032979D01*
X0049930Y0033070D01*
X0049838Y0033164D01*
X0049749Y0033261D01*
X0049663Y0033360D01*
X0049580Y0033462D01*
X0049500Y0033567D01*
X0049424Y0033673D01*
X0049351Y0033782D01*
X0049281Y0033894D01*
X0049214Y0034007D01*
X0049151Y0034122D01*
X0049091Y0034240D01*
X0049035Y0034358D01*
X0048983Y0034479D01*
X0048934Y0034601D01*
X0048889Y0034725D01*
X0048848Y0034849D01*
X0048811Y0034976D01*
X0048777Y0035103D01*
X0048747Y0035231D01*
X0048722Y0035360D01*
X0048700Y0035489D01*
X0048682Y0035619D01*
X0048668Y0035750D01*
X0048658Y0035881D01*
X0048652Y0036013D01*
X0048650Y0036144D01*
X0005343Y0059766D02*
X0005345Y0059897D01*
X0005351Y0060029D01*
X0005361Y0060160D01*
X0005375Y0060291D01*
X0005393Y0060421D01*
X0005415Y0060550D01*
X0005440Y0060679D01*
X0005470Y0060807D01*
X0005504Y0060934D01*
X0005541Y0061061D01*
X0005582Y0061185D01*
X0005627Y0061309D01*
X0005676Y0061431D01*
X0005728Y0061552D01*
X0005784Y0061670D01*
X0005844Y0061788D01*
X0005907Y0061903D01*
X0005974Y0062016D01*
X0006044Y0062128D01*
X0006117Y0062237D01*
X0006193Y0062343D01*
X0006273Y0062448D01*
X0006356Y0062550D01*
X0006442Y0062649D01*
X0006531Y0062746D01*
X0006623Y0062840D01*
X0006718Y0062931D01*
X0006815Y0063020D01*
X0006915Y0063105D01*
X0007018Y0063187D01*
X0007123Y0063266D01*
X0007230Y0063342D01*
X0007340Y0063414D01*
X0007452Y0063483D01*
X0007566Y0063549D01*
X0007681Y0063611D01*
X0007799Y0063670D01*
X0007918Y0063725D01*
X0008039Y0063777D01*
X0008162Y0063824D01*
X0008286Y0063868D01*
X0008411Y0063909D01*
X0008537Y0063945D01*
X0008665Y0063978D01*
X0008793Y0064006D01*
X0008922Y0064031D01*
X0009052Y0064052D01*
X0009182Y0064069D01*
X0009313Y0064082D01*
X0009444Y0064091D01*
X0009575Y0064096D01*
X0009707Y0064097D01*
X0009838Y0064094D01*
X0009970Y0064087D01*
X0010101Y0064076D01*
X0010231Y0064061D01*
X0010361Y0064042D01*
X0010491Y0064019D01*
X0010619Y0063993D01*
X0010747Y0063962D01*
X0010874Y0063927D01*
X0011000Y0063889D01*
X0011124Y0063847D01*
X0011248Y0063801D01*
X0011369Y0063751D01*
X0011489Y0063698D01*
X0011608Y0063641D01*
X0011725Y0063581D01*
X0011839Y0063517D01*
X0011952Y0063449D01*
X0012063Y0063378D01*
X0012172Y0063304D01*
X0012278Y0063227D01*
X0012382Y0063146D01*
X0012483Y0063063D01*
X0012582Y0062976D01*
X0012678Y0062886D01*
X0012771Y0062793D01*
X0012862Y0062698D01*
X0012949Y0062600D01*
X0013034Y0062499D01*
X0013115Y0062396D01*
X0013193Y0062290D01*
X0013268Y0062182D01*
X0013340Y0062072D01*
X0013408Y0061960D01*
X0013473Y0061846D01*
X0013534Y0061729D01*
X0013592Y0061611D01*
X0013646Y0061491D01*
X0013697Y0061370D01*
X0013744Y0061247D01*
X0013787Y0061123D01*
X0013826Y0060998D01*
X0013862Y0060871D01*
X0013893Y0060743D01*
X0013921Y0060615D01*
X0013945Y0060486D01*
X0013965Y0060356D01*
X0013981Y0060225D01*
X0013993Y0060094D01*
X0014001Y0059963D01*
X0014005Y0059832D01*
X0014005Y0059700D01*
X0014001Y0059569D01*
X0013993Y0059438D01*
X0013981Y0059307D01*
X0013965Y0059176D01*
X0013945Y0059046D01*
X0013921Y0058917D01*
X0013893Y0058789D01*
X0013862Y0058661D01*
X0013826Y0058534D01*
X0013787Y0058409D01*
X0013744Y0058285D01*
X0013697Y0058162D01*
X0013646Y0058041D01*
X0013592Y0057921D01*
X0013534Y0057803D01*
X0013473Y0057686D01*
X0013408Y0057572D01*
X0013340Y0057460D01*
X0013268Y0057350D01*
X0013193Y0057242D01*
X0013115Y0057136D01*
X0013034Y0057033D01*
X0012949Y0056932D01*
X0012862Y0056834D01*
X0012771Y0056739D01*
X0012678Y0056646D01*
X0012582Y0056556D01*
X0012483Y0056469D01*
X0012382Y0056386D01*
X0012278Y0056305D01*
X0012172Y0056228D01*
X0012063Y0056154D01*
X0011952Y0056083D01*
X0011840Y0056015D01*
X0011725Y0055951D01*
X0011608Y0055891D01*
X0011489Y0055834D01*
X0011369Y0055781D01*
X0011248Y0055731D01*
X0011124Y0055685D01*
X0011000Y0055643D01*
X0010874Y0055605D01*
X0010747Y0055570D01*
X0010619Y0055539D01*
X0010491Y0055513D01*
X0010361Y0055490D01*
X0010231Y0055471D01*
X0010101Y0055456D01*
X0009970Y0055445D01*
X0009838Y0055438D01*
X0009707Y0055435D01*
X0009575Y0055436D01*
X0009444Y0055441D01*
X0009313Y0055450D01*
X0009182Y0055463D01*
X0009052Y0055480D01*
X0008922Y0055501D01*
X0008793Y0055526D01*
X0008665Y0055554D01*
X0008537Y0055587D01*
X0008411Y0055623D01*
X0008286Y0055664D01*
X0008162Y0055708D01*
X0008039Y0055755D01*
X0007918Y0055807D01*
X0007799Y0055862D01*
X0007681Y0055921D01*
X0007566Y0055983D01*
X0007452Y0056049D01*
X0007340Y0056118D01*
X0007230Y0056190D01*
X0007123Y0056266D01*
X0007018Y0056345D01*
X0006915Y0056427D01*
X0006815Y0056512D01*
X0006718Y0056601D01*
X0006623Y0056692D01*
X0006531Y0056786D01*
X0006442Y0056883D01*
X0006356Y0056982D01*
X0006273Y0057084D01*
X0006193Y0057189D01*
X0006117Y0057295D01*
X0006044Y0057404D01*
X0005974Y0057516D01*
X0005907Y0057629D01*
X0005844Y0057744D01*
X0005784Y0057862D01*
X0005728Y0057980D01*
X0005676Y0058101D01*
X0005627Y0058223D01*
X0005582Y0058347D01*
X0005541Y0058471D01*
X0005504Y0058598D01*
X0005470Y0058725D01*
X0005440Y0058853D01*
X0005415Y0058982D01*
X0005393Y0059111D01*
X0005375Y0059241D01*
X0005361Y0059372D01*
X0005351Y0059503D01*
X0005345Y0059635D01*
X0005343Y0059766D01*
X0025028Y0110947D02*
X0025030Y0111078D01*
X0025036Y0111210D01*
X0025046Y0111341D01*
X0025060Y0111472D01*
X0025078Y0111602D01*
X0025100Y0111731D01*
X0025125Y0111860D01*
X0025155Y0111988D01*
X0025189Y0112115D01*
X0025226Y0112242D01*
X0025267Y0112366D01*
X0025312Y0112490D01*
X0025361Y0112612D01*
X0025413Y0112733D01*
X0025469Y0112851D01*
X0025529Y0112969D01*
X0025592Y0113084D01*
X0025659Y0113197D01*
X0025729Y0113309D01*
X0025802Y0113418D01*
X0025878Y0113524D01*
X0025958Y0113629D01*
X0026041Y0113731D01*
X0026127Y0113830D01*
X0026216Y0113927D01*
X0026308Y0114021D01*
X0026403Y0114112D01*
X0026500Y0114201D01*
X0026600Y0114286D01*
X0026703Y0114368D01*
X0026808Y0114447D01*
X0026915Y0114523D01*
X0027025Y0114595D01*
X0027137Y0114664D01*
X0027251Y0114730D01*
X0027366Y0114792D01*
X0027484Y0114851D01*
X0027603Y0114906D01*
X0027724Y0114958D01*
X0027847Y0115005D01*
X0027971Y0115049D01*
X0028096Y0115090D01*
X0028222Y0115126D01*
X0028350Y0115159D01*
X0028478Y0115187D01*
X0028607Y0115212D01*
X0028737Y0115233D01*
X0028867Y0115250D01*
X0028998Y0115263D01*
X0029129Y0115272D01*
X0029260Y0115277D01*
X0029392Y0115278D01*
X0029523Y0115275D01*
X0029655Y0115268D01*
X0029786Y0115257D01*
X0029916Y0115242D01*
X0030046Y0115223D01*
X0030176Y0115200D01*
X0030304Y0115174D01*
X0030432Y0115143D01*
X0030559Y0115108D01*
X0030685Y0115070D01*
X0030809Y0115028D01*
X0030933Y0114982D01*
X0031054Y0114932D01*
X0031174Y0114879D01*
X0031293Y0114822D01*
X0031410Y0114762D01*
X0031524Y0114698D01*
X0031637Y0114630D01*
X0031748Y0114559D01*
X0031857Y0114485D01*
X0031963Y0114408D01*
X0032067Y0114327D01*
X0032168Y0114244D01*
X0032267Y0114157D01*
X0032363Y0114067D01*
X0032456Y0113974D01*
X0032547Y0113879D01*
X0032634Y0113781D01*
X0032719Y0113680D01*
X0032800Y0113577D01*
X0032878Y0113471D01*
X0032953Y0113363D01*
X0033025Y0113253D01*
X0033093Y0113141D01*
X0033158Y0113027D01*
X0033219Y0112910D01*
X0033277Y0112792D01*
X0033331Y0112672D01*
X0033382Y0112551D01*
X0033429Y0112428D01*
X0033472Y0112304D01*
X0033511Y0112179D01*
X0033547Y0112052D01*
X0033578Y0111924D01*
X0033606Y0111796D01*
X0033630Y0111667D01*
X0033650Y0111537D01*
X0033666Y0111406D01*
X0033678Y0111275D01*
X0033686Y0111144D01*
X0033690Y0111013D01*
X0033690Y0110881D01*
X0033686Y0110750D01*
X0033678Y0110619D01*
X0033666Y0110488D01*
X0033650Y0110357D01*
X0033630Y0110227D01*
X0033606Y0110098D01*
X0033578Y0109970D01*
X0033547Y0109842D01*
X0033511Y0109715D01*
X0033472Y0109590D01*
X0033429Y0109466D01*
X0033382Y0109343D01*
X0033331Y0109222D01*
X0033277Y0109102D01*
X0033219Y0108984D01*
X0033158Y0108867D01*
X0033093Y0108753D01*
X0033025Y0108641D01*
X0032953Y0108531D01*
X0032878Y0108423D01*
X0032800Y0108317D01*
X0032719Y0108214D01*
X0032634Y0108113D01*
X0032547Y0108015D01*
X0032456Y0107920D01*
X0032363Y0107827D01*
X0032267Y0107737D01*
X0032168Y0107650D01*
X0032067Y0107567D01*
X0031963Y0107486D01*
X0031857Y0107409D01*
X0031748Y0107335D01*
X0031637Y0107264D01*
X0031525Y0107196D01*
X0031410Y0107132D01*
X0031293Y0107072D01*
X0031174Y0107015D01*
X0031054Y0106962D01*
X0030933Y0106912D01*
X0030809Y0106866D01*
X0030685Y0106824D01*
X0030559Y0106786D01*
X0030432Y0106751D01*
X0030304Y0106720D01*
X0030176Y0106694D01*
X0030046Y0106671D01*
X0029916Y0106652D01*
X0029786Y0106637D01*
X0029655Y0106626D01*
X0029523Y0106619D01*
X0029392Y0106616D01*
X0029260Y0106617D01*
X0029129Y0106622D01*
X0028998Y0106631D01*
X0028867Y0106644D01*
X0028737Y0106661D01*
X0028607Y0106682D01*
X0028478Y0106707D01*
X0028350Y0106735D01*
X0028222Y0106768D01*
X0028096Y0106804D01*
X0027971Y0106845D01*
X0027847Y0106889D01*
X0027724Y0106936D01*
X0027603Y0106988D01*
X0027484Y0107043D01*
X0027366Y0107102D01*
X0027251Y0107164D01*
X0027137Y0107230D01*
X0027025Y0107299D01*
X0026915Y0107371D01*
X0026808Y0107447D01*
X0026703Y0107526D01*
X0026600Y0107608D01*
X0026500Y0107693D01*
X0026403Y0107782D01*
X0026308Y0107873D01*
X0026216Y0107967D01*
X0026127Y0108064D01*
X0026041Y0108163D01*
X0025958Y0108265D01*
X0025878Y0108370D01*
X0025802Y0108476D01*
X0025729Y0108585D01*
X0025659Y0108697D01*
X0025592Y0108810D01*
X0025529Y0108925D01*
X0025469Y0109043D01*
X0025413Y0109161D01*
X0025361Y0109282D01*
X0025312Y0109404D01*
X0025267Y0109528D01*
X0025226Y0109652D01*
X0025189Y0109779D01*
X0025155Y0109906D01*
X0025125Y0110034D01*
X0025100Y0110163D01*
X0025078Y0110292D01*
X0025060Y0110422D01*
X0025046Y0110553D01*
X0025036Y0110684D01*
X0025030Y0110816D01*
X0025028Y0110947D01*
D12*
X0056918Y0111518D03*
X0056918Y0105613D03*
X0056918Y0099707D03*
X0056918Y0093802D03*
X0056918Y0117424D03*
X0056918Y0123329D03*
D13*
X0036800Y0130396D03*
X0026800Y0130396D03*
X0016800Y0130396D03*
X0079300Y0130396D03*
X0089300Y0130396D03*
X0099300Y0130396D03*
X0099300Y0100396D03*
X0089300Y0100396D03*
X0079300Y0100396D03*
D14*
X0016800Y0098959D03*
X0016800Y0106833D03*
D15*
X0013233Y0109913D02*
X0003700Y0109913D01*
X0003700Y0111511D02*
X0014831Y0111511D01*
X0014853Y0111533D02*
X0012100Y0108780D01*
X0012100Y0104886D01*
X0014090Y0102896D01*
X0012100Y0100906D01*
X0012100Y0098959D01*
X0012100Y0097012D01*
X0014853Y0094259D01*
X0016800Y0094259D01*
X0017600Y0094259D01*
X0017600Y0061567D01*
X0018596Y0060571D01*
X0036701Y0042465D01*
X0036131Y0042702D01*
X0034791Y0042702D01*
X0033553Y0042189D01*
X0032606Y0041241D01*
X0032093Y0040003D01*
X0032093Y0038663D01*
X0032606Y0037425D01*
X0033553Y0036477D01*
X0034791Y0035965D01*
X0036131Y0035965D01*
X0037370Y0036477D01*
X0038317Y0037425D01*
X0038830Y0038663D01*
X0038830Y0040003D01*
X0038594Y0040573D01*
X0051096Y0028071D01*
X0057382Y0028071D01*
X0058226Y0027228D01*
X0059328Y0026771D01*
X0060522Y0026771D01*
X0061624Y0027228D01*
X0062468Y0028072D01*
X0062925Y0029174D01*
X0062925Y0030368D01*
X0062468Y0031470D01*
X0061624Y0032314D01*
X0060522Y0032771D01*
X0059328Y0032771D01*
X0058226Y0032314D01*
X0057382Y0031471D01*
X0056412Y0031471D01*
X0057839Y0032898D01*
X0058712Y0035004D01*
X0058712Y0037284D01*
X0057839Y0039390D01*
X0056227Y0041002D01*
X0054121Y0041875D01*
X0051841Y0041875D01*
X0049735Y0041002D01*
X0048123Y0039390D01*
X0047250Y0037284D01*
X0047250Y0036725D01*
X0021000Y0062975D01*
X0021000Y0078105D01*
X0021203Y0078021D01*
X0022397Y0078021D01*
X0023499Y0078478D01*
X0024343Y0079322D01*
X0024800Y0080424D01*
X0024800Y0081617D01*
X0030579Y0087396D01*
X0031772Y0087396D01*
X0032874Y0087853D01*
X0033657Y0088635D01*
X0065100Y0057192D01*
X0065100Y0049814D01*
X0064300Y0049014D01*
X0064124Y0049189D01*
X0063022Y0049646D01*
X0061828Y0049646D01*
X0060726Y0049189D01*
X0059882Y0048345D01*
X0059425Y0047243D01*
X0059425Y0046049D01*
X0059882Y0044947D01*
X0060726Y0044103D01*
X0061828Y0043646D01*
X0063022Y0043646D01*
X0063805Y0043970D01*
X0064375Y0043400D01*
X0065429Y0042346D01*
X0066346Y0042346D01*
X0064282Y0040282D01*
X0064124Y0040439D01*
X0063022Y0040896D01*
X0061828Y0040896D01*
X0060726Y0040439D01*
X0059882Y0039595D01*
X0059425Y0038493D01*
X0059425Y0037299D01*
X0059882Y0036197D01*
X0060726Y0035353D01*
X0061828Y0034896D01*
X0063022Y0034896D01*
X0064124Y0035353D01*
X0064968Y0036196D01*
X0065004Y0036196D01*
X0077235Y0048427D01*
X0077382Y0048072D01*
X0078226Y0047228D01*
X0079328Y0046771D01*
X0080522Y0046771D01*
X0081624Y0047228D01*
X0082468Y0048072D01*
X0082925Y0049174D01*
X0082925Y0050367D01*
X0085360Y0052802D01*
X0085507Y0052447D01*
X0086351Y0051603D01*
X0087453Y0051146D01*
X0088647Y0051146D01*
X0089749Y0051603D01*
X0090593Y0052446D01*
X0091446Y0052446D01*
X0071771Y0032771D01*
X0070578Y0032771D01*
X0069476Y0032314D01*
X0068632Y0031470D01*
X0068175Y0030368D01*
X0068175Y0029174D01*
X0068632Y0028072D01*
X0069476Y0027228D01*
X0070578Y0026771D01*
X0071772Y0026771D01*
X0072874Y0027228D01*
X0073362Y0027716D01*
X0073851Y0027228D01*
X0074953Y0026771D01*
X0076147Y0026771D01*
X0077249Y0027228D01*
X0078093Y0028072D01*
X0078550Y0029174D01*
X0078550Y0030367D01*
X0095568Y0047385D01*
X0095726Y0047228D01*
X0096828Y0046771D01*
X0098022Y0046771D01*
X0098850Y0047114D01*
X0098850Y0029692D01*
X0099846Y0028696D01*
X0102971Y0025571D01*
X0109379Y0025571D01*
X0110375Y0026567D01*
X0111204Y0027396D01*
X0112397Y0027396D01*
X0113499Y0027853D01*
X0114343Y0028697D01*
X0114800Y0029799D01*
X0114800Y0030993D01*
X0114343Y0032095D01*
X0113499Y0032939D01*
X0112397Y0033396D01*
X0112300Y0033396D01*
X0112300Y0034117D01*
X0114735Y0036552D01*
X0114882Y0036197D01*
X0115726Y0035353D01*
X0116828Y0034896D01*
X0118022Y0034896D01*
X0119124Y0035353D01*
X0119968Y0036197D01*
X0120425Y0037299D01*
X0120425Y0038493D01*
X0120059Y0039376D01*
X0121879Y0041196D01*
X0122875Y0042192D01*
X0122875Y0043105D01*
X0123078Y0043021D01*
X0124272Y0043021D01*
X0125100Y0043364D01*
X0125100Y0033600D01*
X0118021Y0026521D01*
X0116828Y0026521D01*
X0115726Y0026064D01*
X0114882Y0025220D01*
X0114425Y0024118D01*
X0114425Y0022924D01*
X0114685Y0022296D01*
X0003700Y0022296D01*
X0003700Y0136606D01*
X0112036Y0136606D01*
X0112036Y0110947D01*
X0173128Y0110947D01*
X0173128Y0022296D01*
X0120165Y0022296D01*
X0120425Y0022924D01*
X0120425Y0024117D01*
X0128500Y0032192D01*
X0128500Y0045978D01*
X0129343Y0046822D01*
X0129800Y0047924D01*
X0129800Y0049118D01*
X0129343Y0050220D01*
X0128499Y0051064D01*
X0127397Y0051521D01*
X0126203Y0051521D01*
X0125101Y0051064D01*
X0124943Y0050907D01*
X0124379Y0051471D01*
X0120904Y0054946D01*
X0138007Y0054946D01*
X0138851Y0054103D01*
X0139953Y0053646D01*
X0141147Y0053646D01*
X0142249Y0054103D01*
X0143093Y0054947D01*
X0143550Y0056049D01*
X0143550Y0057243D01*
X0143093Y0058345D01*
X0142249Y0059189D01*
X0141147Y0059646D01*
X0139953Y0059646D01*
X0138851Y0059189D01*
X0138007Y0058346D01*
X0094968Y0058346D01*
X0094124Y0059189D01*
X0093022Y0059646D01*
X0092204Y0059646D01*
X0096254Y0063696D01*
X0111757Y0063696D01*
X0112601Y0062853D01*
X0113703Y0062396D01*
X0114897Y0062396D01*
X0115999Y0062853D01*
X0116843Y0063697D01*
X0117300Y0064799D01*
X0117300Y0065993D01*
X0116843Y0067095D01*
X0115999Y0067939D01*
X0114897Y0068396D01*
X0113703Y0068396D01*
X0112601Y0067939D01*
X0111757Y0067096D01*
X0095904Y0067096D01*
X0103129Y0074321D01*
X0119882Y0074321D01*
X0120726Y0073478D01*
X0121828Y0073021D01*
X0123022Y0073021D01*
X0124124Y0073478D01*
X0124968Y0074322D01*
X0125425Y0075424D01*
X0125425Y0076618D01*
X0124968Y0077720D01*
X0124124Y0078564D01*
X0123022Y0079021D01*
X0121828Y0079021D01*
X0120726Y0078564D01*
X0119882Y0077721D01*
X0101721Y0077721D01*
X0100725Y0076725D01*
X0097925Y0073925D01*
X0097925Y0074743D01*
X0097468Y0075845D01*
X0096625Y0076689D01*
X0096625Y0095317D01*
X0097097Y0095789D01*
X0098286Y0095296D01*
X0100314Y0095296D01*
X0102189Y0096072D01*
X0103624Y0097507D01*
X0104400Y0099382D01*
X0104400Y0101411D01*
X0103624Y0103285D01*
X0102189Y0104720D01*
X0100314Y0105496D01*
X0098286Y0105496D01*
X0096411Y0104720D01*
X0094976Y0103285D01*
X0094300Y0101652D01*
X0093624Y0103285D01*
X0092189Y0104720D01*
X0090314Y0105496D01*
X0088286Y0105496D01*
X0086411Y0104720D01*
X0084976Y0103285D01*
X0084300Y0101652D01*
X0083624Y0103285D01*
X0082189Y0104720D01*
X0080314Y0105496D01*
X0078286Y0105496D01*
X0076411Y0104720D01*
X0074976Y0103285D01*
X0074200Y0101411D01*
X0074200Y0099382D01*
X0074976Y0097507D01*
X0076411Y0096072D01*
X0078286Y0095296D01*
X0080314Y0095296D01*
X0082189Y0096072D01*
X0083624Y0097507D01*
X0084300Y0099140D01*
X0084976Y0097507D01*
X0086411Y0096072D01*
X0088286Y0095296D01*
X0090314Y0095296D01*
X0092189Y0096072D01*
X0093624Y0097507D01*
X0094300Y0099140D01*
X0094692Y0098193D01*
X0093225Y0096725D01*
X0093225Y0076689D01*
X0092382Y0075845D01*
X0091925Y0074743D01*
X0091925Y0073549D01*
X0092382Y0072447D01*
X0093226Y0071603D01*
X0094328Y0071146D01*
X0095146Y0071146D01*
X0071725Y0047725D01*
X0071725Y0076767D01*
X0069846Y0078646D01*
X0070522Y0078646D01*
X0071624Y0079103D01*
X0072468Y0079947D01*
X0072925Y0081049D01*
X0072925Y0082243D01*
X0072468Y0083345D01*
X0071625Y0084189D01*
X0071625Y0087350D01*
X0060260Y0098715D01*
X0060385Y0099017D01*
X0060385Y0100032D01*
X0083175Y0077242D01*
X0083175Y0076049D01*
X0083632Y0074947D01*
X0084476Y0074103D01*
X0085578Y0073646D01*
X0086772Y0073646D01*
X0087874Y0074103D01*
X0088718Y0074947D01*
X0089175Y0076049D01*
X0089175Y0077243D01*
X0088718Y0078345D01*
X0087874Y0079189D01*
X0086772Y0079646D01*
X0085579Y0079646D01*
X0060361Y0104864D01*
X0060385Y0104923D01*
X0060385Y0106302D01*
X0059857Y0107576D01*
X0058882Y0108552D01*
X0058781Y0108593D01*
X0059128Y0108825D01*
X0059611Y0109308D01*
X0059990Y0109876D01*
X0060252Y0110507D01*
X0060385Y0111177D01*
X0060385Y0111518D01*
X0056918Y0111518D01*
X0056918Y0111518D01*
X0060385Y0111518D01*
X0060385Y0111860D01*
X0060252Y0112529D01*
X0059990Y0113160D01*
X0059611Y0113728D01*
X0059128Y0114211D01*
X0058781Y0114443D01*
X0058882Y0114484D01*
X0059857Y0115460D01*
X0060385Y0116734D01*
X0060385Y0118113D01*
X0059857Y0119387D01*
X0058882Y0120363D01*
X0058849Y0120376D01*
X0058882Y0120390D01*
X0059857Y0121365D01*
X0060385Y0122640D01*
X0060385Y0124019D01*
X0059857Y0125293D01*
X0058882Y0126268D01*
X0057608Y0126796D01*
X0056228Y0126796D01*
X0054954Y0126268D01*
X0053979Y0125293D01*
X0053451Y0124019D01*
X0053451Y0122640D01*
X0053611Y0122253D01*
X0051875Y0120517D01*
X0051875Y0112196D01*
X0041743Y0112196D01*
X0040999Y0112939D01*
X0039897Y0113396D01*
X0038703Y0113396D01*
X0037601Y0112939D01*
X0036757Y0112095D01*
X0036300Y0110993D01*
X0036300Y0109799D01*
X0036757Y0108697D01*
X0037601Y0107853D01*
X0038703Y0107396D01*
X0039897Y0107396D01*
X0040999Y0107853D01*
X0041743Y0108596D01*
X0051875Y0108596D01*
X0051875Y0091525D01*
X0052929Y0090471D01*
X0068125Y0075275D01*
X0068125Y0058975D01*
X0035375Y0091725D01*
X0035375Y0092350D01*
X0022875Y0104850D01*
X0022875Y0117674D01*
X0024138Y0116412D01*
X0025865Y0115696D01*
X0026003Y0115696D01*
X0024501Y0114193D01*
X0023628Y0112087D01*
X0023628Y0109807D01*
X0024501Y0107701D01*
X0026113Y0106089D01*
X0028219Y0105217D01*
X0030499Y0105217D01*
X0032605Y0106089D01*
X0034217Y0107701D01*
X0035090Y0109807D01*
X0035090Y0112087D01*
X0034217Y0114193D01*
X0032605Y0115805D01*
X0030499Y0116678D01*
X0029729Y0116678D01*
X0030784Y0117734D01*
X0031500Y0119461D01*
X0031500Y0121331D01*
X0030784Y0123058D01*
X0029763Y0124080D01*
X0032833Y0127150D01*
X0033911Y0126072D01*
X0035786Y0125296D01*
X0037814Y0125296D01*
X0039689Y0126072D01*
X0041124Y0127507D01*
X0041900Y0129382D01*
X0041900Y0131411D01*
X0041124Y0133285D01*
X0039689Y0134720D01*
X0037814Y0135496D01*
X0035786Y0135496D01*
X0033911Y0134720D01*
X0032476Y0133285D01*
X0031800Y0131652D01*
X0031124Y0133285D01*
X0029689Y0134720D01*
X0027814Y0135496D01*
X0025786Y0135496D01*
X0023911Y0134720D01*
X0022476Y0133285D01*
X0021774Y0131590D01*
X0021774Y0131590D01*
X0021526Y0132354D01*
X0021162Y0133069D01*
X0020690Y0133718D01*
X0020122Y0134286D01*
X0019473Y0134758D01*
X0018758Y0135122D01*
X0017994Y0135370D01*
X0017201Y0135496D01*
X0017000Y0135496D01*
X0017000Y0130596D01*
X0016600Y0130596D01*
X0016600Y0130196D01*
X0017000Y0130196D01*
X0017000Y0125296D01*
X0017201Y0125296D01*
X0017994Y0125422D01*
X0018758Y0125670D01*
X0019473Y0126034D01*
X0020122Y0126506D01*
X0020690Y0127074D01*
X0021162Y0127723D01*
X0021526Y0128438D01*
X0021774Y0129202D01*
X0022476Y0127507D01*
X0023867Y0126117D01*
X0020791Y0123042D01*
X0020784Y0123058D01*
X0019462Y0124381D01*
X0017735Y0125096D01*
X0015865Y0125096D01*
X0014138Y0124381D01*
X0012816Y0123058D01*
X0012100Y0121331D01*
X0012100Y0119461D01*
X0012816Y0117734D01*
X0014138Y0116412D01*
X0015865Y0115696D01*
X0017735Y0115696D01*
X0019462Y0116412D01*
X0019475Y0116424D01*
X0019475Y0110805D01*
X0018747Y0111533D01*
X0014853Y0111533D01*
X0018769Y0111511D02*
X0019475Y0111511D01*
X0019475Y0113110D02*
X0003700Y0113110D01*
X0003700Y0114708D02*
X0019475Y0114708D01*
X0019475Y0116307D02*
X0019209Y0116307D01*
X0022875Y0116307D02*
X0024391Y0116307D01*
X0025016Y0114708D02*
X0022875Y0114708D01*
X0022875Y0113110D02*
X0024052Y0113110D01*
X0023628Y0111511D02*
X0022875Y0111511D01*
X0022875Y0109913D02*
X0023628Y0109913D01*
X0024247Y0108314D02*
X0022875Y0108314D01*
X0022875Y0106716D02*
X0025486Y0106716D01*
X0022875Y0105117D02*
X0051875Y0105117D01*
X0051875Y0103519D02*
X0024207Y0103519D01*
X0025805Y0101920D02*
X0051875Y0101920D01*
X0051875Y0100322D02*
X0027404Y0100322D01*
X0029002Y0098723D02*
X0051875Y0098723D01*
X0051875Y0097125D02*
X0030601Y0097125D01*
X0032199Y0095526D02*
X0051875Y0095526D01*
X0051875Y0093928D02*
X0033798Y0093928D01*
X0035375Y0092329D02*
X0051875Y0092329D01*
X0052670Y0090731D02*
X0036370Y0090731D01*
X0037968Y0089132D02*
X0054268Y0089132D01*
X0055867Y0087534D02*
X0039567Y0087534D01*
X0041165Y0085935D02*
X0057465Y0085935D01*
X0059064Y0084337D02*
X0042764Y0084337D01*
X0044362Y0082738D02*
X0060662Y0082738D01*
X0062261Y0081139D02*
X0045961Y0081139D01*
X0047559Y0079541D02*
X0063859Y0079541D01*
X0065458Y0077942D02*
X0049158Y0077942D01*
X0050756Y0076344D02*
X0067057Y0076344D01*
X0068125Y0074745D02*
X0052355Y0074745D01*
X0053953Y0073147D02*
X0068125Y0073147D01*
X0068125Y0071548D02*
X0055552Y0071548D01*
X0057150Y0069950D02*
X0068125Y0069950D01*
X0068125Y0068351D02*
X0058749Y0068351D01*
X0060347Y0066753D02*
X0068125Y0066753D01*
X0068125Y0065154D02*
X0061946Y0065154D01*
X0063544Y0063556D02*
X0068125Y0063556D01*
X0068125Y0061957D02*
X0065143Y0061957D01*
X0066741Y0060359D02*
X0068125Y0060359D01*
X0071725Y0060359D02*
X0084359Y0060359D01*
X0085957Y0061957D02*
X0071725Y0061957D01*
X0071725Y0063556D02*
X0087556Y0063556D01*
X0089154Y0065154D02*
X0071725Y0065154D01*
X0071725Y0066753D02*
X0090753Y0066753D01*
X0092351Y0068351D02*
X0071725Y0068351D01*
X0071725Y0069950D02*
X0093950Y0069950D01*
X0093357Y0071548D02*
X0071725Y0071548D01*
X0071725Y0073147D02*
X0092092Y0073147D01*
X0091926Y0074745D02*
X0088517Y0074745D01*
X0089175Y0076344D02*
X0092880Y0076344D01*
X0093225Y0077942D02*
X0088885Y0077942D01*
X0087025Y0079541D02*
X0093225Y0079541D01*
X0093225Y0081139D02*
X0084086Y0081139D01*
X0082487Y0082738D02*
X0093225Y0082738D01*
X0093225Y0084337D02*
X0080889Y0084337D01*
X0079290Y0085935D02*
X0093225Y0085935D01*
X0093225Y0087534D02*
X0077692Y0087534D01*
X0076093Y0089132D02*
X0093225Y0089132D01*
X0093225Y0090731D02*
X0074495Y0090731D01*
X0072896Y0092329D02*
X0093225Y0092329D01*
X0093225Y0093928D02*
X0071298Y0093928D01*
X0069699Y0095526D02*
X0077730Y0095526D01*
X0075359Y0097125D02*
X0068101Y0097125D01*
X0066502Y0098723D02*
X0074473Y0098723D01*
X0074200Y0100322D02*
X0064904Y0100322D01*
X0063305Y0101920D02*
X0074411Y0101920D01*
X0075210Y0103519D02*
X0061707Y0103519D01*
X0060385Y0105117D02*
X0077371Y0105117D01*
X0081229Y0105117D02*
X0087371Y0105117D01*
X0085210Y0103519D02*
X0083390Y0103519D01*
X0084189Y0101920D02*
X0084411Y0101920D01*
X0084473Y0098723D02*
X0084127Y0098723D01*
X0083241Y0097125D02*
X0085359Y0097125D01*
X0087730Y0095526D02*
X0080870Y0095526D01*
X0071285Y0089132D02*
X0069843Y0089132D01*
X0069686Y0090731D02*
X0068245Y0090731D01*
X0068088Y0092329D02*
X0066646Y0092329D01*
X0066489Y0093928D02*
X0065048Y0093928D01*
X0064891Y0095526D02*
X0063449Y0095526D01*
X0063292Y0097125D02*
X0061851Y0097125D01*
X0061694Y0098723D02*
X0060263Y0098723D01*
X0060214Y0106716D02*
X0173128Y0106716D01*
X0173128Y0108314D02*
X0059119Y0108314D01*
X0060006Y0109913D02*
X0173128Y0109913D01*
X0173128Y0105117D02*
X0101229Y0105117D01*
X0103390Y0103519D02*
X0173128Y0103519D01*
X0173128Y0101920D02*
X0104189Y0101920D01*
X0104400Y0100322D02*
X0173128Y0100322D01*
X0173128Y0098723D02*
X0104127Y0098723D01*
X0103241Y0097125D02*
X0173128Y0097125D01*
X0173128Y0095526D02*
X0100870Y0095526D01*
X0097730Y0095526D02*
X0096834Y0095526D01*
X0096625Y0093928D02*
X0173128Y0093928D01*
X0173128Y0092329D02*
X0096625Y0092329D01*
X0096625Y0090731D02*
X0173128Y0090731D01*
X0173128Y0089132D02*
X0096625Y0089132D01*
X0096625Y0087534D02*
X0173128Y0087534D01*
X0173128Y0085935D02*
X0096625Y0085935D01*
X0096625Y0084337D02*
X0173128Y0084337D01*
X0173128Y0082738D02*
X0096625Y0082738D01*
X0096625Y0081139D02*
X0173128Y0081139D01*
X0173128Y0079541D02*
X0096625Y0079541D01*
X0096625Y0077942D02*
X0120104Y0077942D01*
X0124746Y0077942D02*
X0173128Y0077942D01*
X0173128Y0076344D02*
X0125425Y0076344D01*
X0125144Y0074745D02*
X0173128Y0074745D01*
X0173128Y0073147D02*
X0123326Y0073147D01*
X0121524Y0073147D02*
X0101955Y0073147D01*
X0100357Y0071548D02*
X0173128Y0071548D01*
X0173128Y0069950D02*
X0098758Y0069950D01*
X0097159Y0068351D02*
X0113595Y0068351D01*
X0115005Y0068351D02*
X0173128Y0068351D01*
X0173128Y0066753D02*
X0116985Y0066753D01*
X0117300Y0065154D02*
X0173128Y0065154D01*
X0173128Y0063556D02*
X0116702Y0063556D01*
X0111898Y0063556D02*
X0096114Y0063556D01*
X0094515Y0061957D02*
X0173128Y0061957D01*
X0173128Y0060359D02*
X0092917Y0060359D01*
X0094553Y0058760D02*
X0138422Y0058760D01*
X0142678Y0058760D02*
X0173128Y0058760D01*
X0173128Y0057162D02*
X0143550Y0057162D01*
X0143349Y0055563D02*
X0173128Y0055563D01*
X0173128Y0053965D02*
X0141916Y0053965D01*
X0139184Y0053965D02*
X0121885Y0053965D01*
X0123484Y0052366D02*
X0173128Y0052366D01*
X0173128Y0050768D02*
X0128796Y0050768D01*
X0129779Y0049169D02*
X0173128Y0049169D01*
X0173128Y0047571D02*
X0129654Y0047571D01*
X0128500Y0045972D02*
X0173128Y0045972D01*
X0173128Y0044374D02*
X0128500Y0044374D01*
X0128500Y0042775D02*
X0173128Y0042775D01*
X0173128Y0041177D02*
X0128500Y0041177D01*
X0128500Y0039578D02*
X0173128Y0039578D01*
X0173128Y0037980D02*
X0128500Y0037980D01*
X0128500Y0036381D02*
X0173128Y0036381D01*
X0173128Y0034783D02*
X0128500Y0034783D01*
X0128500Y0033184D02*
X0173128Y0033184D01*
X0173128Y0031586D02*
X0127894Y0031586D01*
X0126295Y0029987D02*
X0173128Y0029987D01*
X0173128Y0028389D02*
X0124697Y0028389D01*
X0123098Y0026790D02*
X0173128Y0026790D01*
X0173128Y0025192D02*
X0121500Y0025192D01*
X0120425Y0023593D02*
X0173128Y0023593D01*
X0125100Y0034783D02*
X0112966Y0034783D01*
X0112908Y0033184D02*
X0124684Y0033184D01*
X0123085Y0031586D02*
X0114554Y0031586D01*
X0114800Y0029987D02*
X0121487Y0029987D01*
X0119888Y0028389D02*
X0114035Y0028389D01*
X0110598Y0026790D02*
X0118290Y0026790D01*
X0114870Y0025192D02*
X0003700Y0025192D01*
X0003700Y0023593D02*
X0114425Y0023593D01*
X0101752Y0026790D02*
X0076193Y0026790D01*
X0074907Y0026790D02*
X0071818Y0026790D01*
X0070532Y0026790D02*
X0060568Y0026790D01*
X0059282Y0026790D02*
X0003700Y0026790D01*
X0003700Y0028389D02*
X0050778Y0028389D01*
X0049180Y0029987D02*
X0003700Y0029987D01*
X0003700Y0031586D02*
X0047581Y0031586D01*
X0045983Y0033184D02*
X0003700Y0033184D01*
X0003700Y0034783D02*
X0044384Y0034783D01*
X0042786Y0036381D02*
X0037137Y0036381D01*
X0033786Y0036381D02*
X0019814Y0036381D01*
X0020047Y0036477D02*
X0020994Y0037425D01*
X0021507Y0038663D01*
X0021507Y0040003D01*
X0020994Y0041241D01*
X0020047Y0042189D01*
X0018809Y0042702D01*
X0017469Y0042702D01*
X0016230Y0042189D01*
X0015283Y0041241D01*
X0014770Y0040003D01*
X0014770Y0038663D01*
X0015283Y0037425D01*
X0016230Y0036477D01*
X0017469Y0035965D01*
X0018809Y0035965D01*
X0020047Y0036477D01*
X0021224Y0037980D02*
X0032376Y0037980D01*
X0032093Y0039578D02*
X0021507Y0039578D01*
X0021021Y0041177D02*
X0032579Y0041177D01*
X0034793Y0044374D02*
X0003700Y0044374D01*
X0003700Y0045972D02*
X0033195Y0045972D01*
X0031596Y0047571D02*
X0003700Y0047571D01*
X0003700Y0049169D02*
X0029998Y0049169D01*
X0028399Y0050768D02*
X0003700Y0050768D01*
X0003700Y0052366D02*
X0026801Y0052366D01*
X0025202Y0053965D02*
X0003700Y0053965D01*
X0003700Y0055563D02*
X0005772Y0055563D01*
X0006428Y0054908D02*
X0008534Y0054035D01*
X0010814Y0054035D01*
X0012920Y0054908D01*
X0014532Y0056520D01*
X0015405Y0058626D01*
X0015405Y0060906D01*
X0014532Y0063012D01*
X0012920Y0064624D01*
X0010814Y0065497D01*
X0008534Y0065497D01*
X0006428Y0064624D01*
X0004816Y0063012D01*
X0003943Y0060906D01*
X0003943Y0058626D01*
X0004816Y0056520D01*
X0006428Y0054908D01*
X0004550Y0057162D02*
X0003700Y0057162D01*
X0003700Y0058760D02*
X0003943Y0058760D01*
X0003943Y0060359D02*
X0003700Y0060359D01*
X0003700Y0061957D02*
X0004379Y0061957D01*
X0003700Y0063556D02*
X0005359Y0063556D01*
X0003700Y0065154D02*
X0007707Y0065154D01*
X0011641Y0065154D02*
X0017600Y0065154D01*
X0017600Y0063556D02*
X0013989Y0063556D01*
X0014969Y0061957D02*
X0017600Y0061957D01*
X0018596Y0060571D02*
X0018596Y0060571D01*
X0018808Y0060359D02*
X0015405Y0060359D01*
X0015405Y0058760D02*
X0020407Y0058760D01*
X0022005Y0057162D02*
X0014798Y0057162D01*
X0013576Y0055563D02*
X0023604Y0055563D01*
X0025215Y0058760D02*
X0063532Y0058760D01*
X0065100Y0057162D02*
X0026813Y0057162D01*
X0028412Y0055563D02*
X0065100Y0055563D01*
X0065100Y0053965D02*
X0030010Y0053965D01*
X0031609Y0052366D02*
X0065100Y0052366D01*
X0065100Y0050768D02*
X0033207Y0050768D01*
X0034806Y0049169D02*
X0060706Y0049169D01*
X0059561Y0047571D02*
X0036404Y0047571D01*
X0038003Y0045972D02*
X0059457Y0045972D01*
X0060455Y0044374D02*
X0039601Y0044374D01*
X0041200Y0042775D02*
X0065000Y0042775D01*
X0065177Y0041177D02*
X0055806Y0041177D01*
X0057651Y0039578D02*
X0059875Y0039578D01*
X0059425Y0037980D02*
X0058424Y0037980D01*
X0058712Y0036381D02*
X0059805Y0036381D01*
X0058620Y0034783D02*
X0073782Y0034783D01*
X0072184Y0033184D02*
X0057958Y0033184D01*
X0057497Y0031586D02*
X0056527Y0031586D01*
X0062353Y0031586D02*
X0068747Y0031586D01*
X0068175Y0029987D02*
X0062925Y0029987D01*
X0062600Y0028389D02*
X0068500Y0028389D01*
X0065189Y0036381D02*
X0075381Y0036381D01*
X0076979Y0037980D02*
X0066788Y0037980D01*
X0068386Y0039578D02*
X0078578Y0039578D01*
X0080177Y0041177D02*
X0069985Y0041177D01*
X0071583Y0042775D02*
X0081775Y0042775D01*
X0083374Y0044374D02*
X0073182Y0044374D01*
X0074780Y0045972D02*
X0084972Y0045972D01*
X0086571Y0047571D02*
X0081967Y0047571D01*
X0082923Y0049169D02*
X0088169Y0049169D01*
X0089768Y0050768D02*
X0083326Y0050768D01*
X0084924Y0052366D02*
X0085587Y0052366D01*
X0090513Y0052366D02*
X0091366Y0052366D01*
X0094155Y0045972D02*
X0098850Y0045972D01*
X0098850Y0044374D02*
X0092557Y0044374D01*
X0090958Y0042775D02*
X0098850Y0042775D01*
X0098850Y0041177D02*
X0089360Y0041177D01*
X0087761Y0039578D02*
X0098850Y0039578D01*
X0098850Y0037980D02*
X0086163Y0037980D01*
X0084564Y0036381D02*
X0098850Y0036381D01*
X0098850Y0034783D02*
X0082966Y0034783D01*
X0081367Y0033184D02*
X0098850Y0033184D01*
X0098850Y0031586D02*
X0079769Y0031586D01*
X0078550Y0029987D02*
X0098850Y0029987D01*
X0100153Y0028389D02*
X0078225Y0028389D01*
X0077883Y0047571D02*
X0076379Y0047571D01*
X0073169Y0049169D02*
X0071725Y0049169D01*
X0071725Y0050768D02*
X0074768Y0050768D01*
X0076366Y0052366D02*
X0071725Y0052366D01*
X0071725Y0053965D02*
X0077965Y0053965D01*
X0079563Y0055563D02*
X0071725Y0055563D01*
X0071725Y0057162D02*
X0081162Y0057162D01*
X0082760Y0058760D02*
X0071725Y0058760D01*
X0061933Y0060359D02*
X0023616Y0060359D01*
X0022018Y0061957D02*
X0060335Y0061957D01*
X0058736Y0063556D02*
X0021000Y0063556D01*
X0021000Y0065154D02*
X0057138Y0065154D01*
X0055539Y0066753D02*
X0021000Y0066753D01*
X0021000Y0068351D02*
X0053940Y0068351D01*
X0052342Y0069950D02*
X0021000Y0069950D01*
X0021000Y0071548D02*
X0050743Y0071548D01*
X0049145Y0073147D02*
X0021000Y0073147D01*
X0021000Y0074745D02*
X0047546Y0074745D01*
X0045948Y0076344D02*
X0021000Y0076344D01*
X0021000Y0077942D02*
X0044349Y0077942D01*
X0042751Y0079541D02*
X0024434Y0079541D01*
X0024800Y0081139D02*
X0041152Y0081139D01*
X0039554Y0082738D02*
X0025921Y0082738D01*
X0027520Y0084337D02*
X0037955Y0084337D01*
X0036357Y0085935D02*
X0029118Y0085935D01*
X0032104Y0087534D02*
X0034758Y0087534D01*
X0017600Y0087534D02*
X0003700Y0087534D01*
X0003700Y0089132D02*
X0017600Y0089132D01*
X0017600Y0090731D02*
X0003700Y0090731D01*
X0003700Y0092329D02*
X0017600Y0092329D01*
X0017600Y0093928D02*
X0003700Y0093928D01*
X0003700Y0095526D02*
X0013586Y0095526D01*
X0012100Y0097125D02*
X0003700Y0097125D01*
X0003700Y0098723D02*
X0012100Y0098723D01*
X0012100Y0098959D02*
X0016800Y0098959D01*
X0016800Y0094259D01*
X0016800Y0098959D01*
X0016800Y0098959D01*
X0016800Y0098959D01*
X0012100Y0098959D01*
X0012100Y0100322D02*
X0003700Y0100322D01*
X0003700Y0101920D02*
X0013114Y0101920D01*
X0013468Y0103519D02*
X0003700Y0103519D01*
X0003700Y0105117D02*
X0012100Y0105117D01*
X0012100Y0106716D02*
X0003700Y0106716D01*
X0003700Y0108314D02*
X0012100Y0108314D01*
X0014391Y0116307D02*
X0003700Y0116307D01*
X0003700Y0117905D02*
X0012744Y0117905D01*
X0012100Y0119504D02*
X0003700Y0119504D01*
X0003700Y0121102D02*
X0012100Y0121102D01*
X0012667Y0122701D02*
X0003700Y0122701D01*
X0003700Y0124299D02*
X0014056Y0124299D01*
X0014842Y0125670D02*
X0014127Y0126034D01*
X0013478Y0126506D01*
X0012910Y0127074D01*
X0012438Y0127723D01*
X0012074Y0128438D01*
X0011826Y0129202D01*
X0011700Y0129995D01*
X0011700Y0130196D01*
X0016600Y0130196D01*
X0016600Y0125296D01*
X0016399Y0125296D01*
X0015606Y0125422D01*
X0014842Y0125670D01*
X0014395Y0125898D02*
X0003700Y0125898D01*
X0003700Y0127496D02*
X0012603Y0127496D01*
X0011860Y0129095D02*
X0003700Y0129095D01*
X0003700Y0130693D02*
X0011700Y0130693D01*
X0011700Y0130596D02*
X0016600Y0130596D01*
X0016600Y0135496D01*
X0016399Y0135496D01*
X0015606Y0135370D01*
X0014842Y0135122D01*
X0014127Y0134758D01*
X0013478Y0134286D01*
X0012910Y0133718D01*
X0012438Y0133069D01*
X0012074Y0132354D01*
X0011826Y0131590D01*
X0011700Y0130797D01*
X0011700Y0130596D01*
X0012054Y0132292D02*
X0003700Y0132292D01*
X0003700Y0133890D02*
X0013082Y0133890D01*
X0016600Y0133890D02*
X0017000Y0133890D01*
X0017000Y0132292D02*
X0016600Y0132292D01*
X0016600Y0130693D02*
X0017000Y0130693D01*
X0017000Y0129095D02*
X0016600Y0129095D01*
X0016600Y0127496D02*
X0017000Y0127496D01*
X0017000Y0125898D02*
X0016600Y0125898D01*
X0019205Y0125898D02*
X0023648Y0125898D01*
X0022487Y0127496D02*
X0020997Y0127496D01*
X0021740Y0129095D02*
X0021819Y0129095D01*
X0021774Y0129202D02*
X0021774Y0129202D01*
X0021546Y0132292D02*
X0022065Y0132292D01*
X0023082Y0133890D02*
X0020518Y0133890D01*
X0017247Y0135489D02*
X0025768Y0135489D01*
X0027832Y0135489D02*
X0035768Y0135489D01*
X0037832Y0135489D02*
X0078853Y0135489D01*
X0078899Y0135496D02*
X0078106Y0135370D01*
X0077342Y0135122D01*
X0076627Y0134758D01*
X0075978Y0134286D01*
X0075410Y0133718D01*
X0074938Y0133069D01*
X0074574Y0132354D01*
X0074326Y0131590D01*
X0074200Y0130797D01*
X0074200Y0130596D01*
X0079100Y0130596D01*
X0079100Y0130196D01*
X0079500Y0130196D01*
X0079500Y0125296D01*
X0079701Y0125296D01*
X0080494Y0125422D01*
X0081258Y0125670D01*
X0081973Y0126034D01*
X0082622Y0126506D01*
X0083190Y0127074D01*
X0083662Y0127723D01*
X0084026Y0128438D01*
X0084274Y0129202D01*
X0084300Y0129363D01*
X0084326Y0129202D01*
X0084574Y0128438D01*
X0084938Y0127723D01*
X0085410Y0127074D01*
X0085978Y0126506D01*
X0086627Y0126034D01*
X0087342Y0125670D01*
X0088106Y0125422D01*
X0088899Y0125296D01*
X0089100Y0125296D01*
X0089100Y0130196D01*
X0089500Y0130196D01*
X0089500Y0125296D01*
X0089701Y0125296D01*
X0090494Y0125422D01*
X0091258Y0125670D01*
X0091973Y0126034D01*
X0092622Y0126506D01*
X0093190Y0127074D01*
X0093662Y0127723D01*
X0094026Y0128438D01*
X0094274Y0129202D01*
X0094976Y0127507D01*
X0096411Y0126072D01*
X0098286Y0125296D01*
X0100314Y0125296D01*
X0102189Y0126072D01*
X0103624Y0127507D01*
X0104400Y0129382D01*
X0104400Y0131411D01*
X0103624Y0133285D01*
X0102189Y0134720D01*
X0100314Y0135496D01*
X0098286Y0135496D01*
X0096411Y0134720D01*
X0094976Y0133285D01*
X0094274Y0131590D01*
X0094274Y0131590D01*
X0094026Y0132354D01*
X0093662Y0133069D01*
X0093190Y0133718D01*
X0092622Y0134286D01*
X0091973Y0134758D01*
X0091258Y0135122D01*
X0090494Y0135370D01*
X0089701Y0135496D01*
X0089500Y0135496D01*
X0089500Y0130596D01*
X0089100Y0130596D01*
X0089100Y0130196D01*
X0084200Y0130196D01*
X0079500Y0130196D01*
X0079500Y0130596D01*
X0089100Y0130596D01*
X0089100Y0135496D01*
X0088899Y0135496D01*
X0088106Y0135370D01*
X0087342Y0135122D01*
X0086627Y0134758D01*
X0085978Y0134286D01*
X0085410Y0133718D01*
X0084938Y0133069D01*
X0084574Y0132354D01*
X0084326Y0131590D01*
X0084300Y0131429D01*
X0084274Y0131590D01*
X0084026Y0132354D01*
X0083662Y0133069D01*
X0083190Y0133718D01*
X0082622Y0134286D01*
X0081973Y0134758D01*
X0081258Y0135122D01*
X0080494Y0135370D01*
X0079701Y0135496D01*
X0079500Y0135496D01*
X0079500Y0130596D01*
X0079100Y0130596D01*
X0079100Y0135496D01*
X0078899Y0135496D01*
X0079100Y0135489D02*
X0079500Y0135489D01*
X0079747Y0135489D02*
X0088853Y0135489D01*
X0089100Y0135489D02*
X0089500Y0135489D01*
X0089747Y0135489D02*
X0098268Y0135489D01*
X0100332Y0135489D02*
X0112036Y0135489D01*
X0112036Y0133890D02*
X0103018Y0133890D01*
X0104035Y0132292D02*
X0112036Y0132292D01*
X0112036Y0130693D02*
X0104400Y0130693D01*
X0104281Y0129095D02*
X0112036Y0129095D01*
X0112036Y0127496D02*
X0103613Y0127496D01*
X0101767Y0125898D02*
X0112036Y0125898D01*
X0112036Y0124299D02*
X0060269Y0124299D01*
X0060385Y0122701D02*
X0112036Y0122701D01*
X0112036Y0121102D02*
X0059594Y0121102D01*
X0059741Y0119504D02*
X0112036Y0119504D01*
X0112036Y0117905D02*
X0060385Y0117905D01*
X0060208Y0116307D02*
X0112036Y0116307D01*
X0112036Y0114708D02*
X0059106Y0114708D01*
X0060011Y0113110D02*
X0112036Y0113110D01*
X0112036Y0111511D02*
X0060385Y0111511D01*
X0051875Y0113110D02*
X0040588Y0113110D01*
X0038012Y0113110D02*
X0034666Y0113110D01*
X0035090Y0111511D02*
X0036515Y0111511D01*
X0036300Y0109913D02*
X0035090Y0109913D01*
X0034471Y0108314D02*
X0037139Y0108314D01*
X0033232Y0106716D02*
X0051875Y0106716D01*
X0051875Y0108314D02*
X0041461Y0108314D01*
X0033702Y0114708D02*
X0051875Y0114708D01*
X0051875Y0116307D02*
X0039209Y0116307D01*
X0039462Y0116412D02*
X0040784Y0117734D01*
X0041500Y0119461D01*
X0041500Y0121331D01*
X0040784Y0123058D01*
X0039462Y0124381D01*
X0037735Y0125096D01*
X0035865Y0125096D01*
X0034138Y0124381D01*
X0032816Y0123058D01*
X0032100Y0121331D01*
X0032100Y0119461D01*
X0032816Y0117734D01*
X0034138Y0116412D01*
X0035865Y0115696D01*
X0037735Y0115696D01*
X0039462Y0116412D01*
X0040855Y0117905D02*
X0051875Y0117905D01*
X0051875Y0119504D02*
X0041500Y0119504D01*
X0041500Y0121102D02*
X0052461Y0121102D01*
X0053451Y0122701D02*
X0040933Y0122701D01*
X0039544Y0124299D02*
X0053567Y0124299D01*
X0054584Y0125898D02*
X0039267Y0125898D01*
X0041113Y0127496D02*
X0075103Y0127496D01*
X0074938Y0127723D02*
X0075410Y0127074D01*
X0075978Y0126506D01*
X0076627Y0126034D01*
X0077342Y0125670D01*
X0078106Y0125422D01*
X0078899Y0125296D01*
X0079100Y0125296D01*
X0079100Y0130196D01*
X0074200Y0130196D01*
X0074200Y0129995D01*
X0074326Y0129202D01*
X0074574Y0128438D01*
X0074938Y0127723D01*
X0074360Y0129095D02*
X0041781Y0129095D01*
X0041900Y0130693D02*
X0074200Y0130693D01*
X0074554Y0132292D02*
X0041535Y0132292D01*
X0040518Y0133890D02*
X0075582Y0133890D01*
X0079100Y0133890D02*
X0079500Y0133890D01*
X0079500Y0132292D02*
X0079100Y0132292D01*
X0079100Y0130693D02*
X0079500Y0130693D01*
X0079500Y0129095D02*
X0079100Y0129095D01*
X0079100Y0127496D02*
X0079500Y0127496D01*
X0079500Y0125898D02*
X0079100Y0125898D01*
X0076895Y0125898D02*
X0059252Y0125898D01*
X0081705Y0125898D02*
X0086895Y0125898D01*
X0089100Y0125898D02*
X0089500Y0125898D01*
X0089500Y0127496D02*
X0089100Y0127496D01*
X0089100Y0129095D02*
X0089500Y0129095D01*
X0089500Y0130693D02*
X0089100Y0130693D01*
X0089100Y0132292D02*
X0089500Y0132292D01*
X0089500Y0133890D02*
X0089100Y0133890D01*
X0085582Y0133890D02*
X0083018Y0133890D01*
X0084046Y0132292D02*
X0084554Y0132292D01*
X0084360Y0129095D02*
X0084240Y0129095D01*
X0083497Y0127496D02*
X0085103Y0127496D01*
X0091705Y0125898D02*
X0096833Y0125898D01*
X0094987Y0127496D02*
X0093497Y0127496D01*
X0094240Y0129095D02*
X0094319Y0129095D01*
X0094274Y0129202D02*
X0094274Y0129202D01*
X0094046Y0132292D02*
X0094565Y0132292D01*
X0095582Y0133890D02*
X0093018Y0133890D01*
X0091229Y0105117D02*
X0097371Y0105117D01*
X0095210Y0103519D02*
X0093390Y0103519D01*
X0094189Y0101920D02*
X0094411Y0101920D01*
X0094473Y0098723D02*
X0094127Y0098723D01*
X0093624Y0097125D02*
X0093241Y0097125D01*
X0093225Y0095526D02*
X0090870Y0095526D01*
X0076080Y0084337D02*
X0071625Y0084337D01*
X0071625Y0085935D02*
X0074482Y0085935D01*
X0072883Y0087534D02*
X0071442Y0087534D01*
X0072720Y0082738D02*
X0077679Y0082738D01*
X0079277Y0081139D02*
X0072925Y0081139D01*
X0072063Y0079541D02*
X0080876Y0079541D01*
X0082474Y0077942D02*
X0070549Y0077942D01*
X0071725Y0076344D02*
X0083175Y0076344D01*
X0083833Y0074745D02*
X0071725Y0074745D01*
X0096970Y0076344D02*
X0100344Y0076344D01*
X0098745Y0074745D02*
X0097924Y0074745D01*
X0064456Y0049169D02*
X0064144Y0049169D01*
X0050156Y0041177D02*
X0042798Y0041177D01*
X0044397Y0039578D02*
X0048311Y0039578D01*
X0047539Y0037980D02*
X0045996Y0037980D01*
X0041187Y0037980D02*
X0038547Y0037980D01*
X0038830Y0039578D02*
X0039589Y0039578D01*
X0036392Y0042775D02*
X0003700Y0042775D01*
X0003700Y0041177D02*
X0015256Y0041177D01*
X0014770Y0039578D02*
X0003700Y0039578D01*
X0003700Y0037980D02*
X0015053Y0037980D01*
X0016463Y0036381D02*
X0003700Y0036381D01*
X0003700Y0066753D02*
X0017600Y0066753D01*
X0017600Y0068351D02*
X0003700Y0068351D01*
X0003700Y0069950D02*
X0017600Y0069950D01*
X0017600Y0071548D02*
X0003700Y0071548D01*
X0003700Y0073147D02*
X0017600Y0073147D01*
X0017600Y0074745D02*
X0003700Y0074745D01*
X0003700Y0076344D02*
X0017600Y0076344D01*
X0017600Y0077942D02*
X0003700Y0077942D01*
X0003700Y0079541D02*
X0017600Y0079541D01*
X0017600Y0081139D02*
X0003700Y0081139D01*
X0003700Y0082738D02*
X0017600Y0082738D01*
X0017600Y0084337D02*
X0003700Y0084337D01*
X0003700Y0085935D02*
X0017600Y0085935D01*
X0016800Y0095526D02*
X0016800Y0095526D01*
X0016800Y0097125D02*
X0016800Y0097125D01*
X0016800Y0098723D02*
X0016800Y0098723D01*
X0031395Y0116307D02*
X0034391Y0116307D01*
X0032744Y0117905D02*
X0030855Y0117905D01*
X0031500Y0119504D02*
X0032100Y0119504D01*
X0032100Y0121102D02*
X0031500Y0121102D01*
X0030933Y0122701D02*
X0032667Y0122701D01*
X0034056Y0124299D02*
X0029982Y0124299D01*
X0031581Y0125898D02*
X0034333Y0125898D01*
X0032065Y0132292D02*
X0031535Y0132292D01*
X0030518Y0133890D02*
X0033082Y0133890D01*
X0022049Y0124299D02*
X0019544Y0124299D01*
X0017000Y0135489D02*
X0016600Y0135489D01*
X0016353Y0135489D02*
X0003700Y0135489D01*
X0122875Y0042775D02*
X0125100Y0042775D01*
X0125100Y0041177D02*
X0121860Y0041177D01*
X0120261Y0039578D02*
X0125100Y0039578D01*
X0125100Y0037980D02*
X0120425Y0037980D01*
X0120045Y0036381D02*
X0125100Y0036381D01*
X0114805Y0036381D02*
X0114564Y0036381D01*
D16*
X0089300Y0076021D02*
X0073050Y0059771D01*
X0069925Y0046646D02*
X0069925Y0076021D01*
X0053675Y0092271D01*
X0053675Y0110396D01*
X0039300Y0110396D01*
X0053675Y0110396D02*
X0053675Y0119771D01*
X0056800Y0122896D01*
X0056918Y0123329D01*
X0056918Y0111518D02*
X0057425Y0111021D01*
X0089300Y0079146D01*
X0089300Y0076021D01*
X0069925Y0046646D02*
X0067425Y0044146D01*
X0066175Y0044146D01*
X0063675Y0046646D01*
X0062425Y0046646D01*
X0099925Y0119146D02*
X0089300Y0129771D01*
X0089300Y0130396D01*
X0099925Y0119146D02*
X0102425Y0119146D01*
D17*
X0102425Y0119146D03*
X0069925Y0081646D03*
X0086175Y0076646D03*
X0094925Y0074146D03*
X0114300Y0065396D03*
X0122425Y0076021D03*
X0140550Y0056646D03*
X0126800Y0048521D03*
X0123675Y0046021D03*
X0117425Y0044771D03*
X0111175Y0046646D03*
X0106800Y0047271D03*
X0103675Y0049771D03*
X0097425Y0049771D03*
X0092425Y0056646D03*
X0088050Y0054146D03*
X0079925Y0049771D03*
X0073050Y0059771D03*
X0066800Y0047271D03*
X0062425Y0046646D03*
X0062425Y0037896D03*
X0059925Y0029771D03*
X0071175Y0029771D03*
X0075550Y0029771D03*
X0104300Y0032271D03*
X0107425Y0029771D03*
X0109300Y0033521D03*
X0111800Y0030396D03*
X0117425Y0023521D03*
X0117425Y0037896D03*
X0118675Y0051021D03*
X0114300Y0051646D03*
X0039300Y0110396D03*
X0022425Y0098521D03*
X0031175Y0090396D03*
X0021800Y0081021D03*
D18*
X0031175Y0090396D01*
X0033675Y0091021D02*
X0033675Y0091646D01*
X0021175Y0104146D01*
X0021175Y0121021D01*
X0024925Y0124771D01*
X0028050Y0124771D01*
X0033675Y0130396D01*
X0036800Y0130396D01*
X0016800Y0106833D02*
X0016800Y0106646D01*
X0018675Y0106646D01*
X0021175Y0104146D01*
X0022425Y0098521D02*
X0019300Y0095396D01*
X0019300Y0062271D01*
X0051800Y0029771D01*
X0059925Y0029771D01*
X0062425Y0037896D02*
X0064300Y0037896D01*
X0102425Y0076021D01*
X0122425Y0076021D01*
X0114300Y0065396D02*
X0095550Y0065396D01*
X0079925Y0049771D01*
X0088050Y0054146D02*
X0119300Y0054146D01*
X0123675Y0049771D01*
X0123675Y0046021D01*
X0121175Y0048521D02*
X0121175Y0042896D01*
X0117425Y0039146D01*
X0117425Y0037896D01*
X0118050Y0042271D02*
X0118675Y0042271D01*
X0119925Y0043521D01*
X0119925Y0046021D01*
X0114300Y0051646D01*
X0118675Y0051021D02*
X0121175Y0048521D01*
X0117425Y0044771D02*
X0109925Y0052271D01*
X0093675Y0052271D01*
X0071175Y0029771D01*
X0075550Y0029771D02*
X0095550Y0049771D01*
X0097425Y0049771D01*
X0100550Y0046646D02*
X0103675Y0049771D01*
X0106800Y0047271D02*
X0101800Y0042271D01*
X0101800Y0031021D01*
X0103050Y0029771D01*
X0107425Y0029771D01*
X0108675Y0027271D02*
X0103675Y0027271D01*
X0100550Y0030396D01*
X0100550Y0046646D01*
X0111175Y0046646D02*
X0111175Y0039146D01*
X0104300Y0032271D01*
X0109300Y0033521D02*
X0118050Y0042271D01*
X0126800Y0048521D02*
X0126800Y0032896D01*
X0117425Y0023521D01*
X0111800Y0030396D02*
X0108675Y0027271D01*
X0092425Y0056646D02*
X0140550Y0056646D01*
X0094925Y0074146D02*
X0094925Y0096021D01*
X0099300Y0100396D01*
X0086175Y0076646D02*
X0057425Y0105396D01*
X0056918Y0105613D01*
X0056918Y0099707D02*
X0057425Y0099146D01*
X0069925Y0086646D01*
X0069925Y0081646D01*
X0066800Y0057896D02*
X0033675Y0091021D01*
X0066800Y0057896D02*
X0066800Y0047271D01*
D19*
X0036800Y0120396D03*
X0026800Y0120396D03*
X0016800Y0120396D03*
M02*
