G04 EAGLE Gerber X2 export*
%TF.Part,Single*%
%TF.FileFunction,Copper,L2,Bot,Mixed*%
%TF.FilePolarity,Positive*%
%TF.GenerationSoftware,Autodesk,EAGLE,9.0.0*%
%TF.CreationDate,2018-07-15T17:58:39Z*%
G75*
%MOMM*%
%FSLAX34Y34*%
%LPD*%
%AMOC8*
5,1,8,0,0,1.08239X$1,22.5*%
G01*
%ADD10R,1.000000X1.100000*%
%ADD11R,1.550000X0.600000*%
%ADD12R,1.800000X1.200000*%
%ADD13C,0.606400*%
%ADD14C,0.254000*%

G36*
X625611Y178742D02*
X625611Y178742D01*
X625696Y178742D01*
X625830Y178769D01*
X625841Y178771D01*
X625845Y178772D01*
X625854Y178774D01*
X631029Y180161D01*
X638971Y180161D01*
X644146Y178774D01*
X644231Y178762D01*
X644314Y178741D01*
X644450Y178732D01*
X644461Y178731D01*
X644466Y178731D01*
X644475Y178731D01*
X678636Y178731D01*
X678664Y178734D01*
X678691Y178732D01*
X678821Y178754D01*
X678951Y178771D01*
X678977Y178781D01*
X679005Y178786D01*
X679125Y178839D01*
X679247Y178888D01*
X679270Y178904D01*
X679295Y178915D01*
X679427Y179008D01*
X681756Y180865D01*
X696259Y187849D01*
X711952Y191431D01*
X744820Y191431D01*
X744958Y191448D01*
X745097Y191461D01*
X745115Y191468D01*
X745135Y191471D01*
X745265Y191522D01*
X745396Y191569D01*
X745412Y191580D01*
X745431Y191588D01*
X745544Y191670D01*
X745659Y191748D01*
X745672Y191763D01*
X745688Y191774D01*
X745777Y191882D01*
X745869Y191986D01*
X745878Y192004D01*
X745891Y192019D01*
X745950Y192145D01*
X746014Y192270D01*
X746022Y192296D01*
X746027Y192307D01*
X746030Y192327D01*
X746059Y192424D01*
X748605Y203862D01*
X748607Y203883D01*
X748621Y203944D01*
X755237Y246675D01*
X755238Y246697D01*
X755250Y246785D01*
X758117Y289931D01*
X758115Y289952D01*
X758119Y290041D01*
X757215Y333272D01*
X757212Y333294D01*
X757208Y333383D01*
X752540Y376370D01*
X752535Y376391D01*
X752528Y376453D01*
X750587Y387519D01*
X750584Y387528D01*
X750584Y387537D01*
X750537Y387680D01*
X750493Y387823D01*
X750488Y387831D01*
X750486Y387839D01*
X750405Y387966D01*
X750327Y388094D01*
X750320Y388101D01*
X750315Y388108D01*
X750206Y388211D01*
X750098Y388315D01*
X750090Y388320D01*
X750084Y388326D01*
X749953Y388398D01*
X749822Y388473D01*
X749813Y388475D01*
X749805Y388480D01*
X749661Y388517D01*
X749515Y388557D01*
X749506Y388557D01*
X749497Y388559D01*
X749337Y388569D01*
X717110Y388569D01*
X716992Y388554D01*
X716873Y388547D01*
X716835Y388534D01*
X716794Y388529D01*
X716684Y388486D01*
X716571Y388449D01*
X716536Y388427D01*
X716499Y388412D01*
X716403Y388343D01*
X716302Y388279D01*
X716274Y388249D01*
X716241Y388226D01*
X716165Y388134D01*
X716084Y388047D01*
X716064Y388012D01*
X716039Y387981D01*
X715988Y387873D01*
X715930Y387769D01*
X715920Y387729D01*
X715903Y387693D01*
X715881Y387576D01*
X715851Y387461D01*
X715847Y387401D01*
X715843Y387381D01*
X715845Y387360D01*
X715841Y387300D01*
X715841Y387199D01*
X709530Y387199D01*
X709412Y387184D01*
X709293Y387177D01*
X709255Y387164D01*
X709215Y387159D01*
X709104Y387116D01*
X708991Y387079D01*
X708957Y387057D01*
X708919Y387042D01*
X708823Y386973D01*
X708722Y386909D01*
X708694Y386879D01*
X708662Y386856D01*
X708586Y386764D01*
X708504Y386677D01*
X708485Y386642D01*
X708459Y386611D01*
X708408Y386503D01*
X708351Y386399D01*
X708341Y386359D01*
X708323Y386323D01*
X708303Y386216D01*
X708299Y386246D01*
X708255Y386356D01*
X708219Y386469D01*
X708197Y386504D01*
X708182Y386541D01*
X708112Y386637D01*
X708049Y386738D01*
X708019Y386766D01*
X707995Y386799D01*
X707904Y386875D01*
X707817Y386956D01*
X707782Y386976D01*
X707750Y387001D01*
X707643Y387052D01*
X707538Y387110D01*
X707499Y387120D01*
X707463Y387137D01*
X707346Y387159D01*
X707230Y387189D01*
X707170Y387193D01*
X707150Y387197D01*
X707130Y387195D01*
X707070Y387199D01*
X700759Y387199D01*
X700759Y390112D01*
X700742Y390246D01*
X700730Y390382D01*
X700722Y390404D01*
X700719Y390427D01*
X700670Y390553D01*
X700624Y390682D01*
X700611Y390701D01*
X700602Y390723D01*
X700523Y390833D01*
X700447Y390946D01*
X700429Y390961D01*
X700416Y390980D01*
X700311Y391067D01*
X700209Y391157D01*
X700189Y391168D01*
X700171Y391183D01*
X700048Y391241D01*
X699927Y391303D01*
X699895Y391313D01*
X699883Y391319D01*
X699862Y391323D01*
X699772Y391349D01*
X696259Y392151D01*
X681756Y399135D01*
X679427Y400992D01*
X679403Y401007D01*
X679383Y401026D01*
X679268Y401089D01*
X679156Y401158D01*
X679129Y401166D01*
X679105Y401180D01*
X678977Y401212D01*
X678852Y401251D01*
X678824Y401252D01*
X678797Y401259D01*
X678636Y401269D01*
X644475Y401269D01*
X644389Y401259D01*
X644304Y401258D01*
X644170Y401231D01*
X644159Y401229D01*
X644155Y401228D01*
X644146Y401226D01*
X638971Y399839D01*
X631029Y399839D01*
X625854Y401226D01*
X625769Y401238D01*
X625686Y401259D01*
X625550Y401268D01*
X625539Y401269D01*
X625534Y401269D01*
X625525Y401269D01*
X622700Y401269D01*
X622582Y401254D01*
X622463Y401247D01*
X622425Y401234D01*
X622384Y401229D01*
X622274Y401186D01*
X622161Y401149D01*
X622126Y401127D01*
X622089Y401112D01*
X621993Y401043D01*
X621892Y400979D01*
X621864Y400949D01*
X621831Y400926D01*
X621755Y400834D01*
X621674Y400747D01*
X621654Y400712D01*
X621629Y400681D01*
X621578Y400573D01*
X621520Y400469D01*
X621510Y400429D01*
X621493Y400393D01*
X621471Y400276D01*
X621441Y400161D01*
X621437Y400101D01*
X621433Y400081D01*
X621435Y400060D01*
X621431Y400000D01*
X621431Y397726D01*
X621019Y396733D01*
X621017Y396724D01*
X621012Y396716D01*
X620975Y396571D01*
X620935Y396426D01*
X620935Y396417D01*
X620933Y396408D01*
X620923Y396247D01*
X620923Y183753D01*
X620924Y183743D01*
X620923Y183734D01*
X620944Y183585D01*
X620944Y183581D01*
X620945Y183571D01*
X620946Y183568D01*
X620963Y183437D01*
X620966Y183428D01*
X620967Y183419D01*
X621019Y183267D01*
X621431Y182274D01*
X621431Y180000D01*
X621446Y179882D01*
X621453Y179763D01*
X621466Y179725D01*
X621471Y179684D01*
X621514Y179574D01*
X621551Y179461D01*
X621573Y179426D01*
X621588Y179389D01*
X621657Y179293D01*
X621721Y179192D01*
X621751Y179164D01*
X621774Y179131D01*
X621866Y179056D01*
X621953Y178974D01*
X621988Y178954D01*
X622019Y178929D01*
X622127Y178878D01*
X622231Y178820D01*
X622271Y178810D01*
X622307Y178793D01*
X622424Y178771D01*
X622539Y178741D01*
X622599Y178737D01*
X622619Y178733D01*
X622640Y178735D01*
X622700Y178731D01*
X625525Y178731D01*
X625611Y178742D01*
G37*
%LPC*%
G36*
X728386Y231299D02*
X728386Y231299D01*
X725405Y232534D01*
X723122Y234816D01*
X721887Y237798D01*
X721887Y238017D01*
X721875Y238115D01*
X721872Y238214D01*
X721855Y238273D01*
X721847Y238333D01*
X721811Y238425D01*
X721783Y238520D01*
X721753Y238572D01*
X721730Y238628D01*
X721672Y238708D01*
X721622Y238794D01*
X721556Y238869D01*
X721544Y238886D01*
X721534Y238894D01*
X721516Y238915D01*
X716403Y244028D01*
X716324Y244088D01*
X716252Y244156D01*
X716199Y244185D01*
X716151Y244222D01*
X716060Y244262D01*
X715974Y244310D01*
X715915Y244325D01*
X715860Y244349D01*
X715762Y244364D01*
X715666Y244389D01*
X715566Y244395D01*
X715545Y244399D01*
X715533Y244397D01*
X715505Y244399D01*
X709799Y244399D01*
X709799Y250105D01*
X709787Y250203D01*
X709784Y250302D01*
X709767Y250361D01*
X709759Y250421D01*
X709723Y250513D01*
X709695Y250608D01*
X709665Y250660D01*
X709642Y250716D01*
X709584Y250796D01*
X709534Y250882D01*
X709468Y250957D01*
X709456Y250974D01*
X709446Y250982D01*
X709428Y251003D01*
X697130Y263300D01*
X697036Y263373D01*
X696947Y263452D01*
X696911Y263470D01*
X696879Y263495D01*
X696769Y263542D01*
X696664Y263596D01*
X696624Y263605D01*
X696587Y263621D01*
X696469Y263640D01*
X696353Y263666D01*
X696313Y263665D01*
X696273Y263671D01*
X696154Y263660D01*
X696035Y263656D01*
X695997Y263645D01*
X695956Y263641D01*
X695844Y263601D01*
X695730Y263568D01*
X695695Y263547D01*
X695657Y263534D01*
X695558Y263467D01*
X695456Y263406D01*
X695411Y263367D01*
X695394Y263355D01*
X695380Y263340D01*
X695335Y263300D01*
X694128Y262093D01*
X692261Y261319D01*
X672239Y261319D01*
X670372Y262093D01*
X668943Y263522D01*
X668169Y265389D01*
X668169Y279411D01*
X668943Y281278D01*
X670372Y282707D01*
X672239Y283481D01*
X683104Y283481D01*
X683241Y283498D01*
X683380Y283511D01*
X683399Y283518D01*
X683420Y283521D01*
X683548Y283572D01*
X683680Y283619D01*
X683696Y283630D01*
X683715Y283638D01*
X683828Y283719D01*
X683943Y283797D01*
X683956Y283813D01*
X683973Y283824D01*
X684061Y283932D01*
X684153Y284036D01*
X684162Y284054D01*
X684175Y284069D01*
X684235Y284195D01*
X684298Y284319D01*
X684302Y284339D01*
X684311Y284357D01*
X684337Y284493D01*
X684367Y284629D01*
X684367Y284650D01*
X684371Y284669D01*
X684362Y284808D01*
X684358Y284947D01*
X684352Y284967D01*
X684351Y284987D01*
X684308Y285119D01*
X684269Y285253D01*
X684259Y285270D01*
X684253Y285289D01*
X684179Y285407D01*
X684108Y285527D01*
X684089Y285548D01*
X684083Y285558D01*
X684068Y285572D01*
X684001Y285647D01*
X680971Y288678D01*
X680893Y288738D01*
X680821Y288806D01*
X680768Y288835D01*
X680720Y288872D01*
X680629Y288912D01*
X680543Y288960D01*
X680484Y288975D01*
X680428Y288999D01*
X680330Y289014D01*
X680235Y289039D01*
X680135Y289045D01*
X680114Y289049D01*
X680102Y289047D01*
X680074Y289049D01*
X659410Y289049D01*
X659312Y289037D01*
X659213Y289034D01*
X659155Y289017D01*
X659095Y289009D01*
X659003Y288973D01*
X658908Y288945D01*
X658855Y288915D01*
X658799Y288892D01*
X658719Y288834D01*
X658634Y288784D01*
X658558Y288718D01*
X658542Y288706D01*
X658534Y288696D01*
X658513Y288678D01*
X657962Y288127D01*
X657902Y288049D01*
X657834Y287977D01*
X657805Y287924D01*
X657768Y287876D01*
X657728Y287785D01*
X657680Y287698D01*
X657665Y287640D01*
X657641Y287584D01*
X657626Y287486D01*
X657601Y287390D01*
X657595Y287290D01*
X657591Y287270D01*
X657593Y287258D01*
X657591Y287230D01*
X657591Y286899D01*
X647530Y286899D01*
X647412Y286884D01*
X647293Y286877D01*
X647286Y286875D01*
X647230Y286889D01*
X647170Y286893D01*
X647150Y286897D01*
X647130Y286895D01*
X647070Y286899D01*
X637009Y286899D01*
X637009Y287230D01*
X636997Y287328D01*
X636994Y287427D01*
X636977Y287485D01*
X636969Y287545D01*
X636933Y287637D01*
X636905Y287732D01*
X636875Y287785D01*
X636852Y287841D01*
X636794Y287921D01*
X636744Y288006D01*
X636678Y288082D01*
X636666Y288098D01*
X636656Y288106D01*
X636638Y288127D01*
X635243Y289522D01*
X634469Y291389D01*
X634469Y299411D01*
X634678Y299914D01*
X634704Y300010D01*
X634739Y300102D01*
X634746Y300163D01*
X634762Y300221D01*
X634763Y300320D01*
X634774Y300419D01*
X634766Y300478D01*
X634767Y300539D01*
X634744Y300635D01*
X634730Y300733D01*
X634698Y300828D01*
X634693Y300848D01*
X634687Y300859D01*
X634678Y300886D01*
X634469Y301389D01*
X634469Y309411D01*
X634678Y309914D01*
X634704Y310010D01*
X634739Y310102D01*
X634746Y310163D01*
X634762Y310221D01*
X634763Y310320D01*
X634774Y310419D01*
X634766Y310478D01*
X634767Y310539D01*
X634744Y310635D01*
X634730Y310733D01*
X634698Y310828D01*
X634693Y310848D01*
X634687Y310859D01*
X634678Y310886D01*
X634469Y311389D01*
X634469Y319411D01*
X634678Y319914D01*
X634704Y320010D01*
X634739Y320102D01*
X634746Y320163D01*
X634762Y320221D01*
X634763Y320320D01*
X634774Y320419D01*
X634766Y320478D01*
X634767Y320539D01*
X634744Y320635D01*
X634730Y320733D01*
X634698Y320828D01*
X634693Y320848D01*
X634687Y320859D01*
X634678Y320886D01*
X634469Y321389D01*
X634469Y329411D01*
X634678Y329914D01*
X634704Y330010D01*
X634739Y330102D01*
X634746Y330163D01*
X634762Y330221D01*
X634763Y330320D01*
X634774Y330419D01*
X634766Y330478D01*
X634767Y330539D01*
X634744Y330635D01*
X634730Y330733D01*
X634698Y330828D01*
X634693Y330848D01*
X634687Y330859D01*
X634678Y330886D01*
X634469Y331389D01*
X634469Y339411D01*
X635243Y341278D01*
X636672Y342707D01*
X638539Y343481D01*
X645874Y343481D01*
X645972Y343493D01*
X646071Y343496D01*
X646129Y343513D01*
X646189Y343521D01*
X646281Y343557D01*
X646376Y343585D01*
X646429Y343615D01*
X646485Y343638D01*
X646565Y343696D01*
X646650Y343746D01*
X646726Y343812D01*
X646742Y343824D01*
X646750Y343834D01*
X646771Y343852D01*
X660178Y357259D01*
X660238Y357337D01*
X660306Y357409D01*
X660335Y357462D01*
X660372Y357510D01*
X660412Y357601D01*
X660460Y357688D01*
X660475Y357746D01*
X660499Y357802D01*
X660514Y357900D01*
X660539Y357996D01*
X660545Y358096D01*
X660549Y358116D01*
X660547Y358128D01*
X660549Y358156D01*
X660549Y358294D01*
X661516Y360628D01*
X673972Y373084D01*
X676306Y374051D01*
X697305Y374051D01*
X697334Y374054D01*
X697364Y374052D01*
X697492Y374074D01*
X697620Y374091D01*
X697648Y374101D01*
X697677Y374106D01*
X697796Y374160D01*
X697916Y374208D01*
X697940Y374225D01*
X697967Y374237D01*
X698068Y374318D01*
X698174Y374394D01*
X698192Y374417D01*
X698215Y374436D01*
X698294Y374539D01*
X698376Y374639D01*
X698389Y374666D01*
X698407Y374690D01*
X698478Y374834D01*
X698993Y376078D01*
X700457Y377542D01*
X700522Y377626D01*
X700593Y377704D01*
X700619Y377751D01*
X700652Y377793D01*
X700694Y377890D01*
X700744Y377984D01*
X700757Y378036D01*
X700778Y378085D01*
X700795Y378190D01*
X700820Y378292D01*
X700820Y378346D01*
X700828Y378399D01*
X700818Y378505D01*
X700817Y378610D01*
X700800Y378694D01*
X700798Y378716D01*
X700793Y378731D01*
X700785Y378768D01*
X700759Y378866D01*
X700759Y382201D01*
X707070Y382201D01*
X707188Y382216D01*
X707307Y382223D01*
X707345Y382235D01*
X707385Y382241D01*
X707496Y382284D01*
X707609Y382321D01*
X707643Y382343D01*
X707681Y382358D01*
X707777Y382427D01*
X707878Y382491D01*
X707906Y382521D01*
X707938Y382544D01*
X708014Y382636D01*
X708096Y382723D01*
X708115Y382758D01*
X708141Y382789D01*
X708192Y382897D01*
X708249Y383001D01*
X708259Y383041D01*
X708277Y383077D01*
X708297Y383184D01*
X708301Y383154D01*
X708345Y383044D01*
X708381Y382931D01*
X708403Y382896D01*
X708418Y382859D01*
X708488Y382762D01*
X708551Y382662D01*
X708581Y382634D01*
X708605Y382601D01*
X708696Y382525D01*
X708783Y382444D01*
X708818Y382424D01*
X708850Y382399D01*
X708957Y382348D01*
X709062Y382290D01*
X709101Y382280D01*
X709137Y382263D01*
X709254Y382241D01*
X709370Y382211D01*
X709430Y382207D01*
X709450Y382203D01*
X709470Y382205D01*
X709530Y382201D01*
X715841Y382201D01*
X715841Y378866D01*
X715815Y378768D01*
X715800Y378663D01*
X715777Y378560D01*
X715779Y378507D01*
X715771Y378453D01*
X715784Y378348D01*
X715787Y378242D01*
X715802Y378191D01*
X715808Y378137D01*
X715846Y378038D01*
X715875Y377937D01*
X715902Y377891D01*
X715922Y377840D01*
X715983Y377754D01*
X716037Y377663D01*
X716093Y377599D01*
X716106Y377581D01*
X716118Y377571D01*
X716143Y377542D01*
X717607Y376078D01*
X718381Y374211D01*
X718381Y369382D01*
X718396Y369264D01*
X718403Y369145D01*
X718416Y369107D01*
X718421Y369066D01*
X718464Y368956D01*
X718501Y368843D01*
X718523Y368808D01*
X718538Y368771D01*
X718607Y368675D01*
X718671Y368574D01*
X718701Y368546D01*
X718724Y368513D01*
X718816Y368437D01*
X718903Y368356D01*
X718938Y368336D01*
X718969Y368311D01*
X719077Y368260D01*
X719181Y368202D01*
X719221Y368192D01*
X719257Y368175D01*
X719374Y368153D01*
X719489Y368123D01*
X719549Y368119D01*
X719569Y368115D01*
X719590Y368117D01*
X719650Y368113D01*
X721614Y368113D01*
X724595Y366878D01*
X726878Y364595D01*
X728113Y361614D01*
X728113Y358386D01*
X726878Y355405D01*
X724595Y353122D01*
X721614Y351887D01*
X718386Y351887D01*
X715405Y353122D01*
X715156Y353371D01*
X715148Y353377D01*
X715143Y353384D01*
X715023Y353474D01*
X714904Y353566D01*
X714896Y353570D01*
X714888Y353575D01*
X714744Y353646D01*
X712403Y354616D01*
X710271Y356748D01*
X710193Y356808D01*
X710121Y356876D01*
X710068Y356905D01*
X710020Y356942D01*
X709929Y356982D01*
X709842Y357030D01*
X709784Y357045D01*
X709728Y357069D01*
X709630Y357084D01*
X709534Y357109D01*
X709434Y357115D01*
X709414Y357119D01*
X709402Y357117D01*
X709374Y357119D01*
X702289Y357119D01*
X700422Y357893D01*
X698993Y359322D01*
X698478Y360566D01*
X698463Y360591D01*
X698454Y360619D01*
X698384Y360729D01*
X698320Y360842D01*
X698300Y360863D01*
X698284Y360888D01*
X698189Y360977D01*
X698099Y361070D01*
X698074Y361086D01*
X698052Y361106D01*
X697938Y361169D01*
X697828Y361237D01*
X697799Y361245D01*
X697774Y361260D01*
X697648Y361292D01*
X697524Y361330D01*
X697494Y361332D01*
X697466Y361339D01*
X697305Y361349D01*
X694131Y361349D01*
X694061Y361341D01*
X693991Y361342D01*
X693904Y361321D01*
X693815Y361309D01*
X693750Y361284D01*
X693682Y361267D01*
X693603Y361225D01*
X693519Y361192D01*
X693463Y361151D01*
X693401Y361119D01*
X693335Y361058D01*
X693262Y361006D01*
X693217Y360952D01*
X693166Y360905D01*
X693116Y360830D01*
X693059Y360761D01*
X693029Y360697D01*
X692991Y360639D01*
X692962Y360554D01*
X692924Y360473D01*
X692911Y360404D01*
X692888Y360338D01*
X692881Y360249D01*
X692864Y360161D01*
X692868Y360091D01*
X692863Y360021D01*
X692878Y359933D01*
X692884Y359843D01*
X692905Y359777D01*
X692917Y359708D01*
X692954Y359626D01*
X692982Y359541D01*
X693019Y359482D01*
X693048Y359418D01*
X693104Y359348D01*
X693152Y359272D01*
X693203Y359224D01*
X693246Y359170D01*
X693318Y359116D01*
X693383Y359054D01*
X693445Y359020D01*
X693500Y358978D01*
X693645Y358907D01*
X694128Y358707D01*
X695557Y357278D01*
X696331Y355411D01*
X696331Y341389D01*
X695557Y339522D01*
X694652Y338616D01*
X694579Y338523D01*
X694500Y338433D01*
X694482Y338397D01*
X694457Y338365D01*
X694409Y338256D01*
X694355Y338150D01*
X694346Y338110D01*
X694330Y338073D01*
X694312Y337956D01*
X694286Y337840D01*
X694287Y337799D01*
X694281Y337759D01*
X694292Y337641D01*
X694295Y337522D01*
X694307Y337483D01*
X694310Y337443D01*
X694351Y337330D01*
X694384Y337216D01*
X694404Y337181D01*
X694418Y337143D01*
X694485Y337045D01*
X694545Y336942D01*
X694585Y336897D01*
X694597Y336880D01*
X694612Y336867D01*
X694652Y336821D01*
X696878Y334595D01*
X698113Y331614D01*
X698113Y328386D01*
X697997Y328106D01*
X697983Y328058D01*
X697962Y328013D01*
X697942Y327905D01*
X697913Y327799D01*
X697912Y327749D01*
X697902Y327700D01*
X697909Y327591D01*
X697908Y327481D01*
X697919Y327433D01*
X697922Y327383D01*
X697956Y327279D01*
X697982Y327172D01*
X698005Y327128D01*
X698020Y327081D01*
X698079Y326988D01*
X698130Y326891D01*
X698164Y326854D01*
X698190Y326812D01*
X698271Y326736D01*
X698344Y326655D01*
X698386Y326628D01*
X698422Y326594D01*
X698518Y326541D01*
X698610Y326481D01*
X698657Y326464D01*
X698701Y326440D01*
X698807Y326413D01*
X698911Y326377D01*
X698960Y326373D01*
X699008Y326361D01*
X699169Y326351D01*
X724352Y326351D01*
X724450Y326363D01*
X724549Y326366D01*
X724607Y326383D01*
X724667Y326391D01*
X724759Y326427D01*
X724855Y326455D01*
X724907Y326485D01*
X724963Y326508D01*
X725043Y326566D01*
X725128Y326616D01*
X725204Y326682D01*
X725220Y326694D01*
X725228Y326704D01*
X725249Y326722D01*
X725405Y326878D01*
X728386Y328113D01*
X731614Y328113D01*
X734595Y326878D01*
X736878Y324595D01*
X738113Y321614D01*
X738113Y318386D01*
X736878Y315405D01*
X734595Y313122D01*
X731614Y311887D01*
X728386Y311887D01*
X725405Y313122D01*
X725249Y313278D01*
X725171Y313338D01*
X725099Y313406D01*
X725046Y313435D01*
X724998Y313472D01*
X724907Y313512D01*
X724820Y313560D01*
X724762Y313575D01*
X724706Y313599D01*
X724608Y313614D01*
X724513Y313639D01*
X724412Y313645D01*
X724392Y313649D01*
X724380Y313647D01*
X724352Y313649D01*
X664787Y313649D01*
X664689Y313637D01*
X664591Y313634D01*
X664532Y313617D01*
X664471Y313609D01*
X664380Y313573D01*
X664286Y313546D01*
X664233Y313515D01*
X664175Y313492D01*
X664096Y313435D01*
X664011Y313385D01*
X663934Y313317D01*
X663918Y313306D01*
X663912Y313299D01*
X663908Y313296D01*
X663904Y313291D01*
X663890Y313279D01*
X663880Y313269D01*
X663795Y313159D01*
X663705Y313051D01*
X663697Y313033D01*
X663685Y313018D01*
X663629Y312889D01*
X663570Y312763D01*
X663566Y312744D01*
X663558Y312726D01*
X663536Y312588D01*
X663510Y312450D01*
X663511Y312431D01*
X663508Y312412D01*
X663521Y312273D01*
X663530Y312133D01*
X663536Y312115D01*
X663537Y312096D01*
X663584Y311964D01*
X663628Y311831D01*
X663638Y311814D01*
X663644Y311796D01*
X663723Y311680D01*
X663798Y311562D01*
X663812Y311549D01*
X663823Y311533D01*
X663927Y311440D01*
X664029Y311344D01*
X664046Y311335D01*
X664061Y311322D01*
X664185Y311258D01*
X664308Y311190D01*
X664326Y311186D01*
X664344Y311177D01*
X664481Y311146D01*
X664616Y311111D01*
X664642Y311109D01*
X664654Y311107D01*
X664674Y311107D01*
X664777Y311101D01*
X685920Y311101D01*
X688254Y310134D01*
X690679Y307709D01*
X690758Y307648D01*
X690830Y307580D01*
X690883Y307551D01*
X690931Y307514D01*
X691022Y307474D01*
X691108Y307426D01*
X691167Y307411D01*
X691222Y307387D01*
X691320Y307372D01*
X691416Y307347D01*
X691516Y307341D01*
X691537Y307337D01*
X691549Y307339D01*
X691577Y307337D01*
X723366Y307337D01*
X723464Y307349D01*
X723563Y307352D01*
X723621Y307369D01*
X723681Y307377D01*
X723773Y307413D01*
X723868Y307441D01*
X723921Y307471D01*
X723977Y307494D01*
X724057Y307552D01*
X724142Y307602D01*
X724218Y307669D01*
X724234Y307681D01*
X724242Y307690D01*
X724263Y307709D01*
X724418Y307864D01*
X727400Y309099D01*
X730628Y309099D01*
X733609Y307864D01*
X735892Y305582D01*
X737127Y302600D01*
X737127Y299372D01*
X735892Y296391D01*
X733609Y294108D01*
X730628Y292873D01*
X727400Y292873D01*
X724418Y294108D01*
X724263Y294264D01*
X724185Y294324D01*
X724113Y294392D01*
X724060Y294421D01*
X724012Y294459D01*
X723921Y294498D01*
X723834Y294546D01*
X723776Y294561D01*
X723720Y294585D01*
X723622Y294600D01*
X723526Y294625D01*
X723426Y294631D01*
X723406Y294635D01*
X723394Y294634D01*
X723366Y294635D01*
X696040Y294635D01*
X695903Y294618D01*
X695764Y294605D01*
X695745Y294598D01*
X695725Y294595D01*
X695596Y294544D01*
X695465Y294497D01*
X695448Y294486D01*
X695429Y294478D01*
X695317Y294397D01*
X695202Y294319D01*
X695188Y294303D01*
X695172Y294292D01*
X695083Y294185D01*
X694991Y294080D01*
X694982Y294062D01*
X694969Y294047D01*
X694910Y293921D01*
X694847Y293797D01*
X694842Y293777D01*
X694834Y293759D01*
X694807Y293623D01*
X694777Y293487D01*
X694778Y293466D01*
X694774Y293447D01*
X694782Y293308D01*
X694787Y293169D01*
X694792Y293149D01*
X694794Y293129D01*
X694836Y292997D01*
X694875Y292863D01*
X694885Y292846D01*
X694892Y292827D01*
X694966Y292709D01*
X695037Y292589D01*
X695055Y292568D01*
X695062Y292558D01*
X695077Y292544D01*
X695143Y292469D01*
X702984Y284628D01*
X703951Y282294D01*
X703951Y274968D01*
X703963Y274870D01*
X703966Y274771D01*
X703983Y274712D01*
X703991Y274652D01*
X704027Y274560D01*
X704055Y274465D01*
X704085Y274413D01*
X704108Y274357D01*
X704166Y274277D01*
X704216Y274191D01*
X704282Y274116D01*
X704294Y274099D01*
X704304Y274092D01*
X704322Y274070D01*
X730497Y247896D01*
X730575Y247835D01*
X730647Y247767D01*
X730700Y247738D01*
X730748Y247701D01*
X730839Y247662D01*
X730926Y247614D01*
X730984Y247599D01*
X731040Y247575D01*
X731138Y247559D01*
X731234Y247534D01*
X731334Y247528D01*
X731354Y247525D01*
X731366Y247526D01*
X731394Y247524D01*
X731614Y247524D01*
X734595Y246289D01*
X736878Y244007D01*
X738113Y241025D01*
X738113Y237798D01*
X736878Y234816D01*
X734595Y232534D01*
X731614Y231299D01*
X728386Y231299D01*
G37*
%LPD*%
%LPC*%
G36*
X708386Y201887D02*
X708386Y201887D01*
X705405Y203122D01*
X703122Y205405D01*
X701887Y208386D01*
X701887Y208920D01*
X701886Y208929D01*
X701887Y208938D01*
X701866Y209087D01*
X701847Y209235D01*
X701844Y209244D01*
X701843Y209253D01*
X701791Y209405D01*
X700949Y211437D01*
X700949Y213612D01*
X700946Y213641D01*
X700948Y213671D01*
X700926Y213799D01*
X700909Y213928D01*
X700899Y213955D01*
X700894Y213984D01*
X700840Y214103D01*
X700792Y214223D01*
X700775Y214247D01*
X700763Y214274D01*
X700682Y214376D01*
X700606Y214481D01*
X700583Y214500D01*
X700564Y214523D01*
X700461Y214600D01*
X700361Y214683D01*
X700334Y214696D01*
X700310Y214714D01*
X700166Y214785D01*
X699422Y215093D01*
X697993Y216522D01*
X697219Y218389D01*
X697219Y231411D01*
X697993Y233278D01*
X699457Y234742D01*
X699522Y234826D01*
X699593Y234904D01*
X699619Y234951D01*
X699652Y234993D01*
X699694Y235090D01*
X699744Y235184D01*
X699757Y235236D01*
X699778Y235285D01*
X699795Y235390D01*
X699820Y235492D01*
X699820Y235546D01*
X699828Y235599D01*
X699818Y235705D01*
X699817Y235810D01*
X699800Y235894D01*
X699798Y235916D01*
X699793Y235931D01*
X699785Y235968D01*
X699759Y236066D01*
X699759Y239401D01*
X706070Y239401D01*
X706188Y239416D01*
X706307Y239423D01*
X706345Y239435D01*
X706385Y239441D01*
X706496Y239484D01*
X706609Y239521D01*
X706643Y239543D01*
X706681Y239558D01*
X706777Y239627D01*
X706878Y239691D01*
X706906Y239721D01*
X706938Y239744D01*
X707014Y239836D01*
X707096Y239923D01*
X707115Y239958D01*
X707141Y239989D01*
X707192Y240097D01*
X707249Y240201D01*
X707259Y240241D01*
X707277Y240277D01*
X707297Y240384D01*
X707301Y240354D01*
X707345Y240243D01*
X707381Y240131D01*
X707403Y240096D01*
X707418Y240059D01*
X707488Y239962D01*
X707551Y239862D01*
X707581Y239834D01*
X707605Y239801D01*
X707696Y239725D01*
X707783Y239644D01*
X707818Y239624D01*
X707850Y239599D01*
X707957Y239548D01*
X708062Y239490D01*
X708101Y239480D01*
X708137Y239463D01*
X708254Y239441D01*
X708370Y239411D01*
X708430Y239407D01*
X708450Y239403D01*
X708470Y239405D01*
X708530Y239401D01*
X714841Y239401D01*
X714841Y236066D01*
X714815Y235968D01*
X714800Y235863D01*
X714777Y235760D01*
X714779Y235707D01*
X714771Y235653D01*
X714784Y235548D01*
X714787Y235442D01*
X714802Y235391D01*
X714808Y235337D01*
X714846Y235238D01*
X714875Y235137D01*
X714902Y235091D01*
X714922Y235040D01*
X714983Y234954D01*
X715037Y234863D01*
X715093Y234799D01*
X715106Y234781D01*
X715118Y234771D01*
X715143Y234742D01*
X716607Y233278D01*
X717381Y231411D01*
X717381Y218389D01*
X716591Y216483D01*
X716525Y216408D01*
X716507Y216372D01*
X716482Y216340D01*
X716435Y216231D01*
X716380Y216125D01*
X716371Y216085D01*
X716355Y216048D01*
X716337Y215931D01*
X716311Y215815D01*
X716312Y215774D01*
X716306Y215734D01*
X716317Y215616D01*
X716320Y215497D01*
X716332Y215458D01*
X716335Y215418D01*
X716376Y215306D01*
X716409Y215191D01*
X716429Y215156D01*
X716443Y215118D01*
X716510Y215020D01*
X716570Y214917D01*
X716610Y214872D01*
X716621Y214855D01*
X716637Y214842D01*
X716677Y214796D01*
X716878Y214595D01*
X718113Y211614D01*
X718113Y208386D01*
X716878Y205405D01*
X714595Y203122D01*
X711614Y201887D01*
X708386Y201887D01*
G37*
%LPD*%
%LPC*%
G36*
X648799Y279859D02*
X648799Y279859D01*
X648799Y283901D01*
X657591Y283901D01*
X657591Y282066D01*
X657418Y281419D01*
X657083Y280840D01*
X656610Y280367D01*
X656031Y280032D01*
X655384Y279859D01*
X648799Y279859D01*
G37*
%LPD*%
%LPC*%
G36*
X639216Y279859D02*
X639216Y279859D01*
X638569Y280032D01*
X637990Y280367D01*
X637517Y280840D01*
X637182Y281419D01*
X637009Y282066D01*
X637009Y283901D01*
X645801Y283901D01*
X645801Y279859D01*
X639216Y279859D01*
G37*
%LPD*%
%LPC*%
G36*
X699759Y244399D02*
X699759Y244399D01*
X699759Y247734D01*
X699932Y248381D01*
X700267Y248960D01*
X700740Y249433D01*
X701319Y249768D01*
X701966Y249941D01*
X704801Y249941D01*
X704801Y244399D01*
X699759Y244399D01*
G37*
%LPD*%
D10*
X707300Y224900D03*
X707300Y241900D03*
X708300Y367700D03*
X708300Y384700D03*
D11*
X647300Y335400D03*
X647300Y325400D03*
X647300Y315400D03*
X647300Y305400D03*
X647300Y295400D03*
X647300Y285400D03*
D12*
X682250Y348400D03*
X682250Y272400D03*
D13*
X625000Y285000D03*
D14*
X625400Y285400D02*
X647300Y285400D01*
X625400Y285400D02*
X625000Y285000D01*
X708300Y384700D02*
X706954Y386046D01*
X700000Y386046D01*
D13*
X700000Y386046D03*
D14*
X690000Y250000D02*
X707300Y241900D01*
D13*
X690000Y250000D03*
X740000Y310000D03*
D14*
X755285Y256503D01*
X760000Y250000D01*
D13*
X760000Y250000D03*
D14*
X666900Y355000D02*
X647300Y335400D01*
X666900Y355000D02*
X666900Y357030D01*
X677570Y367700D01*
X708300Y367700D01*
X716000Y360000D01*
X720000Y360000D01*
D13*
X720000Y360000D03*
D14*
X707300Y224900D02*
X707300Y212700D01*
X710000Y210000D01*
D13*
X710000Y210000D03*
D14*
X647300Y315400D02*
X647950Y316050D01*
X657680Y316050D01*
X661630Y320000D02*
X730000Y320000D01*
X661630Y320000D02*
X657680Y316050D01*
D13*
X730000Y320000D03*
X729014Y300986D03*
D14*
X688421Y300986D01*
X647950Y304750D02*
X647300Y305400D01*
X684657Y304750D02*
X688421Y300986D01*
X684657Y304750D02*
X647950Y304750D01*
D13*
X730000Y239412D03*
D14*
X697600Y271812D02*
X697600Y281030D01*
X697600Y271812D02*
X730000Y239412D01*
X683230Y295400D02*
X647300Y295400D01*
X683230Y295400D02*
X697600Y281030D01*
D13*
X690000Y330000D03*
D14*
X670000Y330000D01*
X647700Y325000D02*
X647300Y325400D01*
X647700Y325000D02*
X655000Y325000D01*
X647300Y325400D02*
X665400Y325400D01*
X670000Y330000D01*
M02*
