G04 EAGLE Gerber X2 export*
%TF.Part,Single*%
%TF.FileFunction,Copper,L1,Top,Mixed*%
%TF.FilePolarity,Positive*%
%TF.GenerationSoftware,Autodesk,EAGLE,9.0.0*%
%TF.CreationDate,2018-07-15T17:58:39Z*%
G75*
%MOMM*%
%FSLAX34Y34*%
%LPD*%
%AMOC8*
5,1,8,0,0,1.08239X$1,22.5*%
G01*
%ADD10R,1.000000X1.100000*%
%ADD11R,1.000000X1.400000*%
%ADD12C,0.606400*%
%ADD13C,0.254000*%

G36*
X627504Y179241D02*
X627504Y179241D01*
X627519Y179239D01*
X627685Y179265D01*
X631029Y180161D01*
X638971Y180161D01*
X642315Y179265D01*
X642330Y179263D01*
X642345Y179257D01*
X642512Y179239D01*
X679451Y179239D01*
X679499Y179247D01*
X679548Y179245D01*
X679620Y179266D01*
X679693Y179279D01*
X679737Y179301D01*
X679783Y179315D01*
X679890Y179382D01*
X679911Y179394D01*
X679916Y179399D01*
X679925Y179405D01*
X681756Y180865D01*
X696259Y187849D01*
X711952Y191431D01*
X717750Y191431D01*
X717821Y191442D01*
X717893Y191444D01*
X717942Y191462D01*
X717993Y191470D01*
X718056Y191504D01*
X718124Y191529D01*
X718164Y191561D01*
X718210Y191586D01*
X718260Y191638D01*
X718316Y191682D01*
X718344Y191726D01*
X718380Y191764D01*
X718410Y191829D01*
X718449Y191889D01*
X718461Y191940D01*
X718483Y191987D01*
X718491Y192058D01*
X718509Y192128D01*
X718505Y192180D01*
X718510Y192231D01*
X718495Y192302D01*
X718490Y192373D01*
X718469Y192421D01*
X718458Y192472D01*
X718421Y192533D01*
X718393Y192599D01*
X718348Y192655D01*
X718332Y192683D01*
X718314Y192698D01*
X718288Y192730D01*
X717809Y193210D01*
X709354Y201664D01*
X709280Y201717D01*
X709211Y201777D01*
X709181Y201789D01*
X709155Y201808D01*
X709068Y201835D01*
X708983Y201869D01*
X708942Y201873D01*
X708920Y201880D01*
X708887Y201879D01*
X708816Y201887D01*
X708386Y201887D01*
X705404Y203122D01*
X703122Y205404D01*
X701887Y208386D01*
X701887Y211614D01*
X703122Y214596D01*
X705404Y216878D01*
X708386Y218113D01*
X711614Y218113D01*
X714596Y216878D01*
X716878Y214596D01*
X718113Y211614D01*
X718113Y211184D01*
X718114Y211175D01*
X718114Y211172D01*
X718118Y211154D01*
X718127Y211094D01*
X718135Y211003D01*
X718147Y210973D01*
X718152Y210941D01*
X718195Y210861D01*
X718231Y210777D01*
X718257Y210744D01*
X718268Y210724D01*
X718291Y210702D01*
X718336Y210646D01*
X721760Y207222D01*
X721776Y207210D01*
X721788Y207194D01*
X721876Y207138D01*
X721959Y207078D01*
X721978Y207072D01*
X721995Y207061D01*
X722096Y207036D01*
X722195Y207006D01*
X722214Y207006D01*
X722234Y207001D01*
X722337Y207009D01*
X722440Y207012D01*
X722459Y207019D01*
X722479Y207020D01*
X722574Y207061D01*
X722671Y207096D01*
X722687Y207109D01*
X722705Y207117D01*
X722836Y207222D01*
X722897Y207282D01*
X722908Y207284D01*
X722927Y207282D01*
X723029Y207304D01*
X723131Y207320D01*
X723148Y207330D01*
X723168Y207334D01*
X723257Y207387D01*
X723348Y207436D01*
X723362Y207450D01*
X723379Y207460D01*
X723446Y207539D01*
X723518Y207614D01*
X723526Y207632D01*
X723539Y207647D01*
X723578Y207743D01*
X723621Y207837D01*
X723623Y207857D01*
X723631Y207875D01*
X723649Y208042D01*
X723649Y210310D01*
X723644Y210341D01*
X723647Y210373D01*
X723624Y210462D01*
X723610Y210553D01*
X723595Y210581D01*
X723587Y210612D01*
X723504Y210757D01*
X722015Y212806D01*
X723297Y220896D01*
X723296Y220924D01*
X723303Y220951D01*
X723296Y221046D01*
X723295Y221142D01*
X723286Y221168D01*
X723284Y221196D01*
X723247Y221284D01*
X723216Y221375D01*
X723199Y221397D01*
X723188Y221422D01*
X723083Y221553D01*
X704316Y240320D01*
X703349Y242654D01*
X703349Y259458D01*
X703346Y259478D01*
X703348Y259497D01*
X703326Y259599D01*
X703310Y259701D01*
X703300Y259718D01*
X703296Y259738D01*
X703243Y259827D01*
X703194Y259918D01*
X703180Y259932D01*
X703170Y259949D01*
X703091Y260016D01*
X703016Y260088D01*
X702998Y260096D01*
X702983Y260109D01*
X702887Y260148D01*
X702793Y260191D01*
X702773Y260193D01*
X702755Y260201D01*
X702596Y260218D01*
X699619Y263195D01*
X699619Y278405D01*
X702064Y280849D01*
X702104Y280904D01*
X702151Y280953D01*
X702175Y281004D01*
X702208Y281049D01*
X702228Y281114D01*
X702257Y281175D01*
X702264Y281231D01*
X702280Y281284D01*
X702278Y281352D01*
X702287Y281419D01*
X702275Y281497D01*
X702274Y281530D01*
X702267Y281550D01*
X702261Y281585D01*
X702159Y281966D01*
X702159Y286277D01*
X708938Y286277D01*
X708958Y286280D01*
X708977Y286278D01*
X709079Y286300D01*
X709181Y286317D01*
X709198Y286326D01*
X709218Y286330D01*
X709307Y286383D01*
X709398Y286432D01*
X709412Y286446D01*
X709429Y286456D01*
X709496Y286535D01*
X709567Y286610D01*
X709576Y286628D01*
X709589Y286643D01*
X709628Y286739D01*
X709671Y286833D01*
X709673Y286853D01*
X709681Y286871D01*
X709699Y287038D01*
X709699Y287801D01*
X710462Y287801D01*
X710482Y287804D01*
X710501Y287802D01*
X710603Y287824D01*
X710705Y287841D01*
X710722Y287850D01*
X710742Y287854D01*
X710831Y287907D01*
X710922Y287956D01*
X710936Y287970D01*
X710953Y287980D01*
X711020Y288059D01*
X711091Y288134D01*
X711100Y288152D01*
X711113Y288167D01*
X711152Y288263D01*
X711195Y288357D01*
X711197Y288377D01*
X711205Y288395D01*
X711223Y288562D01*
X711223Y295841D01*
X712888Y295841D01*
X712908Y295844D01*
X712927Y295842D01*
X713029Y295864D01*
X713131Y295880D01*
X713148Y295890D01*
X713168Y295894D01*
X713257Y295947D01*
X713348Y295996D01*
X713362Y296010D01*
X713379Y296020D01*
X713446Y296099D01*
X713518Y296174D01*
X713526Y296192D01*
X713539Y296207D01*
X713578Y296303D01*
X713621Y296397D01*
X713623Y296417D01*
X713631Y296435D01*
X713649Y296602D01*
X713649Y300158D01*
X713646Y300178D01*
X713648Y300197D01*
X713626Y300299D01*
X713610Y300401D01*
X713600Y300418D01*
X713596Y300438D01*
X713543Y300527D01*
X713494Y300618D01*
X713480Y300632D01*
X713470Y300649D01*
X713391Y300716D01*
X713316Y300788D01*
X713298Y300796D01*
X713283Y300809D01*
X713187Y300848D01*
X713093Y300891D01*
X713073Y300893D01*
X713055Y300901D01*
X712888Y300919D01*
X702895Y300919D01*
X699919Y303895D01*
X699919Y309804D01*
X699905Y309894D01*
X699897Y309985D01*
X699885Y310015D01*
X699880Y310047D01*
X699837Y310127D01*
X699801Y310211D01*
X699775Y310243D01*
X699764Y310264D01*
X699741Y310286D01*
X699696Y310342D01*
X693266Y316772D01*
X692631Y318306D01*
X692596Y318362D01*
X692571Y318422D01*
X692519Y318487D01*
X692501Y318515D01*
X692486Y318527D01*
X692466Y318553D01*
X689354Y321664D01*
X689280Y321717D01*
X689211Y321777D01*
X689181Y321789D01*
X689155Y321808D01*
X689067Y321835D01*
X688983Y321869D01*
X688942Y321873D01*
X688920Y321880D01*
X688887Y321879D01*
X688816Y321887D01*
X688386Y321887D01*
X685404Y323122D01*
X683122Y325404D01*
X681887Y328386D01*
X681887Y331614D01*
X683122Y334596D01*
X685404Y336878D01*
X688386Y338113D01*
X691614Y338113D01*
X694596Y336878D01*
X696878Y334596D01*
X698113Y331614D01*
X698113Y331184D01*
X698127Y331094D01*
X698135Y331003D01*
X698147Y330973D01*
X698152Y330941D01*
X698195Y330861D01*
X698231Y330777D01*
X698257Y330744D01*
X698268Y330724D01*
X698291Y330702D01*
X698336Y330646D01*
X698620Y330362D01*
X698678Y330320D01*
X698730Y330270D01*
X698777Y330248D01*
X698819Y330218D01*
X698888Y330197D01*
X698953Y330167D01*
X699005Y330161D01*
X699055Y330146D01*
X699126Y330148D01*
X699197Y330140D01*
X699248Y330151D01*
X699300Y330152D01*
X699368Y330177D01*
X699438Y330192D01*
X699483Y330219D01*
X699531Y330236D01*
X699587Y330281D01*
X699649Y330318D01*
X699683Y330358D01*
X699723Y330390D01*
X699762Y330450D01*
X699809Y330505D01*
X699828Y330553D01*
X699856Y330597D01*
X699874Y330666D01*
X699901Y330733D01*
X699909Y330804D01*
X699917Y330836D01*
X699915Y330859D01*
X699919Y330900D01*
X699919Y336105D01*
X702895Y339081D01*
X717105Y339081D01*
X718064Y338122D01*
X718080Y338110D01*
X718092Y338094D01*
X718180Y338038D01*
X718263Y337978D01*
X718282Y337972D01*
X718299Y337961D01*
X718400Y337936D01*
X718499Y337906D01*
X718518Y337906D01*
X718538Y337901D01*
X718641Y337909D01*
X718744Y337912D01*
X718763Y337919D01*
X718783Y337920D01*
X718878Y337961D01*
X718975Y337996D01*
X718991Y338009D01*
X719009Y338017D01*
X719140Y338122D01*
X722303Y341284D01*
X724637Y342251D01*
X729726Y342251D01*
X729745Y342254D01*
X729765Y342252D01*
X729866Y342274D01*
X729968Y342290D01*
X729986Y342300D01*
X730006Y342304D01*
X730095Y342357D01*
X730186Y342406D01*
X730200Y342420D01*
X730217Y342430D01*
X730284Y342509D01*
X730355Y342584D01*
X730364Y342602D01*
X730377Y342617D01*
X730415Y342713D01*
X730459Y342807D01*
X730461Y342827D01*
X730469Y342845D01*
X730487Y343012D01*
X730487Y345507D01*
X730482Y345534D01*
X730485Y345562D01*
X730463Y345655D01*
X730447Y345750D01*
X730434Y345774D01*
X730428Y345801D01*
X730377Y345883D01*
X730332Y345967D01*
X730312Y345986D01*
X730297Y346010D01*
X730173Y346123D01*
X728305Y347480D01*
X727430Y353007D01*
X727404Y353086D01*
X727386Y353168D01*
X727365Y353202D01*
X727353Y353241D01*
X727303Y353307D01*
X727260Y353379D01*
X727229Y353405D01*
X727205Y353437D01*
X727136Y353485D01*
X727073Y353539D01*
X727036Y353554D01*
X727002Y353577D01*
X726922Y353600D01*
X726845Y353631D01*
X726792Y353637D01*
X726766Y353644D01*
X726736Y353643D01*
X726678Y353649D01*
X725438Y353649D01*
X725348Y353635D01*
X725257Y353627D01*
X725227Y353615D01*
X725195Y353610D01*
X725114Y353567D01*
X725030Y353531D01*
X724998Y353505D01*
X724978Y353494D01*
X724955Y353471D01*
X724899Y353426D01*
X724596Y353122D01*
X721614Y351887D01*
X718386Y351887D01*
X715404Y353122D01*
X713122Y355404D01*
X711887Y358386D01*
X711887Y361614D01*
X713122Y364596D01*
X715404Y366878D01*
X718386Y368113D01*
X721614Y368113D01*
X724596Y366878D01*
X724899Y366574D01*
X724973Y366521D01*
X725043Y366461D01*
X725073Y366449D01*
X725099Y366430D01*
X725186Y366403D01*
X725271Y366369D01*
X725312Y366365D01*
X725334Y366358D01*
X725366Y366359D01*
X725438Y366351D01*
X725713Y366351D01*
X725740Y366355D01*
X725768Y366353D01*
X725861Y366375D01*
X725955Y366390D01*
X725980Y366403D01*
X726007Y366410D01*
X726088Y366461D01*
X726173Y366506D01*
X726192Y366526D01*
X726216Y366541D01*
X726329Y366665D01*
X727931Y368870D01*
X736912Y370292D01*
X736980Y370315D01*
X737051Y370328D01*
X737096Y370353D01*
X737145Y370370D01*
X737203Y370413D01*
X737265Y370448D01*
X737300Y370486D01*
X737342Y370517D01*
X737383Y370576D01*
X737431Y370629D01*
X737452Y370677D01*
X737481Y370720D01*
X737501Y370789D01*
X737530Y370855D01*
X737535Y370906D01*
X737549Y370956D01*
X737546Y371028D01*
X737552Y371100D01*
X737540Y371150D01*
X737537Y371202D01*
X737511Y371269D01*
X737495Y371339D01*
X737467Y371383D01*
X737448Y371431D01*
X737402Y371486D01*
X737364Y371547D01*
X737311Y371595D01*
X737291Y371620D01*
X737271Y371632D01*
X737240Y371660D01*
X737172Y371710D01*
X736751Y372230D01*
X736479Y372841D01*
X735570Y378581D01*
X741513Y379522D01*
X742812Y371322D01*
X742807Y371310D01*
X742777Y371267D01*
X742758Y371198D01*
X742729Y371133D01*
X742724Y371081D01*
X742710Y371031D01*
X742713Y370959D01*
X742707Y370888D01*
X742719Y370837D01*
X742721Y370785D01*
X742747Y370718D01*
X742764Y370649D01*
X742792Y370604D01*
X742810Y370556D01*
X742857Y370501D01*
X742895Y370440D01*
X742947Y370392D01*
X742968Y370367D01*
X742988Y370355D01*
X743019Y370327D01*
X744090Y369549D01*
X744108Y369540D01*
X744122Y369526D01*
X744217Y369485D01*
X744310Y369438D01*
X744329Y369435D01*
X744348Y369427D01*
X744450Y369418D01*
X744553Y369404D01*
X744573Y369407D01*
X744592Y369405D01*
X744693Y369430D01*
X744795Y369448D01*
X744812Y369458D01*
X744832Y369463D01*
X744919Y369518D01*
X745010Y369568D01*
X745023Y369583D01*
X745040Y369593D01*
X745153Y369717D01*
X745931Y370788D01*
X745964Y370852D01*
X746004Y370912D01*
X746019Y370962D01*
X746042Y371008D01*
X746052Y371079D01*
X746072Y371148D01*
X746069Y371200D01*
X746077Y371252D01*
X746064Y371322D01*
X746060Y371394D01*
X746041Y371442D01*
X746032Y371494D01*
X745997Y371556D01*
X745971Y371623D01*
X745938Y371663D01*
X745912Y371709D01*
X745859Y371757D01*
X745820Y371804D01*
X744403Y380750D01*
X744397Y380769D01*
X744396Y380789D01*
X744358Y380885D01*
X744326Y380984D01*
X744314Y381000D01*
X744306Y381018D01*
X744240Y381098D01*
X744178Y381180D01*
X744162Y381192D01*
X744149Y381207D01*
X744061Y381261D01*
X743975Y381320D01*
X743956Y381325D01*
X743939Y381336D01*
X743838Y381359D01*
X743739Y381387D01*
X743719Y381386D01*
X743699Y381391D01*
X743532Y381383D01*
X742779Y381264D01*
X742659Y382017D01*
X742653Y382036D01*
X742652Y382056D01*
X742614Y382152D01*
X742582Y382251D01*
X742570Y382266D01*
X742563Y382285D01*
X742497Y382364D01*
X742434Y382447D01*
X742418Y382459D01*
X742405Y382474D01*
X742317Y382528D01*
X742232Y382587D01*
X742212Y382592D01*
X742196Y382602D01*
X742094Y382626D01*
X741995Y382654D01*
X741975Y382653D01*
X741956Y382658D01*
X741788Y382650D01*
X735093Y381589D01*
X734184Y387329D01*
X734226Y387728D01*
X734223Y387788D01*
X734229Y387847D01*
X734216Y387910D01*
X734212Y387974D01*
X734190Y388029D01*
X734177Y388088D01*
X734144Y388143D01*
X734120Y388202D01*
X734081Y388248D01*
X734051Y388299D01*
X734002Y388341D01*
X733960Y388389D01*
X733909Y388420D01*
X733864Y388459D01*
X733804Y388483D01*
X733749Y388516D01*
X733691Y388528D01*
X733636Y388551D01*
X733541Y388561D01*
X733509Y388568D01*
X733494Y388567D01*
X733469Y388569D01*
X711952Y388569D01*
X708639Y389325D01*
X705304Y390087D01*
X701969Y390848D01*
X698634Y391609D01*
X698633Y391609D01*
X696259Y392151D01*
X681756Y399135D01*
X679925Y400595D01*
X679883Y400619D01*
X679846Y400651D01*
X679776Y400679D01*
X679711Y400715D01*
X679663Y400725D01*
X679617Y400743D01*
X679492Y400757D01*
X679469Y400761D01*
X679462Y400760D01*
X679451Y400761D01*
X642512Y400761D01*
X642496Y400759D01*
X642481Y400761D01*
X642315Y400735D01*
X638971Y399839D01*
X631029Y399839D01*
X627685Y400735D01*
X627670Y400737D01*
X627655Y400743D01*
X627488Y400761D01*
X622192Y400761D01*
X622172Y400758D01*
X622153Y400760D01*
X622051Y400738D01*
X621949Y400722D01*
X621932Y400712D01*
X621912Y400708D01*
X621823Y400655D01*
X621732Y400606D01*
X621718Y400592D01*
X621701Y400582D01*
X621634Y400503D01*
X621562Y400428D01*
X621554Y400410D01*
X621541Y400395D01*
X621502Y400299D01*
X621459Y400205D01*
X621457Y400185D01*
X621449Y400167D01*
X621431Y400000D01*
X621431Y397726D01*
X620981Y396640D01*
X620966Y396576D01*
X620941Y396515D01*
X620932Y396432D01*
X620925Y396400D01*
X620926Y396381D01*
X620923Y396348D01*
X620923Y183652D01*
X620933Y183587D01*
X620934Y183521D01*
X620957Y183441D01*
X620962Y183409D01*
X620972Y183392D01*
X620981Y183360D01*
X621431Y182274D01*
X621431Y180000D01*
X621434Y179980D01*
X621432Y179961D01*
X621454Y179859D01*
X621470Y179757D01*
X621480Y179740D01*
X621484Y179720D01*
X621537Y179631D01*
X621586Y179540D01*
X621600Y179526D01*
X621610Y179509D01*
X621689Y179442D01*
X621764Y179371D01*
X621782Y179362D01*
X621797Y179349D01*
X621893Y179310D01*
X621987Y179267D01*
X622007Y179265D01*
X622025Y179257D01*
X622192Y179239D01*
X627488Y179239D01*
X627504Y179241D01*
G37*
G36*
X747116Y240347D02*
X747116Y240347D01*
X747219Y240347D01*
X747238Y240354D01*
X747258Y240355D01*
X747354Y240394D01*
X747452Y240427D01*
X747468Y240439D01*
X747486Y240447D01*
X747565Y240514D01*
X747647Y240577D01*
X747658Y240593D01*
X747674Y240606D01*
X747727Y240695D01*
X747785Y240781D01*
X747790Y240800D01*
X747800Y240817D01*
X747844Y240979D01*
X749218Y249650D01*
X752982Y249053D01*
X753593Y248781D01*
X754149Y248331D01*
X754155Y248328D01*
X754159Y248323D01*
X754261Y248267D01*
X754363Y248209D01*
X754369Y248208D01*
X754375Y248205D01*
X754489Y248184D01*
X754604Y248162D01*
X754611Y248163D01*
X754617Y248161D01*
X754732Y248179D01*
X754848Y248194D01*
X754854Y248197D01*
X754860Y248198D01*
X754965Y248251D01*
X755069Y248302D01*
X755074Y248307D01*
X755079Y248310D01*
X755161Y248393D01*
X755244Y248475D01*
X755247Y248481D01*
X755251Y248485D01*
X755302Y248591D01*
X755354Y248695D01*
X755355Y248701D01*
X755358Y248707D01*
X755388Y248872D01*
X755948Y257308D01*
X755944Y257353D01*
X755949Y257397D01*
X755932Y257474D01*
X755925Y257552D01*
X755906Y257594D01*
X755897Y257638D01*
X755856Y257705D01*
X755824Y257777D01*
X755794Y257810D01*
X755771Y257849D01*
X755711Y257900D01*
X755658Y257958D01*
X755618Y257979D01*
X755584Y258009D01*
X755511Y258038D01*
X755442Y258076D01*
X755398Y258084D01*
X755355Y258101D01*
X755216Y258116D01*
X755200Y258119D01*
X755195Y258119D01*
X755189Y258119D01*
X750795Y258119D01*
X749938Y258976D01*
X749922Y258988D01*
X749910Y259004D01*
X749829Y259055D01*
X749824Y259060D01*
X749821Y259061D01*
X749739Y259120D01*
X749720Y259126D01*
X749703Y259137D01*
X749602Y259162D01*
X749503Y259192D01*
X749484Y259192D01*
X749464Y259197D01*
X749361Y259189D01*
X749258Y259186D01*
X749239Y259179D01*
X749219Y259178D01*
X749124Y259137D01*
X749027Y259102D01*
X749011Y259089D01*
X748993Y259081D01*
X748862Y258976D01*
X748005Y258119D01*
X733795Y258119D01*
X730819Y261095D01*
X730819Y261988D01*
X730816Y262008D01*
X730818Y262027D01*
X730796Y262129D01*
X730780Y262231D01*
X730770Y262248D01*
X730766Y262268D01*
X730713Y262357D01*
X730664Y262448D01*
X730650Y262462D01*
X730640Y262479D01*
X730561Y262546D01*
X730486Y262618D01*
X730468Y262626D01*
X730453Y262639D01*
X730357Y262678D01*
X730263Y262721D01*
X730243Y262723D01*
X730225Y262731D01*
X730058Y262749D01*
X719650Y262749D01*
X719560Y262735D01*
X719469Y262727D01*
X719439Y262715D01*
X719407Y262710D01*
X719326Y262667D01*
X719242Y262631D01*
X719210Y262605D01*
X719190Y262594D01*
X719168Y262571D01*
X719112Y262526D01*
X716803Y260218D01*
X716792Y260216D01*
X716773Y260218D01*
X716671Y260196D01*
X716569Y260180D01*
X716552Y260170D01*
X716532Y260166D01*
X716443Y260113D01*
X716352Y260064D01*
X716338Y260050D01*
X716321Y260040D01*
X716254Y259961D01*
X716182Y259886D01*
X716174Y259868D01*
X716161Y259853D01*
X716122Y259757D01*
X716079Y259663D01*
X716077Y259643D01*
X716069Y259625D01*
X716051Y259458D01*
X716051Y246864D01*
X716065Y246773D01*
X716073Y246683D01*
X716085Y246653D01*
X716090Y246621D01*
X716133Y246540D01*
X716169Y246456D01*
X716195Y246424D01*
X716206Y246403D01*
X716229Y246381D01*
X716274Y246325D01*
X720990Y241609D01*
X721027Y241582D01*
X721058Y241549D01*
X721126Y241511D01*
X721190Y241466D01*
X721233Y241452D01*
X721274Y241430D01*
X721350Y241416D01*
X721425Y241393D01*
X721471Y241394D01*
X721516Y241386D01*
X721593Y241398D01*
X721671Y241400D01*
X721714Y241415D01*
X721759Y241422D01*
X721828Y241457D01*
X721902Y241484D01*
X721937Y241513D01*
X721978Y241534D01*
X722033Y241589D01*
X722094Y241638D01*
X722118Y241676D01*
X722151Y241709D01*
X722217Y241829D01*
X722227Y241845D01*
X722228Y241850D01*
X722231Y241856D01*
X723122Y244007D01*
X725404Y246289D01*
X728386Y247524D01*
X731614Y247524D01*
X734596Y246289D01*
X736878Y244007D01*
X737486Y242537D01*
X737506Y242505D01*
X737519Y242469D01*
X737571Y242401D01*
X737616Y242328D01*
X737645Y242304D01*
X737668Y242274D01*
X737740Y242226D01*
X737806Y242171D01*
X737841Y242158D01*
X737873Y242137D01*
X737955Y242114D01*
X738035Y242083D01*
X738073Y242082D01*
X738110Y242072D01*
X738195Y242076D01*
X738281Y242073D01*
X738317Y242083D01*
X738355Y242086D01*
X738435Y242117D01*
X738517Y242141D01*
X738548Y242163D01*
X738584Y242177D01*
X738649Y242233D01*
X738719Y242282D01*
X738742Y242312D01*
X738771Y242337D01*
X738815Y242410D01*
X738866Y242479D01*
X738878Y242515D01*
X738897Y242548D01*
X738942Y242710D01*
X739920Y248888D01*
X740192Y249500D01*
X740613Y250019D01*
X741155Y250413D01*
X741779Y250652D01*
X742445Y250722D01*
X746209Y250126D01*
X744836Y241456D01*
X744836Y241436D01*
X744830Y241416D01*
X744836Y241313D01*
X744837Y241210D01*
X744843Y241191D01*
X744844Y241171D01*
X744883Y241075D01*
X744916Y240977D01*
X744929Y240961D01*
X744936Y240943D01*
X745003Y240864D01*
X745066Y240782D01*
X745083Y240771D01*
X745096Y240755D01*
X745184Y240702D01*
X745270Y240644D01*
X745289Y240639D01*
X745307Y240629D01*
X745468Y240585D01*
X746973Y240346D01*
X746993Y240346D01*
X747013Y240341D01*
X747116Y240347D01*
G37*
G36*
X741718Y306354D02*
X741718Y306354D01*
X741737Y306352D01*
X741839Y306374D01*
X741941Y306390D01*
X741958Y306400D01*
X741978Y306404D01*
X742067Y306457D01*
X742158Y306506D01*
X742172Y306520D01*
X742189Y306530D01*
X742256Y306609D01*
X742328Y306684D01*
X742336Y306702D01*
X742349Y306717D01*
X742388Y306813D01*
X742431Y306907D01*
X742433Y306927D01*
X742441Y306945D01*
X742459Y307112D01*
X742459Y309477D01*
X749238Y309477D01*
X749258Y309480D01*
X749277Y309478D01*
X749379Y309500D01*
X749481Y309517D01*
X749498Y309526D01*
X749518Y309530D01*
X749607Y309583D01*
X749698Y309632D01*
X749712Y309646D01*
X749729Y309656D01*
X749796Y309735D01*
X749867Y309810D01*
X749876Y309828D01*
X749889Y309843D01*
X749928Y309939D01*
X749971Y310033D01*
X749973Y310053D01*
X749981Y310071D01*
X749999Y310238D01*
X749999Y311762D01*
X749996Y311782D01*
X749998Y311801D01*
X749976Y311903D01*
X749959Y312005D01*
X749950Y312022D01*
X749946Y312042D01*
X749893Y312131D01*
X749844Y312222D01*
X749830Y312236D01*
X749820Y312253D01*
X749741Y312320D01*
X749666Y312391D01*
X749648Y312400D01*
X749633Y312413D01*
X749537Y312452D01*
X749443Y312495D01*
X749423Y312497D01*
X749405Y312505D01*
X749238Y312523D01*
X742459Y312523D01*
X742459Y316938D01*
X742456Y316958D01*
X742458Y316977D01*
X742436Y317079D01*
X742420Y317181D01*
X742410Y317198D01*
X742406Y317218D01*
X742353Y317307D01*
X742304Y317398D01*
X742290Y317412D01*
X742280Y317429D01*
X742201Y317496D01*
X742126Y317568D01*
X742108Y317576D01*
X742093Y317589D01*
X741997Y317628D01*
X741903Y317671D01*
X741883Y317673D01*
X741865Y317681D01*
X741698Y317699D01*
X738337Y317699D01*
X738222Y317680D01*
X738106Y317663D01*
X738100Y317661D01*
X738094Y317660D01*
X737991Y317605D01*
X737887Y317552D01*
X737882Y317547D01*
X737877Y317544D01*
X737797Y317460D01*
X737714Y317376D01*
X737711Y317370D01*
X737707Y317366D01*
X737700Y317349D01*
X737634Y317229D01*
X736878Y315404D01*
X734596Y313122D01*
X731614Y311887D01*
X728386Y311887D01*
X727403Y312294D01*
X727359Y312305D01*
X727317Y312324D01*
X727240Y312333D01*
X727164Y312351D01*
X727118Y312346D01*
X727073Y312351D01*
X726996Y312335D01*
X726919Y312328D01*
X726877Y312309D01*
X726832Y312299D01*
X726765Y312259D01*
X726694Y312228D01*
X726660Y312196D01*
X726621Y312173D01*
X726570Y312114D01*
X726513Y312061D01*
X726491Y312021D01*
X726461Y311986D01*
X726432Y311914D01*
X726395Y311846D01*
X726386Y311800D01*
X726369Y311758D01*
X726354Y311622D01*
X726351Y311604D01*
X726352Y311599D01*
X726351Y311591D01*
X726351Y309803D01*
X726358Y309758D01*
X726356Y309712D01*
X726378Y309637D01*
X726390Y309561D01*
X726412Y309520D01*
X726425Y309476D01*
X726469Y309412D01*
X726506Y309343D01*
X726539Y309312D01*
X726565Y309274D01*
X726627Y309227D01*
X726684Y309174D01*
X726726Y309154D01*
X726762Y309127D01*
X726836Y309103D01*
X726907Y309070D01*
X726953Y309065D01*
X726996Y309051D01*
X727074Y309052D01*
X727151Y309043D01*
X727196Y309053D01*
X727242Y309053D01*
X727373Y309091D01*
X727392Y309095D01*
X727396Y309098D01*
X727399Y309099D01*
X730628Y309099D01*
X733609Y307864D01*
X734899Y306574D01*
X734973Y306521D01*
X735043Y306461D01*
X735073Y306449D01*
X735099Y306430D01*
X735186Y306403D01*
X735271Y306369D01*
X735312Y306365D01*
X735334Y306358D01*
X735366Y306359D01*
X735438Y306351D01*
X741698Y306351D01*
X741718Y306354D01*
G37*
%LPC*%
G36*
X702159Y289323D02*
X702159Y289323D01*
X702159Y293634D01*
X702332Y294281D01*
X702667Y294860D01*
X703140Y295333D01*
X703719Y295668D01*
X704366Y295841D01*
X708177Y295841D01*
X708177Y289323D01*
X702159Y289323D01*
G37*
%LPD*%
D10*
X709700Y270800D03*
X709700Y287800D03*
D11*
G36*
X748812Y375134D02*
X738936Y373570D01*
X736746Y387396D01*
X746622Y388960D01*
X748812Y375134D01*
G37*
G36*
X761637Y354891D02*
X751761Y353327D01*
X749571Y367153D01*
X759447Y368717D01*
X761637Y354891D01*
G37*
G36*
X742871Y351918D02*
X732995Y350354D01*
X730805Y364180D01*
X740681Y365744D01*
X742871Y351918D01*
G37*
X750000Y311000D03*
X759500Y289000D03*
X740500Y289000D03*
G36*
X750064Y232770D02*
X740188Y234334D01*
X742378Y248160D01*
X752254Y246596D01*
X750064Y232770D01*
G37*
G36*
X756005Y209554D02*
X746129Y211118D01*
X748319Y224944D01*
X758195Y223380D01*
X756005Y209554D01*
G37*
G36*
X737239Y212527D02*
X727363Y214091D01*
X729553Y227917D01*
X739429Y226353D01*
X737239Y212527D01*
G37*
D10*
X757600Y335900D03*
X740600Y335900D03*
X757900Y268700D03*
X740900Y268700D03*
X747000Y196700D03*
X730000Y196700D03*
X710000Y311500D03*
X710000Y328500D03*
D12*
X625000Y285000D03*
X700000Y386046D03*
X690000Y250000D03*
D13*
X740000Y310000D02*
X750000Y311000D01*
D12*
X740000Y310000D03*
X760000Y250000D03*
D13*
X746221Y240465D01*
D12*
X720000Y360000D03*
D13*
X734887Y360000D01*
X736838Y358049D01*
X736838Y339662D01*
X740600Y335900D01*
X740500Y289000D02*
X740500Y269100D01*
X740900Y268700D01*
X711400Y269100D02*
X709700Y270800D01*
X711400Y269100D02*
X720000Y269100D01*
X740500Y269100D01*
X720000Y269100D02*
X720000Y278620D01*
X721050Y279670D01*
X721050Y290000D01*
X720000Y291050D01*
X720000Y325000D02*
X717500Y327500D01*
X716500Y328500D01*
X710000Y328500D01*
X720000Y325000D02*
X720000Y291050D01*
X725900Y335900D02*
X740600Y335900D01*
X725900Y335900D02*
X717500Y327500D01*
X709700Y270800D02*
X709700Y243918D01*
X733396Y220222D01*
X730000Y216825D02*
X730000Y196700D01*
X730000Y216825D02*
X733396Y220222D01*
D12*
X710000Y210000D03*
D13*
X723300Y196700D01*
X730000Y196700D01*
D12*
X730000Y320000D03*
D13*
X734050Y324050D01*
X745750Y324050D02*
X757600Y335900D01*
X745750Y324050D02*
X734050Y324050D01*
X757600Y359025D02*
X755604Y361022D01*
X757600Y359025D02*
X757600Y335900D01*
X759500Y270300D02*
X757900Y268700D01*
X759500Y270300D02*
X759500Y289000D01*
X748500Y300000D01*
X730000Y300000D01*
X729014Y300986D01*
D12*
X729014Y300986D03*
D13*
X730000Y239412D02*
X752162Y217249D01*
X730000Y239412D02*
X730000Y240000D01*
D12*
X730000Y239412D03*
D13*
X752162Y217249D02*
X747000Y196700D01*
X698650Y320370D02*
X698650Y321350D01*
X690000Y330000D01*
X707520Y311500D02*
X710000Y311500D01*
X707520Y311500D02*
X698650Y320370D01*
D12*
X690000Y330000D03*
M02*
