G04 EAGLE Gerber X2 export*
%TF.Part,Single*%
%TF.FileFunction,Legend,Bot,1*%
%TF.FilePolarity,Positive*%
%TF.GenerationSoftware,Autodesk,EAGLE,9.0.0*%
%TF.CreationDate,2018-07-15T17:58:39Z*%
G75*
%MOMM*%
%FSLAX34Y34*%
%LPD*%
%AMOC8*
5,1,8,0,0,1.08239X$1,22.5*%
G01*
%ADD10C,0.076200*%


D10*
X644779Y214631D02*
X654185Y214631D01*
X649482Y214631D02*
X649482Y220902D01*
X654185Y220902D02*
X644779Y220902D01*
X646347Y223986D02*
X651050Y223986D01*
X646347Y223986D02*
X644779Y225554D01*
X644779Y230257D01*
X651050Y230257D01*
X641644Y236477D02*
X641644Y238044D01*
X643211Y239612D01*
X651050Y239612D01*
X651050Y234909D01*
X649482Y233341D01*
X646347Y233341D01*
X644779Y234909D01*
X644779Y239612D01*
X644779Y242696D02*
X654185Y242696D01*
X651050Y244264D02*
X649482Y242696D01*
X651050Y244264D02*
X651050Y247399D01*
X649482Y248967D01*
X644779Y248967D01*
X644779Y253619D02*
X644779Y256755D01*
X644779Y253619D02*
X646347Y252052D01*
X649482Y252052D01*
X651050Y253619D01*
X651050Y256755D01*
X649482Y258322D01*
X647914Y258322D01*
X647914Y252052D01*
X644779Y261407D02*
X644779Y266110D01*
X646347Y267678D01*
X647914Y266110D01*
X647914Y262974D01*
X649482Y261407D01*
X651050Y262974D01*
X651050Y267678D01*
X654185Y280117D02*
X654185Y286388D01*
X654185Y280117D02*
X644779Y280117D01*
X644779Y286388D01*
X649482Y283253D02*
X649482Y280117D01*
X654185Y289472D02*
X654185Y291040D01*
X644779Y291040D01*
X644779Y289472D02*
X644779Y292608D01*
X644779Y297277D02*
X644779Y300412D01*
X644779Y297277D02*
X646347Y295709D01*
X649482Y295709D01*
X651050Y297277D01*
X651050Y300412D01*
X649482Y301980D01*
X647914Y301980D01*
X647914Y295709D01*
X651050Y306632D02*
X651050Y311335D01*
X651050Y306632D02*
X649482Y305064D01*
X646347Y305064D01*
X644779Y306632D01*
X644779Y311335D01*
X646347Y315987D02*
X652617Y315987D01*
X646347Y315987D02*
X644779Y317555D01*
X651050Y317555D02*
X651050Y314420D01*
X651050Y320656D02*
X644779Y320656D01*
X647914Y320656D02*
X651050Y323792D01*
X651050Y325359D01*
X644779Y330020D02*
X644779Y333155D01*
X646347Y334723D01*
X649482Y334723D01*
X651050Y333155D01*
X651050Y330020D01*
X649482Y328452D01*
X646347Y328452D01*
X644779Y330020D01*
X644779Y337807D02*
X651050Y337807D01*
X651050Y342510D01*
X649482Y344078D01*
X644779Y344078D01*
X651050Y347163D02*
X651050Y348730D01*
X644779Y348730D01*
X644779Y347163D02*
X644779Y350298D01*
X654185Y348730D02*
X655753Y348730D01*
X651050Y354967D02*
X651050Y359670D01*
X651050Y354967D02*
X649482Y353399D01*
X646347Y353399D01*
X644779Y354967D01*
X644779Y359670D01*
X644779Y362755D02*
X644779Y367458D01*
X646347Y369025D01*
X647914Y367458D01*
X647914Y364322D01*
X649482Y362755D01*
X651050Y364322D01*
X651050Y369025D01*
M02*
