G04 EAGLE Gerber X2 export*
%TF.Part,Single*%
%TF.FileFunction,Paste,Top*%
%TF.FilePolarity,Positive*%
%TF.GenerationSoftware,Autodesk,EAGLE,9.0.0*%
%TF.CreationDate,2018-07-15T17:58:39Z*%
G75*
%MOMM*%
%FSLAX34Y34*%
%LPD*%
%AMOC8*
5,1,8,0,0,1.08239X$1,22.5*%
G01*
%ADD10R,1.000000X1.100000*%
%ADD11R,1.000000X1.400000*%


D10*
X709700Y270800D03*
X709700Y287800D03*
D11*
G36*
X748812Y375134D02*
X738936Y373570D01*
X736746Y387396D01*
X746622Y388960D01*
X748812Y375134D01*
G37*
G36*
X761637Y354891D02*
X751761Y353327D01*
X749571Y367153D01*
X759447Y368717D01*
X761637Y354891D01*
G37*
G36*
X742871Y351918D02*
X732995Y350354D01*
X730805Y364180D01*
X740681Y365744D01*
X742871Y351918D01*
G37*
X750000Y311000D03*
X759500Y289000D03*
X740500Y289000D03*
G36*
X750064Y232770D02*
X740188Y234334D01*
X742378Y248160D01*
X752254Y246596D01*
X750064Y232770D01*
G37*
G36*
X756005Y209554D02*
X746129Y211118D01*
X748319Y224944D01*
X758195Y223380D01*
X756005Y209554D01*
G37*
G36*
X737239Y212527D02*
X727363Y214091D01*
X729553Y227917D01*
X739429Y226353D01*
X737239Y212527D01*
G37*
D10*
X757600Y335900D03*
X740600Y335900D03*
X757900Y268700D03*
X740900Y268700D03*
X747000Y196700D03*
X730000Y196700D03*
X710000Y311500D03*
X710000Y328500D03*
M02*
