%
M48
M72
T01C0.01969
T02C0.02362
T03C0.03150
T04C0.03200
T05C0.03937
T06C0.04000
T07C0.04700
T08C0.05500
T09C0.06299
T10C0.07200
T11C0.12598
%
T01
X100000Y132520
X95000Y127520
X195000Y147520
X200000Y122520
X200000Y102520
X220000Y122520
X230000Y147520
X255000Y147520
X265000Y122520
X265000Y102520
X265000Y162520
X315000Y142520
X320000Y132520
X95000Y102520
T02
X200787Y169291
X259843Y169291
T03
X245000Y117520
X245000Y107520
X275000Y107520
X275000Y117520
X245000Y97520
X275000Y97520
X275000Y127520
X245000Y127520
X245000Y137520
X275000Y137520
X275000Y87520
X245000Y87520
X245000Y147520
X275000Y147520
X275000Y77520
X245000Y77520
X210000Y117520
X210000Y107520
X180000Y107520
X180000Y117520
X210000Y97520
X180000Y97520
X180000Y127520
X210000Y127520
X210000Y137520
X180000Y137520
X180000Y87520
X210000Y87520
X210000Y147520
X180000Y147520
X180000Y77520
X210000Y77520
T04
X97500Y35020
X57500Y35020
X60000Y12520
X70000Y12520
X65000Y72520
X65000Y62520
T05
X255000Y212520
X245000Y22520
X265000Y212520
X275000Y212520
X285000Y212520
X295000Y212520
X245000Y212520
X235000Y212520
X225000Y212520
X209000Y212520
X199000Y212520
X189000Y212520
X179000Y212520
X169000Y212520
X159000Y212520
X149000Y212520
X139000Y212520
X255000Y22520
X265000Y22520
X275000Y22520
X285000Y22520
X295000Y22520
X225000Y22520
X215000Y22520
X205000Y22520
X195000Y22520
X185000Y22520
X175000Y22520
T06
X118354Y24678
X118354Y6878
X143954Y24678
X143954Y6878
X350000Y12520
X350000Y22520
X350000Y32520
X335000Y12520
X335000Y22520
X335000Y32520
X320000Y12520
X320000Y22520
X320000Y32520
X305000Y12520
X305000Y22520
X305000Y32520
X310000Y217520
X320000Y217520
X330000Y217520
X340000Y217520
X10000Y127520
X20000Y127520
X30000Y127520
X10000Y112520
X20000Y112520
X30000Y112520
X10000Y97520
X20000Y97520
X30000Y97520
X10000Y82520
X20000Y82520
X30000Y82520
X10000Y67520
X20000Y67520
X30000Y67520
X10000Y52520
X20000Y52520
X30000Y52520
T07
X17992Y11831
X17992Y31516
X17992Y206831
X17992Y226516
X377008Y225709
X377008Y206024
X377008Y33209
X377008Y13524
T08
X235000Y42520
X175000Y42520
T09
X54000Y207520
X65000Y207520
X76000Y207520
T10
X137815Y62187
X111248Y72187
X137815Y82187
X337657Y82266
X364224Y72266
X337657Y62266
X336257Y168016
X362824Y158016
X336257Y148016
X136415Y147937
X109848Y157937
X136415Y167937
T11
X105000Y212520
X305000Y152520
X100000Y22520
M30
