G75*
%MOIN*%
%OFA0B0*%
%FSLAX25Y25*%
%IPPOS*%
%LPD*%
%AMOC8*
5,1,8,0,0,1.08239X$1,22.5*
%
%ADD10C,0.01600*%
%ADD11C,0.00000*%
D10*
X0001800Y0001800D02*
X0395501Y0001800D01*
X0395501Y0238020D01*
X0001800Y0238020D01*
X0001800Y0001800D01*
D11*
X0095501Y0024320D02*
X0095503Y0024478D01*
X0095509Y0024636D01*
X0095519Y0024794D01*
X0095533Y0024952D01*
X0095551Y0025109D01*
X0095572Y0025266D01*
X0095598Y0025422D01*
X0095628Y0025578D01*
X0095661Y0025733D01*
X0095699Y0025886D01*
X0095740Y0026039D01*
X0095785Y0026191D01*
X0095834Y0026342D01*
X0095887Y0026491D01*
X0095943Y0026639D01*
X0096003Y0026785D01*
X0096067Y0026930D01*
X0096135Y0027073D01*
X0096206Y0027215D01*
X0096280Y0027355D01*
X0096358Y0027492D01*
X0096440Y0027628D01*
X0096524Y0027762D01*
X0096613Y0027893D01*
X0096704Y0028022D01*
X0096799Y0028149D01*
X0096896Y0028274D01*
X0096997Y0028396D01*
X0097101Y0028515D01*
X0097208Y0028632D01*
X0097318Y0028746D01*
X0097431Y0028857D01*
X0097546Y0028966D01*
X0097664Y0029071D01*
X0097785Y0029173D01*
X0097908Y0029273D01*
X0098034Y0029369D01*
X0098162Y0029462D01*
X0098292Y0029552D01*
X0098425Y0029638D01*
X0098560Y0029722D01*
X0098696Y0029801D01*
X0098835Y0029878D01*
X0098976Y0029950D01*
X0099118Y0030020D01*
X0099262Y0030085D01*
X0099408Y0030147D01*
X0099555Y0030205D01*
X0099704Y0030260D01*
X0099854Y0030311D01*
X0100005Y0030358D01*
X0100157Y0030401D01*
X0100310Y0030440D01*
X0100465Y0030476D01*
X0100620Y0030507D01*
X0100776Y0030535D01*
X0100932Y0030559D01*
X0101089Y0030579D01*
X0101247Y0030595D01*
X0101404Y0030607D01*
X0101563Y0030615D01*
X0101721Y0030619D01*
X0101879Y0030619D01*
X0102037Y0030615D01*
X0102196Y0030607D01*
X0102353Y0030595D01*
X0102511Y0030579D01*
X0102668Y0030559D01*
X0102824Y0030535D01*
X0102980Y0030507D01*
X0103135Y0030476D01*
X0103290Y0030440D01*
X0103443Y0030401D01*
X0103595Y0030358D01*
X0103746Y0030311D01*
X0103896Y0030260D01*
X0104045Y0030205D01*
X0104192Y0030147D01*
X0104338Y0030085D01*
X0104482Y0030020D01*
X0104624Y0029950D01*
X0104765Y0029878D01*
X0104904Y0029801D01*
X0105040Y0029722D01*
X0105175Y0029638D01*
X0105308Y0029552D01*
X0105438Y0029462D01*
X0105566Y0029369D01*
X0105692Y0029273D01*
X0105815Y0029173D01*
X0105936Y0029071D01*
X0106054Y0028966D01*
X0106169Y0028857D01*
X0106282Y0028746D01*
X0106392Y0028632D01*
X0106499Y0028515D01*
X0106603Y0028396D01*
X0106704Y0028274D01*
X0106801Y0028149D01*
X0106896Y0028022D01*
X0106987Y0027893D01*
X0107076Y0027762D01*
X0107160Y0027628D01*
X0107242Y0027492D01*
X0107320Y0027355D01*
X0107394Y0027215D01*
X0107465Y0027073D01*
X0107533Y0026930D01*
X0107597Y0026785D01*
X0107657Y0026639D01*
X0107713Y0026491D01*
X0107766Y0026342D01*
X0107815Y0026191D01*
X0107860Y0026039D01*
X0107901Y0025886D01*
X0107939Y0025733D01*
X0107972Y0025578D01*
X0108002Y0025422D01*
X0108028Y0025266D01*
X0108049Y0025109D01*
X0108067Y0024952D01*
X0108081Y0024794D01*
X0108091Y0024636D01*
X0108097Y0024478D01*
X0108099Y0024320D01*
X0108097Y0024162D01*
X0108091Y0024004D01*
X0108081Y0023846D01*
X0108067Y0023688D01*
X0108049Y0023531D01*
X0108028Y0023374D01*
X0108002Y0023218D01*
X0107972Y0023062D01*
X0107939Y0022907D01*
X0107901Y0022754D01*
X0107860Y0022601D01*
X0107815Y0022449D01*
X0107766Y0022298D01*
X0107713Y0022149D01*
X0107657Y0022001D01*
X0107597Y0021855D01*
X0107533Y0021710D01*
X0107465Y0021567D01*
X0107394Y0021425D01*
X0107320Y0021285D01*
X0107242Y0021148D01*
X0107160Y0021012D01*
X0107076Y0020878D01*
X0106987Y0020747D01*
X0106896Y0020618D01*
X0106801Y0020491D01*
X0106704Y0020366D01*
X0106603Y0020244D01*
X0106499Y0020125D01*
X0106392Y0020008D01*
X0106282Y0019894D01*
X0106169Y0019783D01*
X0106054Y0019674D01*
X0105936Y0019569D01*
X0105815Y0019467D01*
X0105692Y0019367D01*
X0105566Y0019271D01*
X0105438Y0019178D01*
X0105308Y0019088D01*
X0105175Y0019002D01*
X0105040Y0018918D01*
X0104904Y0018839D01*
X0104765Y0018762D01*
X0104624Y0018690D01*
X0104482Y0018620D01*
X0104338Y0018555D01*
X0104192Y0018493D01*
X0104045Y0018435D01*
X0103896Y0018380D01*
X0103746Y0018329D01*
X0103595Y0018282D01*
X0103443Y0018239D01*
X0103290Y0018200D01*
X0103135Y0018164D01*
X0102980Y0018133D01*
X0102824Y0018105D01*
X0102668Y0018081D01*
X0102511Y0018061D01*
X0102353Y0018045D01*
X0102196Y0018033D01*
X0102037Y0018025D01*
X0101879Y0018021D01*
X0101721Y0018021D01*
X0101563Y0018025D01*
X0101404Y0018033D01*
X0101247Y0018045D01*
X0101089Y0018061D01*
X0100932Y0018081D01*
X0100776Y0018105D01*
X0100620Y0018133D01*
X0100465Y0018164D01*
X0100310Y0018200D01*
X0100157Y0018239D01*
X0100005Y0018282D01*
X0099854Y0018329D01*
X0099704Y0018380D01*
X0099555Y0018435D01*
X0099408Y0018493D01*
X0099262Y0018555D01*
X0099118Y0018620D01*
X0098976Y0018690D01*
X0098835Y0018762D01*
X0098696Y0018839D01*
X0098560Y0018918D01*
X0098425Y0019002D01*
X0098292Y0019088D01*
X0098162Y0019178D01*
X0098034Y0019271D01*
X0097908Y0019367D01*
X0097785Y0019467D01*
X0097664Y0019569D01*
X0097546Y0019674D01*
X0097431Y0019783D01*
X0097318Y0019894D01*
X0097208Y0020008D01*
X0097101Y0020125D01*
X0096997Y0020244D01*
X0096896Y0020366D01*
X0096799Y0020491D01*
X0096704Y0020618D01*
X0096613Y0020747D01*
X0096524Y0020878D01*
X0096440Y0021012D01*
X0096358Y0021148D01*
X0096280Y0021285D01*
X0096206Y0021425D01*
X0096135Y0021567D01*
X0096067Y0021710D01*
X0096003Y0021855D01*
X0095943Y0022001D01*
X0095887Y0022149D01*
X0095834Y0022298D01*
X0095785Y0022449D01*
X0095740Y0022601D01*
X0095699Y0022754D01*
X0095661Y0022907D01*
X0095628Y0023062D01*
X0095598Y0023218D01*
X0095572Y0023374D01*
X0095551Y0023531D01*
X0095533Y0023688D01*
X0095519Y0023846D01*
X0095509Y0024004D01*
X0095503Y0024162D01*
X0095501Y0024320D01*
X0300501Y0154320D02*
X0300503Y0154478D01*
X0300509Y0154636D01*
X0300519Y0154794D01*
X0300533Y0154952D01*
X0300551Y0155109D01*
X0300572Y0155266D01*
X0300598Y0155422D01*
X0300628Y0155578D01*
X0300661Y0155733D01*
X0300699Y0155886D01*
X0300740Y0156039D01*
X0300785Y0156191D01*
X0300834Y0156342D01*
X0300887Y0156491D01*
X0300943Y0156639D01*
X0301003Y0156785D01*
X0301067Y0156930D01*
X0301135Y0157073D01*
X0301206Y0157215D01*
X0301280Y0157355D01*
X0301358Y0157492D01*
X0301440Y0157628D01*
X0301524Y0157762D01*
X0301613Y0157893D01*
X0301704Y0158022D01*
X0301799Y0158149D01*
X0301896Y0158274D01*
X0301997Y0158396D01*
X0302101Y0158515D01*
X0302208Y0158632D01*
X0302318Y0158746D01*
X0302431Y0158857D01*
X0302546Y0158966D01*
X0302664Y0159071D01*
X0302785Y0159173D01*
X0302908Y0159273D01*
X0303034Y0159369D01*
X0303162Y0159462D01*
X0303292Y0159552D01*
X0303425Y0159638D01*
X0303560Y0159722D01*
X0303696Y0159801D01*
X0303835Y0159878D01*
X0303976Y0159950D01*
X0304118Y0160020D01*
X0304262Y0160085D01*
X0304408Y0160147D01*
X0304555Y0160205D01*
X0304704Y0160260D01*
X0304854Y0160311D01*
X0305005Y0160358D01*
X0305157Y0160401D01*
X0305310Y0160440D01*
X0305465Y0160476D01*
X0305620Y0160507D01*
X0305776Y0160535D01*
X0305932Y0160559D01*
X0306089Y0160579D01*
X0306247Y0160595D01*
X0306404Y0160607D01*
X0306563Y0160615D01*
X0306721Y0160619D01*
X0306879Y0160619D01*
X0307037Y0160615D01*
X0307196Y0160607D01*
X0307353Y0160595D01*
X0307511Y0160579D01*
X0307668Y0160559D01*
X0307824Y0160535D01*
X0307980Y0160507D01*
X0308135Y0160476D01*
X0308290Y0160440D01*
X0308443Y0160401D01*
X0308595Y0160358D01*
X0308746Y0160311D01*
X0308896Y0160260D01*
X0309045Y0160205D01*
X0309192Y0160147D01*
X0309338Y0160085D01*
X0309482Y0160020D01*
X0309624Y0159950D01*
X0309765Y0159878D01*
X0309904Y0159801D01*
X0310040Y0159722D01*
X0310175Y0159638D01*
X0310308Y0159552D01*
X0310438Y0159462D01*
X0310566Y0159369D01*
X0310692Y0159273D01*
X0310815Y0159173D01*
X0310936Y0159071D01*
X0311054Y0158966D01*
X0311169Y0158857D01*
X0311282Y0158746D01*
X0311392Y0158632D01*
X0311499Y0158515D01*
X0311603Y0158396D01*
X0311704Y0158274D01*
X0311801Y0158149D01*
X0311896Y0158022D01*
X0311987Y0157893D01*
X0312076Y0157762D01*
X0312160Y0157628D01*
X0312242Y0157492D01*
X0312320Y0157355D01*
X0312394Y0157215D01*
X0312465Y0157073D01*
X0312533Y0156930D01*
X0312597Y0156785D01*
X0312657Y0156639D01*
X0312713Y0156491D01*
X0312766Y0156342D01*
X0312815Y0156191D01*
X0312860Y0156039D01*
X0312901Y0155886D01*
X0312939Y0155733D01*
X0312972Y0155578D01*
X0313002Y0155422D01*
X0313028Y0155266D01*
X0313049Y0155109D01*
X0313067Y0154952D01*
X0313081Y0154794D01*
X0313091Y0154636D01*
X0313097Y0154478D01*
X0313099Y0154320D01*
X0313097Y0154162D01*
X0313091Y0154004D01*
X0313081Y0153846D01*
X0313067Y0153688D01*
X0313049Y0153531D01*
X0313028Y0153374D01*
X0313002Y0153218D01*
X0312972Y0153062D01*
X0312939Y0152907D01*
X0312901Y0152754D01*
X0312860Y0152601D01*
X0312815Y0152449D01*
X0312766Y0152298D01*
X0312713Y0152149D01*
X0312657Y0152001D01*
X0312597Y0151855D01*
X0312533Y0151710D01*
X0312465Y0151567D01*
X0312394Y0151425D01*
X0312320Y0151285D01*
X0312242Y0151148D01*
X0312160Y0151012D01*
X0312076Y0150878D01*
X0311987Y0150747D01*
X0311896Y0150618D01*
X0311801Y0150491D01*
X0311704Y0150366D01*
X0311603Y0150244D01*
X0311499Y0150125D01*
X0311392Y0150008D01*
X0311282Y0149894D01*
X0311169Y0149783D01*
X0311054Y0149674D01*
X0310936Y0149569D01*
X0310815Y0149467D01*
X0310692Y0149367D01*
X0310566Y0149271D01*
X0310438Y0149178D01*
X0310308Y0149088D01*
X0310175Y0149002D01*
X0310040Y0148918D01*
X0309904Y0148839D01*
X0309765Y0148762D01*
X0309624Y0148690D01*
X0309482Y0148620D01*
X0309338Y0148555D01*
X0309192Y0148493D01*
X0309045Y0148435D01*
X0308896Y0148380D01*
X0308746Y0148329D01*
X0308595Y0148282D01*
X0308443Y0148239D01*
X0308290Y0148200D01*
X0308135Y0148164D01*
X0307980Y0148133D01*
X0307824Y0148105D01*
X0307668Y0148081D01*
X0307511Y0148061D01*
X0307353Y0148045D01*
X0307196Y0148033D01*
X0307037Y0148025D01*
X0306879Y0148021D01*
X0306721Y0148021D01*
X0306563Y0148025D01*
X0306404Y0148033D01*
X0306247Y0148045D01*
X0306089Y0148061D01*
X0305932Y0148081D01*
X0305776Y0148105D01*
X0305620Y0148133D01*
X0305465Y0148164D01*
X0305310Y0148200D01*
X0305157Y0148239D01*
X0305005Y0148282D01*
X0304854Y0148329D01*
X0304704Y0148380D01*
X0304555Y0148435D01*
X0304408Y0148493D01*
X0304262Y0148555D01*
X0304118Y0148620D01*
X0303976Y0148690D01*
X0303835Y0148762D01*
X0303696Y0148839D01*
X0303560Y0148918D01*
X0303425Y0149002D01*
X0303292Y0149088D01*
X0303162Y0149178D01*
X0303034Y0149271D01*
X0302908Y0149367D01*
X0302785Y0149467D01*
X0302664Y0149569D01*
X0302546Y0149674D01*
X0302431Y0149783D01*
X0302318Y0149894D01*
X0302208Y0150008D01*
X0302101Y0150125D01*
X0301997Y0150244D01*
X0301896Y0150366D01*
X0301799Y0150491D01*
X0301704Y0150618D01*
X0301613Y0150747D01*
X0301524Y0150878D01*
X0301440Y0151012D01*
X0301358Y0151148D01*
X0301280Y0151285D01*
X0301206Y0151425D01*
X0301135Y0151567D01*
X0301067Y0151710D01*
X0301003Y0151855D01*
X0300943Y0152001D01*
X0300887Y0152149D01*
X0300834Y0152298D01*
X0300785Y0152449D01*
X0300740Y0152601D01*
X0300699Y0152754D01*
X0300661Y0152907D01*
X0300628Y0153062D01*
X0300598Y0153218D01*
X0300572Y0153374D01*
X0300551Y0153531D01*
X0300533Y0153688D01*
X0300519Y0153846D01*
X0300509Y0154004D01*
X0300503Y0154162D01*
X0300501Y0154320D01*
X0100501Y0214320D02*
X0100503Y0214478D01*
X0100509Y0214636D01*
X0100519Y0214794D01*
X0100533Y0214952D01*
X0100551Y0215109D01*
X0100572Y0215266D01*
X0100598Y0215422D01*
X0100628Y0215578D01*
X0100661Y0215733D01*
X0100699Y0215886D01*
X0100740Y0216039D01*
X0100785Y0216191D01*
X0100834Y0216342D01*
X0100887Y0216491D01*
X0100943Y0216639D01*
X0101003Y0216785D01*
X0101067Y0216930D01*
X0101135Y0217073D01*
X0101206Y0217215D01*
X0101280Y0217355D01*
X0101358Y0217492D01*
X0101440Y0217628D01*
X0101524Y0217762D01*
X0101613Y0217893D01*
X0101704Y0218022D01*
X0101799Y0218149D01*
X0101896Y0218274D01*
X0101997Y0218396D01*
X0102101Y0218515D01*
X0102208Y0218632D01*
X0102318Y0218746D01*
X0102431Y0218857D01*
X0102546Y0218966D01*
X0102664Y0219071D01*
X0102785Y0219173D01*
X0102908Y0219273D01*
X0103034Y0219369D01*
X0103162Y0219462D01*
X0103292Y0219552D01*
X0103425Y0219638D01*
X0103560Y0219722D01*
X0103696Y0219801D01*
X0103835Y0219878D01*
X0103976Y0219950D01*
X0104118Y0220020D01*
X0104262Y0220085D01*
X0104408Y0220147D01*
X0104555Y0220205D01*
X0104704Y0220260D01*
X0104854Y0220311D01*
X0105005Y0220358D01*
X0105157Y0220401D01*
X0105310Y0220440D01*
X0105465Y0220476D01*
X0105620Y0220507D01*
X0105776Y0220535D01*
X0105932Y0220559D01*
X0106089Y0220579D01*
X0106247Y0220595D01*
X0106404Y0220607D01*
X0106563Y0220615D01*
X0106721Y0220619D01*
X0106879Y0220619D01*
X0107037Y0220615D01*
X0107196Y0220607D01*
X0107353Y0220595D01*
X0107511Y0220579D01*
X0107668Y0220559D01*
X0107824Y0220535D01*
X0107980Y0220507D01*
X0108135Y0220476D01*
X0108290Y0220440D01*
X0108443Y0220401D01*
X0108595Y0220358D01*
X0108746Y0220311D01*
X0108896Y0220260D01*
X0109045Y0220205D01*
X0109192Y0220147D01*
X0109338Y0220085D01*
X0109482Y0220020D01*
X0109624Y0219950D01*
X0109765Y0219878D01*
X0109904Y0219801D01*
X0110040Y0219722D01*
X0110175Y0219638D01*
X0110308Y0219552D01*
X0110438Y0219462D01*
X0110566Y0219369D01*
X0110692Y0219273D01*
X0110815Y0219173D01*
X0110936Y0219071D01*
X0111054Y0218966D01*
X0111169Y0218857D01*
X0111282Y0218746D01*
X0111392Y0218632D01*
X0111499Y0218515D01*
X0111603Y0218396D01*
X0111704Y0218274D01*
X0111801Y0218149D01*
X0111896Y0218022D01*
X0111987Y0217893D01*
X0112076Y0217762D01*
X0112160Y0217628D01*
X0112242Y0217492D01*
X0112320Y0217355D01*
X0112394Y0217215D01*
X0112465Y0217073D01*
X0112533Y0216930D01*
X0112597Y0216785D01*
X0112657Y0216639D01*
X0112713Y0216491D01*
X0112766Y0216342D01*
X0112815Y0216191D01*
X0112860Y0216039D01*
X0112901Y0215886D01*
X0112939Y0215733D01*
X0112972Y0215578D01*
X0113002Y0215422D01*
X0113028Y0215266D01*
X0113049Y0215109D01*
X0113067Y0214952D01*
X0113081Y0214794D01*
X0113091Y0214636D01*
X0113097Y0214478D01*
X0113099Y0214320D01*
X0113097Y0214162D01*
X0113091Y0214004D01*
X0113081Y0213846D01*
X0113067Y0213688D01*
X0113049Y0213531D01*
X0113028Y0213374D01*
X0113002Y0213218D01*
X0112972Y0213062D01*
X0112939Y0212907D01*
X0112901Y0212754D01*
X0112860Y0212601D01*
X0112815Y0212449D01*
X0112766Y0212298D01*
X0112713Y0212149D01*
X0112657Y0212001D01*
X0112597Y0211855D01*
X0112533Y0211710D01*
X0112465Y0211567D01*
X0112394Y0211425D01*
X0112320Y0211285D01*
X0112242Y0211148D01*
X0112160Y0211012D01*
X0112076Y0210878D01*
X0111987Y0210747D01*
X0111896Y0210618D01*
X0111801Y0210491D01*
X0111704Y0210366D01*
X0111603Y0210244D01*
X0111499Y0210125D01*
X0111392Y0210008D01*
X0111282Y0209894D01*
X0111169Y0209783D01*
X0111054Y0209674D01*
X0110936Y0209569D01*
X0110815Y0209467D01*
X0110692Y0209367D01*
X0110566Y0209271D01*
X0110438Y0209178D01*
X0110308Y0209088D01*
X0110175Y0209002D01*
X0110040Y0208918D01*
X0109904Y0208839D01*
X0109765Y0208762D01*
X0109624Y0208690D01*
X0109482Y0208620D01*
X0109338Y0208555D01*
X0109192Y0208493D01*
X0109045Y0208435D01*
X0108896Y0208380D01*
X0108746Y0208329D01*
X0108595Y0208282D01*
X0108443Y0208239D01*
X0108290Y0208200D01*
X0108135Y0208164D01*
X0107980Y0208133D01*
X0107824Y0208105D01*
X0107668Y0208081D01*
X0107511Y0208061D01*
X0107353Y0208045D01*
X0107196Y0208033D01*
X0107037Y0208025D01*
X0106879Y0208021D01*
X0106721Y0208021D01*
X0106563Y0208025D01*
X0106404Y0208033D01*
X0106247Y0208045D01*
X0106089Y0208061D01*
X0105932Y0208081D01*
X0105776Y0208105D01*
X0105620Y0208133D01*
X0105465Y0208164D01*
X0105310Y0208200D01*
X0105157Y0208239D01*
X0105005Y0208282D01*
X0104854Y0208329D01*
X0104704Y0208380D01*
X0104555Y0208435D01*
X0104408Y0208493D01*
X0104262Y0208555D01*
X0104118Y0208620D01*
X0103976Y0208690D01*
X0103835Y0208762D01*
X0103696Y0208839D01*
X0103560Y0208918D01*
X0103425Y0209002D01*
X0103292Y0209088D01*
X0103162Y0209178D01*
X0103034Y0209271D01*
X0102908Y0209367D01*
X0102785Y0209467D01*
X0102664Y0209569D01*
X0102546Y0209674D01*
X0102431Y0209783D01*
X0102318Y0209894D01*
X0102208Y0210008D01*
X0102101Y0210125D01*
X0101997Y0210244D01*
X0101896Y0210366D01*
X0101799Y0210491D01*
X0101704Y0210618D01*
X0101613Y0210747D01*
X0101524Y0210878D01*
X0101440Y0211012D01*
X0101358Y0211148D01*
X0101280Y0211285D01*
X0101206Y0211425D01*
X0101135Y0211567D01*
X0101067Y0211710D01*
X0101003Y0211855D01*
X0100943Y0212001D01*
X0100887Y0212149D01*
X0100834Y0212298D01*
X0100785Y0212449D01*
X0100740Y0212601D01*
X0100699Y0212754D01*
X0100661Y0212907D01*
X0100628Y0213062D01*
X0100598Y0213218D01*
X0100572Y0213374D01*
X0100551Y0213531D01*
X0100533Y0213688D01*
X0100519Y0213846D01*
X0100509Y0214004D01*
X0100503Y0214162D01*
X0100501Y0214320D01*
M02*
