G75*
%MOIN*%
%OFA0B0*%
%FSLAX25Y25*%
%IPPOS*%
%LPD*%
%AMOC8*
5,1,8,0,0,1.08239X$1,22.5*
%
%ADD10R,0.02800X0.00100*%
%ADD11R,0.02400X0.00100*%
%ADD12R,0.05000X0.00100*%
%ADD13R,0.04400X0.00100*%
%ADD14R,0.06500X0.00100*%
%ADD15R,0.05600X0.00100*%
%ADD16R,0.07500X0.00100*%
%ADD17R,0.06600X0.00100*%
%ADD18R,0.08500X0.00100*%
%ADD19R,0.09400X0.00100*%
%ADD20R,0.08200X0.00100*%
%ADD21R,0.07400X0.00100*%
%ADD22R,0.10000X0.00100*%
%ADD23R,0.08900X0.00100*%
%ADD24R,0.10800X0.00100*%
%ADD25R,0.09500X0.00100*%
%ADD26R,0.11400X0.00100*%
%ADD27R,0.10100X0.00100*%
%ADD28R,0.12000X0.00100*%
%ADD29R,0.10700X0.00100*%
%ADD30R,0.12500X0.00100*%
%ADD31R,0.11100X0.00100*%
%ADD32R,0.13000X0.00100*%
%ADD33R,0.11700X0.00100*%
%ADD34R,0.13500X0.00100*%
%ADD35R,0.12100X0.00100*%
%ADD36R,0.13900X0.00100*%
%ADD37R,0.14300X0.00100*%
%ADD38R,0.12900X0.00100*%
%ADD39R,0.14700X0.00100*%
%ADD40R,0.13300X0.00100*%
%ADD41R,0.15100X0.00100*%
%ADD42R,0.13700X0.00100*%
%ADD43R,0.15500X0.00100*%
%ADD44R,0.14100X0.00100*%
%ADD45R,0.15800X0.00100*%
%ADD46R,0.14400X0.00100*%
%ADD47R,0.16100X0.00100*%
%ADD48R,0.16500X0.00100*%
%ADD49R,0.16800X0.00100*%
%ADD50R,0.15300X0.00100*%
%ADD51R,0.17100X0.00100*%
%ADD52R,0.15700X0.00100*%
%ADD53R,0.17300X0.00100*%
%ADD54R,0.15900X0.00100*%
%ADD55R,0.17600X0.00100*%
%ADD56R,0.16200X0.00100*%
%ADD57R,0.17900X0.00100*%
%ADD58R,0.18100X0.00100*%
%ADD59R,0.18300X0.00100*%
%ADD60R,0.17000X0.00100*%
%ADD61R,0.18600X0.00100*%
%ADD62R,0.17200X0.00100*%
%ADD63R,0.18800X0.00100*%
%ADD64R,0.17500X0.00100*%
%ADD65R,0.19000X0.00100*%
%ADD66R,0.17800X0.00100*%
%ADD67R,0.19200X0.00100*%
%ADD68R,0.18000X0.00100*%
%ADD69R,0.19400X0.00100*%
%ADD70R,0.18200X0.00100*%
%ADD71R,0.19600X0.00100*%
%ADD72R,0.18400X0.00100*%
%ADD73R,0.19800X0.00100*%
%ADD74R,0.20000X0.00100*%
%ADD75R,0.20200X0.00100*%
%ADD76R,0.20300X0.00100*%
%ADD77R,0.20500X0.00100*%
%ADD78R,0.20600X0.00100*%
%ADD79R,0.20800X0.00100*%
%ADD80R,0.21000X0.00100*%
%ADD81R,0.21100X0.00100*%
%ADD82R,0.21200X0.00100*%
%ADD83R,0.21400X0.00100*%
%ADD84R,0.21500X0.00100*%
%ADD85R,0.20700X0.00100*%
%ADD86R,0.21600X0.00100*%
%ADD87R,0.20900X0.00100*%
%ADD88R,0.21800X0.00100*%
%ADD89R,0.22000X0.00100*%
%ADD90R,0.21300X0.00100*%
%ADD91R,0.22100X0.00100*%
%ADD92R,0.22200X0.00100*%
%ADD93R,0.22300X0.00100*%
%ADD94R,0.22400X0.00100*%
%ADD95R,0.21900X0.00100*%
%ADD96R,0.22500X0.00100*%
%ADD97R,0.22600X0.00100*%
%ADD98R,0.22700X0.00100*%
%ADD99R,0.10200X0.00100*%
%ADD100R,0.09800X0.00100*%
%ADD101R,0.09600X0.00100*%
%ADD102R,0.09300X0.00100*%
%ADD103R,0.09100X0.00100*%
%ADD104R,0.08700X0.00100*%
%ADD105R,0.22800X0.00100*%
%ADD106R,0.22900X0.00100*%
%ADD107R,0.08300X0.00100*%
%ADD108R,0.23000X0.00100*%
%ADD109R,0.10400X0.00100*%
%ADD110R,0.08000X0.00100*%
%ADD111R,0.07900X0.00100*%
%ADD112R,0.09700X0.00100*%
%ADD113R,0.07800X0.00100*%
%ADD114R,0.07700X0.00100*%
%ADD115R,0.09200X0.00100*%
%ADD116R,0.07600X0.00100*%
%ADD117R,0.09000X0.00100*%
%ADD118R,0.08800X0.00100*%
%ADD119R,0.08600X0.00100*%
%ADD120R,0.07300X0.00100*%
%ADD121R,0.08400X0.00100*%
%ADD122R,0.08100X0.00100*%
%ADD123R,0.07200X0.00100*%
%ADD124R,0.10600X0.00100*%
%ADD125R,0.11000X0.00100*%
%ADD126R,0.11300X0.00100*%
%ADD127R,0.11600X0.00100*%
%ADD128R,0.12400X0.00100*%
%ADD129R,0.12700X0.00100*%
%ADD130R,0.13100X0.00100*%
%ADD131R,0.15000X0.00100*%
%ADD132R,0.16000X0.00100*%
%ADD133R,0.16300X0.00100*%
%ADD134R,0.16600X0.00100*%
%ADD135R,0.17400X0.00100*%
%ADD136R,0.17700X0.00100*%
%ADD137R,0.16900X0.00100*%
%ADD138R,0.16700X0.00100*%
%ADD139R,0.16400X0.00100*%
%ADD140R,0.15200X0.00100*%
%ADD141R,0.14600X0.00100*%
%ADD142R,0.14000X0.00100*%
%ADD143R,0.12600X0.00100*%
%ADD144R,0.12200X0.00100*%
%ADD145R,0.11900X0.00100*%
%ADD146R,0.11500X0.00100*%
%ADD147R,0.07100X0.00100*%
%ADD148R,0.03200X0.00100*%
%ADD149R,0.02900X0.00100*%
%ADD150R,0.02700X0.00100*%
%ADD151R,0.02600X0.00100*%
%ADD152R,0.02500X0.00100*%
%ADD153R,0.02300X0.00100*%
%ADD154R,0.00700X0.00100*%
%ADD155R,0.02200X0.00100*%
%ADD156R,0.01400X0.00100*%
%ADD157R,0.02100X0.00100*%
%ADD158R,0.01600X0.00100*%
%ADD159R,0.02000X0.00100*%
%ADD160R,0.01900X0.00100*%
%ADD161R,0.01800X0.00100*%
%ADD162R,0.01000X0.00100*%
%ADD163R,0.00800X0.00100*%
%ADD164R,0.00900X0.00100*%
%ADD165R,0.01700X0.00100*%
%ADD166R,0.23200X0.00100*%
%ADD167R,0.23100X0.00100*%
%ADD168R,0.00600X0.00100*%
%ADD169R,0.20400X0.00100*%
%ADD170R,0.20100X0.00100*%
%ADD171R,0.01200X0.00100*%
%ADD172R,0.19900X0.00100*%
%ADD173R,0.19700X0.00100*%
%ADD174R,0.19300X0.00100*%
%ADD175R,0.19500X0.00100*%
%ADD176R,0.19100X0.00100*%
%ADD177R,0.18900X0.00100*%
%ADD178R,0.06100X0.00100*%
%ADD179R,0.05900X0.00100*%
%ADD180R,0.18700X0.00100*%
%ADD181R,0.05700X0.00100*%
%ADD182R,0.05500X0.00100*%
%ADD183R,0.05300X0.00100*%
%ADD184R,0.05200X0.00100*%
%ADD185R,0.04900X0.00100*%
%ADD186R,0.04800X0.00100*%
%ADD187R,0.04500X0.00100*%
%ADD188R,0.04100X0.00100*%
%ADD189R,0.15600X0.00100*%
%ADD190R,0.13600X0.00100*%
%ADD191R,0.13200X0.00100*%
%ADD192R,0.12800X0.00100*%
%ADD193R,0.12300X0.00100*%
%ADD194R,0.10900X0.00100*%
%ADD195R,0.10500X0.00100*%
%ADD196R,0.10300X0.00100*%
%ADD197R,0.09900X0.00100*%
%ADD198R,0.06800X0.00100*%
%ADD199R,0.06400X0.00100*%
%ADD200R,0.05800X0.00100*%
%ADD201R,0.05400X0.00100*%
%ADD202R,0.00200X0.00100*%
%ADD203R,0.04200X0.00100*%
%ADD204R,0.00300X0.00100*%
%ADD205R,0.00500X0.00100*%
%ADD206R,0.00100X0.00100*%
%ADD207R,0.00400X0.00100*%
%ADD208R,0.01100X0.00100*%
%ADD209R,0.01300X0.00100*%
%ADD210R,0.01500X0.00100*%
%ADD211R,0.03000X0.00100*%
%ADD212R,0.03100X0.00100*%
%ADD213R,0.03500X0.00100*%
%ADD214R,0.04000X0.00100*%
%ADD215R,0.04600X0.00100*%
%ADD216R,0.03300X0.00100*%
%ADD217R,0.03900X0.00100*%
%ADD218R,0.03600X0.00100*%
%ADD219R,0.04300X0.00100*%
%ADD220R,0.03400X0.00100*%
%ADD221R,0.03800X0.00100*%
%ADD222R,0.03700X0.00100*%
%ADD223R,0.05100X0.00100*%
%ADD224R,0.04700X0.00100*%
%ADD225R,0.06900X0.00100*%
%ADD226R,0.06200X0.00100*%
%ADD227C,0.00400*%
%ADD228C,0.00600*%
%ADD229C,0.01200*%
%ADD230C,0.00100*%
%ADD231C,0.00800*%
%ADD232C,0.00200*%
%ADD233C,0.00500*%
%ADD234C,0.00300*%
D10*
X0041550Y0142520D03*
X0020050Y0163920D03*
X0042950Y0177620D03*
X0046350Y0181720D03*
D11*
X0045950Y0184720D03*
X0042850Y0184720D03*
X0029950Y0183220D03*
X0030150Y0188620D03*
X0017150Y0180420D03*
X0020450Y0167720D03*
X0019150Y0165920D03*
X0019150Y0165820D03*
X0019150Y0165720D03*
X0019750Y0164320D03*
X0022450Y0166620D03*
X0024450Y0167720D03*
X0024950Y0164120D03*
X0042650Y0177220D03*
X0070050Y0142520D03*
D12*
X0041550Y0142620D03*
X0044350Y0185120D03*
D13*
X0044350Y0185420D03*
X0041550Y0171320D03*
X0022850Y0169020D03*
X0016850Y0182320D03*
X0070050Y0142620D03*
D14*
X0041600Y0142720D03*
X0045100Y0181020D03*
X0044900Y0181320D03*
X0044800Y0181420D03*
X0044700Y0181520D03*
D15*
X0022550Y0168320D03*
X0070050Y0142720D03*
D16*
X0070100Y0142920D03*
X0078600Y0151420D03*
X0078700Y0151620D03*
X0078700Y0151720D03*
X0078700Y0151820D03*
X0078800Y0151920D03*
X0078800Y0152020D03*
X0078900Y0162120D03*
X0078900Y0162220D03*
X0078800Y0162420D03*
X0060600Y0161620D03*
X0060500Y0161420D03*
X0060500Y0161320D03*
X0060400Y0161220D03*
X0060400Y0161120D03*
X0060400Y0161020D03*
X0060300Y0160820D03*
X0048900Y0164020D03*
X0048900Y0164120D03*
X0048800Y0164220D03*
X0034200Y0164720D03*
X0034100Y0164620D03*
X0034000Y0162720D03*
X0034000Y0162620D03*
X0049900Y0151820D03*
X0049900Y0151720D03*
X0049700Y0149620D03*
X0049600Y0149420D03*
X0041600Y0142820D03*
X0033400Y0150320D03*
X0033300Y0150520D03*
X0033300Y0150620D03*
X0033300Y0150720D03*
X0033200Y0151020D03*
X0060300Y0153120D03*
X0060400Y0152920D03*
X0060400Y0152820D03*
X0060400Y0152720D03*
X0060500Y0152620D03*
X0060500Y0152520D03*
X0060600Y0152320D03*
X0045800Y0179820D03*
X0045400Y0180220D03*
D17*
X0045050Y0181120D03*
X0044950Y0181220D03*
X0070050Y0142820D03*
D18*
X0077600Y0149720D03*
X0077700Y0149820D03*
X0077900Y0164120D03*
X0077800Y0164220D03*
X0048100Y0165220D03*
X0034900Y0165520D03*
X0046100Y0178920D03*
X0049300Y0152920D03*
X0048900Y0148620D03*
X0041600Y0142920D03*
X0034300Y0148820D03*
X0034200Y0148920D03*
D19*
X0034850Y0148420D03*
X0041650Y0143020D03*
X0048850Y0153320D03*
X0035150Y0161320D03*
X0076950Y0149120D03*
D20*
X0077850Y0150020D03*
X0077950Y0150120D03*
X0070050Y0143020D03*
X0061650Y0150320D03*
X0049550Y0152620D03*
X0049450Y0152720D03*
X0049150Y0148820D03*
X0034050Y0149120D03*
X0033950Y0149220D03*
X0034350Y0162020D03*
X0034750Y0165420D03*
X0061650Y0163620D03*
X0078050Y0163920D03*
X0078150Y0163820D03*
D21*
X0078950Y0162020D03*
X0078950Y0161920D03*
X0078950Y0161820D03*
X0078950Y0161720D03*
X0079050Y0161620D03*
X0079050Y0161520D03*
X0079050Y0161420D03*
X0079050Y0161320D03*
X0079050Y0153320D03*
X0078950Y0152720D03*
X0078950Y0152620D03*
X0078950Y0152520D03*
X0078850Y0152320D03*
X0078850Y0152220D03*
X0078850Y0152120D03*
X0060350Y0153020D03*
X0060250Y0153220D03*
X0060250Y0153320D03*
X0060250Y0153420D03*
X0060250Y0153520D03*
X0060150Y0153620D03*
X0060150Y0153720D03*
X0060150Y0153820D03*
X0060050Y0154120D03*
X0060050Y0154220D03*
X0060050Y0154320D03*
X0059950Y0154820D03*
X0059950Y0159120D03*
X0060050Y0159620D03*
X0060050Y0159720D03*
X0060050Y0159820D03*
X0060150Y0160120D03*
X0060150Y0160220D03*
X0060150Y0160320D03*
X0060250Y0160420D03*
X0060250Y0160520D03*
X0060250Y0160620D03*
X0060250Y0160720D03*
X0060350Y0160920D03*
X0049050Y0163420D03*
X0048950Y0163720D03*
X0048950Y0163820D03*
X0048950Y0163920D03*
X0034050Y0164420D03*
X0034050Y0164520D03*
X0033950Y0162920D03*
X0033950Y0162820D03*
X0022450Y0162820D03*
X0022450Y0162920D03*
X0022450Y0163020D03*
X0022450Y0163120D03*
X0022450Y0163220D03*
X0022450Y0163320D03*
X0022450Y0163420D03*
X0022450Y0163520D03*
X0022450Y0163620D03*
X0022450Y0162720D03*
X0022450Y0162620D03*
X0022450Y0162520D03*
X0022450Y0162420D03*
X0022450Y0162320D03*
X0022450Y0162220D03*
X0022450Y0162120D03*
X0022450Y0162020D03*
X0022450Y0161920D03*
X0022450Y0161820D03*
X0022450Y0161720D03*
X0022450Y0161620D03*
X0022450Y0161520D03*
X0022450Y0161420D03*
X0022450Y0161320D03*
X0022450Y0161220D03*
X0022450Y0161120D03*
X0022450Y0161020D03*
X0022450Y0160920D03*
X0022450Y0160820D03*
X0022450Y0160720D03*
X0022450Y0160620D03*
X0022450Y0160520D03*
X0022450Y0160420D03*
X0022450Y0160320D03*
X0022450Y0160220D03*
X0022450Y0160120D03*
X0022450Y0160020D03*
X0022450Y0159920D03*
X0022450Y0159820D03*
X0022450Y0159720D03*
X0022450Y0159620D03*
X0022450Y0159520D03*
X0022450Y0159420D03*
X0022450Y0159320D03*
X0022450Y0159220D03*
X0022450Y0159120D03*
X0022450Y0159020D03*
X0022450Y0158920D03*
X0022450Y0158820D03*
X0022450Y0158720D03*
X0022450Y0158620D03*
X0022450Y0158520D03*
X0022450Y0158420D03*
X0022450Y0158320D03*
X0022450Y0158220D03*
X0022450Y0158120D03*
X0022450Y0158020D03*
X0022450Y0157920D03*
X0022450Y0157820D03*
X0022450Y0157720D03*
X0022450Y0157620D03*
X0022450Y0157520D03*
X0022450Y0157420D03*
X0022450Y0157320D03*
X0022450Y0157220D03*
X0022450Y0157120D03*
X0022450Y0157020D03*
X0022450Y0156920D03*
X0022450Y0156820D03*
X0022450Y0156720D03*
X0022450Y0156620D03*
X0022450Y0156520D03*
X0022450Y0156420D03*
X0022450Y0156320D03*
X0022450Y0156220D03*
X0022450Y0156120D03*
X0022450Y0156020D03*
X0022450Y0155920D03*
X0022450Y0155820D03*
X0022450Y0155720D03*
X0022450Y0155620D03*
X0022450Y0155520D03*
X0022450Y0155420D03*
X0022450Y0155320D03*
X0022450Y0155220D03*
X0022450Y0155120D03*
X0022450Y0155020D03*
X0022450Y0154920D03*
X0022450Y0154820D03*
X0022450Y0154720D03*
X0022450Y0154620D03*
X0022450Y0154520D03*
X0022450Y0154420D03*
X0022450Y0154320D03*
X0022450Y0154220D03*
X0022450Y0154120D03*
X0022450Y0154020D03*
X0022450Y0153920D03*
X0022450Y0153820D03*
X0022450Y0153720D03*
X0022450Y0153620D03*
X0022450Y0153520D03*
X0022450Y0153420D03*
X0022450Y0153320D03*
X0022450Y0153220D03*
X0022450Y0153120D03*
X0022450Y0153020D03*
X0022450Y0152920D03*
X0022450Y0152820D03*
X0022450Y0152720D03*
X0022450Y0152620D03*
X0022450Y0152520D03*
X0022450Y0152420D03*
X0022450Y0152320D03*
X0022450Y0152220D03*
X0022450Y0152120D03*
X0022450Y0152020D03*
X0022450Y0151920D03*
X0022450Y0151820D03*
X0022450Y0151720D03*
X0022450Y0151620D03*
X0022450Y0151520D03*
X0022450Y0151420D03*
X0022450Y0151320D03*
X0022450Y0151220D03*
X0022450Y0151120D03*
X0022450Y0151020D03*
X0022450Y0150920D03*
X0022450Y0150820D03*
X0022450Y0150720D03*
X0022450Y0150620D03*
X0022450Y0150520D03*
X0022450Y0150420D03*
X0022450Y0150320D03*
X0022450Y0150220D03*
X0022450Y0150120D03*
X0022450Y0150020D03*
X0022450Y0149920D03*
X0022450Y0149820D03*
X0022450Y0149720D03*
X0022450Y0149620D03*
X0022450Y0149520D03*
X0022450Y0149420D03*
X0022450Y0149320D03*
X0022450Y0149220D03*
X0022450Y0149120D03*
X0022450Y0149020D03*
X0022450Y0148920D03*
X0022450Y0148820D03*
X0022450Y0148720D03*
X0022450Y0148620D03*
X0022450Y0148520D03*
X0022450Y0148420D03*
X0022450Y0148320D03*
X0022450Y0148220D03*
X0022450Y0148120D03*
X0022450Y0148020D03*
X0022450Y0147920D03*
X0022450Y0147820D03*
X0022450Y0147720D03*
X0022450Y0147620D03*
X0022450Y0147520D03*
X0022450Y0147420D03*
X0022450Y0147320D03*
X0022450Y0147220D03*
X0022450Y0147120D03*
X0022450Y0147020D03*
X0022450Y0146920D03*
X0022450Y0146820D03*
X0022450Y0146720D03*
X0022450Y0146620D03*
X0022450Y0146520D03*
X0022450Y0146420D03*
X0022450Y0146320D03*
X0022450Y0146220D03*
X0022450Y0146120D03*
X0022450Y0146020D03*
X0022450Y0145920D03*
X0022450Y0145820D03*
X0022450Y0145720D03*
X0022450Y0145620D03*
X0022450Y0145520D03*
X0022450Y0145420D03*
X0022450Y0145320D03*
X0022450Y0145220D03*
X0022450Y0145120D03*
X0022450Y0145020D03*
X0022450Y0144920D03*
X0022450Y0144820D03*
X0022450Y0144720D03*
X0022450Y0144620D03*
X0022450Y0144520D03*
X0022450Y0144420D03*
X0022450Y0144320D03*
X0022450Y0144220D03*
X0022450Y0144120D03*
X0022450Y0144020D03*
X0022450Y0143920D03*
X0022450Y0143820D03*
X0022450Y0143720D03*
X0022450Y0143620D03*
X0022450Y0143520D03*
X0022450Y0143420D03*
X0022450Y0143320D03*
X0022450Y0143220D03*
X0022450Y0143120D03*
X0033250Y0150820D03*
X0033250Y0150920D03*
X0033150Y0151120D03*
X0033150Y0151220D03*
X0033150Y0151320D03*
X0033150Y0151420D03*
X0049750Y0149820D03*
X0049750Y0149720D03*
X0049850Y0150020D03*
X0049950Y0151520D03*
X0049950Y0151620D03*
X0045750Y0179920D03*
D22*
X0063250Y0165020D03*
X0063250Y0148920D03*
X0076550Y0148920D03*
X0041650Y0143120D03*
D23*
X0048600Y0148420D03*
X0049100Y0153120D03*
X0034500Y0148620D03*
X0070100Y0143120D03*
X0077300Y0149420D03*
X0077600Y0164420D03*
X0077500Y0164520D03*
X0046200Y0178520D03*
X0046200Y0178620D03*
X0044400Y0180520D03*
D24*
X0041650Y0143220D03*
D25*
X0048700Y0153420D03*
X0062900Y0149120D03*
X0070100Y0143220D03*
X0077100Y0164820D03*
X0062900Y0164820D03*
D26*
X0041650Y0143320D03*
D27*
X0048400Y0153620D03*
X0035500Y0161120D03*
X0070100Y0143320D03*
X0076700Y0165020D03*
D28*
X0047250Y0154220D03*
X0041650Y0143420D03*
D29*
X0070100Y0143420D03*
X0035900Y0160920D03*
D30*
X0041700Y0143520D03*
X0070100Y0143820D03*
D31*
X0070100Y0143520D03*
X0036100Y0160820D03*
D32*
X0037150Y0160320D03*
X0041650Y0143620D03*
D33*
X0070100Y0143620D03*
D34*
X0046400Y0154620D03*
X0041700Y0143720D03*
D35*
X0070100Y0143720D03*
D36*
X0041700Y0143820D03*
X0070000Y0169720D03*
D37*
X0070000Y0169620D03*
X0041700Y0143920D03*
D38*
X0070100Y0143920D03*
D39*
X0070100Y0144420D03*
X0045600Y0155020D03*
X0041700Y0144020D03*
D40*
X0037400Y0160220D03*
X0070100Y0144020D03*
D41*
X0070100Y0144520D03*
X0041700Y0144120D03*
D42*
X0046200Y0154720D03*
X0037600Y0160120D03*
X0070100Y0144120D03*
D43*
X0045000Y0155320D03*
X0038800Y0159520D03*
X0041700Y0144220D03*
D44*
X0046000Y0154820D03*
X0070100Y0144220D03*
D45*
X0044850Y0155420D03*
X0041650Y0144320D03*
X0041450Y0169220D03*
X0070050Y0169120D03*
D46*
X0045750Y0154920D03*
X0038050Y0159920D03*
X0041450Y0169720D03*
X0070050Y0144320D03*
D47*
X0041700Y0144420D03*
D48*
X0041700Y0144520D03*
X0044300Y0155720D03*
X0070100Y0145020D03*
D49*
X0070050Y0145120D03*
X0043950Y0155920D03*
X0039850Y0158920D03*
X0041650Y0144620D03*
X0070050Y0168820D03*
D50*
X0045200Y0155220D03*
X0041500Y0169420D03*
X0070100Y0144620D03*
D51*
X0041700Y0144720D03*
X0043700Y0156120D03*
D52*
X0039000Y0159420D03*
X0070100Y0144720D03*
D53*
X0041700Y0144820D03*
X0043500Y0156220D03*
X0040300Y0158620D03*
D54*
X0070100Y0144820D03*
D55*
X0041650Y0144920D03*
X0043150Y0156520D03*
X0040750Y0158320D03*
X0041450Y0168520D03*
D56*
X0041450Y0169120D03*
X0039350Y0159220D03*
X0070050Y0169020D03*
X0070050Y0144920D03*
D57*
X0041700Y0145020D03*
X0042700Y0156820D03*
X0042600Y0156920D03*
X0042300Y0157120D03*
X0041400Y0157820D03*
X0041300Y0157920D03*
D58*
X0041700Y0145120D03*
D59*
X0041700Y0145220D03*
D60*
X0043850Y0156020D03*
X0070050Y0145220D03*
X0070050Y0168720D03*
D61*
X0041450Y0168020D03*
X0041650Y0145320D03*
X0070050Y0145920D03*
D62*
X0070050Y0145320D03*
X0040150Y0158720D03*
X0041450Y0168720D03*
X0070050Y0168620D03*
D63*
X0041450Y0167920D03*
X0041650Y0145420D03*
X0070050Y0146020D03*
D64*
X0070100Y0145420D03*
X0043200Y0156420D03*
X0040600Y0158420D03*
X0070100Y0168520D03*
D65*
X0070050Y0146120D03*
X0041650Y0145520D03*
D66*
X0042850Y0156720D03*
X0041150Y0158020D03*
X0041450Y0168420D03*
X0070050Y0168420D03*
X0070050Y0145520D03*
D67*
X0070050Y0146220D03*
X0041650Y0145620D03*
D68*
X0042450Y0157020D03*
X0042150Y0157220D03*
X0042050Y0157320D03*
X0041950Y0157420D03*
X0041750Y0157520D03*
X0041650Y0157620D03*
X0041550Y0157720D03*
X0041450Y0168320D03*
X0070050Y0168320D03*
X0070050Y0145620D03*
D69*
X0070050Y0146320D03*
X0041650Y0145720D03*
X0041450Y0167520D03*
D70*
X0041450Y0168220D03*
X0070050Y0168220D03*
X0070050Y0145720D03*
D71*
X0070050Y0146420D03*
X0041650Y0145820D03*
X0041450Y0167420D03*
D72*
X0041450Y0168120D03*
X0070050Y0168120D03*
X0070050Y0145820D03*
D73*
X0070050Y0146520D03*
X0041650Y0145920D03*
D74*
X0041650Y0146020D03*
X0070050Y0146620D03*
X0041450Y0167120D03*
D75*
X0070050Y0146720D03*
X0041650Y0146120D03*
D76*
X0041700Y0146220D03*
X0070000Y0146820D03*
X0070100Y0167220D03*
X0041400Y0166920D03*
D77*
X0041400Y0166720D03*
X0041700Y0146320D03*
X0070000Y0146920D03*
D78*
X0041650Y0146420D03*
X0041450Y0166620D03*
X0070050Y0167020D03*
D79*
X0070050Y0166920D03*
X0041450Y0166420D03*
X0041650Y0146520D03*
D80*
X0041650Y0146620D03*
X0069950Y0147220D03*
X0070050Y0166820D03*
X0041450Y0166220D03*
D81*
X0041400Y0166120D03*
X0041700Y0146720D03*
X0070000Y0147320D03*
D82*
X0041650Y0146820D03*
X0041450Y0166020D03*
X0070050Y0166720D03*
D83*
X0070050Y0166520D03*
X0041450Y0165820D03*
X0041650Y0146920D03*
D84*
X0041700Y0147020D03*
X0070000Y0147520D03*
D85*
X0070000Y0147020D03*
X0041400Y0166520D03*
D86*
X0070050Y0166420D03*
X0069950Y0147620D03*
X0041650Y0147120D03*
D87*
X0070000Y0147120D03*
X0041400Y0166320D03*
D88*
X0070050Y0166320D03*
X0069950Y0147720D03*
X0041650Y0147320D03*
X0041650Y0147220D03*
D89*
X0041650Y0147420D03*
X0069950Y0147920D03*
X0070050Y0166120D03*
X0070050Y0166220D03*
D90*
X0070100Y0166620D03*
X0041400Y0165920D03*
X0070000Y0147420D03*
D91*
X0041600Y0147520D03*
D92*
X0041650Y0147620D03*
X0069950Y0148020D03*
X0070050Y0166020D03*
D93*
X0069900Y0148120D03*
X0041600Y0147720D03*
D94*
X0041650Y0147820D03*
X0069950Y0148220D03*
X0070050Y0165920D03*
D95*
X0070000Y0147820D03*
D96*
X0041600Y0147920D03*
X0070000Y0165820D03*
D97*
X0070050Y0165720D03*
X0069950Y0148320D03*
X0041650Y0148020D03*
D98*
X0041600Y0148120D03*
X0069900Y0148420D03*
X0070000Y0165620D03*
D99*
X0035350Y0148220D03*
D100*
X0048150Y0148220D03*
X0048550Y0153520D03*
X0047250Y0165720D03*
D101*
X0035050Y0148320D03*
X0076750Y0149020D03*
D102*
X0077200Y0164720D03*
X0070000Y0170720D03*
X0047500Y0165620D03*
X0035000Y0161420D03*
X0048400Y0148320D03*
D103*
X0049000Y0153220D03*
X0062600Y0149320D03*
X0077200Y0149320D03*
X0062600Y0164620D03*
X0047700Y0165520D03*
X0041500Y0170820D03*
X0035300Y0165720D03*
X0034700Y0148520D03*
D104*
X0034400Y0148720D03*
X0048800Y0148520D03*
X0049200Y0153020D03*
X0077400Y0149520D03*
X0077700Y0164320D03*
X0070000Y0170820D03*
D105*
X0069950Y0148520D03*
D106*
X0069900Y0148620D03*
X0070000Y0165520D03*
D107*
X0061800Y0163820D03*
X0061700Y0163720D03*
X0048200Y0165120D03*
X0034400Y0161920D03*
X0034100Y0149020D03*
X0049000Y0148720D03*
X0061700Y0150220D03*
X0061800Y0150120D03*
X0077800Y0149920D03*
X0046000Y0179120D03*
X0044800Y0180420D03*
D108*
X0070050Y0165420D03*
X0069950Y0148720D03*
D109*
X0076250Y0148820D03*
X0063550Y0148820D03*
X0048250Y0153720D03*
X0035650Y0161020D03*
X0063550Y0165120D03*
X0043450Y0180820D03*
D110*
X0061350Y0163220D03*
X0061450Y0163320D03*
X0069950Y0170920D03*
X0078250Y0163620D03*
X0078350Y0163520D03*
X0078150Y0150420D03*
X0078050Y0150320D03*
X0061450Y0150620D03*
X0061350Y0150720D03*
X0049650Y0152420D03*
X0049250Y0148920D03*
X0033850Y0149320D03*
X0033750Y0149520D03*
X0034250Y0162120D03*
D111*
X0034200Y0162220D03*
X0034500Y0165220D03*
X0048500Y0164820D03*
X0061200Y0163020D03*
X0061200Y0162920D03*
X0061300Y0163120D03*
X0078400Y0163320D03*
X0078400Y0163420D03*
X0078500Y0163220D03*
X0078300Y0150720D03*
X0078200Y0150520D03*
X0061300Y0150820D03*
X0061200Y0150920D03*
X0061200Y0151020D03*
X0049700Y0152320D03*
X0049300Y0149020D03*
X0033800Y0149420D03*
X0033700Y0149620D03*
X0045900Y0179420D03*
X0045900Y0179520D03*
D112*
X0043800Y0180720D03*
X0041500Y0170720D03*
X0035300Y0161220D03*
X0063100Y0164920D03*
X0076900Y0164920D03*
X0063100Y0149020D03*
D113*
X0061150Y0151120D03*
X0061050Y0151220D03*
X0061050Y0151320D03*
X0049750Y0152220D03*
X0049450Y0149120D03*
X0033650Y0149720D03*
X0033550Y0149920D03*
X0034150Y0162320D03*
X0034350Y0165020D03*
X0034450Y0165120D03*
X0048550Y0164720D03*
X0061050Y0162720D03*
X0061050Y0162620D03*
X0061150Y0162820D03*
X0078550Y0163020D03*
X0078550Y0163120D03*
X0078350Y0150820D03*
X0078250Y0150620D03*
X0045150Y0180320D03*
D114*
X0045900Y0179620D03*
X0048600Y0164620D03*
X0048700Y0164520D03*
X0048700Y0164420D03*
X0060800Y0162120D03*
X0060900Y0162320D03*
X0060900Y0162420D03*
X0061000Y0162520D03*
X0060800Y0151820D03*
X0060800Y0151720D03*
X0060900Y0151620D03*
X0060900Y0151520D03*
X0061000Y0151420D03*
X0049800Y0152120D03*
X0049500Y0149220D03*
X0033600Y0149820D03*
X0033500Y0150020D03*
X0034100Y0162420D03*
X0034300Y0164920D03*
X0078600Y0162920D03*
X0078700Y0162820D03*
X0078700Y0162720D03*
X0078500Y0151220D03*
X0078500Y0151120D03*
X0078400Y0151020D03*
X0078400Y0150920D03*
D115*
X0077050Y0149220D03*
X0062750Y0149220D03*
X0062750Y0164720D03*
X0077350Y0164620D03*
X0044150Y0180620D03*
D116*
X0045850Y0179720D03*
X0041550Y0171020D03*
X0034250Y0164820D03*
X0034050Y0162520D03*
X0048750Y0164320D03*
X0060550Y0161520D03*
X0060650Y0161720D03*
X0060650Y0161820D03*
X0060750Y0161920D03*
X0060750Y0162020D03*
X0060850Y0162220D03*
X0060550Y0152420D03*
X0060650Y0152220D03*
X0060650Y0152120D03*
X0060750Y0152020D03*
X0060750Y0151920D03*
X0049850Y0151920D03*
X0049850Y0152020D03*
X0049650Y0149520D03*
X0049550Y0149320D03*
X0033450Y0150120D03*
X0033450Y0150220D03*
X0033350Y0150420D03*
X0078550Y0151320D03*
X0078650Y0151520D03*
X0078850Y0162320D03*
X0078750Y0162520D03*
X0078750Y0162620D03*
D117*
X0062450Y0164520D03*
X0062450Y0149420D03*
X0034850Y0161520D03*
D118*
X0034750Y0161620D03*
X0035050Y0165620D03*
X0047850Y0165420D03*
X0062250Y0164320D03*
X0062350Y0164420D03*
X0062250Y0149620D03*
X0062350Y0149520D03*
X0046150Y0178720D03*
D119*
X0046150Y0178820D03*
X0047950Y0165320D03*
X0062050Y0164120D03*
X0062150Y0164220D03*
X0062050Y0149820D03*
X0062150Y0149720D03*
X0077550Y0149620D03*
X0034650Y0161720D03*
D120*
X0033900Y0163020D03*
X0033900Y0163120D03*
X0033900Y0163220D03*
X0033900Y0163320D03*
X0033900Y0163420D03*
X0033900Y0163520D03*
X0033900Y0163620D03*
X0033900Y0163720D03*
X0033900Y0163820D03*
X0033900Y0163920D03*
X0033900Y0164020D03*
X0034000Y0164120D03*
X0034000Y0164220D03*
X0034000Y0164320D03*
X0049000Y0163620D03*
X0049000Y0163520D03*
X0049100Y0163320D03*
X0049100Y0163220D03*
X0049100Y0163120D03*
X0049100Y0163020D03*
X0049100Y0162920D03*
X0049100Y0162820D03*
X0049100Y0162720D03*
X0049100Y0162620D03*
X0049100Y0162520D03*
X0060100Y0160020D03*
X0060100Y0159920D03*
X0060000Y0159520D03*
X0060000Y0159420D03*
X0060000Y0159320D03*
X0060000Y0159220D03*
X0059900Y0159020D03*
X0059900Y0158920D03*
X0059900Y0158820D03*
X0059900Y0158720D03*
X0059900Y0158620D03*
X0059900Y0158520D03*
X0059900Y0158420D03*
X0059900Y0158320D03*
X0059900Y0158220D03*
X0059800Y0158120D03*
X0059800Y0158020D03*
X0059800Y0157920D03*
X0059800Y0157820D03*
X0059800Y0157720D03*
X0059800Y0157620D03*
X0059800Y0157520D03*
X0059800Y0157420D03*
X0059800Y0157320D03*
X0059800Y0157220D03*
X0059800Y0157120D03*
X0059800Y0157020D03*
X0059800Y0156920D03*
X0059800Y0156820D03*
X0059800Y0156720D03*
X0059800Y0156620D03*
X0059800Y0156520D03*
X0059800Y0156420D03*
X0059800Y0156320D03*
X0059800Y0156220D03*
X0059800Y0156120D03*
X0059800Y0156020D03*
X0059800Y0155920D03*
X0059800Y0155820D03*
X0059900Y0155620D03*
X0059900Y0155520D03*
X0059900Y0155420D03*
X0059900Y0155320D03*
X0059900Y0155220D03*
X0059900Y0155120D03*
X0059900Y0155020D03*
X0059900Y0154920D03*
X0060000Y0154720D03*
X0060000Y0154620D03*
X0060000Y0154520D03*
X0060000Y0154420D03*
X0060100Y0154020D03*
X0060100Y0153920D03*
X0050000Y0151420D03*
X0050000Y0151320D03*
X0050000Y0151220D03*
X0050000Y0151120D03*
X0050000Y0151020D03*
X0050000Y0150920D03*
X0050000Y0150820D03*
X0049900Y0150320D03*
X0049900Y0150220D03*
X0049900Y0150120D03*
X0049800Y0149920D03*
X0033100Y0151520D03*
X0033100Y0151620D03*
X0033100Y0151720D03*
X0033100Y0151820D03*
X0033100Y0151920D03*
X0033100Y0152020D03*
X0033100Y0152120D03*
X0033100Y0152220D03*
X0033100Y0152320D03*
X0078900Y0152420D03*
X0079000Y0152820D03*
X0079000Y0152920D03*
X0079000Y0153020D03*
X0079000Y0153120D03*
X0079000Y0153220D03*
X0079100Y0153420D03*
X0079100Y0153520D03*
X0079100Y0153620D03*
X0079100Y0153720D03*
X0079100Y0153820D03*
X0079100Y0161020D03*
X0079100Y0161120D03*
X0079100Y0161220D03*
D121*
X0077950Y0164020D03*
X0061950Y0164020D03*
X0061850Y0163920D03*
X0049350Y0152820D03*
X0061850Y0150020D03*
X0061950Y0149920D03*
X0034550Y0161820D03*
X0041550Y0170920D03*
X0046050Y0179020D03*
D122*
X0046000Y0179220D03*
X0046000Y0179320D03*
X0048300Y0165020D03*
X0048400Y0164920D03*
X0061500Y0163420D03*
X0061600Y0163520D03*
X0078200Y0163720D03*
X0078000Y0150220D03*
X0061600Y0150420D03*
X0061500Y0150520D03*
X0049600Y0152520D03*
X0034600Y0165320D03*
D123*
X0033050Y0152420D03*
X0049950Y0150720D03*
X0049950Y0150620D03*
X0049950Y0150520D03*
X0049950Y0150420D03*
X0059850Y0155720D03*
X0069950Y0171020D03*
X0045750Y0180020D03*
X0045650Y0180120D03*
D124*
X0043150Y0180920D03*
X0076350Y0165120D03*
X0048050Y0153820D03*
D125*
X0047850Y0153920D03*
D126*
X0047700Y0154020D03*
D127*
X0047450Y0154120D03*
D128*
X0047050Y0154320D03*
X0041450Y0170220D03*
D129*
X0046800Y0154420D03*
D130*
X0046600Y0154520D03*
D131*
X0045350Y0155120D03*
X0038450Y0159720D03*
X0041450Y0169520D03*
X0070050Y0169420D03*
D132*
X0044650Y0155520D03*
X0039150Y0159320D03*
D133*
X0044500Y0155620D03*
D134*
X0044150Y0155820D03*
X0041450Y0168920D03*
D135*
X0041450Y0168620D03*
X0040450Y0158520D03*
X0043350Y0156320D03*
D136*
X0043000Y0156620D03*
X0041000Y0158120D03*
X0040900Y0158220D03*
D137*
X0040000Y0158820D03*
X0041400Y0168820D03*
D138*
X0039700Y0159020D03*
D139*
X0039550Y0159120D03*
X0041450Y0169020D03*
X0070050Y0168920D03*
D140*
X0070050Y0169320D03*
X0038650Y0159620D03*
D141*
X0038250Y0159820D03*
X0041450Y0169620D03*
X0070050Y0169520D03*
D142*
X0041450Y0169820D03*
X0037850Y0160020D03*
D143*
X0036950Y0160420D03*
D144*
X0036750Y0160520D03*
D145*
X0036500Y0160620D03*
X0041500Y0170320D03*
X0070000Y0170220D03*
D146*
X0070000Y0170320D03*
X0041500Y0170420D03*
X0036300Y0160720D03*
D147*
X0079100Y0160920D03*
D148*
X0024550Y0163720D03*
X0020350Y0163720D03*
D149*
X0020200Y0163820D03*
X0024700Y0163820D03*
X0022600Y0169220D03*
X0033200Y0182220D03*
X0043000Y0177820D03*
X0043000Y0177720D03*
X0049400Y0178120D03*
X0030100Y0188520D03*
D150*
X0042700Y0181720D03*
X0042800Y0181620D03*
X0024800Y0163920D03*
D151*
X0024250Y0167820D03*
X0020650Y0167820D03*
X0019950Y0164020D03*
X0042750Y0177420D03*
X0042850Y0177520D03*
D152*
X0042700Y0177320D03*
X0046400Y0181820D03*
X0049500Y0178020D03*
X0041600Y0171420D03*
X0024900Y0164020D03*
X0019900Y0164120D03*
X0019800Y0164220D03*
X0017200Y0177120D03*
X0022200Y0177820D03*
X0016600Y0182720D03*
D153*
X0029900Y0186520D03*
X0042400Y0181920D03*
X0042500Y0181820D03*
X0042600Y0177120D03*
X0042500Y0177020D03*
X0022600Y0169320D03*
X0019200Y0165620D03*
X0019200Y0165520D03*
X0019200Y0165420D03*
X0019600Y0164520D03*
X0019600Y0164420D03*
X0022400Y0164820D03*
X0025000Y0164220D03*
X0070000Y0171420D03*
D154*
X0049200Y0174320D03*
X0049200Y0174520D03*
X0049200Y0174620D03*
X0049100Y0174120D03*
X0044600Y0172820D03*
X0044500Y0172920D03*
X0044400Y0173020D03*
X0043900Y0182620D03*
X0043900Y0183820D03*
X0033600Y0184320D03*
X0033600Y0184520D03*
X0033600Y0185420D03*
X0033600Y0185520D03*
X0031200Y0186120D03*
X0031100Y0186220D03*
X0028800Y0186220D03*
X0028600Y0186120D03*
X0028600Y0183620D03*
X0028700Y0183520D03*
X0031000Y0183420D03*
X0031100Y0183520D03*
X0031300Y0183720D03*
X0020700Y0179620D03*
X0020800Y0179320D03*
X0020900Y0179020D03*
X0021000Y0178720D03*
X0021200Y0178220D03*
X0021300Y0178020D03*
X0021900Y0176420D03*
X0022000Y0176120D03*
X0022100Y0175820D03*
X0022400Y0175120D03*
X0022400Y0175020D03*
X0022500Y0174820D03*
X0022500Y0174720D03*
X0022600Y0174520D03*
X0022700Y0174220D03*
X0022900Y0173720D03*
X0023000Y0173420D03*
X0023100Y0173120D03*
X0023300Y0172720D03*
X0023400Y0172420D03*
X0023500Y0172220D03*
X0023500Y0172120D03*
X0023600Y0171920D03*
X0023600Y0171820D03*
X0023700Y0171620D03*
X0023900Y0171120D03*
X0024000Y0170820D03*
X0024100Y0170520D03*
X0024200Y0170220D03*
X0024400Y0169720D03*
X0024500Y0169420D03*
X0024600Y0169220D03*
X0022400Y0167220D03*
X0023400Y0166420D03*
X0023500Y0166320D03*
X0023500Y0166220D03*
X0023600Y0166120D03*
X0023600Y0166020D03*
X0023600Y0165920D03*
X0023600Y0165820D03*
X0023600Y0165620D03*
X0023600Y0165520D03*
X0023600Y0165420D03*
X0023500Y0165320D03*
X0023500Y0165220D03*
X0023400Y0165120D03*
X0022400Y0164320D03*
X0021400Y0165220D03*
X0021400Y0165320D03*
X0021300Y0165420D03*
X0021300Y0165520D03*
X0021300Y0166020D03*
X0021300Y0166120D03*
X0021400Y0166220D03*
X0021400Y0166320D03*
X0017900Y0166920D03*
X0017900Y0167020D03*
X0017800Y0167220D03*
X0017800Y0167320D03*
X0017700Y0167520D03*
X0017400Y0168320D03*
X0017300Y0168620D03*
X0017200Y0168820D03*
X0017200Y0168920D03*
X0016800Y0169820D03*
X0016800Y0169920D03*
X0016700Y0170120D03*
X0016700Y0170220D03*
X0016600Y0170420D03*
X0016400Y0170920D03*
X0016300Y0171220D03*
X0016200Y0171520D03*
X0015900Y0172320D03*
X0015800Y0172520D03*
X0015800Y0172620D03*
X0015700Y0172820D03*
X0015600Y0173020D03*
X0015600Y0173120D03*
X0015500Y0173320D03*
X0015200Y0174120D03*
X0015100Y0174420D03*
X0014800Y0175220D03*
X0014700Y0175420D03*
X0014700Y0175520D03*
X0014600Y0175720D03*
X0014600Y0175820D03*
X0014400Y0176320D03*
X0014300Y0176520D03*
X0014100Y0177020D03*
X0014000Y0177320D03*
X0013900Y0177620D03*
X0013800Y0177820D03*
X0013800Y0177920D03*
X0013800Y0178020D03*
X0013700Y0178120D03*
X0013700Y0178220D03*
X0013700Y0178320D03*
X0013700Y0178620D03*
X0013600Y0178820D03*
X0013600Y0179020D03*
X0015800Y0179920D03*
X0015900Y0180020D03*
X0016000Y0180120D03*
X0018400Y0180020D03*
X0020400Y0180320D03*
X0020500Y0180120D03*
X0018500Y0177520D03*
X0016000Y0177420D03*
D155*
X0017150Y0177020D03*
X0022150Y0177720D03*
X0029950Y0183120D03*
X0042650Y0184620D03*
X0046450Y0181920D03*
X0049650Y0177920D03*
X0042450Y0176920D03*
X0024550Y0167620D03*
X0022450Y0166820D03*
X0022450Y0166720D03*
X0022450Y0164720D03*
X0025050Y0164320D03*
X0020350Y0167620D03*
X0019250Y0165320D03*
X0019350Y0165120D03*
X0019450Y0164920D03*
X0019450Y0164820D03*
X0019550Y0164720D03*
X0019550Y0164620D03*
D156*
X0022450Y0164420D03*
X0021850Y0177420D03*
X0017150Y0176820D03*
X0017150Y0178420D03*
X0017150Y0179120D03*
X0018950Y0181920D03*
X0014650Y0181520D03*
X0014550Y0181420D03*
X0029950Y0184520D03*
X0044450Y0184020D03*
X0049750Y0177020D03*
X0049750Y0176920D03*
X0049650Y0176520D03*
X0043150Y0174620D03*
X0043050Y0174720D03*
X0042950Y0174820D03*
D157*
X0042400Y0176820D03*
X0042300Y0182020D03*
X0042200Y0182220D03*
X0029900Y0186620D03*
X0015400Y0182020D03*
X0020200Y0167520D03*
X0019300Y0165220D03*
X0019400Y0165020D03*
X0025100Y0164420D03*
X0024700Y0167520D03*
D158*
X0025250Y0166520D03*
X0025350Y0166220D03*
X0025350Y0166120D03*
X0025350Y0166020D03*
X0025350Y0165920D03*
X0025350Y0165820D03*
X0025350Y0165720D03*
X0025350Y0165620D03*
X0025350Y0165520D03*
X0025350Y0165420D03*
X0025350Y0165320D03*
X0022450Y0164520D03*
X0022450Y0167020D03*
X0022550Y0169420D03*
X0019650Y0166520D03*
X0019550Y0166220D03*
X0019550Y0166120D03*
X0019550Y0166020D03*
X0017150Y0178720D03*
X0017150Y0178820D03*
X0017150Y0180620D03*
X0018650Y0182020D03*
X0014750Y0181620D03*
X0029950Y0184720D03*
X0029950Y0184920D03*
X0029850Y0186720D03*
X0031650Y0181820D03*
X0031350Y0181620D03*
X0042050Y0176320D03*
X0042050Y0176220D03*
X0042550Y0175320D03*
X0042650Y0175220D03*
X0042750Y0175120D03*
X0049850Y0177520D03*
X0049850Y0177620D03*
X0046750Y0182620D03*
X0046750Y0182720D03*
X0046750Y0182820D03*
X0046750Y0182920D03*
X0046750Y0183020D03*
X0046750Y0183120D03*
X0046750Y0183420D03*
X0046750Y0183520D03*
X0046750Y0183620D03*
X0046750Y0183720D03*
X0046650Y0183920D03*
D159*
X0046250Y0184520D03*
X0046150Y0184620D03*
X0046450Y0182020D03*
X0042250Y0182120D03*
X0042150Y0182320D03*
X0042450Y0184420D03*
X0042550Y0184520D03*
X0049750Y0177820D03*
X0042350Y0176720D03*
X0024850Y0167320D03*
X0024750Y0167420D03*
X0022450Y0166920D03*
X0022450Y0164620D03*
X0025150Y0164520D03*
X0020150Y0167420D03*
X0020050Y0167320D03*
X0022050Y0177620D03*
X0017150Y0180520D03*
X0016450Y0182820D03*
X0028450Y0188020D03*
D160*
X0025400Y0186720D03*
X0021900Y0185220D03*
X0020100Y0184420D03*
X0019100Y0184020D03*
X0017100Y0183120D03*
X0015200Y0181920D03*
X0022800Y0177920D03*
X0023800Y0178320D03*
X0025800Y0179220D03*
X0026300Y0179420D03*
X0026600Y0179520D03*
X0029100Y0180620D03*
X0042100Y0182420D03*
X0042100Y0182520D03*
X0042200Y0184020D03*
X0042300Y0184120D03*
X0042300Y0184220D03*
X0042400Y0184320D03*
X0046300Y0184420D03*
X0046400Y0184320D03*
X0046600Y0182220D03*
X0046500Y0182120D03*
X0042200Y0176620D03*
X0024900Y0167220D03*
X0025200Y0164720D03*
X0025200Y0164620D03*
X0019900Y0167120D03*
D161*
X0019950Y0167220D03*
X0019850Y0167020D03*
X0019750Y0166920D03*
X0019750Y0166820D03*
X0024950Y0167120D03*
X0025050Y0167020D03*
X0025150Y0166820D03*
X0025250Y0164920D03*
X0025250Y0164820D03*
X0017150Y0176920D03*
X0021950Y0177520D03*
X0023150Y0178020D03*
X0023450Y0178220D03*
X0024050Y0178420D03*
X0024150Y0178520D03*
X0024450Y0178620D03*
X0024650Y0178720D03*
X0024850Y0178820D03*
X0025150Y0178920D03*
X0025350Y0179020D03*
X0025650Y0179120D03*
X0026050Y0179320D03*
X0026950Y0179720D03*
X0027250Y0179820D03*
X0027450Y0179920D03*
X0027650Y0180020D03*
X0027950Y0180120D03*
X0028150Y0180220D03*
X0028650Y0180420D03*
X0029250Y0180720D03*
X0029450Y0180820D03*
X0029750Y0180920D03*
X0030450Y0181220D03*
X0030750Y0181320D03*
X0031050Y0181520D03*
X0029950Y0183020D03*
X0032850Y0182320D03*
X0028250Y0187920D03*
X0027850Y0187820D03*
X0027250Y0187520D03*
X0027050Y0187420D03*
X0026750Y0187320D03*
X0026550Y0187220D03*
X0026050Y0187020D03*
X0025650Y0186820D03*
X0025050Y0186620D03*
X0024950Y0186520D03*
X0024750Y0186420D03*
X0024450Y0186320D03*
X0024250Y0186220D03*
X0024050Y0186120D03*
X0023750Y0186020D03*
X0023550Y0185920D03*
X0023250Y0185820D03*
X0023050Y0185720D03*
X0022850Y0185620D03*
X0022550Y0185520D03*
X0021650Y0185120D03*
X0021250Y0184920D03*
X0020950Y0184820D03*
X0020750Y0184720D03*
X0020550Y0184620D03*
X0019650Y0184220D03*
X0019450Y0184120D03*
X0018950Y0183920D03*
X0018750Y0183820D03*
X0018450Y0183720D03*
X0017750Y0183420D03*
X0017550Y0183320D03*
X0017250Y0183220D03*
X0016650Y0182920D03*
X0015050Y0181820D03*
X0041950Y0183020D03*
X0042050Y0182920D03*
X0042050Y0182820D03*
X0042050Y0182720D03*
X0042050Y0182620D03*
X0042050Y0183520D03*
X0042050Y0183620D03*
X0042150Y0183720D03*
X0042150Y0183820D03*
X0042150Y0183920D03*
X0044450Y0182520D03*
X0046650Y0182320D03*
X0046550Y0184120D03*
X0046550Y0184220D03*
X0049850Y0177720D03*
X0042350Y0175620D03*
X0042250Y0175820D03*
X0042150Y0175920D03*
X0042050Y0176020D03*
X0042050Y0176120D03*
X0042150Y0176520D03*
D162*
X0043750Y0173820D03*
X0043850Y0173720D03*
X0043950Y0173620D03*
X0049450Y0175520D03*
X0049450Y0175620D03*
X0032950Y0182920D03*
X0032750Y0182620D03*
X0030750Y0183320D03*
X0032950Y0187020D03*
X0032850Y0187120D03*
X0019750Y0181320D03*
X0019550Y0181520D03*
X0017150Y0179320D03*
X0017150Y0178120D03*
X0013950Y0180520D03*
X0013950Y0180620D03*
X0014050Y0180720D03*
X0013850Y0180420D03*
X0021750Y0164920D03*
X0023150Y0164920D03*
D163*
X0021550Y0165020D03*
X0021450Y0165120D03*
X0021450Y0166420D03*
X0018250Y0166120D03*
X0018250Y0166020D03*
X0018150Y0166220D03*
X0018150Y0166420D03*
X0018050Y0166520D03*
X0018050Y0166620D03*
X0017950Y0166720D03*
X0017950Y0166820D03*
X0017850Y0167120D03*
X0017750Y0167420D03*
X0017650Y0167620D03*
X0017650Y0167720D03*
X0017550Y0167820D03*
X0017550Y0167920D03*
X0017550Y0168020D03*
X0017450Y0168120D03*
X0017450Y0168220D03*
X0017350Y0168420D03*
X0017350Y0168520D03*
X0017250Y0168720D03*
X0017150Y0169020D03*
X0017050Y0169120D03*
X0017050Y0169220D03*
X0016950Y0169420D03*
X0016950Y0169520D03*
X0016850Y0169620D03*
X0016850Y0169720D03*
X0016750Y0170020D03*
X0016650Y0170320D03*
X0016550Y0170520D03*
X0016550Y0170620D03*
X0016450Y0170720D03*
X0016450Y0170820D03*
X0016350Y0171020D03*
X0016350Y0171120D03*
X0016250Y0171320D03*
X0016250Y0171420D03*
X0016150Y0171620D03*
X0016150Y0171720D03*
X0016050Y0171820D03*
X0016050Y0171920D03*
X0016050Y0172020D03*
X0015950Y0172120D03*
X0015950Y0172220D03*
X0015850Y0172420D03*
X0015750Y0172720D03*
X0015650Y0172920D03*
X0015550Y0173220D03*
X0015450Y0173420D03*
X0015450Y0173520D03*
X0015350Y0173620D03*
X0015350Y0173720D03*
X0015350Y0173820D03*
X0015250Y0173920D03*
X0015250Y0174020D03*
X0015150Y0174220D03*
X0015150Y0174320D03*
X0015050Y0174520D03*
X0015050Y0174620D03*
X0014950Y0174720D03*
X0014950Y0174820D03*
X0014950Y0174920D03*
X0014850Y0175020D03*
X0014850Y0175120D03*
X0014750Y0175320D03*
X0014650Y0175620D03*
X0014550Y0175920D03*
X0014550Y0176020D03*
X0014450Y0176120D03*
X0014450Y0176220D03*
X0014350Y0176420D03*
X0014250Y0176620D03*
X0014250Y0176720D03*
X0014150Y0176820D03*
X0014150Y0176920D03*
X0014050Y0177120D03*
X0014050Y0177220D03*
X0013950Y0177420D03*
X0013950Y0177520D03*
X0013850Y0177720D03*
X0013650Y0178420D03*
X0013650Y0178520D03*
X0013650Y0178720D03*
X0013650Y0178920D03*
X0013650Y0179120D03*
X0013650Y0179220D03*
X0013650Y0179320D03*
X0013650Y0179420D03*
X0013650Y0179520D03*
X0013650Y0179620D03*
X0013750Y0179920D03*
X0013750Y0180020D03*
X0016150Y0180220D03*
X0017150Y0179420D03*
X0018150Y0180220D03*
X0018250Y0180120D03*
X0020050Y0180920D03*
X0020150Y0180820D03*
X0020150Y0180720D03*
X0020250Y0180620D03*
X0020350Y0180420D03*
X0020450Y0180220D03*
X0020550Y0180020D03*
X0020550Y0179920D03*
X0020650Y0179820D03*
X0020650Y0179720D03*
X0020750Y0179520D03*
X0020750Y0179420D03*
X0020850Y0179220D03*
X0020850Y0179120D03*
X0020950Y0178920D03*
X0020950Y0178820D03*
X0021050Y0178620D03*
X0021050Y0178520D03*
X0021150Y0178420D03*
X0021150Y0178320D03*
X0021250Y0178120D03*
X0021350Y0177920D03*
X0021650Y0177120D03*
X0021650Y0177020D03*
X0021650Y0176920D03*
X0021750Y0176820D03*
X0021750Y0176720D03*
X0021850Y0176620D03*
X0021850Y0176520D03*
X0021950Y0176320D03*
X0021950Y0176220D03*
X0022050Y0176020D03*
X0022050Y0175920D03*
X0022150Y0175720D03*
X0022150Y0175620D03*
X0022250Y0175520D03*
X0022250Y0175420D03*
X0022350Y0175320D03*
X0022350Y0175220D03*
X0022450Y0174920D03*
X0022550Y0174620D03*
X0022650Y0174420D03*
X0022650Y0174320D03*
X0022750Y0174120D03*
X0022750Y0174020D03*
X0022850Y0173920D03*
X0022850Y0173820D03*
X0022950Y0173620D03*
X0022950Y0173520D03*
X0023050Y0173320D03*
X0023050Y0173220D03*
X0023150Y0173020D03*
X0023150Y0172920D03*
X0023250Y0172820D03*
X0023350Y0172620D03*
X0023350Y0172520D03*
X0023450Y0172320D03*
X0023550Y0172020D03*
X0023650Y0171720D03*
X0023750Y0171520D03*
X0023750Y0171420D03*
X0023850Y0171320D03*
X0023850Y0171220D03*
X0023950Y0171020D03*
X0023950Y0170920D03*
X0024050Y0170720D03*
X0024050Y0170620D03*
X0024150Y0170420D03*
X0024150Y0170320D03*
X0024250Y0170120D03*
X0024250Y0170020D03*
X0024350Y0169920D03*
X0024350Y0169820D03*
X0024450Y0169620D03*
X0024450Y0169520D03*
X0024550Y0169320D03*
X0018250Y0177320D03*
X0018350Y0177420D03*
X0028850Y0183420D03*
X0029950Y0185520D03*
X0030950Y0186320D03*
X0033350Y0186320D03*
X0033350Y0186420D03*
X0033350Y0186220D03*
X0033450Y0186120D03*
X0033450Y0186020D03*
X0033450Y0185920D03*
X0033550Y0185820D03*
X0033550Y0185720D03*
X0033550Y0185620D03*
X0033650Y0185320D03*
X0033650Y0185220D03*
X0033650Y0185120D03*
X0033650Y0185020D03*
X0033650Y0184920D03*
X0033650Y0184820D03*
X0033650Y0184720D03*
X0033650Y0184620D03*
X0033650Y0184420D03*
X0033550Y0184220D03*
X0033550Y0184120D03*
X0033550Y0184020D03*
X0033550Y0183920D03*
X0033450Y0183820D03*
X0033450Y0183720D03*
X0033350Y0183620D03*
X0033350Y0183520D03*
X0044250Y0173220D03*
X0044350Y0173120D03*
X0049150Y0174420D03*
X0049250Y0174720D03*
X0049250Y0174820D03*
X0049350Y0175120D03*
D164*
X0049300Y0175220D03*
X0049400Y0175320D03*
X0049400Y0175420D03*
X0049300Y0175020D03*
X0049300Y0174920D03*
X0044200Y0173320D03*
X0044100Y0173420D03*
X0044000Y0173520D03*
X0044400Y0184220D03*
X0033300Y0183420D03*
X0033300Y0183320D03*
X0033200Y0183220D03*
X0033200Y0183120D03*
X0033100Y0183020D03*
X0032900Y0182820D03*
X0032800Y0182720D03*
X0029900Y0184220D03*
X0029000Y0183320D03*
X0028900Y0186320D03*
X0032800Y0187220D03*
X0033000Y0186920D03*
X0033100Y0186820D03*
X0033200Y0186720D03*
X0033200Y0186620D03*
X0033300Y0186520D03*
X0020300Y0180520D03*
X0020000Y0181020D03*
X0019900Y0181120D03*
X0019800Y0181220D03*
X0013900Y0180320D03*
X0013800Y0180220D03*
X0013800Y0180120D03*
X0013700Y0179820D03*
X0013700Y0179720D03*
X0016100Y0177320D03*
X0016300Y0177220D03*
X0018100Y0177220D03*
X0021600Y0177220D03*
X0017000Y0169320D03*
X0018200Y0166320D03*
X0021600Y0166520D03*
X0023300Y0166520D03*
X0023300Y0165020D03*
D165*
X0025300Y0165020D03*
X0025300Y0165120D03*
X0025300Y0165220D03*
X0025300Y0166320D03*
X0025300Y0166420D03*
X0025200Y0166620D03*
X0025200Y0166720D03*
X0025100Y0166920D03*
X0019700Y0166720D03*
X0019700Y0166620D03*
X0019600Y0166420D03*
X0019600Y0166320D03*
X0023300Y0178120D03*
X0026700Y0179620D03*
X0028300Y0180320D03*
X0028800Y0180520D03*
X0030000Y0181020D03*
X0030200Y0181120D03*
X0030900Y0181420D03*
X0031500Y0181720D03*
X0025800Y0186920D03*
X0026300Y0187120D03*
X0027500Y0187620D03*
X0027700Y0187720D03*
X0030100Y0188720D03*
X0022400Y0185420D03*
X0022200Y0185320D03*
X0021500Y0185020D03*
X0020300Y0184520D03*
X0019800Y0184320D03*
X0018200Y0183620D03*
X0018000Y0183520D03*
X0016900Y0183020D03*
X0042000Y0183120D03*
X0042000Y0183220D03*
X0042000Y0183320D03*
X0042000Y0183420D03*
X0044400Y0183920D03*
X0046600Y0184020D03*
X0046700Y0183820D03*
X0046800Y0183320D03*
X0046700Y0182520D03*
X0046700Y0182420D03*
X0042100Y0176420D03*
X0042300Y0175720D03*
X0042400Y0175520D03*
X0042500Y0175420D03*
D166*
X0070050Y0165220D03*
D167*
X0070000Y0165320D03*
D168*
X0049050Y0173920D03*
X0049150Y0174220D03*
X0044750Y0172620D03*
X0044650Y0172720D03*
X0045050Y0182620D03*
X0045150Y0182720D03*
X0045250Y0182920D03*
X0045050Y0183820D03*
X0043750Y0183720D03*
X0043650Y0183620D03*
X0043750Y0182720D03*
X0031550Y0184020D03*
X0031450Y0183820D03*
X0031250Y0183620D03*
X0029950Y0184120D03*
X0028550Y0183720D03*
X0028450Y0183820D03*
X0028350Y0183920D03*
X0028350Y0185720D03*
X0028450Y0185920D03*
X0028550Y0186020D03*
X0031250Y0186020D03*
X0031450Y0185820D03*
X0031550Y0185620D03*
X0018750Y0179620D03*
X0018550Y0179920D03*
X0018650Y0177720D03*
X0017150Y0178020D03*
X0017150Y0176720D03*
X0015850Y0177520D03*
X0015750Y0177620D03*
X0015650Y0177720D03*
X0015550Y0177920D03*
X0015550Y0179520D03*
X0015650Y0179720D03*
X0021250Y0165920D03*
X0021250Y0165820D03*
X0021250Y0165720D03*
X0021250Y0165620D03*
X0023650Y0165720D03*
D169*
X0041450Y0166820D03*
X0070050Y0167120D03*
D170*
X0070100Y0167320D03*
X0041400Y0167020D03*
D171*
X0043550Y0174120D03*
X0043450Y0174220D03*
X0043350Y0174320D03*
X0049550Y0176120D03*
X0049550Y0176220D03*
X0044450Y0184120D03*
X0029950Y0184320D03*
X0029950Y0182920D03*
X0021750Y0177320D03*
X0017150Y0178220D03*
X0017850Y0180320D03*
X0017250Y0180720D03*
X0016450Y0180320D03*
X0014350Y0181120D03*
X0014350Y0181220D03*
X0019250Y0181720D03*
X0022450Y0167120D03*
D172*
X0041400Y0167220D03*
X0070100Y0167420D03*
D173*
X0070100Y0167520D03*
X0041400Y0167320D03*
D174*
X0041400Y0167620D03*
X0070100Y0167720D03*
D175*
X0070100Y0167620D03*
D176*
X0070100Y0167820D03*
X0041400Y0167720D03*
D177*
X0041400Y0167820D03*
X0070100Y0167920D03*
D178*
X0022500Y0167920D03*
D179*
X0022500Y0168020D03*
X0022500Y0168120D03*
D180*
X0070100Y0168020D03*
D181*
X0022500Y0168220D03*
D182*
X0022600Y0168420D03*
D183*
X0022600Y0168520D03*
X0030800Y0188320D03*
X0034200Y0187720D03*
D184*
X0033750Y0181920D03*
X0044350Y0184920D03*
X0044350Y0185020D03*
X0022650Y0168620D03*
D185*
X0022700Y0168720D03*
X0016900Y0182120D03*
D186*
X0022750Y0168820D03*
X0044150Y0178420D03*
X0044350Y0185220D03*
D187*
X0022800Y0168920D03*
D188*
X0022900Y0169120D03*
X0035300Y0181720D03*
X0035400Y0187620D03*
D189*
X0041450Y0169320D03*
X0070050Y0169220D03*
D190*
X0070050Y0169820D03*
X0041450Y0169920D03*
D191*
X0041450Y0170020D03*
X0070050Y0169920D03*
D192*
X0070050Y0170020D03*
X0041450Y0170120D03*
D193*
X0070000Y0170120D03*
D194*
X0070000Y0170420D03*
X0041500Y0170520D03*
D195*
X0070000Y0170520D03*
D196*
X0041500Y0170620D03*
D197*
X0070000Y0170620D03*
D198*
X0041550Y0171120D03*
D199*
X0069950Y0171120D03*
D200*
X0041550Y0171220D03*
D201*
X0044350Y0184820D03*
X0069950Y0171220D03*
D202*
X0048850Y0172720D03*
X0048850Y0172920D03*
X0048850Y0173020D03*
X0048750Y0172520D03*
X0048750Y0172420D03*
X0045750Y0171320D03*
X0045650Y0171420D03*
X0045550Y0171620D03*
X0045450Y0171720D03*
X0039350Y0180620D03*
X0037950Y0181620D03*
X0033950Y0182320D03*
X0033550Y0182420D03*
X0029850Y0185620D03*
X0036750Y0187020D03*
X0043750Y0186520D03*
D203*
X0044350Y0185520D03*
X0042150Y0186420D03*
X0040450Y0186720D03*
X0040050Y0186820D03*
X0039450Y0186920D03*
X0038150Y0187120D03*
X0037750Y0187220D03*
X0037050Y0187320D03*
X0036050Y0187520D03*
X0033050Y0188020D03*
X0036350Y0181520D03*
X0036950Y0181420D03*
X0037650Y0181320D03*
X0038650Y0181120D03*
X0039350Y0181020D03*
X0069950Y0171320D03*
D204*
X0048900Y0173120D03*
X0048900Y0173220D03*
X0048800Y0172820D03*
X0048800Y0172620D03*
X0045600Y0171520D03*
X0045400Y0171820D03*
X0045300Y0171920D03*
D205*
X0045200Y0172020D03*
X0045000Y0172320D03*
X0044900Y0172420D03*
X0044800Y0172520D03*
X0049000Y0173520D03*
X0049000Y0173620D03*
X0049000Y0173720D03*
X0049000Y0173820D03*
X0049100Y0174020D03*
X0045200Y0182820D03*
X0045300Y0183120D03*
X0045300Y0183220D03*
X0045300Y0183320D03*
X0045200Y0183620D03*
X0045100Y0183720D03*
X0043600Y0183520D03*
X0043600Y0183420D03*
X0043600Y0183120D03*
X0043600Y0183020D03*
X0043600Y0182920D03*
X0043600Y0182820D03*
X0031700Y0184420D03*
X0031700Y0184520D03*
X0031700Y0184620D03*
X0031700Y0184720D03*
X0031700Y0184820D03*
X0031700Y0184920D03*
X0031700Y0185020D03*
X0031700Y0185120D03*
X0031700Y0185220D03*
X0031700Y0185320D03*
X0031600Y0185420D03*
X0031600Y0185520D03*
X0031500Y0185720D03*
X0031400Y0185920D03*
X0031600Y0184220D03*
X0031600Y0184120D03*
X0031500Y0183920D03*
X0028300Y0184020D03*
X0028300Y0184120D03*
X0028200Y0184220D03*
X0028200Y0184320D03*
X0028100Y0184520D03*
X0028100Y0184620D03*
X0028100Y0184720D03*
X0028100Y0184820D03*
X0028100Y0184920D03*
X0028100Y0185020D03*
X0028100Y0185120D03*
X0028200Y0185320D03*
X0028200Y0185420D03*
X0028200Y0185520D03*
X0028300Y0185620D03*
X0028400Y0185820D03*
X0018900Y0179420D03*
X0018900Y0179320D03*
X0018900Y0179220D03*
X0019000Y0179120D03*
X0019000Y0178920D03*
X0019000Y0178720D03*
X0019000Y0178620D03*
X0019000Y0178520D03*
X0018900Y0178320D03*
X0018900Y0178220D03*
X0018900Y0178120D03*
X0018800Y0178020D03*
X0018800Y0177920D03*
X0018700Y0177820D03*
X0018600Y0177620D03*
X0018800Y0179520D03*
X0018700Y0179720D03*
X0018600Y0179820D03*
X0015700Y0179820D03*
X0015600Y0179620D03*
X0015500Y0179420D03*
X0015500Y0179320D03*
X0015400Y0179120D03*
X0015400Y0179020D03*
X0015400Y0178920D03*
X0015400Y0178620D03*
X0015400Y0178520D03*
X0015400Y0178420D03*
X0015400Y0178320D03*
X0015500Y0178020D03*
X0015600Y0177820D03*
D206*
X0016600Y0182020D03*
X0017700Y0182020D03*
X0018000Y0182720D03*
X0029600Y0182820D03*
X0029800Y0182820D03*
X0030000Y0182820D03*
X0030200Y0182820D03*
X0029600Y0183320D03*
X0030100Y0185620D03*
X0030000Y0186420D03*
X0030000Y0186920D03*
X0030800Y0188020D03*
X0031700Y0188520D03*
X0033800Y0187520D03*
X0034400Y0187420D03*
X0034800Y0187320D03*
X0034700Y0188120D03*
X0037800Y0186820D03*
X0038800Y0186620D03*
X0039500Y0186520D03*
X0040400Y0187120D03*
X0041000Y0187020D03*
X0041200Y0186220D03*
X0041800Y0186120D03*
X0042200Y0186020D03*
X0043100Y0186620D03*
X0044400Y0186420D03*
X0044400Y0182120D03*
X0044600Y0182120D03*
X0046700Y0178420D03*
X0040300Y0181220D03*
X0038600Y0181520D03*
X0037700Y0180920D03*
X0036900Y0181820D03*
X0035900Y0182020D03*
X0034700Y0181420D03*
X0032600Y0181820D03*
X0038700Y0187420D03*
X0048700Y0172320D03*
X0048700Y0172220D03*
X0048700Y0172120D03*
X0048700Y0172020D03*
D207*
X0048950Y0173320D03*
X0048950Y0173420D03*
X0045150Y0172120D03*
X0045050Y0172220D03*
X0045250Y0183020D03*
X0045250Y0183420D03*
X0045250Y0183520D03*
X0043550Y0183320D03*
X0043550Y0183220D03*
X0032250Y0188520D03*
X0028150Y0185220D03*
X0028150Y0184420D03*
X0031650Y0184320D03*
X0018950Y0179020D03*
X0018950Y0178820D03*
X0018950Y0178420D03*
X0017050Y0179520D03*
X0015450Y0179220D03*
X0015350Y0178820D03*
X0015350Y0178720D03*
X0015450Y0178220D03*
X0015450Y0178120D03*
D208*
X0014100Y0180820D03*
X0014200Y0180920D03*
X0014200Y0181020D03*
X0019400Y0181620D03*
X0019600Y0181420D03*
X0029100Y0186420D03*
X0029900Y0186820D03*
X0030700Y0186420D03*
X0029900Y0185420D03*
X0032500Y0187520D03*
X0032600Y0187420D03*
X0032700Y0187320D03*
X0032700Y0182520D03*
X0044400Y0182220D03*
X0049500Y0176020D03*
X0049500Y0175920D03*
X0049500Y0175820D03*
X0049500Y0175720D03*
X0043700Y0173920D03*
X0043600Y0174020D03*
D209*
X0043300Y0174420D03*
X0043200Y0174520D03*
X0049600Y0176320D03*
X0049600Y0176420D03*
X0049700Y0176620D03*
X0049700Y0176720D03*
X0049700Y0176820D03*
X0044400Y0182320D03*
X0032700Y0182420D03*
X0029900Y0184420D03*
X0029900Y0185320D03*
X0032400Y0187620D03*
X0019100Y0181820D03*
X0017200Y0179220D03*
X0017200Y0178320D03*
X0014500Y0181320D03*
D210*
X0014900Y0181720D03*
X0017200Y0179020D03*
X0017200Y0178920D03*
X0017200Y0178620D03*
X0017200Y0178520D03*
X0029900Y0184620D03*
X0029900Y0184820D03*
X0029900Y0185020D03*
X0029900Y0185120D03*
X0029900Y0185220D03*
X0044400Y0182420D03*
X0046800Y0183220D03*
X0049800Y0177420D03*
X0049800Y0177320D03*
X0049800Y0177220D03*
X0049800Y0177120D03*
X0042900Y0174920D03*
X0042800Y0175020D03*
D211*
X0043150Y0177920D03*
D212*
X0043200Y0178020D03*
X0049300Y0178220D03*
X0044300Y0185920D03*
X0016700Y0182620D03*
D213*
X0043400Y0178120D03*
X0049100Y0178420D03*
D214*
X0043650Y0178220D03*
X0038150Y0181220D03*
X0040950Y0186620D03*
X0036550Y0187420D03*
X0016850Y0182420D03*
D215*
X0016950Y0182220D03*
X0043950Y0178320D03*
X0044350Y0185320D03*
D216*
X0044400Y0185820D03*
X0044000Y0186020D03*
X0043600Y0186120D03*
X0049200Y0178320D03*
D217*
X0044300Y0185620D03*
X0042700Y0186320D03*
X0041600Y0186520D03*
X0038900Y0187020D03*
X0035800Y0181620D03*
X0034800Y0181820D03*
D218*
X0044350Y0185720D03*
X0046050Y0181620D03*
D219*
X0033500Y0182020D03*
D220*
X0033350Y0182120D03*
D221*
X0016750Y0182520D03*
D222*
X0043200Y0186220D03*
D223*
X0033900Y0187820D03*
D224*
X0033500Y0187920D03*
X0030700Y0188420D03*
D225*
X0031100Y0188120D03*
D226*
X0031050Y0188220D03*
D227*
X0082193Y0154189D02*
X0082193Y0152655D01*
X0082960Y0151887D01*
X0082193Y0154189D02*
X0082960Y0154956D01*
X0083728Y0154956D01*
X0086797Y0151887D01*
X0086797Y0154956D01*
X0086797Y0150353D02*
X0086797Y0149585D01*
X0086030Y0149585D01*
X0086030Y0150353D01*
X0086797Y0150353D01*
X0086797Y0148051D02*
X0086797Y0144981D01*
X0086797Y0146516D02*
X0082193Y0146516D01*
X0083728Y0144981D01*
X0083728Y0143447D02*
X0086797Y0141912D01*
X0083728Y0140377D01*
X0083728Y0134239D02*
X0083728Y0131937D01*
X0084495Y0131170D01*
X0086030Y0131170D01*
X0086797Y0131937D01*
X0086797Y0134239D01*
X0082193Y0134239D01*
X0078530Y0131170D02*
X0076995Y0131170D01*
X0076228Y0130402D01*
X0076228Y0128868D01*
X0076995Y0128100D01*
X0078530Y0128100D01*
X0079297Y0128868D01*
X0079297Y0130402D01*
X0078530Y0131170D01*
X0082193Y0128868D02*
X0086797Y0128868D01*
X0086797Y0129635D02*
X0086797Y0128100D01*
X0085262Y0126566D02*
X0085262Y0123496D01*
X0084495Y0123496D02*
X0083728Y0124264D01*
X0083728Y0125798D01*
X0084495Y0126566D01*
X0085262Y0126566D01*
X0086797Y0125798D02*
X0086797Y0124264D01*
X0086030Y0123496D01*
X0084495Y0123496D01*
X0083728Y0121194D02*
X0086797Y0121194D01*
X0086797Y0120427D02*
X0086797Y0121962D01*
X0086797Y0118892D02*
X0084495Y0118892D01*
X0083728Y0118125D01*
X0083728Y0116590D01*
X0084495Y0115823D01*
X0085262Y0114288D02*
X0086030Y0114288D01*
X0086797Y0113521D01*
X0086797Y0111987D01*
X0086030Y0111219D01*
X0084495Y0111987D02*
X0084495Y0113521D01*
X0085262Y0114288D01*
X0086797Y0115823D02*
X0082193Y0115823D01*
X0082960Y0114288D02*
X0082193Y0113521D01*
X0082193Y0111987D01*
X0082960Y0111219D01*
X0083728Y0111219D01*
X0084495Y0111987D01*
X0079297Y0111987D02*
X0078530Y0111219D01*
X0076995Y0111219D01*
X0076228Y0111987D01*
X0076228Y0114288D01*
X0074693Y0114288D02*
X0079297Y0114288D01*
X0079297Y0111987D01*
X0076228Y0109685D02*
X0076228Y0108917D01*
X0077762Y0107383D01*
X0076228Y0107383D02*
X0079297Y0107383D01*
X0079297Y0105848D02*
X0076228Y0105848D01*
X0074693Y0104313D01*
X0076228Y0102779D01*
X0079297Y0102779D01*
X0076995Y0102779D02*
X0076995Y0105848D01*
X0083728Y0105081D02*
X0083728Y0104313D01*
X0085262Y0102779D01*
X0083728Y0102779D02*
X0086797Y0102779D01*
X0086030Y0101244D02*
X0084495Y0101244D01*
X0083728Y0100477D01*
X0083728Y0098942D01*
X0084495Y0098175D01*
X0086030Y0098175D01*
X0086797Y0098942D01*
X0086797Y0100477D01*
X0086030Y0101244D01*
X0086797Y0096640D02*
X0086030Y0095873D01*
X0082960Y0095873D01*
X0083728Y0096640D02*
X0083728Y0095105D01*
X0084495Y0093571D02*
X0083728Y0092804D01*
X0083728Y0091269D01*
X0084495Y0090502D01*
X0086030Y0090502D01*
X0086797Y0091269D01*
X0086797Y0092804D01*
X0086030Y0093571D01*
X0084495Y0093571D01*
X0082193Y0088967D02*
X0086797Y0088967D01*
X0083728Y0087432D02*
X0082193Y0088967D01*
X0083728Y0087432D02*
X0082193Y0085898D01*
X0086797Y0085898D01*
X0079297Y0085898D02*
X0079297Y0087432D01*
X0079297Y0086665D02*
X0074693Y0086665D01*
X0074693Y0085898D02*
X0074693Y0087432D01*
X0075460Y0088967D02*
X0076228Y0088967D01*
X0076995Y0089734D01*
X0076995Y0091269D01*
X0077762Y0092036D01*
X0078530Y0092036D01*
X0079297Y0091269D01*
X0079297Y0089734D01*
X0078530Y0088967D01*
X0075460Y0088967D02*
X0074693Y0089734D01*
X0074693Y0091269D01*
X0075460Y0092036D01*
X0075460Y0093571D02*
X0078530Y0093571D01*
X0079297Y0094338D01*
X0079297Y0095873D01*
X0078530Y0096640D01*
X0075460Y0096640D02*
X0074693Y0095873D01*
X0074693Y0094338D01*
X0075460Y0093571D01*
X0076228Y0115823D02*
X0078530Y0115823D01*
X0079297Y0116590D01*
X0079297Y0118892D01*
X0076228Y0118892D01*
X0076228Y0120427D02*
X0076228Y0121194D01*
X0079297Y0121194D01*
X0079297Y0120427D02*
X0079297Y0121962D01*
X0079297Y0123496D02*
X0076228Y0123496D01*
X0076228Y0125798D01*
X0076995Y0126566D01*
X0079297Y0126566D01*
X0082193Y0128100D02*
X0082193Y0128868D01*
X0082193Y0121194D02*
X0081426Y0121194D01*
X0083728Y0121194D02*
X0083728Y0120427D01*
X0074693Y0121194D02*
X0073926Y0121194D01*
X0038089Y0121822D02*
X0036554Y0121822D01*
X0038089Y0121822D02*
X0038089Y0120287D01*
X0037322Y0119520D01*
X0035787Y0119520D01*
X0035020Y0120287D01*
X0035020Y0123356D01*
X0035787Y0124124D01*
X0037322Y0124124D01*
X0038089Y0123356D01*
X0028881Y0123356D02*
X0028114Y0124124D01*
X0026579Y0124124D01*
X0025812Y0123356D01*
X0028881Y0123356D02*
X0028881Y0122589D01*
X0025812Y0119520D01*
X0028881Y0119520D01*
X0024277Y0119520D02*
X0021208Y0119520D01*
X0022742Y0119520D02*
X0022742Y0124124D01*
X0021208Y0122589D01*
X0015069Y0121822D02*
X0015069Y0120287D01*
X0014302Y0119520D01*
X0012767Y0119520D01*
X0012000Y0120287D01*
X0012000Y0121822D02*
X0013535Y0122589D01*
X0014302Y0122589D01*
X0015069Y0121822D01*
X0015069Y0124124D02*
X0012000Y0124124D01*
X0012000Y0121822D01*
X0012000Y0109124D02*
X0012000Y0106822D01*
X0013535Y0107589D01*
X0014302Y0107589D01*
X0015069Y0106822D01*
X0015069Y0105287D01*
X0014302Y0104520D01*
X0012767Y0104520D01*
X0012000Y0105287D01*
X0012000Y0109124D02*
X0015069Y0109124D01*
X0021208Y0107589D02*
X0022742Y0109124D01*
X0022742Y0104520D01*
X0021208Y0104520D02*
X0024277Y0104520D01*
X0025812Y0104520D02*
X0028881Y0104520D01*
X0027346Y0104520D02*
X0027346Y0109124D01*
X0025812Y0107589D01*
X0035020Y0108356D02*
X0035020Y0105287D01*
X0035787Y0104520D01*
X0037322Y0104520D01*
X0038089Y0105287D01*
X0038089Y0106822D01*
X0036554Y0106822D01*
X0035020Y0108356D02*
X0035787Y0109124D01*
X0037322Y0109124D01*
X0038089Y0108356D01*
X0037322Y0094124D02*
X0035787Y0094124D01*
X0035020Y0093356D01*
X0035020Y0090287D01*
X0035787Y0089520D01*
X0037322Y0089520D01*
X0038089Y0090287D01*
X0038089Y0091822D01*
X0036554Y0091822D01*
X0038089Y0093356D02*
X0037322Y0094124D01*
X0028881Y0093356D02*
X0028881Y0090287D01*
X0028114Y0089520D01*
X0026579Y0089520D01*
X0025812Y0090287D01*
X0028881Y0093356D01*
X0028114Y0094124D01*
X0026579Y0094124D01*
X0025812Y0093356D01*
X0025812Y0090287D01*
X0024277Y0089520D02*
X0021208Y0089520D01*
X0022742Y0089520D02*
X0022742Y0094124D01*
X0021208Y0092589D01*
X0015069Y0091822D02*
X0015069Y0090287D01*
X0014302Y0089520D01*
X0012767Y0089520D01*
X0012000Y0090287D01*
X0012000Y0091822D02*
X0013535Y0092589D01*
X0014302Y0092589D01*
X0015069Y0091822D01*
X0015069Y0094124D02*
X0012000Y0094124D01*
X0012000Y0091822D01*
X0012000Y0079124D02*
X0012000Y0076822D01*
X0013535Y0077589D01*
X0014302Y0077589D01*
X0015069Y0076822D01*
X0015069Y0075287D01*
X0014302Y0074520D01*
X0012767Y0074520D01*
X0012000Y0075287D01*
X0012000Y0079124D02*
X0015069Y0079124D01*
X0025812Y0078356D02*
X0025812Y0077589D01*
X0026579Y0076822D01*
X0028881Y0076822D01*
X0028881Y0078356D02*
X0028114Y0079124D01*
X0026579Y0079124D01*
X0025812Y0078356D01*
X0025812Y0075287D02*
X0026579Y0074520D01*
X0028114Y0074520D01*
X0028881Y0075287D01*
X0028881Y0078356D01*
X0035020Y0078356D02*
X0035020Y0075287D01*
X0035787Y0074520D01*
X0037322Y0074520D01*
X0038089Y0075287D01*
X0038089Y0076822D01*
X0036554Y0076822D01*
X0035020Y0078356D02*
X0035787Y0079124D01*
X0037322Y0079124D01*
X0038089Y0078356D01*
X0037322Y0064124D02*
X0035787Y0064124D01*
X0035020Y0063356D01*
X0035020Y0060287D01*
X0035787Y0059520D01*
X0037322Y0059520D01*
X0038089Y0060287D01*
X0038089Y0061822D01*
X0036554Y0061822D01*
X0038089Y0063356D02*
X0037322Y0064124D01*
X0028881Y0063356D02*
X0028881Y0062589D01*
X0028114Y0061822D01*
X0026579Y0061822D01*
X0025812Y0062589D01*
X0025812Y0063356D01*
X0026579Y0064124D01*
X0028114Y0064124D01*
X0028881Y0063356D01*
X0028114Y0061822D02*
X0028881Y0061054D01*
X0028881Y0060287D01*
X0028114Y0059520D01*
X0026579Y0059520D01*
X0025812Y0060287D01*
X0025812Y0061054D01*
X0026579Y0061822D01*
X0015069Y0061822D02*
X0015069Y0060287D01*
X0014302Y0059520D01*
X0012767Y0059520D01*
X0012000Y0060287D01*
X0012000Y0061822D02*
X0013535Y0062589D01*
X0014302Y0062589D01*
X0015069Y0061822D01*
X0015069Y0064124D02*
X0012000Y0064124D01*
X0012000Y0061822D01*
X0012767Y0134520D02*
X0012000Y0135287D01*
X0012767Y0134520D02*
X0014302Y0134520D01*
X0015069Y0135287D01*
X0015069Y0136822D01*
X0014302Y0137589D01*
X0013535Y0137589D01*
X0012000Y0136822D01*
X0012000Y0139124D01*
X0015069Y0139124D01*
X0021208Y0137589D02*
X0022742Y0139124D01*
X0022742Y0134520D01*
X0021208Y0134520D02*
X0024277Y0134520D01*
X0025812Y0135287D02*
X0026579Y0134520D01*
X0028114Y0134520D01*
X0028881Y0135287D01*
X0028881Y0136054D01*
X0028114Y0136822D01*
X0027346Y0136822D01*
X0028114Y0136822D02*
X0028881Y0137589D01*
X0028881Y0138356D01*
X0028114Y0139124D01*
X0026579Y0139124D01*
X0025812Y0138356D01*
X0035020Y0138356D02*
X0035020Y0135287D01*
X0035787Y0134520D01*
X0037322Y0134520D01*
X0038089Y0135287D01*
X0038089Y0136822D01*
X0036554Y0136822D01*
X0035020Y0138356D02*
X0035787Y0139124D01*
X0037322Y0139124D01*
X0038089Y0138356D01*
X0268614Y0184520D02*
X0268614Y0189124D01*
X0270149Y0187589D01*
X0271683Y0189124D01*
X0271683Y0184520D01*
X0273218Y0185287D02*
X0273985Y0184520D01*
X0275520Y0184520D01*
X0276287Y0185287D01*
X0276287Y0186822D01*
X0275520Y0187589D01*
X0273985Y0187589D01*
X0273218Y0186822D01*
X0273218Y0185287D01*
X0277822Y0187589D02*
X0279357Y0187589D01*
X0278589Y0188356D02*
X0278589Y0185287D01*
X0279357Y0184520D01*
X0280891Y0185287D02*
X0281659Y0184520D01*
X0283193Y0184520D01*
X0283961Y0185287D01*
X0283961Y0186822D01*
X0283193Y0187589D01*
X0281659Y0187589D01*
X0280891Y0186822D01*
X0280891Y0185287D01*
X0285495Y0184520D02*
X0285495Y0187589D01*
X0285495Y0186054D02*
X0287030Y0187589D01*
X0287797Y0187589D01*
X0293936Y0187589D02*
X0294703Y0186822D01*
X0296238Y0186822D01*
X0297005Y0186054D01*
X0297005Y0185287D01*
X0296238Y0184520D01*
X0294703Y0184520D01*
X0293936Y0185287D01*
X0293936Y0187589D02*
X0293936Y0188356D01*
X0294703Y0189124D01*
X0296238Y0189124D01*
X0297005Y0188356D01*
X0298540Y0189124D02*
X0298540Y0184520D01*
X0298540Y0186822D02*
X0299307Y0187589D01*
X0300842Y0187589D01*
X0301609Y0186822D01*
X0301609Y0184520D01*
X0303144Y0184520D02*
X0304678Y0184520D01*
X0303911Y0184520D02*
X0303911Y0187589D01*
X0303144Y0187589D01*
X0303911Y0189124D02*
X0303911Y0189891D01*
X0303911Y0192020D02*
X0303911Y0195089D01*
X0303144Y0195089D01*
X0301609Y0195089D02*
X0301609Y0192020D01*
X0299307Y0192020D01*
X0298540Y0192787D01*
X0298540Y0195089D01*
X0297005Y0195089D02*
X0294703Y0195089D01*
X0293936Y0194322D01*
X0293936Y0192787D01*
X0294703Y0192020D01*
X0297005Y0192020D01*
X0297005Y0196624D01*
X0292401Y0195089D02*
X0291634Y0195089D01*
X0290099Y0193554D01*
X0290099Y0192020D02*
X0290099Y0195089D01*
X0288565Y0195089D02*
X0288565Y0192020D01*
X0288565Y0194322D02*
X0285495Y0194322D01*
X0285495Y0195089D02*
X0287030Y0196624D01*
X0288565Y0195089D01*
X0285495Y0195089D02*
X0285495Y0192020D01*
X0279357Y0192787D02*
X0278589Y0192020D01*
X0277055Y0192020D01*
X0276287Y0192787D01*
X0276287Y0195856D01*
X0277055Y0196624D01*
X0278589Y0196624D01*
X0279357Y0195856D01*
X0274753Y0195856D02*
X0273985Y0196624D01*
X0272451Y0196624D01*
X0271683Y0195856D01*
X0271683Y0195089D01*
X0272451Y0194322D01*
X0273985Y0194322D01*
X0274753Y0193554D01*
X0274753Y0192787D01*
X0273985Y0192020D01*
X0272451Y0192020D01*
X0271683Y0192787D01*
X0270149Y0192020D02*
X0268614Y0192020D01*
X0269381Y0192020D02*
X0269381Y0196624D01*
X0268614Y0196624D02*
X0270149Y0196624D01*
X0303144Y0192020D02*
X0304678Y0192020D01*
X0306213Y0192020D02*
X0306213Y0195089D01*
X0308515Y0195089D01*
X0309282Y0194322D01*
X0309282Y0192020D01*
X0310817Y0192787D02*
X0310817Y0194322D01*
X0311584Y0195089D01*
X0313119Y0195089D01*
X0313886Y0194322D01*
X0313886Y0192787D01*
X0313119Y0192020D01*
X0311584Y0192020D01*
X0310817Y0192787D01*
X0310817Y0189124D02*
X0311584Y0189124D01*
X0311584Y0184520D01*
X0310817Y0184520D02*
X0312351Y0184520D01*
X0313886Y0185287D02*
X0313886Y0186822D01*
X0314653Y0187589D01*
X0316955Y0187589D01*
X0316955Y0189124D02*
X0316955Y0184520D01*
X0314653Y0184520D01*
X0313886Y0185287D01*
X0309282Y0186054D02*
X0306213Y0186054D01*
X0306213Y0185287D02*
X0306213Y0186822D01*
X0306980Y0187589D01*
X0308515Y0187589D01*
X0309282Y0186822D01*
X0309282Y0186054D01*
X0308515Y0184520D02*
X0306980Y0184520D01*
X0306213Y0185287D01*
X0303911Y0196624D02*
X0303911Y0197391D01*
X0323094Y0187589D02*
X0324629Y0184520D01*
X0326163Y0187589D01*
X0327698Y0187589D02*
X0329232Y0189124D01*
X0329232Y0184520D01*
X0327698Y0184520D02*
X0330767Y0184520D01*
X0332302Y0184520D02*
X0333069Y0184520D01*
X0333069Y0185287D01*
X0332302Y0185287D01*
X0332302Y0184520D01*
X0334604Y0184520D02*
X0337673Y0187589D01*
X0337673Y0188356D01*
X0336906Y0189124D01*
X0335371Y0189124D01*
X0334604Y0188356D01*
X0334604Y0184520D02*
X0337673Y0184520D01*
D228*
X0339300Y0214320D02*
X0344300Y0214320D01*
X0346800Y0216820D01*
X0346800Y0221820D01*
X0344300Y0224320D01*
X0339300Y0224320D01*
X0336800Y0221820D01*
X0334300Y0224320D01*
X0329300Y0224320D01*
X0326800Y0221820D01*
X0324300Y0224320D01*
X0319300Y0224320D01*
X0316800Y0221820D01*
X0314300Y0224320D01*
X0309300Y0224320D01*
X0306800Y0221820D01*
X0306800Y0216820D01*
X0309300Y0214320D01*
X0314300Y0214320D01*
X0316800Y0216820D01*
X0319300Y0214320D01*
X0324300Y0214320D01*
X0326800Y0216820D01*
X0329300Y0214320D01*
X0334300Y0214320D01*
X0336800Y0216820D01*
X0339300Y0214320D01*
X0088800Y0221320D02*
X0088800Y0197320D01*
X0044800Y0197320D01*
X0044800Y0221320D01*
X0088800Y0221320D01*
X0081800Y0215320D02*
X0063800Y0215320D01*
X0063800Y0214320D01*
X0063800Y0215320D02*
X0061800Y0215320D01*
X0061800Y0212320D01*
X0061800Y0215320D02*
X0059800Y0215320D01*
X0057800Y0215320D01*
X0055800Y0215320D01*
X0055800Y0213320D01*
X0055800Y0215320D02*
X0053800Y0215320D01*
X0053800Y0214820D01*
X0053800Y0215320D02*
X0051800Y0215320D01*
X0051800Y0214820D01*
X0057800Y0215320D02*
X0057800Y0203320D01*
X0055800Y0203320D01*
X0053800Y0203320D01*
X0051800Y0203320D01*
X0051800Y0203820D01*
X0053800Y0203820D02*
X0053800Y0203320D01*
X0055800Y0203320D02*
X0055800Y0205320D01*
X0057800Y0203320D02*
X0059800Y0203320D01*
X0061800Y0203320D01*
X0061800Y0206320D01*
X0063800Y0204320D02*
X0063800Y0203320D01*
X0061800Y0203320D01*
X0059800Y0203320D02*
X0059800Y0215320D01*
X0063800Y0203320D02*
X0081800Y0203320D01*
X0081800Y0203820D01*
X0081800Y0214820D02*
X0081800Y0215320D01*
X0045432Y0139048D02*
X0044365Y0137980D01*
X0044365Y0135845D01*
X0043297Y0134778D01*
X0042230Y0135845D01*
X0042230Y0139048D01*
X0045432Y0139048D02*
X0046500Y0137980D01*
X0046500Y0134778D01*
X0046500Y0132602D02*
X0043297Y0132602D01*
X0042230Y0131535D01*
X0042230Y0128332D01*
X0046500Y0128332D01*
X0046500Y0126170D02*
X0046500Y0124035D01*
X0046500Y0125103D02*
X0042230Y0125103D01*
X0042230Y0124035D01*
X0040095Y0125103D02*
X0039027Y0125103D01*
X0036800Y0126820D02*
X0034300Y0124320D01*
X0029300Y0124320D01*
X0026800Y0126820D01*
X0024300Y0124320D01*
X0019300Y0124320D01*
X0016800Y0126820D01*
X0014300Y0124320D01*
X0009300Y0124320D01*
X0006800Y0126820D01*
X0006800Y0131820D01*
X0009300Y0134320D01*
X0014300Y0134320D01*
X0016800Y0131820D01*
X0019300Y0134320D01*
X0024300Y0134320D01*
X0026800Y0131820D01*
X0029300Y0134320D01*
X0034300Y0134320D01*
X0036800Y0131820D01*
X0036800Y0126820D01*
X0042230Y0120792D02*
X0043297Y0121860D01*
X0045432Y0121860D01*
X0046500Y0120792D01*
X0046500Y0117590D01*
X0048635Y0117590D02*
X0042230Y0117590D01*
X0042230Y0120792D01*
X0036800Y0116820D02*
X0036800Y0111820D01*
X0034300Y0109320D01*
X0029300Y0109320D01*
X0026800Y0111820D01*
X0024300Y0109320D01*
X0019300Y0109320D01*
X0016800Y0111820D01*
X0014300Y0109320D01*
X0009300Y0109320D01*
X0006800Y0111820D01*
X0006800Y0116820D01*
X0009300Y0119320D01*
X0014300Y0119320D01*
X0016800Y0116820D01*
X0019300Y0119320D01*
X0024300Y0119320D01*
X0026800Y0116820D01*
X0029300Y0119320D01*
X0034300Y0119320D01*
X0036800Y0116820D01*
X0026800Y0116820D02*
X0026800Y0111820D01*
X0016800Y0111820D02*
X0016800Y0116820D01*
X0016800Y0126820D02*
X0016800Y0131820D01*
X0026800Y0131820D02*
X0026800Y0126820D01*
X0046500Y0108982D02*
X0046500Y0106847D01*
X0046500Y0107915D02*
X0040095Y0107915D01*
X0040095Y0106847D01*
X0043297Y0104672D02*
X0046500Y0104672D01*
X0046500Y0101469D01*
X0045432Y0100402D01*
X0044365Y0101469D01*
X0044365Y0104672D01*
X0043297Y0104672D02*
X0042230Y0103604D01*
X0042230Y0101469D01*
X0036800Y0101820D02*
X0036800Y0096820D01*
X0034300Y0094320D01*
X0029300Y0094320D01*
X0026800Y0096820D01*
X0024300Y0094320D01*
X0019300Y0094320D01*
X0016800Y0096820D01*
X0014300Y0094320D01*
X0009300Y0094320D01*
X0006800Y0096820D01*
X0006800Y0101820D01*
X0009300Y0104320D01*
X0014300Y0104320D01*
X0016800Y0101820D01*
X0019300Y0104320D01*
X0024300Y0104320D01*
X0026800Y0101820D01*
X0029300Y0104320D01*
X0034300Y0104320D01*
X0036800Y0101820D01*
X0041162Y0097172D02*
X0045432Y0097172D01*
X0046500Y0098240D01*
X0042230Y0098240D02*
X0042230Y0096105D01*
X0046500Y0093943D02*
X0046500Y0091808D01*
X0046500Y0092875D02*
X0042230Y0092875D01*
X0042230Y0091808D01*
X0042230Y0089632D02*
X0042230Y0086430D01*
X0043297Y0085362D01*
X0045432Y0085362D01*
X0046500Y0086430D01*
X0046500Y0089632D01*
X0047568Y0089632D02*
X0042230Y0089632D01*
X0040095Y0092875D02*
X0039027Y0092875D01*
X0034300Y0089320D02*
X0036800Y0086820D01*
X0036800Y0081820D01*
X0034300Y0079320D01*
X0029300Y0079320D01*
X0026800Y0081820D01*
X0024300Y0079320D01*
X0019300Y0079320D01*
X0016800Y0081820D01*
X0014300Y0079320D01*
X0009300Y0079320D01*
X0006800Y0081820D01*
X0006800Y0086820D01*
X0009300Y0089320D01*
X0014300Y0089320D01*
X0016800Y0086820D01*
X0019300Y0089320D01*
X0024300Y0089320D01*
X0026800Y0086820D01*
X0029300Y0089320D01*
X0034300Y0089320D01*
X0026800Y0086820D02*
X0026800Y0081820D01*
X0016800Y0081820D02*
X0016800Y0086820D01*
X0016800Y0096820D02*
X0016800Y0101820D01*
X0026800Y0101820D02*
X0026800Y0096820D01*
X0047568Y0089632D02*
X0048635Y0088565D01*
X0048635Y0087497D01*
X0046500Y0083200D02*
X0046500Y0081065D01*
X0046500Y0082133D02*
X0042230Y0082133D01*
X0042230Y0081065D01*
X0040095Y0082133D02*
X0039027Y0082133D01*
X0041162Y0078890D02*
X0040095Y0077822D01*
X0040095Y0074620D01*
X0046500Y0074620D01*
X0046500Y0077822D01*
X0045432Y0078890D01*
X0041162Y0078890D01*
X0034300Y0074320D02*
X0036800Y0071820D01*
X0036800Y0066820D01*
X0034300Y0064320D01*
X0029300Y0064320D01*
X0026800Y0066820D01*
X0024300Y0064320D01*
X0019300Y0064320D01*
X0016800Y0066820D01*
X0014300Y0064320D01*
X0009300Y0064320D01*
X0006800Y0066820D01*
X0006800Y0071820D01*
X0009300Y0074320D01*
X0014300Y0074320D01*
X0016800Y0071820D01*
X0019300Y0074320D01*
X0024300Y0074320D01*
X0026800Y0071820D01*
X0029300Y0074320D01*
X0034300Y0074320D01*
X0026800Y0071820D02*
X0026800Y0066820D01*
X0016800Y0066820D02*
X0016800Y0071820D01*
X0014300Y0059320D02*
X0009300Y0059320D01*
X0006800Y0056820D01*
X0006800Y0051820D01*
X0009300Y0049320D01*
X0014300Y0049320D01*
X0016800Y0051820D01*
X0019300Y0049320D01*
X0024300Y0049320D01*
X0026800Y0051820D01*
X0029300Y0049320D01*
X0034300Y0049320D01*
X0036800Y0051820D01*
X0036800Y0056820D01*
X0034300Y0059320D01*
X0029300Y0059320D01*
X0026800Y0056820D01*
X0026800Y0051820D01*
X0026800Y0056820D02*
X0024300Y0059320D01*
X0019300Y0059320D01*
X0016800Y0056820D01*
X0016800Y0051820D01*
X0016800Y0056820D02*
X0014300Y0059320D01*
X0065300Y0058820D02*
X0068300Y0058820D01*
X0066800Y0057320D02*
X0066800Y0060320D01*
X0053300Y0069320D02*
X0053304Y0069651D01*
X0053316Y0069982D01*
X0053337Y0070313D01*
X0053365Y0070643D01*
X0053402Y0070973D01*
X0053446Y0071301D01*
X0053499Y0071628D01*
X0053559Y0071954D01*
X0053628Y0072278D01*
X0053705Y0072600D01*
X0053789Y0072921D01*
X0053881Y0073239D01*
X0053981Y0073555D01*
X0054089Y0073868D01*
X0054205Y0074179D01*
X0054328Y0074486D01*
X0054458Y0074791D01*
X0054596Y0075092D01*
X0054741Y0075390D01*
X0054894Y0075684D01*
X0055054Y0075974D01*
X0055221Y0076260D01*
X0055394Y0076542D01*
X0055575Y0076820D01*
X0055763Y0077093D01*
X0055957Y0077362D01*
X0056157Y0077626D01*
X0056364Y0077884D01*
X0056578Y0078138D01*
X0056797Y0078386D01*
X0057023Y0078629D01*
X0057254Y0078866D01*
X0057491Y0079097D01*
X0057734Y0079323D01*
X0057982Y0079542D01*
X0058236Y0079756D01*
X0058494Y0079963D01*
X0058758Y0080163D01*
X0059027Y0080357D01*
X0059300Y0080545D01*
X0059578Y0080726D01*
X0059860Y0080899D01*
X0060146Y0081066D01*
X0060436Y0081226D01*
X0060730Y0081379D01*
X0061028Y0081524D01*
X0061329Y0081662D01*
X0061634Y0081792D01*
X0061941Y0081915D01*
X0062252Y0082031D01*
X0062565Y0082139D01*
X0062881Y0082239D01*
X0063199Y0082331D01*
X0063520Y0082415D01*
X0063842Y0082492D01*
X0064166Y0082561D01*
X0064492Y0082621D01*
X0064819Y0082674D01*
X0065147Y0082718D01*
X0065477Y0082755D01*
X0065807Y0082783D01*
X0066138Y0082804D01*
X0066469Y0082816D01*
X0066800Y0082820D01*
X0067131Y0082816D01*
X0067462Y0082804D01*
X0067793Y0082783D01*
X0068123Y0082755D01*
X0068453Y0082718D01*
X0068781Y0082674D01*
X0069108Y0082621D01*
X0069434Y0082561D01*
X0069758Y0082492D01*
X0070080Y0082415D01*
X0070401Y0082331D01*
X0070719Y0082239D01*
X0071035Y0082139D01*
X0071348Y0082031D01*
X0071659Y0081915D01*
X0071966Y0081792D01*
X0072271Y0081662D01*
X0072572Y0081524D01*
X0072870Y0081379D01*
X0073164Y0081226D01*
X0073454Y0081066D01*
X0073740Y0080899D01*
X0074022Y0080726D01*
X0074300Y0080545D01*
X0074573Y0080357D01*
X0074842Y0080163D01*
X0075106Y0079963D01*
X0075364Y0079756D01*
X0075618Y0079542D01*
X0075866Y0079323D01*
X0076109Y0079097D01*
X0076346Y0078866D01*
X0076577Y0078629D01*
X0076803Y0078386D01*
X0077022Y0078138D01*
X0077236Y0077884D01*
X0077443Y0077626D01*
X0077643Y0077362D01*
X0077837Y0077093D01*
X0078025Y0076820D01*
X0078206Y0076542D01*
X0078379Y0076260D01*
X0078546Y0075974D01*
X0078706Y0075684D01*
X0078859Y0075390D01*
X0079004Y0075092D01*
X0079142Y0074791D01*
X0079272Y0074486D01*
X0079395Y0074179D01*
X0079511Y0073868D01*
X0079619Y0073555D01*
X0079719Y0073239D01*
X0079811Y0072921D01*
X0079895Y0072600D01*
X0079972Y0072278D01*
X0080041Y0071954D01*
X0080101Y0071628D01*
X0080154Y0071301D01*
X0080198Y0070973D01*
X0080235Y0070643D01*
X0080263Y0070313D01*
X0080284Y0069982D01*
X0080296Y0069651D01*
X0080300Y0069320D01*
X0080296Y0068989D01*
X0080284Y0068658D01*
X0080263Y0068327D01*
X0080235Y0067997D01*
X0080198Y0067667D01*
X0080154Y0067339D01*
X0080101Y0067012D01*
X0080041Y0066686D01*
X0079972Y0066362D01*
X0079895Y0066040D01*
X0079811Y0065719D01*
X0079719Y0065401D01*
X0079619Y0065085D01*
X0079511Y0064772D01*
X0079395Y0064461D01*
X0079272Y0064154D01*
X0079142Y0063849D01*
X0079004Y0063548D01*
X0078859Y0063250D01*
X0078706Y0062956D01*
X0078546Y0062666D01*
X0078379Y0062380D01*
X0078206Y0062098D01*
X0078025Y0061820D01*
X0077837Y0061547D01*
X0077643Y0061278D01*
X0077443Y0061014D01*
X0077236Y0060756D01*
X0077022Y0060502D01*
X0076803Y0060254D01*
X0076577Y0060011D01*
X0076346Y0059774D01*
X0076109Y0059543D01*
X0075866Y0059317D01*
X0075618Y0059098D01*
X0075364Y0058884D01*
X0075106Y0058677D01*
X0074842Y0058477D01*
X0074573Y0058283D01*
X0074300Y0058095D01*
X0074022Y0057914D01*
X0073740Y0057741D01*
X0073454Y0057574D01*
X0073164Y0057414D01*
X0072870Y0057261D01*
X0072572Y0057116D01*
X0072271Y0056978D01*
X0071966Y0056848D01*
X0071659Y0056725D01*
X0071348Y0056609D01*
X0071035Y0056501D01*
X0070719Y0056401D01*
X0070401Y0056309D01*
X0070080Y0056225D01*
X0069758Y0056148D01*
X0069434Y0056079D01*
X0069108Y0056019D01*
X0068781Y0055966D01*
X0068453Y0055922D01*
X0068123Y0055885D01*
X0067793Y0055857D01*
X0067462Y0055836D01*
X0067131Y0055824D01*
X0066800Y0055820D01*
X0066469Y0055824D01*
X0066138Y0055836D01*
X0065807Y0055857D01*
X0065477Y0055885D01*
X0065147Y0055922D01*
X0064819Y0055966D01*
X0064492Y0056019D01*
X0064166Y0056079D01*
X0063842Y0056148D01*
X0063520Y0056225D01*
X0063199Y0056309D01*
X0062881Y0056401D01*
X0062565Y0056501D01*
X0062252Y0056609D01*
X0061941Y0056725D01*
X0061634Y0056848D01*
X0061329Y0056978D01*
X0061028Y0057116D01*
X0060730Y0057261D01*
X0060436Y0057414D01*
X0060146Y0057574D01*
X0059860Y0057741D01*
X0059578Y0057914D01*
X0059300Y0058095D01*
X0059027Y0058283D01*
X0058758Y0058477D01*
X0058494Y0058677D01*
X0058236Y0058884D01*
X0057982Y0059098D01*
X0057734Y0059317D01*
X0057491Y0059543D01*
X0057254Y0059774D01*
X0057023Y0060011D01*
X0056797Y0060254D01*
X0056578Y0060502D01*
X0056364Y0060756D01*
X0056157Y0061014D01*
X0055957Y0061278D01*
X0055763Y0061547D01*
X0055575Y0061820D01*
X0055394Y0062098D01*
X0055221Y0062380D01*
X0055054Y0062666D01*
X0054894Y0062956D01*
X0054741Y0063250D01*
X0054596Y0063548D01*
X0054458Y0063849D01*
X0054328Y0064154D01*
X0054205Y0064461D01*
X0054089Y0064772D01*
X0053981Y0065085D01*
X0053881Y0065401D01*
X0053789Y0065719D01*
X0053705Y0066040D01*
X0053628Y0066362D01*
X0053559Y0066686D01*
X0053499Y0067012D01*
X0053446Y0067339D01*
X0053402Y0067667D01*
X0053365Y0067997D01*
X0053337Y0068327D01*
X0053316Y0068658D01*
X0053304Y0068989D01*
X0053300Y0069320D01*
X0124454Y0029578D02*
X0127954Y0029578D01*
X0137954Y0029578D01*
X0141454Y0029578D01*
X0144954Y0021578D02*
X0144954Y0020578D01*
X0145954Y0020578D01*
X0145954Y0014578D01*
X0144954Y0014578D01*
X0144954Y0013578D01*
X0141454Y0005578D02*
X0137454Y0005578D01*
X0127954Y0005578D01*
X0124454Y0005578D01*
X0120954Y0013578D02*
X0120954Y0014578D01*
X0119954Y0014578D01*
X0119954Y0020578D01*
X0120954Y0020578D01*
X0120954Y0021578D01*
X0131954Y0017578D02*
X0131956Y0017641D01*
X0131962Y0017703D01*
X0131972Y0017765D01*
X0131985Y0017827D01*
X0132003Y0017887D01*
X0132024Y0017946D01*
X0132049Y0018004D01*
X0132078Y0018060D01*
X0132110Y0018114D01*
X0132145Y0018166D01*
X0132183Y0018215D01*
X0132225Y0018263D01*
X0132269Y0018307D01*
X0132317Y0018349D01*
X0132366Y0018387D01*
X0132418Y0018422D01*
X0132472Y0018454D01*
X0132528Y0018483D01*
X0132586Y0018508D01*
X0132645Y0018529D01*
X0132705Y0018547D01*
X0132767Y0018560D01*
X0132829Y0018570D01*
X0132891Y0018576D01*
X0132954Y0018578D01*
X0133017Y0018576D01*
X0133079Y0018570D01*
X0133141Y0018560D01*
X0133203Y0018547D01*
X0133263Y0018529D01*
X0133322Y0018508D01*
X0133380Y0018483D01*
X0133436Y0018454D01*
X0133490Y0018422D01*
X0133542Y0018387D01*
X0133591Y0018349D01*
X0133639Y0018307D01*
X0133683Y0018263D01*
X0133725Y0018215D01*
X0133763Y0018166D01*
X0133798Y0018114D01*
X0133830Y0018060D01*
X0133859Y0018004D01*
X0133884Y0017946D01*
X0133905Y0017887D01*
X0133923Y0017827D01*
X0133936Y0017765D01*
X0133946Y0017703D01*
X0133952Y0017641D01*
X0133954Y0017578D01*
X0133952Y0017515D01*
X0133946Y0017453D01*
X0133936Y0017391D01*
X0133923Y0017329D01*
X0133905Y0017269D01*
X0133884Y0017210D01*
X0133859Y0017152D01*
X0133830Y0017096D01*
X0133798Y0017042D01*
X0133763Y0016990D01*
X0133725Y0016941D01*
X0133683Y0016893D01*
X0133639Y0016849D01*
X0133591Y0016807D01*
X0133542Y0016769D01*
X0133490Y0016734D01*
X0133436Y0016702D01*
X0133380Y0016673D01*
X0133322Y0016648D01*
X0133263Y0016627D01*
X0133203Y0016609D01*
X0133141Y0016596D01*
X0133079Y0016586D01*
X0133017Y0016580D01*
X0132954Y0016578D01*
X0132891Y0016580D01*
X0132829Y0016586D01*
X0132767Y0016596D01*
X0132705Y0016609D01*
X0132645Y0016627D01*
X0132586Y0016648D01*
X0132528Y0016673D01*
X0132472Y0016702D01*
X0132418Y0016734D01*
X0132366Y0016769D01*
X0132317Y0016807D01*
X0132269Y0016849D01*
X0132225Y0016893D01*
X0132183Y0016941D01*
X0132145Y0016990D01*
X0132110Y0017042D01*
X0132078Y0017096D01*
X0132049Y0017152D01*
X0132024Y0017210D01*
X0132003Y0017269D01*
X0131985Y0017329D01*
X0131972Y0017391D01*
X0131962Y0017453D01*
X0131956Y0017515D01*
X0131954Y0017578D01*
X0125954Y0017578D02*
X0125956Y0017750D01*
X0125962Y0017921D01*
X0125973Y0018093D01*
X0125988Y0018264D01*
X0126007Y0018435D01*
X0126030Y0018605D01*
X0126057Y0018775D01*
X0126089Y0018944D01*
X0126124Y0019112D01*
X0126164Y0019279D01*
X0126208Y0019445D01*
X0126255Y0019610D01*
X0126307Y0019774D01*
X0126363Y0019936D01*
X0126423Y0020097D01*
X0126487Y0020257D01*
X0126555Y0020415D01*
X0126626Y0020571D01*
X0126701Y0020725D01*
X0126781Y0020878D01*
X0126863Y0021028D01*
X0126950Y0021177D01*
X0127040Y0021323D01*
X0127134Y0021467D01*
X0127231Y0021609D01*
X0127332Y0021748D01*
X0127436Y0021885D01*
X0127543Y0022019D01*
X0127654Y0022150D01*
X0127767Y0022279D01*
X0127884Y0022405D01*
X0128004Y0022528D01*
X0128127Y0022648D01*
X0128253Y0022765D01*
X0128382Y0022878D01*
X0128513Y0022989D01*
X0128647Y0023096D01*
X0128784Y0023200D01*
X0128923Y0023301D01*
X0129065Y0023398D01*
X0129209Y0023492D01*
X0129355Y0023582D01*
X0129504Y0023669D01*
X0129654Y0023751D01*
X0129807Y0023831D01*
X0129961Y0023906D01*
X0130117Y0023977D01*
X0130275Y0024045D01*
X0130435Y0024109D01*
X0130596Y0024169D01*
X0130758Y0024225D01*
X0130922Y0024277D01*
X0131087Y0024324D01*
X0131253Y0024368D01*
X0131420Y0024408D01*
X0131588Y0024443D01*
X0131757Y0024475D01*
X0131927Y0024502D01*
X0132097Y0024525D01*
X0132268Y0024544D01*
X0132439Y0024559D01*
X0132611Y0024570D01*
X0132782Y0024576D01*
X0132954Y0024578D01*
X0133126Y0024576D01*
X0133297Y0024570D01*
X0133469Y0024559D01*
X0133640Y0024544D01*
X0133811Y0024525D01*
X0133981Y0024502D01*
X0134151Y0024475D01*
X0134320Y0024443D01*
X0134488Y0024408D01*
X0134655Y0024368D01*
X0134821Y0024324D01*
X0134986Y0024277D01*
X0135150Y0024225D01*
X0135312Y0024169D01*
X0135473Y0024109D01*
X0135633Y0024045D01*
X0135791Y0023977D01*
X0135947Y0023906D01*
X0136101Y0023831D01*
X0136254Y0023751D01*
X0136404Y0023669D01*
X0136553Y0023582D01*
X0136699Y0023492D01*
X0136843Y0023398D01*
X0136985Y0023301D01*
X0137124Y0023200D01*
X0137261Y0023096D01*
X0137395Y0022989D01*
X0137526Y0022878D01*
X0137655Y0022765D01*
X0137781Y0022648D01*
X0137904Y0022528D01*
X0138024Y0022405D01*
X0138141Y0022279D01*
X0138254Y0022150D01*
X0138365Y0022019D01*
X0138472Y0021885D01*
X0138576Y0021748D01*
X0138677Y0021609D01*
X0138774Y0021467D01*
X0138868Y0021323D01*
X0138958Y0021177D01*
X0139045Y0021028D01*
X0139127Y0020878D01*
X0139207Y0020725D01*
X0139282Y0020571D01*
X0139353Y0020415D01*
X0139421Y0020257D01*
X0139485Y0020097D01*
X0139545Y0019936D01*
X0139601Y0019774D01*
X0139653Y0019610D01*
X0139700Y0019445D01*
X0139744Y0019279D01*
X0139784Y0019112D01*
X0139819Y0018944D01*
X0139851Y0018775D01*
X0139878Y0018605D01*
X0139901Y0018435D01*
X0139920Y0018264D01*
X0139935Y0018093D01*
X0139946Y0017921D01*
X0139952Y0017750D01*
X0139954Y0017578D01*
X0139952Y0017406D01*
X0139946Y0017235D01*
X0139935Y0017063D01*
X0139920Y0016892D01*
X0139901Y0016721D01*
X0139878Y0016551D01*
X0139851Y0016381D01*
X0139819Y0016212D01*
X0139784Y0016044D01*
X0139744Y0015877D01*
X0139700Y0015711D01*
X0139653Y0015546D01*
X0139601Y0015382D01*
X0139545Y0015220D01*
X0139485Y0015059D01*
X0139421Y0014899D01*
X0139353Y0014741D01*
X0139282Y0014585D01*
X0139207Y0014431D01*
X0139127Y0014278D01*
X0139045Y0014128D01*
X0138958Y0013979D01*
X0138868Y0013833D01*
X0138774Y0013689D01*
X0138677Y0013547D01*
X0138576Y0013408D01*
X0138472Y0013271D01*
X0138365Y0013137D01*
X0138254Y0013006D01*
X0138141Y0012877D01*
X0138024Y0012751D01*
X0137904Y0012628D01*
X0137781Y0012508D01*
X0137655Y0012391D01*
X0137526Y0012278D01*
X0137395Y0012167D01*
X0137261Y0012060D01*
X0137124Y0011956D01*
X0136985Y0011855D01*
X0136843Y0011758D01*
X0136699Y0011664D01*
X0136553Y0011574D01*
X0136404Y0011487D01*
X0136254Y0011405D01*
X0136101Y0011325D01*
X0135947Y0011250D01*
X0135791Y0011179D01*
X0135633Y0011111D01*
X0135473Y0011047D01*
X0135312Y0010987D01*
X0135150Y0010931D01*
X0134986Y0010879D01*
X0134821Y0010832D01*
X0134655Y0010788D01*
X0134488Y0010748D01*
X0134320Y0010713D01*
X0134151Y0010681D01*
X0133981Y0010654D01*
X0133811Y0010631D01*
X0133640Y0010612D01*
X0133469Y0010597D01*
X0133297Y0010586D01*
X0133126Y0010580D01*
X0132954Y0010578D01*
X0132782Y0010580D01*
X0132611Y0010586D01*
X0132439Y0010597D01*
X0132268Y0010612D01*
X0132097Y0010631D01*
X0131927Y0010654D01*
X0131757Y0010681D01*
X0131588Y0010713D01*
X0131420Y0010748D01*
X0131253Y0010788D01*
X0131087Y0010832D01*
X0130922Y0010879D01*
X0130758Y0010931D01*
X0130596Y0010987D01*
X0130435Y0011047D01*
X0130275Y0011111D01*
X0130117Y0011179D01*
X0129961Y0011250D01*
X0129807Y0011325D01*
X0129654Y0011405D01*
X0129504Y0011487D01*
X0129355Y0011574D01*
X0129209Y0011664D01*
X0129065Y0011758D01*
X0128923Y0011855D01*
X0128784Y0011956D01*
X0128647Y0012060D01*
X0128513Y0012167D01*
X0128382Y0012278D01*
X0128253Y0012391D01*
X0128127Y0012508D01*
X0128004Y0012628D01*
X0127884Y0012751D01*
X0127767Y0012877D01*
X0127654Y0013006D01*
X0127543Y0013137D01*
X0127436Y0013271D01*
X0127332Y0013408D01*
X0127231Y0013547D01*
X0127134Y0013689D01*
X0127040Y0013833D01*
X0126950Y0013979D01*
X0126863Y0014128D01*
X0126781Y0014278D01*
X0126701Y0014431D01*
X0126626Y0014585D01*
X0126555Y0014741D01*
X0126487Y0014899D01*
X0126423Y0015059D01*
X0126363Y0015220D01*
X0126307Y0015382D01*
X0126255Y0015546D01*
X0126208Y0015711D01*
X0126164Y0015877D01*
X0126124Y0016044D01*
X0126089Y0016212D01*
X0126057Y0016381D01*
X0126030Y0016551D01*
X0126007Y0016721D01*
X0125988Y0016892D01*
X0125973Y0017063D01*
X0125962Y0017235D01*
X0125956Y0017406D01*
X0125954Y0017578D01*
X0056800Y0014320D02*
X0056803Y0014565D01*
X0056812Y0014811D01*
X0056827Y0015056D01*
X0056848Y0015300D01*
X0056875Y0015544D01*
X0056908Y0015787D01*
X0056947Y0016030D01*
X0056992Y0016271D01*
X0057043Y0016511D01*
X0057100Y0016750D01*
X0057162Y0016987D01*
X0057231Y0017223D01*
X0057305Y0017457D01*
X0057385Y0017689D01*
X0057470Y0017919D01*
X0057561Y0018147D01*
X0057658Y0018372D01*
X0057760Y0018596D01*
X0057868Y0018816D01*
X0057981Y0019034D01*
X0058099Y0019249D01*
X0058223Y0019461D01*
X0058351Y0019670D01*
X0058485Y0019876D01*
X0058624Y0020078D01*
X0058768Y0020277D01*
X0058917Y0020472D01*
X0059070Y0020664D01*
X0059228Y0020852D01*
X0059390Y0021036D01*
X0059558Y0021215D01*
X0059729Y0021391D01*
X0059905Y0021562D01*
X0060084Y0021730D01*
X0060268Y0021892D01*
X0060456Y0022050D01*
X0060648Y0022203D01*
X0060843Y0022352D01*
X0061042Y0022496D01*
X0061244Y0022635D01*
X0061450Y0022769D01*
X0061659Y0022897D01*
X0061871Y0023021D01*
X0062086Y0023139D01*
X0062304Y0023252D01*
X0062524Y0023360D01*
X0062748Y0023462D01*
X0062973Y0023559D01*
X0063201Y0023650D01*
X0063431Y0023735D01*
X0063663Y0023815D01*
X0063897Y0023889D01*
X0064133Y0023958D01*
X0064370Y0024020D01*
X0064609Y0024077D01*
X0064849Y0024128D01*
X0065090Y0024173D01*
X0065333Y0024212D01*
X0065576Y0024245D01*
X0065820Y0024272D01*
X0066064Y0024293D01*
X0066309Y0024308D01*
X0066555Y0024317D01*
X0066800Y0024320D01*
X0067045Y0024317D01*
X0067291Y0024308D01*
X0067536Y0024293D01*
X0067780Y0024272D01*
X0068024Y0024245D01*
X0068267Y0024212D01*
X0068510Y0024173D01*
X0068751Y0024128D01*
X0068991Y0024077D01*
X0069230Y0024020D01*
X0069467Y0023958D01*
X0069703Y0023889D01*
X0069937Y0023815D01*
X0070169Y0023735D01*
X0070399Y0023650D01*
X0070627Y0023559D01*
X0070852Y0023462D01*
X0071076Y0023360D01*
X0071296Y0023252D01*
X0071514Y0023139D01*
X0071729Y0023021D01*
X0071941Y0022897D01*
X0072150Y0022769D01*
X0072356Y0022635D01*
X0072558Y0022496D01*
X0072757Y0022352D01*
X0072952Y0022203D01*
X0073144Y0022050D01*
X0073332Y0021892D01*
X0073516Y0021730D01*
X0073695Y0021562D01*
X0073871Y0021391D01*
X0074042Y0021215D01*
X0074210Y0021036D01*
X0074372Y0020852D01*
X0074530Y0020664D01*
X0074683Y0020472D01*
X0074832Y0020277D01*
X0074976Y0020078D01*
X0075115Y0019876D01*
X0075249Y0019670D01*
X0075377Y0019461D01*
X0075501Y0019249D01*
X0075619Y0019034D01*
X0075732Y0018816D01*
X0075840Y0018596D01*
X0075942Y0018372D01*
X0076039Y0018147D01*
X0076130Y0017919D01*
X0076215Y0017689D01*
X0076295Y0017457D01*
X0076369Y0017223D01*
X0076438Y0016987D01*
X0076500Y0016750D01*
X0076557Y0016511D01*
X0076608Y0016271D01*
X0076653Y0016030D01*
X0076692Y0015787D01*
X0076725Y0015544D01*
X0076752Y0015300D01*
X0076773Y0015056D01*
X0076788Y0014811D01*
X0076797Y0014565D01*
X0076800Y0014320D01*
X0076797Y0014075D01*
X0076788Y0013829D01*
X0076773Y0013584D01*
X0076752Y0013340D01*
X0076725Y0013096D01*
X0076692Y0012853D01*
X0076653Y0012610D01*
X0076608Y0012369D01*
X0076557Y0012129D01*
X0076500Y0011890D01*
X0076438Y0011653D01*
X0076369Y0011417D01*
X0076295Y0011183D01*
X0076215Y0010951D01*
X0076130Y0010721D01*
X0076039Y0010493D01*
X0075942Y0010268D01*
X0075840Y0010044D01*
X0075732Y0009824D01*
X0075619Y0009606D01*
X0075501Y0009391D01*
X0075377Y0009179D01*
X0075249Y0008970D01*
X0075115Y0008764D01*
X0074976Y0008562D01*
X0074832Y0008363D01*
X0074683Y0008168D01*
X0074530Y0007976D01*
X0074372Y0007788D01*
X0074210Y0007604D01*
X0074042Y0007425D01*
X0073871Y0007249D01*
X0073695Y0007078D01*
X0073516Y0006910D01*
X0073332Y0006748D01*
X0073144Y0006590D01*
X0072952Y0006437D01*
X0072757Y0006288D01*
X0072558Y0006144D01*
X0072356Y0006005D01*
X0072150Y0005871D01*
X0071941Y0005743D01*
X0071729Y0005619D01*
X0071514Y0005501D01*
X0071296Y0005388D01*
X0071076Y0005280D01*
X0070852Y0005178D01*
X0070627Y0005081D01*
X0070399Y0004990D01*
X0070169Y0004905D01*
X0069937Y0004825D01*
X0069703Y0004751D01*
X0069467Y0004682D01*
X0069230Y0004620D01*
X0068991Y0004563D01*
X0068751Y0004512D01*
X0068510Y0004467D01*
X0068267Y0004428D01*
X0068024Y0004395D01*
X0067780Y0004368D01*
X0067536Y0004347D01*
X0067291Y0004332D01*
X0067045Y0004323D01*
X0066800Y0004320D01*
X0066555Y0004323D01*
X0066309Y0004332D01*
X0066064Y0004347D01*
X0065820Y0004368D01*
X0065576Y0004395D01*
X0065333Y0004428D01*
X0065090Y0004467D01*
X0064849Y0004512D01*
X0064609Y0004563D01*
X0064370Y0004620D01*
X0064133Y0004682D01*
X0063897Y0004751D01*
X0063663Y0004825D01*
X0063431Y0004905D01*
X0063201Y0004990D01*
X0062973Y0005081D01*
X0062748Y0005178D01*
X0062524Y0005280D01*
X0062304Y0005388D01*
X0062086Y0005501D01*
X0061871Y0005619D01*
X0061659Y0005743D01*
X0061450Y0005871D01*
X0061244Y0006005D01*
X0061042Y0006144D01*
X0060843Y0006288D01*
X0060648Y0006437D01*
X0060456Y0006590D01*
X0060268Y0006748D01*
X0060084Y0006910D01*
X0059905Y0007078D01*
X0059729Y0007249D01*
X0059558Y0007425D01*
X0059390Y0007604D01*
X0059228Y0007788D01*
X0059070Y0007976D01*
X0058917Y0008168D01*
X0058768Y0008363D01*
X0058624Y0008562D01*
X0058485Y0008764D01*
X0058351Y0008970D01*
X0058223Y0009179D01*
X0058099Y0009391D01*
X0057981Y0009606D01*
X0057868Y0009824D01*
X0057760Y0010044D01*
X0057658Y0010268D01*
X0057561Y0010493D01*
X0057470Y0010721D01*
X0057385Y0010951D01*
X0057305Y0011183D01*
X0057231Y0011417D01*
X0057162Y0011653D01*
X0057100Y0011890D01*
X0057043Y0012129D01*
X0056992Y0012369D01*
X0056947Y0012610D01*
X0056908Y0012853D01*
X0056875Y0013096D01*
X0056848Y0013340D01*
X0056827Y0013584D01*
X0056812Y0013829D01*
X0056803Y0014075D01*
X0056800Y0014320D01*
X0301800Y0011820D02*
X0304300Y0009320D01*
X0309300Y0009320D01*
X0311800Y0011820D01*
X0311800Y0016820D01*
X0309300Y0019320D01*
X0311800Y0021820D01*
X0311800Y0026820D01*
X0309300Y0029320D01*
X0311800Y0031820D01*
X0311800Y0036820D01*
X0309300Y0039320D01*
X0304300Y0039320D01*
X0301800Y0036820D01*
X0301800Y0031820D01*
X0304300Y0029320D01*
X0309300Y0029320D01*
X0304300Y0029320D02*
X0301800Y0026820D01*
X0301800Y0021820D01*
X0304300Y0019320D01*
X0309300Y0019320D01*
X0304300Y0019320D02*
X0301800Y0016820D01*
X0301800Y0011820D01*
X0316800Y0011820D02*
X0319300Y0009320D01*
X0324300Y0009320D01*
X0326800Y0011820D01*
X0326800Y0016820D01*
X0324300Y0019320D01*
X0326800Y0021820D01*
X0326800Y0026820D01*
X0324300Y0029320D01*
X0326800Y0031820D01*
X0326800Y0036820D01*
X0324300Y0039320D01*
X0319300Y0039320D01*
X0316800Y0036820D01*
X0316800Y0031820D01*
X0319300Y0029320D01*
X0324300Y0029320D01*
X0319300Y0029320D02*
X0316800Y0026820D01*
X0316800Y0021820D01*
X0319300Y0019320D01*
X0324300Y0019320D01*
X0319300Y0019320D02*
X0316800Y0016820D01*
X0316800Y0011820D01*
X0331800Y0011820D02*
X0334300Y0009320D01*
X0339300Y0009320D01*
X0341800Y0011820D01*
X0341800Y0016820D01*
X0339300Y0019320D01*
X0341800Y0021820D01*
X0341800Y0026820D01*
X0339300Y0029320D01*
X0341800Y0031820D01*
X0341800Y0036820D01*
X0339300Y0039320D01*
X0334300Y0039320D01*
X0331800Y0036820D01*
X0331800Y0031820D01*
X0334300Y0029320D01*
X0339300Y0029320D01*
X0334300Y0029320D02*
X0331800Y0026820D01*
X0331800Y0021820D01*
X0334300Y0019320D01*
X0339300Y0019320D01*
X0334300Y0019320D02*
X0331800Y0016820D01*
X0331800Y0011820D01*
X0346800Y0011820D02*
X0349300Y0009320D01*
X0354300Y0009320D01*
X0356800Y0011820D01*
X0356800Y0016820D01*
X0354300Y0019320D01*
X0356800Y0021820D01*
X0356800Y0026820D01*
X0354300Y0029320D01*
X0356800Y0031820D01*
X0356800Y0036820D01*
X0354300Y0039320D01*
X0349300Y0039320D01*
X0346800Y0036820D01*
X0346800Y0031820D01*
X0349300Y0029320D01*
X0354300Y0029320D01*
X0349300Y0029320D02*
X0346800Y0026820D01*
X0346800Y0021820D01*
X0349300Y0019320D01*
X0354300Y0019320D01*
X0349300Y0019320D02*
X0346800Y0016820D01*
X0346800Y0011820D01*
X0350070Y0037485D02*
X0350070Y0043890D01*
X0353273Y0043890D01*
X0354340Y0042822D01*
X0354340Y0040687D01*
X0353273Y0039620D01*
X0350070Y0039620D01*
X0356515Y0039620D02*
X0358651Y0039620D01*
X0357583Y0039620D02*
X0357583Y0043890D01*
X0356515Y0043890D01*
X0357583Y0046025D02*
X0357583Y0047093D01*
X0360812Y0043890D02*
X0364015Y0043890D01*
X0365083Y0042822D01*
X0365083Y0039620D01*
X0367258Y0039620D02*
X0370461Y0039620D01*
X0371528Y0040687D01*
X0370461Y0041755D01*
X0368326Y0041755D01*
X0367258Y0042822D01*
X0368326Y0043890D01*
X0371528Y0043890D01*
X0360812Y0043890D02*
X0360812Y0039620D01*
X0341449Y0039620D02*
X0338247Y0039620D01*
X0337179Y0040687D01*
X0337179Y0042822D01*
X0338247Y0043890D01*
X0341449Y0043890D01*
X0341449Y0038552D01*
X0340382Y0037485D01*
X0339314Y0037485D01*
X0335004Y0040687D02*
X0335004Y0042822D01*
X0333936Y0043890D01*
X0331801Y0043890D01*
X0330733Y0042822D01*
X0330733Y0040687D01*
X0331801Y0039620D01*
X0333936Y0039620D01*
X0335004Y0040687D01*
X0328572Y0039620D02*
X0326436Y0039620D01*
X0327504Y0039620D02*
X0327504Y0046025D01*
X0326436Y0046025D01*
X0324261Y0042822D02*
X0323194Y0043890D01*
X0321059Y0043890D01*
X0321059Y0041755D02*
X0324261Y0041755D01*
X0324261Y0042822D02*
X0324261Y0039620D01*
X0321059Y0039620D01*
X0319991Y0040687D01*
X0321059Y0041755D01*
X0317816Y0042822D02*
X0317816Y0039620D01*
X0317816Y0042822D02*
X0316748Y0043890D01*
X0313545Y0043890D01*
X0313545Y0039620D01*
X0311370Y0039620D02*
X0311370Y0043890D01*
X0309235Y0046025D01*
X0307100Y0043890D01*
X0307100Y0039620D01*
X0307100Y0042822D02*
X0311370Y0042822D01*
D229*
X0311008Y0074030D02*
X0305136Y0074030D01*
X0173008Y0074030D02*
X0167136Y0074030D01*
X0170072Y0076966D02*
X0170072Y0071094D01*
X0305464Y0156844D02*
X0305464Y0162716D01*
X0302528Y0159780D02*
X0308400Y0159780D01*
X0170400Y0159780D02*
X0164528Y0159780D01*
D230*
X0077129Y0022129D02*
X0076409Y0021589D01*
X0076410Y0021590D02*
X0076229Y0021823D01*
X0076043Y0022051D01*
X0075851Y0022275D01*
X0075654Y0022494D01*
X0075452Y0022708D01*
X0075244Y0022917D01*
X0075031Y0023120D01*
X0074814Y0023319D01*
X0074591Y0023512D01*
X0074364Y0023700D01*
X0074133Y0023882D01*
X0073897Y0024059D01*
X0073656Y0024229D01*
X0073412Y0024394D01*
X0073164Y0024552D01*
X0072912Y0024705D01*
X0072656Y0024851D01*
X0072397Y0024991D01*
X0072134Y0025125D01*
X0071869Y0025252D01*
X0071600Y0025373D01*
X0071328Y0025487D01*
X0071054Y0025594D01*
X0070777Y0025695D01*
X0070498Y0025789D01*
X0070216Y0025876D01*
X0069933Y0025956D01*
X0069647Y0026029D01*
X0069360Y0026095D01*
X0069071Y0026154D01*
X0068781Y0026206D01*
X0068490Y0026251D01*
X0068198Y0026289D01*
X0067905Y0026319D01*
X0067611Y0026343D01*
X0067317Y0026359D01*
X0067023Y0026368D01*
X0066728Y0026370D01*
X0066433Y0026364D01*
X0066139Y0026352D01*
X0065845Y0026332D01*
X0065552Y0026305D01*
X0065259Y0026271D01*
X0064967Y0026230D01*
X0064677Y0026181D01*
X0064387Y0026126D01*
X0064100Y0026064D01*
X0063813Y0025994D01*
X0063529Y0025917D01*
X0063246Y0025834D01*
X0062966Y0025744D01*
X0062688Y0025647D01*
X0062412Y0025543D01*
X0062139Y0025432D01*
X0061869Y0025315D01*
X0061601Y0025191D01*
X0061337Y0025061D01*
X0061076Y0024924D01*
X0060819Y0024781D01*
X0060565Y0024631D01*
X0060314Y0024476D01*
X0060068Y0024314D01*
X0059826Y0024147D01*
X0059588Y0023973D01*
X0059354Y0023794D01*
X0059124Y0023609D01*
X0058900Y0023419D01*
X0058679Y0023223D01*
X0058464Y0023022D01*
X0058254Y0022815D01*
X0058049Y0022604D01*
X0057849Y0022387D01*
X0057654Y0022166D01*
X0057465Y0021940D01*
X0057282Y0021710D01*
X0057104Y0021475D01*
X0056932Y0021235D01*
X0056766Y0020992D01*
X0056606Y0020745D01*
X0056452Y0020494D01*
X0056304Y0020239D01*
X0056162Y0019980D01*
X0056027Y0019719D01*
X0055898Y0019454D01*
X0055776Y0019186D01*
X0055660Y0018915D01*
X0055551Y0018641D01*
X0055449Y0018365D01*
X0055354Y0018086D01*
X0055265Y0017805D01*
X0055183Y0017522D01*
X0055108Y0017237D01*
X0055041Y0016950D01*
X0054980Y0016662D01*
X0054926Y0016372D01*
X0054879Y0016081D01*
X0054840Y0015789D01*
X0054808Y0015497D01*
X0054782Y0015203D01*
X0054764Y0014909D01*
X0054754Y0014615D01*
X0054750Y0014320D01*
X0054754Y0014025D01*
X0054764Y0013731D01*
X0054782Y0013437D01*
X0054808Y0013143D01*
X0054840Y0012851D01*
X0054879Y0012559D01*
X0054926Y0012268D01*
X0054980Y0011978D01*
X0055041Y0011690D01*
X0055108Y0011403D01*
X0055183Y0011118D01*
X0055265Y0010835D01*
X0055354Y0010554D01*
X0055449Y0010275D01*
X0055551Y0009999D01*
X0055660Y0009725D01*
X0055776Y0009454D01*
X0055898Y0009186D01*
X0056027Y0008921D01*
X0056162Y0008660D01*
X0056304Y0008401D01*
X0056452Y0008146D01*
X0056606Y0007895D01*
X0056766Y0007648D01*
X0056932Y0007405D01*
X0057104Y0007165D01*
X0057282Y0006930D01*
X0057465Y0006700D01*
X0057654Y0006474D01*
X0057849Y0006253D01*
X0058049Y0006036D01*
X0058254Y0005825D01*
X0058464Y0005618D01*
X0058679Y0005417D01*
X0058900Y0005221D01*
X0059124Y0005031D01*
X0059354Y0004846D01*
X0059588Y0004667D01*
X0059826Y0004493D01*
X0060068Y0004326D01*
X0060314Y0004164D01*
X0060565Y0004009D01*
X0060819Y0003859D01*
X0061076Y0003716D01*
X0061337Y0003579D01*
X0061601Y0003449D01*
X0061869Y0003325D01*
X0062139Y0003208D01*
X0062412Y0003097D01*
X0062688Y0002993D01*
X0062966Y0002896D01*
X0063246Y0002806D01*
X0063529Y0002723D01*
X0063813Y0002646D01*
X0064100Y0002576D01*
X0064387Y0002514D01*
X0064677Y0002459D01*
X0064967Y0002410D01*
X0065259Y0002369D01*
X0065552Y0002335D01*
X0065845Y0002308D01*
X0066139Y0002288D01*
X0066433Y0002276D01*
X0066728Y0002270D01*
X0067023Y0002272D01*
X0067317Y0002281D01*
X0067611Y0002297D01*
X0067905Y0002321D01*
X0068198Y0002351D01*
X0068490Y0002389D01*
X0068781Y0002434D01*
X0069071Y0002486D01*
X0069360Y0002545D01*
X0069647Y0002611D01*
X0069933Y0002684D01*
X0070216Y0002764D01*
X0070498Y0002851D01*
X0070777Y0002945D01*
X0071054Y0003046D01*
X0071328Y0003153D01*
X0071600Y0003267D01*
X0071869Y0003388D01*
X0072134Y0003515D01*
X0072397Y0003649D01*
X0072656Y0003789D01*
X0072912Y0003935D01*
X0073164Y0004088D01*
X0073412Y0004246D01*
X0073656Y0004411D01*
X0073897Y0004581D01*
X0074133Y0004758D01*
X0074364Y0004940D01*
X0074591Y0005128D01*
X0074814Y0005321D01*
X0075031Y0005520D01*
X0075244Y0005723D01*
X0075452Y0005932D01*
X0075654Y0006146D01*
X0075851Y0006365D01*
X0076043Y0006589D01*
X0076229Y0006817D01*
X0076410Y0007050D01*
X0077129Y0006511D01*
X0077130Y0006510D01*
X0076936Y0006260D01*
X0076736Y0006014D01*
X0076530Y0005774D01*
X0076318Y0005539D01*
X0076100Y0005309D01*
X0075877Y0005084D01*
X0075649Y0004865D01*
X0075415Y0004651D01*
X0075176Y0004443D01*
X0074932Y0004241D01*
X0074683Y0004046D01*
X0074429Y0003856D01*
X0074171Y0003673D01*
X0073909Y0003496D01*
X0073642Y0003325D01*
X0073371Y0003161D01*
X0073096Y0003004D01*
X0072818Y0002853D01*
X0072535Y0002709D01*
X0072250Y0002573D01*
X0071961Y0002443D01*
X0071669Y0002320D01*
X0071374Y0002205D01*
X0071077Y0002097D01*
X0070776Y0001996D01*
X0070474Y0001902D01*
X0070169Y0001816D01*
X0069862Y0001737D01*
X0069554Y0001666D01*
X0069244Y0001603D01*
X0068932Y0001547D01*
X0068619Y0001498D01*
X0068305Y0001458D01*
X0067990Y0001425D01*
X0067674Y0001400D01*
X0067358Y0001382D01*
X0067042Y0001372D01*
X0066725Y0001370D01*
X0066408Y0001376D01*
X0066092Y0001389D01*
X0065776Y0001411D01*
X0065461Y0001439D01*
X0065146Y0001476D01*
X0064833Y0001520D01*
X0064520Y0001572D01*
X0064209Y0001632D01*
X0063900Y0001699D01*
X0063592Y0001774D01*
X0063286Y0001856D01*
X0062983Y0001945D01*
X0062681Y0002042D01*
X0062382Y0002147D01*
X0062086Y0002259D01*
X0061792Y0002377D01*
X0061502Y0002503D01*
X0061215Y0002636D01*
X0060930Y0002777D01*
X0060650Y0002924D01*
X0060373Y0003077D01*
X0060100Y0003238D01*
X0059831Y0003405D01*
X0059566Y0003579D01*
X0059306Y0003759D01*
X0059050Y0003945D01*
X0058799Y0004138D01*
X0058552Y0004336D01*
X0058310Y0004541D01*
X0058074Y0004751D01*
X0057842Y0004968D01*
X0057617Y0005190D01*
X0057396Y0005417D01*
X0057181Y0005649D01*
X0056972Y0005887D01*
X0056769Y0006130D01*
X0056571Y0006378D01*
X0056380Y0006630D01*
X0056195Y0006887D01*
X0056017Y0007149D01*
X0055845Y0007415D01*
X0055679Y0007684D01*
X0055520Y0007958D01*
X0055368Y0008236D01*
X0055223Y0008517D01*
X0055084Y0008802D01*
X0054953Y0009090D01*
X0054829Y0009382D01*
X0054711Y0009676D01*
X0054601Y0009973D01*
X0054499Y0010272D01*
X0054404Y0010574D01*
X0054316Y0010878D01*
X0054235Y0011185D01*
X0054162Y0011493D01*
X0054097Y0011803D01*
X0054039Y0012114D01*
X0053989Y0012427D01*
X0053947Y0012741D01*
X0053912Y0013055D01*
X0053885Y0013371D01*
X0053865Y0013687D01*
X0053854Y0014003D01*
X0053850Y0014320D01*
X0053854Y0014637D01*
X0053865Y0014953D01*
X0053885Y0015269D01*
X0053912Y0015585D01*
X0053947Y0015899D01*
X0053989Y0016213D01*
X0054039Y0016526D01*
X0054097Y0016837D01*
X0054162Y0017147D01*
X0054235Y0017455D01*
X0054316Y0017762D01*
X0054404Y0018066D01*
X0054499Y0018368D01*
X0054601Y0018667D01*
X0054711Y0018964D01*
X0054829Y0019258D01*
X0054953Y0019550D01*
X0055084Y0019838D01*
X0055223Y0020123D01*
X0055368Y0020404D01*
X0055520Y0020682D01*
X0055679Y0020956D01*
X0055845Y0021225D01*
X0056017Y0021491D01*
X0056195Y0021753D01*
X0056380Y0022010D01*
X0056571Y0022262D01*
X0056769Y0022510D01*
X0056972Y0022753D01*
X0057181Y0022991D01*
X0057396Y0023223D01*
X0057617Y0023450D01*
X0057842Y0023672D01*
X0058074Y0023889D01*
X0058310Y0024099D01*
X0058552Y0024304D01*
X0058799Y0024502D01*
X0059050Y0024695D01*
X0059306Y0024881D01*
X0059566Y0025061D01*
X0059831Y0025235D01*
X0060100Y0025402D01*
X0060373Y0025563D01*
X0060650Y0025716D01*
X0060930Y0025863D01*
X0061215Y0026004D01*
X0061502Y0026137D01*
X0061792Y0026263D01*
X0062086Y0026381D01*
X0062382Y0026493D01*
X0062681Y0026598D01*
X0062983Y0026695D01*
X0063286Y0026784D01*
X0063592Y0026866D01*
X0063900Y0026941D01*
X0064209Y0027008D01*
X0064520Y0027068D01*
X0064833Y0027120D01*
X0065146Y0027164D01*
X0065461Y0027201D01*
X0065776Y0027229D01*
X0066092Y0027251D01*
X0066408Y0027264D01*
X0066725Y0027270D01*
X0067042Y0027268D01*
X0067358Y0027258D01*
X0067674Y0027240D01*
X0067990Y0027215D01*
X0068305Y0027182D01*
X0068619Y0027142D01*
X0068932Y0027093D01*
X0069244Y0027037D01*
X0069554Y0026974D01*
X0069862Y0026903D01*
X0070169Y0026824D01*
X0070474Y0026738D01*
X0070776Y0026644D01*
X0071077Y0026543D01*
X0071374Y0026435D01*
X0071669Y0026320D01*
X0071961Y0026197D01*
X0072250Y0026067D01*
X0072535Y0025931D01*
X0072818Y0025787D01*
X0073096Y0025636D01*
X0073371Y0025479D01*
X0073642Y0025315D01*
X0073909Y0025144D01*
X0074171Y0024967D01*
X0074429Y0024784D01*
X0074683Y0024594D01*
X0074932Y0024399D01*
X0075176Y0024197D01*
X0075415Y0023989D01*
X0075649Y0023775D01*
X0075877Y0023556D01*
X0076100Y0023331D01*
X0076318Y0023101D01*
X0076530Y0022866D01*
X0076736Y0022626D01*
X0076936Y0022380D01*
X0077130Y0022130D01*
X0077055Y0022074D01*
X0076862Y0022322D01*
X0076663Y0022566D01*
X0076459Y0022804D01*
X0076249Y0023038D01*
X0076033Y0023266D01*
X0075811Y0023489D01*
X0075584Y0023707D01*
X0075352Y0023919D01*
X0075115Y0024125D01*
X0074873Y0024326D01*
X0074625Y0024520D01*
X0074374Y0024708D01*
X0074117Y0024890D01*
X0073857Y0025066D01*
X0073592Y0025235D01*
X0073323Y0025398D01*
X0073050Y0025554D01*
X0072774Y0025704D01*
X0072494Y0025846D01*
X0072210Y0025982D01*
X0071923Y0026111D01*
X0071633Y0026233D01*
X0071341Y0026347D01*
X0071045Y0026455D01*
X0070747Y0026555D01*
X0070447Y0026648D01*
X0070144Y0026733D01*
X0069840Y0026811D01*
X0069534Y0026882D01*
X0069226Y0026945D01*
X0068916Y0027001D01*
X0068606Y0027049D01*
X0068294Y0027089D01*
X0067981Y0027122D01*
X0067668Y0027147D01*
X0067354Y0027164D01*
X0067040Y0027174D01*
X0066725Y0027176D01*
X0066411Y0027170D01*
X0066097Y0027157D01*
X0065783Y0027136D01*
X0065470Y0027107D01*
X0065158Y0027071D01*
X0064847Y0027027D01*
X0064537Y0026975D01*
X0064228Y0026916D01*
X0063921Y0026849D01*
X0063615Y0026775D01*
X0063312Y0026694D01*
X0063010Y0026605D01*
X0062711Y0026508D01*
X0062414Y0026405D01*
X0062120Y0026294D01*
X0061829Y0026176D01*
X0061540Y0026051D01*
X0061255Y0025919D01*
X0060973Y0025780D01*
X0060695Y0025634D01*
X0060420Y0025481D01*
X0060149Y0025322D01*
X0059882Y0025156D01*
X0059619Y0024983D01*
X0059360Y0024805D01*
X0059106Y0024620D01*
X0058857Y0024428D01*
X0058612Y0024231D01*
X0058372Y0024028D01*
X0058137Y0023819D01*
X0057907Y0023604D01*
X0057683Y0023384D01*
X0057464Y0023159D01*
X0057251Y0022928D01*
X0057043Y0022692D01*
X0056841Y0022450D01*
X0056646Y0022205D01*
X0056456Y0021954D01*
X0056272Y0021699D01*
X0056095Y0021439D01*
X0055924Y0021175D01*
X0055760Y0020907D01*
X0055602Y0020635D01*
X0055451Y0020360D01*
X0055307Y0020080D01*
X0055169Y0019798D01*
X0055039Y0019512D01*
X0054915Y0019223D01*
X0054799Y0018930D01*
X0054690Y0018636D01*
X0054588Y0018338D01*
X0054494Y0018039D01*
X0054406Y0017736D01*
X0054326Y0017432D01*
X0054254Y0017127D01*
X0054189Y0016819D01*
X0054132Y0016510D01*
X0054082Y0016199D01*
X0054040Y0015888D01*
X0054005Y0015575D01*
X0053979Y0015262D01*
X0053959Y0014948D01*
X0053948Y0014634D01*
X0053944Y0014320D01*
X0053948Y0014006D01*
X0053959Y0013692D01*
X0053979Y0013378D01*
X0054005Y0013065D01*
X0054040Y0012752D01*
X0054082Y0012441D01*
X0054132Y0012130D01*
X0054189Y0011821D01*
X0054254Y0011513D01*
X0054326Y0011208D01*
X0054406Y0010904D01*
X0054494Y0010601D01*
X0054588Y0010302D01*
X0054690Y0010004D01*
X0054799Y0009710D01*
X0054915Y0009417D01*
X0055039Y0009128D01*
X0055169Y0008842D01*
X0055307Y0008560D01*
X0055451Y0008280D01*
X0055602Y0008005D01*
X0055760Y0007733D01*
X0055924Y0007465D01*
X0056095Y0007201D01*
X0056272Y0006941D01*
X0056456Y0006686D01*
X0056646Y0006435D01*
X0056841Y0006190D01*
X0057043Y0005948D01*
X0057251Y0005712D01*
X0057464Y0005481D01*
X0057683Y0005256D01*
X0057907Y0005036D01*
X0058137Y0004821D01*
X0058372Y0004612D01*
X0058612Y0004409D01*
X0058857Y0004212D01*
X0059106Y0004020D01*
X0059360Y0003835D01*
X0059619Y0003657D01*
X0059882Y0003484D01*
X0060149Y0003318D01*
X0060420Y0003159D01*
X0060695Y0003006D01*
X0060973Y0002860D01*
X0061255Y0002721D01*
X0061540Y0002589D01*
X0061829Y0002464D01*
X0062120Y0002346D01*
X0062414Y0002235D01*
X0062711Y0002132D01*
X0063010Y0002035D01*
X0063312Y0001946D01*
X0063615Y0001865D01*
X0063921Y0001791D01*
X0064228Y0001724D01*
X0064537Y0001665D01*
X0064847Y0001613D01*
X0065158Y0001569D01*
X0065470Y0001533D01*
X0065783Y0001504D01*
X0066097Y0001483D01*
X0066411Y0001470D01*
X0066725Y0001464D01*
X0067040Y0001466D01*
X0067354Y0001476D01*
X0067668Y0001493D01*
X0067981Y0001518D01*
X0068294Y0001551D01*
X0068606Y0001591D01*
X0068916Y0001639D01*
X0069226Y0001695D01*
X0069534Y0001758D01*
X0069840Y0001829D01*
X0070144Y0001907D01*
X0070447Y0001992D01*
X0070747Y0002085D01*
X0071045Y0002185D01*
X0071341Y0002293D01*
X0071633Y0002407D01*
X0071923Y0002529D01*
X0072210Y0002658D01*
X0072494Y0002794D01*
X0072774Y0002936D01*
X0073050Y0003086D01*
X0073323Y0003242D01*
X0073592Y0003405D01*
X0073857Y0003574D01*
X0074117Y0003750D01*
X0074374Y0003932D01*
X0074625Y0004120D01*
X0074873Y0004314D01*
X0075115Y0004515D01*
X0075352Y0004721D01*
X0075584Y0004933D01*
X0075811Y0005151D01*
X0076033Y0005374D01*
X0076249Y0005602D01*
X0076459Y0005836D01*
X0076663Y0006074D01*
X0076862Y0006318D01*
X0077055Y0006566D01*
X0076980Y0006623D01*
X0076788Y0006376D01*
X0076591Y0006134D01*
X0076388Y0005897D01*
X0076179Y0005666D01*
X0075965Y0005439D01*
X0075745Y0005217D01*
X0075520Y0005001D01*
X0075289Y0004791D01*
X0075054Y0004586D01*
X0074813Y0004387D01*
X0074568Y0004194D01*
X0074318Y0004008D01*
X0074064Y0003827D01*
X0073805Y0003652D01*
X0073542Y0003484D01*
X0073275Y0003323D01*
X0073004Y0003168D01*
X0072730Y0003019D01*
X0072452Y0002878D01*
X0072170Y0002743D01*
X0071886Y0002615D01*
X0071598Y0002494D01*
X0071307Y0002380D01*
X0071014Y0002274D01*
X0070718Y0002174D01*
X0070420Y0002082D01*
X0070120Y0001997D01*
X0069817Y0001920D01*
X0069513Y0001850D01*
X0069208Y0001787D01*
X0068901Y0001732D01*
X0068592Y0001684D01*
X0068283Y0001644D01*
X0067972Y0001612D01*
X0067661Y0001587D01*
X0067350Y0001570D01*
X0067038Y0001560D01*
X0066726Y0001558D01*
X0066414Y0001564D01*
X0066102Y0001577D01*
X0065791Y0001598D01*
X0065480Y0001626D01*
X0065170Y0001663D01*
X0064861Y0001706D01*
X0064553Y0001757D01*
X0064246Y0001816D01*
X0063942Y0001882D01*
X0063638Y0001956D01*
X0063337Y0002037D01*
X0063038Y0002125D01*
X0062741Y0002221D01*
X0062446Y0002324D01*
X0062154Y0002434D01*
X0061865Y0002551D01*
X0061578Y0002675D01*
X0061295Y0002806D01*
X0061015Y0002944D01*
X0060739Y0003089D01*
X0060466Y0003241D01*
X0060197Y0003399D01*
X0059932Y0003564D01*
X0059671Y0003735D01*
X0059415Y0003912D01*
X0059162Y0004096D01*
X0058915Y0004286D01*
X0058672Y0004481D01*
X0058433Y0004683D01*
X0058200Y0004891D01*
X0057972Y0005104D01*
X0057750Y0005322D01*
X0057532Y0005546D01*
X0057321Y0005775D01*
X0057115Y0006010D01*
X0056914Y0006249D01*
X0056720Y0006493D01*
X0056532Y0006742D01*
X0056349Y0006995D01*
X0056173Y0007253D01*
X0056004Y0007515D01*
X0055841Y0007781D01*
X0055684Y0008051D01*
X0055534Y0008325D01*
X0055391Y0008602D01*
X0055254Y0008882D01*
X0055125Y0009166D01*
X0055002Y0009453D01*
X0054887Y0009743D01*
X0054779Y0010036D01*
X0054677Y0010331D01*
X0054583Y0010629D01*
X0054497Y0010929D01*
X0054418Y0011230D01*
X0054346Y0011534D01*
X0054281Y0011839D01*
X0054224Y0012146D01*
X0054175Y0012454D01*
X0054133Y0012764D01*
X0054099Y0013074D01*
X0054072Y0013385D01*
X0054053Y0013696D01*
X0054042Y0014008D01*
X0054038Y0014320D01*
X0054042Y0014632D01*
X0054053Y0014944D01*
X0054072Y0015255D01*
X0054099Y0015566D01*
X0054133Y0015876D01*
X0054175Y0016186D01*
X0054224Y0016494D01*
X0054281Y0016801D01*
X0054346Y0017106D01*
X0054418Y0017410D01*
X0054497Y0017711D01*
X0054583Y0018011D01*
X0054677Y0018309D01*
X0054779Y0018604D01*
X0054887Y0018897D01*
X0055002Y0019187D01*
X0055125Y0019474D01*
X0055254Y0019758D01*
X0055391Y0020038D01*
X0055534Y0020315D01*
X0055684Y0020589D01*
X0055841Y0020859D01*
X0056004Y0021125D01*
X0056173Y0021387D01*
X0056349Y0021645D01*
X0056532Y0021898D01*
X0056720Y0022147D01*
X0056914Y0022391D01*
X0057115Y0022630D01*
X0057321Y0022865D01*
X0057532Y0023094D01*
X0057750Y0023318D01*
X0057972Y0023536D01*
X0058200Y0023749D01*
X0058433Y0023957D01*
X0058672Y0024159D01*
X0058915Y0024354D01*
X0059162Y0024544D01*
X0059415Y0024728D01*
X0059671Y0024905D01*
X0059932Y0025076D01*
X0060197Y0025241D01*
X0060466Y0025399D01*
X0060739Y0025551D01*
X0061015Y0025696D01*
X0061295Y0025834D01*
X0061578Y0025965D01*
X0061865Y0026089D01*
X0062154Y0026206D01*
X0062446Y0026316D01*
X0062741Y0026419D01*
X0063038Y0026515D01*
X0063337Y0026603D01*
X0063638Y0026684D01*
X0063942Y0026758D01*
X0064246Y0026824D01*
X0064553Y0026883D01*
X0064861Y0026934D01*
X0065170Y0026977D01*
X0065480Y0027014D01*
X0065791Y0027042D01*
X0066102Y0027063D01*
X0066414Y0027076D01*
X0066726Y0027082D01*
X0067038Y0027080D01*
X0067350Y0027070D01*
X0067661Y0027053D01*
X0067972Y0027028D01*
X0068283Y0026996D01*
X0068592Y0026956D01*
X0068901Y0026908D01*
X0069208Y0026853D01*
X0069513Y0026790D01*
X0069817Y0026720D01*
X0070120Y0026643D01*
X0070420Y0026558D01*
X0070718Y0026466D01*
X0071014Y0026366D01*
X0071307Y0026260D01*
X0071598Y0026146D01*
X0071886Y0026025D01*
X0072170Y0025897D01*
X0072452Y0025762D01*
X0072730Y0025621D01*
X0073004Y0025472D01*
X0073275Y0025317D01*
X0073542Y0025156D01*
X0073805Y0024988D01*
X0074064Y0024813D01*
X0074318Y0024632D01*
X0074568Y0024446D01*
X0074813Y0024253D01*
X0075054Y0024054D01*
X0075289Y0023849D01*
X0075520Y0023639D01*
X0075745Y0023423D01*
X0075965Y0023201D01*
X0076179Y0022974D01*
X0076388Y0022743D01*
X0076591Y0022506D01*
X0076788Y0022264D01*
X0076980Y0022017D01*
X0076904Y0021961D01*
X0076714Y0022206D01*
X0076519Y0022446D01*
X0076317Y0022681D01*
X0076110Y0022911D01*
X0075897Y0023136D01*
X0075679Y0023356D01*
X0075455Y0023570D01*
X0075226Y0023779D01*
X0074993Y0023982D01*
X0074754Y0024180D01*
X0074511Y0024371D01*
X0074262Y0024557D01*
X0074010Y0024736D01*
X0073753Y0024909D01*
X0073492Y0025076D01*
X0073227Y0025237D01*
X0072958Y0025390D01*
X0072686Y0025538D01*
X0072410Y0025678D01*
X0072130Y0025812D01*
X0071848Y0025939D01*
X0071562Y0026059D01*
X0071274Y0026172D01*
X0070983Y0026278D01*
X0070689Y0026376D01*
X0070393Y0026468D01*
X0070095Y0026552D01*
X0069795Y0026629D01*
X0069493Y0026698D01*
X0069190Y0026761D01*
X0068885Y0026815D01*
X0068579Y0026863D01*
X0068271Y0026902D01*
X0067963Y0026934D01*
X0067655Y0026959D01*
X0067345Y0026976D01*
X0067036Y0026986D01*
X0066726Y0026988D01*
X0066416Y0026982D01*
X0066107Y0026969D01*
X0065798Y0026948D01*
X0065489Y0026920D01*
X0065182Y0026884D01*
X0064875Y0026841D01*
X0064569Y0026790D01*
X0064265Y0026732D01*
X0063962Y0026666D01*
X0063661Y0026593D01*
X0063362Y0026513D01*
X0063065Y0026425D01*
X0062770Y0026330D01*
X0062478Y0026228D01*
X0062188Y0026119D01*
X0061901Y0026002D01*
X0061617Y0025879D01*
X0061336Y0025749D01*
X0061058Y0025612D01*
X0060784Y0025468D01*
X0060513Y0025318D01*
X0060246Y0025161D01*
X0059983Y0024997D01*
X0059724Y0024827D01*
X0059469Y0024651D01*
X0059218Y0024469D01*
X0058973Y0024280D01*
X0058731Y0024086D01*
X0058495Y0023886D01*
X0058264Y0023680D01*
X0058037Y0023468D01*
X0057816Y0023251D01*
X0057601Y0023029D01*
X0057390Y0022802D01*
X0057186Y0022569D01*
X0056987Y0022331D01*
X0056794Y0022089D01*
X0056607Y0021842D01*
X0056426Y0021591D01*
X0056252Y0021335D01*
X0056083Y0021075D01*
X0055921Y0020811D01*
X0055766Y0020543D01*
X0055617Y0020271D01*
X0055475Y0019996D01*
X0055339Y0019717D01*
X0055211Y0019436D01*
X0055089Y0019151D01*
X0054975Y0018863D01*
X0054867Y0018572D01*
X0054767Y0018279D01*
X0054673Y0017984D01*
X0054587Y0017686D01*
X0054509Y0017387D01*
X0054438Y0017085D01*
X0054374Y0016782D01*
X0054317Y0016478D01*
X0054268Y0016172D01*
X0054227Y0015865D01*
X0054193Y0015557D01*
X0054166Y0015248D01*
X0054147Y0014939D01*
X0054136Y0014630D01*
X0054132Y0014320D01*
X0054136Y0014010D01*
X0054147Y0013701D01*
X0054166Y0013392D01*
X0054193Y0013083D01*
X0054227Y0012775D01*
X0054268Y0012468D01*
X0054317Y0012162D01*
X0054374Y0011858D01*
X0054438Y0011555D01*
X0054509Y0011253D01*
X0054587Y0010954D01*
X0054673Y0010656D01*
X0054767Y0010361D01*
X0054867Y0010068D01*
X0054975Y0009777D01*
X0055089Y0009489D01*
X0055211Y0009204D01*
X0055339Y0008923D01*
X0055475Y0008644D01*
X0055617Y0008369D01*
X0055766Y0008097D01*
X0055921Y0007829D01*
X0056083Y0007565D01*
X0056252Y0007305D01*
X0056426Y0007049D01*
X0056607Y0006798D01*
X0056794Y0006551D01*
X0056987Y0006309D01*
X0057186Y0006071D01*
X0057390Y0005838D01*
X0057601Y0005611D01*
X0057816Y0005389D01*
X0058037Y0005172D01*
X0058264Y0004960D01*
X0058495Y0004754D01*
X0058731Y0004554D01*
X0058973Y0004360D01*
X0059218Y0004171D01*
X0059469Y0003989D01*
X0059724Y0003813D01*
X0059983Y0003643D01*
X0060246Y0003479D01*
X0060513Y0003322D01*
X0060784Y0003172D01*
X0061058Y0003028D01*
X0061336Y0002891D01*
X0061617Y0002761D01*
X0061901Y0002638D01*
X0062188Y0002521D01*
X0062478Y0002412D01*
X0062770Y0002310D01*
X0063065Y0002215D01*
X0063362Y0002127D01*
X0063661Y0002047D01*
X0063962Y0001974D01*
X0064265Y0001908D01*
X0064569Y0001850D01*
X0064875Y0001799D01*
X0065182Y0001756D01*
X0065489Y0001720D01*
X0065798Y0001692D01*
X0066107Y0001671D01*
X0066416Y0001658D01*
X0066726Y0001652D01*
X0067036Y0001654D01*
X0067345Y0001664D01*
X0067655Y0001681D01*
X0067963Y0001706D01*
X0068271Y0001738D01*
X0068579Y0001777D01*
X0068885Y0001825D01*
X0069190Y0001879D01*
X0069493Y0001942D01*
X0069795Y0002011D01*
X0070095Y0002088D01*
X0070393Y0002172D01*
X0070689Y0002264D01*
X0070983Y0002362D01*
X0071274Y0002468D01*
X0071562Y0002581D01*
X0071848Y0002701D01*
X0072130Y0002828D01*
X0072410Y0002962D01*
X0072686Y0003102D01*
X0072958Y0003250D01*
X0073227Y0003403D01*
X0073492Y0003564D01*
X0073753Y0003731D01*
X0074010Y0003904D01*
X0074262Y0004083D01*
X0074511Y0004269D01*
X0074754Y0004460D01*
X0074993Y0004658D01*
X0075226Y0004861D01*
X0075455Y0005070D01*
X0075679Y0005284D01*
X0075897Y0005504D01*
X0076110Y0005729D01*
X0076317Y0005959D01*
X0076519Y0006194D01*
X0076714Y0006434D01*
X0076904Y0006679D01*
X0076829Y0006736D01*
X0076641Y0006493D01*
X0076446Y0006254D01*
X0076246Y0006021D01*
X0076041Y0005793D01*
X0075829Y0005569D01*
X0075613Y0005351D01*
X0075391Y0005138D01*
X0075164Y0004931D01*
X0074932Y0004729D01*
X0074695Y0004533D01*
X0074453Y0004343D01*
X0074207Y0004159D01*
X0073956Y0003981D01*
X0073701Y0003809D01*
X0073442Y0003644D01*
X0073179Y0003484D01*
X0072912Y0003332D01*
X0072642Y0003185D01*
X0072368Y0003046D01*
X0072091Y0002913D01*
X0071810Y0002787D01*
X0071527Y0002668D01*
X0071240Y0002556D01*
X0070951Y0002451D01*
X0070660Y0002353D01*
X0070366Y0002262D01*
X0070070Y0002179D01*
X0069773Y0002102D01*
X0069473Y0002033D01*
X0069172Y0001972D01*
X0068869Y0001917D01*
X0068565Y0001871D01*
X0068260Y0001831D01*
X0067955Y0001799D01*
X0067648Y0001775D01*
X0067341Y0001758D01*
X0067034Y0001748D01*
X0066726Y0001746D01*
X0066419Y0001752D01*
X0066112Y0001765D01*
X0065805Y0001785D01*
X0065499Y0001814D01*
X0065193Y0001849D01*
X0064889Y0001892D01*
X0064586Y0001943D01*
X0064284Y0002000D01*
X0063983Y0002066D01*
X0063684Y0002138D01*
X0063388Y0002218D01*
X0063093Y0002305D01*
X0062800Y0002399D01*
X0062510Y0002501D01*
X0062222Y0002609D01*
X0061937Y0002724D01*
X0061655Y0002847D01*
X0061376Y0002976D01*
X0061100Y0003112D01*
X0060828Y0003255D01*
X0060559Y0003404D01*
X0060294Y0003560D01*
X0060033Y0003722D01*
X0059776Y0003891D01*
X0059523Y0004066D01*
X0059275Y0004247D01*
X0059031Y0004434D01*
X0058791Y0004627D01*
X0058557Y0004825D01*
X0058327Y0005030D01*
X0058102Y0005240D01*
X0057883Y0005455D01*
X0057669Y0005676D01*
X0057460Y0005901D01*
X0057257Y0006132D01*
X0057060Y0006368D01*
X0056868Y0006609D01*
X0056683Y0006854D01*
X0056503Y0007103D01*
X0056330Y0007357D01*
X0056163Y0007615D01*
X0056002Y0007877D01*
X0055848Y0008143D01*
X0055700Y0008413D01*
X0055559Y0008686D01*
X0055424Y0008963D01*
X0055297Y0009242D01*
X0055176Y0009525D01*
X0055062Y0009811D01*
X0054956Y0010099D01*
X0054856Y0010390D01*
X0054763Y0010683D01*
X0054678Y0010979D01*
X0054600Y0011276D01*
X0054529Y0011575D01*
X0054466Y0011876D01*
X0054410Y0012178D01*
X0054361Y0012482D01*
X0054320Y0012787D01*
X0054286Y0013092D01*
X0054260Y0013398D01*
X0054241Y0013705D01*
X0054230Y0014013D01*
X0054226Y0014320D01*
X0054230Y0014627D01*
X0054241Y0014935D01*
X0054260Y0015242D01*
X0054286Y0015548D01*
X0054320Y0015853D01*
X0054361Y0016158D01*
X0054410Y0016462D01*
X0054466Y0016764D01*
X0054529Y0017065D01*
X0054600Y0017364D01*
X0054678Y0017661D01*
X0054763Y0017957D01*
X0054856Y0018250D01*
X0054956Y0018541D01*
X0055062Y0018829D01*
X0055176Y0019115D01*
X0055297Y0019398D01*
X0055424Y0019677D01*
X0055559Y0019954D01*
X0055700Y0020227D01*
X0055848Y0020497D01*
X0056002Y0020763D01*
X0056163Y0021025D01*
X0056330Y0021283D01*
X0056503Y0021537D01*
X0056683Y0021786D01*
X0056868Y0022031D01*
X0057060Y0022272D01*
X0057257Y0022508D01*
X0057460Y0022739D01*
X0057669Y0022964D01*
X0057883Y0023185D01*
X0058102Y0023400D01*
X0058327Y0023610D01*
X0058557Y0023815D01*
X0058791Y0024013D01*
X0059031Y0024206D01*
X0059275Y0024393D01*
X0059523Y0024574D01*
X0059776Y0024749D01*
X0060033Y0024918D01*
X0060294Y0025080D01*
X0060559Y0025236D01*
X0060828Y0025385D01*
X0061100Y0025528D01*
X0061376Y0025664D01*
X0061655Y0025793D01*
X0061937Y0025916D01*
X0062222Y0026031D01*
X0062510Y0026139D01*
X0062800Y0026241D01*
X0063093Y0026335D01*
X0063388Y0026422D01*
X0063684Y0026502D01*
X0063983Y0026574D01*
X0064284Y0026640D01*
X0064586Y0026697D01*
X0064889Y0026748D01*
X0065193Y0026791D01*
X0065499Y0026826D01*
X0065805Y0026855D01*
X0066112Y0026875D01*
X0066419Y0026888D01*
X0066726Y0026894D01*
X0067034Y0026892D01*
X0067341Y0026882D01*
X0067648Y0026865D01*
X0067955Y0026841D01*
X0068260Y0026809D01*
X0068565Y0026769D01*
X0068869Y0026723D01*
X0069172Y0026668D01*
X0069473Y0026607D01*
X0069773Y0026538D01*
X0070070Y0026461D01*
X0070366Y0026378D01*
X0070660Y0026287D01*
X0070951Y0026189D01*
X0071240Y0026084D01*
X0071527Y0025972D01*
X0071810Y0025853D01*
X0072091Y0025727D01*
X0072368Y0025594D01*
X0072642Y0025455D01*
X0072912Y0025308D01*
X0073179Y0025156D01*
X0073442Y0024996D01*
X0073701Y0024831D01*
X0073956Y0024659D01*
X0074207Y0024481D01*
X0074453Y0024297D01*
X0074695Y0024107D01*
X0074932Y0023911D01*
X0075164Y0023709D01*
X0075391Y0023502D01*
X0075613Y0023289D01*
X0075829Y0023071D01*
X0076041Y0022847D01*
X0076246Y0022619D01*
X0076446Y0022386D01*
X0076641Y0022147D01*
X0076829Y0021904D01*
X0076754Y0021848D01*
X0076567Y0022089D01*
X0076374Y0022326D01*
X0076175Y0022557D01*
X0075971Y0022784D01*
X0075762Y0023006D01*
X0075547Y0023222D01*
X0075326Y0023433D01*
X0075101Y0023639D01*
X0074871Y0023839D01*
X0074635Y0024034D01*
X0074396Y0024222D01*
X0074151Y0024405D01*
X0073902Y0024582D01*
X0073649Y0024752D01*
X0073392Y0024917D01*
X0073131Y0025075D01*
X0072866Y0025226D01*
X0072598Y0025371D01*
X0072326Y0025510D01*
X0072051Y0025642D01*
X0071772Y0025767D01*
X0071491Y0025885D01*
X0071207Y0025996D01*
X0070920Y0026100D01*
X0070631Y0026198D01*
X0070339Y0026288D01*
X0070046Y0026371D01*
X0069750Y0026446D01*
X0069453Y0026515D01*
X0069154Y0026576D01*
X0068853Y0026630D01*
X0068552Y0026676D01*
X0068249Y0026716D01*
X0067946Y0026747D01*
X0067641Y0026772D01*
X0067337Y0026788D01*
X0067032Y0026798D01*
X0066727Y0026800D01*
X0066422Y0026794D01*
X0066117Y0026781D01*
X0065812Y0026761D01*
X0065508Y0026733D01*
X0065205Y0026698D01*
X0064903Y0026655D01*
X0064602Y0026605D01*
X0064302Y0026548D01*
X0064004Y0026483D01*
X0063708Y0026411D01*
X0063413Y0026332D01*
X0063120Y0026245D01*
X0062830Y0026152D01*
X0062542Y0026051D01*
X0062256Y0025943D01*
X0061973Y0025829D01*
X0061693Y0025707D01*
X0061416Y0025579D01*
X0061143Y0025444D01*
X0060873Y0025303D01*
X0060606Y0025154D01*
X0060343Y0025000D01*
X0060084Y0024839D01*
X0059828Y0024671D01*
X0059577Y0024498D01*
X0059331Y0024318D01*
X0059089Y0024132D01*
X0058851Y0023941D01*
X0058618Y0023744D01*
X0058390Y0023541D01*
X0058167Y0023332D01*
X0057949Y0023119D01*
X0057737Y0022900D01*
X0057530Y0022676D01*
X0057328Y0022446D01*
X0057132Y0022212D01*
X0056942Y0021974D01*
X0056758Y0021730D01*
X0056580Y0021483D01*
X0056408Y0021231D01*
X0056242Y0020974D01*
X0056083Y0020714D01*
X0055929Y0020450D01*
X0055783Y0020183D01*
X0055643Y0019912D01*
X0055509Y0019637D01*
X0055383Y0019360D01*
X0055263Y0019079D01*
X0055150Y0018795D01*
X0055044Y0018509D01*
X0054945Y0018221D01*
X0054853Y0017930D01*
X0054769Y0017636D01*
X0054691Y0017341D01*
X0054621Y0017044D01*
X0054558Y0016746D01*
X0054502Y0016446D01*
X0054454Y0016144D01*
X0054413Y0015842D01*
X0054380Y0015539D01*
X0054354Y0015235D01*
X0054335Y0014930D01*
X0054324Y0014625D01*
X0054320Y0014320D01*
X0054324Y0014015D01*
X0054335Y0013710D01*
X0054354Y0013405D01*
X0054380Y0013101D01*
X0054413Y0012798D01*
X0054454Y0012496D01*
X0054502Y0012194D01*
X0054558Y0011894D01*
X0054621Y0011596D01*
X0054691Y0011299D01*
X0054769Y0011004D01*
X0054853Y0010710D01*
X0054945Y0010419D01*
X0055044Y0010131D01*
X0055150Y0009845D01*
X0055263Y0009561D01*
X0055383Y0009280D01*
X0055509Y0009003D01*
X0055643Y0008728D01*
X0055783Y0008457D01*
X0055929Y0008190D01*
X0056083Y0007926D01*
X0056242Y0007666D01*
X0056408Y0007409D01*
X0056580Y0007157D01*
X0056758Y0006910D01*
X0056942Y0006666D01*
X0057132Y0006428D01*
X0057328Y0006194D01*
X0057530Y0005964D01*
X0057737Y0005740D01*
X0057949Y0005521D01*
X0058167Y0005308D01*
X0058390Y0005099D01*
X0058618Y0004896D01*
X0058851Y0004699D01*
X0059089Y0004508D01*
X0059331Y0004322D01*
X0059577Y0004142D01*
X0059828Y0003969D01*
X0060084Y0003801D01*
X0060343Y0003640D01*
X0060606Y0003486D01*
X0060873Y0003337D01*
X0061143Y0003196D01*
X0061416Y0003061D01*
X0061693Y0002933D01*
X0061973Y0002811D01*
X0062256Y0002697D01*
X0062542Y0002589D01*
X0062830Y0002488D01*
X0063120Y0002395D01*
X0063413Y0002308D01*
X0063708Y0002229D01*
X0064004Y0002157D01*
X0064302Y0002092D01*
X0064602Y0002035D01*
X0064903Y0001985D01*
X0065205Y0001942D01*
X0065508Y0001907D01*
X0065812Y0001879D01*
X0066117Y0001859D01*
X0066422Y0001846D01*
X0066727Y0001840D01*
X0067032Y0001842D01*
X0067337Y0001852D01*
X0067641Y0001868D01*
X0067946Y0001893D01*
X0068249Y0001924D01*
X0068552Y0001964D01*
X0068853Y0002010D01*
X0069154Y0002064D01*
X0069453Y0002125D01*
X0069750Y0002194D01*
X0070046Y0002269D01*
X0070339Y0002352D01*
X0070631Y0002442D01*
X0070920Y0002540D01*
X0071207Y0002644D01*
X0071491Y0002755D01*
X0071772Y0002873D01*
X0072051Y0002998D01*
X0072326Y0003130D01*
X0072598Y0003269D01*
X0072866Y0003414D01*
X0073131Y0003565D01*
X0073392Y0003723D01*
X0073649Y0003888D01*
X0073902Y0004058D01*
X0074151Y0004235D01*
X0074396Y0004418D01*
X0074635Y0004606D01*
X0074871Y0004801D01*
X0075101Y0005001D01*
X0075326Y0005207D01*
X0075547Y0005418D01*
X0075762Y0005634D01*
X0075971Y0005856D01*
X0076175Y0006083D01*
X0076374Y0006314D01*
X0076567Y0006551D01*
X0076754Y0006792D01*
X0076679Y0006848D01*
X0076493Y0006609D01*
X0076302Y0006374D01*
X0076105Y0006145D01*
X0075902Y0005920D01*
X0075694Y0005699D01*
X0075480Y0005485D01*
X0075262Y0005275D01*
X0075038Y0005071D01*
X0074810Y0004872D01*
X0074576Y0004679D01*
X0074338Y0004492D01*
X0074096Y0004311D01*
X0073849Y0004135D01*
X0073598Y0003966D01*
X0073342Y0003803D01*
X0073083Y0003646D01*
X0072820Y0003496D01*
X0072554Y0003352D01*
X0072284Y0003214D01*
X0072011Y0003083D01*
X0071735Y0002959D01*
X0071455Y0002842D01*
X0071173Y0002732D01*
X0070889Y0002628D01*
X0070602Y0002532D01*
X0070312Y0002442D01*
X0070021Y0002360D01*
X0069728Y0002285D01*
X0069432Y0002217D01*
X0069136Y0002156D01*
X0068838Y0002103D01*
X0068538Y0002057D01*
X0068238Y0002018D01*
X0067937Y0001986D01*
X0067635Y0001962D01*
X0067332Y0001945D01*
X0067030Y0001936D01*
X0066727Y0001934D01*
X0066424Y0001940D01*
X0066122Y0001953D01*
X0065819Y0001973D01*
X0065518Y0002001D01*
X0065217Y0002036D01*
X0064917Y0002078D01*
X0064618Y0002128D01*
X0064321Y0002185D01*
X0064025Y0002249D01*
X0063731Y0002320D01*
X0063438Y0002399D01*
X0063148Y0002485D01*
X0062859Y0002578D01*
X0062574Y0002677D01*
X0062290Y0002784D01*
X0062010Y0002898D01*
X0061732Y0003018D01*
X0061457Y0003146D01*
X0061185Y0003280D01*
X0060917Y0003420D01*
X0060652Y0003567D01*
X0060391Y0003721D01*
X0060134Y0003881D01*
X0059881Y0004047D01*
X0059632Y0004219D01*
X0059387Y0004397D01*
X0059146Y0004582D01*
X0058911Y0004772D01*
X0058680Y0004967D01*
X0058453Y0005169D01*
X0058232Y0005375D01*
X0058016Y0005588D01*
X0057805Y0005805D01*
X0057600Y0006027D01*
X0057400Y0006255D01*
X0057205Y0006487D01*
X0057017Y0006724D01*
X0056834Y0006966D01*
X0056657Y0007211D01*
X0056486Y0007462D01*
X0056322Y0007716D01*
X0056163Y0007974D01*
X0056011Y0008236D01*
X0055866Y0008501D01*
X0055727Y0008770D01*
X0055594Y0009043D01*
X0055469Y0009318D01*
X0055350Y0009597D01*
X0055238Y0009878D01*
X0055133Y0010162D01*
X0055034Y0010449D01*
X0054943Y0010738D01*
X0054859Y0011029D01*
X0054782Y0011322D01*
X0054713Y0011616D01*
X0054650Y0011913D01*
X0054595Y0012210D01*
X0054547Y0012509D01*
X0054506Y0012809D01*
X0054473Y0013111D01*
X0054447Y0013412D01*
X0054429Y0013715D01*
X0054418Y0014017D01*
X0054414Y0014320D01*
X0054418Y0014623D01*
X0054429Y0014925D01*
X0054447Y0015228D01*
X0054473Y0015529D01*
X0054506Y0015831D01*
X0054547Y0016131D01*
X0054595Y0016430D01*
X0054650Y0016727D01*
X0054713Y0017024D01*
X0054782Y0017318D01*
X0054859Y0017611D01*
X0054943Y0017902D01*
X0055034Y0018191D01*
X0055133Y0018478D01*
X0055238Y0018762D01*
X0055350Y0019043D01*
X0055469Y0019322D01*
X0055594Y0019597D01*
X0055727Y0019870D01*
X0055866Y0020139D01*
X0056011Y0020404D01*
X0056163Y0020666D01*
X0056322Y0020924D01*
X0056486Y0021178D01*
X0056657Y0021429D01*
X0056834Y0021674D01*
X0057017Y0021916D01*
X0057205Y0022153D01*
X0057400Y0022385D01*
X0057600Y0022613D01*
X0057805Y0022835D01*
X0058016Y0023052D01*
X0058232Y0023265D01*
X0058453Y0023471D01*
X0058680Y0023673D01*
X0058911Y0023868D01*
X0059146Y0024058D01*
X0059387Y0024243D01*
X0059632Y0024421D01*
X0059881Y0024593D01*
X0060134Y0024759D01*
X0060391Y0024919D01*
X0060652Y0025073D01*
X0060917Y0025220D01*
X0061185Y0025360D01*
X0061457Y0025494D01*
X0061732Y0025622D01*
X0062010Y0025742D01*
X0062290Y0025856D01*
X0062574Y0025963D01*
X0062859Y0026062D01*
X0063148Y0026155D01*
X0063438Y0026241D01*
X0063731Y0026320D01*
X0064025Y0026391D01*
X0064321Y0026455D01*
X0064618Y0026512D01*
X0064917Y0026562D01*
X0065217Y0026604D01*
X0065518Y0026639D01*
X0065819Y0026667D01*
X0066122Y0026687D01*
X0066424Y0026700D01*
X0066727Y0026706D01*
X0067030Y0026704D01*
X0067332Y0026695D01*
X0067635Y0026678D01*
X0067937Y0026654D01*
X0068238Y0026622D01*
X0068538Y0026583D01*
X0068838Y0026537D01*
X0069136Y0026484D01*
X0069432Y0026423D01*
X0069728Y0026355D01*
X0070021Y0026280D01*
X0070312Y0026198D01*
X0070602Y0026108D01*
X0070889Y0026012D01*
X0071173Y0025908D01*
X0071455Y0025798D01*
X0071735Y0025681D01*
X0072011Y0025557D01*
X0072284Y0025426D01*
X0072554Y0025288D01*
X0072820Y0025144D01*
X0073083Y0024994D01*
X0073342Y0024837D01*
X0073598Y0024674D01*
X0073849Y0024505D01*
X0074096Y0024329D01*
X0074338Y0024148D01*
X0074576Y0023961D01*
X0074810Y0023768D01*
X0075038Y0023569D01*
X0075262Y0023365D01*
X0075480Y0023155D01*
X0075694Y0022941D01*
X0075902Y0022720D01*
X0076105Y0022495D01*
X0076302Y0022266D01*
X0076493Y0022031D01*
X0076679Y0021792D01*
X0076604Y0021735D01*
X0076419Y0021973D01*
X0076229Y0022205D01*
X0076034Y0022434D01*
X0075833Y0022657D01*
X0075626Y0022875D01*
X0075414Y0023089D01*
X0075197Y0023297D01*
X0074975Y0023499D01*
X0074748Y0023696D01*
X0074517Y0023888D01*
X0074281Y0024074D01*
X0074040Y0024254D01*
X0073795Y0024428D01*
X0073546Y0024596D01*
X0073292Y0024758D01*
X0073035Y0024913D01*
X0072774Y0025062D01*
X0072510Y0025205D01*
X0072242Y0025342D01*
X0071971Y0025471D01*
X0071697Y0025594D01*
X0071420Y0025711D01*
X0071140Y0025820D01*
X0070857Y0025923D01*
X0070573Y0026019D01*
X0070285Y0026107D01*
X0069996Y0026189D01*
X0069705Y0026264D01*
X0069412Y0026331D01*
X0069118Y0026392D01*
X0068822Y0026445D01*
X0068525Y0026490D01*
X0068227Y0026529D01*
X0067928Y0026560D01*
X0067628Y0026584D01*
X0067328Y0026601D01*
X0067028Y0026610D01*
X0066727Y0026612D01*
X0066427Y0026606D01*
X0066126Y0026594D01*
X0065827Y0026573D01*
X0065527Y0026546D01*
X0065229Y0026511D01*
X0064931Y0026469D01*
X0064635Y0026420D01*
X0064340Y0026363D01*
X0064046Y0026299D01*
X0063754Y0026229D01*
X0063464Y0026151D01*
X0063175Y0026065D01*
X0062889Y0025973D01*
X0062605Y0025874D01*
X0062324Y0025768D01*
X0062046Y0025655D01*
X0061770Y0025536D01*
X0061497Y0025409D01*
X0061228Y0025276D01*
X0060962Y0025137D01*
X0060699Y0024991D01*
X0060440Y0024839D01*
X0060184Y0024680D01*
X0059933Y0024515D01*
X0059686Y0024344D01*
X0059443Y0024167D01*
X0059204Y0023984D01*
X0058970Y0023796D01*
X0058741Y0023602D01*
X0058517Y0023402D01*
X0058297Y0023197D01*
X0058083Y0022986D01*
X0057873Y0022770D01*
X0057669Y0022550D01*
X0057471Y0022324D01*
X0057278Y0022093D01*
X0057091Y0021858D01*
X0056909Y0021619D01*
X0056734Y0021375D01*
X0056564Y0021126D01*
X0056401Y0020874D01*
X0056244Y0020618D01*
X0056093Y0020358D01*
X0055949Y0020094D01*
X0055811Y0019827D01*
X0055679Y0019557D01*
X0055555Y0019284D01*
X0055437Y0019007D01*
X0055326Y0018728D01*
X0055221Y0018446D01*
X0055124Y0018162D01*
X0055033Y0017875D01*
X0054950Y0017586D01*
X0054874Y0017296D01*
X0054804Y0017003D01*
X0054742Y0016709D01*
X0054688Y0016414D01*
X0054640Y0016117D01*
X0054600Y0015819D01*
X0054567Y0015520D01*
X0054541Y0015221D01*
X0054523Y0014921D01*
X0054512Y0014621D01*
X0054508Y0014320D01*
X0054512Y0014019D01*
X0054523Y0013719D01*
X0054541Y0013419D01*
X0054567Y0013120D01*
X0054600Y0012821D01*
X0054640Y0012523D01*
X0054688Y0012226D01*
X0054742Y0011931D01*
X0054804Y0011637D01*
X0054874Y0011344D01*
X0054950Y0011054D01*
X0055033Y0010765D01*
X0055124Y0010478D01*
X0055221Y0010194D01*
X0055326Y0009912D01*
X0055437Y0009633D01*
X0055555Y0009356D01*
X0055679Y0009083D01*
X0055811Y0008813D01*
X0055949Y0008546D01*
X0056093Y0008282D01*
X0056244Y0008022D01*
X0056401Y0007766D01*
X0056564Y0007514D01*
X0056734Y0007265D01*
X0056909Y0007021D01*
X0057091Y0006782D01*
X0057278Y0006547D01*
X0057471Y0006316D01*
X0057669Y0006090D01*
X0057873Y0005870D01*
X0058083Y0005654D01*
X0058297Y0005443D01*
X0058517Y0005238D01*
X0058741Y0005038D01*
X0058970Y0004844D01*
X0059204Y0004656D01*
X0059443Y0004473D01*
X0059686Y0004296D01*
X0059933Y0004125D01*
X0060184Y0003960D01*
X0060440Y0003801D01*
X0060699Y0003649D01*
X0060962Y0003503D01*
X0061228Y0003364D01*
X0061497Y0003231D01*
X0061770Y0003104D01*
X0062046Y0002985D01*
X0062324Y0002872D01*
X0062605Y0002766D01*
X0062889Y0002667D01*
X0063175Y0002575D01*
X0063464Y0002489D01*
X0063754Y0002411D01*
X0064046Y0002341D01*
X0064340Y0002277D01*
X0064635Y0002220D01*
X0064931Y0002171D01*
X0065229Y0002129D01*
X0065527Y0002094D01*
X0065827Y0002067D01*
X0066126Y0002046D01*
X0066427Y0002034D01*
X0066727Y0002028D01*
X0067028Y0002030D01*
X0067328Y0002039D01*
X0067628Y0002056D01*
X0067928Y0002080D01*
X0068227Y0002111D01*
X0068525Y0002150D01*
X0068822Y0002195D01*
X0069118Y0002248D01*
X0069412Y0002309D01*
X0069705Y0002376D01*
X0069996Y0002451D01*
X0070285Y0002533D01*
X0070573Y0002621D01*
X0070857Y0002717D01*
X0071140Y0002820D01*
X0071420Y0002929D01*
X0071697Y0003046D01*
X0071971Y0003169D01*
X0072242Y0003298D01*
X0072510Y0003435D01*
X0072774Y0003578D01*
X0073035Y0003727D01*
X0073292Y0003882D01*
X0073546Y0004044D01*
X0073795Y0004212D01*
X0074040Y0004386D01*
X0074281Y0004566D01*
X0074517Y0004752D01*
X0074748Y0004944D01*
X0074975Y0005141D01*
X0075197Y0005343D01*
X0075414Y0005551D01*
X0075626Y0005765D01*
X0075833Y0005983D01*
X0076034Y0006206D01*
X0076229Y0006435D01*
X0076419Y0006667D01*
X0076604Y0006905D01*
X0076528Y0006961D01*
X0076346Y0006726D01*
X0076157Y0006495D01*
X0075963Y0006268D01*
X0075763Y0006046D01*
X0075558Y0005830D01*
X0075348Y0005618D01*
X0075133Y0005412D01*
X0074913Y0005211D01*
X0074687Y0005015D01*
X0074458Y0004825D01*
X0074223Y0004641D01*
X0073984Y0004462D01*
X0073741Y0004289D01*
X0073494Y0004123D01*
X0073242Y0003962D01*
X0072987Y0003808D01*
X0072728Y0003660D01*
X0072466Y0003518D01*
X0072200Y0003383D01*
X0071931Y0003254D01*
X0071659Y0003132D01*
X0071384Y0003016D01*
X0071106Y0002907D01*
X0070826Y0002806D01*
X0070543Y0002711D01*
X0070258Y0002623D01*
X0069971Y0002542D01*
X0069683Y0002467D01*
X0069392Y0002401D01*
X0069100Y0002341D01*
X0068806Y0002288D01*
X0068511Y0002243D01*
X0068216Y0002204D01*
X0067919Y0002173D01*
X0067622Y0002150D01*
X0067324Y0002133D01*
X0067026Y0002124D01*
X0066728Y0002122D01*
X0066429Y0002128D01*
X0066131Y0002140D01*
X0065834Y0002160D01*
X0065537Y0002188D01*
X0065241Y0002222D01*
X0064945Y0002264D01*
X0064651Y0002313D01*
X0064358Y0002369D01*
X0064067Y0002432D01*
X0063777Y0002503D01*
X0063489Y0002580D01*
X0063203Y0002664D01*
X0062919Y0002756D01*
X0062637Y0002854D01*
X0062358Y0002959D01*
X0062082Y0003071D01*
X0061808Y0003190D01*
X0061538Y0003315D01*
X0061270Y0003447D01*
X0061006Y0003586D01*
X0060745Y0003731D01*
X0060488Y0003882D01*
X0060235Y0004039D01*
X0059986Y0004203D01*
X0059740Y0004373D01*
X0059499Y0004548D01*
X0059262Y0004730D01*
X0059030Y0004917D01*
X0058803Y0005109D01*
X0058580Y0005308D01*
X0058362Y0005511D01*
X0058149Y0005720D01*
X0057941Y0005934D01*
X0057739Y0006154D01*
X0057542Y0006377D01*
X0057351Y0006606D01*
X0057165Y0006840D01*
X0056985Y0007077D01*
X0056811Y0007319D01*
X0056643Y0007566D01*
X0056481Y0007816D01*
X0056325Y0008070D01*
X0056175Y0008328D01*
X0056032Y0008590D01*
X0055895Y0008855D01*
X0055764Y0009123D01*
X0055641Y0009394D01*
X0055524Y0009669D01*
X0055413Y0009946D01*
X0055310Y0010226D01*
X0055213Y0010508D01*
X0055123Y0010792D01*
X0055041Y0011079D01*
X0054965Y0011367D01*
X0054896Y0011657D01*
X0054835Y0011949D01*
X0054780Y0012242D01*
X0054733Y0012537D01*
X0054693Y0012832D01*
X0054660Y0013129D01*
X0054635Y0013426D01*
X0054617Y0013724D01*
X0054606Y0014022D01*
X0054602Y0014320D01*
X0054606Y0014618D01*
X0054617Y0014916D01*
X0054635Y0015214D01*
X0054660Y0015511D01*
X0054693Y0015808D01*
X0054733Y0016103D01*
X0054780Y0016398D01*
X0054835Y0016691D01*
X0054896Y0016983D01*
X0054965Y0017273D01*
X0055041Y0017561D01*
X0055123Y0017848D01*
X0055213Y0018132D01*
X0055310Y0018414D01*
X0055413Y0018694D01*
X0055524Y0018971D01*
X0055641Y0019246D01*
X0055764Y0019517D01*
X0055895Y0019785D01*
X0056032Y0020050D01*
X0056175Y0020312D01*
X0056325Y0020570D01*
X0056481Y0020824D01*
X0056643Y0021074D01*
X0056811Y0021321D01*
X0056985Y0021563D01*
X0057165Y0021800D01*
X0057351Y0022034D01*
X0057542Y0022263D01*
X0057739Y0022486D01*
X0057941Y0022706D01*
X0058149Y0022920D01*
X0058362Y0023129D01*
X0058580Y0023332D01*
X0058803Y0023531D01*
X0059030Y0023723D01*
X0059262Y0023910D01*
X0059499Y0024092D01*
X0059740Y0024267D01*
X0059986Y0024437D01*
X0060235Y0024601D01*
X0060488Y0024758D01*
X0060745Y0024909D01*
X0061006Y0025054D01*
X0061270Y0025193D01*
X0061538Y0025325D01*
X0061808Y0025450D01*
X0062082Y0025569D01*
X0062358Y0025681D01*
X0062637Y0025786D01*
X0062919Y0025884D01*
X0063203Y0025976D01*
X0063489Y0026060D01*
X0063777Y0026137D01*
X0064067Y0026208D01*
X0064358Y0026271D01*
X0064651Y0026327D01*
X0064945Y0026376D01*
X0065241Y0026418D01*
X0065537Y0026452D01*
X0065834Y0026480D01*
X0066131Y0026500D01*
X0066429Y0026512D01*
X0066728Y0026518D01*
X0067026Y0026516D01*
X0067324Y0026507D01*
X0067622Y0026490D01*
X0067919Y0026467D01*
X0068216Y0026436D01*
X0068511Y0026397D01*
X0068806Y0026352D01*
X0069100Y0026299D01*
X0069392Y0026239D01*
X0069683Y0026173D01*
X0069971Y0026098D01*
X0070258Y0026017D01*
X0070543Y0025929D01*
X0070826Y0025834D01*
X0071106Y0025733D01*
X0071384Y0025624D01*
X0071659Y0025508D01*
X0071931Y0025386D01*
X0072200Y0025257D01*
X0072466Y0025122D01*
X0072728Y0024980D01*
X0072987Y0024832D01*
X0073242Y0024678D01*
X0073494Y0024517D01*
X0073741Y0024351D01*
X0073984Y0024178D01*
X0074223Y0023999D01*
X0074458Y0023815D01*
X0074687Y0023625D01*
X0074913Y0023429D01*
X0075133Y0023228D01*
X0075348Y0023022D01*
X0075558Y0022810D01*
X0075763Y0022594D01*
X0075963Y0022372D01*
X0076157Y0022145D01*
X0076346Y0021914D01*
X0076528Y0021679D01*
X0076453Y0021622D01*
X0076272Y0021856D01*
X0076085Y0022085D01*
X0075892Y0022310D01*
X0075694Y0022530D01*
X0075491Y0022745D01*
X0075282Y0022955D01*
X0075068Y0023160D01*
X0074850Y0023359D01*
X0074626Y0023553D01*
X0074398Y0023742D01*
X0074166Y0023925D01*
X0073929Y0024102D01*
X0073687Y0024273D01*
X0073442Y0024439D01*
X0073193Y0024598D01*
X0072939Y0024751D01*
X0072683Y0024898D01*
X0072422Y0025039D01*
X0072158Y0025173D01*
X0071891Y0025301D01*
X0071621Y0025422D01*
X0071349Y0025537D01*
X0071073Y0025645D01*
X0070795Y0025746D01*
X0070514Y0025840D01*
X0070232Y0025927D01*
X0069947Y0026008D01*
X0069660Y0026081D01*
X0069372Y0026148D01*
X0069082Y0026207D01*
X0068790Y0026259D01*
X0068498Y0026304D01*
X0068204Y0026342D01*
X0067910Y0026373D01*
X0067615Y0026397D01*
X0067320Y0026413D01*
X0067024Y0026422D01*
X0066728Y0026424D01*
X0066432Y0026418D01*
X0066136Y0026406D01*
X0065841Y0026386D01*
X0065546Y0026359D01*
X0065252Y0026325D01*
X0064959Y0026283D01*
X0064667Y0026235D01*
X0064377Y0026179D01*
X0064088Y0026116D01*
X0063800Y0026046D01*
X0063514Y0025969D01*
X0063230Y0025886D01*
X0062949Y0025795D01*
X0062669Y0025697D01*
X0062392Y0025593D01*
X0062118Y0025482D01*
X0061847Y0025364D01*
X0061578Y0025240D01*
X0061313Y0025109D01*
X0061051Y0024971D01*
X0060792Y0024828D01*
X0060537Y0024678D01*
X0060285Y0024521D01*
X0060038Y0024359D01*
X0059795Y0024191D01*
X0059555Y0024016D01*
X0059320Y0023836D01*
X0059090Y0023651D01*
X0058864Y0023459D01*
X0058643Y0023263D01*
X0058427Y0023061D01*
X0058216Y0022853D01*
X0058010Y0022641D01*
X0057809Y0022423D01*
X0057613Y0022201D01*
X0057423Y0021974D01*
X0057239Y0021743D01*
X0057061Y0021507D01*
X0056888Y0021267D01*
X0056721Y0021022D01*
X0056560Y0020774D01*
X0056405Y0020521D01*
X0056257Y0020265D01*
X0056115Y0020006D01*
X0055979Y0019743D01*
X0055849Y0019477D01*
X0055727Y0019208D01*
X0055610Y0018935D01*
X0055501Y0018660D01*
X0055398Y0018383D01*
X0055302Y0018103D01*
X0055213Y0017821D01*
X0055131Y0017536D01*
X0055056Y0017250D01*
X0054988Y0016962D01*
X0054927Y0016673D01*
X0054873Y0016382D01*
X0054826Y0016089D01*
X0054786Y0015796D01*
X0054754Y0015502D01*
X0054729Y0015207D01*
X0054710Y0014912D01*
X0054700Y0014616D01*
X0054696Y0014320D01*
X0054700Y0014024D01*
X0054710Y0013728D01*
X0054729Y0013433D01*
X0054754Y0013138D01*
X0054786Y0012844D01*
X0054826Y0012551D01*
X0054873Y0012258D01*
X0054927Y0011967D01*
X0054988Y0011678D01*
X0055056Y0011390D01*
X0055131Y0011104D01*
X0055213Y0010819D01*
X0055302Y0010537D01*
X0055398Y0010257D01*
X0055501Y0009980D01*
X0055610Y0009705D01*
X0055727Y0009432D01*
X0055849Y0009163D01*
X0055979Y0008897D01*
X0056115Y0008634D01*
X0056257Y0008375D01*
X0056405Y0008119D01*
X0056560Y0007866D01*
X0056721Y0007618D01*
X0056888Y0007373D01*
X0057061Y0007133D01*
X0057239Y0006897D01*
X0057423Y0006666D01*
X0057613Y0006439D01*
X0057809Y0006217D01*
X0058010Y0005999D01*
X0058216Y0005787D01*
X0058427Y0005579D01*
X0058643Y0005377D01*
X0058864Y0005181D01*
X0059090Y0004989D01*
X0059320Y0004804D01*
X0059555Y0004624D01*
X0059795Y0004449D01*
X0060038Y0004281D01*
X0060285Y0004119D01*
X0060537Y0003962D01*
X0060792Y0003812D01*
X0061051Y0003669D01*
X0061313Y0003531D01*
X0061578Y0003400D01*
X0061847Y0003276D01*
X0062118Y0003158D01*
X0062392Y0003047D01*
X0062669Y0002943D01*
X0062949Y0002845D01*
X0063230Y0002754D01*
X0063514Y0002671D01*
X0063800Y0002594D01*
X0064088Y0002524D01*
X0064377Y0002461D01*
X0064667Y0002405D01*
X0064959Y0002357D01*
X0065252Y0002315D01*
X0065546Y0002281D01*
X0065841Y0002254D01*
X0066136Y0002234D01*
X0066432Y0002222D01*
X0066728Y0002216D01*
X0067024Y0002218D01*
X0067320Y0002227D01*
X0067615Y0002243D01*
X0067910Y0002267D01*
X0068204Y0002298D01*
X0068498Y0002336D01*
X0068790Y0002381D01*
X0069082Y0002433D01*
X0069372Y0002492D01*
X0069660Y0002559D01*
X0069947Y0002632D01*
X0070232Y0002713D01*
X0070514Y0002800D01*
X0070795Y0002894D01*
X0071073Y0002995D01*
X0071349Y0003103D01*
X0071621Y0003218D01*
X0071891Y0003339D01*
X0072158Y0003467D01*
X0072422Y0003601D01*
X0072683Y0003742D01*
X0072939Y0003889D01*
X0073193Y0004042D01*
X0073442Y0004201D01*
X0073687Y0004367D01*
X0073929Y0004538D01*
X0074166Y0004715D01*
X0074398Y0004898D01*
X0074626Y0005087D01*
X0074850Y0005281D01*
X0075068Y0005480D01*
X0075282Y0005685D01*
X0075491Y0005895D01*
X0075694Y0006110D01*
X0075892Y0006330D01*
X0076085Y0006555D01*
X0076272Y0006784D01*
X0076453Y0007018D01*
X0123680Y0074076D02*
X0124681Y0074076D01*
X0125154Y0074327D02*
X0125404Y0074076D01*
X0125904Y0074076D01*
X0126154Y0074327D01*
X0126154Y0074577D01*
X0125904Y0074827D01*
X0125404Y0074827D01*
X0125154Y0075077D01*
X0125154Y0075327D01*
X0125404Y0075578D01*
X0125904Y0075578D01*
X0126154Y0075327D01*
X0126627Y0075077D02*
X0127127Y0075578D01*
X0127127Y0074076D01*
X0126627Y0074076D02*
X0127628Y0074076D01*
X0125654Y0073826D02*
X0125654Y0075828D01*
X0124681Y0075578D02*
X0123680Y0075578D01*
X0123680Y0074076D01*
X0123680Y0074827D02*
X0124181Y0074827D01*
X0349672Y0158226D02*
X0350672Y0158226D01*
X0351145Y0158477D02*
X0351395Y0158226D01*
X0351895Y0158226D01*
X0352146Y0158477D01*
X0352146Y0158727D01*
X0351895Y0158977D01*
X0351395Y0158977D01*
X0351145Y0159227D01*
X0351145Y0159477D01*
X0351395Y0159728D01*
X0351895Y0159728D01*
X0352146Y0159477D01*
X0352618Y0159477D02*
X0352868Y0159728D01*
X0353369Y0159728D01*
X0353619Y0159477D01*
X0353619Y0159227D01*
X0352618Y0158226D01*
X0353619Y0158226D01*
X0351645Y0157976D02*
X0351645Y0159978D01*
X0350672Y0159728D02*
X0349672Y0159728D01*
X0349672Y0158226D01*
X0349672Y0158977D02*
X0350172Y0158977D01*
D231*
X0365163Y0142316D02*
X0365163Y0137916D01*
X0327624Y0137916D01*
X0327624Y0181716D01*
X0365163Y0181716D01*
X0365163Y0177316D01*
X0378863Y0177316D01*
X0378863Y0142316D01*
X0365163Y0142316D01*
X0366563Y0095966D02*
X0329024Y0095966D01*
X0329024Y0052166D01*
X0366563Y0052166D01*
X0366563Y0056566D01*
X0380263Y0056566D01*
X0380263Y0091566D01*
X0366563Y0091566D01*
X0366563Y0095966D01*
X0150048Y0095887D02*
X0150048Y0052087D01*
X0112508Y0052087D01*
X0112508Y0056487D01*
X0098808Y0056487D01*
X0098808Y0091487D01*
X0112508Y0091487D01*
X0112508Y0095887D01*
X0150048Y0095887D01*
X0148648Y0137837D02*
X0111108Y0137837D01*
X0111108Y0142237D01*
X0097408Y0142237D01*
X0097408Y0177237D01*
X0111108Y0177237D01*
X0111108Y0181637D01*
X0148648Y0181637D01*
X0148648Y0137837D01*
X0076800Y0021820D02*
X0076800Y0006820D01*
D232*
X0127954Y0006578D02*
X0127954Y0005578D01*
X0127954Y0006578D02*
X0137454Y0006578D01*
X0137454Y0005578D01*
X0137954Y0028578D02*
X0127954Y0028578D01*
X0127954Y0029578D01*
X0137954Y0029578D02*
X0137954Y0028578D01*
D233*
X0131913Y0032328D02*
X0131913Y0036831D01*
X0133414Y0036831D02*
X0130411Y0036831D01*
X0128810Y0036081D02*
X0128059Y0036831D01*
X0126558Y0036831D01*
X0125807Y0036081D01*
X0125807Y0035330D01*
X0126558Y0034579D01*
X0128059Y0034579D01*
X0128810Y0033829D01*
X0128810Y0033078D01*
X0128059Y0032328D01*
X0126558Y0032328D01*
X0125807Y0033078D01*
X0124206Y0032328D02*
X0122705Y0033829D01*
X0123455Y0033829D02*
X0121204Y0033829D01*
X0121204Y0032328D02*
X0121204Y0036831D01*
X0123455Y0036831D01*
X0124206Y0036081D01*
X0124206Y0034579D01*
X0123455Y0033829D01*
X0091760Y0010423D02*
X0091010Y0011174D01*
X0088758Y0011174D01*
X0088758Y0006670D01*
X0091010Y0006670D01*
X0091760Y0007420D01*
X0091760Y0010423D01*
X0087156Y0011174D02*
X0084154Y0011174D01*
X0084154Y0006670D01*
X0087156Y0006670D01*
X0085655Y0008922D02*
X0084154Y0008922D01*
X0082553Y0006670D02*
X0079550Y0006670D01*
X0079550Y0011174D01*
X0083550Y0198570D02*
X0086553Y0201572D01*
X0086553Y0202323D01*
X0085802Y0203074D01*
X0084301Y0203074D01*
X0083550Y0202323D01*
X0083550Y0198570D02*
X0086553Y0198570D01*
X0049553Y0198570D02*
X0046550Y0198570D01*
X0048051Y0198570D02*
X0048051Y0203074D01*
X0046550Y0201572D01*
X0055801Y0228570D02*
X0055050Y0229320D01*
X0055050Y0232323D01*
X0055801Y0233074D01*
X0057302Y0233074D01*
X0058053Y0232323D01*
X0058053Y0229320D01*
X0057302Y0228570D01*
X0055801Y0228570D01*
X0059654Y0228570D02*
X0059654Y0233074D01*
X0062656Y0228570D01*
X0062656Y0233074D01*
X0067260Y0233074D02*
X0064258Y0228570D01*
X0068862Y0229320D02*
X0068862Y0232323D01*
X0069612Y0233074D01*
X0071114Y0233074D01*
X0071864Y0232323D01*
X0071864Y0229320D01*
X0071114Y0228570D01*
X0069612Y0228570D01*
X0068862Y0229320D01*
X0073466Y0228570D02*
X0073466Y0233074D01*
X0076468Y0233074D01*
X0078070Y0233074D02*
X0081072Y0233074D01*
X0079571Y0230822D02*
X0078070Y0230822D01*
X0078070Y0228570D02*
X0078070Y0233074D01*
X0074967Y0230822D02*
X0073466Y0230822D01*
X0302550Y0220072D02*
X0304051Y0221574D01*
X0304051Y0217070D01*
X0302550Y0217070D02*
X0305553Y0217070D01*
X0307050Y0226070D02*
X0307050Y0230574D01*
X0307050Y0228322D02*
X0310053Y0228322D01*
X0311654Y0229823D02*
X0311654Y0226820D01*
X0312405Y0226070D01*
X0313906Y0226070D01*
X0314656Y0226820D01*
X0316258Y0228322D02*
X0319260Y0228322D01*
X0320862Y0229823D02*
X0321612Y0230574D01*
X0323114Y0230574D01*
X0323864Y0229823D01*
X0320862Y0226820D01*
X0321612Y0226070D01*
X0323114Y0226070D01*
X0323864Y0226820D01*
X0323864Y0229823D01*
X0325466Y0228322D02*
X0327718Y0228322D01*
X0328468Y0227571D01*
X0328468Y0226820D01*
X0327718Y0226070D01*
X0326216Y0226070D01*
X0325466Y0226820D01*
X0325466Y0228322D01*
X0326967Y0229823D01*
X0328468Y0230574D01*
X0320862Y0229823D02*
X0320862Y0226820D01*
X0314656Y0229823D02*
X0313906Y0230574D01*
X0312405Y0230574D01*
X0311654Y0229823D01*
X0310053Y0230574D02*
X0310053Y0226070D01*
X0348050Y0219322D02*
X0351053Y0219322D01*
X0350302Y0217070D02*
X0350302Y0221574D01*
X0348050Y0219322D01*
D234*
X0298236Y0208556D02*
X0298236Y0206087D01*
X0297618Y0205470D01*
X0296384Y0205470D01*
X0295767Y0206087D01*
X0298236Y0208556D01*
X0297618Y0209173D01*
X0296384Y0209173D01*
X0295767Y0208556D01*
X0295767Y0206087D01*
X0288236Y0205470D02*
X0285767Y0205470D01*
X0287001Y0205470D02*
X0287001Y0209173D01*
X0285767Y0207938D01*
X0278236Y0207938D02*
X0278236Y0208556D01*
X0277618Y0209173D01*
X0276384Y0209173D01*
X0275767Y0208556D01*
X0278236Y0207938D02*
X0275767Y0205470D01*
X0278236Y0205470D01*
X0268236Y0206087D02*
X0267618Y0205470D01*
X0266384Y0205470D01*
X0265767Y0206087D01*
X0267001Y0207321D02*
X0267618Y0207321D01*
X0268236Y0206704D01*
X0268236Y0206087D01*
X0267618Y0207321D02*
X0268236Y0207938D01*
X0268236Y0208556D01*
X0267618Y0209173D01*
X0266384Y0209173D01*
X0265767Y0208556D01*
X0258236Y0207321D02*
X0255767Y0207321D01*
X0257618Y0209173D01*
X0257618Y0205470D01*
X0248236Y0206087D02*
X0247618Y0205470D01*
X0246384Y0205470D01*
X0245767Y0206087D01*
X0245767Y0207321D02*
X0247001Y0207938D01*
X0247618Y0207938D01*
X0248236Y0207321D01*
X0248236Y0206087D01*
X0245767Y0207321D02*
X0245767Y0209173D01*
X0248236Y0209173D01*
X0238236Y0209173D02*
X0237001Y0208556D01*
X0235767Y0207321D01*
X0237618Y0207321D01*
X0238236Y0206704D01*
X0238236Y0206087D01*
X0237618Y0205470D01*
X0236384Y0205470D01*
X0235767Y0206087D01*
X0235767Y0207321D01*
X0228236Y0208556D02*
X0225767Y0206087D01*
X0225767Y0205470D01*
X0228236Y0208556D02*
X0228236Y0209173D01*
X0225767Y0209173D01*
X0212236Y0208556D02*
X0212236Y0207938D01*
X0211618Y0207321D01*
X0210384Y0207321D01*
X0209767Y0207938D01*
X0209767Y0208556D01*
X0210384Y0209173D01*
X0211618Y0209173D01*
X0212236Y0208556D01*
X0211618Y0207321D02*
X0212236Y0206704D01*
X0212236Y0206087D01*
X0211618Y0205470D01*
X0210384Y0205470D01*
X0209767Y0206087D01*
X0209767Y0206704D01*
X0210384Y0207321D01*
X0202236Y0207321D02*
X0200384Y0207321D01*
X0199767Y0207938D01*
X0199767Y0208556D01*
X0200384Y0209173D01*
X0201618Y0209173D01*
X0202236Y0208556D01*
X0202236Y0206087D01*
X0201618Y0205470D01*
X0200384Y0205470D01*
X0199767Y0206087D01*
X0194236Y0206087D02*
X0193618Y0205470D01*
X0192384Y0205470D01*
X0191767Y0206087D01*
X0194236Y0208556D01*
X0194236Y0206087D01*
X0194236Y0208556D02*
X0193618Y0209173D01*
X0192384Y0209173D01*
X0191767Y0208556D01*
X0191767Y0206087D01*
X0190552Y0205470D02*
X0188084Y0205470D01*
X0189318Y0205470D02*
X0189318Y0209173D01*
X0188084Y0207938D01*
X0184236Y0205470D02*
X0181767Y0205470D01*
X0180552Y0205470D02*
X0178084Y0205470D01*
X0179318Y0205470D02*
X0179318Y0209173D01*
X0178084Y0207938D01*
X0181767Y0207938D02*
X0183001Y0209173D01*
X0183001Y0205470D01*
X0174236Y0205470D02*
X0171767Y0205470D01*
X0174236Y0207938D01*
X0174236Y0208556D01*
X0173618Y0209173D01*
X0172384Y0209173D01*
X0171767Y0208556D01*
X0169318Y0209173D02*
X0169318Y0205470D01*
X0168084Y0205470D02*
X0170552Y0205470D01*
X0168084Y0207938D02*
X0169318Y0209173D01*
X0164236Y0208556D02*
X0164236Y0207938D01*
X0163618Y0207321D01*
X0164236Y0206704D01*
X0164236Y0206087D01*
X0163618Y0205470D01*
X0162384Y0205470D01*
X0161767Y0206087D01*
X0160552Y0205470D02*
X0158084Y0205470D01*
X0159318Y0205470D02*
X0159318Y0209173D01*
X0158084Y0207938D01*
X0155736Y0207938D02*
X0153884Y0207938D01*
X0153267Y0207321D01*
X0153267Y0206087D01*
X0153884Y0205470D01*
X0155736Y0205470D01*
X0155736Y0209173D01*
X0152052Y0207321D02*
X0152052Y0205470D01*
X0152052Y0207321D02*
X0151435Y0207938D01*
X0149584Y0207938D01*
X0149584Y0205470D01*
X0148369Y0205470D02*
X0146518Y0205470D01*
X0145901Y0206087D01*
X0145901Y0207321D01*
X0146518Y0207938D01*
X0148369Y0207938D01*
X0148369Y0204852D01*
X0147752Y0204235D01*
X0147135Y0204235D01*
X0143229Y0207321D02*
X0141995Y0207321D01*
X0140780Y0207321D02*
X0140780Y0206704D01*
X0138311Y0206704D01*
X0138311Y0206087D02*
X0138311Y0207321D01*
X0138929Y0207938D01*
X0140163Y0207938D01*
X0140780Y0207321D01*
X0140163Y0205470D02*
X0138929Y0205470D01*
X0138311Y0206087D01*
X0137097Y0205470D02*
X0135863Y0206704D01*
X0136480Y0206704D02*
X0134628Y0206704D01*
X0134628Y0205470D02*
X0134628Y0209173D01*
X0136480Y0209173D01*
X0137097Y0208556D01*
X0137097Y0207321D01*
X0136480Y0206704D01*
X0133414Y0207321D02*
X0130945Y0207321D01*
X0130945Y0207938D02*
X0132180Y0209173D01*
X0133414Y0207938D01*
X0133414Y0205470D01*
X0130945Y0205470D02*
X0130945Y0207938D01*
X0142612Y0208556D02*
X0142612Y0205470D01*
X0142612Y0208556D02*
X0143229Y0209173D01*
X0161767Y0208556D02*
X0162384Y0209173D01*
X0163618Y0209173D01*
X0164236Y0208556D01*
X0163618Y0207321D02*
X0163001Y0207321D01*
X0178823Y0218235D02*
X0179440Y0218235D01*
X0180057Y0218852D01*
X0180057Y0221938D01*
X0178206Y0221938D01*
X0177589Y0221321D01*
X0177589Y0220087D01*
X0178206Y0219470D01*
X0180057Y0219470D01*
X0181272Y0219470D02*
X0182506Y0219470D01*
X0181889Y0219470D02*
X0181889Y0221938D01*
X0181272Y0221938D01*
X0181889Y0223173D02*
X0181889Y0223790D01*
X0183727Y0221938D02*
X0184962Y0221938D01*
X0184344Y0222556D02*
X0184344Y0220087D01*
X0184962Y0219470D01*
X0186183Y0220087D02*
X0186800Y0220704D01*
X0188651Y0220704D01*
X0188651Y0221321D02*
X0188651Y0219470D01*
X0186800Y0219470D01*
X0186183Y0220087D01*
X0186800Y0221938D02*
X0188034Y0221938D01*
X0188651Y0221321D01*
X0189866Y0219470D02*
X0191100Y0219470D01*
X0190483Y0219470D02*
X0190483Y0223173D01*
X0189866Y0223173D01*
X0196004Y0223173D02*
X0197239Y0223173D01*
X0196621Y0223173D02*
X0196621Y0219470D01*
X0196004Y0219470D02*
X0197239Y0219470D01*
X0198460Y0219470D02*
X0200928Y0223173D01*
X0202143Y0222556D02*
X0202143Y0220087D01*
X0202760Y0219470D01*
X0203994Y0219470D01*
X0204612Y0220087D01*
X0204612Y0222556D01*
X0203994Y0223173D01*
X0202760Y0223173D01*
X0202143Y0222556D01*
X0176368Y0219470D02*
X0175133Y0219470D01*
X0175750Y0219470D02*
X0175750Y0221938D01*
X0175133Y0221938D01*
X0173919Y0222556D02*
X0173919Y0220087D01*
X0173302Y0219470D01*
X0171450Y0219470D01*
X0171450Y0223173D01*
X0173302Y0223173D01*
X0173919Y0222556D01*
X0175750Y0223173D02*
X0175750Y0223790D01*
X0247450Y0223173D02*
X0247450Y0219470D01*
X0249302Y0219470D01*
X0249919Y0220087D01*
X0249919Y0222556D01*
X0249302Y0223173D01*
X0247450Y0223173D01*
X0251133Y0221938D02*
X0251750Y0221938D01*
X0251750Y0219470D01*
X0251133Y0219470D02*
X0252368Y0219470D01*
X0253589Y0220087D02*
X0254206Y0219470D01*
X0256057Y0219470D01*
X0256057Y0218852D02*
X0256057Y0221938D01*
X0254206Y0221938D01*
X0253589Y0221321D01*
X0253589Y0220087D01*
X0254823Y0218235D02*
X0255440Y0218235D01*
X0256057Y0218852D01*
X0257272Y0219470D02*
X0258506Y0219470D01*
X0257889Y0219470D02*
X0257889Y0221938D01*
X0257272Y0221938D01*
X0257889Y0223173D02*
X0257889Y0223790D01*
X0259727Y0221938D02*
X0260962Y0221938D01*
X0260344Y0222556D02*
X0260344Y0220087D01*
X0260962Y0219470D01*
X0262183Y0220087D02*
X0262800Y0220704D01*
X0264651Y0220704D01*
X0264651Y0221321D02*
X0264651Y0219470D01*
X0262800Y0219470D01*
X0262183Y0220087D01*
X0262800Y0221938D02*
X0264034Y0221938D01*
X0264651Y0221321D01*
X0265866Y0219470D02*
X0267100Y0219470D01*
X0266483Y0219470D02*
X0266483Y0223173D01*
X0265866Y0223173D01*
X0272004Y0223173D02*
X0273239Y0223173D01*
X0272621Y0223173D02*
X0272621Y0219470D01*
X0272004Y0219470D02*
X0273239Y0219470D01*
X0274460Y0219470D02*
X0276928Y0223173D01*
X0278143Y0222556D02*
X0278143Y0220087D01*
X0278760Y0219470D01*
X0279994Y0219470D01*
X0280612Y0220087D01*
X0280612Y0222556D01*
X0279994Y0223173D01*
X0278760Y0223173D01*
X0278143Y0222556D01*
X0251750Y0223173D02*
X0251750Y0223790D01*
X0227570Y0033790D02*
X0227570Y0033173D01*
X0227570Y0031938D02*
X0227570Y0029470D01*
X0226953Y0029470D02*
X0228188Y0029470D01*
X0229409Y0029470D02*
X0229409Y0031938D01*
X0231260Y0031938D01*
X0231877Y0031321D01*
X0231877Y0029470D01*
X0227570Y0031938D02*
X0226953Y0031938D01*
X0225739Y0030704D02*
X0225739Y0033173D01*
X0223270Y0033173D02*
X0223270Y0030704D01*
X0224504Y0029470D01*
X0225739Y0030704D01*
X0217325Y0029470D02*
X0215473Y0029470D01*
X0214856Y0030087D01*
X0214856Y0031321D01*
X0215473Y0031938D01*
X0217325Y0031938D01*
X0217325Y0033173D02*
X0217325Y0029470D01*
X0213642Y0029470D02*
X0213642Y0031321D01*
X0213024Y0031938D01*
X0211173Y0031938D01*
X0211173Y0029470D01*
X0209959Y0030087D02*
X0209959Y0031321D01*
X0208724Y0031321D01*
X0207490Y0032556D02*
X0207490Y0030087D01*
X0208107Y0029470D01*
X0209341Y0029470D01*
X0209959Y0030087D01*
X0209959Y0032556D02*
X0209341Y0033173D01*
X0208107Y0033173D01*
X0207490Y0032556D01*
X0200922Y0031938D02*
X0199688Y0029470D01*
X0198453Y0031938D01*
X0197239Y0031321D02*
X0197239Y0030087D01*
X0196622Y0029470D01*
X0195387Y0029470D01*
X0194770Y0030087D01*
X0194770Y0031321D02*
X0196004Y0031938D01*
X0196622Y0031938D01*
X0197239Y0031321D01*
X0197239Y0033173D02*
X0194770Y0033173D01*
X0194770Y0031321D01*
X0189922Y0031938D02*
X0188688Y0029470D01*
X0187453Y0031938D01*
X0186239Y0031938D02*
X0185622Y0031321D01*
X0186239Y0030704D01*
X0186239Y0030087D01*
X0185622Y0029470D01*
X0184387Y0029470D01*
X0183770Y0030087D01*
X0185004Y0031321D02*
X0185622Y0031321D01*
X0186239Y0031938D02*
X0186239Y0032556D01*
X0185622Y0033173D01*
X0184387Y0033173D01*
X0183770Y0032556D01*
X0179745Y0033173D02*
X0177277Y0033173D01*
X0178511Y0033173D02*
X0178511Y0029470D01*
X0176062Y0030087D02*
X0175445Y0029470D01*
X0174211Y0029470D01*
X0173593Y0030087D01*
X0172379Y0029470D02*
X0171145Y0030704D01*
X0171762Y0030704D02*
X0169910Y0030704D01*
X0169910Y0029470D02*
X0169910Y0033173D01*
X0171762Y0033173D01*
X0172379Y0032556D01*
X0172379Y0031321D01*
X0171762Y0030704D01*
X0173593Y0031938D02*
X0174211Y0031321D01*
X0175445Y0031321D01*
X0176062Y0030704D01*
X0176062Y0030087D01*
X0176062Y0032556D02*
X0175445Y0033173D01*
X0174211Y0033173D01*
X0173593Y0032556D01*
X0173593Y0031938D01*
X0245450Y0032556D02*
X0245450Y0030087D01*
X0247919Y0032556D01*
X0247919Y0030087D01*
X0247302Y0029470D01*
X0246067Y0029470D01*
X0245450Y0030087D01*
X0245450Y0032556D02*
X0246067Y0033173D01*
X0247302Y0033173D01*
X0247919Y0032556D01*
X0255450Y0031938D02*
X0256684Y0033173D01*
X0256684Y0029470D01*
X0255450Y0029470D02*
X0257919Y0029470D01*
X0265450Y0029470D02*
X0267919Y0031938D01*
X0267919Y0032556D01*
X0267302Y0033173D01*
X0266067Y0033173D01*
X0265450Y0032556D01*
X0265450Y0029470D02*
X0267919Y0029470D01*
X0275450Y0030087D02*
X0276067Y0029470D01*
X0277302Y0029470D01*
X0277919Y0030087D01*
X0277919Y0030704D01*
X0277302Y0031321D01*
X0276684Y0031321D01*
X0277302Y0031321D02*
X0277919Y0031938D01*
X0277919Y0032556D01*
X0277302Y0033173D01*
X0276067Y0033173D01*
X0275450Y0032556D01*
X0285450Y0031321D02*
X0287919Y0031321D01*
X0287302Y0029470D02*
X0287302Y0033173D01*
X0285450Y0031321D01*
X0295450Y0031321D02*
X0296684Y0031938D01*
X0297302Y0031938D01*
X0297919Y0031321D01*
X0297919Y0030087D01*
X0297302Y0029470D01*
X0296067Y0029470D01*
X0295450Y0030087D01*
X0295450Y0031321D02*
X0295450Y0033173D01*
X0297919Y0033173D01*
X0285778Y0019993D02*
X0284544Y0019993D01*
X0285161Y0019993D02*
X0285161Y0016290D01*
X0284544Y0016290D02*
X0285778Y0016290D01*
X0286999Y0016290D02*
X0286999Y0018759D01*
X0288851Y0018759D01*
X0289468Y0018141D01*
X0289468Y0016290D01*
X0279647Y0016290D02*
X0277795Y0016290D01*
X0277178Y0016907D01*
X0277178Y0018141D01*
X0277795Y0018759D01*
X0279647Y0018759D01*
X0279647Y0015673D01*
X0279029Y0015055D01*
X0278412Y0015055D01*
X0275963Y0016907D02*
X0275963Y0018141D01*
X0275346Y0018759D01*
X0274112Y0018759D01*
X0273495Y0018141D01*
X0273495Y0016907D01*
X0274112Y0016290D01*
X0275346Y0016290D01*
X0275963Y0016907D01*
X0272274Y0016290D02*
X0271039Y0016290D01*
X0271656Y0016290D02*
X0271656Y0019993D01*
X0271039Y0019993D01*
X0269208Y0018759D02*
X0269825Y0018141D01*
X0269825Y0016290D01*
X0267973Y0016290D01*
X0267356Y0016907D01*
X0267973Y0017524D01*
X0269825Y0017524D01*
X0269208Y0018759D02*
X0267973Y0018759D01*
X0266142Y0018141D02*
X0266142Y0016290D01*
X0266142Y0018141D02*
X0265524Y0018759D01*
X0263673Y0018759D01*
X0263673Y0016290D01*
X0262459Y0016290D02*
X0262459Y0018759D01*
X0261224Y0019993D01*
X0259990Y0018759D01*
X0259990Y0016290D01*
X0259990Y0018141D02*
X0262459Y0018141D01*
M02*
