G75*
%MOIN*%
%OFA0B0*%
%FSLAX25Y25*%
%IPPOS*%
%LPD*%
%AMOC8*
5,1,8,0,0,1.08239X$1,22.5*
%
%ADD10C,0.01000*%
%ADD11C,0.00000*%
D10*
X0001500Y0005167D02*
X0301500Y0005167D01*
X0301500Y0205167D01*
X0001500Y0205167D01*
X0001500Y0005167D01*
D11*
X0010220Y0015167D02*
X0010222Y0015238D01*
X0010228Y0015309D01*
X0010238Y0015380D01*
X0010252Y0015449D01*
X0010269Y0015518D01*
X0010291Y0015586D01*
X0010316Y0015653D01*
X0010345Y0015718D01*
X0010377Y0015781D01*
X0010413Y0015843D01*
X0010452Y0015902D01*
X0010495Y0015959D01*
X0010540Y0016014D01*
X0010589Y0016066D01*
X0010640Y0016115D01*
X0010694Y0016161D01*
X0010751Y0016205D01*
X0010809Y0016245D01*
X0010870Y0016281D01*
X0010933Y0016315D01*
X0010998Y0016344D01*
X0011064Y0016370D01*
X0011132Y0016393D01*
X0011200Y0016411D01*
X0011270Y0016426D01*
X0011340Y0016437D01*
X0011411Y0016444D01*
X0011482Y0016447D01*
X0011553Y0016446D01*
X0011624Y0016441D01*
X0011695Y0016432D01*
X0011765Y0016419D01*
X0011834Y0016403D01*
X0011902Y0016382D01*
X0011969Y0016358D01*
X0012035Y0016330D01*
X0012098Y0016298D01*
X0012160Y0016263D01*
X0012220Y0016225D01*
X0012278Y0016183D01*
X0012333Y0016139D01*
X0012386Y0016091D01*
X0012436Y0016040D01*
X0012483Y0015987D01*
X0012527Y0015931D01*
X0012568Y0015873D01*
X0012606Y0015812D01*
X0012640Y0015750D01*
X0012670Y0015685D01*
X0012697Y0015620D01*
X0012721Y0015552D01*
X0012740Y0015484D01*
X0012756Y0015415D01*
X0012768Y0015344D01*
X0012776Y0015274D01*
X0012780Y0015203D01*
X0012780Y0015131D01*
X0012776Y0015060D01*
X0012768Y0014990D01*
X0012756Y0014919D01*
X0012740Y0014850D01*
X0012721Y0014782D01*
X0012697Y0014714D01*
X0012670Y0014649D01*
X0012640Y0014584D01*
X0012606Y0014522D01*
X0012568Y0014461D01*
X0012527Y0014403D01*
X0012483Y0014347D01*
X0012436Y0014294D01*
X0012386Y0014243D01*
X0012333Y0014195D01*
X0012278Y0014151D01*
X0012220Y0014109D01*
X0012160Y0014071D01*
X0012098Y0014036D01*
X0012035Y0014004D01*
X0011969Y0013976D01*
X0011902Y0013952D01*
X0011834Y0013931D01*
X0011765Y0013915D01*
X0011695Y0013902D01*
X0011624Y0013893D01*
X0011553Y0013888D01*
X0011482Y0013887D01*
X0011411Y0013890D01*
X0011340Y0013897D01*
X0011270Y0013908D01*
X0011200Y0013923D01*
X0011132Y0013941D01*
X0011064Y0013964D01*
X0010998Y0013990D01*
X0010933Y0014019D01*
X0010870Y0014053D01*
X0010809Y0014089D01*
X0010751Y0014129D01*
X0010694Y0014173D01*
X0010640Y0014219D01*
X0010589Y0014268D01*
X0010540Y0014320D01*
X0010495Y0014375D01*
X0010452Y0014432D01*
X0010413Y0014491D01*
X0010377Y0014553D01*
X0010345Y0014616D01*
X0010316Y0014681D01*
X0010291Y0014748D01*
X0010269Y0014816D01*
X0010252Y0014885D01*
X0010238Y0014954D01*
X0010228Y0015025D01*
X0010222Y0015096D01*
X0010220Y0015167D01*
X0010811Y0035167D02*
X0010813Y0035219D01*
X0010819Y0035271D01*
X0010829Y0035322D01*
X0010842Y0035372D01*
X0010860Y0035422D01*
X0010881Y0035469D01*
X0010905Y0035515D01*
X0010934Y0035559D01*
X0010965Y0035601D01*
X0010999Y0035640D01*
X0011036Y0035677D01*
X0011076Y0035710D01*
X0011119Y0035741D01*
X0011163Y0035768D01*
X0011209Y0035792D01*
X0011258Y0035812D01*
X0011307Y0035828D01*
X0011358Y0035841D01*
X0011409Y0035850D01*
X0011461Y0035855D01*
X0011513Y0035856D01*
X0011565Y0035853D01*
X0011617Y0035846D01*
X0011668Y0035835D01*
X0011718Y0035821D01*
X0011767Y0035802D01*
X0011814Y0035780D01*
X0011859Y0035755D01*
X0011903Y0035726D01*
X0011944Y0035694D01*
X0011983Y0035659D01*
X0012018Y0035621D01*
X0012051Y0035580D01*
X0012081Y0035538D01*
X0012107Y0035493D01*
X0012130Y0035446D01*
X0012149Y0035397D01*
X0012165Y0035347D01*
X0012177Y0035297D01*
X0012185Y0035245D01*
X0012189Y0035193D01*
X0012189Y0035141D01*
X0012185Y0035089D01*
X0012177Y0035037D01*
X0012165Y0034987D01*
X0012149Y0034937D01*
X0012130Y0034888D01*
X0012107Y0034841D01*
X0012081Y0034796D01*
X0012051Y0034754D01*
X0012018Y0034713D01*
X0011983Y0034675D01*
X0011944Y0034640D01*
X0011903Y0034608D01*
X0011859Y0034579D01*
X0011814Y0034554D01*
X0011767Y0034532D01*
X0011718Y0034513D01*
X0011668Y0034499D01*
X0011617Y0034488D01*
X0011565Y0034481D01*
X0011513Y0034478D01*
X0011461Y0034479D01*
X0011409Y0034484D01*
X0011358Y0034493D01*
X0011307Y0034506D01*
X0011258Y0034522D01*
X0011209Y0034542D01*
X0011163Y0034566D01*
X0011119Y0034593D01*
X0011076Y0034624D01*
X0011036Y0034657D01*
X0010999Y0034694D01*
X0010965Y0034733D01*
X0010934Y0034775D01*
X0010905Y0034819D01*
X0010881Y0034865D01*
X0010860Y0034912D01*
X0010842Y0034962D01*
X0010829Y0035012D01*
X0010819Y0035063D01*
X0010813Y0035115D01*
X0010811Y0035167D01*
X0010811Y0065167D02*
X0010813Y0065219D01*
X0010819Y0065271D01*
X0010829Y0065322D01*
X0010842Y0065372D01*
X0010860Y0065422D01*
X0010881Y0065469D01*
X0010905Y0065515D01*
X0010934Y0065559D01*
X0010965Y0065601D01*
X0010999Y0065640D01*
X0011036Y0065677D01*
X0011076Y0065710D01*
X0011119Y0065741D01*
X0011163Y0065768D01*
X0011209Y0065792D01*
X0011258Y0065812D01*
X0011307Y0065828D01*
X0011358Y0065841D01*
X0011409Y0065850D01*
X0011461Y0065855D01*
X0011513Y0065856D01*
X0011565Y0065853D01*
X0011617Y0065846D01*
X0011668Y0065835D01*
X0011718Y0065821D01*
X0011767Y0065802D01*
X0011814Y0065780D01*
X0011859Y0065755D01*
X0011903Y0065726D01*
X0011944Y0065694D01*
X0011983Y0065659D01*
X0012018Y0065621D01*
X0012051Y0065580D01*
X0012081Y0065538D01*
X0012107Y0065493D01*
X0012130Y0065446D01*
X0012149Y0065397D01*
X0012165Y0065347D01*
X0012177Y0065297D01*
X0012185Y0065245D01*
X0012189Y0065193D01*
X0012189Y0065141D01*
X0012185Y0065089D01*
X0012177Y0065037D01*
X0012165Y0064987D01*
X0012149Y0064937D01*
X0012130Y0064888D01*
X0012107Y0064841D01*
X0012081Y0064796D01*
X0012051Y0064754D01*
X0012018Y0064713D01*
X0011983Y0064675D01*
X0011944Y0064640D01*
X0011903Y0064608D01*
X0011859Y0064579D01*
X0011814Y0064554D01*
X0011767Y0064532D01*
X0011718Y0064513D01*
X0011668Y0064499D01*
X0011617Y0064488D01*
X0011565Y0064481D01*
X0011513Y0064478D01*
X0011461Y0064479D01*
X0011409Y0064484D01*
X0011358Y0064493D01*
X0011307Y0064506D01*
X0011258Y0064522D01*
X0011209Y0064542D01*
X0011163Y0064566D01*
X0011119Y0064593D01*
X0011076Y0064624D01*
X0011036Y0064657D01*
X0010999Y0064694D01*
X0010965Y0064733D01*
X0010934Y0064775D01*
X0010905Y0064819D01*
X0010881Y0064865D01*
X0010860Y0064912D01*
X0010842Y0064962D01*
X0010829Y0065012D01*
X0010819Y0065063D01*
X0010813Y0065115D01*
X0010811Y0065167D01*
X0010811Y0150167D02*
X0010813Y0150219D01*
X0010819Y0150271D01*
X0010829Y0150322D01*
X0010842Y0150372D01*
X0010860Y0150422D01*
X0010881Y0150469D01*
X0010905Y0150515D01*
X0010934Y0150559D01*
X0010965Y0150601D01*
X0010999Y0150640D01*
X0011036Y0150677D01*
X0011076Y0150710D01*
X0011119Y0150741D01*
X0011163Y0150768D01*
X0011209Y0150792D01*
X0011258Y0150812D01*
X0011307Y0150828D01*
X0011358Y0150841D01*
X0011409Y0150850D01*
X0011461Y0150855D01*
X0011513Y0150856D01*
X0011565Y0150853D01*
X0011617Y0150846D01*
X0011668Y0150835D01*
X0011718Y0150821D01*
X0011767Y0150802D01*
X0011814Y0150780D01*
X0011859Y0150755D01*
X0011903Y0150726D01*
X0011944Y0150694D01*
X0011983Y0150659D01*
X0012018Y0150621D01*
X0012051Y0150580D01*
X0012081Y0150538D01*
X0012107Y0150493D01*
X0012130Y0150446D01*
X0012149Y0150397D01*
X0012165Y0150347D01*
X0012177Y0150297D01*
X0012185Y0150245D01*
X0012189Y0150193D01*
X0012189Y0150141D01*
X0012185Y0150089D01*
X0012177Y0150037D01*
X0012165Y0149987D01*
X0012149Y0149937D01*
X0012130Y0149888D01*
X0012107Y0149841D01*
X0012081Y0149796D01*
X0012051Y0149754D01*
X0012018Y0149713D01*
X0011983Y0149675D01*
X0011944Y0149640D01*
X0011903Y0149608D01*
X0011859Y0149579D01*
X0011814Y0149554D01*
X0011767Y0149532D01*
X0011718Y0149513D01*
X0011668Y0149499D01*
X0011617Y0149488D01*
X0011565Y0149481D01*
X0011513Y0149478D01*
X0011461Y0149479D01*
X0011409Y0149484D01*
X0011358Y0149493D01*
X0011307Y0149506D01*
X0011258Y0149522D01*
X0011209Y0149542D01*
X0011163Y0149566D01*
X0011119Y0149593D01*
X0011076Y0149624D01*
X0011036Y0149657D01*
X0010999Y0149694D01*
X0010965Y0149733D01*
X0010934Y0149775D01*
X0010905Y0149819D01*
X0010881Y0149865D01*
X0010860Y0149912D01*
X0010842Y0149962D01*
X0010829Y0150012D01*
X0010819Y0150063D01*
X0010813Y0150115D01*
X0010811Y0150167D01*
X0010811Y0180167D02*
X0010813Y0180219D01*
X0010819Y0180271D01*
X0010829Y0180322D01*
X0010842Y0180372D01*
X0010860Y0180422D01*
X0010881Y0180469D01*
X0010905Y0180515D01*
X0010934Y0180559D01*
X0010965Y0180601D01*
X0010999Y0180640D01*
X0011036Y0180677D01*
X0011076Y0180710D01*
X0011119Y0180741D01*
X0011163Y0180768D01*
X0011209Y0180792D01*
X0011258Y0180812D01*
X0011307Y0180828D01*
X0011358Y0180841D01*
X0011409Y0180850D01*
X0011461Y0180855D01*
X0011513Y0180856D01*
X0011565Y0180853D01*
X0011617Y0180846D01*
X0011668Y0180835D01*
X0011718Y0180821D01*
X0011767Y0180802D01*
X0011814Y0180780D01*
X0011859Y0180755D01*
X0011903Y0180726D01*
X0011944Y0180694D01*
X0011983Y0180659D01*
X0012018Y0180621D01*
X0012051Y0180580D01*
X0012081Y0180538D01*
X0012107Y0180493D01*
X0012130Y0180446D01*
X0012149Y0180397D01*
X0012165Y0180347D01*
X0012177Y0180297D01*
X0012185Y0180245D01*
X0012189Y0180193D01*
X0012189Y0180141D01*
X0012185Y0180089D01*
X0012177Y0180037D01*
X0012165Y0179987D01*
X0012149Y0179937D01*
X0012130Y0179888D01*
X0012107Y0179841D01*
X0012081Y0179796D01*
X0012051Y0179754D01*
X0012018Y0179713D01*
X0011983Y0179675D01*
X0011944Y0179640D01*
X0011903Y0179608D01*
X0011859Y0179579D01*
X0011814Y0179554D01*
X0011767Y0179532D01*
X0011718Y0179513D01*
X0011668Y0179499D01*
X0011617Y0179488D01*
X0011565Y0179481D01*
X0011513Y0179478D01*
X0011461Y0179479D01*
X0011409Y0179484D01*
X0011358Y0179493D01*
X0011307Y0179506D01*
X0011258Y0179522D01*
X0011209Y0179542D01*
X0011163Y0179566D01*
X0011119Y0179593D01*
X0011076Y0179624D01*
X0011036Y0179657D01*
X0010999Y0179694D01*
X0010965Y0179733D01*
X0010934Y0179775D01*
X0010905Y0179819D01*
X0010881Y0179865D01*
X0010860Y0179912D01*
X0010842Y0179962D01*
X0010829Y0180012D01*
X0010819Y0180063D01*
X0010813Y0180115D01*
X0010811Y0180167D01*
X0010220Y0195167D02*
X0010222Y0195238D01*
X0010228Y0195309D01*
X0010238Y0195380D01*
X0010252Y0195449D01*
X0010269Y0195518D01*
X0010291Y0195586D01*
X0010316Y0195653D01*
X0010345Y0195718D01*
X0010377Y0195781D01*
X0010413Y0195843D01*
X0010452Y0195902D01*
X0010495Y0195959D01*
X0010540Y0196014D01*
X0010589Y0196066D01*
X0010640Y0196115D01*
X0010694Y0196161D01*
X0010751Y0196205D01*
X0010809Y0196245D01*
X0010870Y0196281D01*
X0010933Y0196315D01*
X0010998Y0196344D01*
X0011064Y0196370D01*
X0011132Y0196393D01*
X0011200Y0196411D01*
X0011270Y0196426D01*
X0011340Y0196437D01*
X0011411Y0196444D01*
X0011482Y0196447D01*
X0011553Y0196446D01*
X0011624Y0196441D01*
X0011695Y0196432D01*
X0011765Y0196419D01*
X0011834Y0196403D01*
X0011902Y0196382D01*
X0011969Y0196358D01*
X0012035Y0196330D01*
X0012098Y0196298D01*
X0012160Y0196263D01*
X0012220Y0196225D01*
X0012278Y0196183D01*
X0012333Y0196139D01*
X0012386Y0196091D01*
X0012436Y0196040D01*
X0012483Y0195987D01*
X0012527Y0195931D01*
X0012568Y0195873D01*
X0012606Y0195812D01*
X0012640Y0195750D01*
X0012670Y0195685D01*
X0012697Y0195620D01*
X0012721Y0195552D01*
X0012740Y0195484D01*
X0012756Y0195415D01*
X0012768Y0195344D01*
X0012776Y0195274D01*
X0012780Y0195203D01*
X0012780Y0195131D01*
X0012776Y0195060D01*
X0012768Y0194990D01*
X0012756Y0194919D01*
X0012740Y0194850D01*
X0012721Y0194782D01*
X0012697Y0194714D01*
X0012670Y0194649D01*
X0012640Y0194584D01*
X0012606Y0194522D01*
X0012568Y0194461D01*
X0012527Y0194403D01*
X0012483Y0194347D01*
X0012436Y0194294D01*
X0012386Y0194243D01*
X0012333Y0194195D01*
X0012278Y0194151D01*
X0012220Y0194109D01*
X0012160Y0194071D01*
X0012098Y0194036D01*
X0012035Y0194004D01*
X0011969Y0193976D01*
X0011902Y0193952D01*
X0011834Y0193931D01*
X0011765Y0193915D01*
X0011695Y0193902D01*
X0011624Y0193893D01*
X0011553Y0193888D01*
X0011482Y0193887D01*
X0011411Y0193890D01*
X0011340Y0193897D01*
X0011270Y0193908D01*
X0011200Y0193923D01*
X0011132Y0193941D01*
X0011064Y0193964D01*
X0010998Y0193990D01*
X0010933Y0194019D01*
X0010870Y0194053D01*
X0010809Y0194089D01*
X0010751Y0194129D01*
X0010694Y0194173D01*
X0010640Y0194219D01*
X0010589Y0194268D01*
X0010540Y0194320D01*
X0010495Y0194375D01*
X0010452Y0194432D01*
X0010413Y0194491D01*
X0010377Y0194553D01*
X0010345Y0194616D01*
X0010316Y0194681D01*
X0010291Y0194748D01*
X0010269Y0194816D01*
X0010252Y0194885D01*
X0010238Y0194954D01*
X0010228Y0195025D01*
X0010222Y0195096D01*
X0010220Y0195167D01*
X0290220Y0195167D02*
X0290222Y0195238D01*
X0290228Y0195309D01*
X0290238Y0195380D01*
X0290252Y0195449D01*
X0290269Y0195518D01*
X0290291Y0195586D01*
X0290316Y0195653D01*
X0290345Y0195718D01*
X0290377Y0195781D01*
X0290413Y0195843D01*
X0290452Y0195902D01*
X0290495Y0195959D01*
X0290540Y0196014D01*
X0290589Y0196066D01*
X0290640Y0196115D01*
X0290694Y0196161D01*
X0290751Y0196205D01*
X0290809Y0196245D01*
X0290870Y0196281D01*
X0290933Y0196315D01*
X0290998Y0196344D01*
X0291064Y0196370D01*
X0291132Y0196393D01*
X0291200Y0196411D01*
X0291270Y0196426D01*
X0291340Y0196437D01*
X0291411Y0196444D01*
X0291482Y0196447D01*
X0291553Y0196446D01*
X0291624Y0196441D01*
X0291695Y0196432D01*
X0291765Y0196419D01*
X0291834Y0196403D01*
X0291902Y0196382D01*
X0291969Y0196358D01*
X0292035Y0196330D01*
X0292098Y0196298D01*
X0292160Y0196263D01*
X0292220Y0196225D01*
X0292278Y0196183D01*
X0292333Y0196139D01*
X0292386Y0196091D01*
X0292436Y0196040D01*
X0292483Y0195987D01*
X0292527Y0195931D01*
X0292568Y0195873D01*
X0292606Y0195812D01*
X0292640Y0195750D01*
X0292670Y0195685D01*
X0292697Y0195620D01*
X0292721Y0195552D01*
X0292740Y0195484D01*
X0292756Y0195415D01*
X0292768Y0195344D01*
X0292776Y0195274D01*
X0292780Y0195203D01*
X0292780Y0195131D01*
X0292776Y0195060D01*
X0292768Y0194990D01*
X0292756Y0194919D01*
X0292740Y0194850D01*
X0292721Y0194782D01*
X0292697Y0194714D01*
X0292670Y0194649D01*
X0292640Y0194584D01*
X0292606Y0194522D01*
X0292568Y0194461D01*
X0292527Y0194403D01*
X0292483Y0194347D01*
X0292436Y0194294D01*
X0292386Y0194243D01*
X0292333Y0194195D01*
X0292278Y0194151D01*
X0292220Y0194109D01*
X0292160Y0194071D01*
X0292098Y0194036D01*
X0292035Y0194004D01*
X0291969Y0193976D01*
X0291902Y0193952D01*
X0291834Y0193931D01*
X0291765Y0193915D01*
X0291695Y0193902D01*
X0291624Y0193893D01*
X0291553Y0193888D01*
X0291482Y0193887D01*
X0291411Y0193890D01*
X0291340Y0193897D01*
X0291270Y0193908D01*
X0291200Y0193923D01*
X0291132Y0193941D01*
X0291064Y0193964D01*
X0290998Y0193990D01*
X0290933Y0194019D01*
X0290870Y0194053D01*
X0290809Y0194089D01*
X0290751Y0194129D01*
X0290694Y0194173D01*
X0290640Y0194219D01*
X0290589Y0194268D01*
X0290540Y0194320D01*
X0290495Y0194375D01*
X0290452Y0194432D01*
X0290413Y0194491D01*
X0290377Y0194553D01*
X0290345Y0194616D01*
X0290316Y0194681D01*
X0290291Y0194748D01*
X0290269Y0194816D01*
X0290252Y0194885D01*
X0290238Y0194954D01*
X0290228Y0195025D01*
X0290222Y0195096D01*
X0290220Y0195167D01*
X0290811Y0180167D02*
X0290813Y0180219D01*
X0290819Y0180271D01*
X0290829Y0180322D01*
X0290842Y0180372D01*
X0290860Y0180422D01*
X0290881Y0180469D01*
X0290905Y0180515D01*
X0290934Y0180559D01*
X0290965Y0180601D01*
X0290999Y0180640D01*
X0291036Y0180677D01*
X0291076Y0180710D01*
X0291119Y0180741D01*
X0291163Y0180768D01*
X0291209Y0180792D01*
X0291258Y0180812D01*
X0291307Y0180828D01*
X0291358Y0180841D01*
X0291409Y0180850D01*
X0291461Y0180855D01*
X0291513Y0180856D01*
X0291565Y0180853D01*
X0291617Y0180846D01*
X0291668Y0180835D01*
X0291718Y0180821D01*
X0291767Y0180802D01*
X0291814Y0180780D01*
X0291859Y0180755D01*
X0291903Y0180726D01*
X0291944Y0180694D01*
X0291983Y0180659D01*
X0292018Y0180621D01*
X0292051Y0180580D01*
X0292081Y0180538D01*
X0292107Y0180493D01*
X0292130Y0180446D01*
X0292149Y0180397D01*
X0292165Y0180347D01*
X0292177Y0180297D01*
X0292185Y0180245D01*
X0292189Y0180193D01*
X0292189Y0180141D01*
X0292185Y0180089D01*
X0292177Y0180037D01*
X0292165Y0179987D01*
X0292149Y0179937D01*
X0292130Y0179888D01*
X0292107Y0179841D01*
X0292081Y0179796D01*
X0292051Y0179754D01*
X0292018Y0179713D01*
X0291983Y0179675D01*
X0291944Y0179640D01*
X0291903Y0179608D01*
X0291859Y0179579D01*
X0291814Y0179554D01*
X0291767Y0179532D01*
X0291718Y0179513D01*
X0291668Y0179499D01*
X0291617Y0179488D01*
X0291565Y0179481D01*
X0291513Y0179478D01*
X0291461Y0179479D01*
X0291409Y0179484D01*
X0291358Y0179493D01*
X0291307Y0179506D01*
X0291258Y0179522D01*
X0291209Y0179542D01*
X0291163Y0179566D01*
X0291119Y0179593D01*
X0291076Y0179624D01*
X0291036Y0179657D01*
X0290999Y0179694D01*
X0290965Y0179733D01*
X0290934Y0179775D01*
X0290905Y0179819D01*
X0290881Y0179865D01*
X0290860Y0179912D01*
X0290842Y0179962D01*
X0290829Y0180012D01*
X0290819Y0180063D01*
X0290813Y0180115D01*
X0290811Y0180167D01*
X0290811Y0150167D02*
X0290813Y0150219D01*
X0290819Y0150271D01*
X0290829Y0150322D01*
X0290842Y0150372D01*
X0290860Y0150422D01*
X0290881Y0150469D01*
X0290905Y0150515D01*
X0290934Y0150559D01*
X0290965Y0150601D01*
X0290999Y0150640D01*
X0291036Y0150677D01*
X0291076Y0150710D01*
X0291119Y0150741D01*
X0291163Y0150768D01*
X0291209Y0150792D01*
X0291258Y0150812D01*
X0291307Y0150828D01*
X0291358Y0150841D01*
X0291409Y0150850D01*
X0291461Y0150855D01*
X0291513Y0150856D01*
X0291565Y0150853D01*
X0291617Y0150846D01*
X0291668Y0150835D01*
X0291718Y0150821D01*
X0291767Y0150802D01*
X0291814Y0150780D01*
X0291859Y0150755D01*
X0291903Y0150726D01*
X0291944Y0150694D01*
X0291983Y0150659D01*
X0292018Y0150621D01*
X0292051Y0150580D01*
X0292081Y0150538D01*
X0292107Y0150493D01*
X0292130Y0150446D01*
X0292149Y0150397D01*
X0292165Y0150347D01*
X0292177Y0150297D01*
X0292185Y0150245D01*
X0292189Y0150193D01*
X0292189Y0150141D01*
X0292185Y0150089D01*
X0292177Y0150037D01*
X0292165Y0149987D01*
X0292149Y0149937D01*
X0292130Y0149888D01*
X0292107Y0149841D01*
X0292081Y0149796D01*
X0292051Y0149754D01*
X0292018Y0149713D01*
X0291983Y0149675D01*
X0291944Y0149640D01*
X0291903Y0149608D01*
X0291859Y0149579D01*
X0291814Y0149554D01*
X0291767Y0149532D01*
X0291718Y0149513D01*
X0291668Y0149499D01*
X0291617Y0149488D01*
X0291565Y0149481D01*
X0291513Y0149478D01*
X0291461Y0149479D01*
X0291409Y0149484D01*
X0291358Y0149493D01*
X0291307Y0149506D01*
X0291258Y0149522D01*
X0291209Y0149542D01*
X0291163Y0149566D01*
X0291119Y0149593D01*
X0291076Y0149624D01*
X0291036Y0149657D01*
X0290999Y0149694D01*
X0290965Y0149733D01*
X0290934Y0149775D01*
X0290905Y0149819D01*
X0290881Y0149865D01*
X0290860Y0149912D01*
X0290842Y0149962D01*
X0290829Y0150012D01*
X0290819Y0150063D01*
X0290813Y0150115D01*
X0290811Y0150167D01*
X0290811Y0060167D02*
X0290813Y0060219D01*
X0290819Y0060271D01*
X0290829Y0060322D01*
X0290842Y0060372D01*
X0290860Y0060422D01*
X0290881Y0060469D01*
X0290905Y0060515D01*
X0290934Y0060559D01*
X0290965Y0060601D01*
X0290999Y0060640D01*
X0291036Y0060677D01*
X0291076Y0060710D01*
X0291119Y0060741D01*
X0291163Y0060768D01*
X0291209Y0060792D01*
X0291258Y0060812D01*
X0291307Y0060828D01*
X0291358Y0060841D01*
X0291409Y0060850D01*
X0291461Y0060855D01*
X0291513Y0060856D01*
X0291565Y0060853D01*
X0291617Y0060846D01*
X0291668Y0060835D01*
X0291718Y0060821D01*
X0291767Y0060802D01*
X0291814Y0060780D01*
X0291859Y0060755D01*
X0291903Y0060726D01*
X0291944Y0060694D01*
X0291983Y0060659D01*
X0292018Y0060621D01*
X0292051Y0060580D01*
X0292081Y0060538D01*
X0292107Y0060493D01*
X0292130Y0060446D01*
X0292149Y0060397D01*
X0292165Y0060347D01*
X0292177Y0060297D01*
X0292185Y0060245D01*
X0292189Y0060193D01*
X0292189Y0060141D01*
X0292185Y0060089D01*
X0292177Y0060037D01*
X0292165Y0059987D01*
X0292149Y0059937D01*
X0292130Y0059888D01*
X0292107Y0059841D01*
X0292081Y0059796D01*
X0292051Y0059754D01*
X0292018Y0059713D01*
X0291983Y0059675D01*
X0291944Y0059640D01*
X0291903Y0059608D01*
X0291859Y0059579D01*
X0291814Y0059554D01*
X0291767Y0059532D01*
X0291718Y0059513D01*
X0291668Y0059499D01*
X0291617Y0059488D01*
X0291565Y0059481D01*
X0291513Y0059478D01*
X0291461Y0059479D01*
X0291409Y0059484D01*
X0291358Y0059493D01*
X0291307Y0059506D01*
X0291258Y0059522D01*
X0291209Y0059542D01*
X0291163Y0059566D01*
X0291119Y0059593D01*
X0291076Y0059624D01*
X0291036Y0059657D01*
X0290999Y0059694D01*
X0290965Y0059733D01*
X0290934Y0059775D01*
X0290905Y0059819D01*
X0290881Y0059865D01*
X0290860Y0059912D01*
X0290842Y0059962D01*
X0290829Y0060012D01*
X0290819Y0060063D01*
X0290813Y0060115D01*
X0290811Y0060167D01*
X0290811Y0030167D02*
X0290813Y0030219D01*
X0290819Y0030271D01*
X0290829Y0030322D01*
X0290842Y0030372D01*
X0290860Y0030422D01*
X0290881Y0030469D01*
X0290905Y0030515D01*
X0290934Y0030559D01*
X0290965Y0030601D01*
X0290999Y0030640D01*
X0291036Y0030677D01*
X0291076Y0030710D01*
X0291119Y0030741D01*
X0291163Y0030768D01*
X0291209Y0030792D01*
X0291258Y0030812D01*
X0291307Y0030828D01*
X0291358Y0030841D01*
X0291409Y0030850D01*
X0291461Y0030855D01*
X0291513Y0030856D01*
X0291565Y0030853D01*
X0291617Y0030846D01*
X0291668Y0030835D01*
X0291718Y0030821D01*
X0291767Y0030802D01*
X0291814Y0030780D01*
X0291859Y0030755D01*
X0291903Y0030726D01*
X0291944Y0030694D01*
X0291983Y0030659D01*
X0292018Y0030621D01*
X0292051Y0030580D01*
X0292081Y0030538D01*
X0292107Y0030493D01*
X0292130Y0030446D01*
X0292149Y0030397D01*
X0292165Y0030347D01*
X0292177Y0030297D01*
X0292185Y0030245D01*
X0292189Y0030193D01*
X0292189Y0030141D01*
X0292185Y0030089D01*
X0292177Y0030037D01*
X0292165Y0029987D01*
X0292149Y0029937D01*
X0292130Y0029888D01*
X0292107Y0029841D01*
X0292081Y0029796D01*
X0292051Y0029754D01*
X0292018Y0029713D01*
X0291983Y0029675D01*
X0291944Y0029640D01*
X0291903Y0029608D01*
X0291859Y0029579D01*
X0291814Y0029554D01*
X0291767Y0029532D01*
X0291718Y0029513D01*
X0291668Y0029499D01*
X0291617Y0029488D01*
X0291565Y0029481D01*
X0291513Y0029478D01*
X0291461Y0029479D01*
X0291409Y0029484D01*
X0291358Y0029493D01*
X0291307Y0029506D01*
X0291258Y0029522D01*
X0291209Y0029542D01*
X0291163Y0029566D01*
X0291119Y0029593D01*
X0291076Y0029624D01*
X0291036Y0029657D01*
X0290999Y0029694D01*
X0290965Y0029733D01*
X0290934Y0029775D01*
X0290905Y0029819D01*
X0290881Y0029865D01*
X0290860Y0029912D01*
X0290842Y0029962D01*
X0290829Y0030012D01*
X0290819Y0030063D01*
X0290813Y0030115D01*
X0290811Y0030167D01*
X0290220Y0015167D02*
X0290222Y0015238D01*
X0290228Y0015309D01*
X0290238Y0015380D01*
X0290252Y0015449D01*
X0290269Y0015518D01*
X0290291Y0015586D01*
X0290316Y0015653D01*
X0290345Y0015718D01*
X0290377Y0015781D01*
X0290413Y0015843D01*
X0290452Y0015902D01*
X0290495Y0015959D01*
X0290540Y0016014D01*
X0290589Y0016066D01*
X0290640Y0016115D01*
X0290694Y0016161D01*
X0290751Y0016205D01*
X0290809Y0016245D01*
X0290870Y0016281D01*
X0290933Y0016315D01*
X0290998Y0016344D01*
X0291064Y0016370D01*
X0291132Y0016393D01*
X0291200Y0016411D01*
X0291270Y0016426D01*
X0291340Y0016437D01*
X0291411Y0016444D01*
X0291482Y0016447D01*
X0291553Y0016446D01*
X0291624Y0016441D01*
X0291695Y0016432D01*
X0291765Y0016419D01*
X0291834Y0016403D01*
X0291902Y0016382D01*
X0291969Y0016358D01*
X0292035Y0016330D01*
X0292098Y0016298D01*
X0292160Y0016263D01*
X0292220Y0016225D01*
X0292278Y0016183D01*
X0292333Y0016139D01*
X0292386Y0016091D01*
X0292436Y0016040D01*
X0292483Y0015987D01*
X0292527Y0015931D01*
X0292568Y0015873D01*
X0292606Y0015812D01*
X0292640Y0015750D01*
X0292670Y0015685D01*
X0292697Y0015620D01*
X0292721Y0015552D01*
X0292740Y0015484D01*
X0292756Y0015415D01*
X0292768Y0015344D01*
X0292776Y0015274D01*
X0292780Y0015203D01*
X0292780Y0015131D01*
X0292776Y0015060D01*
X0292768Y0014990D01*
X0292756Y0014919D01*
X0292740Y0014850D01*
X0292721Y0014782D01*
X0292697Y0014714D01*
X0292670Y0014649D01*
X0292640Y0014584D01*
X0292606Y0014522D01*
X0292568Y0014461D01*
X0292527Y0014403D01*
X0292483Y0014347D01*
X0292436Y0014294D01*
X0292386Y0014243D01*
X0292333Y0014195D01*
X0292278Y0014151D01*
X0292220Y0014109D01*
X0292160Y0014071D01*
X0292098Y0014036D01*
X0292035Y0014004D01*
X0291969Y0013976D01*
X0291902Y0013952D01*
X0291834Y0013931D01*
X0291765Y0013915D01*
X0291695Y0013902D01*
X0291624Y0013893D01*
X0291553Y0013888D01*
X0291482Y0013887D01*
X0291411Y0013890D01*
X0291340Y0013897D01*
X0291270Y0013908D01*
X0291200Y0013923D01*
X0291132Y0013941D01*
X0291064Y0013964D01*
X0290998Y0013990D01*
X0290933Y0014019D01*
X0290870Y0014053D01*
X0290809Y0014089D01*
X0290751Y0014129D01*
X0290694Y0014173D01*
X0290640Y0014219D01*
X0290589Y0014268D01*
X0290540Y0014320D01*
X0290495Y0014375D01*
X0290452Y0014432D01*
X0290413Y0014491D01*
X0290377Y0014553D01*
X0290345Y0014616D01*
X0290316Y0014681D01*
X0290291Y0014748D01*
X0290269Y0014816D01*
X0290252Y0014885D01*
X0290238Y0014954D01*
X0290228Y0015025D01*
X0290222Y0015096D01*
X0290220Y0015167D01*
M02*
