G75*
%MOIN*%
%OFA0B0*%
%FSLAX25Y25*%
%IPPOS*%
%LPD*%
%AMOC8*
5,1,8,0,0,1.08239X$1,22.5*
%
%ADD10C,0.03359*%
%ADD11OC8,0.06800*%
%ADD12OC8,0.07100*%
%ADD13C,0.07100*%
%ADD14R,0.04343X0.13398*%
%ADD15R,0.43320X0.32887*%
%ADD16R,0.05131X0.04737*%
%ADD17R,0.04737X0.05131*%
%ADD18R,0.07887X0.10249*%
%ADD19R,0.07099X0.12611*%
%ADD20R,0.19800X0.23300*%
%ADD21R,0.07493X0.07887*%
%ADD22C,0.10800*%
%ADD23OC8,0.10800*%
%ADD24R,0.10800X0.20800*%
%ADD25C,0.02178*%
%ADD26C,0.17300*%
%ADD27C,0.03778*%
D10*
X0011500Y0015167D03*
X0291500Y0015167D03*
X0291500Y0195167D03*
X0011500Y0195167D03*
D11*
X0291500Y0080167D03*
X0041500Y0015167D03*
D12*
X0051500Y0077167D03*
X0163500Y0152667D03*
X0231000Y0147667D03*
X0252000Y0140167D03*
X0074500Y0197667D03*
D13*
X0088500Y0197667D03*
X0149500Y0152667D03*
X0217000Y0147667D03*
X0266000Y0140167D03*
X0051500Y0063167D03*
D14*
X0071500Y0059340D03*
X0076500Y0059340D03*
X0081500Y0059340D03*
X0091500Y0059340D03*
X0096500Y0059340D03*
X0101500Y0059340D03*
X0126500Y0019340D03*
X0131500Y0019340D03*
X0136500Y0019340D03*
X0146500Y0019340D03*
X0151500Y0019340D03*
X0156500Y0019340D03*
X0191500Y0019340D03*
X0196500Y0019340D03*
X0201500Y0019340D03*
X0211500Y0019340D03*
X0216500Y0019340D03*
X0221500Y0019340D03*
D15*
X0206500Y0061308D03*
X0141500Y0061308D03*
X0086500Y0101308D03*
D16*
X0091500Y0043513D03*
X0091500Y0036820D03*
D17*
X0248154Y0010167D03*
X0254846Y0010167D03*
X0268154Y0010167D03*
X0274846Y0010167D03*
D18*
X0099472Y0020167D03*
X0083528Y0020167D03*
D19*
X0242524Y0024261D03*
X0260476Y0024261D03*
D20*
X0251500Y0051419D03*
D21*
X0071500Y0043238D03*
X0071500Y0027096D03*
D22*
X0031500Y0100167D03*
X0076500Y0140167D03*
X0141500Y0100167D03*
X0201500Y0097667D03*
X0249000Y0095167D03*
X0181500Y0180167D03*
X0136500Y0187667D03*
X0241500Y0185167D03*
D23*
X0261500Y0185167D03*
X0201500Y0180167D03*
X0116500Y0187667D03*
X0076500Y0160167D03*
X0031500Y0120167D03*
X0141500Y0120167D03*
X0201500Y0117667D03*
X0269000Y0095167D03*
D24*
X0291500Y0045167D03*
X0291500Y0165167D03*
X0011500Y0165167D03*
X0011500Y0050167D03*
D25*
X0011500Y0065167D03*
X0011500Y0035167D03*
X0011500Y0150167D03*
X0011500Y0180167D03*
X0291500Y0180167D03*
X0291500Y0150167D03*
X0291500Y0060167D03*
X0291500Y0030167D03*
D26*
X0286500Y0045167D03*
X0281500Y0165167D03*
X0021500Y0165167D03*
X0021500Y0050167D03*
D27*
X0026500Y0050167D03*
X0036500Y0055167D03*
X0026500Y0060167D03*
X0036500Y0045167D03*
X0026500Y0040167D03*
X0086500Y0055167D03*
X0086500Y0060167D03*
X0086500Y0065167D03*
X0141500Y0025167D03*
X0141500Y0020167D03*
X0141500Y0015167D03*
X0206500Y0015167D03*
X0206500Y0020167D03*
X0206500Y0025167D03*
X0251500Y0020167D03*
X0271500Y0020167D03*
X0276500Y0015167D03*
M02*
