G75*
%MOIN*%
%OFA0B0*%
%FSLAX25Y25*%
%IPPOS*%
%LPD*%
%AMOC8*
5,1,8,0,0,1.08239X$1,22.5*
%
%ADD10OC8,0.06000*%
%ADD11OC8,0.06300*%
%ADD12C,0.06300*%
%ADD13R,0.03543X0.12598*%
%ADD14R,0.42520X0.32087*%
%ADD15R,0.04331X0.03937*%
%ADD16R,0.03937X0.04331*%
%ADD17R,0.07087X0.09449*%
%ADD18R,0.06299X0.11811*%
%ADD19R,0.19000X0.22500*%
%ADD20R,0.06693X0.07087*%
%ADD21C,0.10000*%
%ADD22OC8,0.10000*%
%ADD23R,0.10000X0.20000*%
%ADD24R,0.10000X0.40000*%
%ADD25C,0.01200*%
%ADD26C,0.02400*%
%ADD27C,0.01000*%
%ADD28C,0.03200*%
%ADD29C,0.16500*%
%ADD30C,0.02978*%
%ADD31C,0.10000*%
D10*
X0041500Y0015167D03*
X0291500Y0080167D03*
D11*
X0252000Y0140167D03*
X0231000Y0147667D03*
X0163500Y0152667D03*
X0074500Y0197667D03*
X0051500Y0077167D03*
D12*
X0051500Y0063167D03*
X0149500Y0152667D03*
X0217000Y0147667D03*
X0266000Y0140167D03*
X0088500Y0197667D03*
D13*
X0091500Y0059340D03*
X0096500Y0059340D03*
X0101500Y0059340D03*
X0081500Y0059340D03*
X0076500Y0059340D03*
X0071500Y0059340D03*
X0126500Y0019340D03*
X0131500Y0019340D03*
X0136500Y0019340D03*
X0146500Y0019340D03*
X0151500Y0019340D03*
X0156500Y0019340D03*
X0191500Y0019340D03*
X0196500Y0019340D03*
X0201500Y0019340D03*
X0211500Y0019340D03*
X0216500Y0019340D03*
X0221500Y0019340D03*
D14*
X0206500Y0061308D03*
X0141500Y0061308D03*
X0086500Y0101308D03*
D15*
X0091500Y0043513D03*
X0091500Y0036820D03*
D16*
X0248154Y0010167D03*
X0254846Y0010167D03*
X0268154Y0010167D03*
X0274846Y0010167D03*
D17*
X0099472Y0020167D03*
X0083528Y0020167D03*
D18*
X0242524Y0024261D03*
X0260476Y0024261D03*
D19*
X0251500Y0051419D03*
D20*
X0071500Y0043238D03*
X0071500Y0027096D03*
D21*
X0031500Y0100167D03*
X0076500Y0140167D03*
X0141500Y0100167D03*
X0201500Y0097667D03*
X0249000Y0095167D03*
X0181500Y0180167D03*
X0136500Y0187667D03*
X0241500Y0185167D03*
D22*
X0261500Y0185167D03*
X0201500Y0180167D03*
X0116500Y0187667D03*
X0076500Y0160167D03*
X0031500Y0120167D03*
X0141500Y0120167D03*
X0201500Y0117667D03*
X0269000Y0095167D03*
D23*
X0291500Y0045167D03*
X0291500Y0165167D03*
X0011500Y0165167D03*
X0011500Y0050167D03*
D24*
X0011500Y0050167D03*
X0011500Y0050167D03*
X0011500Y0165167D03*
X0011500Y0165167D03*
X0291500Y0165167D03*
X0291500Y0165167D03*
X0291500Y0045167D03*
X0291500Y0045167D03*
D25*
X0260476Y0024261D02*
X0255594Y0024261D01*
X0251500Y0020167D01*
X0222327Y0020167D01*
X0221500Y0019340D01*
X0216500Y0019340D01*
X0211500Y0019340D01*
X0201500Y0019340D01*
X0196500Y0019340D01*
X0191500Y0012667D02*
X0196500Y0007667D01*
X0241500Y0007667D01*
X0244000Y0010167D01*
X0246500Y0010167D01*
X0254846Y0010167D02*
X0268154Y0010167D01*
X0268154Y0016820D01*
X0271500Y0020167D01*
X0276500Y0015167D02*
X0274846Y0013513D01*
X0274846Y0010167D01*
X0156500Y0019340D02*
X0131500Y0019340D01*
X0101500Y0022194D02*
X0099472Y0020167D01*
X0101500Y0022194D02*
X0101500Y0056045D01*
X0091500Y0043513D02*
X0071776Y0043513D01*
X0071500Y0043238D01*
X0043429Y0015167D01*
X0041500Y0015167D01*
X0071500Y0027096D02*
X0081776Y0027096D01*
X0083528Y0025344D01*
X0083528Y0020167D01*
X0081776Y0027096D02*
X0091500Y0036820D01*
D26*
X0111500Y0032667D02*
X0111500Y0065167D01*
X0104000Y0072667D01*
X0074000Y0072667D01*
X0071500Y0070167D01*
X0071500Y0055167D01*
X0076500Y0059340D02*
X0076500Y0059699D01*
X0077728Y0060928D01*
X0077728Y0066468D01*
X0078900Y0067639D01*
X0084100Y0067639D01*
X0085272Y0066468D01*
X0085272Y0061395D01*
X0086500Y0060167D01*
X0086500Y0055167D02*
X0085272Y0055167D01*
X0101500Y0056045D02*
X0101500Y0059340D01*
X0111500Y0032667D02*
X0124000Y0020167D01*
X0126500Y0020167D01*
X0126500Y0012667D01*
X0124000Y0010167D01*
X0086500Y0010167D01*
X0084000Y0012667D01*
X0084000Y0022667D01*
X0126500Y0012667D02*
X0131500Y0007667D01*
X0184000Y0007667D01*
X0191500Y0015167D01*
X0191500Y0020167D01*
X0191500Y0015167D02*
X0191500Y0012667D01*
X0206500Y0020167D02*
X0206500Y0025167D01*
X0246500Y0010167D02*
X0248154Y0010167D01*
X0286500Y0045221D02*
X0286555Y0045167D01*
X0291500Y0045167D01*
X0156500Y0019340D02*
X0156500Y0015167D01*
X0141500Y0020167D02*
X0141500Y0024662D01*
X0141500Y0025167D01*
X0141500Y0024662D02*
X0142005Y0025167D01*
X0016500Y0050107D02*
X0016441Y0050167D01*
X0011500Y0050167D01*
X0011500Y0165167D02*
X0021500Y0165167D01*
X0281500Y0165167D02*
X0291500Y0165167D01*
D27*
X0285200Y0173971D02*
X0283400Y0174717D01*
X0279600Y0174717D01*
X0276090Y0173263D01*
X0273404Y0170576D01*
X0271950Y0167066D01*
X0271950Y0163267D01*
X0273404Y0159757D01*
X0276090Y0157071D01*
X0279600Y0155617D01*
X0283400Y0155617D01*
X0285200Y0156362D01*
X0285200Y0144628D01*
X0285962Y0143867D01*
X0296500Y0143867D01*
X0296500Y0066467D01*
X0285962Y0066467D01*
X0285200Y0065705D01*
X0285200Y0040167D01*
X0116500Y0040167D01*
X0116500Y0080167D01*
X0061500Y0080167D01*
X0061500Y0070167D01*
X0041500Y0070167D01*
X0021500Y0090167D01*
X0021500Y0125167D01*
X0061500Y0165167D01*
X0061500Y0200167D01*
X0084719Y0200167D01*
X0084050Y0198552D01*
X0084050Y0196781D01*
X0084727Y0195146D01*
X0085979Y0193894D01*
X0087615Y0193217D01*
X0089385Y0193217D01*
X0091021Y0193894D01*
X0092273Y0195146D01*
X0092950Y0196781D01*
X0092950Y0198552D01*
X0092281Y0200167D01*
X0288469Y0200167D01*
X0288226Y0200066D01*
X0286600Y0198440D01*
X0285720Y0196316D01*
X0285720Y0194017D01*
X0286600Y0191893D01*
X0288226Y0190267D01*
X0290350Y0189387D01*
X0292650Y0189387D01*
X0294774Y0190267D01*
X0296400Y0191893D01*
X0296500Y0192135D01*
X0296500Y0186467D01*
X0285962Y0186467D01*
X0285200Y0185705D01*
X0285200Y0173971D01*
X0285200Y0174914D02*
X0185156Y0174914D01*
X0185069Y0174826D02*
X0186841Y0176598D01*
X0187800Y0178913D01*
X0187800Y0181420D01*
X0186841Y0183735D01*
X0185069Y0185508D01*
X0182753Y0186467D01*
X0180247Y0186467D01*
X0177931Y0185508D01*
X0176159Y0183735D01*
X0175200Y0181420D01*
X0175200Y0178913D01*
X0176159Y0176598D01*
X0177931Y0174826D01*
X0180247Y0173867D01*
X0182753Y0173867D01*
X0185069Y0174826D01*
X0186155Y0175912D02*
X0285200Y0175912D01*
X0285200Y0176911D02*
X0186970Y0176911D01*
X0187384Y0177909D02*
X0285200Y0177909D01*
X0285200Y0178908D02*
X0242852Y0178908D01*
X0242753Y0178867D02*
X0245069Y0179826D01*
X0246841Y0181598D01*
X0247800Y0183913D01*
X0247800Y0186420D01*
X0246841Y0188735D01*
X0245069Y0190508D01*
X0242753Y0191467D01*
X0240247Y0191467D01*
X0237931Y0190508D01*
X0236159Y0188735D01*
X0235200Y0186420D01*
X0235200Y0183913D01*
X0236159Y0181598D01*
X0237931Y0179826D01*
X0240247Y0178867D01*
X0242753Y0178867D01*
X0240148Y0178908D02*
X0187798Y0178908D01*
X0187800Y0179906D02*
X0237851Y0179906D01*
X0236852Y0180905D02*
X0187800Y0180905D01*
X0187600Y0181903D02*
X0236033Y0181903D01*
X0235619Y0182902D02*
X0187186Y0182902D01*
X0186676Y0183900D02*
X0235206Y0183900D01*
X0235200Y0184899D02*
X0185677Y0184899D01*
X0184128Y0185897D02*
X0235200Y0185897D01*
X0235397Y0186896D02*
X0142800Y0186896D01*
X0142800Y0186413D02*
X0141841Y0184098D01*
X0140069Y0182326D01*
X0137753Y0181367D01*
X0135247Y0181367D01*
X0132931Y0182326D01*
X0131159Y0184098D01*
X0130200Y0186413D01*
X0130200Y0188920D01*
X0131159Y0191235D01*
X0132931Y0193008D01*
X0135247Y0193967D01*
X0137753Y0193967D01*
X0140069Y0193008D01*
X0141841Y0191235D01*
X0142800Y0188920D01*
X0142800Y0186413D01*
X0142586Y0185897D02*
X0178872Y0185897D01*
X0177323Y0184899D02*
X0142173Y0184899D01*
X0141643Y0183900D02*
X0176324Y0183900D01*
X0175814Y0182902D02*
X0140645Y0182902D01*
X0139048Y0181903D02*
X0175400Y0181903D01*
X0175200Y0180905D02*
X0061500Y0180905D01*
X0061500Y0181903D02*
X0133952Y0181903D01*
X0132355Y0182902D02*
X0061500Y0182902D01*
X0061500Y0183900D02*
X0131357Y0183900D01*
X0130827Y0184899D02*
X0061500Y0184899D01*
X0061500Y0185897D02*
X0130414Y0185897D01*
X0130200Y0186896D02*
X0061500Y0186896D01*
X0061500Y0187894D02*
X0130200Y0187894D01*
X0130200Y0188893D02*
X0061500Y0188893D01*
X0061500Y0189891D02*
X0130602Y0189891D01*
X0131016Y0190890D02*
X0061500Y0190890D01*
X0061500Y0191888D02*
X0131812Y0191888D01*
X0132811Y0192887D02*
X0061500Y0192887D01*
X0061500Y0193885D02*
X0086001Y0193885D01*
X0084990Y0194884D02*
X0061500Y0194884D01*
X0061500Y0195882D02*
X0084422Y0195882D01*
X0084050Y0196881D02*
X0061500Y0196881D01*
X0061500Y0197879D02*
X0084050Y0197879D01*
X0084185Y0198878D02*
X0061500Y0198878D01*
X0061500Y0199876D02*
X0084599Y0199876D01*
X0092401Y0199876D02*
X0288036Y0199876D01*
X0287038Y0198878D02*
X0092815Y0198878D01*
X0092950Y0197879D02*
X0286368Y0197879D01*
X0285954Y0196881D02*
X0092950Y0196881D01*
X0092578Y0195882D02*
X0285720Y0195882D01*
X0285720Y0194884D02*
X0092010Y0194884D01*
X0090999Y0193885D02*
X0135050Y0193885D01*
X0137950Y0193885D02*
X0285775Y0193885D01*
X0286189Y0192887D02*
X0140189Y0192887D01*
X0141188Y0191888D02*
X0286605Y0191888D01*
X0287603Y0190890D02*
X0244146Y0190890D01*
X0245685Y0189891D02*
X0289133Y0189891D01*
X0293867Y0189891D02*
X0296500Y0189891D01*
X0296500Y0188893D02*
X0246683Y0188893D01*
X0247189Y0187894D02*
X0296500Y0187894D01*
X0296500Y0186896D02*
X0247603Y0186896D01*
X0247800Y0185897D02*
X0285392Y0185897D01*
X0285200Y0184899D02*
X0247800Y0184899D01*
X0247794Y0183900D02*
X0285200Y0183900D01*
X0285200Y0182902D02*
X0247381Y0182902D01*
X0246967Y0181903D02*
X0285200Y0181903D01*
X0285200Y0180905D02*
X0246148Y0180905D01*
X0245149Y0179906D02*
X0285200Y0179906D01*
X0277665Y0173915D02*
X0182870Y0173915D01*
X0180130Y0173915D02*
X0061500Y0173915D01*
X0061500Y0172917D02*
X0275744Y0172917D01*
X0274746Y0171918D02*
X0061500Y0171918D01*
X0061500Y0170920D02*
X0273747Y0170920D01*
X0273132Y0169921D02*
X0061500Y0169921D01*
X0061500Y0168923D02*
X0272719Y0168923D01*
X0272305Y0167924D02*
X0061500Y0167924D01*
X0061500Y0166925D02*
X0271950Y0166925D01*
X0271950Y0165927D02*
X0061500Y0165927D01*
X0061262Y0164928D02*
X0271950Y0164928D01*
X0271950Y0163930D02*
X0060263Y0163930D01*
X0059265Y0162931D02*
X0272089Y0162931D01*
X0272503Y0161933D02*
X0058266Y0161933D01*
X0057268Y0160934D02*
X0272916Y0160934D01*
X0273330Y0159936D02*
X0056269Y0159936D01*
X0055271Y0158937D02*
X0274224Y0158937D01*
X0275222Y0157939D02*
X0054272Y0157939D01*
X0053274Y0156940D02*
X0148189Y0156940D01*
X0148615Y0157117D02*
X0146979Y0156439D01*
X0145727Y0155187D01*
X0145050Y0153552D01*
X0145050Y0151781D01*
X0145727Y0150146D01*
X0146979Y0148894D01*
X0148615Y0148217D01*
X0150385Y0148217D01*
X0152021Y0148894D01*
X0153273Y0150146D01*
X0153950Y0151781D01*
X0153950Y0153552D01*
X0153273Y0155187D01*
X0152021Y0156439D01*
X0150385Y0157117D01*
X0148615Y0157117D01*
X0150811Y0156940D02*
X0276405Y0156940D01*
X0278815Y0155942D02*
X0152518Y0155942D01*
X0153374Y0154943D02*
X0285200Y0154943D01*
X0285200Y0153945D02*
X0153787Y0153945D01*
X0153950Y0152946D02*
X0285200Y0152946D01*
X0285200Y0151948D02*
X0218293Y0151948D01*
X0217885Y0152117D02*
X0216115Y0152117D01*
X0214479Y0151439D01*
X0213227Y0150187D01*
X0212550Y0148552D01*
X0212550Y0146781D01*
X0213227Y0145146D01*
X0214479Y0143894D01*
X0216115Y0143217D01*
X0217885Y0143217D01*
X0219521Y0143894D01*
X0220773Y0145146D01*
X0221450Y0146781D01*
X0221450Y0148552D01*
X0220773Y0150187D01*
X0219521Y0151439D01*
X0217885Y0152117D01*
X0215707Y0151948D02*
X0153950Y0151948D01*
X0153605Y0150949D02*
X0213989Y0150949D01*
X0213129Y0149951D02*
X0153077Y0149951D01*
X0152079Y0148952D02*
X0212716Y0148952D01*
X0212550Y0147954D02*
X0044287Y0147954D01*
X0045286Y0148952D02*
X0146921Y0148952D01*
X0145923Y0149951D02*
X0046284Y0149951D01*
X0047283Y0150949D02*
X0145395Y0150949D01*
X0145050Y0151948D02*
X0048281Y0151948D01*
X0049280Y0152946D02*
X0145050Y0152946D01*
X0145213Y0153945D02*
X0050278Y0153945D01*
X0051277Y0154943D02*
X0145626Y0154943D01*
X0146482Y0155942D02*
X0052275Y0155942D01*
X0043289Y0146955D02*
X0212550Y0146955D01*
X0212892Y0145957D02*
X0078984Y0145957D01*
X0080069Y0145508D02*
X0077753Y0146467D01*
X0075247Y0146467D01*
X0072931Y0145508D01*
X0071159Y0143735D01*
X0070200Y0141420D01*
X0070200Y0138913D01*
X0071159Y0136598D01*
X0072931Y0134826D01*
X0075247Y0133867D01*
X0077753Y0133867D01*
X0080069Y0134826D01*
X0081841Y0136598D01*
X0082800Y0138913D01*
X0082800Y0141420D01*
X0081841Y0143735D01*
X0080069Y0145508D01*
X0080618Y0144958D02*
X0213415Y0144958D01*
X0214414Y0143960D02*
X0081616Y0143960D01*
X0082162Y0142961D02*
X0262501Y0142961D01*
X0262227Y0142687D02*
X0261550Y0141052D01*
X0261550Y0139281D01*
X0262227Y0137646D01*
X0263479Y0136394D01*
X0265115Y0135717D01*
X0266885Y0135717D01*
X0268521Y0136394D01*
X0269773Y0137646D01*
X0270450Y0139281D01*
X0270450Y0141052D01*
X0269773Y0142687D01*
X0268521Y0143939D01*
X0266885Y0144617D01*
X0265115Y0144617D01*
X0263479Y0143939D01*
X0262227Y0142687D01*
X0261927Y0141963D02*
X0082575Y0141963D01*
X0082800Y0140964D02*
X0261550Y0140964D01*
X0261550Y0139966D02*
X0082800Y0139966D01*
X0082800Y0138967D02*
X0261680Y0138967D01*
X0262094Y0137969D02*
X0082409Y0137969D01*
X0081995Y0136970D02*
X0262903Y0136970D01*
X0264499Y0135972D02*
X0081215Y0135972D01*
X0080216Y0134973D02*
X0296500Y0134973D01*
X0296500Y0133975D02*
X0078014Y0133975D01*
X0074986Y0133975D02*
X0030308Y0133975D01*
X0031306Y0134973D02*
X0072784Y0134973D01*
X0071785Y0135972D02*
X0032305Y0135972D01*
X0033303Y0136970D02*
X0071005Y0136970D01*
X0070591Y0137969D02*
X0034302Y0137969D01*
X0035301Y0138967D02*
X0070200Y0138967D01*
X0070200Y0139966D02*
X0036299Y0139966D01*
X0037298Y0140964D02*
X0070200Y0140964D01*
X0070425Y0141963D02*
X0038296Y0141963D01*
X0039295Y0142961D02*
X0070838Y0142961D01*
X0071384Y0143960D02*
X0040293Y0143960D01*
X0041292Y0144958D02*
X0072382Y0144958D01*
X0074016Y0145957D02*
X0042290Y0145957D01*
X0029309Y0132976D02*
X0296500Y0132976D01*
X0296500Y0131978D02*
X0028311Y0131978D01*
X0027312Y0130979D02*
X0296500Y0130979D01*
X0296500Y0129981D02*
X0026314Y0129981D01*
X0025315Y0128982D02*
X0296500Y0128982D01*
X0296500Y0127984D02*
X0024317Y0127984D01*
X0023318Y0126985D02*
X0296500Y0126985D01*
X0296500Y0125987D02*
X0022320Y0125987D01*
X0021500Y0124988D02*
X0296500Y0124988D01*
X0296500Y0123990D02*
X0021500Y0123990D01*
X0021500Y0122991D02*
X0296500Y0122991D01*
X0296500Y0121992D02*
X0021500Y0121992D01*
X0021500Y0120994D02*
X0296500Y0120994D01*
X0296500Y0119995D02*
X0021500Y0119995D01*
X0021500Y0118997D02*
X0296500Y0118997D01*
X0296500Y0117998D02*
X0021500Y0117998D01*
X0021500Y0117000D02*
X0296500Y0117000D01*
X0296500Y0116001D02*
X0021500Y0116001D01*
X0021500Y0115003D02*
X0296500Y0115003D01*
X0296500Y0114004D02*
X0021500Y0114004D01*
X0021500Y0113006D02*
X0296500Y0113006D01*
X0296500Y0112007D02*
X0021500Y0112007D01*
X0021500Y0111009D02*
X0296500Y0111009D01*
X0296500Y0110010D02*
X0021500Y0110010D01*
X0021500Y0109012D02*
X0296500Y0109012D01*
X0296500Y0108013D02*
X0021500Y0108013D01*
X0021500Y0107015D02*
X0296500Y0107015D01*
X0296500Y0106016D02*
X0143840Y0106016D01*
X0142753Y0106467D02*
X0145069Y0105508D01*
X0146841Y0103735D01*
X0147800Y0101420D01*
X0147800Y0098913D01*
X0146841Y0096598D01*
X0145069Y0094826D01*
X0142753Y0093867D01*
X0140247Y0093867D01*
X0137931Y0094826D01*
X0136159Y0096598D01*
X0135200Y0098913D01*
X0135200Y0101420D01*
X0136159Y0103735D01*
X0137931Y0105508D01*
X0140247Y0106467D01*
X0142753Y0106467D01*
X0145558Y0105018D02*
X0296500Y0105018D01*
X0296500Y0104019D02*
X0146557Y0104019D01*
X0147137Y0103021D02*
X0197963Y0103021D01*
X0197931Y0103008D02*
X0196159Y0101235D01*
X0195200Y0098920D01*
X0195200Y0096413D01*
X0196159Y0094098D01*
X0197931Y0092326D01*
X0200247Y0091367D01*
X0202753Y0091367D01*
X0205069Y0092326D01*
X0206841Y0094098D01*
X0207800Y0096413D01*
X0207800Y0098920D01*
X0206841Y0101235D01*
X0205069Y0103008D01*
X0202753Y0103967D01*
X0200247Y0103967D01*
X0197931Y0103008D01*
X0196946Y0102022D02*
X0147550Y0102022D01*
X0147800Y0101024D02*
X0196071Y0101024D01*
X0195658Y0100025D02*
X0147800Y0100025D01*
X0147800Y0099027D02*
X0195244Y0099027D01*
X0195200Y0098028D02*
X0147433Y0098028D01*
X0147020Y0097030D02*
X0195200Y0097030D01*
X0195358Y0096031D02*
X0146274Y0096031D01*
X0145276Y0095033D02*
X0195772Y0095033D01*
X0196223Y0094034D02*
X0143158Y0094034D01*
X0139842Y0094034D02*
X0033158Y0094034D01*
X0032753Y0093867D02*
X0035069Y0094826D01*
X0036841Y0096598D01*
X0037800Y0098913D01*
X0037800Y0101420D01*
X0036841Y0103735D01*
X0035069Y0105508D01*
X0032753Y0106467D01*
X0030247Y0106467D01*
X0027931Y0105508D01*
X0026159Y0103735D01*
X0025200Y0101420D01*
X0025200Y0098913D01*
X0026159Y0096598D01*
X0027931Y0094826D01*
X0030247Y0093867D01*
X0032753Y0093867D01*
X0035276Y0095033D02*
X0137724Y0095033D01*
X0136726Y0096031D02*
X0036274Y0096031D01*
X0037020Y0097030D02*
X0135980Y0097030D01*
X0135567Y0098028D02*
X0037433Y0098028D01*
X0037800Y0099027D02*
X0135200Y0099027D01*
X0135200Y0100025D02*
X0037800Y0100025D01*
X0037800Y0101024D02*
X0135200Y0101024D01*
X0135450Y0102022D02*
X0037550Y0102022D01*
X0037137Y0103021D02*
X0135863Y0103021D01*
X0136443Y0104019D02*
X0036557Y0104019D01*
X0035558Y0105018D02*
X0137442Y0105018D01*
X0139160Y0106016D02*
X0033840Y0106016D01*
X0029160Y0106016D02*
X0021500Y0106016D01*
X0021500Y0105018D02*
X0027442Y0105018D01*
X0026443Y0104019D02*
X0021500Y0104019D01*
X0021500Y0103021D02*
X0025863Y0103021D01*
X0025450Y0102022D02*
X0021500Y0102022D01*
X0021500Y0101024D02*
X0025200Y0101024D01*
X0025200Y0100025D02*
X0021500Y0100025D01*
X0021500Y0099027D02*
X0025200Y0099027D01*
X0025567Y0098028D02*
X0021500Y0098028D01*
X0021500Y0097030D02*
X0025980Y0097030D01*
X0026726Y0096031D02*
X0021500Y0096031D01*
X0021500Y0095033D02*
X0027724Y0095033D01*
X0029842Y0094034D02*
X0021500Y0094034D01*
X0021500Y0093036D02*
X0197221Y0093036D01*
X0198628Y0092037D02*
X0021500Y0092037D01*
X0021500Y0091039D02*
X0244218Y0091039D01*
X0243659Y0091598D02*
X0242700Y0093913D01*
X0242700Y0096420D01*
X0243659Y0098735D01*
X0245431Y0100508D01*
X0247747Y0101467D01*
X0250253Y0101467D01*
X0252569Y0100508D01*
X0254341Y0098735D01*
X0255300Y0096420D01*
X0255300Y0093913D01*
X0254341Y0091598D01*
X0252569Y0089826D01*
X0250253Y0088867D01*
X0247747Y0088867D01*
X0245431Y0089826D01*
X0243659Y0091598D01*
X0243477Y0092037D02*
X0204372Y0092037D01*
X0205779Y0093036D02*
X0243064Y0093036D01*
X0242700Y0094034D02*
X0206777Y0094034D01*
X0207228Y0095033D02*
X0242700Y0095033D01*
X0242700Y0096031D02*
X0207642Y0096031D01*
X0207800Y0097030D02*
X0242953Y0097030D01*
X0243366Y0098028D02*
X0207800Y0098028D01*
X0207756Y0099027D02*
X0243951Y0099027D01*
X0244949Y0100025D02*
X0207342Y0100025D01*
X0206929Y0101024D02*
X0246678Y0101024D01*
X0251322Y0101024D02*
X0296500Y0101024D01*
X0296500Y0102022D02*
X0206054Y0102022D01*
X0205037Y0103021D02*
X0296500Y0103021D01*
X0296500Y0100025D02*
X0253051Y0100025D01*
X0254049Y0099027D02*
X0296500Y0099027D01*
X0296500Y0098028D02*
X0254634Y0098028D01*
X0255047Y0097030D02*
X0296500Y0097030D01*
X0296500Y0096031D02*
X0255300Y0096031D01*
X0255300Y0095033D02*
X0296500Y0095033D01*
X0296500Y0094034D02*
X0255300Y0094034D01*
X0254936Y0093036D02*
X0296500Y0093036D01*
X0296500Y0092037D02*
X0254523Y0092037D01*
X0253782Y0091039D02*
X0296500Y0091039D01*
X0296500Y0090040D02*
X0252783Y0090040D01*
X0250676Y0089042D02*
X0296500Y0089042D01*
X0296500Y0088043D02*
X0023624Y0088043D01*
X0024622Y0087045D02*
X0296500Y0087045D01*
X0296500Y0086046D02*
X0025621Y0086046D01*
X0026619Y0085048D02*
X0296500Y0085048D01*
X0296500Y0084049D02*
X0293699Y0084049D01*
X0293281Y0084467D02*
X0289719Y0084467D01*
X0287200Y0081948D01*
X0287200Y0078386D01*
X0289719Y0075867D01*
X0293281Y0075867D01*
X0295800Y0078386D01*
X0295800Y0081948D01*
X0293281Y0084467D01*
X0294697Y0083051D02*
X0296500Y0083051D01*
X0296500Y0082052D02*
X0295696Y0082052D01*
X0295800Y0081054D02*
X0296500Y0081054D01*
X0296500Y0080055D02*
X0295800Y0080055D01*
X0295800Y0079056D02*
X0296500Y0079056D01*
X0296500Y0078058D02*
X0295472Y0078058D01*
X0294474Y0077059D02*
X0296500Y0077059D01*
X0296500Y0076061D02*
X0293475Y0076061D01*
X0296500Y0075062D02*
X0116500Y0075062D01*
X0116500Y0074064D02*
X0296500Y0074064D01*
X0296500Y0073065D02*
X0116500Y0073065D01*
X0116500Y0072067D02*
X0296500Y0072067D01*
X0296500Y0071068D02*
X0116500Y0071068D01*
X0116500Y0070070D02*
X0296500Y0070070D01*
X0296500Y0069071D02*
X0116500Y0069071D01*
X0116500Y0068073D02*
X0296500Y0068073D01*
X0296500Y0067074D02*
X0116500Y0067074D01*
X0116500Y0066076D02*
X0285571Y0066076D01*
X0285200Y0065077D02*
X0116500Y0065077D01*
X0116500Y0064079D02*
X0285200Y0064079D01*
X0285200Y0063080D02*
X0116500Y0063080D01*
X0116500Y0062082D02*
X0285200Y0062082D01*
X0285200Y0061083D02*
X0116500Y0061083D01*
X0116500Y0060085D02*
X0285200Y0060085D01*
X0285200Y0059086D02*
X0116500Y0059086D01*
X0116500Y0058088D02*
X0285200Y0058088D01*
X0285200Y0057089D02*
X0116500Y0057089D01*
X0116500Y0056091D02*
X0285200Y0056091D01*
X0285200Y0055092D02*
X0116500Y0055092D01*
X0116500Y0054094D02*
X0285200Y0054094D01*
X0285200Y0053095D02*
X0116500Y0053095D01*
X0116500Y0052097D02*
X0285200Y0052097D01*
X0285200Y0051098D02*
X0116500Y0051098D01*
X0116500Y0050100D02*
X0285200Y0050100D01*
X0285200Y0049101D02*
X0116500Y0049101D01*
X0116500Y0048103D02*
X0285200Y0048103D01*
X0285200Y0047104D02*
X0116500Y0047104D01*
X0116500Y0046106D02*
X0285200Y0046106D01*
X0285200Y0045107D02*
X0116500Y0045107D01*
X0116500Y0044109D02*
X0285200Y0044109D01*
X0285200Y0043110D02*
X0116500Y0043110D01*
X0116500Y0042112D02*
X0285200Y0042112D01*
X0285200Y0041113D02*
X0116500Y0041113D01*
X0116500Y0076061D02*
X0289525Y0076061D01*
X0288526Y0077059D02*
X0116500Y0077059D01*
X0116500Y0078058D02*
X0287528Y0078058D01*
X0287200Y0079056D02*
X0116500Y0079056D01*
X0116500Y0080055D02*
X0287200Y0080055D01*
X0287200Y0081054D02*
X0030613Y0081054D01*
X0029615Y0082052D02*
X0287304Y0082052D01*
X0288303Y0083051D02*
X0028616Y0083051D01*
X0027618Y0084049D02*
X0289301Y0084049D01*
X0247324Y0089042D02*
X0022625Y0089042D01*
X0021627Y0090040D02*
X0245217Y0090040D01*
X0267501Y0135972D02*
X0296500Y0135972D01*
X0296500Y0136970D02*
X0269097Y0136970D01*
X0269906Y0137969D02*
X0296500Y0137969D01*
X0296500Y0138967D02*
X0270320Y0138967D01*
X0270450Y0139966D02*
X0296500Y0139966D01*
X0296500Y0140964D02*
X0270450Y0140964D01*
X0270073Y0141963D02*
X0296500Y0141963D01*
X0296500Y0142961D02*
X0269499Y0142961D01*
X0268471Y0143960D02*
X0285868Y0143960D01*
X0285200Y0144958D02*
X0220585Y0144958D01*
X0221108Y0145957D02*
X0285200Y0145957D01*
X0285200Y0146955D02*
X0221450Y0146955D01*
X0221450Y0147954D02*
X0285200Y0147954D01*
X0285200Y0148952D02*
X0221284Y0148952D01*
X0220871Y0149951D02*
X0285200Y0149951D01*
X0285200Y0150949D02*
X0220011Y0150949D01*
X0219586Y0143960D02*
X0263529Y0143960D01*
X0284185Y0155942D02*
X0285200Y0155942D01*
X0235811Y0187894D02*
X0142800Y0187894D01*
X0142800Y0188893D02*
X0236317Y0188893D01*
X0237315Y0189891D02*
X0142398Y0189891D01*
X0141984Y0190890D02*
X0238854Y0190890D01*
X0295397Y0190890D02*
X0296500Y0190890D01*
X0296500Y0191888D02*
X0296395Y0191888D01*
X0177844Y0174914D02*
X0061500Y0174914D01*
X0061500Y0175912D02*
X0176845Y0175912D01*
X0176030Y0176911D02*
X0061500Y0176911D01*
X0061500Y0177909D02*
X0175616Y0177909D01*
X0175202Y0178908D02*
X0061500Y0178908D01*
X0061500Y0179906D02*
X0175200Y0179906D01*
X0061500Y0080055D02*
X0031612Y0080055D01*
X0032610Y0079056D02*
X0061500Y0079056D01*
X0061500Y0078058D02*
X0033609Y0078058D01*
X0034607Y0077059D02*
X0061500Y0077059D01*
X0061500Y0076061D02*
X0035606Y0076061D01*
X0036604Y0075062D02*
X0061500Y0075062D01*
X0061500Y0074064D02*
X0037603Y0074064D01*
X0038601Y0073065D02*
X0061500Y0073065D01*
X0061500Y0072067D02*
X0039600Y0072067D01*
X0040598Y0071068D02*
X0061500Y0071068D01*
D28*
X0076500Y0065167D02*
X0081500Y0065167D01*
X0086500Y0065167D01*
X0096500Y0065167D01*
X0101500Y0065167D01*
X0101500Y0056045D01*
X0101500Y0050167D01*
X0076500Y0050167D01*
X0076500Y0059699D01*
X0076500Y0065167D01*
X0061500Y0055167D02*
X0066500Y0050167D01*
X0046500Y0030167D01*
X0016500Y0030167D01*
X0016500Y0050107D01*
X0016500Y0065167D01*
X0021500Y0065167D01*
X0026500Y0060167D01*
X0031500Y0055167D01*
X0036500Y0055167D01*
X0061500Y0055167D01*
X0066500Y0050167D02*
X0076500Y0050167D01*
X0016500Y0065167D02*
X0011500Y0065167D01*
X0286500Y0065167D02*
X0286500Y0045221D01*
X0286500Y0045167D01*
X0286500Y0040167D01*
X0286500Y0065167D02*
X0296500Y0065167D01*
D29*
X0286500Y0045167D03*
X0281500Y0165167D03*
X0021500Y0165167D03*
X0021500Y0050167D03*
D30*
X0026500Y0050167D03*
X0036500Y0055167D03*
X0026500Y0060167D03*
X0036500Y0045167D03*
X0026500Y0040167D03*
X0086500Y0055167D03*
X0086500Y0060167D03*
X0086500Y0065167D03*
X0141500Y0025167D03*
X0141500Y0020167D03*
X0141500Y0015167D03*
X0206500Y0015167D03*
X0206500Y0020167D03*
X0206500Y0025167D03*
X0251500Y0020167D03*
X0271500Y0020167D03*
X0276500Y0015167D03*
D31*
X0261500Y0020167D02*
X0261500Y0025167D01*
X0206500Y0025167D01*
X0201500Y0025167D01*
X0201500Y0015167D01*
X0206500Y0015167D01*
X0236500Y0015167D01*
X0241500Y0020167D01*
X0261500Y0020167D01*
X0206500Y0025167D02*
X0206500Y0015167D01*
X0156500Y0015167D02*
X0136500Y0015167D01*
X0136500Y0025167D01*
X0142005Y0025167D01*
X0156500Y0025167D01*
X0156500Y0015167D01*
X0096500Y0055167D02*
X0085272Y0055167D01*
X0081500Y0055167D01*
X0081500Y0060167D01*
X0081500Y0065167D02*
X0096500Y0065167D01*
X0096500Y0055167D01*
X0061500Y0050167D02*
X0046500Y0035167D01*
X0021500Y0035167D01*
X0021500Y0050167D01*
X0031500Y0040167D01*
X0041500Y0040167D01*
X0046500Y0045167D01*
X0036500Y0045167D01*
X0031500Y0050167D02*
X0061500Y0050167D01*
X0031500Y0050167D02*
X0016500Y0065167D01*
X0021500Y0055167D02*
X0021500Y0050167D01*
M02*
