G75*
%MOIN*%
%OFA0B0*%
%FSLAX25Y25*%
%IPPOS*%
%LPD*%
%AMOC8*
5,1,8,0,0,1.08239X$1,22.5*
%
%ADD10C,0.03359*%
%ADD11OC8,0.06800*%
%ADD12OC8,0.07100*%
%ADD13C,0.07100*%
%ADD14C,0.10800*%
%ADD15OC8,0.10800*%
%ADD16C,0.02178*%
%ADD17C,0.17300*%
%ADD18C,0.03778*%
D10*
X0011500Y0015167D03*
X0291500Y0015167D03*
X0291500Y0195167D03*
X0011500Y0195167D03*
D11*
X0291500Y0080167D03*
X0041500Y0015167D03*
D12*
X0051500Y0077167D03*
X0163500Y0152667D03*
X0231000Y0147667D03*
X0252000Y0140167D03*
X0074500Y0197667D03*
D13*
X0088500Y0197667D03*
X0149500Y0152667D03*
X0217000Y0147667D03*
X0266000Y0140167D03*
X0051500Y0063167D03*
D14*
X0031500Y0100167D03*
X0076500Y0140167D03*
X0141500Y0100167D03*
X0201500Y0097667D03*
X0249000Y0095167D03*
X0181500Y0180167D03*
X0136500Y0187667D03*
X0241500Y0185167D03*
D15*
X0261500Y0185167D03*
X0201500Y0180167D03*
X0116500Y0187667D03*
X0076500Y0160167D03*
X0031500Y0120167D03*
X0141500Y0120167D03*
X0201500Y0117667D03*
X0269000Y0095167D03*
D16*
X0291500Y0060167D03*
X0291500Y0030167D03*
X0291500Y0150167D03*
X0291500Y0180167D03*
X0011500Y0180167D03*
X0011500Y0150167D03*
X0011500Y0065167D03*
X0011500Y0035167D03*
D17*
X0021500Y0050167D03*
X0021500Y0165167D03*
X0281500Y0165167D03*
X0286500Y0045167D03*
D18*
X0271500Y0020167D03*
X0276500Y0015167D03*
X0251500Y0020167D03*
X0206500Y0020167D03*
X0206500Y0025167D03*
X0206500Y0015167D03*
X0141500Y0015167D03*
X0141500Y0020167D03*
X0141500Y0025167D03*
X0086500Y0055167D03*
X0086500Y0060167D03*
X0086500Y0065167D03*
X0036500Y0055167D03*
X0026500Y0060167D03*
X0026500Y0050167D03*
X0036500Y0045167D03*
X0026500Y0040167D03*
M02*
