G75*
%MOIN*%
%OFA0B0*%
%FSLAX25Y25*%
%IPPOS*%
%LPD*%
%AMOC8*
5,1,8,0,0,1.08239X$1,22.5*
%
%ADD10OC8,0.06000*%
%ADD11OC8,0.06300*%
%ADD12C,0.06300*%
%ADD13C,0.10000*%
%ADD14OC8,0.10000*%
%ADD15R,0.10000X0.40000*%
%ADD16C,0.16500*%
%ADD17C,0.02978*%
%ADD18C,0.01200*%
%ADD19C,0.10000*%
%ADD20C,0.01000*%
D10*
X0041500Y0015167D03*
X0291500Y0080167D03*
D11*
X0252000Y0140167D03*
X0231000Y0147667D03*
X0163500Y0152667D03*
X0074500Y0197667D03*
X0051500Y0077167D03*
D12*
X0051500Y0063167D03*
X0149500Y0152667D03*
X0217000Y0147667D03*
X0266000Y0140167D03*
X0088500Y0197667D03*
D13*
X0136500Y0187667D03*
X0181500Y0180167D03*
X0241500Y0185167D03*
X0141500Y0100167D03*
X0201500Y0097667D03*
X0249000Y0095167D03*
X0076500Y0140167D03*
X0031500Y0100167D03*
D14*
X0031500Y0120167D03*
X0076500Y0160167D03*
X0116500Y0187667D03*
X0201500Y0180167D03*
X0261500Y0185167D03*
X0201500Y0117667D03*
X0141500Y0120167D03*
X0269000Y0095167D03*
D15*
X0291500Y0045167D03*
X0291500Y0165167D03*
X0011500Y0165167D03*
X0011500Y0050167D03*
D16*
X0021500Y0050167D03*
X0021500Y0165167D03*
X0281500Y0165167D03*
X0286500Y0045167D03*
D17*
X0271500Y0020167D03*
X0276500Y0015167D03*
X0251500Y0020167D03*
X0206500Y0020167D03*
X0206500Y0025167D03*
X0206500Y0015167D03*
X0141500Y0015167D03*
X0141500Y0020167D03*
X0141500Y0025167D03*
X0086500Y0055167D03*
X0086500Y0060167D03*
X0086500Y0065167D03*
X0036500Y0055167D03*
X0026500Y0060167D03*
X0026500Y0050167D03*
X0036500Y0045167D03*
X0026500Y0040167D03*
D18*
X0251500Y0020167D02*
X0261500Y0020167D01*
X0266500Y0015167D01*
X0276500Y0015167D01*
X0271500Y0020167D02*
X0276500Y0025167D01*
X0276500Y0065167D01*
X0291500Y0080167D01*
D19*
X0206500Y0025167D02*
X0206500Y0015167D01*
X0141500Y0015167D01*
X0101500Y0055167D01*
X0081500Y0055167D01*
X0081500Y0065167D01*
X0101500Y0065167D01*
X0141500Y0025167D01*
X0141500Y0015167D01*
X0141500Y0025167D02*
X0206500Y0025167D01*
X0111500Y0040167D02*
X0026500Y0040167D01*
X0016500Y0040167D01*
X0016500Y0050167D01*
X0021500Y0045167D01*
X0036500Y0045167D01*
X0021500Y0060167D01*
X0021500Y0055167D01*
X0026500Y0050167D01*
X0016500Y0050167D02*
X0016500Y0060167D01*
X0016500Y0065167D02*
X0026500Y0065167D01*
X0036500Y0055167D01*
X0041500Y0050167D01*
X0101500Y0050167D01*
X0106500Y0045167D02*
X0036500Y0045167D01*
D20*
X0045104Y0058867D02*
X0041428Y0062542D01*
X0031428Y0072542D01*
X0028231Y0073867D01*
X0014769Y0073867D01*
X0011572Y0072542D01*
X0009124Y0070095D01*
X0008977Y0069738D01*
X0008561Y0069566D01*
X0007101Y0068106D01*
X0006500Y0066655D01*
X0006500Y0148678D01*
X0007101Y0147227D01*
X0008561Y0145768D01*
X0010468Y0144978D01*
X0012532Y0144978D01*
X0014439Y0145768D01*
X0015899Y0147227D01*
X0016689Y0149134D01*
X0016689Y0151199D01*
X0015899Y0153106D01*
X0014439Y0154566D01*
X0012532Y0155356D01*
X0010468Y0155356D01*
X0008561Y0154566D01*
X0007101Y0153106D01*
X0006500Y0151655D01*
X0006500Y0178678D01*
X0007101Y0177227D01*
X0008561Y0175768D01*
X0010468Y0174978D01*
X0012532Y0174978D01*
X0014439Y0175768D01*
X0015899Y0177227D01*
X0016689Y0179134D01*
X0016689Y0181199D01*
X0015899Y0183106D01*
X0014439Y0184566D01*
X0012532Y0185356D01*
X0010468Y0185356D01*
X0008561Y0184566D01*
X0007101Y0183106D01*
X0006500Y0181655D01*
X0006500Y0192135D01*
X0006600Y0191893D01*
X0008226Y0190267D01*
X0010350Y0189387D01*
X0012650Y0189387D01*
X0014774Y0190267D01*
X0016400Y0191893D01*
X0017280Y0194017D01*
X0017280Y0196316D01*
X0016400Y0198440D01*
X0014774Y0200066D01*
X0014531Y0200167D01*
X0067650Y0200167D01*
X0067650Y0194829D01*
X0071663Y0190817D01*
X0077337Y0190817D01*
X0081350Y0194829D01*
X0081350Y0200167D01*
X0084569Y0200167D01*
X0084523Y0200104D01*
X0084191Y0199452D01*
X0083964Y0198756D01*
X0083850Y0198033D01*
X0083850Y0197967D01*
X0088200Y0197967D01*
X0088200Y0197367D01*
X0083850Y0197367D01*
X0083850Y0197301D01*
X0083964Y0196578D01*
X0084191Y0195882D01*
X0084523Y0195230D01*
X0084953Y0194637D01*
X0085471Y0194120D01*
X0086063Y0193690D01*
X0086715Y0193357D01*
X0087411Y0193131D01*
X0088134Y0193017D01*
X0088200Y0193017D01*
X0088200Y0197367D01*
X0088800Y0197367D01*
X0088800Y0197967D01*
X0093150Y0197967D01*
X0093150Y0198033D01*
X0093035Y0198756D01*
X0092809Y0199452D01*
X0092477Y0200104D01*
X0092431Y0200167D01*
X0288469Y0200167D01*
X0288226Y0200066D01*
X0286600Y0198440D01*
X0285720Y0196316D01*
X0285720Y0194017D01*
X0286600Y0191893D01*
X0288226Y0190267D01*
X0290350Y0189387D01*
X0292650Y0189387D01*
X0294774Y0190267D01*
X0296400Y0191893D01*
X0296500Y0192135D01*
X0296500Y0181655D01*
X0295899Y0183106D01*
X0294439Y0184566D01*
X0292532Y0185356D01*
X0290468Y0185356D01*
X0288561Y0184566D01*
X0287101Y0183106D01*
X0286311Y0181199D01*
X0286311Y0179134D01*
X0287101Y0177227D01*
X0288561Y0175768D01*
X0290468Y0174978D01*
X0292532Y0174978D01*
X0294439Y0175768D01*
X0295899Y0177227D01*
X0296500Y0178678D01*
X0296500Y0151655D01*
X0295899Y0153106D01*
X0294439Y0154566D01*
X0292532Y0155356D01*
X0290468Y0155356D01*
X0288561Y0154566D01*
X0287101Y0153106D01*
X0286311Y0151199D01*
X0286311Y0149134D01*
X0287101Y0147227D01*
X0288561Y0145768D01*
X0290468Y0144978D01*
X0292532Y0144978D01*
X0294439Y0145768D01*
X0295899Y0147227D01*
X0296500Y0148678D01*
X0296500Y0084642D01*
X0294275Y0086867D01*
X0288725Y0086867D01*
X0284800Y0082942D01*
X0284800Y0079548D01*
X0274064Y0068812D01*
X0272855Y0067602D01*
X0272200Y0066022D01*
X0272200Y0026948D01*
X0270608Y0025356D01*
X0270468Y0025356D01*
X0268561Y0024566D01*
X0267101Y0023106D01*
X0266381Y0021367D01*
X0265145Y0022602D01*
X0263936Y0023812D01*
X0262355Y0024467D01*
X0254538Y0024467D01*
X0254439Y0024566D01*
X0252532Y0025356D01*
X0250468Y0025356D01*
X0248561Y0024566D01*
X0247101Y0023106D01*
X0246311Y0021199D01*
X0246311Y0019134D01*
X0247101Y0017227D01*
X0248561Y0015768D01*
X0250468Y0014978D01*
X0252532Y0014978D01*
X0254439Y0015768D01*
X0254538Y0015867D01*
X0259719Y0015867D01*
X0264064Y0011521D01*
X0265645Y0010867D01*
X0273462Y0010867D01*
X0273561Y0010768D01*
X0275012Y0010167D01*
X0213804Y0010167D01*
X0213875Y0010238D01*
X0215200Y0013436D01*
X0215200Y0026897D01*
X0213875Y0030095D01*
X0211428Y0032542D01*
X0208231Y0033867D01*
X0145104Y0033867D01*
X0108875Y0070095D01*
X0106428Y0072542D01*
X0103231Y0073867D01*
X0079769Y0073867D01*
X0076572Y0072542D01*
X0074124Y0070095D01*
X0072800Y0066897D01*
X0072800Y0058867D01*
X0053303Y0058867D01*
X0053937Y0059190D01*
X0054529Y0059620D01*
X0055047Y0060137D01*
X0055477Y0060730D01*
X0055809Y0061382D01*
X0056035Y0062078D01*
X0056150Y0062801D01*
X0056150Y0062867D01*
X0051800Y0062867D01*
X0051800Y0063467D01*
X0051200Y0063467D01*
X0051200Y0067817D01*
X0051134Y0067817D01*
X0050411Y0067702D01*
X0049715Y0067476D01*
X0049063Y0067144D01*
X0048471Y0066713D01*
X0047953Y0066196D01*
X0047523Y0065604D01*
X0047191Y0064952D01*
X0046964Y0064256D01*
X0046850Y0063533D01*
X0046850Y0063467D01*
X0051200Y0063467D01*
X0051200Y0062867D01*
X0046850Y0062867D01*
X0046850Y0062801D01*
X0046964Y0062078D01*
X0047191Y0061382D01*
X0047523Y0060730D01*
X0047953Y0060137D01*
X0048471Y0059620D01*
X0049063Y0059190D01*
X0049697Y0058867D01*
X0045104Y0058867D01*
X0044884Y0059086D02*
X0049266Y0059086D01*
X0048006Y0060085D02*
X0043886Y0060085D01*
X0042887Y0061083D02*
X0047343Y0061083D01*
X0046964Y0062082D02*
X0041888Y0062082D01*
X0040890Y0063080D02*
X0051200Y0063080D01*
X0051800Y0063080D02*
X0072800Y0063080D01*
X0072800Y0062082D02*
X0056036Y0062082D01*
X0055657Y0061083D02*
X0072800Y0061083D01*
X0072800Y0060085D02*
X0054994Y0060085D01*
X0053734Y0059086D02*
X0072800Y0059086D01*
X0072800Y0064079D02*
X0056063Y0064079D01*
X0056035Y0064256D02*
X0055809Y0064952D01*
X0055477Y0065604D01*
X0055047Y0066196D01*
X0054529Y0066713D01*
X0053937Y0067144D01*
X0053285Y0067476D01*
X0052589Y0067702D01*
X0051866Y0067817D01*
X0051800Y0067817D01*
X0051800Y0063467D01*
X0056150Y0063467D01*
X0056150Y0063533D01*
X0056035Y0064256D01*
X0055745Y0065077D02*
X0072800Y0065077D01*
X0072800Y0066076D02*
X0055134Y0066076D01*
X0054033Y0067074D02*
X0072873Y0067074D01*
X0073287Y0068073D02*
X0035897Y0068073D01*
X0034899Y0069071D02*
X0073701Y0069071D01*
X0074114Y0070070D02*
X0033900Y0070070D01*
X0032902Y0071068D02*
X0047911Y0071068D01*
X0048663Y0070317D02*
X0044650Y0074329D01*
X0044650Y0080004D01*
X0048663Y0084017D01*
X0054337Y0084017D01*
X0058350Y0080004D01*
X0058350Y0074329D01*
X0054337Y0070317D01*
X0048663Y0070317D01*
X0046912Y0072067D02*
X0031903Y0072067D01*
X0030165Y0073065D02*
X0045914Y0073065D01*
X0044915Y0074064D02*
X0006500Y0074064D01*
X0006500Y0075062D02*
X0044650Y0075062D01*
X0044650Y0076061D02*
X0006500Y0076061D01*
X0006500Y0077059D02*
X0044650Y0077059D01*
X0044650Y0078058D02*
X0006500Y0078058D01*
X0006500Y0079056D02*
X0044650Y0079056D01*
X0044701Y0080055D02*
X0006500Y0080055D01*
X0006500Y0081054D02*
X0045700Y0081054D01*
X0046698Y0082052D02*
X0006500Y0082052D01*
X0006500Y0083051D02*
X0047697Y0083051D01*
X0055303Y0083051D02*
X0284909Y0083051D01*
X0284800Y0082052D02*
X0056302Y0082052D01*
X0057300Y0081054D02*
X0284800Y0081054D01*
X0284800Y0080055D02*
X0058299Y0080055D01*
X0058350Y0079056D02*
X0284309Y0079056D01*
X0283310Y0078058D02*
X0058350Y0078058D01*
X0058350Y0077059D02*
X0282312Y0077059D01*
X0281313Y0076061D02*
X0058350Y0076061D01*
X0058350Y0075062D02*
X0280315Y0075062D01*
X0279316Y0074064D02*
X0058085Y0074064D01*
X0057086Y0073065D02*
X0077835Y0073065D01*
X0076097Y0072067D02*
X0056088Y0072067D01*
X0055089Y0071068D02*
X0075098Y0071068D01*
X0051800Y0067074D02*
X0051200Y0067074D01*
X0051200Y0066076D02*
X0051800Y0066076D01*
X0051800Y0065077D02*
X0051200Y0065077D01*
X0051200Y0064079D02*
X0051800Y0064079D01*
X0048967Y0067074D02*
X0036896Y0067074D01*
X0037894Y0066076D02*
X0047866Y0066076D01*
X0047255Y0065077D02*
X0038893Y0065077D01*
X0039891Y0064079D02*
X0046937Y0064079D01*
X0012835Y0073065D02*
X0006500Y0073065D01*
X0006500Y0072067D02*
X0011097Y0072067D01*
X0010098Y0071068D02*
X0006500Y0071068D01*
X0006500Y0070070D02*
X0009114Y0070070D01*
X0008066Y0069071D02*
X0006500Y0069071D01*
X0006500Y0068073D02*
X0007087Y0068073D01*
X0006674Y0067074D02*
X0006500Y0067074D01*
X0006500Y0084049D02*
X0285907Y0084049D01*
X0286906Y0085048D02*
X0006500Y0085048D01*
X0006500Y0086046D02*
X0287904Y0086046D01*
X0295096Y0086046D02*
X0296500Y0086046D01*
X0296500Y0085048D02*
X0296094Y0085048D01*
X0296500Y0087045D02*
X0273182Y0087045D01*
X0272604Y0086467D02*
X0277700Y0091563D01*
X0277700Y0098770D01*
X0272604Y0103867D01*
X0265396Y0103867D01*
X0260300Y0098770D01*
X0260300Y0091563D01*
X0265396Y0086467D01*
X0272604Y0086467D01*
X0274180Y0088043D02*
X0296500Y0088043D01*
X0296500Y0089042D02*
X0275179Y0089042D01*
X0276177Y0090040D02*
X0296500Y0090040D01*
X0296500Y0091039D02*
X0277176Y0091039D01*
X0277700Y0092037D02*
X0296500Y0092037D01*
X0296500Y0093036D02*
X0277700Y0093036D01*
X0277700Y0094034D02*
X0296500Y0094034D01*
X0296500Y0095033D02*
X0277700Y0095033D01*
X0277700Y0096031D02*
X0296500Y0096031D01*
X0296500Y0097030D02*
X0277700Y0097030D01*
X0277700Y0098028D02*
X0296500Y0098028D01*
X0296500Y0099027D02*
X0277444Y0099027D01*
X0276445Y0100025D02*
X0296500Y0100025D01*
X0296500Y0101024D02*
X0275447Y0101024D01*
X0274448Y0102022D02*
X0296500Y0102022D01*
X0296500Y0103021D02*
X0273450Y0103021D01*
X0264550Y0103021D02*
X0205200Y0103021D01*
X0205119Y0103083D02*
X0204381Y0103509D01*
X0203594Y0103835D01*
X0202771Y0104055D01*
X0202000Y0104157D01*
X0202000Y0098167D01*
X0201000Y0098167D01*
X0201000Y0104157D01*
X0200229Y0104055D01*
X0199406Y0103835D01*
X0198619Y0103509D01*
X0197881Y0103083D01*
X0197205Y0102564D01*
X0196603Y0101962D01*
X0196084Y0101286D01*
X0195658Y0100548D01*
X0195332Y0099760D01*
X0195111Y0098937D01*
X0195010Y0098167D01*
X0201000Y0098167D01*
X0201000Y0097167D01*
X0195010Y0097167D01*
X0195111Y0096396D01*
X0195332Y0095573D01*
X0195658Y0094786D01*
X0196084Y0094048D01*
X0196603Y0093372D01*
X0197205Y0092769D01*
X0197881Y0092251D01*
X0198619Y0091824D01*
X0199406Y0091498D01*
X0200229Y0091278D01*
X0201000Y0091176D01*
X0201000Y0097167D01*
X0202000Y0097167D01*
X0202000Y0098167D01*
X0207990Y0098167D01*
X0207889Y0098937D01*
X0207668Y0099760D01*
X0207342Y0100548D01*
X0206916Y0101286D01*
X0206397Y0101962D01*
X0205795Y0102564D01*
X0205119Y0103083D01*
X0206337Y0102022D02*
X0263552Y0102022D01*
X0262553Y0101024D02*
X0251845Y0101024D01*
X0251881Y0101009D02*
X0251094Y0101335D01*
X0250271Y0101555D01*
X0249500Y0101657D01*
X0249500Y0095667D01*
X0248500Y0095667D01*
X0248500Y0101657D01*
X0247729Y0101555D01*
X0246906Y0101335D01*
X0246119Y0101009D01*
X0245381Y0100583D01*
X0244705Y0100064D01*
X0244103Y0099462D01*
X0243584Y0098786D01*
X0243158Y0098048D01*
X0242832Y0097260D01*
X0242611Y0096437D01*
X0242510Y0095667D01*
X0248500Y0095667D01*
X0248500Y0094667D01*
X0242510Y0094667D01*
X0242611Y0093896D01*
X0242832Y0093073D01*
X0243158Y0092286D01*
X0243584Y0091548D01*
X0244103Y0090872D01*
X0244705Y0090269D01*
X0245381Y0089751D01*
X0246119Y0089324D01*
X0246906Y0088998D01*
X0247729Y0088778D01*
X0248500Y0088676D01*
X0248500Y0094667D01*
X0249500Y0094667D01*
X0249500Y0095667D01*
X0255490Y0095667D01*
X0255389Y0096437D01*
X0255168Y0097260D01*
X0254842Y0098048D01*
X0254416Y0098786D01*
X0253897Y0099462D01*
X0253295Y0100064D01*
X0252619Y0100583D01*
X0251881Y0101009D01*
X0253334Y0100025D02*
X0261555Y0100025D01*
X0260556Y0099027D02*
X0254231Y0099027D01*
X0254850Y0098028D02*
X0260300Y0098028D01*
X0260300Y0097030D02*
X0255230Y0097030D01*
X0255442Y0096031D02*
X0260300Y0096031D01*
X0260300Y0095033D02*
X0249500Y0095033D01*
X0249500Y0094667D02*
X0255490Y0094667D01*
X0255389Y0093896D01*
X0255168Y0093073D01*
X0254842Y0092286D01*
X0254416Y0091548D01*
X0253897Y0090872D01*
X0253295Y0090269D01*
X0252619Y0089751D01*
X0251881Y0089324D01*
X0251094Y0088998D01*
X0250271Y0088778D01*
X0249500Y0088676D01*
X0249500Y0094667D01*
X0249500Y0094034D02*
X0248500Y0094034D01*
X0248500Y0093036D02*
X0249500Y0093036D01*
X0249500Y0092037D02*
X0248500Y0092037D01*
X0248500Y0091039D02*
X0249500Y0091039D01*
X0249500Y0090040D02*
X0248500Y0090040D01*
X0248500Y0089042D02*
X0249500Y0089042D01*
X0251198Y0089042D02*
X0262821Y0089042D01*
X0261823Y0090040D02*
X0252996Y0090040D01*
X0254026Y0091039D02*
X0260824Y0091039D01*
X0260300Y0092037D02*
X0254699Y0092037D01*
X0255153Y0093036D02*
X0260300Y0093036D01*
X0260300Y0094034D02*
X0255407Y0094034D01*
X0249500Y0096031D02*
X0248500Y0096031D01*
X0248500Y0095033D02*
X0207445Y0095033D01*
X0207342Y0094786D02*
X0207668Y0095573D01*
X0207889Y0096396D01*
X0207990Y0097167D01*
X0202000Y0097167D01*
X0202000Y0091176D01*
X0202771Y0091278D01*
X0203594Y0091498D01*
X0204381Y0091824D01*
X0205119Y0092251D01*
X0205795Y0092769D01*
X0206397Y0093372D01*
X0206916Y0094048D01*
X0207342Y0094786D01*
X0206906Y0094034D02*
X0242593Y0094034D01*
X0242847Y0093036D02*
X0206061Y0093036D01*
X0204749Y0092037D02*
X0243301Y0092037D01*
X0243974Y0091039D02*
X0006500Y0091039D01*
X0006500Y0092037D02*
X0198251Y0092037D01*
X0196939Y0093036D02*
X0006500Y0093036D01*
X0006500Y0094034D02*
X0029320Y0094034D01*
X0029406Y0093998D02*
X0030229Y0093778D01*
X0031000Y0093676D01*
X0031000Y0099667D01*
X0025010Y0099667D01*
X0025111Y0098896D01*
X0025332Y0098073D01*
X0025658Y0097286D01*
X0026084Y0096548D01*
X0026603Y0095872D01*
X0027205Y0095269D01*
X0027881Y0094751D01*
X0028619Y0094324D01*
X0029406Y0093998D01*
X0031000Y0094034D02*
X0032000Y0094034D01*
X0032000Y0093676D02*
X0032771Y0093778D01*
X0033594Y0093998D01*
X0034381Y0094324D01*
X0035119Y0094751D01*
X0035795Y0095269D01*
X0036397Y0095872D01*
X0036916Y0096548D01*
X0037342Y0097286D01*
X0037668Y0098073D01*
X0037889Y0098896D01*
X0037990Y0099667D01*
X0032000Y0099667D01*
X0032000Y0100667D01*
X0031000Y0100667D01*
X0031000Y0106657D01*
X0030229Y0106555D01*
X0029406Y0106335D01*
X0028619Y0106009D01*
X0027881Y0105583D01*
X0027205Y0105064D01*
X0026603Y0104462D01*
X0026084Y0103786D01*
X0025658Y0103048D01*
X0025332Y0102260D01*
X0025111Y0101437D01*
X0025010Y0100667D01*
X0031000Y0100667D01*
X0031000Y0099667D01*
X0032000Y0099667D01*
X0032000Y0093676D01*
X0032000Y0095033D02*
X0031000Y0095033D01*
X0031000Y0096031D02*
X0032000Y0096031D01*
X0032000Y0097030D02*
X0031000Y0097030D01*
X0031000Y0098028D02*
X0032000Y0098028D01*
X0032000Y0099027D02*
X0031000Y0099027D01*
X0031000Y0100025D02*
X0006500Y0100025D01*
X0006500Y0099027D02*
X0025094Y0099027D01*
X0025350Y0098028D02*
X0006500Y0098028D01*
X0006500Y0097030D02*
X0025806Y0097030D01*
X0026480Y0096031D02*
X0006500Y0096031D01*
X0006500Y0095033D02*
X0027513Y0095033D01*
X0033680Y0094034D02*
X0139320Y0094034D01*
X0139406Y0093998D02*
X0140229Y0093778D01*
X0141000Y0093676D01*
X0141000Y0099667D01*
X0135010Y0099667D01*
X0135111Y0098896D01*
X0135332Y0098073D01*
X0135658Y0097286D01*
X0136084Y0096548D01*
X0136603Y0095872D01*
X0137205Y0095269D01*
X0137881Y0094751D01*
X0138619Y0094324D01*
X0139406Y0093998D01*
X0141000Y0094034D02*
X0142000Y0094034D01*
X0142000Y0093676D02*
X0142771Y0093778D01*
X0143594Y0093998D01*
X0144381Y0094324D01*
X0145119Y0094751D01*
X0145795Y0095269D01*
X0146397Y0095872D01*
X0146916Y0096548D01*
X0147342Y0097286D01*
X0147668Y0098073D01*
X0147889Y0098896D01*
X0147990Y0099667D01*
X0142000Y0099667D01*
X0142000Y0100667D01*
X0141000Y0100667D01*
X0141000Y0106657D01*
X0140229Y0106555D01*
X0139406Y0106335D01*
X0138619Y0106009D01*
X0137881Y0105583D01*
X0137205Y0105064D01*
X0136603Y0104462D01*
X0136084Y0103786D01*
X0135658Y0103048D01*
X0135332Y0102260D01*
X0135111Y0101437D01*
X0135010Y0100667D01*
X0141000Y0100667D01*
X0141000Y0099667D01*
X0142000Y0099667D01*
X0142000Y0093676D01*
X0142000Y0095033D02*
X0141000Y0095033D01*
X0141000Y0096031D02*
X0142000Y0096031D01*
X0142000Y0097030D02*
X0141000Y0097030D01*
X0141000Y0098028D02*
X0142000Y0098028D01*
X0142000Y0099027D02*
X0141000Y0099027D01*
X0141000Y0100025D02*
X0032000Y0100025D01*
X0032000Y0100667D02*
X0037990Y0100667D01*
X0037889Y0101437D01*
X0037668Y0102260D01*
X0037342Y0103048D01*
X0036916Y0103786D01*
X0036397Y0104462D01*
X0035795Y0105064D01*
X0035119Y0105583D01*
X0034381Y0106009D01*
X0033594Y0106335D01*
X0032771Y0106555D01*
X0032000Y0106657D01*
X0032000Y0100667D01*
X0032000Y0101024D02*
X0031000Y0101024D01*
X0031000Y0102022D02*
X0032000Y0102022D01*
X0032000Y0103021D02*
X0031000Y0103021D01*
X0031000Y0104019D02*
X0032000Y0104019D01*
X0032000Y0105018D02*
X0031000Y0105018D01*
X0031000Y0106016D02*
X0032000Y0106016D01*
X0034363Y0106016D02*
X0138637Y0106016D01*
X0137159Y0105018D02*
X0035841Y0105018D01*
X0036737Y0104019D02*
X0136263Y0104019D01*
X0135647Y0103021D02*
X0037353Y0103021D01*
X0037732Y0102022D02*
X0135268Y0102022D01*
X0135057Y0101024D02*
X0037943Y0101024D01*
X0037906Y0099027D02*
X0135094Y0099027D01*
X0135350Y0098028D02*
X0037650Y0098028D01*
X0037194Y0097030D02*
X0135806Y0097030D01*
X0136480Y0096031D02*
X0036520Y0096031D01*
X0035487Y0095033D02*
X0137513Y0095033D01*
X0143680Y0094034D02*
X0196094Y0094034D01*
X0195555Y0095033D02*
X0145487Y0095033D01*
X0146520Y0096031D02*
X0195209Y0096031D01*
X0195028Y0097030D02*
X0147194Y0097030D01*
X0147650Y0098028D02*
X0201000Y0098028D01*
X0201000Y0097030D02*
X0202000Y0097030D01*
X0202000Y0098028D02*
X0243150Y0098028D01*
X0242770Y0097030D02*
X0207972Y0097030D01*
X0207791Y0096031D02*
X0242558Y0096031D01*
X0243769Y0099027D02*
X0207865Y0099027D01*
X0207559Y0100025D02*
X0244666Y0100025D01*
X0246155Y0101024D02*
X0207067Y0101024D01*
X0202000Y0101024D02*
X0201000Y0101024D01*
X0201000Y0102022D02*
X0202000Y0102022D01*
X0202000Y0103021D02*
X0201000Y0103021D01*
X0201000Y0104019D02*
X0202000Y0104019D01*
X0202906Y0104019D02*
X0296500Y0104019D01*
X0296500Y0105018D02*
X0145841Y0105018D01*
X0145795Y0105064D02*
X0145119Y0105583D01*
X0144381Y0106009D01*
X0143594Y0106335D01*
X0142771Y0106555D01*
X0142000Y0106657D01*
X0142000Y0100667D01*
X0147990Y0100667D01*
X0147889Y0101437D01*
X0147668Y0102260D01*
X0147342Y0103048D01*
X0146916Y0103786D01*
X0146397Y0104462D01*
X0145795Y0105064D01*
X0146737Y0104019D02*
X0200094Y0104019D01*
X0197800Y0103021D02*
X0147353Y0103021D01*
X0147732Y0102022D02*
X0196663Y0102022D01*
X0195933Y0101024D02*
X0147943Y0101024D01*
X0147906Y0099027D02*
X0195135Y0099027D01*
X0195441Y0100025D02*
X0142000Y0100025D01*
X0142000Y0101024D02*
X0141000Y0101024D01*
X0141000Y0102022D02*
X0142000Y0102022D01*
X0142000Y0103021D02*
X0141000Y0103021D01*
X0141000Y0104019D02*
X0142000Y0104019D01*
X0142000Y0105018D02*
X0141000Y0105018D01*
X0141000Y0106016D02*
X0142000Y0106016D01*
X0144363Y0106016D02*
X0296500Y0106016D01*
X0296500Y0107015D02*
X0006500Y0107015D01*
X0006500Y0108013D02*
X0296500Y0108013D01*
X0296500Y0109012D02*
X0205149Y0109012D01*
X0205104Y0108967D02*
X0210200Y0114063D01*
X0210200Y0121270D01*
X0205104Y0126367D01*
X0197896Y0126367D01*
X0192800Y0121270D01*
X0192800Y0114063D01*
X0197896Y0108967D01*
X0205104Y0108967D01*
X0206147Y0110010D02*
X0296500Y0110010D01*
X0296500Y0111009D02*
X0207146Y0111009D01*
X0208144Y0112007D02*
X0296500Y0112007D01*
X0296500Y0113006D02*
X0209143Y0113006D01*
X0210141Y0114004D02*
X0296500Y0114004D01*
X0296500Y0115003D02*
X0210200Y0115003D01*
X0210200Y0116001D02*
X0296500Y0116001D01*
X0296500Y0117000D02*
X0210200Y0117000D01*
X0210200Y0117998D02*
X0296500Y0117998D01*
X0296500Y0118997D02*
X0210200Y0118997D01*
X0210200Y0119995D02*
X0296500Y0119995D01*
X0296500Y0120994D02*
X0210200Y0120994D01*
X0209478Y0121992D02*
X0296500Y0121992D01*
X0296500Y0122991D02*
X0208479Y0122991D01*
X0207481Y0123990D02*
X0296500Y0123990D01*
X0296500Y0124988D02*
X0206482Y0124988D01*
X0205484Y0125987D02*
X0296500Y0125987D01*
X0296500Y0126985D02*
X0146985Y0126985D01*
X0145987Y0127984D02*
X0296500Y0127984D01*
X0296500Y0128982D02*
X0006500Y0128982D01*
X0006500Y0127984D02*
X0027013Y0127984D01*
X0027896Y0128867D02*
X0022800Y0123770D01*
X0022800Y0116563D01*
X0027896Y0111467D01*
X0035104Y0111467D01*
X0040200Y0116563D01*
X0040200Y0123770D01*
X0035104Y0128867D01*
X0027896Y0128867D01*
X0026015Y0126985D02*
X0006500Y0126985D01*
X0006500Y0125987D02*
X0025016Y0125987D01*
X0024018Y0124988D02*
X0006500Y0124988D01*
X0006500Y0123990D02*
X0023019Y0123990D01*
X0022800Y0122991D02*
X0006500Y0122991D01*
X0006500Y0121992D02*
X0022800Y0121992D01*
X0022800Y0120994D02*
X0006500Y0120994D01*
X0006500Y0119995D02*
X0022800Y0119995D01*
X0022800Y0118997D02*
X0006500Y0118997D01*
X0006500Y0117998D02*
X0022800Y0117998D01*
X0022800Y0117000D02*
X0006500Y0117000D01*
X0006500Y0116001D02*
X0023362Y0116001D01*
X0024360Y0115003D02*
X0006500Y0115003D01*
X0006500Y0114004D02*
X0025359Y0114004D01*
X0026357Y0113006D02*
X0006500Y0113006D01*
X0006500Y0112007D02*
X0027356Y0112007D01*
X0028637Y0106016D02*
X0006500Y0106016D01*
X0006500Y0105018D02*
X0027159Y0105018D01*
X0026263Y0104019D02*
X0006500Y0104019D01*
X0006500Y0103021D02*
X0025647Y0103021D01*
X0025268Y0102022D02*
X0006500Y0102022D01*
X0006500Y0101024D02*
X0025057Y0101024D01*
X0035644Y0112007D02*
X0137356Y0112007D01*
X0137896Y0111467D02*
X0145104Y0111467D01*
X0150200Y0116563D01*
X0150200Y0123770D01*
X0145104Y0128867D01*
X0137896Y0128867D01*
X0132800Y0123770D01*
X0132800Y0116563D01*
X0137896Y0111467D01*
X0136357Y0113006D02*
X0036643Y0113006D01*
X0037641Y0114004D02*
X0135359Y0114004D01*
X0134360Y0115003D02*
X0038640Y0115003D01*
X0039638Y0116001D02*
X0133362Y0116001D01*
X0132800Y0117000D02*
X0040200Y0117000D01*
X0040200Y0117998D02*
X0132800Y0117998D01*
X0132800Y0118997D02*
X0040200Y0118997D01*
X0040200Y0119995D02*
X0132800Y0119995D01*
X0132800Y0120994D02*
X0040200Y0120994D01*
X0040200Y0121992D02*
X0132800Y0121992D01*
X0132800Y0122991D02*
X0040200Y0122991D01*
X0039981Y0123990D02*
X0133019Y0123990D01*
X0134018Y0124988D02*
X0038982Y0124988D01*
X0037984Y0125987D02*
X0135016Y0125987D01*
X0136015Y0126985D02*
X0036985Y0126985D01*
X0035987Y0127984D02*
X0137013Y0127984D01*
X0147984Y0125987D02*
X0197516Y0125987D01*
X0196518Y0124988D02*
X0148982Y0124988D01*
X0149981Y0123990D02*
X0195519Y0123990D01*
X0194521Y0122991D02*
X0150200Y0122991D01*
X0150200Y0121992D02*
X0193522Y0121992D01*
X0192800Y0120994D02*
X0150200Y0120994D01*
X0150200Y0119995D02*
X0192800Y0119995D01*
X0192800Y0118997D02*
X0150200Y0118997D01*
X0150200Y0117998D02*
X0192800Y0117998D01*
X0192800Y0117000D02*
X0150200Y0117000D01*
X0149638Y0116001D02*
X0192800Y0116001D01*
X0192800Y0115003D02*
X0148640Y0115003D01*
X0147641Y0114004D02*
X0192859Y0114004D01*
X0193857Y0113006D02*
X0146643Y0113006D01*
X0145644Y0112007D02*
X0194856Y0112007D01*
X0195854Y0111009D02*
X0006500Y0111009D01*
X0006500Y0110010D02*
X0196853Y0110010D01*
X0197851Y0109012D02*
X0006500Y0109012D01*
X0006500Y0090040D02*
X0245004Y0090040D01*
X0246802Y0089042D02*
X0006500Y0089042D01*
X0006500Y0088043D02*
X0263820Y0088043D01*
X0264818Y0087045D02*
X0006500Y0087045D01*
X0006500Y0129981D02*
X0296500Y0129981D01*
X0296500Y0130979D02*
X0006500Y0130979D01*
X0006500Y0131978D02*
X0296500Y0131978D01*
X0296500Y0132976D02*
X0006500Y0132976D01*
X0006500Y0133975D02*
X0074495Y0133975D01*
X0074406Y0133998D02*
X0075229Y0133778D01*
X0076000Y0133676D01*
X0076000Y0139667D01*
X0070010Y0139667D01*
X0070111Y0138896D01*
X0070332Y0138073D01*
X0070658Y0137286D01*
X0071084Y0136548D01*
X0071603Y0135872D01*
X0072205Y0135269D01*
X0072881Y0134751D01*
X0073619Y0134324D01*
X0074406Y0133998D01*
X0076000Y0133975D02*
X0077000Y0133975D01*
X0077000Y0133676D02*
X0077771Y0133778D01*
X0078594Y0133998D01*
X0079381Y0134324D01*
X0080119Y0134751D01*
X0080795Y0135269D01*
X0081397Y0135872D01*
X0081916Y0136548D01*
X0082342Y0137286D01*
X0082668Y0138073D01*
X0082889Y0138896D01*
X0082990Y0139667D01*
X0077000Y0139667D01*
X0077000Y0140667D01*
X0076000Y0140667D01*
X0076000Y0146657D01*
X0075229Y0146555D01*
X0074406Y0146335D01*
X0073619Y0146009D01*
X0072881Y0145583D01*
X0072205Y0145064D01*
X0071603Y0144462D01*
X0071084Y0143786D01*
X0070658Y0143048D01*
X0070332Y0142260D01*
X0070111Y0141437D01*
X0070010Y0140667D01*
X0076000Y0140667D01*
X0076000Y0139667D01*
X0077000Y0139667D01*
X0077000Y0133676D01*
X0077000Y0134973D02*
X0076000Y0134973D01*
X0076000Y0135972D02*
X0077000Y0135972D01*
X0077000Y0136970D02*
X0076000Y0136970D01*
X0076000Y0137969D02*
X0077000Y0137969D01*
X0077000Y0138967D02*
X0076000Y0138967D01*
X0076000Y0139966D02*
X0006500Y0139966D01*
X0006500Y0140964D02*
X0070049Y0140964D01*
X0070252Y0141963D02*
X0006500Y0141963D01*
X0006500Y0142961D02*
X0070622Y0142961D01*
X0071217Y0143960D02*
X0006500Y0143960D01*
X0006500Y0144958D02*
X0072099Y0144958D01*
X0073529Y0145957D02*
X0014628Y0145957D01*
X0015627Y0146955D02*
X0159524Y0146955D01*
X0160523Y0145957D02*
X0079471Y0145957D01*
X0079381Y0146009D02*
X0078594Y0146335D01*
X0077771Y0146555D01*
X0077000Y0146657D01*
X0077000Y0140667D01*
X0082990Y0140667D01*
X0082889Y0141437D01*
X0082668Y0142260D01*
X0082342Y0143048D01*
X0081916Y0143786D01*
X0081397Y0144462D01*
X0080795Y0145064D01*
X0080119Y0145583D01*
X0079381Y0146009D01*
X0080901Y0144958D02*
X0213220Y0144958D01*
X0213023Y0145230D02*
X0213453Y0144637D01*
X0213971Y0144120D01*
X0214563Y0143690D01*
X0215215Y0143357D01*
X0215911Y0143131D01*
X0216634Y0143017D01*
X0216700Y0143017D01*
X0216700Y0147367D01*
X0212350Y0147367D01*
X0212350Y0147301D01*
X0212464Y0146578D01*
X0212691Y0145882D01*
X0213023Y0145230D01*
X0212666Y0145957D02*
X0166477Y0145957D01*
X0166337Y0145817D02*
X0170350Y0149829D01*
X0170350Y0155504D01*
X0166337Y0159517D01*
X0160663Y0159517D01*
X0156650Y0155504D01*
X0156650Y0149829D01*
X0160663Y0145817D01*
X0166337Y0145817D01*
X0167476Y0146955D02*
X0212405Y0146955D01*
X0212350Y0147967D02*
X0216700Y0147967D01*
X0216700Y0152317D01*
X0216634Y0152317D01*
X0215911Y0152202D01*
X0215215Y0151976D01*
X0214563Y0151644D01*
X0213971Y0151213D01*
X0213453Y0150696D01*
X0213023Y0150104D01*
X0212691Y0149452D01*
X0212464Y0148756D01*
X0212350Y0148033D01*
X0212350Y0147967D01*
X0212528Y0148952D02*
X0169473Y0148952D01*
X0170350Y0149951D02*
X0212945Y0149951D01*
X0213707Y0150949D02*
X0170350Y0150949D01*
X0170350Y0151948D02*
X0215160Y0151948D01*
X0216700Y0151948D02*
X0217300Y0151948D01*
X0217300Y0152317D02*
X0217366Y0152317D01*
X0218089Y0152202D01*
X0218785Y0151976D01*
X0219437Y0151644D01*
X0220029Y0151213D01*
X0220547Y0150696D01*
X0220977Y0150104D01*
X0221309Y0149452D01*
X0221535Y0148756D01*
X0221650Y0148033D01*
X0221650Y0147967D01*
X0217300Y0147967D01*
X0216700Y0147967D01*
X0216700Y0147367D01*
X0217300Y0147367D01*
X0217300Y0147967D01*
X0217300Y0152317D01*
X0217300Y0150949D02*
X0216700Y0150949D01*
X0216700Y0149951D02*
X0217300Y0149951D01*
X0217300Y0148952D02*
X0216700Y0148952D01*
X0216700Y0147954D02*
X0168474Y0147954D01*
X0170350Y0152946D02*
X0226592Y0152946D01*
X0225594Y0151948D02*
X0218840Y0151948D01*
X0220293Y0150949D02*
X0224595Y0150949D01*
X0224150Y0150504D02*
X0224150Y0144829D01*
X0228163Y0140817D01*
X0233837Y0140817D01*
X0237850Y0144829D01*
X0237850Y0150504D01*
X0233837Y0154517D01*
X0228163Y0154517D01*
X0224150Y0150504D01*
X0224150Y0149951D02*
X0221055Y0149951D01*
X0221472Y0148952D02*
X0224150Y0148952D01*
X0224150Y0147954D02*
X0217300Y0147954D01*
X0217300Y0147367D02*
X0221650Y0147367D01*
X0221650Y0147301D01*
X0221535Y0146578D01*
X0221309Y0145882D01*
X0220977Y0145230D01*
X0220547Y0144637D01*
X0220029Y0144120D01*
X0219437Y0143690D01*
X0218785Y0143357D01*
X0218089Y0143131D01*
X0217366Y0143017D01*
X0217300Y0143017D01*
X0217300Y0147367D01*
X0217300Y0146955D02*
X0216700Y0146955D01*
X0216700Y0145957D02*
X0217300Y0145957D01*
X0217300Y0144958D02*
X0216700Y0144958D01*
X0216700Y0143960D02*
X0217300Y0143960D01*
X0219809Y0143960D02*
X0225020Y0143960D01*
X0224150Y0144958D02*
X0220780Y0144958D01*
X0221334Y0145957D02*
X0224150Y0145957D01*
X0224150Y0146955D02*
X0221595Y0146955D01*
X0226018Y0142961D02*
X0082378Y0142961D01*
X0082748Y0141963D02*
X0227017Y0141963D01*
X0228015Y0140964D02*
X0082951Y0140964D01*
X0082898Y0138967D02*
X0245150Y0138967D01*
X0245150Y0137969D02*
X0082625Y0137969D01*
X0082160Y0136970D02*
X0245509Y0136970D01*
X0245150Y0137329D02*
X0249163Y0133317D01*
X0254837Y0133317D01*
X0258850Y0137329D01*
X0258850Y0143004D01*
X0254837Y0147017D01*
X0249163Y0147017D01*
X0245150Y0143004D01*
X0245150Y0137329D01*
X0246508Y0135972D02*
X0081474Y0135972D01*
X0080409Y0134973D02*
X0247506Y0134973D01*
X0248505Y0133975D02*
X0078505Y0133975D01*
X0072591Y0134973D02*
X0006500Y0134973D01*
X0006500Y0135972D02*
X0071526Y0135972D01*
X0070840Y0136970D02*
X0006500Y0136970D01*
X0006500Y0137969D02*
X0070375Y0137969D01*
X0070102Y0138967D02*
X0006500Y0138967D01*
X0006500Y0145957D02*
X0008372Y0145957D01*
X0007373Y0146955D02*
X0006500Y0146955D01*
X0006500Y0147954D02*
X0006800Y0147954D01*
X0006621Y0151948D02*
X0006500Y0151948D01*
X0006500Y0152946D02*
X0007035Y0152946D01*
X0006500Y0153945D02*
X0007940Y0153945D01*
X0006500Y0154943D02*
X0009473Y0154943D01*
X0006500Y0155942D02*
X0068421Y0155942D01*
X0067800Y0156563D02*
X0072896Y0151467D01*
X0080104Y0151467D01*
X0085200Y0156563D01*
X0085200Y0163770D01*
X0080104Y0168867D01*
X0072896Y0168867D01*
X0067800Y0163770D01*
X0067800Y0156563D01*
X0067800Y0156940D02*
X0006500Y0156940D01*
X0006500Y0157939D02*
X0067800Y0157939D01*
X0067800Y0158937D02*
X0006500Y0158937D01*
X0006500Y0159936D02*
X0067800Y0159936D01*
X0067800Y0160934D02*
X0006500Y0160934D01*
X0006500Y0161933D02*
X0067800Y0161933D01*
X0067800Y0162931D02*
X0006500Y0162931D01*
X0006500Y0163930D02*
X0067960Y0163930D01*
X0068958Y0164928D02*
X0006500Y0164928D01*
X0006500Y0165927D02*
X0069957Y0165927D01*
X0070955Y0166925D02*
X0006500Y0166925D01*
X0006500Y0167924D02*
X0071954Y0167924D01*
X0081046Y0167924D02*
X0296500Y0167924D01*
X0296500Y0168923D02*
X0006500Y0168923D01*
X0006500Y0169921D02*
X0296500Y0169921D01*
X0296500Y0170920D02*
X0006500Y0170920D01*
X0006500Y0171918D02*
X0197445Y0171918D01*
X0197896Y0171467D02*
X0205104Y0171467D01*
X0210200Y0176563D01*
X0210200Y0183770D01*
X0205104Y0188867D01*
X0197896Y0188867D01*
X0192800Y0183770D01*
X0192800Y0176563D01*
X0197896Y0171467D01*
X0196446Y0172917D02*
X0006500Y0172917D01*
X0006500Y0173915D02*
X0179717Y0173915D01*
X0179406Y0173998D02*
X0180229Y0173778D01*
X0181000Y0173676D01*
X0181000Y0179667D01*
X0175010Y0179667D01*
X0175111Y0178896D01*
X0175332Y0178073D01*
X0175658Y0177286D01*
X0176084Y0176548D01*
X0176603Y0175872D01*
X0177205Y0175269D01*
X0177881Y0174751D01*
X0178619Y0174324D01*
X0179406Y0173998D01*
X0181000Y0173915D02*
X0182000Y0173915D01*
X0182000Y0173676D02*
X0182771Y0173778D01*
X0183594Y0173998D01*
X0184381Y0174324D01*
X0185119Y0174751D01*
X0185795Y0175269D01*
X0186397Y0175872D01*
X0186916Y0176548D01*
X0187342Y0177286D01*
X0187668Y0178073D01*
X0187889Y0178896D01*
X0187990Y0179667D01*
X0182000Y0179667D01*
X0182000Y0180667D01*
X0181000Y0180667D01*
X0181000Y0186657D01*
X0180229Y0186555D01*
X0179406Y0186335D01*
X0178619Y0186009D01*
X0177881Y0185583D01*
X0177205Y0185064D01*
X0176603Y0184462D01*
X0176084Y0183786D01*
X0175658Y0183048D01*
X0175332Y0182260D01*
X0175111Y0181437D01*
X0175010Y0180667D01*
X0181000Y0180667D01*
X0181000Y0179667D01*
X0182000Y0179667D01*
X0182000Y0173676D01*
X0182000Y0174914D02*
X0181000Y0174914D01*
X0181000Y0175912D02*
X0182000Y0175912D01*
X0182000Y0176911D02*
X0181000Y0176911D01*
X0181000Y0177909D02*
X0182000Y0177909D01*
X0182000Y0178908D02*
X0181000Y0178908D01*
X0181000Y0179906D02*
X0121043Y0179906D01*
X0120104Y0178967D02*
X0125200Y0184063D01*
X0125200Y0191270D01*
X0120104Y0196367D01*
X0112896Y0196367D01*
X0107800Y0191270D01*
X0107800Y0184063D01*
X0112896Y0178967D01*
X0120104Y0178967D01*
X0122042Y0180905D02*
X0175041Y0180905D01*
X0175236Y0181903D02*
X0139517Y0181903D01*
X0139381Y0181824D02*
X0140119Y0182251D01*
X0140795Y0182769D01*
X0141397Y0183372D01*
X0141916Y0184048D01*
X0142342Y0184786D01*
X0142668Y0185573D01*
X0142889Y0186396D01*
X0142990Y0187167D01*
X0137000Y0187167D01*
X0137000Y0188167D01*
X0136000Y0188167D01*
X0136000Y0194157D01*
X0135229Y0194055D01*
X0134406Y0193835D01*
X0133619Y0193509D01*
X0132881Y0193083D01*
X0132205Y0192564D01*
X0131603Y0191962D01*
X0131084Y0191286D01*
X0130658Y0190548D01*
X0130332Y0189760D01*
X0130111Y0188937D01*
X0130010Y0188167D01*
X0136000Y0188167D01*
X0136000Y0187167D01*
X0130010Y0187167D01*
X0130111Y0186396D01*
X0130332Y0185573D01*
X0130658Y0184786D01*
X0131084Y0184048D01*
X0131603Y0183372D01*
X0132205Y0182769D01*
X0132881Y0182251D01*
X0133619Y0181824D01*
X0134406Y0181498D01*
X0135229Y0181278D01*
X0136000Y0181176D01*
X0136000Y0187167D01*
X0137000Y0187167D01*
X0137000Y0181176D01*
X0137771Y0181278D01*
X0138594Y0181498D01*
X0139381Y0181824D01*
X0140927Y0182902D02*
X0175597Y0182902D01*
X0176172Y0183900D02*
X0141803Y0183900D01*
X0142389Y0184899D02*
X0177040Y0184899D01*
X0178426Y0185897D02*
X0142755Y0185897D01*
X0142955Y0186896D02*
X0195925Y0186896D01*
X0194927Y0185897D02*
X0184574Y0185897D01*
X0184381Y0186009D02*
X0183594Y0186335D01*
X0182771Y0186555D01*
X0182000Y0186657D01*
X0182000Y0180667D01*
X0187990Y0180667D01*
X0187889Y0181437D01*
X0187668Y0182260D01*
X0187342Y0183048D01*
X0186916Y0183786D01*
X0186397Y0184462D01*
X0185795Y0185064D01*
X0185119Y0185583D01*
X0184381Y0186009D01*
X0185960Y0184899D02*
X0193928Y0184899D01*
X0192930Y0183900D02*
X0186828Y0183900D01*
X0187403Y0182902D02*
X0192800Y0182902D01*
X0192800Y0181903D02*
X0187764Y0181903D01*
X0187959Y0180905D02*
X0192800Y0180905D01*
X0192800Y0179906D02*
X0182000Y0179906D01*
X0182000Y0180905D02*
X0181000Y0180905D01*
X0181000Y0181903D02*
X0182000Y0181903D01*
X0182000Y0182902D02*
X0181000Y0182902D01*
X0181000Y0183900D02*
X0182000Y0183900D01*
X0182000Y0184899D02*
X0181000Y0184899D01*
X0181000Y0185897D02*
X0182000Y0185897D01*
X0187890Y0178908D02*
X0192800Y0178908D01*
X0192800Y0177909D02*
X0187600Y0177909D01*
X0187126Y0176911D02*
X0192800Y0176911D01*
X0193451Y0175912D02*
X0186428Y0175912D01*
X0185331Y0174914D02*
X0194449Y0174914D01*
X0195448Y0173915D02*
X0183283Y0173915D01*
X0177669Y0174914D02*
X0006500Y0174914D01*
X0006500Y0175912D02*
X0008416Y0175912D01*
X0007418Y0176911D02*
X0006500Y0176911D01*
X0006500Y0177909D02*
X0006819Y0177909D01*
X0006603Y0181903D02*
X0006500Y0181903D01*
X0006500Y0182902D02*
X0007016Y0182902D01*
X0006500Y0183900D02*
X0007895Y0183900D01*
X0006500Y0184899D02*
X0009365Y0184899D01*
X0006500Y0185897D02*
X0107800Y0185897D01*
X0107800Y0184899D02*
X0013635Y0184899D01*
X0015105Y0183900D02*
X0107963Y0183900D01*
X0108961Y0182902D02*
X0015984Y0182902D01*
X0016397Y0181903D02*
X0109960Y0181903D01*
X0110958Y0180905D02*
X0016689Y0180905D01*
X0016689Y0179906D02*
X0111957Y0179906D01*
X0107800Y0186896D02*
X0006500Y0186896D01*
X0006500Y0187894D02*
X0107800Y0187894D01*
X0107800Y0188893D02*
X0006500Y0188893D01*
X0006500Y0189891D02*
X0009133Y0189891D01*
X0007603Y0190890D02*
X0006500Y0190890D01*
X0006500Y0191888D02*
X0006605Y0191888D01*
X0013867Y0189891D02*
X0107800Y0189891D01*
X0107800Y0190890D02*
X0077410Y0190890D01*
X0078409Y0191888D02*
X0108418Y0191888D01*
X0109416Y0192887D02*
X0079407Y0192887D01*
X0080406Y0193885D02*
X0085794Y0193885D01*
X0084774Y0194884D02*
X0081350Y0194884D01*
X0081350Y0195882D02*
X0084190Y0195882D01*
X0083916Y0196881D02*
X0081350Y0196881D01*
X0081350Y0197879D02*
X0088200Y0197879D01*
X0088800Y0197879D02*
X0286368Y0197879D01*
X0285954Y0196881D02*
X0093083Y0196881D01*
X0093035Y0196578D02*
X0093150Y0197301D01*
X0093150Y0197367D01*
X0088800Y0197367D01*
X0088800Y0193017D01*
X0088866Y0193017D01*
X0089589Y0193131D01*
X0090285Y0193357D01*
X0090937Y0193690D01*
X0091529Y0194120D01*
X0092047Y0194637D01*
X0092477Y0195230D01*
X0092809Y0195882D01*
X0093035Y0196578D01*
X0092810Y0195882D02*
X0112412Y0195882D01*
X0111414Y0194884D02*
X0092226Y0194884D01*
X0091206Y0193885D02*
X0110415Y0193885D01*
X0120588Y0195882D02*
X0285720Y0195882D01*
X0285720Y0194884D02*
X0121586Y0194884D01*
X0122585Y0193885D02*
X0134594Y0193885D01*
X0136000Y0193885D02*
X0137000Y0193885D01*
X0137000Y0194157D02*
X0137771Y0194055D01*
X0138594Y0193835D01*
X0139381Y0193509D01*
X0140119Y0193083D01*
X0140795Y0192564D01*
X0141397Y0191962D01*
X0141916Y0191286D01*
X0142342Y0190548D01*
X0142668Y0189760D01*
X0142889Y0188937D01*
X0142990Y0188167D01*
X0137000Y0188167D01*
X0137000Y0194157D01*
X0137000Y0192887D02*
X0136000Y0192887D01*
X0136000Y0191888D02*
X0137000Y0191888D01*
X0137000Y0190890D02*
X0136000Y0190890D01*
X0136000Y0189891D02*
X0137000Y0189891D01*
X0137000Y0188893D02*
X0136000Y0188893D01*
X0136000Y0187894D02*
X0125200Y0187894D01*
X0125200Y0186896D02*
X0130045Y0186896D01*
X0130245Y0185897D02*
X0125200Y0185897D01*
X0125200Y0184899D02*
X0130611Y0184899D01*
X0131197Y0183900D02*
X0125037Y0183900D01*
X0124039Y0182902D02*
X0132073Y0182902D01*
X0133483Y0181903D02*
X0123040Y0181903D01*
X0125200Y0188893D02*
X0130105Y0188893D01*
X0130386Y0189891D02*
X0125200Y0189891D01*
X0125200Y0190890D02*
X0130855Y0190890D01*
X0131546Y0191888D02*
X0124582Y0191888D01*
X0123584Y0192887D02*
X0132626Y0192887D01*
X0138406Y0193885D02*
X0285775Y0193885D01*
X0286189Y0192887D02*
X0266084Y0192887D01*
X0265104Y0193867D02*
X0257896Y0193867D01*
X0252800Y0188770D01*
X0252800Y0181563D01*
X0257896Y0176467D01*
X0265104Y0176467D01*
X0270200Y0181563D01*
X0270200Y0188770D01*
X0265104Y0193867D01*
X0267082Y0191888D02*
X0286605Y0191888D01*
X0287603Y0190890D02*
X0268081Y0190890D01*
X0269079Y0189891D02*
X0289133Y0189891D01*
X0293867Y0189891D02*
X0296500Y0189891D01*
X0296500Y0188893D02*
X0270078Y0188893D01*
X0270200Y0187894D02*
X0296500Y0187894D01*
X0296500Y0186896D02*
X0270200Y0186896D01*
X0270200Y0185897D02*
X0296500Y0185897D01*
X0296500Y0184899D02*
X0293635Y0184899D01*
X0295105Y0183900D02*
X0296500Y0183900D01*
X0296500Y0182902D02*
X0295984Y0182902D01*
X0296397Y0181903D02*
X0296500Y0181903D01*
X0296500Y0177909D02*
X0296181Y0177909D01*
X0296500Y0176911D02*
X0295582Y0176911D01*
X0296500Y0175912D02*
X0294584Y0175912D01*
X0296500Y0174914D02*
X0208551Y0174914D01*
X0209549Y0175912D02*
X0288416Y0175912D01*
X0287418Y0176911D02*
X0265548Y0176911D01*
X0266546Y0177909D02*
X0286819Y0177909D01*
X0286405Y0178908D02*
X0267545Y0178908D01*
X0268543Y0179906D02*
X0286311Y0179906D01*
X0286311Y0180905D02*
X0269542Y0180905D01*
X0270200Y0181903D02*
X0286603Y0181903D01*
X0287016Y0182902D02*
X0270200Y0182902D01*
X0270200Y0183900D02*
X0287895Y0183900D01*
X0289365Y0184899D02*
X0270200Y0184899D01*
X0257452Y0176911D02*
X0210200Y0176911D01*
X0210200Y0177909D02*
X0256454Y0177909D01*
X0255455Y0178908D02*
X0243255Y0178908D01*
X0243594Y0178998D02*
X0244381Y0179324D01*
X0245119Y0179751D01*
X0245795Y0180269D01*
X0246397Y0180872D01*
X0246916Y0181548D01*
X0247342Y0182286D01*
X0247668Y0183073D01*
X0247889Y0183896D01*
X0247990Y0184667D01*
X0242000Y0184667D01*
X0242000Y0185667D01*
X0241000Y0185667D01*
X0241000Y0191657D01*
X0240229Y0191555D01*
X0239406Y0191335D01*
X0238619Y0191009D01*
X0237881Y0190583D01*
X0237205Y0190064D01*
X0236603Y0189462D01*
X0236084Y0188786D01*
X0235658Y0188048D01*
X0235332Y0187260D01*
X0235111Y0186437D01*
X0235010Y0185667D01*
X0241000Y0185667D01*
X0241000Y0184667D01*
X0235010Y0184667D01*
X0235111Y0183896D01*
X0235332Y0183073D01*
X0235658Y0182286D01*
X0236084Y0181548D01*
X0236603Y0180872D01*
X0237205Y0180269D01*
X0237881Y0179751D01*
X0238619Y0179324D01*
X0239406Y0178998D01*
X0240229Y0178778D01*
X0241000Y0178676D01*
X0241000Y0184667D01*
X0242000Y0184667D01*
X0242000Y0178676D01*
X0242771Y0178778D01*
X0243594Y0178998D01*
X0242000Y0178908D02*
X0241000Y0178908D01*
X0241000Y0179906D02*
X0242000Y0179906D01*
X0242000Y0180905D02*
X0241000Y0180905D01*
X0241000Y0181903D02*
X0242000Y0181903D01*
X0242000Y0182902D02*
X0241000Y0182902D01*
X0241000Y0183900D02*
X0242000Y0183900D01*
X0242000Y0184899D02*
X0252800Y0184899D01*
X0252800Y0185897D02*
X0247960Y0185897D01*
X0247990Y0185667D02*
X0247889Y0186437D01*
X0247668Y0187260D01*
X0247342Y0188048D01*
X0246916Y0188786D01*
X0246397Y0189462D01*
X0245795Y0190064D01*
X0245119Y0190583D01*
X0244381Y0191009D01*
X0243594Y0191335D01*
X0242771Y0191555D01*
X0242000Y0191657D01*
X0242000Y0185667D01*
X0247990Y0185667D01*
X0247766Y0186896D02*
X0252800Y0186896D01*
X0252800Y0187894D02*
X0247406Y0187894D01*
X0246834Y0188893D02*
X0252922Y0188893D01*
X0253921Y0189891D02*
X0245968Y0189891D01*
X0244587Y0190890D02*
X0254919Y0190890D01*
X0255918Y0191888D02*
X0141454Y0191888D01*
X0142145Y0190890D02*
X0238413Y0190890D01*
X0237032Y0189891D02*
X0142614Y0189891D01*
X0142895Y0188893D02*
X0236166Y0188893D01*
X0235594Y0187894D02*
X0206076Y0187894D01*
X0207075Y0186896D02*
X0235234Y0186896D01*
X0235040Y0185897D02*
X0208073Y0185897D01*
X0209072Y0184899D02*
X0241000Y0184899D01*
X0241000Y0185897D02*
X0242000Y0185897D01*
X0242000Y0186896D02*
X0241000Y0186896D01*
X0241000Y0187894D02*
X0242000Y0187894D01*
X0242000Y0188893D02*
X0241000Y0188893D01*
X0241000Y0189891D02*
X0242000Y0189891D01*
X0242000Y0190890D02*
X0241000Y0190890D01*
X0235111Y0183900D02*
X0210070Y0183900D01*
X0210200Y0182902D02*
X0235403Y0182902D01*
X0235879Y0181903D02*
X0210200Y0181903D01*
X0210200Y0180905D02*
X0236577Y0180905D01*
X0237678Y0179906D02*
X0210200Y0179906D01*
X0210200Y0178908D02*
X0239745Y0178908D01*
X0245322Y0179906D02*
X0254457Y0179906D01*
X0253458Y0180905D02*
X0246423Y0180905D01*
X0247121Y0181903D02*
X0252800Y0181903D01*
X0252800Y0182902D02*
X0247597Y0182902D01*
X0247889Y0183900D02*
X0252800Y0183900D01*
X0256916Y0192887D02*
X0140374Y0192887D01*
X0137000Y0187894D02*
X0196924Y0187894D01*
X0207552Y0173915D02*
X0296500Y0173915D01*
X0296500Y0172917D02*
X0206554Y0172917D01*
X0205555Y0171918D02*
X0296500Y0171918D01*
X0296500Y0166925D02*
X0082045Y0166925D01*
X0083043Y0165927D02*
X0296500Y0165927D01*
X0296500Y0164928D02*
X0084042Y0164928D01*
X0085040Y0163930D02*
X0296500Y0163930D01*
X0296500Y0162931D02*
X0085200Y0162931D01*
X0085200Y0161933D02*
X0296500Y0161933D01*
X0296500Y0160934D02*
X0085200Y0160934D01*
X0085200Y0159936D02*
X0296500Y0159936D01*
X0296500Y0158937D02*
X0166917Y0158937D01*
X0167915Y0157939D02*
X0296500Y0157939D01*
X0296500Y0156940D02*
X0168914Y0156940D01*
X0169912Y0155942D02*
X0296500Y0155942D01*
X0296500Y0154943D02*
X0293527Y0154943D01*
X0295060Y0153945D02*
X0296500Y0153945D01*
X0296500Y0152946D02*
X0295965Y0152946D01*
X0296379Y0151948D02*
X0296500Y0151948D01*
X0296500Y0147954D02*
X0296200Y0147954D01*
X0296500Y0146955D02*
X0295627Y0146955D01*
X0296500Y0145957D02*
X0294628Y0145957D01*
X0296500Y0144958D02*
X0256896Y0144958D01*
X0257894Y0143960D02*
X0263310Y0143960D01*
X0263563Y0144144D02*
X0262971Y0143713D01*
X0262453Y0143196D01*
X0262023Y0142604D01*
X0261691Y0141952D01*
X0261464Y0141256D01*
X0261350Y0140533D01*
X0261350Y0140467D01*
X0265700Y0140467D01*
X0265700Y0144817D01*
X0265634Y0144817D01*
X0264911Y0144702D01*
X0264215Y0144476D01*
X0263563Y0144144D01*
X0262283Y0142961D02*
X0258850Y0142961D01*
X0258850Y0141963D02*
X0261696Y0141963D01*
X0261418Y0140964D02*
X0258850Y0140964D01*
X0258850Y0139966D02*
X0265700Y0139966D01*
X0265700Y0139867D02*
X0261350Y0139867D01*
X0261350Y0139801D01*
X0261464Y0139078D01*
X0261691Y0138382D01*
X0262023Y0137730D01*
X0262453Y0137137D01*
X0262971Y0136620D01*
X0263563Y0136190D01*
X0264215Y0135857D01*
X0264911Y0135631D01*
X0265634Y0135517D01*
X0265700Y0135517D01*
X0265700Y0139867D01*
X0265700Y0140467D01*
X0266300Y0140467D01*
X0266300Y0144817D01*
X0266366Y0144817D01*
X0267089Y0144702D01*
X0267785Y0144476D01*
X0268437Y0144144D01*
X0269029Y0143713D01*
X0269547Y0143196D01*
X0269977Y0142604D01*
X0270309Y0141952D01*
X0270535Y0141256D01*
X0270650Y0140533D01*
X0270650Y0140467D01*
X0266300Y0140467D01*
X0266300Y0139867D01*
X0270650Y0139867D01*
X0270650Y0139801D01*
X0270535Y0139078D01*
X0270309Y0138382D01*
X0269977Y0137730D01*
X0269547Y0137137D01*
X0269029Y0136620D01*
X0268437Y0136190D01*
X0267785Y0135857D01*
X0267089Y0135631D01*
X0266366Y0135517D01*
X0266300Y0135517D01*
X0266300Y0139867D01*
X0265700Y0139867D01*
X0266300Y0139966D02*
X0296500Y0139966D01*
X0296500Y0140964D02*
X0270582Y0140964D01*
X0270304Y0141963D02*
X0296500Y0141963D01*
X0296500Y0142961D02*
X0269717Y0142961D01*
X0268690Y0143960D02*
X0296500Y0143960D01*
X0296500Y0138967D02*
X0270500Y0138967D01*
X0270099Y0137969D02*
X0296500Y0137969D01*
X0296500Y0136970D02*
X0269380Y0136970D01*
X0268009Y0135972D02*
X0296500Y0135972D01*
X0296500Y0134973D02*
X0256494Y0134973D01*
X0257492Y0135972D02*
X0263991Y0135972D01*
X0262620Y0136970D02*
X0258491Y0136970D01*
X0258850Y0137969D02*
X0261901Y0137969D01*
X0261500Y0138967D02*
X0258850Y0138967D01*
X0265700Y0138967D02*
X0266300Y0138967D01*
X0266300Y0137969D02*
X0265700Y0137969D01*
X0265700Y0136970D02*
X0266300Y0136970D01*
X0266300Y0135972D02*
X0265700Y0135972D01*
X0265700Y0140964D02*
X0266300Y0140964D01*
X0266300Y0141963D02*
X0265700Y0141963D01*
X0265700Y0142961D02*
X0266300Y0142961D01*
X0266300Y0143960D02*
X0265700Y0143960D01*
X0255897Y0145957D02*
X0288372Y0145957D01*
X0287373Y0146955D02*
X0254899Y0146955D01*
X0249101Y0146955D02*
X0237850Y0146955D01*
X0237850Y0145957D02*
X0248103Y0145957D01*
X0247104Y0144958D02*
X0237850Y0144958D01*
X0236980Y0143960D02*
X0246106Y0143960D01*
X0245150Y0142961D02*
X0235982Y0142961D01*
X0234983Y0141963D02*
X0245150Y0141963D01*
X0245150Y0140964D02*
X0233985Y0140964D01*
X0237850Y0147954D02*
X0286800Y0147954D01*
X0286386Y0148952D02*
X0237850Y0148952D01*
X0237850Y0149951D02*
X0286311Y0149951D01*
X0286311Y0150949D02*
X0237405Y0150949D01*
X0236406Y0151948D02*
X0286621Y0151948D01*
X0287035Y0152946D02*
X0235408Y0152946D01*
X0234409Y0153945D02*
X0287940Y0153945D01*
X0289473Y0154943D02*
X0170350Y0154943D01*
X0170350Y0153945D02*
X0227591Y0153945D01*
X0214191Y0143960D02*
X0081783Y0143960D01*
X0077000Y0143960D02*
X0076000Y0143960D01*
X0076000Y0144958D02*
X0077000Y0144958D01*
X0077000Y0145957D02*
X0076000Y0145957D01*
X0076000Y0142961D02*
X0077000Y0142961D01*
X0077000Y0141963D02*
X0076000Y0141963D01*
X0076000Y0140964D02*
X0077000Y0140964D01*
X0077000Y0139966D02*
X0245150Y0139966D01*
X0255495Y0133975D02*
X0296500Y0133975D01*
X0249500Y0101024D02*
X0248500Y0101024D01*
X0248500Y0100025D02*
X0249500Y0100025D01*
X0249500Y0099027D02*
X0248500Y0099027D01*
X0248500Y0098028D02*
X0249500Y0098028D01*
X0249500Y0097030D02*
X0248500Y0097030D01*
X0278318Y0073065D02*
X0105165Y0073065D01*
X0106903Y0072067D02*
X0277319Y0072067D01*
X0276321Y0071068D02*
X0107902Y0071068D01*
X0108875Y0070095D02*
X0108875Y0070095D01*
X0108900Y0070070D02*
X0275322Y0070070D01*
X0274324Y0069071D02*
X0109899Y0069071D01*
X0110897Y0068073D02*
X0273325Y0068073D01*
X0272636Y0067074D02*
X0111896Y0067074D01*
X0112894Y0066076D02*
X0272222Y0066076D01*
X0272200Y0065077D02*
X0113893Y0065077D01*
X0114891Y0064079D02*
X0272200Y0064079D01*
X0272200Y0063080D02*
X0115890Y0063080D01*
X0116888Y0062082D02*
X0272200Y0062082D01*
X0272200Y0061083D02*
X0117887Y0061083D01*
X0118886Y0060085D02*
X0272200Y0060085D01*
X0272200Y0059086D02*
X0119884Y0059086D01*
X0120883Y0058088D02*
X0272200Y0058088D01*
X0272200Y0057089D02*
X0121881Y0057089D01*
X0122880Y0056091D02*
X0272200Y0056091D01*
X0272200Y0055092D02*
X0123878Y0055092D01*
X0124877Y0054094D02*
X0272200Y0054094D01*
X0272200Y0053095D02*
X0125875Y0053095D01*
X0126874Y0052097D02*
X0272200Y0052097D01*
X0272200Y0051098D02*
X0127872Y0051098D01*
X0128871Y0050100D02*
X0272200Y0050100D01*
X0272200Y0049101D02*
X0129869Y0049101D01*
X0130868Y0048103D02*
X0272200Y0048103D01*
X0272200Y0047104D02*
X0131866Y0047104D01*
X0132865Y0046106D02*
X0272200Y0046106D01*
X0272200Y0045107D02*
X0133863Y0045107D01*
X0134862Y0044109D02*
X0272200Y0044109D01*
X0272200Y0043110D02*
X0135860Y0043110D01*
X0136859Y0042112D02*
X0272200Y0042112D01*
X0272200Y0041113D02*
X0137857Y0041113D01*
X0138856Y0040115D02*
X0272200Y0040115D01*
X0272200Y0039116D02*
X0139854Y0039116D01*
X0140853Y0038118D02*
X0272200Y0038118D01*
X0272200Y0037119D02*
X0141851Y0037119D01*
X0142850Y0036121D02*
X0272200Y0036121D01*
X0272200Y0035122D02*
X0143848Y0035122D01*
X0144847Y0034123D02*
X0272200Y0034123D01*
X0272200Y0033125D02*
X0210021Y0033125D01*
X0211844Y0032126D02*
X0272200Y0032126D01*
X0272200Y0031128D02*
X0212842Y0031128D01*
X0213841Y0030129D02*
X0272200Y0030129D01*
X0272200Y0029131D02*
X0214275Y0029131D01*
X0214688Y0028132D02*
X0272200Y0028132D01*
X0272200Y0027134D02*
X0215102Y0027134D01*
X0215200Y0026135D02*
X0271388Y0026135D01*
X0269940Y0025137D02*
X0253060Y0025137D01*
X0249940Y0025137D02*
X0215200Y0025137D01*
X0215200Y0024138D02*
X0248133Y0024138D01*
X0247135Y0023140D02*
X0215200Y0023140D01*
X0215200Y0022141D02*
X0246701Y0022141D01*
X0246311Y0021143D02*
X0215200Y0021143D01*
X0215200Y0020144D02*
X0246311Y0020144D01*
X0246311Y0019146D02*
X0215200Y0019146D01*
X0215200Y0018147D02*
X0246720Y0018147D01*
X0247180Y0017149D02*
X0215200Y0017149D01*
X0215200Y0016150D02*
X0248178Y0016150D01*
X0250048Y0015152D02*
X0215200Y0015152D01*
X0215200Y0014153D02*
X0261432Y0014153D01*
X0260434Y0015152D02*
X0252952Y0015152D01*
X0262431Y0013155D02*
X0215083Y0013155D01*
X0214670Y0012156D02*
X0263429Y0012156D01*
X0264942Y0011158D02*
X0214256Y0011158D01*
X0263148Y0024138D02*
X0268133Y0024138D01*
X0267135Y0023140D02*
X0264608Y0023140D01*
X0265606Y0022141D02*
X0266701Y0022141D01*
X0202000Y0092037D02*
X0201000Y0092037D01*
X0201000Y0093036D02*
X0202000Y0093036D01*
X0202000Y0094034D02*
X0201000Y0094034D01*
X0201000Y0095033D02*
X0202000Y0095033D01*
X0202000Y0096031D02*
X0201000Y0096031D01*
X0201000Y0099027D02*
X0202000Y0099027D01*
X0202000Y0100025D02*
X0201000Y0100025D01*
X0158526Y0147954D02*
X0016200Y0147954D01*
X0016613Y0148952D02*
X0146701Y0148952D01*
X0146471Y0149120D02*
X0147063Y0148690D01*
X0147715Y0148357D01*
X0148411Y0148131D01*
X0149134Y0148017D01*
X0149200Y0148017D01*
X0149200Y0152367D01*
X0144850Y0152367D01*
X0144850Y0152301D01*
X0144964Y0151578D01*
X0145191Y0150882D01*
X0145523Y0150230D01*
X0145953Y0149637D01*
X0146471Y0149120D01*
X0145725Y0149951D02*
X0016689Y0149951D01*
X0016689Y0150949D02*
X0145169Y0150949D01*
X0144906Y0151948D02*
X0080585Y0151948D01*
X0081583Y0152946D02*
X0149200Y0152946D01*
X0149200Y0152967D02*
X0149200Y0152367D01*
X0149800Y0152367D01*
X0149800Y0152967D01*
X0149200Y0152967D01*
X0149200Y0157317D01*
X0149134Y0157317D01*
X0148411Y0157202D01*
X0147715Y0156976D01*
X0147063Y0156644D01*
X0146471Y0156213D01*
X0145953Y0155696D01*
X0145523Y0155104D01*
X0145191Y0154452D01*
X0144964Y0153756D01*
X0144850Y0153033D01*
X0144850Y0152967D01*
X0149200Y0152967D01*
X0149800Y0152967D02*
X0149800Y0157317D01*
X0149866Y0157317D01*
X0150589Y0157202D01*
X0151285Y0156976D01*
X0151937Y0156644D01*
X0152529Y0156213D01*
X0153047Y0155696D01*
X0153477Y0155104D01*
X0153809Y0154452D01*
X0154035Y0153756D01*
X0154150Y0153033D01*
X0154150Y0152967D01*
X0149800Y0152967D01*
X0149800Y0152946D02*
X0156650Y0152946D01*
X0156650Y0151948D02*
X0154094Y0151948D01*
X0154150Y0152301D02*
X0154150Y0152367D01*
X0149800Y0152367D01*
X0149800Y0148017D01*
X0149866Y0148017D01*
X0150589Y0148131D01*
X0151285Y0148357D01*
X0151937Y0148690D01*
X0152529Y0149120D01*
X0153047Y0149637D01*
X0153477Y0150230D01*
X0153809Y0150882D01*
X0154035Y0151578D01*
X0154150Y0152301D01*
X0153831Y0150949D02*
X0156650Y0150949D01*
X0156650Y0149951D02*
X0153275Y0149951D01*
X0152299Y0148952D02*
X0157527Y0148952D01*
X0156650Y0153945D02*
X0153974Y0153945D01*
X0153559Y0154943D02*
X0156650Y0154943D01*
X0157088Y0155942D02*
X0152801Y0155942D01*
X0151355Y0156940D02*
X0158086Y0156940D01*
X0159085Y0157939D02*
X0085200Y0157939D01*
X0085200Y0158937D02*
X0160083Y0158937D01*
X0149800Y0156940D02*
X0149200Y0156940D01*
X0149200Y0155942D02*
X0149800Y0155942D01*
X0149800Y0154943D02*
X0149200Y0154943D01*
X0149200Y0153945D02*
X0149800Y0153945D01*
X0149800Y0151948D02*
X0149200Y0151948D01*
X0149200Y0150949D02*
X0149800Y0150949D01*
X0149800Y0149951D02*
X0149200Y0149951D01*
X0149200Y0148952D02*
X0149800Y0148952D01*
X0145026Y0153945D02*
X0082582Y0153945D01*
X0083580Y0154943D02*
X0145441Y0154943D01*
X0146199Y0155942D02*
X0084579Y0155942D01*
X0085200Y0156940D02*
X0147645Y0156940D01*
X0176572Y0175912D02*
X0014584Y0175912D01*
X0015582Y0176911D02*
X0175874Y0176911D01*
X0175400Y0177909D02*
X0016181Y0177909D01*
X0016595Y0178908D02*
X0175110Y0178908D01*
X0137000Y0181903D02*
X0136000Y0181903D01*
X0136000Y0182902D02*
X0137000Y0182902D01*
X0137000Y0183900D02*
X0136000Y0183900D01*
X0136000Y0184899D02*
X0137000Y0184899D01*
X0137000Y0185897D02*
X0136000Y0185897D01*
X0136000Y0186896D02*
X0137000Y0186896D01*
X0092996Y0198878D02*
X0287038Y0198878D01*
X0288036Y0199876D02*
X0092593Y0199876D01*
X0088800Y0196881D02*
X0088200Y0196881D01*
X0088200Y0195882D02*
X0088800Y0195882D01*
X0088800Y0194884D02*
X0088200Y0194884D01*
X0088200Y0193885D02*
X0088800Y0193885D01*
X0084004Y0198878D02*
X0081350Y0198878D01*
X0081350Y0199876D02*
X0084407Y0199876D01*
X0071590Y0190890D02*
X0015397Y0190890D01*
X0016395Y0191888D02*
X0070591Y0191888D01*
X0069593Y0192887D02*
X0016811Y0192887D01*
X0017225Y0193885D02*
X0068594Y0193885D01*
X0067650Y0194884D02*
X0017280Y0194884D01*
X0017280Y0195882D02*
X0067650Y0195882D01*
X0067650Y0196881D02*
X0017046Y0196881D01*
X0016632Y0197879D02*
X0067650Y0197879D01*
X0067650Y0198878D02*
X0015962Y0198878D01*
X0014964Y0199876D02*
X0067650Y0199876D01*
X0069420Y0154943D02*
X0013527Y0154943D01*
X0015060Y0153945D02*
X0070418Y0153945D01*
X0071417Y0152946D02*
X0015965Y0152946D01*
X0016379Y0151948D02*
X0072415Y0151948D01*
X0295397Y0190890D02*
X0296500Y0190890D01*
X0296500Y0191888D02*
X0296395Y0191888D01*
M02*
