%
M48
M72
T01C0.01378
T02C0.02559
T03C0.03200
T04C0.04000
T05C0.12500
%
T01
X290000Y145000
X290000Y175000
X10000Y145000
X10000Y175000
X290000Y25000
X290000Y55000
X10000Y30000
X10000Y60000
X275000Y10000
X250000Y15000
X205000Y20000
X205000Y10000
X140000Y20000
X140000Y10000
X140000Y15000
X205000Y15000
X85000Y60000
X25000Y55000
X35000Y50000
X25000Y45000
X25000Y35000
X35000Y40000
X85000Y55000
X85000Y50000
X270000Y15000
T02
X10000Y10000
X290000Y10000
X290000Y190000
X10000Y190000
T03
X162000Y147500
X148000Y147500
X250500Y135000
X264500Y135000
X50000Y72000
X50000Y58000
X229500Y142500
X215500Y142500
X73000Y192500
X87000Y192500
T04
X290000Y75000
X40000Y10000
X140000Y95000
X140000Y115000
X75000Y135000
X75000Y155000
X135000Y182500
X115000Y182500
X200000Y92500
X200000Y112500
X30000Y95000
X30000Y115000
X247500Y90000
X267500Y90000
X180000Y175000
X200000Y175000
X240000Y180000
X260000Y180000
T05
X285000Y40000
X20000Y45000
X280000Y160000
X20000Y160000
M30
