G75*
%MOIN*%
%OFA0B0*%
%FSLAX25Y25*%
%IPPOS*%
%LPD*%
%AMOC8*
5,1,8,0,0,1.08239X$1,22.5*
%
%ADD10C,0.00600*%
%ADD11C,0.00500*%
%ADD12C,0.00800*%
%ADD13C,0.00400*%
%ADD14R,0.02657X0.09646*%
%ADD15R,0.03400X0.03000*%
%ADD16C,0.00700*%
%ADD17R,0.10000X0.02500*%
%ADD18R,0.02500X0.10000*%
D10*
X0036500Y0012667D02*
X0039000Y0010167D01*
X0044000Y0010167D01*
X0046500Y0012667D01*
X0046500Y0017667D01*
X0044000Y0020167D01*
X0039000Y0020167D01*
X0036500Y0017667D01*
X0036500Y0012667D01*
X0047000Y0056667D02*
X0047000Y0059667D01*
X0048500Y0058167D02*
X0045500Y0058167D01*
X0033804Y0064806D02*
X0031728Y0062730D01*
X0030690Y0062730D01*
X0029133Y0064287D01*
X0032247Y0067400D01*
X0033804Y0065844D01*
X0033804Y0064806D01*
X0031068Y0068580D02*
X0027954Y0065466D01*
X0028992Y0070656D01*
X0025878Y0067542D01*
X0025217Y0069241D02*
X0024179Y0069241D01*
X0023141Y0070279D01*
X0023141Y0071317D01*
X0025217Y0073392D01*
X0026255Y0073392D01*
X0027293Y0072354D01*
X0027293Y0071317D01*
X0026255Y0070279D02*
X0025217Y0071317D01*
X0026255Y0070279D02*
X0025217Y0069241D01*
X0020924Y0071458D02*
X0018848Y0073534D01*
X0017149Y0076270D02*
X0020263Y0079384D01*
X0019225Y0080422D02*
X0021301Y0078346D01*
X0017008Y0080564D02*
X0017008Y0082640D01*
X0014932Y0082640D01*
X0012856Y0080564D01*
X0012195Y0082262D02*
X0011157Y0082262D01*
X0009600Y0083819D01*
X0012714Y0086933D01*
X0014271Y0085376D01*
X0014271Y0084338D01*
X0013752Y0083819D01*
X0012714Y0083819D01*
X0011157Y0085376D01*
X0012714Y0083819D02*
X0012714Y0082781D01*
X0012195Y0082262D01*
X0014413Y0082121D02*
X0016489Y0080045D01*
X0017008Y0080564D02*
X0014932Y0078488D01*
X0029000Y0090167D02*
X0034000Y0090167D01*
X0031500Y0087667D02*
X0031500Y0092667D01*
X0031500Y0105667D02*
X0031500Y0106667D01*
X0026500Y0106667D01*
X0026500Y0109167D01*
X0036500Y0109167D01*
X0036500Y0106667D01*
X0031500Y0106667D01*
X0004000Y0110167D02*
X0004008Y0110842D01*
X0004033Y0111516D01*
X0004075Y0112190D01*
X0004132Y0112862D01*
X0004207Y0113533D01*
X0004298Y0114202D01*
X0004405Y0114868D01*
X0004528Y0115532D01*
X0004668Y0116192D01*
X0004824Y0116849D01*
X0004996Y0117502D01*
X0005184Y0118150D01*
X0005388Y0118793D01*
X0005608Y0119431D01*
X0005843Y0120064D01*
X0006093Y0120691D01*
X0006359Y0121311D01*
X0006640Y0121925D01*
X0006936Y0122531D01*
X0007247Y0123130D01*
X0007573Y0123722D01*
X0007912Y0124305D01*
X0008267Y0124879D01*
X0008635Y0125445D01*
X0009016Y0126002D01*
X0009412Y0126549D01*
X0009820Y0127086D01*
X0010242Y0127613D01*
X0010677Y0128129D01*
X0011124Y0128635D01*
X0011583Y0129129D01*
X0012055Y0129612D01*
X0012538Y0130084D01*
X0013032Y0130543D01*
X0013538Y0130990D01*
X0014054Y0131425D01*
X0014581Y0131847D01*
X0015118Y0132255D01*
X0015665Y0132651D01*
X0016222Y0133032D01*
X0016788Y0133400D01*
X0017362Y0133755D01*
X0017945Y0134094D01*
X0018537Y0134420D01*
X0019136Y0134731D01*
X0019742Y0135027D01*
X0020356Y0135308D01*
X0020976Y0135574D01*
X0021603Y0135824D01*
X0022236Y0136059D01*
X0022874Y0136279D01*
X0023517Y0136483D01*
X0024165Y0136671D01*
X0024818Y0136843D01*
X0025475Y0136999D01*
X0026135Y0137139D01*
X0026799Y0137262D01*
X0027465Y0137369D01*
X0028134Y0137460D01*
X0028805Y0137535D01*
X0029477Y0137592D01*
X0030151Y0137634D01*
X0030825Y0137659D01*
X0031500Y0137667D01*
X0032175Y0137659D01*
X0032849Y0137634D01*
X0033523Y0137592D01*
X0034195Y0137535D01*
X0034866Y0137460D01*
X0035535Y0137369D01*
X0036201Y0137262D01*
X0036865Y0137139D01*
X0037525Y0136999D01*
X0038182Y0136843D01*
X0038835Y0136671D01*
X0039483Y0136483D01*
X0040126Y0136279D01*
X0040764Y0136059D01*
X0041397Y0135824D01*
X0042024Y0135574D01*
X0042644Y0135308D01*
X0043258Y0135027D01*
X0043864Y0134731D01*
X0044463Y0134420D01*
X0045055Y0134094D01*
X0045638Y0133755D01*
X0046212Y0133400D01*
X0046778Y0133032D01*
X0047335Y0132651D01*
X0047882Y0132255D01*
X0048419Y0131847D01*
X0048946Y0131425D01*
X0049462Y0130990D01*
X0049968Y0130543D01*
X0050462Y0130084D01*
X0050945Y0129612D01*
X0051417Y0129129D01*
X0051876Y0128635D01*
X0052323Y0128129D01*
X0052758Y0127613D01*
X0053180Y0127086D01*
X0053588Y0126549D01*
X0053984Y0126002D01*
X0054365Y0125445D01*
X0054733Y0124879D01*
X0055088Y0124305D01*
X0055427Y0123722D01*
X0055753Y0123130D01*
X0056064Y0122531D01*
X0056360Y0121925D01*
X0056641Y0121311D01*
X0056907Y0120691D01*
X0057157Y0120064D01*
X0057392Y0119431D01*
X0057612Y0118793D01*
X0057816Y0118150D01*
X0058004Y0117502D01*
X0058176Y0116849D01*
X0058332Y0116192D01*
X0058472Y0115532D01*
X0058595Y0114868D01*
X0058702Y0114202D01*
X0058793Y0113533D01*
X0058868Y0112862D01*
X0058925Y0112190D01*
X0058967Y0111516D01*
X0058992Y0110842D01*
X0059000Y0110167D01*
X0058992Y0109492D01*
X0058967Y0108818D01*
X0058925Y0108144D01*
X0058868Y0107472D01*
X0058793Y0106801D01*
X0058702Y0106132D01*
X0058595Y0105466D01*
X0058472Y0104802D01*
X0058332Y0104142D01*
X0058176Y0103485D01*
X0058004Y0102832D01*
X0057816Y0102184D01*
X0057612Y0101541D01*
X0057392Y0100903D01*
X0057157Y0100270D01*
X0056907Y0099643D01*
X0056641Y0099023D01*
X0056360Y0098409D01*
X0056064Y0097803D01*
X0055753Y0097204D01*
X0055427Y0096612D01*
X0055088Y0096029D01*
X0054733Y0095455D01*
X0054365Y0094889D01*
X0053984Y0094332D01*
X0053588Y0093785D01*
X0053180Y0093248D01*
X0052758Y0092721D01*
X0052323Y0092205D01*
X0051876Y0091699D01*
X0051417Y0091205D01*
X0050945Y0090722D01*
X0050462Y0090250D01*
X0049968Y0089791D01*
X0049462Y0089344D01*
X0048946Y0088909D01*
X0048419Y0088487D01*
X0047882Y0088079D01*
X0047335Y0087683D01*
X0046778Y0087302D01*
X0046212Y0086934D01*
X0045638Y0086579D01*
X0045055Y0086240D01*
X0044463Y0085914D01*
X0043864Y0085603D01*
X0043258Y0085307D01*
X0042644Y0085026D01*
X0042024Y0084760D01*
X0041397Y0084510D01*
X0040764Y0084275D01*
X0040126Y0084055D01*
X0039483Y0083851D01*
X0038835Y0083663D01*
X0038182Y0083491D01*
X0037525Y0083335D01*
X0036865Y0083195D01*
X0036201Y0083072D01*
X0035535Y0082965D01*
X0034866Y0082874D01*
X0034195Y0082799D01*
X0033523Y0082742D01*
X0032849Y0082700D01*
X0032175Y0082675D01*
X0031500Y0082667D01*
X0030825Y0082675D01*
X0030151Y0082700D01*
X0029477Y0082742D01*
X0028805Y0082799D01*
X0028134Y0082874D01*
X0027465Y0082965D01*
X0026799Y0083072D01*
X0026135Y0083195D01*
X0025475Y0083335D01*
X0024818Y0083491D01*
X0024165Y0083663D01*
X0023517Y0083851D01*
X0022874Y0084055D01*
X0022236Y0084275D01*
X0021603Y0084510D01*
X0020976Y0084760D01*
X0020356Y0085026D01*
X0019742Y0085307D01*
X0019136Y0085603D01*
X0018537Y0085914D01*
X0017945Y0086240D01*
X0017362Y0086579D01*
X0016788Y0086934D01*
X0016222Y0087302D01*
X0015665Y0087683D01*
X0015118Y0088079D01*
X0014581Y0088487D01*
X0014054Y0088909D01*
X0013538Y0089344D01*
X0013032Y0089791D01*
X0012538Y0090250D01*
X0012055Y0090722D01*
X0011583Y0091205D01*
X0011124Y0091699D01*
X0010677Y0092205D01*
X0010242Y0092721D01*
X0009820Y0093248D01*
X0009412Y0093785D01*
X0009016Y0094332D01*
X0008635Y0094889D01*
X0008267Y0095455D01*
X0007912Y0096029D01*
X0007573Y0096612D01*
X0007247Y0097204D01*
X0006936Y0097803D01*
X0006640Y0098409D01*
X0006359Y0099023D01*
X0006093Y0099643D01*
X0005843Y0100270D01*
X0005608Y0100903D01*
X0005388Y0101541D01*
X0005184Y0102184D01*
X0004996Y0102832D01*
X0004824Y0103485D01*
X0004668Y0104142D01*
X0004528Y0104802D01*
X0004405Y0105466D01*
X0004298Y0106132D01*
X0004207Y0106801D01*
X0004132Y0107472D01*
X0004075Y0108144D01*
X0004033Y0108818D01*
X0004008Y0109492D01*
X0004000Y0110167D01*
X0031500Y0112667D02*
X0031500Y0114667D01*
X0074000Y0130167D02*
X0079000Y0130167D01*
X0076500Y0127667D02*
X0076500Y0132667D01*
X0076500Y0145667D02*
X0076500Y0146667D01*
X0071500Y0146667D01*
X0071500Y0149167D01*
X0081500Y0149167D01*
X0081500Y0146667D01*
X0076500Y0146667D01*
X0049000Y0150167D02*
X0049008Y0150842D01*
X0049033Y0151516D01*
X0049075Y0152190D01*
X0049132Y0152862D01*
X0049207Y0153533D01*
X0049298Y0154202D01*
X0049405Y0154868D01*
X0049528Y0155532D01*
X0049668Y0156192D01*
X0049824Y0156849D01*
X0049996Y0157502D01*
X0050184Y0158150D01*
X0050388Y0158793D01*
X0050608Y0159431D01*
X0050843Y0160064D01*
X0051093Y0160691D01*
X0051359Y0161311D01*
X0051640Y0161925D01*
X0051936Y0162531D01*
X0052247Y0163130D01*
X0052573Y0163722D01*
X0052912Y0164305D01*
X0053267Y0164879D01*
X0053635Y0165445D01*
X0054016Y0166002D01*
X0054412Y0166549D01*
X0054820Y0167086D01*
X0055242Y0167613D01*
X0055677Y0168129D01*
X0056124Y0168635D01*
X0056583Y0169129D01*
X0057055Y0169612D01*
X0057538Y0170084D01*
X0058032Y0170543D01*
X0058538Y0170990D01*
X0059054Y0171425D01*
X0059581Y0171847D01*
X0060118Y0172255D01*
X0060665Y0172651D01*
X0061222Y0173032D01*
X0061788Y0173400D01*
X0062362Y0173755D01*
X0062945Y0174094D01*
X0063537Y0174420D01*
X0064136Y0174731D01*
X0064742Y0175027D01*
X0065356Y0175308D01*
X0065976Y0175574D01*
X0066603Y0175824D01*
X0067236Y0176059D01*
X0067874Y0176279D01*
X0068517Y0176483D01*
X0069165Y0176671D01*
X0069818Y0176843D01*
X0070475Y0176999D01*
X0071135Y0177139D01*
X0071799Y0177262D01*
X0072465Y0177369D01*
X0073134Y0177460D01*
X0073805Y0177535D01*
X0074477Y0177592D01*
X0075151Y0177634D01*
X0075825Y0177659D01*
X0076500Y0177667D01*
X0077175Y0177659D01*
X0077849Y0177634D01*
X0078523Y0177592D01*
X0079195Y0177535D01*
X0079866Y0177460D01*
X0080535Y0177369D01*
X0081201Y0177262D01*
X0081865Y0177139D01*
X0082525Y0176999D01*
X0083182Y0176843D01*
X0083835Y0176671D01*
X0084483Y0176483D01*
X0085126Y0176279D01*
X0085764Y0176059D01*
X0086397Y0175824D01*
X0087024Y0175574D01*
X0087644Y0175308D01*
X0088258Y0175027D01*
X0088864Y0174731D01*
X0089463Y0174420D01*
X0090055Y0174094D01*
X0090638Y0173755D01*
X0091212Y0173400D01*
X0091778Y0173032D01*
X0092335Y0172651D01*
X0092882Y0172255D01*
X0093419Y0171847D01*
X0093946Y0171425D01*
X0094462Y0170990D01*
X0094968Y0170543D01*
X0095462Y0170084D01*
X0095945Y0169612D01*
X0096417Y0169129D01*
X0096876Y0168635D01*
X0097323Y0168129D01*
X0097758Y0167613D01*
X0098180Y0167086D01*
X0098588Y0166549D01*
X0098984Y0166002D01*
X0099365Y0165445D01*
X0099733Y0164879D01*
X0100088Y0164305D01*
X0100427Y0163722D01*
X0100753Y0163130D01*
X0101064Y0162531D01*
X0101360Y0161925D01*
X0101641Y0161311D01*
X0101907Y0160691D01*
X0102157Y0160064D01*
X0102392Y0159431D01*
X0102612Y0158793D01*
X0102816Y0158150D01*
X0103004Y0157502D01*
X0103176Y0156849D01*
X0103332Y0156192D01*
X0103472Y0155532D01*
X0103595Y0154868D01*
X0103702Y0154202D01*
X0103793Y0153533D01*
X0103868Y0152862D01*
X0103925Y0152190D01*
X0103967Y0151516D01*
X0103992Y0150842D01*
X0104000Y0150167D01*
X0103992Y0149492D01*
X0103967Y0148818D01*
X0103925Y0148144D01*
X0103868Y0147472D01*
X0103793Y0146801D01*
X0103702Y0146132D01*
X0103595Y0145466D01*
X0103472Y0144802D01*
X0103332Y0144142D01*
X0103176Y0143485D01*
X0103004Y0142832D01*
X0102816Y0142184D01*
X0102612Y0141541D01*
X0102392Y0140903D01*
X0102157Y0140270D01*
X0101907Y0139643D01*
X0101641Y0139023D01*
X0101360Y0138409D01*
X0101064Y0137803D01*
X0100753Y0137204D01*
X0100427Y0136612D01*
X0100088Y0136029D01*
X0099733Y0135455D01*
X0099365Y0134889D01*
X0098984Y0134332D01*
X0098588Y0133785D01*
X0098180Y0133248D01*
X0097758Y0132721D01*
X0097323Y0132205D01*
X0096876Y0131699D01*
X0096417Y0131205D01*
X0095945Y0130722D01*
X0095462Y0130250D01*
X0094968Y0129791D01*
X0094462Y0129344D01*
X0093946Y0128909D01*
X0093419Y0128487D01*
X0092882Y0128079D01*
X0092335Y0127683D01*
X0091778Y0127302D01*
X0091212Y0126934D01*
X0090638Y0126579D01*
X0090055Y0126240D01*
X0089463Y0125914D01*
X0088864Y0125603D01*
X0088258Y0125307D01*
X0087644Y0125026D01*
X0087024Y0124760D01*
X0086397Y0124510D01*
X0085764Y0124275D01*
X0085126Y0124055D01*
X0084483Y0123851D01*
X0083835Y0123663D01*
X0083182Y0123491D01*
X0082525Y0123335D01*
X0081865Y0123195D01*
X0081201Y0123072D01*
X0080535Y0122965D01*
X0079866Y0122874D01*
X0079195Y0122799D01*
X0078523Y0122742D01*
X0077849Y0122700D01*
X0077175Y0122675D01*
X0076500Y0122667D01*
X0075825Y0122675D01*
X0075151Y0122700D01*
X0074477Y0122742D01*
X0073805Y0122799D01*
X0073134Y0122874D01*
X0072465Y0122965D01*
X0071799Y0123072D01*
X0071135Y0123195D01*
X0070475Y0123335D01*
X0069818Y0123491D01*
X0069165Y0123663D01*
X0068517Y0123851D01*
X0067874Y0124055D01*
X0067236Y0124275D01*
X0066603Y0124510D01*
X0065976Y0124760D01*
X0065356Y0125026D01*
X0064742Y0125307D01*
X0064136Y0125603D01*
X0063537Y0125914D01*
X0062945Y0126240D01*
X0062362Y0126579D01*
X0061788Y0126934D01*
X0061222Y0127302D01*
X0060665Y0127683D01*
X0060118Y0128079D01*
X0059581Y0128487D01*
X0059054Y0128909D01*
X0058538Y0129344D01*
X0058032Y0129791D01*
X0057538Y0130250D01*
X0057055Y0130722D01*
X0056583Y0131205D01*
X0056124Y0131699D01*
X0055677Y0132205D01*
X0055242Y0132721D01*
X0054820Y0133248D01*
X0054412Y0133785D01*
X0054016Y0134332D01*
X0053635Y0134889D01*
X0053267Y0135455D01*
X0052912Y0136029D01*
X0052573Y0136612D01*
X0052247Y0137204D01*
X0051936Y0137803D01*
X0051640Y0138409D01*
X0051359Y0139023D01*
X0051093Y0139643D01*
X0050843Y0140270D01*
X0050608Y0140903D01*
X0050388Y0141541D01*
X0050184Y0142184D01*
X0049996Y0142832D01*
X0049824Y0143485D01*
X0049668Y0144142D01*
X0049528Y0144802D01*
X0049405Y0145466D01*
X0049298Y0146132D01*
X0049207Y0146801D01*
X0049132Y0147472D01*
X0049075Y0148144D01*
X0049033Y0148818D01*
X0049008Y0149492D01*
X0049000Y0150167D01*
X0076500Y0152667D02*
X0076500Y0154667D01*
X0044390Y0170215D02*
X0042314Y0172291D01*
X0044390Y0172291D02*
X0042314Y0170215D01*
X0036322Y0175169D02*
X0036322Y0177245D01*
X0036841Y0176726D02*
X0035284Y0178283D01*
X0034246Y0177245D02*
X0037360Y0180359D01*
X0038917Y0178802D01*
X0038917Y0177764D01*
X0037879Y0176726D01*
X0036841Y0176726D01*
X0033067Y0178424D02*
X0030991Y0180500D01*
X0034105Y0183614D01*
X0036181Y0181538D01*
X0033586Y0181019D02*
X0032548Y0182057D01*
X0029811Y0181680D02*
X0032925Y0184794D01*
X0030849Y0186870D02*
X0027735Y0183756D01*
X0029811Y0183756D01*
X0029811Y0181680D01*
X0027075Y0185454D02*
X0029151Y0187530D01*
X0029151Y0188568D01*
X0028113Y0189606D01*
X0027075Y0189606D01*
X0024999Y0187530D01*
X0024999Y0186492D01*
X0026037Y0185454D01*
X0027075Y0185454D01*
X0024857Y0189748D02*
X0023819Y0189748D01*
X0022262Y0191305D01*
X0021224Y0190267D02*
X0024338Y0193381D01*
X0025895Y0191824D01*
X0025895Y0190786D01*
X0024857Y0189748D01*
X0065500Y0197667D02*
X0065505Y0198060D01*
X0065519Y0198452D01*
X0065543Y0198844D01*
X0065577Y0199235D01*
X0065620Y0199626D01*
X0065673Y0200015D01*
X0065736Y0200402D01*
X0065807Y0200788D01*
X0065889Y0201173D01*
X0065979Y0201555D01*
X0066080Y0201934D01*
X0066189Y0202312D01*
X0066308Y0202686D01*
X0066435Y0203057D01*
X0066572Y0203425D01*
X0066718Y0203790D01*
X0066873Y0204151D01*
X0067036Y0204508D01*
X0067208Y0204861D01*
X0067389Y0205209D01*
X0067579Y0205553D01*
X0067776Y0205893D01*
X0067982Y0206227D01*
X0068196Y0206556D01*
X0068419Y0206880D01*
X0068649Y0207198D01*
X0068886Y0207511D01*
X0069132Y0207817D01*
X0069385Y0208118D01*
X0069645Y0208412D01*
X0069912Y0208700D01*
X0070186Y0208981D01*
X0070467Y0209255D01*
X0070755Y0209522D01*
X0071049Y0209782D01*
X0071350Y0210035D01*
X0071656Y0210281D01*
X0071969Y0210518D01*
X0072287Y0210748D01*
X0072611Y0210971D01*
X0072940Y0211185D01*
X0073274Y0211391D01*
X0073614Y0211588D01*
X0073958Y0211778D01*
X0074306Y0211959D01*
X0074659Y0212131D01*
X0075016Y0212294D01*
X0075377Y0212449D01*
X0075742Y0212595D01*
X0076110Y0212732D01*
X0076481Y0212859D01*
X0076855Y0212978D01*
X0077233Y0213087D01*
X0077612Y0213188D01*
X0077994Y0213278D01*
X0078379Y0213360D01*
X0078765Y0213431D01*
X0079152Y0213494D01*
X0079541Y0213547D01*
X0079932Y0213590D01*
X0080323Y0213624D01*
X0080715Y0213648D01*
X0081107Y0213662D01*
X0081500Y0213667D01*
X0081893Y0213662D01*
X0082285Y0213648D01*
X0082677Y0213624D01*
X0083068Y0213590D01*
X0083459Y0213547D01*
X0083848Y0213494D01*
X0084235Y0213431D01*
X0084621Y0213360D01*
X0085006Y0213278D01*
X0085388Y0213188D01*
X0085767Y0213087D01*
X0086145Y0212978D01*
X0086519Y0212859D01*
X0086890Y0212732D01*
X0087258Y0212595D01*
X0087623Y0212449D01*
X0087984Y0212294D01*
X0088341Y0212131D01*
X0088694Y0211959D01*
X0089042Y0211778D01*
X0089386Y0211588D01*
X0089726Y0211391D01*
X0090060Y0211185D01*
X0090389Y0210971D01*
X0090713Y0210748D01*
X0091031Y0210518D01*
X0091344Y0210281D01*
X0091650Y0210035D01*
X0091951Y0209782D01*
X0092245Y0209522D01*
X0092533Y0209255D01*
X0092814Y0208981D01*
X0093088Y0208700D01*
X0093355Y0208412D01*
X0093615Y0208118D01*
X0093868Y0207817D01*
X0094114Y0207511D01*
X0094351Y0207198D01*
X0094581Y0206880D01*
X0094804Y0206556D01*
X0095018Y0206227D01*
X0095224Y0205893D01*
X0095421Y0205553D01*
X0095611Y0205209D01*
X0095792Y0204861D01*
X0095964Y0204508D01*
X0096127Y0204151D01*
X0096282Y0203790D01*
X0096428Y0203425D01*
X0096565Y0203057D01*
X0096692Y0202686D01*
X0096811Y0202312D01*
X0096920Y0201934D01*
X0097021Y0201555D01*
X0097111Y0201173D01*
X0097193Y0200788D01*
X0097264Y0200402D01*
X0097327Y0200015D01*
X0097380Y0199626D01*
X0097423Y0199235D01*
X0097457Y0198844D01*
X0097481Y0198452D01*
X0097495Y0198060D01*
X0097500Y0197667D01*
X0097495Y0197274D01*
X0097481Y0196882D01*
X0097457Y0196490D01*
X0097423Y0196099D01*
X0097380Y0195708D01*
X0097327Y0195319D01*
X0097264Y0194932D01*
X0097193Y0194546D01*
X0097111Y0194161D01*
X0097021Y0193779D01*
X0096920Y0193400D01*
X0096811Y0193022D01*
X0096692Y0192648D01*
X0096565Y0192277D01*
X0096428Y0191909D01*
X0096282Y0191544D01*
X0096127Y0191183D01*
X0095964Y0190826D01*
X0095792Y0190473D01*
X0095611Y0190125D01*
X0095421Y0189781D01*
X0095224Y0189441D01*
X0095018Y0189107D01*
X0094804Y0188778D01*
X0094581Y0188454D01*
X0094351Y0188136D01*
X0094114Y0187823D01*
X0093868Y0187517D01*
X0093615Y0187216D01*
X0093355Y0186922D01*
X0093088Y0186634D01*
X0092814Y0186353D01*
X0092533Y0186079D01*
X0092245Y0185812D01*
X0091951Y0185552D01*
X0091650Y0185299D01*
X0091344Y0185053D01*
X0091031Y0184816D01*
X0090713Y0184586D01*
X0090389Y0184363D01*
X0090060Y0184149D01*
X0089726Y0183943D01*
X0089386Y0183746D01*
X0089042Y0183556D01*
X0088694Y0183375D01*
X0088341Y0183203D01*
X0087984Y0183040D01*
X0087623Y0182885D01*
X0087258Y0182739D01*
X0086890Y0182602D01*
X0086519Y0182475D01*
X0086145Y0182356D01*
X0085767Y0182247D01*
X0085388Y0182146D01*
X0085006Y0182056D01*
X0084621Y0181974D01*
X0084235Y0181903D01*
X0083848Y0181840D01*
X0083459Y0181787D01*
X0083068Y0181744D01*
X0082677Y0181710D01*
X0082285Y0181686D01*
X0081893Y0181672D01*
X0081500Y0181667D01*
X0081107Y0181672D01*
X0080715Y0181686D01*
X0080323Y0181710D01*
X0079932Y0181744D01*
X0079541Y0181787D01*
X0079152Y0181840D01*
X0078765Y0181903D01*
X0078379Y0181974D01*
X0077994Y0182056D01*
X0077612Y0182146D01*
X0077233Y0182247D01*
X0076855Y0182356D01*
X0076481Y0182475D01*
X0076110Y0182602D01*
X0075742Y0182739D01*
X0075377Y0182885D01*
X0075016Y0183040D01*
X0074659Y0183203D01*
X0074306Y0183375D01*
X0073958Y0183556D01*
X0073614Y0183746D01*
X0073274Y0183943D01*
X0072940Y0184149D01*
X0072611Y0184363D01*
X0072287Y0184586D01*
X0071969Y0184816D01*
X0071656Y0185053D01*
X0071350Y0185299D01*
X0071049Y0185552D01*
X0070755Y0185812D01*
X0070467Y0186079D01*
X0070186Y0186353D01*
X0069912Y0186634D01*
X0069645Y0186922D01*
X0069385Y0187216D01*
X0069132Y0187517D01*
X0068886Y0187823D01*
X0068649Y0188136D01*
X0068419Y0188454D01*
X0068196Y0188778D01*
X0067982Y0189107D01*
X0067776Y0189441D01*
X0067579Y0189781D01*
X0067389Y0190125D01*
X0067208Y0190473D01*
X0067036Y0190826D01*
X0066873Y0191183D01*
X0066718Y0191544D01*
X0066572Y0191909D01*
X0066435Y0192277D01*
X0066308Y0192648D01*
X0066189Y0193022D01*
X0066080Y0193400D01*
X0065979Y0193779D01*
X0065889Y0194161D01*
X0065807Y0194546D01*
X0065736Y0194932D01*
X0065673Y0195319D01*
X0065620Y0195708D01*
X0065577Y0196099D01*
X0065543Y0196490D01*
X0065519Y0196882D01*
X0065505Y0197274D01*
X0065500Y0197667D01*
X0092000Y0193167D02*
X0095000Y0193167D01*
X0093500Y0194667D02*
X0093500Y0191667D01*
X0122000Y0187667D02*
X0124000Y0187667D01*
X0099000Y0187667D02*
X0099008Y0188342D01*
X0099033Y0189016D01*
X0099075Y0189690D01*
X0099132Y0190362D01*
X0099207Y0191033D01*
X0099298Y0191702D01*
X0099405Y0192368D01*
X0099528Y0193032D01*
X0099668Y0193692D01*
X0099824Y0194349D01*
X0099996Y0195002D01*
X0100184Y0195650D01*
X0100388Y0196293D01*
X0100608Y0196931D01*
X0100843Y0197564D01*
X0101093Y0198191D01*
X0101359Y0198811D01*
X0101640Y0199425D01*
X0101936Y0200031D01*
X0102247Y0200630D01*
X0102573Y0201222D01*
X0102912Y0201805D01*
X0103267Y0202379D01*
X0103635Y0202945D01*
X0104016Y0203502D01*
X0104412Y0204049D01*
X0104820Y0204586D01*
X0105242Y0205113D01*
X0105677Y0205629D01*
X0106124Y0206135D01*
X0106583Y0206629D01*
X0107055Y0207112D01*
X0107538Y0207584D01*
X0108032Y0208043D01*
X0108538Y0208490D01*
X0109054Y0208925D01*
X0109581Y0209347D01*
X0110118Y0209755D01*
X0110665Y0210151D01*
X0111222Y0210532D01*
X0111788Y0210900D01*
X0112362Y0211255D01*
X0112945Y0211594D01*
X0113537Y0211920D01*
X0114136Y0212231D01*
X0114742Y0212527D01*
X0115356Y0212808D01*
X0115976Y0213074D01*
X0116603Y0213324D01*
X0117236Y0213559D01*
X0117874Y0213779D01*
X0118517Y0213983D01*
X0119165Y0214171D01*
X0119818Y0214343D01*
X0120475Y0214499D01*
X0121135Y0214639D01*
X0121799Y0214762D01*
X0122465Y0214869D01*
X0123134Y0214960D01*
X0123805Y0215035D01*
X0124477Y0215092D01*
X0125151Y0215134D01*
X0125825Y0215159D01*
X0126500Y0215167D01*
X0127175Y0215159D01*
X0127849Y0215134D01*
X0128523Y0215092D01*
X0129195Y0215035D01*
X0129866Y0214960D01*
X0130535Y0214869D01*
X0131201Y0214762D01*
X0131865Y0214639D01*
X0132525Y0214499D01*
X0133182Y0214343D01*
X0133835Y0214171D01*
X0134483Y0213983D01*
X0135126Y0213779D01*
X0135764Y0213559D01*
X0136397Y0213324D01*
X0137024Y0213074D01*
X0137644Y0212808D01*
X0138258Y0212527D01*
X0138864Y0212231D01*
X0139463Y0211920D01*
X0140055Y0211594D01*
X0140638Y0211255D01*
X0141212Y0210900D01*
X0141778Y0210532D01*
X0142335Y0210151D01*
X0142882Y0209755D01*
X0143419Y0209347D01*
X0143946Y0208925D01*
X0144462Y0208490D01*
X0144968Y0208043D01*
X0145462Y0207584D01*
X0145945Y0207112D01*
X0146417Y0206629D01*
X0146876Y0206135D01*
X0147323Y0205629D01*
X0147758Y0205113D01*
X0148180Y0204586D01*
X0148588Y0204049D01*
X0148984Y0203502D01*
X0149365Y0202945D01*
X0149733Y0202379D01*
X0150088Y0201805D01*
X0150427Y0201222D01*
X0150753Y0200630D01*
X0151064Y0200031D01*
X0151360Y0199425D01*
X0151641Y0198811D01*
X0151907Y0198191D01*
X0152157Y0197564D01*
X0152392Y0196931D01*
X0152612Y0196293D01*
X0152816Y0195650D01*
X0153004Y0195002D01*
X0153176Y0194349D01*
X0153332Y0193692D01*
X0153472Y0193032D01*
X0153595Y0192368D01*
X0153702Y0191702D01*
X0153793Y0191033D01*
X0153868Y0190362D01*
X0153925Y0189690D01*
X0153967Y0189016D01*
X0153992Y0188342D01*
X0154000Y0187667D01*
X0153992Y0186992D01*
X0153967Y0186318D01*
X0153925Y0185644D01*
X0153868Y0184972D01*
X0153793Y0184301D01*
X0153702Y0183632D01*
X0153595Y0182966D01*
X0153472Y0182302D01*
X0153332Y0181642D01*
X0153176Y0180985D01*
X0153004Y0180332D01*
X0152816Y0179684D01*
X0152612Y0179041D01*
X0152392Y0178403D01*
X0152157Y0177770D01*
X0151907Y0177143D01*
X0151641Y0176523D01*
X0151360Y0175909D01*
X0151064Y0175303D01*
X0150753Y0174704D01*
X0150427Y0174112D01*
X0150088Y0173529D01*
X0149733Y0172955D01*
X0149365Y0172389D01*
X0148984Y0171832D01*
X0148588Y0171285D01*
X0148180Y0170748D01*
X0147758Y0170221D01*
X0147323Y0169705D01*
X0146876Y0169199D01*
X0146417Y0168705D01*
X0145945Y0168222D01*
X0145462Y0167750D01*
X0144968Y0167291D01*
X0144462Y0166844D01*
X0143946Y0166409D01*
X0143419Y0165987D01*
X0142882Y0165579D01*
X0142335Y0165183D01*
X0141778Y0164802D01*
X0141212Y0164434D01*
X0140638Y0164079D01*
X0140055Y0163740D01*
X0139463Y0163414D01*
X0138864Y0163103D01*
X0138258Y0162807D01*
X0137644Y0162526D01*
X0137024Y0162260D01*
X0136397Y0162010D01*
X0135764Y0161775D01*
X0135126Y0161555D01*
X0134483Y0161351D01*
X0133835Y0161163D01*
X0133182Y0160991D01*
X0132525Y0160835D01*
X0131865Y0160695D01*
X0131201Y0160572D01*
X0130535Y0160465D01*
X0129866Y0160374D01*
X0129195Y0160299D01*
X0128523Y0160242D01*
X0127849Y0160200D01*
X0127175Y0160175D01*
X0126500Y0160167D01*
X0125825Y0160175D01*
X0125151Y0160200D01*
X0124477Y0160242D01*
X0123805Y0160299D01*
X0123134Y0160374D01*
X0122465Y0160465D01*
X0121799Y0160572D01*
X0121135Y0160695D01*
X0120475Y0160835D01*
X0119818Y0160991D01*
X0119165Y0161163D01*
X0118517Y0161351D01*
X0117874Y0161555D01*
X0117236Y0161775D01*
X0116603Y0162010D01*
X0115976Y0162260D01*
X0115356Y0162526D01*
X0114742Y0162807D01*
X0114136Y0163103D01*
X0113537Y0163414D01*
X0112945Y0163740D01*
X0112362Y0164079D01*
X0111788Y0164434D01*
X0111222Y0164802D01*
X0110665Y0165183D01*
X0110118Y0165579D01*
X0109581Y0165987D01*
X0109054Y0166409D01*
X0108538Y0166844D01*
X0108032Y0167291D01*
X0107538Y0167750D01*
X0107055Y0168222D01*
X0106583Y0168705D01*
X0106124Y0169199D01*
X0105677Y0169705D01*
X0105242Y0170221D01*
X0104820Y0170748D01*
X0104412Y0171285D01*
X0104016Y0171832D01*
X0103635Y0172389D01*
X0103267Y0172955D01*
X0102912Y0173529D01*
X0102573Y0174112D01*
X0102247Y0174704D01*
X0101936Y0175303D01*
X0101640Y0175909D01*
X0101359Y0176523D01*
X0101093Y0177143D01*
X0100843Y0177770D01*
X0100608Y0178403D01*
X0100388Y0179041D01*
X0100184Y0179684D01*
X0099996Y0180332D01*
X0099824Y0180985D01*
X0099668Y0181642D01*
X0099528Y0182302D01*
X0099405Y0182966D01*
X0099298Y0183632D01*
X0099207Y0184301D01*
X0099132Y0184972D01*
X0099075Y0185644D01*
X0099033Y0186318D01*
X0099008Y0186992D01*
X0099000Y0187667D01*
X0127500Y0192667D02*
X0127500Y0182667D01*
X0130000Y0182667D01*
X0130000Y0187667D01*
X0130000Y0192667D01*
X0127500Y0192667D01*
X0130000Y0187667D02*
X0131000Y0187667D01*
X0144000Y0187667D02*
X0149000Y0187667D01*
X0146500Y0190167D02*
X0146500Y0185167D01*
X0169000Y0180167D02*
X0174000Y0180167D01*
X0171500Y0177667D02*
X0171500Y0182667D01*
X0187000Y0180167D02*
X0188000Y0180167D01*
X0188000Y0185167D01*
X0190500Y0185167D01*
X0190500Y0175167D01*
X0188000Y0175167D01*
X0188000Y0180167D01*
X0164000Y0180167D02*
X0164008Y0180842D01*
X0164033Y0181516D01*
X0164075Y0182190D01*
X0164132Y0182862D01*
X0164207Y0183533D01*
X0164298Y0184202D01*
X0164405Y0184868D01*
X0164528Y0185532D01*
X0164668Y0186192D01*
X0164824Y0186849D01*
X0164996Y0187502D01*
X0165184Y0188150D01*
X0165388Y0188793D01*
X0165608Y0189431D01*
X0165843Y0190064D01*
X0166093Y0190691D01*
X0166359Y0191311D01*
X0166640Y0191925D01*
X0166936Y0192531D01*
X0167247Y0193130D01*
X0167573Y0193722D01*
X0167912Y0194305D01*
X0168267Y0194879D01*
X0168635Y0195445D01*
X0169016Y0196002D01*
X0169412Y0196549D01*
X0169820Y0197086D01*
X0170242Y0197613D01*
X0170677Y0198129D01*
X0171124Y0198635D01*
X0171583Y0199129D01*
X0172055Y0199612D01*
X0172538Y0200084D01*
X0173032Y0200543D01*
X0173538Y0200990D01*
X0174054Y0201425D01*
X0174581Y0201847D01*
X0175118Y0202255D01*
X0175665Y0202651D01*
X0176222Y0203032D01*
X0176788Y0203400D01*
X0177362Y0203755D01*
X0177945Y0204094D01*
X0178537Y0204420D01*
X0179136Y0204731D01*
X0179742Y0205027D01*
X0180356Y0205308D01*
X0180976Y0205574D01*
X0181603Y0205824D01*
X0182236Y0206059D01*
X0182874Y0206279D01*
X0183517Y0206483D01*
X0184165Y0206671D01*
X0184818Y0206843D01*
X0185475Y0206999D01*
X0186135Y0207139D01*
X0186799Y0207262D01*
X0187465Y0207369D01*
X0188134Y0207460D01*
X0188805Y0207535D01*
X0189477Y0207592D01*
X0190151Y0207634D01*
X0190825Y0207659D01*
X0191500Y0207667D01*
X0192175Y0207659D01*
X0192849Y0207634D01*
X0193523Y0207592D01*
X0194195Y0207535D01*
X0194866Y0207460D01*
X0195535Y0207369D01*
X0196201Y0207262D01*
X0196865Y0207139D01*
X0197525Y0206999D01*
X0198182Y0206843D01*
X0198835Y0206671D01*
X0199483Y0206483D01*
X0200126Y0206279D01*
X0200764Y0206059D01*
X0201397Y0205824D01*
X0202024Y0205574D01*
X0202644Y0205308D01*
X0203258Y0205027D01*
X0203864Y0204731D01*
X0204463Y0204420D01*
X0205055Y0204094D01*
X0205638Y0203755D01*
X0206212Y0203400D01*
X0206778Y0203032D01*
X0207335Y0202651D01*
X0207882Y0202255D01*
X0208419Y0201847D01*
X0208946Y0201425D01*
X0209462Y0200990D01*
X0209968Y0200543D01*
X0210462Y0200084D01*
X0210945Y0199612D01*
X0211417Y0199129D01*
X0211876Y0198635D01*
X0212323Y0198129D01*
X0212758Y0197613D01*
X0213180Y0197086D01*
X0213588Y0196549D01*
X0213984Y0196002D01*
X0214365Y0195445D01*
X0214733Y0194879D01*
X0215088Y0194305D01*
X0215427Y0193722D01*
X0215753Y0193130D01*
X0216064Y0192531D01*
X0216360Y0191925D01*
X0216641Y0191311D01*
X0216907Y0190691D01*
X0217157Y0190064D01*
X0217392Y0189431D01*
X0217612Y0188793D01*
X0217816Y0188150D01*
X0218004Y0187502D01*
X0218176Y0186849D01*
X0218332Y0186192D01*
X0218472Y0185532D01*
X0218595Y0184868D01*
X0218702Y0184202D01*
X0218793Y0183533D01*
X0218868Y0182862D01*
X0218925Y0182190D01*
X0218967Y0181516D01*
X0218992Y0180842D01*
X0219000Y0180167D01*
X0218992Y0179492D01*
X0218967Y0178818D01*
X0218925Y0178144D01*
X0218868Y0177472D01*
X0218793Y0176801D01*
X0218702Y0176132D01*
X0218595Y0175466D01*
X0218472Y0174802D01*
X0218332Y0174142D01*
X0218176Y0173485D01*
X0218004Y0172832D01*
X0217816Y0172184D01*
X0217612Y0171541D01*
X0217392Y0170903D01*
X0217157Y0170270D01*
X0216907Y0169643D01*
X0216641Y0169023D01*
X0216360Y0168409D01*
X0216064Y0167803D01*
X0215753Y0167204D01*
X0215427Y0166612D01*
X0215088Y0166029D01*
X0214733Y0165455D01*
X0214365Y0164889D01*
X0213984Y0164332D01*
X0213588Y0163785D01*
X0213180Y0163248D01*
X0212758Y0162721D01*
X0212323Y0162205D01*
X0211876Y0161699D01*
X0211417Y0161205D01*
X0210945Y0160722D01*
X0210462Y0160250D01*
X0209968Y0159791D01*
X0209462Y0159344D01*
X0208946Y0158909D01*
X0208419Y0158487D01*
X0207882Y0158079D01*
X0207335Y0157683D01*
X0206778Y0157302D01*
X0206212Y0156934D01*
X0205638Y0156579D01*
X0205055Y0156240D01*
X0204463Y0155914D01*
X0203864Y0155603D01*
X0203258Y0155307D01*
X0202644Y0155026D01*
X0202024Y0154760D01*
X0201397Y0154510D01*
X0200764Y0154275D01*
X0200126Y0154055D01*
X0199483Y0153851D01*
X0198835Y0153663D01*
X0198182Y0153491D01*
X0197525Y0153335D01*
X0196865Y0153195D01*
X0196201Y0153072D01*
X0195535Y0152965D01*
X0194866Y0152874D01*
X0194195Y0152799D01*
X0193523Y0152742D01*
X0192849Y0152700D01*
X0192175Y0152675D01*
X0191500Y0152667D01*
X0190825Y0152675D01*
X0190151Y0152700D01*
X0189477Y0152742D01*
X0188805Y0152799D01*
X0188134Y0152874D01*
X0187465Y0152965D01*
X0186799Y0153072D01*
X0186135Y0153195D01*
X0185475Y0153335D01*
X0184818Y0153491D01*
X0184165Y0153663D01*
X0183517Y0153851D01*
X0182874Y0154055D01*
X0182236Y0154275D01*
X0181603Y0154510D01*
X0180976Y0154760D01*
X0180356Y0155026D01*
X0179742Y0155307D01*
X0179136Y0155603D01*
X0178537Y0155914D01*
X0177945Y0156240D01*
X0177362Y0156579D01*
X0176788Y0156934D01*
X0176222Y0157302D01*
X0175665Y0157683D01*
X0175118Y0158079D01*
X0174581Y0158487D01*
X0174054Y0158909D01*
X0173538Y0159344D01*
X0173032Y0159791D01*
X0172538Y0160250D01*
X0172055Y0160722D01*
X0171583Y0161205D01*
X0171124Y0161699D01*
X0170677Y0162205D01*
X0170242Y0162721D01*
X0169820Y0163248D01*
X0169412Y0163785D01*
X0169016Y0164332D01*
X0168635Y0164889D01*
X0168267Y0165455D01*
X0167912Y0166029D01*
X0167573Y0166612D01*
X0167247Y0167204D01*
X0166936Y0167803D01*
X0166640Y0168409D01*
X0166359Y0169023D01*
X0166093Y0169643D01*
X0165843Y0170270D01*
X0165608Y0170903D01*
X0165388Y0171541D01*
X0165184Y0172184D01*
X0164996Y0172832D01*
X0164824Y0173485D01*
X0164668Y0174142D01*
X0164528Y0174802D01*
X0164405Y0175466D01*
X0164298Y0176132D01*
X0164207Y0176801D01*
X0164132Y0177472D01*
X0164075Y0178144D01*
X0164033Y0178818D01*
X0164008Y0179492D01*
X0164000Y0180167D01*
X0194000Y0180167D02*
X0196000Y0180167D01*
X0229000Y0185167D02*
X0234000Y0185167D01*
X0231500Y0182667D02*
X0231500Y0187667D01*
X0247000Y0185167D02*
X0248000Y0185167D01*
X0248000Y0190167D01*
X0250500Y0190167D01*
X0250500Y0180167D01*
X0248000Y0180167D01*
X0248000Y0185167D01*
X0224000Y0185167D02*
X0224008Y0185842D01*
X0224033Y0186516D01*
X0224075Y0187190D01*
X0224132Y0187862D01*
X0224207Y0188533D01*
X0224298Y0189202D01*
X0224405Y0189868D01*
X0224528Y0190532D01*
X0224668Y0191192D01*
X0224824Y0191849D01*
X0224996Y0192502D01*
X0225184Y0193150D01*
X0225388Y0193793D01*
X0225608Y0194431D01*
X0225843Y0195064D01*
X0226093Y0195691D01*
X0226359Y0196311D01*
X0226640Y0196925D01*
X0226936Y0197531D01*
X0227247Y0198130D01*
X0227573Y0198722D01*
X0227912Y0199305D01*
X0228267Y0199879D01*
X0228635Y0200445D01*
X0229016Y0201002D01*
X0229412Y0201549D01*
X0229820Y0202086D01*
X0230242Y0202613D01*
X0230677Y0203129D01*
X0231124Y0203635D01*
X0231583Y0204129D01*
X0232055Y0204612D01*
X0232538Y0205084D01*
X0233032Y0205543D01*
X0233538Y0205990D01*
X0234054Y0206425D01*
X0234581Y0206847D01*
X0235118Y0207255D01*
X0235665Y0207651D01*
X0236222Y0208032D01*
X0236788Y0208400D01*
X0237362Y0208755D01*
X0237945Y0209094D01*
X0238537Y0209420D01*
X0239136Y0209731D01*
X0239742Y0210027D01*
X0240356Y0210308D01*
X0240976Y0210574D01*
X0241603Y0210824D01*
X0242236Y0211059D01*
X0242874Y0211279D01*
X0243517Y0211483D01*
X0244165Y0211671D01*
X0244818Y0211843D01*
X0245475Y0211999D01*
X0246135Y0212139D01*
X0246799Y0212262D01*
X0247465Y0212369D01*
X0248134Y0212460D01*
X0248805Y0212535D01*
X0249477Y0212592D01*
X0250151Y0212634D01*
X0250825Y0212659D01*
X0251500Y0212667D01*
X0252175Y0212659D01*
X0252849Y0212634D01*
X0253523Y0212592D01*
X0254195Y0212535D01*
X0254866Y0212460D01*
X0255535Y0212369D01*
X0256201Y0212262D01*
X0256865Y0212139D01*
X0257525Y0211999D01*
X0258182Y0211843D01*
X0258835Y0211671D01*
X0259483Y0211483D01*
X0260126Y0211279D01*
X0260764Y0211059D01*
X0261397Y0210824D01*
X0262024Y0210574D01*
X0262644Y0210308D01*
X0263258Y0210027D01*
X0263864Y0209731D01*
X0264463Y0209420D01*
X0265055Y0209094D01*
X0265638Y0208755D01*
X0266212Y0208400D01*
X0266778Y0208032D01*
X0267335Y0207651D01*
X0267882Y0207255D01*
X0268419Y0206847D01*
X0268946Y0206425D01*
X0269462Y0205990D01*
X0269968Y0205543D01*
X0270462Y0205084D01*
X0270945Y0204612D01*
X0271417Y0204129D01*
X0271876Y0203635D01*
X0272323Y0203129D01*
X0272758Y0202613D01*
X0273180Y0202086D01*
X0273588Y0201549D01*
X0273984Y0201002D01*
X0274365Y0200445D01*
X0274733Y0199879D01*
X0275088Y0199305D01*
X0275427Y0198722D01*
X0275753Y0198130D01*
X0276064Y0197531D01*
X0276360Y0196925D01*
X0276641Y0196311D01*
X0276907Y0195691D01*
X0277157Y0195064D01*
X0277392Y0194431D01*
X0277612Y0193793D01*
X0277816Y0193150D01*
X0278004Y0192502D01*
X0278176Y0191849D01*
X0278332Y0191192D01*
X0278472Y0190532D01*
X0278595Y0189868D01*
X0278702Y0189202D01*
X0278793Y0188533D01*
X0278868Y0187862D01*
X0278925Y0187190D01*
X0278967Y0186516D01*
X0278992Y0185842D01*
X0279000Y0185167D01*
X0278992Y0184492D01*
X0278967Y0183818D01*
X0278925Y0183144D01*
X0278868Y0182472D01*
X0278793Y0181801D01*
X0278702Y0181132D01*
X0278595Y0180466D01*
X0278472Y0179802D01*
X0278332Y0179142D01*
X0278176Y0178485D01*
X0278004Y0177832D01*
X0277816Y0177184D01*
X0277612Y0176541D01*
X0277392Y0175903D01*
X0277157Y0175270D01*
X0276907Y0174643D01*
X0276641Y0174023D01*
X0276360Y0173409D01*
X0276064Y0172803D01*
X0275753Y0172204D01*
X0275427Y0171612D01*
X0275088Y0171029D01*
X0274733Y0170455D01*
X0274365Y0169889D01*
X0273984Y0169332D01*
X0273588Y0168785D01*
X0273180Y0168248D01*
X0272758Y0167721D01*
X0272323Y0167205D01*
X0271876Y0166699D01*
X0271417Y0166205D01*
X0270945Y0165722D01*
X0270462Y0165250D01*
X0269968Y0164791D01*
X0269462Y0164344D01*
X0268946Y0163909D01*
X0268419Y0163487D01*
X0267882Y0163079D01*
X0267335Y0162683D01*
X0266778Y0162302D01*
X0266212Y0161934D01*
X0265638Y0161579D01*
X0265055Y0161240D01*
X0264463Y0160914D01*
X0263864Y0160603D01*
X0263258Y0160307D01*
X0262644Y0160026D01*
X0262024Y0159760D01*
X0261397Y0159510D01*
X0260764Y0159275D01*
X0260126Y0159055D01*
X0259483Y0158851D01*
X0258835Y0158663D01*
X0258182Y0158491D01*
X0257525Y0158335D01*
X0256865Y0158195D01*
X0256201Y0158072D01*
X0255535Y0157965D01*
X0254866Y0157874D01*
X0254195Y0157799D01*
X0253523Y0157742D01*
X0252849Y0157700D01*
X0252175Y0157675D01*
X0251500Y0157667D01*
X0250825Y0157675D01*
X0250151Y0157700D01*
X0249477Y0157742D01*
X0248805Y0157799D01*
X0248134Y0157874D01*
X0247465Y0157965D01*
X0246799Y0158072D01*
X0246135Y0158195D01*
X0245475Y0158335D01*
X0244818Y0158491D01*
X0244165Y0158663D01*
X0243517Y0158851D01*
X0242874Y0159055D01*
X0242236Y0159275D01*
X0241603Y0159510D01*
X0240976Y0159760D01*
X0240356Y0160026D01*
X0239742Y0160307D01*
X0239136Y0160603D01*
X0238537Y0160914D01*
X0237945Y0161240D01*
X0237362Y0161579D01*
X0236788Y0161934D01*
X0236222Y0162302D01*
X0235665Y0162683D01*
X0235118Y0163079D01*
X0234581Y0163487D01*
X0234054Y0163909D01*
X0233538Y0164344D01*
X0233032Y0164791D01*
X0232538Y0165250D01*
X0232055Y0165722D01*
X0231583Y0166205D01*
X0231124Y0166699D01*
X0230677Y0167205D01*
X0230242Y0167721D01*
X0229820Y0168248D01*
X0229412Y0168785D01*
X0229016Y0169332D01*
X0228635Y0169889D01*
X0228267Y0170455D01*
X0227912Y0171029D01*
X0227573Y0171612D01*
X0227247Y0172204D01*
X0226936Y0172803D01*
X0226640Y0173409D01*
X0226359Y0174023D01*
X0226093Y0174643D01*
X0225843Y0175270D01*
X0225608Y0175903D01*
X0225388Y0176541D01*
X0225184Y0177184D01*
X0224996Y0177832D01*
X0224824Y0178485D01*
X0224668Y0179142D01*
X0224528Y0179802D01*
X0224405Y0180466D01*
X0224298Y0181132D01*
X0224207Y0181801D01*
X0224132Y0182472D01*
X0224075Y0183144D01*
X0224033Y0183818D01*
X0224008Y0184492D01*
X0224000Y0185167D01*
X0254000Y0185167D02*
X0256000Y0185167D01*
X0213500Y0152167D02*
X0210500Y0152167D01*
X0212000Y0150667D02*
X0212000Y0153667D01*
X0208000Y0147667D02*
X0208005Y0148060D01*
X0208019Y0148452D01*
X0208043Y0148844D01*
X0208077Y0149235D01*
X0208120Y0149626D01*
X0208173Y0150015D01*
X0208236Y0150402D01*
X0208307Y0150788D01*
X0208389Y0151173D01*
X0208479Y0151555D01*
X0208580Y0151934D01*
X0208689Y0152312D01*
X0208808Y0152686D01*
X0208935Y0153057D01*
X0209072Y0153425D01*
X0209218Y0153790D01*
X0209373Y0154151D01*
X0209536Y0154508D01*
X0209708Y0154861D01*
X0209889Y0155209D01*
X0210079Y0155553D01*
X0210276Y0155893D01*
X0210482Y0156227D01*
X0210696Y0156556D01*
X0210919Y0156880D01*
X0211149Y0157198D01*
X0211386Y0157511D01*
X0211632Y0157817D01*
X0211885Y0158118D01*
X0212145Y0158412D01*
X0212412Y0158700D01*
X0212686Y0158981D01*
X0212967Y0159255D01*
X0213255Y0159522D01*
X0213549Y0159782D01*
X0213850Y0160035D01*
X0214156Y0160281D01*
X0214469Y0160518D01*
X0214787Y0160748D01*
X0215111Y0160971D01*
X0215440Y0161185D01*
X0215774Y0161391D01*
X0216114Y0161588D01*
X0216458Y0161778D01*
X0216806Y0161959D01*
X0217159Y0162131D01*
X0217516Y0162294D01*
X0217877Y0162449D01*
X0218242Y0162595D01*
X0218610Y0162732D01*
X0218981Y0162859D01*
X0219355Y0162978D01*
X0219733Y0163087D01*
X0220112Y0163188D01*
X0220494Y0163278D01*
X0220879Y0163360D01*
X0221265Y0163431D01*
X0221652Y0163494D01*
X0222041Y0163547D01*
X0222432Y0163590D01*
X0222823Y0163624D01*
X0223215Y0163648D01*
X0223607Y0163662D01*
X0224000Y0163667D01*
X0224393Y0163662D01*
X0224785Y0163648D01*
X0225177Y0163624D01*
X0225568Y0163590D01*
X0225959Y0163547D01*
X0226348Y0163494D01*
X0226735Y0163431D01*
X0227121Y0163360D01*
X0227506Y0163278D01*
X0227888Y0163188D01*
X0228267Y0163087D01*
X0228645Y0162978D01*
X0229019Y0162859D01*
X0229390Y0162732D01*
X0229758Y0162595D01*
X0230123Y0162449D01*
X0230484Y0162294D01*
X0230841Y0162131D01*
X0231194Y0161959D01*
X0231542Y0161778D01*
X0231886Y0161588D01*
X0232226Y0161391D01*
X0232560Y0161185D01*
X0232889Y0160971D01*
X0233213Y0160748D01*
X0233531Y0160518D01*
X0233844Y0160281D01*
X0234150Y0160035D01*
X0234451Y0159782D01*
X0234745Y0159522D01*
X0235033Y0159255D01*
X0235314Y0158981D01*
X0235588Y0158700D01*
X0235855Y0158412D01*
X0236115Y0158118D01*
X0236368Y0157817D01*
X0236614Y0157511D01*
X0236851Y0157198D01*
X0237081Y0156880D01*
X0237304Y0156556D01*
X0237518Y0156227D01*
X0237724Y0155893D01*
X0237921Y0155553D01*
X0238111Y0155209D01*
X0238292Y0154861D01*
X0238464Y0154508D01*
X0238627Y0154151D01*
X0238782Y0153790D01*
X0238928Y0153425D01*
X0239065Y0153057D01*
X0239192Y0152686D01*
X0239311Y0152312D01*
X0239420Y0151934D01*
X0239521Y0151555D01*
X0239611Y0151173D01*
X0239693Y0150788D01*
X0239764Y0150402D01*
X0239827Y0150015D01*
X0239880Y0149626D01*
X0239923Y0149235D01*
X0239957Y0148844D01*
X0239981Y0148452D01*
X0239995Y0148060D01*
X0240000Y0147667D01*
X0239995Y0147274D01*
X0239981Y0146882D01*
X0239957Y0146490D01*
X0239923Y0146099D01*
X0239880Y0145708D01*
X0239827Y0145319D01*
X0239764Y0144932D01*
X0239693Y0144546D01*
X0239611Y0144161D01*
X0239521Y0143779D01*
X0239420Y0143400D01*
X0239311Y0143022D01*
X0239192Y0142648D01*
X0239065Y0142277D01*
X0238928Y0141909D01*
X0238782Y0141544D01*
X0238627Y0141183D01*
X0238464Y0140826D01*
X0238292Y0140473D01*
X0238111Y0140125D01*
X0237921Y0139781D01*
X0237724Y0139441D01*
X0237518Y0139107D01*
X0237304Y0138778D01*
X0237081Y0138454D01*
X0236851Y0138136D01*
X0236614Y0137823D01*
X0236368Y0137517D01*
X0236115Y0137216D01*
X0235855Y0136922D01*
X0235588Y0136634D01*
X0235314Y0136353D01*
X0235033Y0136079D01*
X0234745Y0135812D01*
X0234451Y0135552D01*
X0234150Y0135299D01*
X0233844Y0135053D01*
X0233531Y0134816D01*
X0233213Y0134586D01*
X0232889Y0134363D01*
X0232560Y0134149D01*
X0232226Y0133943D01*
X0231886Y0133746D01*
X0231542Y0133556D01*
X0231194Y0133375D01*
X0230841Y0133203D01*
X0230484Y0133040D01*
X0230123Y0132885D01*
X0229758Y0132739D01*
X0229390Y0132602D01*
X0229019Y0132475D01*
X0228645Y0132356D01*
X0228267Y0132247D01*
X0227888Y0132146D01*
X0227506Y0132056D01*
X0227121Y0131974D01*
X0226735Y0131903D01*
X0226348Y0131840D01*
X0225959Y0131787D01*
X0225568Y0131744D01*
X0225177Y0131710D01*
X0224785Y0131686D01*
X0224393Y0131672D01*
X0224000Y0131667D01*
X0223607Y0131672D01*
X0223215Y0131686D01*
X0222823Y0131710D01*
X0222432Y0131744D01*
X0222041Y0131787D01*
X0221652Y0131840D01*
X0221265Y0131903D01*
X0220879Y0131974D01*
X0220494Y0132056D01*
X0220112Y0132146D01*
X0219733Y0132247D01*
X0219355Y0132356D01*
X0218981Y0132475D01*
X0218610Y0132602D01*
X0218242Y0132739D01*
X0217877Y0132885D01*
X0217516Y0133040D01*
X0217159Y0133203D01*
X0216806Y0133375D01*
X0216458Y0133556D01*
X0216114Y0133746D01*
X0215774Y0133943D01*
X0215440Y0134149D01*
X0215111Y0134363D01*
X0214787Y0134586D01*
X0214469Y0134816D01*
X0214156Y0135053D01*
X0213850Y0135299D01*
X0213549Y0135552D01*
X0213255Y0135812D01*
X0212967Y0136079D01*
X0212686Y0136353D01*
X0212412Y0136634D01*
X0212145Y0136922D01*
X0211885Y0137216D01*
X0211632Y0137517D01*
X0211386Y0137823D01*
X0211149Y0138136D01*
X0210919Y0138454D01*
X0210696Y0138778D01*
X0210482Y0139107D01*
X0210276Y0139441D01*
X0210079Y0139781D01*
X0209889Y0140125D01*
X0209708Y0140473D01*
X0209536Y0140826D01*
X0209373Y0141183D01*
X0209218Y0141544D01*
X0209072Y0141909D01*
X0208935Y0142277D01*
X0208808Y0142648D01*
X0208689Y0143022D01*
X0208580Y0143400D01*
X0208479Y0143779D01*
X0208389Y0144161D01*
X0208307Y0144546D01*
X0208236Y0144932D01*
X0208173Y0145319D01*
X0208120Y0145708D01*
X0208077Y0146099D01*
X0208043Y0146490D01*
X0208019Y0146882D01*
X0208005Y0147274D01*
X0208000Y0147667D01*
X0243000Y0140167D02*
X0243005Y0140560D01*
X0243019Y0140952D01*
X0243043Y0141344D01*
X0243077Y0141735D01*
X0243120Y0142126D01*
X0243173Y0142515D01*
X0243236Y0142902D01*
X0243307Y0143288D01*
X0243389Y0143673D01*
X0243479Y0144055D01*
X0243580Y0144434D01*
X0243689Y0144812D01*
X0243808Y0145186D01*
X0243935Y0145557D01*
X0244072Y0145925D01*
X0244218Y0146290D01*
X0244373Y0146651D01*
X0244536Y0147008D01*
X0244708Y0147361D01*
X0244889Y0147709D01*
X0245079Y0148053D01*
X0245276Y0148393D01*
X0245482Y0148727D01*
X0245696Y0149056D01*
X0245919Y0149380D01*
X0246149Y0149698D01*
X0246386Y0150011D01*
X0246632Y0150317D01*
X0246885Y0150618D01*
X0247145Y0150912D01*
X0247412Y0151200D01*
X0247686Y0151481D01*
X0247967Y0151755D01*
X0248255Y0152022D01*
X0248549Y0152282D01*
X0248850Y0152535D01*
X0249156Y0152781D01*
X0249469Y0153018D01*
X0249787Y0153248D01*
X0250111Y0153471D01*
X0250440Y0153685D01*
X0250774Y0153891D01*
X0251114Y0154088D01*
X0251458Y0154278D01*
X0251806Y0154459D01*
X0252159Y0154631D01*
X0252516Y0154794D01*
X0252877Y0154949D01*
X0253242Y0155095D01*
X0253610Y0155232D01*
X0253981Y0155359D01*
X0254355Y0155478D01*
X0254733Y0155587D01*
X0255112Y0155688D01*
X0255494Y0155778D01*
X0255879Y0155860D01*
X0256265Y0155931D01*
X0256652Y0155994D01*
X0257041Y0156047D01*
X0257432Y0156090D01*
X0257823Y0156124D01*
X0258215Y0156148D01*
X0258607Y0156162D01*
X0259000Y0156167D01*
X0259393Y0156162D01*
X0259785Y0156148D01*
X0260177Y0156124D01*
X0260568Y0156090D01*
X0260959Y0156047D01*
X0261348Y0155994D01*
X0261735Y0155931D01*
X0262121Y0155860D01*
X0262506Y0155778D01*
X0262888Y0155688D01*
X0263267Y0155587D01*
X0263645Y0155478D01*
X0264019Y0155359D01*
X0264390Y0155232D01*
X0264758Y0155095D01*
X0265123Y0154949D01*
X0265484Y0154794D01*
X0265841Y0154631D01*
X0266194Y0154459D01*
X0266542Y0154278D01*
X0266886Y0154088D01*
X0267226Y0153891D01*
X0267560Y0153685D01*
X0267889Y0153471D01*
X0268213Y0153248D01*
X0268531Y0153018D01*
X0268844Y0152781D01*
X0269150Y0152535D01*
X0269451Y0152282D01*
X0269745Y0152022D01*
X0270033Y0151755D01*
X0270314Y0151481D01*
X0270588Y0151200D01*
X0270855Y0150912D01*
X0271115Y0150618D01*
X0271368Y0150317D01*
X0271614Y0150011D01*
X0271851Y0149698D01*
X0272081Y0149380D01*
X0272304Y0149056D01*
X0272518Y0148727D01*
X0272724Y0148393D01*
X0272921Y0148053D01*
X0273111Y0147709D01*
X0273292Y0147361D01*
X0273464Y0147008D01*
X0273627Y0146651D01*
X0273782Y0146290D01*
X0273928Y0145925D01*
X0274065Y0145557D01*
X0274192Y0145186D01*
X0274311Y0144812D01*
X0274420Y0144434D01*
X0274521Y0144055D01*
X0274611Y0143673D01*
X0274693Y0143288D01*
X0274764Y0142902D01*
X0274827Y0142515D01*
X0274880Y0142126D01*
X0274923Y0141735D01*
X0274957Y0141344D01*
X0274981Y0140952D01*
X0274995Y0140560D01*
X0275000Y0140167D01*
X0274995Y0139774D01*
X0274981Y0139382D01*
X0274957Y0138990D01*
X0274923Y0138599D01*
X0274880Y0138208D01*
X0274827Y0137819D01*
X0274764Y0137432D01*
X0274693Y0137046D01*
X0274611Y0136661D01*
X0274521Y0136279D01*
X0274420Y0135900D01*
X0274311Y0135522D01*
X0274192Y0135148D01*
X0274065Y0134777D01*
X0273928Y0134409D01*
X0273782Y0134044D01*
X0273627Y0133683D01*
X0273464Y0133326D01*
X0273292Y0132973D01*
X0273111Y0132625D01*
X0272921Y0132281D01*
X0272724Y0131941D01*
X0272518Y0131607D01*
X0272304Y0131278D01*
X0272081Y0130954D01*
X0271851Y0130636D01*
X0271614Y0130323D01*
X0271368Y0130017D01*
X0271115Y0129716D01*
X0270855Y0129422D01*
X0270588Y0129134D01*
X0270314Y0128853D01*
X0270033Y0128579D01*
X0269745Y0128312D01*
X0269451Y0128052D01*
X0269150Y0127799D01*
X0268844Y0127553D01*
X0268531Y0127316D01*
X0268213Y0127086D01*
X0267889Y0126863D01*
X0267560Y0126649D01*
X0267226Y0126443D01*
X0266886Y0126246D01*
X0266542Y0126056D01*
X0266194Y0125875D01*
X0265841Y0125703D01*
X0265484Y0125540D01*
X0265123Y0125385D01*
X0264758Y0125239D01*
X0264390Y0125102D01*
X0264019Y0124975D01*
X0263645Y0124856D01*
X0263267Y0124747D01*
X0262888Y0124646D01*
X0262506Y0124556D01*
X0262121Y0124474D01*
X0261735Y0124403D01*
X0261348Y0124340D01*
X0260959Y0124287D01*
X0260568Y0124244D01*
X0260177Y0124210D01*
X0259785Y0124186D01*
X0259393Y0124172D01*
X0259000Y0124167D01*
X0258607Y0124172D01*
X0258215Y0124186D01*
X0257823Y0124210D01*
X0257432Y0124244D01*
X0257041Y0124287D01*
X0256652Y0124340D01*
X0256265Y0124403D01*
X0255879Y0124474D01*
X0255494Y0124556D01*
X0255112Y0124646D01*
X0254733Y0124747D01*
X0254355Y0124856D01*
X0253981Y0124975D01*
X0253610Y0125102D01*
X0253242Y0125239D01*
X0252877Y0125385D01*
X0252516Y0125540D01*
X0252159Y0125703D01*
X0251806Y0125875D01*
X0251458Y0126056D01*
X0251114Y0126246D01*
X0250774Y0126443D01*
X0250440Y0126649D01*
X0250111Y0126863D01*
X0249787Y0127086D01*
X0249469Y0127316D01*
X0249156Y0127553D01*
X0248850Y0127799D01*
X0248549Y0128052D01*
X0248255Y0128312D01*
X0247967Y0128579D01*
X0247686Y0128853D01*
X0247412Y0129134D01*
X0247145Y0129422D01*
X0246885Y0129716D01*
X0246632Y0130017D01*
X0246386Y0130323D01*
X0246149Y0130636D01*
X0245919Y0130954D01*
X0245696Y0131278D01*
X0245482Y0131607D01*
X0245276Y0131941D01*
X0245079Y0132281D01*
X0244889Y0132625D01*
X0244708Y0132973D01*
X0244536Y0133326D01*
X0244373Y0133683D01*
X0244218Y0134044D01*
X0244072Y0134409D01*
X0243935Y0134777D01*
X0243808Y0135148D01*
X0243689Y0135522D01*
X0243580Y0135900D01*
X0243479Y0136279D01*
X0243389Y0136661D01*
X0243307Y0137046D01*
X0243236Y0137432D01*
X0243173Y0137819D01*
X0243120Y0138208D01*
X0243077Y0138599D01*
X0243043Y0138990D01*
X0243019Y0139382D01*
X0243005Y0139774D01*
X0243000Y0140167D01*
X0269500Y0135667D02*
X0272500Y0135667D01*
X0271000Y0137167D02*
X0271000Y0134167D01*
X0258000Y0100167D02*
X0255500Y0100167D01*
X0255500Y0095167D01*
X0255500Y0090167D01*
X0258000Y0090167D01*
X0258000Y0100167D01*
X0231500Y0095167D02*
X0231508Y0095842D01*
X0231533Y0096516D01*
X0231575Y0097190D01*
X0231632Y0097862D01*
X0231707Y0098533D01*
X0231798Y0099202D01*
X0231905Y0099868D01*
X0232028Y0100532D01*
X0232168Y0101192D01*
X0232324Y0101849D01*
X0232496Y0102502D01*
X0232684Y0103150D01*
X0232888Y0103793D01*
X0233108Y0104431D01*
X0233343Y0105064D01*
X0233593Y0105691D01*
X0233859Y0106311D01*
X0234140Y0106925D01*
X0234436Y0107531D01*
X0234747Y0108130D01*
X0235073Y0108722D01*
X0235412Y0109305D01*
X0235767Y0109879D01*
X0236135Y0110445D01*
X0236516Y0111002D01*
X0236912Y0111549D01*
X0237320Y0112086D01*
X0237742Y0112613D01*
X0238177Y0113129D01*
X0238624Y0113635D01*
X0239083Y0114129D01*
X0239555Y0114612D01*
X0240038Y0115084D01*
X0240532Y0115543D01*
X0241038Y0115990D01*
X0241554Y0116425D01*
X0242081Y0116847D01*
X0242618Y0117255D01*
X0243165Y0117651D01*
X0243722Y0118032D01*
X0244288Y0118400D01*
X0244862Y0118755D01*
X0245445Y0119094D01*
X0246037Y0119420D01*
X0246636Y0119731D01*
X0247242Y0120027D01*
X0247856Y0120308D01*
X0248476Y0120574D01*
X0249103Y0120824D01*
X0249736Y0121059D01*
X0250374Y0121279D01*
X0251017Y0121483D01*
X0251665Y0121671D01*
X0252318Y0121843D01*
X0252975Y0121999D01*
X0253635Y0122139D01*
X0254299Y0122262D01*
X0254965Y0122369D01*
X0255634Y0122460D01*
X0256305Y0122535D01*
X0256977Y0122592D01*
X0257651Y0122634D01*
X0258325Y0122659D01*
X0259000Y0122667D01*
X0259675Y0122659D01*
X0260349Y0122634D01*
X0261023Y0122592D01*
X0261695Y0122535D01*
X0262366Y0122460D01*
X0263035Y0122369D01*
X0263701Y0122262D01*
X0264365Y0122139D01*
X0265025Y0121999D01*
X0265682Y0121843D01*
X0266335Y0121671D01*
X0266983Y0121483D01*
X0267626Y0121279D01*
X0268264Y0121059D01*
X0268897Y0120824D01*
X0269524Y0120574D01*
X0270144Y0120308D01*
X0270758Y0120027D01*
X0271364Y0119731D01*
X0271963Y0119420D01*
X0272555Y0119094D01*
X0273138Y0118755D01*
X0273712Y0118400D01*
X0274278Y0118032D01*
X0274835Y0117651D01*
X0275382Y0117255D01*
X0275919Y0116847D01*
X0276446Y0116425D01*
X0276962Y0115990D01*
X0277468Y0115543D01*
X0277962Y0115084D01*
X0278445Y0114612D01*
X0278917Y0114129D01*
X0279376Y0113635D01*
X0279823Y0113129D01*
X0280258Y0112613D01*
X0280680Y0112086D01*
X0281088Y0111549D01*
X0281484Y0111002D01*
X0281865Y0110445D01*
X0282233Y0109879D01*
X0282588Y0109305D01*
X0282927Y0108722D01*
X0283253Y0108130D01*
X0283564Y0107531D01*
X0283860Y0106925D01*
X0284141Y0106311D01*
X0284407Y0105691D01*
X0284657Y0105064D01*
X0284892Y0104431D01*
X0285112Y0103793D01*
X0285316Y0103150D01*
X0285504Y0102502D01*
X0285676Y0101849D01*
X0285832Y0101192D01*
X0285972Y0100532D01*
X0286095Y0099868D01*
X0286202Y0099202D01*
X0286293Y0098533D01*
X0286368Y0097862D01*
X0286425Y0097190D01*
X0286467Y0096516D01*
X0286492Y0095842D01*
X0286500Y0095167D01*
X0286492Y0094492D01*
X0286467Y0093818D01*
X0286425Y0093144D01*
X0286368Y0092472D01*
X0286293Y0091801D01*
X0286202Y0091132D01*
X0286095Y0090466D01*
X0285972Y0089802D01*
X0285832Y0089142D01*
X0285676Y0088485D01*
X0285504Y0087832D01*
X0285316Y0087184D01*
X0285112Y0086541D01*
X0284892Y0085903D01*
X0284657Y0085270D01*
X0284407Y0084643D01*
X0284141Y0084023D01*
X0283860Y0083409D01*
X0283564Y0082803D01*
X0283253Y0082204D01*
X0282927Y0081612D01*
X0282588Y0081029D01*
X0282233Y0080455D01*
X0281865Y0079889D01*
X0281484Y0079332D01*
X0281088Y0078785D01*
X0280680Y0078248D01*
X0280258Y0077721D01*
X0279823Y0077205D01*
X0279376Y0076699D01*
X0278917Y0076205D01*
X0278445Y0075722D01*
X0277962Y0075250D01*
X0277468Y0074791D01*
X0276962Y0074344D01*
X0276446Y0073909D01*
X0275919Y0073487D01*
X0275382Y0073079D01*
X0274835Y0072683D01*
X0274278Y0072302D01*
X0273712Y0071934D01*
X0273138Y0071579D01*
X0272555Y0071240D01*
X0271963Y0070914D01*
X0271364Y0070603D01*
X0270758Y0070307D01*
X0270144Y0070026D01*
X0269524Y0069760D01*
X0268897Y0069510D01*
X0268264Y0069275D01*
X0267626Y0069055D01*
X0266983Y0068851D01*
X0266335Y0068663D01*
X0265682Y0068491D01*
X0265025Y0068335D01*
X0264365Y0068195D01*
X0263701Y0068072D01*
X0263035Y0067965D01*
X0262366Y0067874D01*
X0261695Y0067799D01*
X0261023Y0067742D01*
X0260349Y0067700D01*
X0259675Y0067675D01*
X0259000Y0067667D01*
X0258325Y0067675D01*
X0257651Y0067700D01*
X0256977Y0067742D01*
X0256305Y0067799D01*
X0255634Y0067874D01*
X0254965Y0067965D01*
X0254299Y0068072D01*
X0253635Y0068195D01*
X0252975Y0068335D01*
X0252318Y0068491D01*
X0251665Y0068663D01*
X0251017Y0068851D01*
X0250374Y0069055D01*
X0249736Y0069275D01*
X0249103Y0069510D01*
X0248476Y0069760D01*
X0247856Y0070026D01*
X0247242Y0070307D01*
X0246636Y0070603D01*
X0246037Y0070914D01*
X0245445Y0071240D01*
X0244862Y0071579D01*
X0244288Y0071934D01*
X0243722Y0072302D01*
X0243165Y0072683D01*
X0242618Y0073079D01*
X0242081Y0073487D01*
X0241554Y0073909D01*
X0241038Y0074344D01*
X0240532Y0074791D01*
X0240038Y0075250D01*
X0239555Y0075722D01*
X0239083Y0076205D01*
X0238624Y0076699D01*
X0238177Y0077205D01*
X0237742Y0077721D01*
X0237320Y0078248D01*
X0236912Y0078785D01*
X0236516Y0079332D01*
X0236135Y0079889D01*
X0235767Y0080455D01*
X0235412Y0081029D01*
X0235073Y0081612D01*
X0234747Y0082204D01*
X0234436Y0082803D01*
X0234140Y0083409D01*
X0233859Y0084023D01*
X0233593Y0084643D01*
X0233343Y0085270D01*
X0233108Y0085903D01*
X0232888Y0086541D01*
X0232684Y0087184D01*
X0232496Y0087832D01*
X0232324Y0088485D01*
X0232168Y0089142D01*
X0232028Y0089802D01*
X0231905Y0090466D01*
X0231798Y0091132D01*
X0231707Y0091801D01*
X0231632Y0092472D01*
X0231575Y0093144D01*
X0231533Y0093818D01*
X0231508Y0094492D01*
X0231500Y0095167D01*
X0236500Y0095167D02*
X0241500Y0095167D01*
X0239000Y0092667D02*
X0239000Y0097667D01*
X0254500Y0095167D02*
X0255500Y0095167D01*
X0261500Y0095167D02*
X0263500Y0095167D01*
X0286500Y0082667D02*
X0289000Y0085167D01*
X0294000Y0085167D01*
X0296500Y0082667D01*
X0296500Y0077667D01*
X0294000Y0075167D01*
X0289000Y0075167D01*
X0286500Y0077667D01*
X0286500Y0082667D01*
X0276066Y0063199D02*
X0273130Y0063199D01*
X0272396Y0062465D01*
X0272396Y0060263D01*
X0276800Y0060263D01*
X0276800Y0062465D01*
X0276066Y0063199D01*
X0276800Y0058595D02*
X0272396Y0058595D01*
X0272396Y0055659D02*
X0276800Y0058595D01*
X0276800Y0055659D02*
X0272396Y0055659D01*
X0273130Y0053991D02*
X0272396Y0053257D01*
X0272396Y0051789D01*
X0273130Y0051055D01*
X0276066Y0051055D01*
X0276800Y0051789D01*
X0276800Y0053257D01*
X0276066Y0053991D01*
X0274598Y0053991D01*
X0274598Y0052523D01*
X0277534Y0049387D02*
X0277534Y0046451D01*
X0272396Y0044783D02*
X0272396Y0041847D01*
X0272396Y0043315D02*
X0276800Y0043315D01*
X0276066Y0040179D02*
X0273130Y0040179D01*
X0272396Y0039445D01*
X0272396Y0037977D01*
X0273130Y0037243D01*
X0276066Y0037243D01*
X0276800Y0037977D01*
X0276800Y0039445D01*
X0276066Y0040179D01*
X0276800Y0035575D02*
X0272396Y0035575D01*
X0273864Y0034107D01*
X0272396Y0032639D01*
X0276800Y0032639D01*
X0201500Y0085167D02*
X0201500Y0090167D01*
X0204000Y0087667D02*
X0199000Y0087667D01*
X0201500Y0103167D02*
X0201500Y0104167D01*
X0196500Y0104167D01*
X0196500Y0106667D01*
X0206500Y0106667D01*
X0206500Y0104167D01*
X0201500Y0104167D01*
X0174000Y0107667D02*
X0174008Y0108342D01*
X0174033Y0109016D01*
X0174075Y0109690D01*
X0174132Y0110362D01*
X0174207Y0111033D01*
X0174298Y0111702D01*
X0174405Y0112368D01*
X0174528Y0113032D01*
X0174668Y0113692D01*
X0174824Y0114349D01*
X0174996Y0115002D01*
X0175184Y0115650D01*
X0175388Y0116293D01*
X0175608Y0116931D01*
X0175843Y0117564D01*
X0176093Y0118191D01*
X0176359Y0118811D01*
X0176640Y0119425D01*
X0176936Y0120031D01*
X0177247Y0120630D01*
X0177573Y0121222D01*
X0177912Y0121805D01*
X0178267Y0122379D01*
X0178635Y0122945D01*
X0179016Y0123502D01*
X0179412Y0124049D01*
X0179820Y0124586D01*
X0180242Y0125113D01*
X0180677Y0125629D01*
X0181124Y0126135D01*
X0181583Y0126629D01*
X0182055Y0127112D01*
X0182538Y0127584D01*
X0183032Y0128043D01*
X0183538Y0128490D01*
X0184054Y0128925D01*
X0184581Y0129347D01*
X0185118Y0129755D01*
X0185665Y0130151D01*
X0186222Y0130532D01*
X0186788Y0130900D01*
X0187362Y0131255D01*
X0187945Y0131594D01*
X0188537Y0131920D01*
X0189136Y0132231D01*
X0189742Y0132527D01*
X0190356Y0132808D01*
X0190976Y0133074D01*
X0191603Y0133324D01*
X0192236Y0133559D01*
X0192874Y0133779D01*
X0193517Y0133983D01*
X0194165Y0134171D01*
X0194818Y0134343D01*
X0195475Y0134499D01*
X0196135Y0134639D01*
X0196799Y0134762D01*
X0197465Y0134869D01*
X0198134Y0134960D01*
X0198805Y0135035D01*
X0199477Y0135092D01*
X0200151Y0135134D01*
X0200825Y0135159D01*
X0201500Y0135167D01*
X0202175Y0135159D01*
X0202849Y0135134D01*
X0203523Y0135092D01*
X0204195Y0135035D01*
X0204866Y0134960D01*
X0205535Y0134869D01*
X0206201Y0134762D01*
X0206865Y0134639D01*
X0207525Y0134499D01*
X0208182Y0134343D01*
X0208835Y0134171D01*
X0209483Y0133983D01*
X0210126Y0133779D01*
X0210764Y0133559D01*
X0211397Y0133324D01*
X0212024Y0133074D01*
X0212644Y0132808D01*
X0213258Y0132527D01*
X0213864Y0132231D01*
X0214463Y0131920D01*
X0215055Y0131594D01*
X0215638Y0131255D01*
X0216212Y0130900D01*
X0216778Y0130532D01*
X0217335Y0130151D01*
X0217882Y0129755D01*
X0218419Y0129347D01*
X0218946Y0128925D01*
X0219462Y0128490D01*
X0219968Y0128043D01*
X0220462Y0127584D01*
X0220945Y0127112D01*
X0221417Y0126629D01*
X0221876Y0126135D01*
X0222323Y0125629D01*
X0222758Y0125113D01*
X0223180Y0124586D01*
X0223588Y0124049D01*
X0223984Y0123502D01*
X0224365Y0122945D01*
X0224733Y0122379D01*
X0225088Y0121805D01*
X0225427Y0121222D01*
X0225753Y0120630D01*
X0226064Y0120031D01*
X0226360Y0119425D01*
X0226641Y0118811D01*
X0226907Y0118191D01*
X0227157Y0117564D01*
X0227392Y0116931D01*
X0227612Y0116293D01*
X0227816Y0115650D01*
X0228004Y0115002D01*
X0228176Y0114349D01*
X0228332Y0113692D01*
X0228472Y0113032D01*
X0228595Y0112368D01*
X0228702Y0111702D01*
X0228793Y0111033D01*
X0228868Y0110362D01*
X0228925Y0109690D01*
X0228967Y0109016D01*
X0228992Y0108342D01*
X0229000Y0107667D01*
X0228992Y0106992D01*
X0228967Y0106318D01*
X0228925Y0105644D01*
X0228868Y0104972D01*
X0228793Y0104301D01*
X0228702Y0103632D01*
X0228595Y0102966D01*
X0228472Y0102302D01*
X0228332Y0101642D01*
X0228176Y0100985D01*
X0228004Y0100332D01*
X0227816Y0099684D01*
X0227612Y0099041D01*
X0227392Y0098403D01*
X0227157Y0097770D01*
X0226907Y0097143D01*
X0226641Y0096523D01*
X0226360Y0095909D01*
X0226064Y0095303D01*
X0225753Y0094704D01*
X0225427Y0094112D01*
X0225088Y0093529D01*
X0224733Y0092955D01*
X0224365Y0092389D01*
X0223984Y0091832D01*
X0223588Y0091285D01*
X0223180Y0090748D01*
X0222758Y0090221D01*
X0222323Y0089705D01*
X0221876Y0089199D01*
X0221417Y0088705D01*
X0220945Y0088222D01*
X0220462Y0087750D01*
X0219968Y0087291D01*
X0219462Y0086844D01*
X0218946Y0086409D01*
X0218419Y0085987D01*
X0217882Y0085579D01*
X0217335Y0085183D01*
X0216778Y0084802D01*
X0216212Y0084434D01*
X0215638Y0084079D01*
X0215055Y0083740D01*
X0214463Y0083414D01*
X0213864Y0083103D01*
X0213258Y0082807D01*
X0212644Y0082526D01*
X0212024Y0082260D01*
X0211397Y0082010D01*
X0210764Y0081775D01*
X0210126Y0081555D01*
X0209483Y0081351D01*
X0208835Y0081163D01*
X0208182Y0080991D01*
X0207525Y0080835D01*
X0206865Y0080695D01*
X0206201Y0080572D01*
X0205535Y0080465D01*
X0204866Y0080374D01*
X0204195Y0080299D01*
X0203523Y0080242D01*
X0202849Y0080200D01*
X0202175Y0080175D01*
X0201500Y0080167D01*
X0200825Y0080175D01*
X0200151Y0080200D01*
X0199477Y0080242D01*
X0198805Y0080299D01*
X0198134Y0080374D01*
X0197465Y0080465D01*
X0196799Y0080572D01*
X0196135Y0080695D01*
X0195475Y0080835D01*
X0194818Y0080991D01*
X0194165Y0081163D01*
X0193517Y0081351D01*
X0192874Y0081555D01*
X0192236Y0081775D01*
X0191603Y0082010D01*
X0190976Y0082260D01*
X0190356Y0082526D01*
X0189742Y0082807D01*
X0189136Y0083103D01*
X0188537Y0083414D01*
X0187945Y0083740D01*
X0187362Y0084079D01*
X0186788Y0084434D01*
X0186222Y0084802D01*
X0185665Y0085183D01*
X0185118Y0085579D01*
X0184581Y0085987D01*
X0184054Y0086409D01*
X0183538Y0086844D01*
X0183032Y0087291D01*
X0182538Y0087750D01*
X0182055Y0088222D01*
X0181583Y0088705D01*
X0181124Y0089199D01*
X0180677Y0089705D01*
X0180242Y0090221D01*
X0179820Y0090748D01*
X0179412Y0091285D01*
X0179016Y0091832D01*
X0178635Y0092389D01*
X0178267Y0092955D01*
X0177912Y0093529D01*
X0177573Y0094112D01*
X0177247Y0094704D01*
X0176936Y0095303D01*
X0176640Y0095909D01*
X0176359Y0096523D01*
X0176093Y0097143D01*
X0175843Y0097770D01*
X0175608Y0098403D01*
X0175388Y0099041D01*
X0175184Y0099684D01*
X0174996Y0100332D01*
X0174824Y0100985D01*
X0174668Y0101642D01*
X0174528Y0102302D01*
X0174405Y0102966D01*
X0174298Y0103632D01*
X0174207Y0104301D01*
X0174132Y0104972D01*
X0174075Y0105644D01*
X0174033Y0106318D01*
X0174008Y0106992D01*
X0174000Y0107667D01*
X0146500Y0106667D02*
X0146500Y0109167D01*
X0136500Y0109167D01*
X0136500Y0106667D01*
X0141500Y0106667D01*
X0146500Y0106667D01*
X0141500Y0106667D02*
X0141500Y0105667D01*
X0114000Y0110167D02*
X0114008Y0110842D01*
X0114033Y0111516D01*
X0114075Y0112190D01*
X0114132Y0112862D01*
X0114207Y0113533D01*
X0114298Y0114202D01*
X0114405Y0114868D01*
X0114528Y0115532D01*
X0114668Y0116192D01*
X0114824Y0116849D01*
X0114996Y0117502D01*
X0115184Y0118150D01*
X0115388Y0118793D01*
X0115608Y0119431D01*
X0115843Y0120064D01*
X0116093Y0120691D01*
X0116359Y0121311D01*
X0116640Y0121925D01*
X0116936Y0122531D01*
X0117247Y0123130D01*
X0117573Y0123722D01*
X0117912Y0124305D01*
X0118267Y0124879D01*
X0118635Y0125445D01*
X0119016Y0126002D01*
X0119412Y0126549D01*
X0119820Y0127086D01*
X0120242Y0127613D01*
X0120677Y0128129D01*
X0121124Y0128635D01*
X0121583Y0129129D01*
X0122055Y0129612D01*
X0122538Y0130084D01*
X0123032Y0130543D01*
X0123538Y0130990D01*
X0124054Y0131425D01*
X0124581Y0131847D01*
X0125118Y0132255D01*
X0125665Y0132651D01*
X0126222Y0133032D01*
X0126788Y0133400D01*
X0127362Y0133755D01*
X0127945Y0134094D01*
X0128537Y0134420D01*
X0129136Y0134731D01*
X0129742Y0135027D01*
X0130356Y0135308D01*
X0130976Y0135574D01*
X0131603Y0135824D01*
X0132236Y0136059D01*
X0132874Y0136279D01*
X0133517Y0136483D01*
X0134165Y0136671D01*
X0134818Y0136843D01*
X0135475Y0136999D01*
X0136135Y0137139D01*
X0136799Y0137262D01*
X0137465Y0137369D01*
X0138134Y0137460D01*
X0138805Y0137535D01*
X0139477Y0137592D01*
X0140151Y0137634D01*
X0140825Y0137659D01*
X0141500Y0137667D01*
X0142175Y0137659D01*
X0142849Y0137634D01*
X0143523Y0137592D01*
X0144195Y0137535D01*
X0144866Y0137460D01*
X0145535Y0137369D01*
X0146201Y0137262D01*
X0146865Y0137139D01*
X0147525Y0136999D01*
X0148182Y0136843D01*
X0148835Y0136671D01*
X0149483Y0136483D01*
X0150126Y0136279D01*
X0150764Y0136059D01*
X0151397Y0135824D01*
X0152024Y0135574D01*
X0152644Y0135308D01*
X0153258Y0135027D01*
X0153864Y0134731D01*
X0154463Y0134420D01*
X0155055Y0134094D01*
X0155638Y0133755D01*
X0156212Y0133400D01*
X0156778Y0133032D01*
X0157335Y0132651D01*
X0157882Y0132255D01*
X0158419Y0131847D01*
X0158946Y0131425D01*
X0159462Y0130990D01*
X0159968Y0130543D01*
X0160462Y0130084D01*
X0160945Y0129612D01*
X0161417Y0129129D01*
X0161876Y0128635D01*
X0162323Y0128129D01*
X0162758Y0127613D01*
X0163180Y0127086D01*
X0163588Y0126549D01*
X0163984Y0126002D01*
X0164365Y0125445D01*
X0164733Y0124879D01*
X0165088Y0124305D01*
X0165427Y0123722D01*
X0165753Y0123130D01*
X0166064Y0122531D01*
X0166360Y0121925D01*
X0166641Y0121311D01*
X0166907Y0120691D01*
X0167157Y0120064D01*
X0167392Y0119431D01*
X0167612Y0118793D01*
X0167816Y0118150D01*
X0168004Y0117502D01*
X0168176Y0116849D01*
X0168332Y0116192D01*
X0168472Y0115532D01*
X0168595Y0114868D01*
X0168702Y0114202D01*
X0168793Y0113533D01*
X0168868Y0112862D01*
X0168925Y0112190D01*
X0168967Y0111516D01*
X0168992Y0110842D01*
X0169000Y0110167D01*
X0168992Y0109492D01*
X0168967Y0108818D01*
X0168925Y0108144D01*
X0168868Y0107472D01*
X0168793Y0106801D01*
X0168702Y0106132D01*
X0168595Y0105466D01*
X0168472Y0104802D01*
X0168332Y0104142D01*
X0168176Y0103485D01*
X0168004Y0102832D01*
X0167816Y0102184D01*
X0167612Y0101541D01*
X0167392Y0100903D01*
X0167157Y0100270D01*
X0166907Y0099643D01*
X0166641Y0099023D01*
X0166360Y0098409D01*
X0166064Y0097803D01*
X0165753Y0097204D01*
X0165427Y0096612D01*
X0165088Y0096029D01*
X0164733Y0095455D01*
X0164365Y0094889D01*
X0163984Y0094332D01*
X0163588Y0093785D01*
X0163180Y0093248D01*
X0162758Y0092721D01*
X0162323Y0092205D01*
X0161876Y0091699D01*
X0161417Y0091205D01*
X0160945Y0090722D01*
X0160462Y0090250D01*
X0159968Y0089791D01*
X0159462Y0089344D01*
X0158946Y0088909D01*
X0158419Y0088487D01*
X0157882Y0088079D01*
X0157335Y0087683D01*
X0156778Y0087302D01*
X0156212Y0086934D01*
X0155638Y0086579D01*
X0155055Y0086240D01*
X0154463Y0085914D01*
X0153864Y0085603D01*
X0153258Y0085307D01*
X0152644Y0085026D01*
X0152024Y0084760D01*
X0151397Y0084510D01*
X0150764Y0084275D01*
X0150126Y0084055D01*
X0149483Y0083851D01*
X0148835Y0083663D01*
X0148182Y0083491D01*
X0147525Y0083335D01*
X0146865Y0083195D01*
X0146201Y0083072D01*
X0145535Y0082965D01*
X0144866Y0082874D01*
X0144195Y0082799D01*
X0143523Y0082742D01*
X0142849Y0082700D01*
X0142175Y0082675D01*
X0141500Y0082667D01*
X0140825Y0082675D01*
X0140151Y0082700D01*
X0139477Y0082742D01*
X0138805Y0082799D01*
X0138134Y0082874D01*
X0137465Y0082965D01*
X0136799Y0083072D01*
X0136135Y0083195D01*
X0135475Y0083335D01*
X0134818Y0083491D01*
X0134165Y0083663D01*
X0133517Y0083851D01*
X0132874Y0084055D01*
X0132236Y0084275D01*
X0131603Y0084510D01*
X0130976Y0084760D01*
X0130356Y0085026D01*
X0129742Y0085307D01*
X0129136Y0085603D01*
X0128537Y0085914D01*
X0127945Y0086240D01*
X0127362Y0086579D01*
X0126788Y0086934D01*
X0126222Y0087302D01*
X0125665Y0087683D01*
X0125118Y0088079D01*
X0124581Y0088487D01*
X0124054Y0088909D01*
X0123538Y0089344D01*
X0123032Y0089791D01*
X0122538Y0090250D01*
X0122055Y0090722D01*
X0121583Y0091205D01*
X0121124Y0091699D01*
X0120677Y0092205D01*
X0120242Y0092721D01*
X0119820Y0093248D01*
X0119412Y0093785D01*
X0119016Y0094332D01*
X0118635Y0094889D01*
X0118267Y0095455D01*
X0117912Y0096029D01*
X0117573Y0096612D01*
X0117247Y0097204D01*
X0116936Y0097803D01*
X0116640Y0098409D01*
X0116359Y0099023D01*
X0116093Y0099643D01*
X0115843Y0100270D01*
X0115608Y0100903D01*
X0115388Y0101541D01*
X0115184Y0102184D01*
X0114996Y0102832D01*
X0114824Y0103485D01*
X0114668Y0104142D01*
X0114528Y0104802D01*
X0114405Y0105466D01*
X0114298Y0106132D01*
X0114207Y0106801D01*
X0114132Y0107472D01*
X0114075Y0108144D01*
X0114033Y0108818D01*
X0114008Y0109492D01*
X0114000Y0110167D01*
X0141500Y0112667D02*
X0141500Y0114667D01*
X0141500Y0092667D02*
X0141500Y0087667D01*
X0144000Y0090167D02*
X0139000Y0090167D01*
X0201500Y0110167D02*
X0201500Y0112167D01*
X0140500Y0152667D02*
X0140505Y0153060D01*
X0140519Y0153452D01*
X0140543Y0153844D01*
X0140577Y0154235D01*
X0140620Y0154626D01*
X0140673Y0155015D01*
X0140736Y0155402D01*
X0140807Y0155788D01*
X0140889Y0156173D01*
X0140979Y0156555D01*
X0141080Y0156934D01*
X0141189Y0157312D01*
X0141308Y0157686D01*
X0141435Y0158057D01*
X0141572Y0158425D01*
X0141718Y0158790D01*
X0141873Y0159151D01*
X0142036Y0159508D01*
X0142208Y0159861D01*
X0142389Y0160209D01*
X0142579Y0160553D01*
X0142776Y0160893D01*
X0142982Y0161227D01*
X0143196Y0161556D01*
X0143419Y0161880D01*
X0143649Y0162198D01*
X0143886Y0162511D01*
X0144132Y0162817D01*
X0144385Y0163118D01*
X0144645Y0163412D01*
X0144912Y0163700D01*
X0145186Y0163981D01*
X0145467Y0164255D01*
X0145755Y0164522D01*
X0146049Y0164782D01*
X0146350Y0165035D01*
X0146656Y0165281D01*
X0146969Y0165518D01*
X0147287Y0165748D01*
X0147611Y0165971D01*
X0147940Y0166185D01*
X0148274Y0166391D01*
X0148614Y0166588D01*
X0148958Y0166778D01*
X0149306Y0166959D01*
X0149659Y0167131D01*
X0150016Y0167294D01*
X0150377Y0167449D01*
X0150742Y0167595D01*
X0151110Y0167732D01*
X0151481Y0167859D01*
X0151855Y0167978D01*
X0152233Y0168087D01*
X0152612Y0168188D01*
X0152994Y0168278D01*
X0153379Y0168360D01*
X0153765Y0168431D01*
X0154152Y0168494D01*
X0154541Y0168547D01*
X0154932Y0168590D01*
X0155323Y0168624D01*
X0155715Y0168648D01*
X0156107Y0168662D01*
X0156500Y0168667D01*
X0156893Y0168662D01*
X0157285Y0168648D01*
X0157677Y0168624D01*
X0158068Y0168590D01*
X0158459Y0168547D01*
X0158848Y0168494D01*
X0159235Y0168431D01*
X0159621Y0168360D01*
X0160006Y0168278D01*
X0160388Y0168188D01*
X0160767Y0168087D01*
X0161145Y0167978D01*
X0161519Y0167859D01*
X0161890Y0167732D01*
X0162258Y0167595D01*
X0162623Y0167449D01*
X0162984Y0167294D01*
X0163341Y0167131D01*
X0163694Y0166959D01*
X0164042Y0166778D01*
X0164386Y0166588D01*
X0164726Y0166391D01*
X0165060Y0166185D01*
X0165389Y0165971D01*
X0165713Y0165748D01*
X0166031Y0165518D01*
X0166344Y0165281D01*
X0166650Y0165035D01*
X0166951Y0164782D01*
X0167245Y0164522D01*
X0167533Y0164255D01*
X0167814Y0163981D01*
X0168088Y0163700D01*
X0168355Y0163412D01*
X0168615Y0163118D01*
X0168868Y0162817D01*
X0169114Y0162511D01*
X0169351Y0162198D01*
X0169581Y0161880D01*
X0169804Y0161556D01*
X0170018Y0161227D01*
X0170224Y0160893D01*
X0170421Y0160553D01*
X0170611Y0160209D01*
X0170792Y0159861D01*
X0170964Y0159508D01*
X0171127Y0159151D01*
X0171282Y0158790D01*
X0171428Y0158425D01*
X0171565Y0158057D01*
X0171692Y0157686D01*
X0171811Y0157312D01*
X0171920Y0156934D01*
X0172021Y0156555D01*
X0172111Y0156173D01*
X0172193Y0155788D01*
X0172264Y0155402D01*
X0172327Y0155015D01*
X0172380Y0154626D01*
X0172423Y0154235D01*
X0172457Y0153844D01*
X0172481Y0153452D01*
X0172495Y0153060D01*
X0172500Y0152667D01*
X0172495Y0152274D01*
X0172481Y0151882D01*
X0172457Y0151490D01*
X0172423Y0151099D01*
X0172380Y0150708D01*
X0172327Y0150319D01*
X0172264Y0149932D01*
X0172193Y0149546D01*
X0172111Y0149161D01*
X0172021Y0148779D01*
X0171920Y0148400D01*
X0171811Y0148022D01*
X0171692Y0147648D01*
X0171565Y0147277D01*
X0171428Y0146909D01*
X0171282Y0146544D01*
X0171127Y0146183D01*
X0170964Y0145826D01*
X0170792Y0145473D01*
X0170611Y0145125D01*
X0170421Y0144781D01*
X0170224Y0144441D01*
X0170018Y0144107D01*
X0169804Y0143778D01*
X0169581Y0143454D01*
X0169351Y0143136D01*
X0169114Y0142823D01*
X0168868Y0142517D01*
X0168615Y0142216D01*
X0168355Y0141922D01*
X0168088Y0141634D01*
X0167814Y0141353D01*
X0167533Y0141079D01*
X0167245Y0140812D01*
X0166951Y0140552D01*
X0166650Y0140299D01*
X0166344Y0140053D01*
X0166031Y0139816D01*
X0165713Y0139586D01*
X0165389Y0139363D01*
X0165060Y0139149D01*
X0164726Y0138943D01*
X0164386Y0138746D01*
X0164042Y0138556D01*
X0163694Y0138375D01*
X0163341Y0138203D01*
X0162984Y0138040D01*
X0162623Y0137885D01*
X0162258Y0137739D01*
X0161890Y0137602D01*
X0161519Y0137475D01*
X0161145Y0137356D01*
X0160767Y0137247D01*
X0160388Y0137146D01*
X0160006Y0137056D01*
X0159621Y0136974D01*
X0159235Y0136903D01*
X0158848Y0136840D01*
X0158459Y0136787D01*
X0158068Y0136744D01*
X0157677Y0136710D01*
X0157285Y0136686D01*
X0156893Y0136672D01*
X0156500Y0136667D01*
X0156107Y0136672D01*
X0155715Y0136686D01*
X0155323Y0136710D01*
X0154932Y0136744D01*
X0154541Y0136787D01*
X0154152Y0136840D01*
X0153765Y0136903D01*
X0153379Y0136974D01*
X0152994Y0137056D01*
X0152612Y0137146D01*
X0152233Y0137247D01*
X0151855Y0137356D01*
X0151481Y0137475D01*
X0151110Y0137602D01*
X0150742Y0137739D01*
X0150377Y0137885D01*
X0150016Y0138040D01*
X0149659Y0138203D01*
X0149306Y0138375D01*
X0148958Y0138556D01*
X0148614Y0138746D01*
X0148274Y0138943D01*
X0147940Y0139149D01*
X0147611Y0139363D01*
X0147287Y0139586D01*
X0146969Y0139816D01*
X0146656Y0140053D01*
X0146350Y0140299D01*
X0146049Y0140552D01*
X0145755Y0140812D01*
X0145467Y0141079D01*
X0145186Y0141353D01*
X0144912Y0141634D01*
X0144645Y0141922D01*
X0144385Y0142216D01*
X0144132Y0142517D01*
X0143886Y0142823D01*
X0143649Y0143136D01*
X0143419Y0143454D01*
X0143196Y0143778D01*
X0142982Y0144107D01*
X0142776Y0144441D01*
X0142579Y0144781D01*
X0142389Y0145125D01*
X0142208Y0145473D01*
X0142036Y0145826D01*
X0141873Y0146183D01*
X0141718Y0146544D01*
X0141572Y0146909D01*
X0141435Y0147277D01*
X0141308Y0147648D01*
X0141189Y0148022D01*
X0141080Y0148400D01*
X0140979Y0148779D01*
X0140889Y0149161D01*
X0140807Y0149546D01*
X0140736Y0149932D01*
X0140673Y0150319D01*
X0140620Y0150708D01*
X0140577Y0151099D01*
X0140543Y0151490D01*
X0140519Y0151882D01*
X0140505Y0152274D01*
X0140500Y0152667D01*
X0144500Y0155667D02*
X0144500Y0158667D01*
X0143000Y0157167D02*
X0146000Y0157167D01*
X0035500Y0070167D02*
X0035505Y0070560D01*
X0035519Y0070952D01*
X0035543Y0071344D01*
X0035577Y0071735D01*
X0035620Y0072126D01*
X0035673Y0072515D01*
X0035736Y0072902D01*
X0035807Y0073288D01*
X0035889Y0073673D01*
X0035979Y0074055D01*
X0036080Y0074434D01*
X0036189Y0074812D01*
X0036308Y0075186D01*
X0036435Y0075557D01*
X0036572Y0075925D01*
X0036718Y0076290D01*
X0036873Y0076651D01*
X0037036Y0077008D01*
X0037208Y0077361D01*
X0037389Y0077709D01*
X0037579Y0078053D01*
X0037776Y0078393D01*
X0037982Y0078727D01*
X0038196Y0079056D01*
X0038419Y0079380D01*
X0038649Y0079698D01*
X0038886Y0080011D01*
X0039132Y0080317D01*
X0039385Y0080618D01*
X0039645Y0080912D01*
X0039912Y0081200D01*
X0040186Y0081481D01*
X0040467Y0081755D01*
X0040755Y0082022D01*
X0041049Y0082282D01*
X0041350Y0082535D01*
X0041656Y0082781D01*
X0041969Y0083018D01*
X0042287Y0083248D01*
X0042611Y0083471D01*
X0042940Y0083685D01*
X0043274Y0083891D01*
X0043614Y0084088D01*
X0043958Y0084278D01*
X0044306Y0084459D01*
X0044659Y0084631D01*
X0045016Y0084794D01*
X0045377Y0084949D01*
X0045742Y0085095D01*
X0046110Y0085232D01*
X0046481Y0085359D01*
X0046855Y0085478D01*
X0047233Y0085587D01*
X0047612Y0085688D01*
X0047994Y0085778D01*
X0048379Y0085860D01*
X0048765Y0085931D01*
X0049152Y0085994D01*
X0049541Y0086047D01*
X0049932Y0086090D01*
X0050323Y0086124D01*
X0050715Y0086148D01*
X0051107Y0086162D01*
X0051500Y0086167D01*
X0051893Y0086162D01*
X0052285Y0086148D01*
X0052677Y0086124D01*
X0053068Y0086090D01*
X0053459Y0086047D01*
X0053848Y0085994D01*
X0054235Y0085931D01*
X0054621Y0085860D01*
X0055006Y0085778D01*
X0055388Y0085688D01*
X0055767Y0085587D01*
X0056145Y0085478D01*
X0056519Y0085359D01*
X0056890Y0085232D01*
X0057258Y0085095D01*
X0057623Y0084949D01*
X0057984Y0084794D01*
X0058341Y0084631D01*
X0058694Y0084459D01*
X0059042Y0084278D01*
X0059386Y0084088D01*
X0059726Y0083891D01*
X0060060Y0083685D01*
X0060389Y0083471D01*
X0060713Y0083248D01*
X0061031Y0083018D01*
X0061344Y0082781D01*
X0061650Y0082535D01*
X0061951Y0082282D01*
X0062245Y0082022D01*
X0062533Y0081755D01*
X0062814Y0081481D01*
X0063088Y0081200D01*
X0063355Y0080912D01*
X0063615Y0080618D01*
X0063868Y0080317D01*
X0064114Y0080011D01*
X0064351Y0079698D01*
X0064581Y0079380D01*
X0064804Y0079056D01*
X0065018Y0078727D01*
X0065224Y0078393D01*
X0065421Y0078053D01*
X0065611Y0077709D01*
X0065792Y0077361D01*
X0065964Y0077008D01*
X0066127Y0076651D01*
X0066282Y0076290D01*
X0066428Y0075925D01*
X0066565Y0075557D01*
X0066692Y0075186D01*
X0066811Y0074812D01*
X0066920Y0074434D01*
X0067021Y0074055D01*
X0067111Y0073673D01*
X0067193Y0073288D01*
X0067264Y0072902D01*
X0067327Y0072515D01*
X0067380Y0072126D01*
X0067423Y0071735D01*
X0067457Y0071344D01*
X0067481Y0070952D01*
X0067495Y0070560D01*
X0067500Y0070167D01*
X0067495Y0069774D01*
X0067481Y0069382D01*
X0067457Y0068990D01*
X0067423Y0068599D01*
X0067380Y0068208D01*
X0067327Y0067819D01*
X0067264Y0067432D01*
X0067193Y0067046D01*
X0067111Y0066661D01*
X0067021Y0066279D01*
X0066920Y0065900D01*
X0066811Y0065522D01*
X0066692Y0065148D01*
X0066565Y0064777D01*
X0066428Y0064409D01*
X0066282Y0064044D01*
X0066127Y0063683D01*
X0065964Y0063326D01*
X0065792Y0062973D01*
X0065611Y0062625D01*
X0065421Y0062281D01*
X0065224Y0061941D01*
X0065018Y0061607D01*
X0064804Y0061278D01*
X0064581Y0060954D01*
X0064351Y0060636D01*
X0064114Y0060323D01*
X0063868Y0060017D01*
X0063615Y0059716D01*
X0063355Y0059422D01*
X0063088Y0059134D01*
X0062814Y0058853D01*
X0062533Y0058579D01*
X0062245Y0058312D01*
X0061951Y0058052D01*
X0061650Y0057799D01*
X0061344Y0057553D01*
X0061031Y0057316D01*
X0060713Y0057086D01*
X0060389Y0056863D01*
X0060060Y0056649D01*
X0059726Y0056443D01*
X0059386Y0056246D01*
X0059042Y0056056D01*
X0058694Y0055875D01*
X0058341Y0055703D01*
X0057984Y0055540D01*
X0057623Y0055385D01*
X0057258Y0055239D01*
X0056890Y0055102D01*
X0056519Y0054975D01*
X0056145Y0054856D01*
X0055767Y0054747D01*
X0055388Y0054646D01*
X0055006Y0054556D01*
X0054621Y0054474D01*
X0054235Y0054403D01*
X0053848Y0054340D01*
X0053459Y0054287D01*
X0053068Y0054244D01*
X0052677Y0054210D01*
X0052285Y0054186D01*
X0051893Y0054172D01*
X0051500Y0054167D01*
X0051107Y0054172D01*
X0050715Y0054186D01*
X0050323Y0054210D01*
X0049932Y0054244D01*
X0049541Y0054287D01*
X0049152Y0054340D01*
X0048765Y0054403D01*
X0048379Y0054474D01*
X0047994Y0054556D01*
X0047612Y0054646D01*
X0047233Y0054747D01*
X0046855Y0054856D01*
X0046481Y0054975D01*
X0046110Y0055102D01*
X0045742Y0055239D01*
X0045377Y0055385D01*
X0045016Y0055540D01*
X0044659Y0055703D01*
X0044306Y0055875D01*
X0043958Y0056056D01*
X0043614Y0056246D01*
X0043274Y0056443D01*
X0042940Y0056649D01*
X0042611Y0056863D01*
X0042287Y0057086D01*
X0041969Y0057316D01*
X0041656Y0057553D01*
X0041350Y0057799D01*
X0041049Y0058052D01*
X0040755Y0058312D01*
X0040467Y0058579D01*
X0040186Y0058853D01*
X0039912Y0059134D01*
X0039645Y0059422D01*
X0039385Y0059716D01*
X0039132Y0060017D01*
X0038886Y0060323D01*
X0038649Y0060636D01*
X0038419Y0060954D01*
X0038196Y0061278D01*
X0037982Y0061607D01*
X0037776Y0061941D01*
X0037579Y0062281D01*
X0037389Y0062625D01*
X0037208Y0062973D01*
X0037036Y0063326D01*
X0036873Y0063683D01*
X0036718Y0064044D01*
X0036572Y0064409D01*
X0036435Y0064777D01*
X0036308Y0065148D01*
X0036189Y0065522D01*
X0036080Y0065900D01*
X0035979Y0066279D01*
X0035889Y0066661D01*
X0035807Y0067046D01*
X0035736Y0067432D01*
X0035673Y0067819D01*
X0035620Y0068208D01*
X0035577Y0068599D01*
X0035543Y0068990D01*
X0035519Y0069382D01*
X0035505Y0069774D01*
X0035500Y0070167D01*
D11*
X0036497Y0083417D02*
X0039499Y0083417D01*
X0040250Y0084167D01*
X0040250Y0085669D01*
X0039499Y0086419D01*
X0039499Y0088021D02*
X0040250Y0088771D01*
X0040250Y0090273D01*
X0039499Y0091023D01*
X0038749Y0091023D01*
X0037998Y0090273D01*
X0037998Y0089522D01*
X0037998Y0090273D02*
X0037247Y0091023D01*
X0036497Y0091023D01*
X0035746Y0090273D01*
X0035746Y0088771D01*
X0036497Y0088021D01*
X0036497Y0086419D02*
X0035746Y0085669D01*
X0035746Y0084167D01*
X0036497Y0083417D01*
X0016500Y0070167D02*
X0016500Y0030167D01*
X0006500Y0030167D01*
X0006500Y0070167D01*
X0016500Y0070167D01*
X0066500Y0077667D02*
X0106500Y0077667D01*
X0106500Y0110167D01*
X0096500Y0115167D01*
X0076500Y0115167D01*
X0066500Y0110167D01*
X0066500Y0077667D01*
X0121500Y0070167D02*
X0131500Y0075167D01*
X0151500Y0075167D01*
X0161500Y0070167D01*
X0161500Y0037667D01*
X0121500Y0037667D01*
X0121500Y0070167D01*
X0071500Y0039542D02*
X0071500Y0036417D01*
X0073375Y0036417D01*
X0071500Y0036417D02*
X0073375Y0033917D01*
X0071500Y0033917D01*
X0071500Y0030791D01*
X0071500Y0033917D02*
X0069625Y0033917D01*
X0071500Y0036417D01*
X0069625Y0036417D01*
X0064074Y0027120D02*
X0064074Y0022617D01*
X0067076Y0022617D01*
X0062472Y0023367D02*
X0062472Y0026370D01*
X0061722Y0027120D01*
X0060220Y0027120D01*
X0059470Y0026370D01*
X0059470Y0023367D01*
X0060220Y0022617D01*
X0061722Y0022617D01*
X0062472Y0023367D01*
X0057868Y0022617D02*
X0056367Y0024118D01*
X0057118Y0024118D02*
X0054866Y0024118D01*
X0054866Y0022617D02*
X0054866Y0027120D01*
X0057118Y0027120D01*
X0057868Y0026370D01*
X0057868Y0024869D01*
X0057118Y0024118D01*
X0053264Y0027120D02*
X0050262Y0027120D01*
X0051763Y0027120D02*
X0051763Y0022617D01*
X0048660Y0022617D02*
X0048660Y0027120D01*
X0045658Y0027120D02*
X0048660Y0022617D01*
X0045658Y0022617D02*
X0045658Y0027120D01*
X0044056Y0026370D02*
X0043306Y0027120D01*
X0041805Y0027120D01*
X0041054Y0026370D01*
X0041054Y0023367D01*
X0041805Y0022617D01*
X0043306Y0022617D01*
X0044056Y0023367D01*
X0044056Y0026370D01*
X0039453Y0026370D02*
X0038702Y0027120D01*
X0037201Y0027120D01*
X0036450Y0026370D01*
X0036450Y0023367D01*
X0037201Y0022617D01*
X0038702Y0022617D01*
X0039453Y0023367D01*
X0186500Y0037667D02*
X0226500Y0037667D01*
X0226500Y0070167D01*
X0216500Y0075167D01*
X0196500Y0075167D01*
X0186500Y0070167D01*
X0186500Y0037667D01*
X0234348Y0043524D02*
X0234348Y0044158D01*
X0234665Y0044475D01*
X0235933Y0044475D01*
X0236250Y0044158D01*
X0236250Y0043524D01*
X0235933Y0043207D01*
X0234665Y0043207D01*
X0234348Y0043524D01*
X0235616Y0043841D02*
X0236250Y0044475D01*
X0235299Y0045417D02*
X0235299Y0046684D01*
X0234348Y0046367D02*
X0235299Y0045417D01*
X0236250Y0046367D02*
X0234348Y0046367D01*
X0286500Y0065167D02*
X0286500Y0025167D01*
X0296500Y0025167D01*
X0296500Y0065167D01*
X0286500Y0065167D01*
X0287201Y0087617D02*
X0286450Y0088367D01*
X0287201Y0087617D02*
X0288702Y0087617D01*
X0289453Y0088367D01*
X0289453Y0089118D01*
X0288702Y0089869D01*
X0287951Y0089869D01*
X0288702Y0089869D02*
X0289453Y0090619D01*
X0289453Y0091370D01*
X0288702Y0092120D01*
X0287201Y0092120D01*
X0286450Y0091370D01*
X0291054Y0092120D02*
X0291054Y0089118D01*
X0292555Y0087617D01*
X0294056Y0089118D01*
X0294056Y0092120D01*
X0295658Y0091370D02*
X0296408Y0092120D01*
X0297910Y0092120D01*
X0298660Y0091370D01*
X0298660Y0090619D01*
X0297910Y0089869D01*
X0298660Y0089118D01*
X0298660Y0088367D01*
X0297910Y0087617D01*
X0296408Y0087617D01*
X0295658Y0088367D01*
X0297159Y0089869D02*
X0297910Y0089869D01*
X0300262Y0086866D02*
X0303264Y0086866D01*
X0304866Y0087617D02*
X0307118Y0087617D01*
X0307868Y0088367D01*
X0307868Y0089118D01*
X0307118Y0089869D01*
X0304866Y0089869D01*
X0304866Y0092120D02*
X0304866Y0087617D01*
X0307118Y0089869D02*
X0307868Y0090619D01*
X0307868Y0091370D01*
X0307118Y0092120D01*
X0304866Y0092120D01*
X0309470Y0092120D02*
X0311722Y0092120D01*
X0312472Y0091370D01*
X0312472Y0089869D01*
X0311722Y0089118D01*
X0309470Y0089118D01*
X0310971Y0089118D02*
X0312472Y0087617D01*
X0314074Y0087617D02*
X0314074Y0090619D01*
X0315575Y0092120D01*
X0317076Y0090619D01*
X0317076Y0087617D01*
X0318677Y0087617D02*
X0318677Y0092120D01*
X0319428Y0089869D02*
X0321680Y0087617D01*
X0323281Y0087617D02*
X0326284Y0087617D01*
X0327885Y0086866D02*
X0330888Y0086866D01*
X0332489Y0088367D02*
X0333240Y0087617D01*
X0334741Y0087617D01*
X0335492Y0088367D01*
X0335492Y0091370D01*
X0334741Y0092120D01*
X0333240Y0092120D01*
X0332489Y0091370D01*
X0332489Y0088367D01*
X0337093Y0088367D02*
X0337844Y0087617D01*
X0339345Y0087617D01*
X0340096Y0088367D01*
X0340096Y0092120D01*
X0341697Y0092120D02*
X0344700Y0092120D01*
X0343198Y0092120D02*
X0343198Y0087617D01*
X0337093Y0088367D02*
X0337093Y0092120D01*
X0326284Y0092120D02*
X0323281Y0092120D01*
X0323281Y0087617D01*
X0323281Y0089869D02*
X0324783Y0089869D01*
X0321680Y0092120D02*
X0318677Y0089118D01*
X0317076Y0089869D02*
X0314074Y0089869D01*
X0309470Y0092120D02*
X0309470Y0087617D01*
X0244649Y0124417D02*
X0241646Y0124417D01*
X0244649Y0127419D01*
X0244649Y0128170D01*
X0243898Y0128920D01*
X0242397Y0128920D01*
X0241646Y0128170D01*
X0240045Y0128170D02*
X0239294Y0128920D01*
X0237793Y0128920D01*
X0237042Y0128170D01*
X0237042Y0125167D01*
X0237793Y0124417D01*
X0239294Y0124417D01*
X0240045Y0125167D01*
X0286500Y0145167D02*
X0296500Y0145167D01*
X0296500Y0185167D01*
X0286500Y0185167D01*
X0286500Y0145167D01*
X0244106Y0158917D02*
X0244106Y0163420D01*
X0241854Y0161169D01*
X0244856Y0161169D01*
X0240253Y0162670D02*
X0239502Y0163420D01*
X0238001Y0163420D01*
X0237250Y0162670D01*
X0237250Y0159667D01*
X0238001Y0158917D01*
X0239502Y0158917D01*
X0240253Y0159667D01*
X0177356Y0163917D02*
X0174354Y0163917D01*
X0175855Y0163917D02*
X0175855Y0168420D01*
X0174354Y0166919D01*
X0172753Y0167670D02*
X0172002Y0168420D01*
X0170501Y0168420D01*
X0169750Y0167670D01*
X0169750Y0164667D01*
X0170501Y0163917D01*
X0172002Y0163917D01*
X0172753Y0164667D01*
X0067149Y0182667D02*
X0066398Y0181917D01*
X0064897Y0181917D01*
X0064146Y0182667D01*
X0064146Y0184169D02*
X0065647Y0184919D01*
X0066398Y0184919D01*
X0067149Y0184169D01*
X0067149Y0182667D01*
X0064146Y0184169D02*
X0064146Y0186420D01*
X0067149Y0186420D01*
X0062545Y0185670D02*
X0061794Y0186420D01*
X0060293Y0186420D01*
X0059542Y0185670D01*
X0059542Y0182667D01*
X0060293Y0181917D01*
X0061794Y0181917D01*
X0062545Y0182667D01*
X0016500Y0185167D02*
X0016500Y0145167D01*
X0006500Y0145167D01*
X0006500Y0185167D01*
X0016500Y0185167D01*
D12*
X0055927Y0100913D02*
X0054392Y0099378D01*
X0054392Y0096309D01*
X0055927Y0094775D01*
X0055927Y0091705D02*
X0062065Y0091705D01*
X0063600Y0090171D01*
X0063600Y0087101D01*
X0062065Y0085567D01*
X0055927Y0085567D01*
X0054392Y0087101D01*
X0054392Y0090171D01*
X0055927Y0091705D01*
X0060531Y0088636D02*
X0063600Y0091705D01*
X0063600Y0094775D02*
X0057461Y0100913D01*
X0055927Y0100913D01*
X0063600Y0100913D02*
X0063600Y0094775D01*
X0109392Y0059378D02*
X0110927Y0060913D01*
X0112461Y0060913D01*
X0113996Y0059378D01*
X0115531Y0060913D01*
X0117065Y0060913D01*
X0118600Y0059378D01*
X0118600Y0056309D01*
X0117065Y0054775D01*
X0117065Y0051705D02*
X0118600Y0050171D01*
X0118600Y0047101D01*
X0117065Y0045567D01*
X0110927Y0045567D01*
X0109392Y0047101D01*
X0109392Y0050171D01*
X0110927Y0051705D01*
X0117065Y0051705D01*
X0118600Y0051705D02*
X0115531Y0048636D01*
X0110927Y0054775D02*
X0109392Y0056309D01*
X0109392Y0059378D01*
X0113996Y0059378D02*
X0113996Y0057844D01*
X0095535Y0025285D02*
X0087425Y0025285D01*
X0087425Y0015049D02*
X0095535Y0015049D01*
X0174392Y0047101D02*
X0175927Y0045567D01*
X0182065Y0045567D01*
X0183600Y0047101D01*
X0183600Y0050171D01*
X0182065Y0051705D01*
X0175927Y0051705D01*
X0174392Y0050171D01*
X0174392Y0047101D01*
X0180531Y0048636D02*
X0183600Y0051705D01*
X0183600Y0054775D02*
X0183600Y0060913D01*
X0183600Y0057844D02*
X0174392Y0057844D01*
X0177461Y0054775D01*
X0238600Y0054873D02*
X0238598Y0030486D01*
X0264402Y0030486D01*
X0264400Y0054873D01*
D13*
X0264992Y0007471D02*
X0267294Y0007471D01*
X0268061Y0006703D01*
X0268061Y0005169D01*
X0267294Y0004401D01*
X0264992Y0004401D01*
X0264992Y0002867D02*
X0264992Y0007471D01*
X0266527Y0004401D02*
X0268061Y0002867D01*
X0269596Y0003634D02*
X0270363Y0002867D01*
X0271898Y0002867D01*
X0272665Y0003634D01*
X0272665Y0004401D01*
X0271898Y0005169D01*
X0271131Y0005169D01*
X0271898Y0005169D02*
X0272665Y0005936D01*
X0272665Y0006703D01*
X0271898Y0007471D01*
X0270363Y0007471D01*
X0269596Y0006703D01*
X0252665Y0006703D02*
X0252665Y0005936D01*
X0249596Y0002867D01*
X0252665Y0002867D01*
X0248061Y0002867D02*
X0246527Y0004401D01*
X0247294Y0004401D02*
X0244992Y0004401D01*
X0244992Y0002867D02*
X0244992Y0007471D01*
X0247294Y0007471D01*
X0248061Y0006703D01*
X0248061Y0005169D01*
X0247294Y0004401D01*
X0249596Y0006703D02*
X0250363Y0007471D01*
X0251898Y0007471D01*
X0252665Y0006703D01*
X0089373Y0030169D02*
X0086304Y0030169D01*
X0088606Y0032471D01*
X0088606Y0027867D01*
X0084769Y0028634D02*
X0084769Y0031703D01*
X0084002Y0032471D01*
X0081700Y0032471D01*
X0081700Y0027867D01*
X0084002Y0027867D01*
X0084769Y0028634D01*
X0084196Y0037867D02*
X0084196Y0040169D01*
X0084963Y0040936D01*
X0086498Y0040936D01*
X0087265Y0040169D01*
X0087265Y0037867D01*
X0087265Y0039401D02*
X0088800Y0040936D01*
X0088800Y0042471D02*
X0088800Y0045540D01*
X0088800Y0044005D02*
X0084196Y0044005D01*
X0085731Y0042471D01*
X0084196Y0037867D02*
X0088800Y0037867D01*
X0065050Y0030540D02*
X0065050Y0027471D01*
X0061981Y0030540D01*
X0061213Y0030540D01*
X0060446Y0029773D01*
X0060446Y0028238D01*
X0061213Y0027471D01*
X0061213Y0025936D02*
X0060446Y0025169D01*
X0060446Y0022867D01*
X0065050Y0022867D01*
X0065050Y0025169D01*
X0064283Y0025936D01*
X0061213Y0025936D01*
D14*
X0088636Y0020167D03*
D15*
X0251500Y0028586D03*
D16*
X0285501Y0111717D02*
X0287603Y0111717D01*
X0288654Y0112768D01*
X0290895Y0112768D02*
X0291946Y0111717D01*
X0294048Y0111717D01*
X0295099Y0112768D01*
X0295099Y0113818D01*
X0294048Y0114869D01*
X0291946Y0114869D01*
X0290895Y0115920D01*
X0290895Y0116971D01*
X0291946Y0118022D01*
X0294048Y0118022D01*
X0295099Y0116971D01*
X0295099Y0115920D01*
X0294048Y0114869D01*
X0291946Y0114869D02*
X0290895Y0113818D01*
X0290895Y0112768D01*
X0288654Y0116971D02*
X0287603Y0118022D01*
X0285501Y0118022D01*
X0284450Y0116971D01*
X0284450Y0112768D01*
X0285501Y0111717D01*
X0184950Y0134168D02*
X0184950Y0136269D01*
X0183899Y0137320D01*
X0183899Y0139562D02*
X0184950Y0140613D01*
X0184950Y0142715D01*
X0183899Y0143766D01*
X0182848Y0143766D01*
X0181797Y0142715D01*
X0181797Y0139562D01*
X0183899Y0139562D01*
X0181797Y0139562D02*
X0179696Y0141664D01*
X0178645Y0143766D01*
X0179696Y0137320D02*
X0178645Y0136269D01*
X0178645Y0134168D01*
X0179696Y0133117D01*
X0183899Y0133117D01*
X0184950Y0134168D01*
X0124950Y0136668D02*
X0123899Y0135617D01*
X0119696Y0135617D01*
X0118645Y0136668D01*
X0118645Y0138769D01*
X0119696Y0139820D01*
X0120746Y0142062D02*
X0118645Y0144164D01*
X0124950Y0144164D01*
X0124950Y0142062D02*
X0124950Y0146266D01*
X0123899Y0148508D02*
X0121797Y0148508D01*
X0121797Y0151660D01*
X0122848Y0152711D01*
X0123899Y0152711D01*
X0124950Y0151660D01*
X0124950Y0149559D01*
X0123899Y0148508D01*
X0121797Y0148508D02*
X0119696Y0150609D01*
X0118645Y0152711D01*
X0123899Y0139820D02*
X0124950Y0138769D01*
X0124950Y0136668D01*
X0098457Y0164817D02*
X0096355Y0164817D01*
X0095304Y0165868D01*
X0095304Y0166918D01*
X0096355Y0167969D01*
X0098457Y0167969D01*
X0099508Y0166918D01*
X0099508Y0165868D01*
X0098457Y0164817D01*
X0098457Y0167969D02*
X0099508Y0169020D01*
X0099508Y0170071D01*
X0098457Y0171122D01*
X0096355Y0171122D01*
X0095304Y0170071D01*
X0095304Y0169020D01*
X0096355Y0167969D01*
X0090961Y0171122D02*
X0090961Y0164817D01*
X0088859Y0164817D02*
X0093063Y0164817D01*
X0088859Y0169020D02*
X0090961Y0171122D01*
X0086617Y0170071D02*
X0085566Y0171122D01*
X0083464Y0171122D01*
X0082413Y0170071D01*
X0082413Y0165868D01*
X0083464Y0164817D01*
X0085566Y0164817D01*
X0086617Y0165868D01*
X0059950Y0176668D02*
X0059950Y0178769D01*
X0058899Y0179820D01*
X0059950Y0182062D02*
X0059950Y0186266D01*
X0059950Y0184164D02*
X0053645Y0184164D01*
X0055746Y0182062D01*
X0054696Y0179820D02*
X0053645Y0178769D01*
X0053645Y0176668D01*
X0054696Y0175617D01*
X0058899Y0175617D01*
X0059950Y0176668D01*
X0059950Y0188508D02*
X0058899Y0188508D01*
X0054696Y0192711D01*
X0053645Y0192711D01*
X0053645Y0188508D01*
X0009696Y0146266D02*
X0013899Y0142062D01*
X0014950Y0142062D01*
X0013899Y0139820D02*
X0014950Y0138769D01*
X0014950Y0136668D01*
X0013899Y0135617D01*
X0009696Y0135617D01*
X0008645Y0136668D01*
X0008645Y0138769D01*
X0009696Y0139820D01*
X0008645Y0142062D02*
X0008645Y0146266D01*
X0009696Y0146266D01*
X0216950Y0197768D02*
X0218001Y0196717D01*
X0220103Y0196717D01*
X0221154Y0197768D01*
X0223395Y0197768D02*
X0224446Y0196717D01*
X0226548Y0196717D01*
X0227599Y0197768D01*
X0227599Y0201971D01*
X0226548Y0203022D01*
X0224446Y0203022D01*
X0223395Y0201971D01*
X0223395Y0200920D01*
X0224446Y0199869D01*
X0227599Y0199869D01*
X0221154Y0201971D02*
X0220103Y0203022D01*
X0218001Y0203022D01*
X0216950Y0201971D01*
X0216950Y0197768D01*
X0276950Y0202768D02*
X0278001Y0201717D01*
X0280103Y0201717D01*
X0281154Y0202768D01*
X0283395Y0201717D02*
X0287599Y0201717D01*
X0285497Y0201717D02*
X0285497Y0208022D01*
X0283395Y0205920D01*
X0281154Y0206971D02*
X0280103Y0208022D01*
X0278001Y0208022D01*
X0276950Y0206971D01*
X0276950Y0202768D01*
X0289841Y0202768D02*
X0290892Y0201717D01*
X0292994Y0201717D01*
X0294045Y0202768D01*
X0294045Y0206971D01*
X0289841Y0202768D01*
X0289841Y0206971D01*
X0290892Y0208022D01*
X0292994Y0208022D01*
X0294045Y0206971D01*
D17*
X0141500Y0112417D03*
X0201500Y0109917D03*
X0076500Y0152417D03*
X0031500Y0112417D03*
D18*
X0124250Y0187667D03*
X0193750Y0180167D03*
X0253750Y0185167D03*
X0261250Y0095167D03*
M02*
