G75*
%MOIN*%
%OFA0B0*%
%FSLAX25Y25*%
%IPPOS*%
%LPD*%
%AMOC8*
5,1,8,0,0,1.08239X$1,22.5*
%
%ADD10R,0.03150X0.03150*%
%ADD11C,0.06000*%
%ADD12C,0.04362*%
%ADD13C,0.07000*%
%ADD14OC8,0.06000*%
%ADD15C,0.05200*%
%ADD16C,0.01000*%
%ADD17C,0.02781*%
%ADD18C,0.00600*%
D10*
X0201550Y0093697D03*
X0201550Y0099603D03*
X0211550Y0099603D03*
X0211550Y0093697D03*
X0221550Y0093697D03*
X0221550Y0099603D03*
X0231550Y0099603D03*
X0231550Y0093697D03*
D11*
X0110300Y0098300D02*
X0110300Y0104300D01*
X0100300Y0104300D02*
X0100300Y0098300D01*
X0090300Y0098300D02*
X0090300Y0104300D01*
X0081750Y0065550D02*
X0075750Y0065550D01*
X0067350Y0065550D02*
X0061350Y0065550D01*
X0041750Y0065550D02*
X0035750Y0065550D01*
X0035750Y0047750D02*
X0041750Y0047750D01*
X0041750Y0030550D02*
X0035750Y0030550D01*
X0035750Y0012750D02*
X0041750Y0012750D01*
X0061350Y0012750D02*
X0067350Y0012750D01*
X0075750Y0012750D02*
X0081750Y0012750D01*
X0101350Y0012750D02*
X0107350Y0012750D01*
X0107350Y0030550D02*
X0101350Y0030550D01*
X0081750Y0030550D02*
X0075750Y0030550D01*
X0067350Y0030550D02*
X0061350Y0030550D01*
X0061350Y0047750D02*
X0067350Y0047750D01*
X0075750Y0047750D02*
X0081750Y0047750D01*
X0101350Y0047750D02*
X0107350Y0047750D01*
X0107350Y0065550D02*
X0101350Y0065550D01*
D12*
X0049475Y0098856D02*
X0049475Y0103219D01*
X0044263Y0103344D02*
X0044263Y0098981D01*
X0038459Y0098659D02*
X0038459Y0094297D01*
X0033641Y0098981D02*
X0033641Y0103344D01*
X0038499Y0121727D02*
X0038499Y0126089D01*
X0033680Y0126411D02*
X0033680Y0130774D01*
X0044302Y0130774D02*
X0044302Y0126411D01*
X0049515Y0126286D02*
X0049515Y0130648D01*
X0039129Y0148727D02*
X0039129Y0153089D01*
X0034310Y0153411D02*
X0034310Y0157774D01*
X0044932Y0157774D02*
X0044932Y0153411D01*
X0050144Y0153286D02*
X0050144Y0157648D01*
X0039239Y0174727D02*
X0039239Y0179089D01*
X0034420Y0179411D02*
X0034420Y0183774D01*
X0045042Y0183774D02*
X0045042Y0179411D01*
X0050255Y0179286D02*
X0050255Y0183648D01*
X0058550Y0184274D02*
X0058550Y0179911D01*
X0063369Y0179589D02*
X0063369Y0175227D01*
X0069172Y0179911D02*
X0069172Y0184274D01*
X0074385Y0184148D02*
X0074385Y0179786D01*
D13*
X0226589Y0022920D03*
X0216589Y0012920D03*
X0236589Y0012920D03*
D14*
X0014050Y0014150D03*
X0024050Y0014150D03*
X0024050Y0024150D03*
X0014050Y0024150D03*
X0014050Y0034150D03*
X0024050Y0034150D03*
X0024050Y0044150D03*
X0014050Y0044150D03*
X0014050Y0054150D03*
X0024050Y0054150D03*
X0024050Y0064150D03*
X0014050Y0064150D03*
X0014050Y0074150D03*
X0024050Y0074150D03*
X0024050Y0084150D03*
X0014050Y0084150D03*
X0014050Y0094150D03*
X0024050Y0094150D03*
X0024050Y0104150D03*
X0014050Y0104150D03*
X0014050Y0114150D03*
X0024050Y0114150D03*
X0024050Y0124150D03*
X0014050Y0124150D03*
X0014050Y0134150D03*
X0024050Y0134150D03*
X0024050Y0144150D03*
X0014050Y0144150D03*
X0014050Y0154150D03*
X0024050Y0154150D03*
X0024050Y0164150D03*
X0014050Y0164150D03*
X0014050Y0174150D03*
X0024050Y0174150D03*
X0024050Y0184150D03*
X0014050Y0184150D03*
X0014050Y0194150D03*
X0024050Y0194150D03*
X0254050Y0194150D03*
X0264050Y0194150D03*
X0264050Y0184150D03*
X0254050Y0184150D03*
X0254050Y0174150D03*
X0264050Y0174150D03*
X0264050Y0164150D03*
X0254050Y0164150D03*
X0254050Y0154150D03*
X0264050Y0154150D03*
X0264050Y0144150D03*
X0254050Y0144150D03*
X0254050Y0134150D03*
X0264050Y0134150D03*
X0264050Y0124150D03*
X0254050Y0124150D03*
X0254050Y0114150D03*
X0264050Y0114150D03*
X0264050Y0104150D03*
X0254050Y0104150D03*
X0254050Y0094150D03*
X0264050Y0094150D03*
X0264050Y0084150D03*
X0254050Y0084150D03*
X0254050Y0074150D03*
X0264050Y0074150D03*
X0264050Y0064150D03*
X0254050Y0064150D03*
X0254050Y0054150D03*
X0264050Y0054150D03*
X0264050Y0044150D03*
X0254050Y0044150D03*
X0254050Y0034150D03*
X0264050Y0034150D03*
X0264050Y0024150D03*
X0254050Y0024150D03*
X0254050Y0014150D03*
X0264050Y0014150D03*
D15*
X0240800Y0116400D02*
X0235600Y0116400D01*
X0235600Y0126400D02*
X0240800Y0126400D01*
X0240800Y0136400D02*
X0235600Y0136400D01*
X0235600Y0146400D02*
X0240800Y0146400D01*
X0240800Y0156400D02*
X0235600Y0156400D01*
X0235600Y0166400D02*
X0240800Y0166400D01*
X0240800Y0176400D02*
X0235600Y0176400D01*
X0235600Y0186400D02*
X0240800Y0186400D01*
X0210800Y0186400D02*
X0205600Y0186400D01*
X0205600Y0176400D02*
X0210800Y0176400D01*
X0210800Y0166400D02*
X0205600Y0166400D01*
X0205600Y0156400D02*
X0210800Y0156400D01*
X0210800Y0146400D02*
X0205600Y0146400D01*
X0205600Y0136400D02*
X0210800Y0136400D01*
X0210800Y0126400D02*
X0205600Y0126400D01*
X0205600Y0116400D02*
X0210800Y0116400D01*
D16*
X0219070Y0102536D02*
X0221530Y0100075D01*
X0221550Y0099603D01*
X0222022Y0099583D01*
X0231373Y0099583D01*
X0231550Y0099603D01*
X0231373Y0099091D01*
X0235802Y0094662D01*
X0235802Y0067595D01*
X0224483Y0056276D01*
X0231550Y0099603D02*
X0231865Y0100075D01*
X0237770Y0105981D01*
X0237770Y0116315D01*
X0238200Y0116400D01*
X0238263Y0116807D01*
X0238263Y0126158D01*
X0238200Y0126400D01*
X0238263Y0126650D01*
X0238263Y0136000D01*
X0238200Y0136400D01*
X0238263Y0136493D01*
X0238263Y0146335D01*
X0238200Y0146400D01*
X0238755Y0146335D01*
X0246137Y0153717D01*
X0254011Y0153717D01*
X0254050Y0154150D01*
X0219070Y0102536D02*
X0167554Y0102536D01*
X0152790Y0087772D01*
X0129995Y0087772D01*
X0089148Y0065626D02*
X0089148Y0062674D01*
X0078814Y0052339D01*
X0068971Y0052339D01*
X0064542Y0047910D01*
X0064350Y0047750D01*
X0066511Y0050370D01*
X0044365Y0072516D01*
X0024188Y0094170D02*
X0024050Y0094150D01*
X0024188Y0094170D02*
X0024188Y0104012D01*
X0024050Y0104150D01*
X0018774Y0108933D02*
X0014345Y0104504D01*
X0014050Y0104150D01*
X0018774Y0108933D02*
X0018774Y0155193D01*
X0023696Y0160115D01*
X0023696Y0164052D01*
X0024050Y0164150D01*
X0038750Y0047750D02*
X0038952Y0047418D01*
X0038952Y0046433D01*
X0060605Y0024780D01*
X0085211Y0024780D01*
X0096530Y0013461D01*
X0096530Y0012969D01*
X0103912Y0012969D01*
X0104350Y0012750D01*
X0096530Y0012969D02*
X0078814Y0012969D01*
X0078750Y0012750D01*
D17*
X0084227Y0021827D03*
X0091609Y0022811D03*
X0097515Y0042496D03*
X0092593Y0047418D03*
X0081274Y0058737D03*
X0089148Y0065626D03*
X0095054Y0067595D03*
X0084719Y0079406D03*
X0080782Y0079406D03*
X0087180Y0084819D03*
X0091117Y0091217D03*
X0075369Y0103028D03*
X0067495Y0109426D03*
X0067495Y0113363D03*
X0071924Y0122221D03*
X0057652Y0119760D03*
X0055192Y0116807D03*
X0055192Y0112870D03*
X0042889Y0121237D03*
X0041412Y0113855D03*
X0041412Y0106965D03*
X0026648Y0108933D03*
X0027141Y0128619D03*
X0032554Y0140922D03*
X0035015Y0143874D03*
X0041412Y0140922D03*
X0054700Y0145843D03*
X0057160Y0142890D03*
X0063558Y0147811D03*
X0066511Y0150272D03*
X0071924Y0148304D03*
X0067987Y0157162D03*
X0070940Y0160115D03*
X0055192Y0156670D03*
X0035507Y0162575D03*
X0071924Y0135508D03*
X0062574Y0092201D03*
X0058637Y0091217D03*
X0058637Y0087280D03*
X0044365Y0072516D03*
X0035507Y0060213D03*
X0028617Y0049386D03*
X0109326Y0084819D03*
X0118676Y0087772D03*
X0118676Y0079898D03*
X0123597Y0074485D03*
X0124581Y0069563D03*
X0120644Y0069563D03*
X0112770Y0066611D03*
X0129995Y0087772D03*
X0141806Y0079898D03*
X0150664Y0081374D03*
X0148696Y0068087D03*
X0145743Y0065134D03*
X0159522Y0067595D03*
X0160015Y0057260D03*
X0164444Y0052831D03*
X0159522Y0049878D03*
X0177731Y0051847D03*
X0178715Y0055784D03*
X0178223Y0071532D03*
X0198400Y0087772D03*
X0196432Y0093678D03*
X0206274Y0099583D03*
X0215625Y0093678D03*
X0218578Y0090233D03*
X0231865Y0088264D03*
X0241707Y0080390D03*
X0244660Y0087280D03*
X0232849Y0075469D03*
X0221530Y0075469D03*
X0243597Y0069977D03*
X0224483Y0056276D03*
X0224483Y0052339D03*
X0218578Y0054307D03*
X0225959Y0043481D03*
X0219070Y0038559D03*
X0225959Y0035607D03*
X0231865Y0032654D03*
X0198893Y0035607D03*
X0196432Y0105489D03*
X0201845Y0108441D03*
X0222515Y0111394D03*
X0225467Y0108441D03*
X0229404Y0106965D03*
X0232357Y0104504D03*
X0233341Y0131079D03*
D18*
X0208243Y0156178D01*
X0208200Y0156400D01*
X0208243Y0166020D02*
X0208200Y0166400D01*
X0208243Y0166020D02*
X0215133Y0166020D01*
X0230881Y0150272D01*
X0240231Y0150272D01*
X0248597Y0158638D01*
X0265822Y0158638D01*
X0269759Y0154701D01*
X0269759Y0053815D01*
X0264345Y0048402D01*
X0258440Y0048402D01*
X0254503Y0044465D01*
X0254050Y0044150D01*
X0254011Y0043973D01*
X0248597Y0038559D01*
X0219070Y0038559D01*
X0220546Y0035607D02*
X0207259Y0035607D01*
X0205290Y0037575D01*
X0205290Y0039544D01*
X0209227Y0043481D01*
X0225959Y0043481D01*
X0219562Y0049386D02*
X0233833Y0049386D01*
X0249581Y0065134D01*
X0249581Y0069563D01*
X0254011Y0073993D01*
X0254050Y0074150D01*
X0253519Y0079898D02*
X0265822Y0079898D01*
X0268282Y0082359D01*
X0268282Y0126158D01*
X0264837Y0129603D01*
X0258932Y0129603D01*
X0254503Y0134032D01*
X0254050Y0134150D01*
X0254050Y0124150D02*
X0258440Y0119760D01*
X0258440Y0112378D01*
X0255979Y0109918D01*
X0253519Y0109918D01*
X0244660Y0101059D01*
X0244660Y0087280D01*
X0241707Y0080390D02*
X0241707Y0101552D01*
X0254011Y0113855D01*
X0254050Y0114150D01*
X0245644Y0111394D02*
X0245644Y0145843D01*
X0247613Y0147811D01*
X0250566Y0147811D01*
X0254011Y0144367D01*
X0254050Y0144150D01*
X0238200Y0156400D02*
X0238263Y0156670D01*
X0238263Y0166020D01*
X0238200Y0166400D01*
X0238263Y0166512D01*
X0238263Y0176355D01*
X0238200Y0176400D01*
X0238263Y0176847D01*
X0238263Y0186197D01*
X0238200Y0186400D01*
X0233833Y0190134D02*
X0242692Y0190134D01*
X0249581Y0183244D01*
X0249581Y0172418D01*
X0253519Y0168481D01*
X0265822Y0168481D01*
X0271235Y0163067D01*
X0271235Y0045449D01*
X0264345Y0038559D01*
X0258440Y0038559D01*
X0254503Y0034622D01*
X0254050Y0034150D01*
X0254011Y0034622D01*
X0253026Y0035607D01*
X0225959Y0035607D01*
X0220546Y0035607D02*
X0231373Y0024780D01*
X0231373Y0020843D01*
X0217593Y0007063D01*
X0033046Y0007063D01*
X0028617Y0011493D01*
X0028617Y0049386D01*
X0031570Y0052831D02*
X0031570Y0011000D01*
X0034030Y0008540D01*
X0205290Y0008540D01*
X0219562Y0022811D01*
X0226452Y0022811D01*
X0226589Y0022920D01*
X0231865Y0032654D02*
X0245644Y0032654D01*
X0254011Y0024288D01*
X0254050Y0024150D01*
X0237770Y0047910D02*
X0254011Y0064150D01*
X0254050Y0064150D01*
X0243597Y0069977D02*
X0253519Y0079898D01*
X0238755Y0066611D02*
X0238755Y0104504D01*
X0245644Y0111394D01*
X0232357Y0107949D02*
X0232357Y0104504D01*
X0232357Y0107949D02*
X0231865Y0108441D01*
X0231865Y0120744D01*
X0208243Y0144367D01*
X0208243Y0146335D01*
X0208200Y0146400D01*
X0208200Y0136400D02*
X0208243Y0136000D01*
X0214641Y0129603D01*
X0214641Y0125666D01*
X0228420Y0111886D01*
X0228420Y0107949D01*
X0229404Y0106965D01*
X0228420Y0107457D02*
X0226452Y0105489D01*
X0196432Y0105489D01*
X0201845Y0108441D02*
X0223499Y0108441D01*
X0224483Y0109426D01*
X0225467Y0108441D01*
X0224483Y0109426D02*
X0225467Y0110410D01*
X0225467Y0112378D01*
X0211688Y0126158D01*
X0208243Y0126158D01*
X0208200Y0126400D01*
X0208200Y0116400D02*
X0208243Y0116315D01*
X0213164Y0111394D01*
X0222515Y0111394D01*
X0228420Y0107949D02*
X0228420Y0107457D01*
X0211550Y0099603D02*
X0211196Y0099583D01*
X0206274Y0099583D01*
X0201550Y0099603D02*
X0201353Y0099583D01*
X0172062Y0099583D01*
X0157298Y0084819D01*
X0109326Y0084819D01*
X0105881Y0084327D02*
X0115723Y0074485D01*
X0123597Y0074485D01*
X0118676Y0079898D02*
X0141806Y0079898D01*
X0150664Y0081374D02*
X0151648Y0080390D01*
X0151648Y0064642D01*
X0145251Y0058244D01*
X0145251Y0052831D01*
X0134916Y0042496D01*
X0097515Y0042496D01*
X0095546Y0044465D02*
X0094562Y0043481D01*
X0094562Y0041512D01*
X0096530Y0039544D01*
X0127534Y0039544D01*
X0131963Y0035115D01*
X0133932Y0035115D01*
X0159522Y0060705D01*
X0159522Y0067595D01*
X0148696Y0068087D02*
X0148696Y0064150D01*
X0146727Y0062181D01*
X0128026Y0062181D01*
X0120644Y0069563D01*
X0124581Y0069563D02*
X0130979Y0069563D01*
X0135408Y0065134D01*
X0145743Y0065134D01*
X0160015Y0057260D02*
X0196432Y0093678D01*
X0201353Y0093678D02*
X0201353Y0090725D01*
X0198400Y0087772D01*
X0205290Y0090233D02*
X0218578Y0090233D01*
X0221530Y0093678D02*
X0221550Y0093697D01*
X0221530Y0093678D02*
X0221530Y0075469D01*
X0232849Y0075469D02*
X0218578Y0061197D01*
X0218578Y0054307D01*
X0217101Y0051847D02*
X0219562Y0049386D01*
X0217101Y0051847D02*
X0177731Y0051847D01*
X0178715Y0055784D02*
X0173302Y0055784D01*
X0167396Y0049878D01*
X0159522Y0049878D01*
X0159522Y0052831D02*
X0154109Y0052831D01*
X0134916Y0033638D01*
X0110310Y0033638D01*
X0105881Y0038067D01*
X0057652Y0038067D01*
X0035507Y0060213D01*
X0031570Y0052831D02*
X0024188Y0060213D01*
X0024188Y0064150D01*
X0024050Y0064150D01*
X0042889Y0082359D02*
X0061097Y0082359D01*
X0073400Y0070056D01*
X0088656Y0070056D01*
X0092593Y0066119D01*
X0092593Y0047418D01*
X0095054Y0048894D02*
X0095546Y0048402D01*
X0095546Y0044465D01*
X0095054Y0048894D02*
X0095054Y0067595D01*
X0108341Y0070056D02*
X0109326Y0070056D01*
X0112770Y0066611D01*
X0115723Y0067595D02*
X0115723Y0059229D01*
X0104404Y0047910D01*
X0104350Y0047750D01*
X0081274Y0058737D02*
X0062081Y0058737D01*
X0032554Y0088264D01*
X0023696Y0088264D01*
X0019759Y0092201D01*
X0019759Y0105981D01*
X0022711Y0108933D01*
X0026648Y0108933D01*
X0028617Y0110902D02*
X0029601Y0109918D01*
X0029601Y0106473D01*
X0028617Y0105489D01*
X0028617Y0096630D01*
X0042889Y0082359D01*
X0043873Y0083835D02*
X0076353Y0083835D01*
X0080782Y0079406D01*
X0084719Y0079406D02*
X0076845Y0087280D01*
X0058637Y0087280D01*
X0060605Y0089248D02*
X0058637Y0091217D01*
X0060605Y0089248D02*
X0063558Y0089248D01*
X0065526Y0091217D01*
X0065526Y0094662D01*
X0055192Y0104996D01*
X0055192Y0112870D01*
X0055192Y0116807D02*
X0087180Y0084819D01*
X0091117Y0091217D02*
X0085704Y0096630D01*
X0085704Y0102044D01*
X0057160Y0130587D01*
X0057160Y0142890D01*
X0054700Y0145843D02*
X0038952Y0130095D01*
X0038952Y0126158D01*
X0038499Y0126089D01*
X0038459Y0125666D01*
X0038459Y0098659D01*
X0030093Y0097615D02*
X0030093Y0104504D01*
X0031078Y0105489D01*
X0031078Y0110902D01*
X0030093Y0111886D01*
X0030093Y0132063D01*
X0032554Y0134524D01*
X0038952Y0134524D01*
X0055192Y0150764D01*
X0064542Y0150764D01*
X0065034Y0150272D01*
X0066511Y0150272D01*
X0063558Y0147811D02*
X0063558Y0134524D01*
X0075369Y0122713D01*
X0075369Y0117792D01*
X0083243Y0109918D01*
X0110802Y0109918D01*
X0117200Y0103520D01*
X0117200Y0089248D01*
X0118676Y0087772D01*
X0105881Y0084327D02*
X0105881Y0104996D01*
X0102436Y0108441D01*
X0082259Y0108441D01*
X0071924Y0118776D01*
X0071924Y0122221D01*
X0067495Y0117792D02*
X0051255Y0134032D01*
X0047810Y0134032D01*
X0044365Y0130587D01*
X0044365Y0126650D01*
X0044302Y0126411D01*
X0044365Y0122713D02*
X0042889Y0121237D01*
X0044365Y0122713D02*
X0059129Y0122713D01*
X0061097Y0120744D01*
X0061097Y0115823D01*
X0067495Y0109426D01*
X0067495Y0113363D02*
X0067495Y0117792D01*
X0057652Y0119760D02*
X0047318Y0119760D01*
X0041412Y0113855D01*
X0041412Y0106965D02*
X0050763Y0106965D01*
X0062574Y0095154D01*
X0062574Y0092201D01*
X0075369Y0103028D02*
X0108341Y0070056D01*
X0115723Y0067595D02*
X0100467Y0082851D01*
X0100467Y0101059D01*
X0100300Y0101300D01*
X0071924Y0135508D02*
X0071924Y0144367D01*
X0075369Y0147811D01*
X0075369Y0178323D01*
X0074385Y0179307D01*
X0074385Y0179786D01*
X0073893Y0175370D02*
X0069463Y0179800D01*
X0069172Y0179911D01*
X0073893Y0175370D02*
X0073893Y0156670D01*
X0071924Y0154701D01*
X0071924Y0148304D01*
X0068971Y0154209D02*
X0067003Y0154209D01*
X0045349Y0175863D01*
X0045349Y0179307D01*
X0045042Y0179411D01*
X0050255Y0179286D02*
X0050270Y0178815D01*
X0067987Y0161099D01*
X0067987Y0157162D01*
X0068971Y0154209D02*
X0070940Y0156178D01*
X0070940Y0160115D01*
X0055192Y0156670D02*
X0055192Y0153225D01*
X0042889Y0140922D01*
X0041412Y0140922D01*
X0035015Y0143874D02*
X0030585Y0148304D01*
X0030585Y0159130D01*
X0034030Y0162575D01*
X0035507Y0162575D01*
X0038952Y0153225D02*
X0039129Y0153089D01*
X0038952Y0153225D02*
X0038952Y0178815D01*
X0039239Y0179089D01*
X0033046Y0187181D02*
X0051747Y0187181D01*
X0058637Y0180292D01*
X0058550Y0179911D01*
X0033046Y0187181D02*
X0029109Y0183244D01*
X0029109Y0145843D01*
X0032554Y0142398D01*
X0032554Y0140922D01*
X0027141Y0128619D02*
X0027141Y0127142D01*
X0028617Y0125666D01*
X0028617Y0110902D01*
X0030093Y0097615D02*
X0043873Y0083835D01*
X0078750Y0030550D02*
X0078814Y0030193D01*
X0082259Y0030193D01*
X0089641Y0022811D01*
X0091609Y0022811D01*
X0084227Y0021827D02*
X0078814Y0021827D01*
X0069956Y0012969D01*
X0064542Y0012969D01*
X0064350Y0012750D01*
X0064050Y0012969D01*
X0038952Y0012969D01*
X0038750Y0012750D01*
X0159522Y0052831D02*
X0178223Y0071532D01*
X0167889Y0052831D02*
X0164444Y0052831D01*
X0167889Y0052831D02*
X0205290Y0090233D01*
X0201550Y0093697D02*
X0201353Y0093678D01*
X0211550Y0093697D02*
X0211688Y0093678D01*
X0215625Y0093678D01*
X0231550Y0093697D02*
X0231865Y0093678D01*
X0231865Y0088264D01*
X0238755Y0066611D02*
X0224483Y0052339D01*
X0237770Y0047910D02*
X0211196Y0047910D01*
X0198893Y0035607D01*
X0208200Y0176400D02*
X0208243Y0176847D01*
X0220546Y0176847D01*
X0233833Y0190134D01*
M02*
