G75*
%MOIN*%
%OFA0B0*%
%FSLAX25Y25*%
%IPPOS*%
%LPD*%
%AMOC8*
5,1,8,0,0,1.08239X$1,22.5*
%
%ADD10R,0.03950X0.03950*%
%ADD11C,0.06800*%
%ADD12C,0.05162*%
%ADD13C,0.07800*%
%ADD14OC8,0.06800*%
%ADD15C,0.06000*%
D10*
X0201550Y0093697D03*
X0201550Y0099603D03*
X0211550Y0099603D03*
X0211550Y0093697D03*
X0221550Y0093697D03*
X0221550Y0099603D03*
X0231550Y0099603D03*
X0231550Y0093697D03*
D11*
X0110300Y0098300D02*
X0110300Y0104300D01*
X0100300Y0104300D02*
X0100300Y0098300D01*
X0090300Y0098300D02*
X0090300Y0104300D01*
X0081750Y0065550D02*
X0075750Y0065550D01*
X0067350Y0065550D02*
X0061350Y0065550D01*
X0041750Y0065550D02*
X0035750Y0065550D01*
X0035750Y0047750D02*
X0041750Y0047750D01*
X0041750Y0030550D02*
X0035750Y0030550D01*
X0035750Y0012750D02*
X0041750Y0012750D01*
X0061350Y0012750D02*
X0067350Y0012750D01*
X0075750Y0012750D02*
X0081750Y0012750D01*
X0101350Y0012750D02*
X0107350Y0012750D01*
X0107350Y0030550D02*
X0101350Y0030550D01*
X0081750Y0030550D02*
X0075750Y0030550D01*
X0067350Y0030550D02*
X0061350Y0030550D01*
X0061350Y0047750D02*
X0067350Y0047750D01*
X0075750Y0047750D02*
X0081750Y0047750D01*
X0101350Y0047750D02*
X0107350Y0047750D01*
X0107350Y0065550D02*
X0101350Y0065550D01*
D12*
X0049475Y0098856D02*
X0049475Y0103219D01*
X0044263Y0103344D02*
X0044263Y0098981D01*
X0038459Y0098659D02*
X0038459Y0094297D01*
X0033641Y0098981D02*
X0033641Y0103344D01*
X0038499Y0121727D02*
X0038499Y0126089D01*
X0033680Y0126411D02*
X0033680Y0130774D01*
X0044302Y0130774D02*
X0044302Y0126411D01*
X0049515Y0126286D02*
X0049515Y0130648D01*
X0039129Y0148727D02*
X0039129Y0153089D01*
X0034310Y0153411D02*
X0034310Y0157774D01*
X0044932Y0157774D02*
X0044932Y0153411D01*
X0050144Y0153286D02*
X0050144Y0157648D01*
X0039239Y0174727D02*
X0039239Y0179089D01*
X0034420Y0179411D02*
X0034420Y0183774D01*
X0045042Y0183774D02*
X0045042Y0179411D01*
X0050255Y0179286D02*
X0050255Y0183648D01*
X0058550Y0184274D02*
X0058550Y0179911D01*
X0063369Y0179589D02*
X0063369Y0175227D01*
X0069172Y0179911D02*
X0069172Y0184274D01*
X0074385Y0184148D02*
X0074385Y0179786D01*
D13*
X0226589Y0022920D03*
X0216589Y0012920D03*
X0236589Y0012920D03*
D14*
X0014050Y0014150D03*
X0024050Y0014150D03*
X0024050Y0024150D03*
X0014050Y0024150D03*
X0014050Y0034150D03*
X0024050Y0034150D03*
X0024050Y0044150D03*
X0014050Y0044150D03*
X0014050Y0054150D03*
X0024050Y0054150D03*
X0024050Y0064150D03*
X0014050Y0064150D03*
X0014050Y0074150D03*
X0024050Y0074150D03*
X0024050Y0084150D03*
X0014050Y0084150D03*
X0014050Y0094150D03*
X0024050Y0094150D03*
X0024050Y0104150D03*
X0014050Y0104150D03*
X0014050Y0114150D03*
X0024050Y0114150D03*
X0024050Y0124150D03*
X0014050Y0124150D03*
X0014050Y0134150D03*
X0024050Y0134150D03*
X0024050Y0144150D03*
X0014050Y0144150D03*
X0014050Y0154150D03*
X0024050Y0154150D03*
X0024050Y0164150D03*
X0014050Y0164150D03*
X0014050Y0174150D03*
X0024050Y0174150D03*
X0024050Y0184150D03*
X0014050Y0184150D03*
X0014050Y0194150D03*
X0024050Y0194150D03*
X0254050Y0194150D03*
X0264050Y0194150D03*
X0264050Y0184150D03*
X0254050Y0184150D03*
X0254050Y0174150D03*
X0264050Y0174150D03*
X0264050Y0164150D03*
X0254050Y0164150D03*
X0254050Y0154150D03*
X0264050Y0154150D03*
X0264050Y0144150D03*
X0254050Y0144150D03*
X0254050Y0134150D03*
X0264050Y0134150D03*
X0264050Y0124150D03*
X0254050Y0124150D03*
X0254050Y0114150D03*
X0264050Y0114150D03*
X0264050Y0104150D03*
X0254050Y0104150D03*
X0254050Y0094150D03*
X0264050Y0094150D03*
X0264050Y0084150D03*
X0254050Y0084150D03*
X0254050Y0074150D03*
X0264050Y0074150D03*
X0264050Y0064150D03*
X0254050Y0064150D03*
X0254050Y0054150D03*
X0264050Y0054150D03*
X0264050Y0044150D03*
X0254050Y0044150D03*
X0254050Y0034150D03*
X0264050Y0034150D03*
X0264050Y0024150D03*
X0254050Y0024150D03*
X0254050Y0014150D03*
X0264050Y0014150D03*
D15*
X0240800Y0116400D02*
X0235600Y0116400D01*
X0235600Y0126400D02*
X0240800Y0126400D01*
X0240800Y0136400D02*
X0235600Y0136400D01*
X0235600Y0146400D02*
X0240800Y0146400D01*
X0240800Y0156400D02*
X0235600Y0156400D01*
X0235600Y0166400D02*
X0240800Y0166400D01*
X0240800Y0176400D02*
X0235600Y0176400D01*
X0235600Y0186400D02*
X0240800Y0186400D01*
X0210800Y0186400D02*
X0205600Y0186400D01*
X0205600Y0176400D02*
X0210800Y0176400D01*
X0210800Y0166400D02*
X0205600Y0166400D01*
X0205600Y0156400D02*
X0210800Y0156400D01*
X0210800Y0146400D02*
X0205600Y0146400D01*
X0205600Y0136400D02*
X0210800Y0136400D01*
X0210800Y0126400D02*
X0205600Y0126400D01*
X0205600Y0116400D02*
X0210800Y0116400D01*
M02*
