G75*
%MOIN*%
%OFA0B0*%
%FSLAX25Y25*%
%IPPOS*%
%LPD*%
%AMOC8*
5,1,8,0,0,1.08239X$1,22.5*
%
%ADD10R,0.03556X0.04343*%
%ADD11R,0.04343X0.03556*%
%ADD12C,0.06800*%
%ADD13R,0.08600X0.03000*%
%ADD14C,0.05162*%
%ADD15R,0.04700X0.02000*%
%ADD16C,0.07800*%
%ADD17OC8,0.06800*%
%ADD18R,0.03359X0.02769*%
%ADD19R,0.02769X0.03359*%
%ADD20C,0.06000*%
%ADD21R,0.04737X0.05131*%
D10*
X0048991Y0016650D03*
X0054109Y0016650D03*
X0054109Y0026650D03*
X0048991Y0026650D03*
X0048991Y0051650D03*
X0054109Y0051650D03*
X0054109Y0061650D03*
X0048991Y0061650D03*
X0044109Y0076650D03*
X0038991Y0076650D03*
X0088991Y0061650D03*
X0094109Y0061650D03*
X0094109Y0051650D03*
X0088991Y0051650D03*
X0088991Y0026650D03*
X0094109Y0026650D03*
X0094109Y0016650D03*
X0088991Y0016650D03*
D11*
X0201550Y0079091D03*
X0201550Y0084209D03*
X0211550Y0084209D03*
X0211550Y0079091D03*
X0221550Y0079091D03*
X0221550Y0084209D03*
X0231550Y0084209D03*
X0231550Y0079091D03*
D12*
X0110300Y0098300D02*
X0110300Y0104300D01*
X0100300Y0104300D02*
X0100300Y0098300D01*
X0090300Y0098300D02*
X0090300Y0104300D01*
X0081750Y0065550D02*
X0075750Y0065550D01*
X0067350Y0065550D02*
X0061350Y0065550D01*
X0041750Y0065550D02*
X0035750Y0065550D01*
X0035750Y0047750D02*
X0041750Y0047750D01*
X0041750Y0030550D02*
X0035750Y0030550D01*
X0035750Y0012750D02*
X0041750Y0012750D01*
X0061350Y0012750D02*
X0067350Y0012750D01*
X0075750Y0012750D02*
X0081750Y0012750D01*
X0101350Y0012750D02*
X0107350Y0012750D01*
X0107350Y0030550D02*
X0101350Y0030550D01*
X0081750Y0030550D02*
X0075750Y0030550D01*
X0067350Y0030550D02*
X0061350Y0030550D01*
X0061350Y0047750D02*
X0067350Y0047750D01*
X0075750Y0047750D02*
X0081750Y0047750D01*
X0101350Y0047750D02*
X0107350Y0047750D01*
X0107350Y0065550D02*
X0101350Y0065550D01*
D13*
X0212250Y0064150D03*
X0212250Y0069150D03*
X0212250Y0059150D03*
X0212250Y0054150D03*
X0230850Y0054150D03*
X0230850Y0059150D03*
X0230850Y0064150D03*
X0230850Y0069150D03*
D14*
X0074385Y0179786D02*
X0074385Y0184148D01*
X0069172Y0184274D02*
X0069172Y0179911D01*
X0063369Y0179589D02*
X0063369Y0175227D01*
X0058550Y0179911D02*
X0058550Y0184274D01*
X0050255Y0183648D02*
X0050255Y0179286D01*
X0045042Y0179411D02*
X0045042Y0183774D01*
X0039239Y0179089D02*
X0039239Y0174727D01*
X0034420Y0179411D02*
X0034420Y0183774D01*
X0034310Y0157774D02*
X0034310Y0153411D01*
X0039129Y0153089D02*
X0039129Y0148727D01*
X0044932Y0153411D02*
X0044932Y0157774D01*
X0050144Y0157648D02*
X0050144Y0153286D01*
X0049515Y0130648D02*
X0049515Y0126286D01*
X0044302Y0126411D02*
X0044302Y0130774D01*
X0038499Y0126089D02*
X0038499Y0121727D01*
X0033680Y0126411D02*
X0033680Y0130774D01*
X0033641Y0103344D02*
X0033641Y0098981D01*
X0038459Y0098659D02*
X0038459Y0094297D01*
X0044263Y0098981D02*
X0044263Y0103344D01*
X0049475Y0103219D02*
X0049475Y0098856D01*
D15*
X0131952Y0083323D03*
X0131952Y0080764D03*
X0131952Y0078205D03*
X0131952Y0075646D03*
X0131952Y0073087D03*
X0131952Y0070528D03*
X0131952Y0067969D03*
X0131952Y0065410D03*
X0131952Y0062851D03*
X0131952Y0060292D03*
X0131952Y0057733D03*
X0131952Y0055174D03*
X0131952Y0052615D03*
X0131952Y0050056D03*
X0154927Y0050056D03*
X0154927Y0052615D03*
X0154927Y0055174D03*
X0154927Y0057733D03*
X0154927Y0060292D03*
X0154927Y0062851D03*
X0154927Y0065410D03*
X0154927Y0067969D03*
X0154927Y0070528D03*
X0154927Y0073087D03*
X0154927Y0075646D03*
X0154927Y0078205D03*
X0154927Y0080764D03*
X0154927Y0083323D03*
D16*
X0226589Y0022920D03*
X0216589Y0012920D03*
X0236589Y0012920D03*
D17*
X0014050Y0014150D03*
X0024050Y0014150D03*
X0024050Y0024150D03*
X0014050Y0024150D03*
X0014050Y0034150D03*
X0024050Y0034150D03*
X0024050Y0044150D03*
X0014050Y0044150D03*
X0014050Y0054150D03*
X0024050Y0054150D03*
X0024050Y0064150D03*
X0014050Y0064150D03*
X0014050Y0074150D03*
X0024050Y0074150D03*
X0024050Y0084150D03*
X0014050Y0084150D03*
X0014050Y0094150D03*
X0024050Y0094150D03*
X0024050Y0104150D03*
X0014050Y0104150D03*
X0014050Y0114150D03*
X0024050Y0114150D03*
X0024050Y0124150D03*
X0014050Y0124150D03*
X0014050Y0134150D03*
X0024050Y0134150D03*
X0024050Y0144150D03*
X0014050Y0144150D03*
X0014050Y0154150D03*
X0024050Y0154150D03*
X0024050Y0164150D03*
X0014050Y0164150D03*
X0014050Y0174150D03*
X0024050Y0174150D03*
X0024050Y0184150D03*
X0014050Y0184150D03*
X0014050Y0194150D03*
X0024050Y0194150D03*
X0254050Y0194150D03*
X0264050Y0194150D03*
X0264050Y0184150D03*
X0254050Y0184150D03*
X0254050Y0174150D03*
X0264050Y0174150D03*
X0264050Y0164150D03*
X0254050Y0164150D03*
X0254050Y0154150D03*
X0264050Y0154150D03*
X0264050Y0144150D03*
X0254050Y0144150D03*
X0254050Y0134150D03*
X0264050Y0134150D03*
X0264050Y0124150D03*
X0254050Y0124150D03*
X0254050Y0114150D03*
X0264050Y0114150D03*
X0264050Y0104150D03*
X0254050Y0104150D03*
X0254050Y0094150D03*
X0264050Y0094150D03*
X0264050Y0084150D03*
X0254050Y0084150D03*
X0254050Y0074150D03*
X0264050Y0074150D03*
X0264050Y0064150D03*
X0254050Y0064150D03*
X0254050Y0054150D03*
X0264050Y0054150D03*
X0264050Y0044150D03*
X0254050Y0044150D03*
X0254050Y0034150D03*
X0264050Y0034150D03*
X0264050Y0024150D03*
X0254050Y0024150D03*
X0254050Y0014150D03*
X0264050Y0014150D03*
D18*
X0178261Y0035176D03*
X0173339Y0035176D03*
X0173339Y0038325D03*
X0173339Y0041475D03*
X0178261Y0041475D03*
X0178261Y0038325D03*
X0178261Y0044624D03*
X0173339Y0044624D03*
X0171139Y0058676D03*
X0171139Y0061825D03*
X0171139Y0064975D03*
X0171139Y0068124D03*
X0176061Y0068124D03*
X0176061Y0064975D03*
X0176061Y0061825D03*
X0176061Y0058676D03*
X0067236Y0078101D03*
X0067236Y0081250D03*
X0067236Y0084400D03*
X0067236Y0087549D03*
X0062314Y0087549D03*
X0062314Y0084400D03*
X0062314Y0081250D03*
X0062314Y0078101D03*
X0064011Y0106926D03*
X0064011Y0110075D03*
X0059089Y0110075D03*
X0059089Y0106926D03*
X0059089Y0113225D03*
X0064011Y0113225D03*
X0064011Y0116374D03*
X0059089Y0116374D03*
X0059089Y0156926D03*
X0059089Y0160075D03*
X0064011Y0160075D03*
X0064011Y0156926D03*
X0064011Y0163225D03*
X0059089Y0163225D03*
X0059089Y0166374D03*
X0064011Y0166374D03*
D19*
X0063755Y0144111D03*
X0060605Y0144111D03*
X0060605Y0139189D03*
X0063755Y0139189D03*
X0066904Y0139189D03*
X0070054Y0139189D03*
X0070054Y0144111D03*
X0066904Y0144111D03*
D20*
X0205600Y0146400D02*
X0210800Y0146400D01*
X0210800Y0136400D02*
X0205600Y0136400D01*
X0205600Y0126400D02*
X0210800Y0126400D01*
X0210800Y0116400D02*
X0205600Y0116400D01*
X0235600Y0116400D02*
X0240800Y0116400D01*
X0240800Y0126400D02*
X0235600Y0126400D01*
X0235600Y0136400D02*
X0240800Y0136400D01*
X0240800Y0146400D02*
X0235600Y0146400D01*
X0235600Y0156400D02*
X0240800Y0156400D01*
X0240800Y0166400D02*
X0235600Y0166400D01*
X0235600Y0176400D02*
X0240800Y0176400D01*
X0240800Y0186400D02*
X0235600Y0186400D01*
X0210800Y0186400D02*
X0205600Y0186400D01*
X0205600Y0176400D02*
X0210800Y0176400D01*
X0210800Y0166400D02*
X0205600Y0166400D01*
X0205600Y0156400D02*
X0210800Y0156400D01*
D21*
X0218204Y0175705D03*
X0224896Y0175705D03*
X0224896Y0186020D03*
X0218204Y0186020D03*
M02*
