G75*
%MOIN*%
%OFA0B0*%
%FSLAX25Y25*%
%IPPOS*%
%LPD*%
%AMOC8*
5,1,8,0,0,1.08239X$1,22.5*
%
%ADD10C,0.01600*%
%ADD11R,0.01600X0.02800*%
%ADD12R,0.02800X0.01600*%
%ADD13C,0.00600*%
%ADD14C,0.00000*%
%ADD15C,0.00300*%
D10*
X0041550Y0076530D02*
X0041550Y0076770D01*
D11*
X0051550Y0016650D03*
X0051550Y0026650D03*
X0051550Y0051650D03*
X0051550Y0061650D03*
X0091550Y0061650D03*
X0091550Y0051650D03*
X0091550Y0026650D03*
X0091550Y0016650D03*
D12*
X0201550Y0081650D03*
X0211550Y0081650D03*
X0221550Y0081650D03*
X0231550Y0081650D03*
D13*
X0226150Y0071250D02*
X0222750Y0071250D01*
X0220350Y0071250D01*
X0216950Y0071250D01*
X0216950Y0052050D02*
X0226150Y0052050D01*
X0152427Y0049112D02*
X0134452Y0049112D01*
X0136840Y0052612D02*
X0136842Y0052696D01*
X0136848Y0052781D01*
X0136858Y0052864D01*
X0136872Y0052948D01*
X0136889Y0053030D01*
X0136911Y0053112D01*
X0136936Y0053192D01*
X0136965Y0053271D01*
X0136998Y0053349D01*
X0137034Y0053425D01*
X0137074Y0053500D01*
X0137118Y0053572D01*
X0137164Y0053643D01*
X0137214Y0053711D01*
X0137267Y0053776D01*
X0137323Y0053839D01*
X0137382Y0053900D01*
X0137444Y0053957D01*
X0137508Y0054012D01*
X0137575Y0054063D01*
X0137644Y0054112D01*
X0137716Y0054157D01*
X0137789Y0054198D01*
X0137864Y0054236D01*
X0137941Y0054271D01*
X0138020Y0054302D01*
X0138100Y0054329D01*
X0138181Y0054352D01*
X0138263Y0054372D01*
X0138346Y0054388D01*
X0138429Y0054400D01*
X0138514Y0054408D01*
X0138598Y0054412D01*
X0138682Y0054412D01*
X0138766Y0054408D01*
X0138851Y0054400D01*
X0138934Y0054388D01*
X0139017Y0054372D01*
X0139099Y0054352D01*
X0139180Y0054329D01*
X0139260Y0054302D01*
X0139339Y0054271D01*
X0139416Y0054236D01*
X0139491Y0054198D01*
X0139564Y0054157D01*
X0139636Y0054112D01*
X0139705Y0054063D01*
X0139772Y0054012D01*
X0139836Y0053957D01*
X0139898Y0053900D01*
X0139957Y0053839D01*
X0140013Y0053776D01*
X0140066Y0053711D01*
X0140116Y0053643D01*
X0140162Y0053572D01*
X0140206Y0053500D01*
X0140246Y0053425D01*
X0140282Y0053349D01*
X0140315Y0053271D01*
X0140344Y0053192D01*
X0140369Y0053112D01*
X0140391Y0053030D01*
X0140408Y0052948D01*
X0140422Y0052864D01*
X0140432Y0052781D01*
X0140438Y0052696D01*
X0140440Y0052612D01*
X0140438Y0052528D01*
X0140432Y0052443D01*
X0140422Y0052360D01*
X0140408Y0052276D01*
X0140391Y0052194D01*
X0140369Y0052112D01*
X0140344Y0052032D01*
X0140315Y0051953D01*
X0140282Y0051875D01*
X0140246Y0051799D01*
X0140206Y0051724D01*
X0140162Y0051652D01*
X0140116Y0051581D01*
X0140066Y0051513D01*
X0140013Y0051448D01*
X0139957Y0051385D01*
X0139898Y0051324D01*
X0139836Y0051267D01*
X0139772Y0051212D01*
X0139705Y0051161D01*
X0139636Y0051112D01*
X0139564Y0051067D01*
X0139491Y0051026D01*
X0139416Y0050988D01*
X0139339Y0050953D01*
X0139260Y0050922D01*
X0139180Y0050895D01*
X0139099Y0050872D01*
X0139017Y0050852D01*
X0138934Y0050836D01*
X0138851Y0050824D01*
X0138766Y0050816D01*
X0138682Y0050812D01*
X0138598Y0050812D01*
X0138514Y0050816D01*
X0138429Y0050824D01*
X0138346Y0050836D01*
X0138263Y0050852D01*
X0138181Y0050872D01*
X0138100Y0050895D01*
X0138020Y0050922D01*
X0137941Y0050953D01*
X0137864Y0050988D01*
X0137789Y0051026D01*
X0137716Y0051067D01*
X0137644Y0051112D01*
X0137575Y0051161D01*
X0137508Y0051212D01*
X0137444Y0051267D01*
X0137382Y0051324D01*
X0137323Y0051385D01*
X0137267Y0051448D01*
X0137214Y0051513D01*
X0137164Y0051581D01*
X0137118Y0051652D01*
X0137074Y0051724D01*
X0137034Y0051799D01*
X0136998Y0051875D01*
X0136965Y0051953D01*
X0136936Y0052032D01*
X0136911Y0052112D01*
X0136889Y0052194D01*
X0136872Y0052276D01*
X0136858Y0052360D01*
X0136848Y0052443D01*
X0136842Y0052528D01*
X0136840Y0052612D01*
X0134452Y0084267D02*
X0152427Y0084267D01*
D14*
X0220350Y0071250D02*
X0220352Y0071181D01*
X0220358Y0071113D01*
X0220368Y0071045D01*
X0220381Y0070978D01*
X0220399Y0070912D01*
X0220420Y0070847D01*
X0220445Y0070783D01*
X0220473Y0070721D01*
X0220505Y0070660D01*
X0220540Y0070601D01*
X0220579Y0070545D01*
X0220621Y0070490D01*
X0220666Y0070439D01*
X0220714Y0070389D01*
X0220764Y0070343D01*
X0220817Y0070300D01*
X0220873Y0070259D01*
X0220930Y0070222D01*
X0220990Y0070189D01*
X0221052Y0070158D01*
X0221115Y0070132D01*
X0221179Y0070109D01*
X0221245Y0070089D01*
X0221312Y0070074D01*
X0221379Y0070062D01*
X0221447Y0070054D01*
X0221516Y0070050D01*
X0221584Y0070050D01*
X0221653Y0070054D01*
X0221721Y0070062D01*
X0221788Y0070074D01*
X0221855Y0070089D01*
X0221921Y0070109D01*
X0221985Y0070132D01*
X0222048Y0070158D01*
X0222110Y0070189D01*
X0222170Y0070222D01*
X0222227Y0070259D01*
X0222283Y0070300D01*
X0222336Y0070343D01*
X0222386Y0070389D01*
X0222434Y0070439D01*
X0222479Y0070490D01*
X0222521Y0070545D01*
X0222560Y0070601D01*
X0222595Y0070660D01*
X0222627Y0070721D01*
X0222655Y0070783D01*
X0222680Y0070847D01*
X0222701Y0070912D01*
X0222719Y0070978D01*
X0222732Y0071045D01*
X0222742Y0071113D01*
X0222748Y0071181D01*
X0222750Y0071250D01*
D15*
X0230864Y0071784D02*
X0234000Y0074920D01*
X0232432Y0074920D02*
X0232432Y0071784D01*
X0234000Y0071784D02*
X0230864Y0074920D01*
X0230864Y0073352D02*
X0234000Y0073352D01*
M02*
