%
M48
M72
T01C0.01181
T02C0.02362
T03C0.03200
T04C0.03543
T05C0.04000
%
T01
X28617Y49386
X35507Y60213
X44365Y72516
X58637Y87280
X58637Y91217
X62574Y92201
X75369Y103028
X67495Y109426
X67495Y113363
X71924Y122221
X57652Y119760
X55192Y116807
X55192Y112870
X42889Y121237
X41412Y113855
X41412Y106965
X26648Y108933
X27141Y128619
X32554Y140922
X35015Y143874
X41412Y140922
X54700Y145843
X57160Y142890
X63558Y147811
X66511Y150272
X71924Y148304
X67987Y157162
X70940Y160115
X55192Y156670
X35507Y162575
X71924Y135508
X91117Y91217
X87180Y84819
X84719Y79406
X80782Y79406
X95054Y67595
X89148Y65626
X81274Y58737
X92593Y47418
X97515Y42496
X91609Y22811
X84227Y21827
X145743Y65134
X148696Y68087
X159522Y67595
X160015Y57260
X164444Y52831
X159522Y49878
X177731Y51847
X178715Y55784
X178223Y71532
X198400Y87772
X196432Y93678
X206274Y99583
X215625Y93678
X218578Y90233
X231865Y88264
X241707Y80390
X244660Y87280
X232849Y75469
X221530Y75469
X243597Y69977
X224483Y56276
X224483Y52339
X218578Y54307
X225959Y43481
X219070Y38559
X225959Y35607
X231865Y32654
X198893Y35607
X141806Y79898
X150664Y81374
X129995Y87772
X118676Y87772
X109326Y84819
X118676Y79898
X123597Y74485
X124581Y69563
X120644Y69563
X112770Y66611
X196432Y105489
X201845Y108441
X222515Y111394
X225467Y108441
X229404Y106965
X232357Y104504
X233341Y131079
T02
X74385Y179786
X69172Y179911
X63369Y179589
X58550Y179911
X50255Y179286
X45042Y179411
X39239Y179089
X34420Y179411
X34310Y153411
X39129Y153089
X44932Y153411
X50144Y153286
X49515Y126286
X44302Y126411
X38499Y126089
X33680Y126411
X33641Y98981
X38459Y98659
X44263Y98981
X49475Y98856
T03
X208200Y116400
X208200Y126400
X208200Y136400
X208200Y146400
X208200Y156400
X208200Y166400
X208200Y176400
X208200Y186400
X238200Y186400
X238200Y176400
X238200Y166400
X238200Y156400
X238200Y146400
X238200Y136400
X238200Y126400
X238200Y116400
T04
X226589Y22920
X216589Y12920
X236589Y12920
T05
X14050Y14150
X24050Y14150
X24050Y24150
X14050Y24150
X14050Y34150
X24050Y34150
X24050Y44150
X14050Y44150
X14050Y54150
X24050Y54150
X24050Y64150
X14050Y64150
X14050Y74150
X24050Y74150
X24050Y84150
X14050Y84150
X14050Y94150
X24050Y94150
X24050Y104150
X14050Y104150
X14050Y114150
X24050Y114150
X24050Y124150
X14050Y124150
X14050Y134150
X24050Y134150
X24050Y144150
X14050Y144150
X14050Y154150
X24050Y154150
X24050Y164150
X14050Y164150
X14050Y174150
X24050Y174150
X24050Y184150
X14050Y184150
X14050Y194150
X24050Y194150
X90300Y101300
X100300Y101300
X110300Y101300
X104350Y65550
X104350Y47750
X104350Y30550
X104350Y12750
X78750Y12750
X64350Y12750
X64350Y30550
X78750Y30550
X78750Y47750
X64350Y47750
X64350Y65550
X78750Y65550
X38750Y65550
X38750Y47750
X38750Y30550
X38750Y12750
X254050Y14150
X264050Y14150
X264050Y24150
X254050Y24150
X254050Y34150
X264050Y34150
X264050Y44150
X254050Y44150
X254050Y54150
X264050Y54150
X264050Y64150
X254050Y64150
X254050Y74150
X264050Y74150
X264050Y84150
X254050Y84150
X254050Y94150
X264050Y94150
X264050Y104150
X254050Y104150
X254050Y114150
X264050Y114150
X264050Y124150
X254050Y124150
X254050Y134150
X264050Y134150
X264050Y144150
X254050Y144150
X254050Y154150
X264050Y154150
X264050Y164150
X254050Y164150
X254050Y174150
X264050Y174150
X264050Y184150
X254050Y184150
X254050Y194150
X264050Y194150
M30
