G04 EAGLE Gerber X2 export*
%TF.Part,Single*%
%TF.FileFunction,Copper,L2,Inr,Mixed*%
%TF.FilePolarity,Positive*%
%TF.GenerationSoftware,Autodesk,EAGLE,9.0.0*%
%TF.CreationDate,2018-07-03T14:12:15Z*%
G75*
%MOMM*%
%FSLAX34Y34*%
%LPD*%
%AMOC8*
5,1,8,0,0,1.08239X$1,22.5*%
G01*
%ADD10C,1.524000*%
%ADD11C,4.318000*%
%ADD12C,1.219200*%
%ADD13C,1.676400*%
%ADD14C,0.705600*%
%ADD15C,0.955600*%
%ADD16C,0.508000*%
%ADD17C,0.254000*%
%ADD18C,0.685800*%


D10*
X44450Y266700D03*
X44450Y241300D03*
X44450Y215900D03*
X44450Y190500D03*
X44450Y165100D03*
X44450Y139700D03*
X44450Y114300D03*
X44450Y88900D03*
X44450Y63500D03*
X44450Y38100D03*
X69850Y266700D03*
X69850Y241300D03*
X69850Y215900D03*
X69850Y190500D03*
X69850Y165100D03*
X69850Y139700D03*
X69850Y114300D03*
X69850Y88900D03*
X69850Y63500D03*
X69850Y38100D03*
X476250Y266700D03*
X476250Y241300D03*
X476250Y215900D03*
X476250Y190500D03*
X476250Y165100D03*
X476250Y139700D03*
X476250Y114300D03*
X476250Y88900D03*
X476250Y63500D03*
X476250Y38100D03*
X501650Y266700D03*
X501650Y241300D03*
X501650Y215900D03*
X501650Y190500D03*
X501650Y165100D03*
X501650Y139700D03*
X501650Y114300D03*
X501650Y88900D03*
X501650Y63500D03*
X501650Y38100D03*
X224000Y443000D03*
X251700Y443000D03*
X279400Y443000D03*
X307100Y443000D03*
X334800Y443000D03*
X237900Y471400D03*
X265600Y471400D03*
X293200Y471400D03*
X320900Y471400D03*
D11*
X154400Y457200D03*
X404400Y457200D03*
D12*
X304800Y381000D03*
X203200Y381000D03*
D10*
X260350Y234950D03*
X260350Y209550D03*
X260350Y184150D03*
D13*
X177800Y349250D03*
X279400Y349250D03*
D14*
X444500Y134846D03*
X374650Y260350D03*
X374650Y215900D03*
X190500Y317500D03*
X127000Y184150D03*
X152400Y101600D03*
X203200Y101600D03*
D15*
X393700Y50800D03*
D14*
X196850Y31750D03*
X120650Y247650D03*
X171450Y114300D03*
X222250Y114300D03*
X406400Y247650D03*
D16*
X393700Y234950D01*
D14*
X298450Y234950D03*
D16*
X393700Y234950D01*
D14*
X114300Y266700D03*
X463550Y127000D03*
X323850Y177800D03*
X190500Y298450D03*
X330200Y66675D03*
D17*
X406400Y82550D02*
X409575Y85725D01*
X454025Y85725D02*
X476250Y63500D01*
X454025Y85725D02*
X409575Y85725D01*
X374650Y82550D02*
X355600Y63500D01*
X374650Y82550D02*
X406400Y82550D01*
X333375Y63500D02*
X330200Y66675D01*
X333375Y63500D02*
X355600Y63500D01*
D18*
X317500Y66675D03*
D17*
X323850Y142875D02*
X269875Y196850D01*
X104775Y196850D01*
X73025Y228600D01*
X57150Y228600D01*
X44450Y241300D01*
D18*
X323850Y142875D03*
D17*
X361950Y136525D02*
X73025Y136525D01*
X69850Y139700D01*
D18*
X361950Y136525D03*
X336550Y142875D03*
D17*
X374650Y123825D02*
X387350Y136525D01*
X374650Y123825D02*
X355600Y123825D01*
D18*
X387350Y136525D03*
X355600Y123825D03*
D14*
X346075Y69850D03*
D17*
X406400Y130175D01*
X406400Y158750D01*
X400050Y165100D01*
X381000Y165100D01*
D14*
X381000Y165100D03*
D15*
X457200Y57150D03*
D17*
X431800Y31750D01*
X165100Y88900D02*
X69850Y88900D01*
X222250Y31750D02*
X431800Y31750D01*
X222250Y31750D02*
X165100Y88900D01*
D14*
X374650Y69850D03*
D17*
X400038Y69850D01*
X411268Y81080D01*
X428732Y81080D01*
X439962Y69850D01*
X450850Y69850D01*
D14*
X450850Y69850D03*
M02*
