G04 EAGLE Gerber X2 export*
%TF.Part,Single*%
%TF.FileFunction,Copper,L3,Inr,Mixed*%
%TF.FilePolarity,Positive*%
%TF.GenerationSoftware,Autodesk,EAGLE,9.0.0*%
%TF.CreationDate,2018-07-03T14:12:15Z*%
G75*
%MOMM*%
%FSLAX34Y34*%
%LPD*%
%AMOC8*
5,1,8,0,0,1.08239X$1,22.5*%
G01*
%ADD10C,1.524000*%
%ADD11C,4.318000*%
%ADD12C,1.219200*%
%ADD13C,1.676400*%
%ADD14C,0.705600*%
%ADD15C,0.508000*%
%ADD16C,0.955600*%
%ADD17C,0.406400*%
%ADD18C,0.254000*%
%ADD19C,0.685800*%

G36*
X538464Y6137D02*
X538464Y6137D01*
X538538Y6155D01*
X538613Y6165D01*
X538777Y6214D01*
X538943Y6255D01*
X539012Y6285D01*
X539086Y6307D01*
X539239Y6383D01*
X539396Y6450D01*
X539460Y6491D01*
X539529Y6524D01*
X539668Y6623D01*
X539812Y6715D01*
X539869Y6766D01*
X539931Y6810D01*
X540052Y6930D01*
X540180Y7044D01*
X540228Y7103D01*
X540282Y7157D01*
X540383Y7295D01*
X540490Y7428D01*
X540527Y7494D01*
X540572Y7555D01*
X540649Y7708D01*
X540734Y7856D01*
X540760Y7928D01*
X540795Y7996D01*
X540846Y8159D01*
X540905Y8319D01*
X540920Y8394D01*
X540943Y8466D01*
X540955Y8571D01*
X541000Y8803D01*
X541007Y9039D01*
X541019Y9144D01*
X541019Y549656D01*
X541013Y549732D01*
X541015Y549808D01*
X540993Y549977D01*
X540979Y550148D01*
X540961Y550222D01*
X540951Y550297D01*
X540902Y550461D01*
X540861Y550627D01*
X540831Y550696D01*
X540809Y550770D01*
X540733Y550923D01*
X540666Y551080D01*
X540625Y551144D01*
X540592Y551213D01*
X540493Y551352D01*
X540401Y551496D01*
X540350Y551553D01*
X540306Y551615D01*
X540186Y551736D01*
X540072Y551864D01*
X540013Y551912D01*
X539959Y551966D01*
X539821Y552067D01*
X539688Y552174D01*
X539622Y552211D01*
X539561Y552256D01*
X539408Y552333D01*
X539260Y552418D01*
X539188Y552444D01*
X539120Y552479D01*
X538957Y552530D01*
X538797Y552589D01*
X538722Y552604D01*
X538650Y552627D01*
X538545Y552639D01*
X538313Y552684D01*
X538077Y552691D01*
X537972Y552703D01*
X8128Y552703D01*
X8052Y552697D01*
X7976Y552699D01*
X7807Y552677D01*
X7636Y552663D01*
X7562Y552645D01*
X7487Y552635D01*
X7323Y552586D01*
X7157Y552545D01*
X7088Y552515D01*
X7014Y552493D01*
X6861Y552417D01*
X6704Y552350D01*
X6640Y552309D01*
X6571Y552276D01*
X6432Y552177D01*
X6288Y552085D01*
X6231Y552034D01*
X6169Y551990D01*
X6048Y551870D01*
X5920Y551756D01*
X5872Y551697D01*
X5818Y551643D01*
X5717Y551505D01*
X5610Y551372D01*
X5573Y551306D01*
X5528Y551245D01*
X5451Y551092D01*
X5366Y550944D01*
X5340Y550872D01*
X5305Y550804D01*
X5254Y550641D01*
X5195Y550481D01*
X5180Y550406D01*
X5157Y550334D01*
X5145Y550229D01*
X5100Y549997D01*
X5093Y549761D01*
X5081Y549656D01*
X5081Y9144D01*
X5087Y9068D01*
X5085Y8992D01*
X5107Y8823D01*
X5121Y8652D01*
X5139Y8578D01*
X5149Y8503D01*
X5198Y8339D01*
X5239Y8173D01*
X5269Y8104D01*
X5291Y8030D01*
X5367Y7877D01*
X5434Y7720D01*
X5475Y7656D01*
X5508Y7587D01*
X5607Y7448D01*
X5699Y7304D01*
X5750Y7247D01*
X5794Y7185D01*
X5914Y7064D01*
X6028Y6936D01*
X6087Y6888D01*
X6141Y6834D01*
X6279Y6733D01*
X6412Y6626D01*
X6478Y6589D01*
X6539Y6544D01*
X6692Y6467D01*
X6840Y6382D01*
X6912Y6356D01*
X6980Y6321D01*
X7143Y6270D01*
X7303Y6211D01*
X7378Y6196D01*
X7450Y6173D01*
X7555Y6161D01*
X7787Y6116D01*
X8023Y6109D01*
X8128Y6097D01*
X537972Y6097D01*
X538048Y6103D01*
X538124Y6101D01*
X538293Y6123D01*
X538464Y6137D01*
G37*
%LPC*%
G36*
X57378Y274669D02*
X57378Y274669D01*
X57547Y274696D01*
X57717Y274714D01*
X57790Y274734D01*
X57865Y274746D01*
X58028Y274799D01*
X58192Y274844D01*
X58262Y274876D01*
X58334Y274900D01*
X58486Y274979D01*
X58641Y275050D01*
X58704Y275093D01*
X58772Y275128D01*
X58854Y275194D01*
X59050Y275326D01*
X59222Y275488D01*
X59305Y275553D01*
X62080Y278328D01*
X67122Y280417D01*
X72578Y280417D01*
X77620Y278328D01*
X81478Y274470D01*
X83567Y269428D01*
X83567Y263972D01*
X81478Y258930D01*
X77620Y255072D01*
X76636Y254664D01*
X76482Y254585D01*
X76324Y254514D01*
X76263Y254473D01*
X76197Y254439D01*
X76057Y254336D01*
X75914Y254240D01*
X75859Y254190D01*
X75800Y254146D01*
X75679Y254022D01*
X75553Y253904D01*
X75507Y253846D01*
X75455Y253793D01*
X75356Y253651D01*
X75250Y253514D01*
X75215Y253449D01*
X75172Y253389D01*
X75097Y253233D01*
X75015Y253081D01*
X74991Y253011D01*
X74958Y252944D01*
X74909Y252778D01*
X74853Y252615D01*
X74840Y252542D01*
X74819Y252471D01*
X74797Y252299D01*
X74768Y252129D01*
X74767Y252055D01*
X74758Y251981D01*
X74764Y251809D01*
X74762Y251636D01*
X74773Y251562D01*
X74776Y251488D01*
X74810Y251319D01*
X74836Y251148D01*
X74859Y251078D01*
X74874Y251005D01*
X74935Y250843D01*
X74988Y250679D01*
X75022Y250613D01*
X75048Y250543D01*
X75135Y250394D01*
X75214Y250240D01*
X75258Y250180D01*
X75295Y250116D01*
X75405Y249982D01*
X75507Y249843D01*
X75550Y249804D01*
X75607Y249734D01*
X75977Y249408D01*
X75998Y249395D01*
X76011Y249383D01*
X76469Y249050D01*
X77600Y247919D01*
X78540Y246625D01*
X79266Y245200D01*
X79543Y244347D01*
X69850Y244347D01*
X69774Y244341D01*
X69698Y244344D01*
X69529Y244321D01*
X69359Y244307D01*
X69285Y244289D01*
X69209Y244279D01*
X69045Y244230D01*
X68880Y244189D01*
X68810Y244159D01*
X68737Y244137D01*
X68583Y244062D01*
X68426Y243994D01*
X68362Y243953D01*
X68294Y243920D01*
X68154Y243821D01*
X68010Y243729D01*
X67954Y243678D01*
X67891Y243634D01*
X67770Y243514D01*
X67642Y243400D01*
X67595Y243341D01*
X67540Y243288D01*
X67440Y243149D01*
X67333Y243017D01*
X67295Y242950D01*
X67250Y242889D01*
X67173Y242736D01*
X67089Y242588D01*
X67062Y242516D01*
X67028Y242448D01*
X66976Y242286D01*
X66917Y242125D01*
X66902Y242051D01*
X66879Y241978D01*
X66868Y241873D01*
X66822Y241641D01*
X66815Y241405D01*
X66803Y241300D01*
X66809Y241224D01*
X66807Y241148D01*
X66829Y240978D01*
X66843Y240808D01*
X66861Y240734D01*
X66871Y240659D01*
X66921Y240495D01*
X66962Y240329D01*
X66992Y240259D01*
X67014Y240186D01*
X67089Y240033D01*
X67156Y239876D01*
X67197Y239812D01*
X67231Y239743D01*
X67330Y239604D01*
X67421Y239460D01*
X67472Y239403D01*
X67516Y239341D01*
X67636Y239219D01*
X67750Y239092D01*
X67809Y239044D01*
X67863Y238990D01*
X68001Y238889D01*
X68134Y238782D01*
X68200Y238744D01*
X68262Y238699D01*
X68414Y238623D01*
X68563Y238538D01*
X68634Y238511D01*
X68702Y238477D01*
X68865Y238426D01*
X69025Y238366D01*
X69100Y238352D01*
X69173Y238329D01*
X69277Y238317D01*
X69509Y238272D01*
X69745Y238264D01*
X69850Y238253D01*
X79543Y238253D01*
X79266Y237400D01*
X78540Y235975D01*
X77600Y234681D01*
X76469Y233550D01*
X76011Y233217D01*
X75880Y233104D01*
X75743Y232998D01*
X75693Y232944D01*
X75636Y232895D01*
X75525Y232763D01*
X75408Y232636D01*
X75366Y232574D01*
X75319Y232518D01*
X75231Y232370D01*
X75135Y232225D01*
X75104Y232158D01*
X75066Y232094D01*
X75003Y231933D01*
X74932Y231776D01*
X74913Y231704D01*
X74886Y231635D01*
X74849Y231466D01*
X74804Y231299D01*
X74797Y231225D01*
X74781Y231153D01*
X74772Y230980D01*
X74755Y230808D01*
X74760Y230734D01*
X74756Y230660D01*
X74775Y230488D01*
X74786Y230316D01*
X74802Y230244D01*
X74811Y230170D01*
X74857Y230003D01*
X74896Y229835D01*
X74924Y229766D01*
X74944Y229695D01*
X75017Y229538D01*
X75082Y229378D01*
X75120Y229315D01*
X75152Y229247D01*
X75249Y229104D01*
X75339Y228957D01*
X75387Y228901D01*
X75429Y228839D01*
X75548Y228714D01*
X75661Y228583D01*
X75718Y228535D01*
X75769Y228482D01*
X75906Y228377D01*
X76039Y228266D01*
X76090Y228238D01*
X76162Y228183D01*
X76598Y227952D01*
X76621Y227945D01*
X76636Y227936D01*
X77620Y227528D01*
X81478Y223670D01*
X83567Y218628D01*
X83567Y213172D01*
X81479Y208130D01*
X78703Y205355D01*
X78654Y205297D01*
X78598Y205245D01*
X78494Y205109D01*
X78384Y204979D01*
X78344Y204913D01*
X78298Y204853D01*
X78217Y204703D01*
X78129Y204556D01*
X78101Y204486D01*
X78065Y204418D01*
X78009Y204257D01*
X77946Y204098D01*
X77930Y204024D01*
X77905Y203952D01*
X77876Y203783D01*
X77839Y203617D01*
X77835Y203540D01*
X77822Y203465D01*
X77821Y203294D01*
X77812Y203124D01*
X77820Y203048D01*
X77819Y202972D01*
X77846Y202803D01*
X77864Y202633D01*
X77884Y202560D01*
X77896Y202485D01*
X77949Y202322D01*
X77994Y202158D01*
X78026Y202088D01*
X78050Y202016D01*
X78129Y201864D01*
X78200Y201709D01*
X78243Y201646D01*
X78278Y201578D01*
X78344Y201496D01*
X78476Y201300D01*
X78638Y201128D01*
X78703Y201045D01*
X81478Y198270D01*
X83567Y193228D01*
X83567Y187772D01*
X81479Y182730D01*
X78703Y179955D01*
X78654Y179897D01*
X78598Y179845D01*
X78494Y179709D01*
X78384Y179579D01*
X78344Y179513D01*
X78298Y179453D01*
X78217Y179303D01*
X78129Y179156D01*
X78101Y179086D01*
X78065Y179018D01*
X78009Y178857D01*
X77946Y178698D01*
X77930Y178624D01*
X77905Y178552D01*
X77876Y178383D01*
X77839Y178217D01*
X77835Y178140D01*
X77822Y178065D01*
X77821Y177894D01*
X77812Y177724D01*
X77820Y177648D01*
X77819Y177572D01*
X77846Y177403D01*
X77864Y177233D01*
X77884Y177160D01*
X77896Y177085D01*
X77949Y176922D01*
X77994Y176758D01*
X78026Y176688D01*
X78050Y176616D01*
X78129Y176464D01*
X78200Y176309D01*
X78243Y176246D01*
X78278Y176178D01*
X78344Y176096D01*
X78476Y175900D01*
X78638Y175728D01*
X78703Y175645D01*
X81478Y172870D01*
X83567Y167828D01*
X83567Y162372D01*
X81479Y157330D01*
X78703Y154555D01*
X78654Y154497D01*
X78598Y154445D01*
X78494Y154309D01*
X78384Y154179D01*
X78344Y154113D01*
X78298Y154053D01*
X78217Y153903D01*
X78129Y153756D01*
X78101Y153686D01*
X78065Y153618D01*
X78009Y153457D01*
X77946Y153298D01*
X77930Y153224D01*
X77905Y153152D01*
X77876Y152983D01*
X77839Y152817D01*
X77835Y152740D01*
X77822Y152665D01*
X77821Y152494D01*
X77812Y152324D01*
X77820Y152248D01*
X77819Y152172D01*
X77846Y152003D01*
X77864Y151833D01*
X77884Y151760D01*
X77896Y151685D01*
X77949Y151522D01*
X77994Y151358D01*
X78026Y151288D01*
X78050Y151216D01*
X78129Y151064D01*
X78200Y150909D01*
X78243Y150846D01*
X78278Y150778D01*
X78344Y150696D01*
X78476Y150500D01*
X78544Y150428D01*
X78559Y150406D01*
X78643Y150321D01*
X78703Y150245D01*
X81478Y147470D01*
X83567Y142428D01*
X83567Y136972D01*
X81603Y132230D01*
X81548Y132059D01*
X81485Y131889D01*
X81472Y131824D01*
X81451Y131761D01*
X81425Y131582D01*
X81390Y131405D01*
X81388Y131339D01*
X81378Y131273D01*
X81380Y131092D01*
X81375Y130912D01*
X81383Y130846D01*
X81384Y130779D01*
X81415Y130602D01*
X81439Y130423D01*
X81458Y130359D01*
X81470Y130294D01*
X81529Y130123D01*
X81582Y129950D01*
X81611Y129891D01*
X81633Y129828D01*
X81719Y129670D01*
X81798Y129507D01*
X81837Y129453D01*
X81869Y129395D01*
X81979Y129252D01*
X82084Y129105D01*
X82131Y129058D01*
X82171Y129005D01*
X82304Y128882D01*
X82431Y128754D01*
X82484Y128715D01*
X82533Y128670D01*
X82683Y128570D01*
X82829Y128464D01*
X82889Y128434D01*
X82944Y128397D01*
X83109Y128323D01*
X83270Y128241D01*
X83333Y128221D01*
X83394Y128194D01*
X83568Y128147D01*
X83740Y128093D01*
X83793Y128087D01*
X83870Y128066D01*
X84361Y128017D01*
X84395Y128019D01*
X84418Y128017D01*
X310011Y128017D01*
X310125Y128026D01*
X310239Y128025D01*
X310371Y128046D01*
X310503Y128057D01*
X310614Y128084D01*
X310727Y128102D01*
X310853Y128143D01*
X310982Y128175D01*
X311087Y128220D01*
X311195Y128256D01*
X311313Y128317D01*
X311435Y128370D01*
X311532Y128431D01*
X311633Y128484D01*
X311706Y128543D01*
X311851Y128635D01*
X312093Y128851D01*
X312166Y128909D01*
X316101Y132844D01*
X316150Y132902D01*
X316205Y132954D01*
X316309Y133089D01*
X316420Y133220D01*
X316459Y133285D01*
X316506Y133345D01*
X316586Y133496D01*
X316675Y133642D01*
X316703Y133713D01*
X316739Y133780D01*
X316794Y133942D01*
X316858Y134100D01*
X316874Y134175D01*
X316899Y134247D01*
X316927Y134415D01*
X316964Y134582D01*
X316969Y134658D01*
X316981Y134733D01*
X316983Y134904D01*
X316992Y135074D01*
X316984Y135150D01*
X316984Y135226D01*
X316958Y135395D01*
X316940Y135565D01*
X316920Y135639D01*
X316908Y135714D01*
X316854Y135876D01*
X316809Y136041D01*
X316777Y136110D01*
X316754Y136182D01*
X316675Y136334D01*
X316604Y136489D01*
X316561Y136552D01*
X316526Y136620D01*
X316460Y136702D01*
X316328Y136898D01*
X316166Y137071D01*
X316100Y137153D01*
X315774Y137479D01*
X314324Y140980D01*
X314324Y144770D01*
X315774Y148271D01*
X318454Y150951D01*
X321955Y152401D01*
X325745Y152401D01*
X329034Y151038D01*
X329142Y151003D01*
X329248Y150959D01*
X329377Y150928D01*
X329503Y150887D01*
X329616Y150870D01*
X329727Y150843D01*
X329860Y150833D01*
X329991Y150814D01*
X330105Y150815D01*
X330219Y150806D01*
X330352Y150818D01*
X330485Y150820D01*
X330597Y150840D01*
X330711Y150850D01*
X330801Y150876D01*
X330970Y150905D01*
X331277Y151013D01*
X331366Y151038D01*
X334655Y152401D01*
X338445Y152401D01*
X341946Y150951D01*
X344626Y148271D01*
X346076Y144770D01*
X346076Y140980D01*
X344626Y137479D01*
X341946Y134799D01*
X338392Y133327D01*
X338345Y133320D01*
X338213Y133309D01*
X338102Y133282D01*
X337989Y133264D01*
X337863Y133223D01*
X337734Y133191D01*
X337629Y133146D01*
X337521Y133110D01*
X337403Y133048D01*
X337281Y132996D01*
X337184Y132935D01*
X337083Y132882D01*
X337010Y132823D01*
X336865Y132731D01*
X336622Y132515D01*
X336550Y132457D01*
X318498Y114405D01*
X315790Y113283D01*
X234283Y113283D01*
X234065Y113266D01*
X233847Y113252D01*
X233819Y113246D01*
X233791Y113243D01*
X233579Y113191D01*
X233366Y113142D01*
X233340Y113131D01*
X233312Y113125D01*
X233112Y113039D01*
X232909Y112956D01*
X232885Y112941D01*
X232859Y112930D01*
X232675Y112813D01*
X232488Y112699D01*
X232467Y112680D01*
X232443Y112665D01*
X232280Y112520D01*
X232114Y112377D01*
X232096Y112355D01*
X232075Y112336D01*
X231938Y112167D01*
X231797Y111999D01*
X231786Y111978D01*
X231765Y111952D01*
X231521Y111524D01*
X231493Y111448D01*
X231467Y111402D01*
X230409Y108848D01*
X227702Y106141D01*
X224165Y104675D01*
X220335Y104675D01*
X216798Y106141D01*
X214091Y108848D01*
X213033Y111402D01*
X212933Y111596D01*
X212837Y111793D01*
X212820Y111816D01*
X212808Y111841D01*
X212678Y112017D01*
X212551Y112195D01*
X212531Y112215D01*
X212515Y112238D01*
X212358Y112391D01*
X212205Y112546D01*
X212182Y112563D01*
X212161Y112583D01*
X211983Y112708D01*
X211806Y112836D01*
X211780Y112849D01*
X211757Y112865D01*
X211561Y112960D01*
X211366Y113059D01*
X211339Y113067D01*
X211313Y113080D01*
X211103Y113141D01*
X210895Y113207D01*
X210872Y113210D01*
X210840Y113219D01*
X210350Y113280D01*
X210270Y113277D01*
X210217Y113283D01*
X183483Y113283D01*
X183265Y113266D01*
X183047Y113252D01*
X183019Y113246D01*
X182991Y113243D01*
X182779Y113191D01*
X182566Y113142D01*
X182540Y113131D01*
X182512Y113125D01*
X182312Y113039D01*
X182109Y112956D01*
X182085Y112941D01*
X182059Y112930D01*
X181875Y112813D01*
X181688Y112699D01*
X181667Y112680D01*
X181643Y112665D01*
X181480Y112520D01*
X181314Y112377D01*
X181296Y112355D01*
X181275Y112336D01*
X181138Y112167D01*
X180997Y111999D01*
X180986Y111978D01*
X180965Y111952D01*
X180721Y111524D01*
X180693Y111448D01*
X180667Y111402D01*
X179609Y108848D01*
X176902Y106141D01*
X173365Y104675D01*
X169535Y104675D01*
X165998Y106141D01*
X163291Y108848D01*
X162233Y111402D01*
X162133Y111596D01*
X162037Y111793D01*
X162020Y111816D01*
X162008Y111841D01*
X161878Y112017D01*
X161751Y112195D01*
X161731Y112215D01*
X161715Y112238D01*
X161558Y112391D01*
X161405Y112546D01*
X161382Y112563D01*
X161361Y112583D01*
X161183Y112708D01*
X161006Y112836D01*
X160980Y112849D01*
X160957Y112865D01*
X160761Y112960D01*
X160566Y113059D01*
X160539Y113067D01*
X160513Y113080D01*
X160303Y113141D01*
X160095Y113207D01*
X160072Y113210D01*
X160040Y113219D01*
X159550Y113280D01*
X159470Y113277D01*
X159417Y113283D01*
X86312Y113283D01*
X86094Y113266D01*
X85876Y113252D01*
X85849Y113246D01*
X85820Y113243D01*
X85608Y113191D01*
X85395Y113142D01*
X85369Y113131D01*
X85341Y113125D01*
X85141Y113039D01*
X84938Y112956D01*
X84914Y112941D01*
X84888Y112930D01*
X84704Y112813D01*
X84517Y112699D01*
X84496Y112680D01*
X84472Y112665D01*
X84309Y112520D01*
X84144Y112377D01*
X84125Y112355D01*
X84104Y112336D01*
X83967Y112166D01*
X83826Y111999D01*
X83815Y111979D01*
X83794Y111952D01*
X83550Y111524D01*
X83522Y111448D01*
X83497Y111402D01*
X81479Y106530D01*
X78703Y103755D01*
X78654Y103697D01*
X78598Y103645D01*
X78494Y103509D01*
X78384Y103379D01*
X78344Y103313D01*
X78298Y103253D01*
X78217Y103103D01*
X78129Y102956D01*
X78101Y102886D01*
X78065Y102818D01*
X78009Y102657D01*
X77946Y102498D01*
X77930Y102424D01*
X77905Y102352D01*
X77876Y102183D01*
X77839Y102017D01*
X77835Y101940D01*
X77822Y101865D01*
X77821Y101694D01*
X77812Y101524D01*
X77820Y101448D01*
X77819Y101372D01*
X77846Y101203D01*
X77864Y101033D01*
X77884Y100960D01*
X77896Y100885D01*
X77949Y100722D01*
X77994Y100558D01*
X78026Y100488D01*
X78050Y100416D01*
X78129Y100264D01*
X78200Y100109D01*
X78243Y100046D01*
X78278Y99978D01*
X78344Y99896D01*
X78476Y99700D01*
X78638Y99528D01*
X78703Y99445D01*
X81478Y96670D01*
X83567Y91628D01*
X83567Y86172D01*
X81479Y81130D01*
X78703Y78355D01*
X78654Y78297D01*
X78598Y78245D01*
X78494Y78109D01*
X78384Y77979D01*
X78344Y77913D01*
X78298Y77853D01*
X78217Y77703D01*
X78129Y77556D01*
X78101Y77486D01*
X78065Y77418D01*
X78009Y77257D01*
X77946Y77098D01*
X77930Y77024D01*
X77905Y76952D01*
X77876Y76783D01*
X77839Y76617D01*
X77835Y76540D01*
X77822Y76465D01*
X77821Y76294D01*
X77812Y76124D01*
X77820Y76048D01*
X77819Y75972D01*
X77846Y75803D01*
X77864Y75633D01*
X77884Y75560D01*
X77896Y75485D01*
X77949Y75322D01*
X77994Y75158D01*
X78026Y75088D01*
X78050Y75016D01*
X78129Y74864D01*
X78200Y74709D01*
X78243Y74646D01*
X78278Y74578D01*
X78344Y74496D01*
X78476Y74300D01*
X78521Y74251D01*
X78540Y74225D01*
X78644Y74120D01*
X78703Y74045D01*
X81478Y71270D01*
X83567Y66228D01*
X83567Y60772D01*
X81479Y55730D01*
X78703Y52955D01*
X78654Y52897D01*
X78598Y52845D01*
X78494Y52709D01*
X78384Y52579D01*
X78344Y52513D01*
X78298Y52453D01*
X78217Y52303D01*
X78129Y52156D01*
X78101Y52086D01*
X78065Y52018D01*
X78009Y51857D01*
X77946Y51698D01*
X77930Y51624D01*
X77905Y51552D01*
X77876Y51383D01*
X77839Y51217D01*
X77835Y51140D01*
X77822Y51065D01*
X77821Y50894D01*
X77812Y50724D01*
X77820Y50648D01*
X77819Y50572D01*
X77846Y50403D01*
X77864Y50233D01*
X77884Y50160D01*
X77896Y50085D01*
X77949Y49922D01*
X77994Y49758D01*
X78026Y49688D01*
X78050Y49616D01*
X78129Y49464D01*
X78200Y49309D01*
X78243Y49246D01*
X78278Y49178D01*
X78344Y49096D01*
X78476Y48900D01*
X78638Y48728D01*
X78703Y48645D01*
X81478Y45870D01*
X83567Y40828D01*
X83567Y35372D01*
X81478Y30330D01*
X77620Y26472D01*
X72578Y24383D01*
X67122Y24383D01*
X62080Y26472D01*
X59305Y29247D01*
X59247Y29296D01*
X59194Y29352D01*
X59059Y29456D01*
X58929Y29566D01*
X58864Y29606D01*
X58803Y29652D01*
X58653Y29733D01*
X58506Y29821D01*
X58435Y29849D01*
X58368Y29885D01*
X58207Y29941D01*
X58048Y30004D01*
X57974Y30020D01*
X57902Y30045D01*
X57733Y30074D01*
X57566Y30111D01*
X57490Y30115D01*
X57415Y30128D01*
X57244Y30129D01*
X57074Y30138D01*
X56998Y30130D01*
X56922Y30131D01*
X56753Y30104D01*
X56583Y30086D01*
X56510Y30066D01*
X56435Y30054D01*
X56272Y30001D01*
X56108Y29956D01*
X56038Y29924D01*
X55966Y29900D01*
X55815Y29821D01*
X55659Y29750D01*
X55596Y29707D01*
X55528Y29672D01*
X55446Y29606D01*
X55250Y29474D01*
X55078Y29313D01*
X54995Y29247D01*
X52220Y26471D01*
X47178Y24383D01*
X41722Y24383D01*
X36680Y26472D01*
X32822Y30330D01*
X30733Y35372D01*
X30733Y40828D01*
X32822Y45870D01*
X35597Y48645D01*
X35646Y48703D01*
X35702Y48756D01*
X35806Y48891D01*
X35916Y49021D01*
X35956Y49086D01*
X36002Y49147D01*
X36083Y49297D01*
X36171Y49444D01*
X36199Y49515D01*
X36235Y49582D01*
X36291Y49743D01*
X36354Y49902D01*
X36370Y49976D01*
X36395Y50048D01*
X36424Y50217D01*
X36461Y50384D01*
X36465Y50460D01*
X36478Y50535D01*
X36479Y50706D01*
X36488Y50876D01*
X36480Y50952D01*
X36481Y51028D01*
X36454Y51197D01*
X36436Y51367D01*
X36416Y51440D01*
X36404Y51515D01*
X36351Y51678D01*
X36306Y51842D01*
X36274Y51912D01*
X36250Y51984D01*
X36171Y52135D01*
X36100Y52291D01*
X36057Y52354D01*
X36022Y52422D01*
X35956Y52504D01*
X35824Y52700D01*
X35663Y52872D01*
X35597Y52955D01*
X32821Y55730D01*
X30733Y60772D01*
X30733Y66228D01*
X32822Y71270D01*
X35597Y74045D01*
X35615Y74067D01*
X35633Y74083D01*
X35661Y74117D01*
X35702Y74156D01*
X35806Y74291D01*
X35916Y74421D01*
X35956Y74486D01*
X36002Y74547D01*
X36083Y74697D01*
X36171Y74844D01*
X36199Y74915D01*
X36235Y74982D01*
X36291Y75143D01*
X36354Y75302D01*
X36370Y75376D01*
X36395Y75448D01*
X36424Y75617D01*
X36461Y75784D01*
X36465Y75860D01*
X36478Y75935D01*
X36479Y76106D01*
X36488Y76276D01*
X36480Y76352D01*
X36481Y76428D01*
X36454Y76597D01*
X36436Y76767D01*
X36416Y76840D01*
X36404Y76915D01*
X36351Y77078D01*
X36306Y77242D01*
X36274Y77312D01*
X36250Y77384D01*
X36171Y77535D01*
X36100Y77691D01*
X36057Y77754D01*
X36022Y77822D01*
X35956Y77904D01*
X35824Y78100D01*
X35663Y78272D01*
X35597Y78355D01*
X32821Y81130D01*
X30733Y86172D01*
X30733Y91628D01*
X32822Y96670D01*
X35597Y99445D01*
X35646Y99503D01*
X35702Y99556D01*
X35806Y99691D01*
X35916Y99821D01*
X35956Y99886D01*
X36002Y99947D01*
X36083Y100097D01*
X36171Y100244D01*
X36199Y100315D01*
X36235Y100382D01*
X36291Y100543D01*
X36354Y100702D01*
X36370Y100776D01*
X36395Y100848D01*
X36424Y101017D01*
X36461Y101184D01*
X36465Y101260D01*
X36478Y101335D01*
X36479Y101506D01*
X36488Y101676D01*
X36480Y101752D01*
X36481Y101828D01*
X36454Y101997D01*
X36436Y102167D01*
X36416Y102240D01*
X36404Y102315D01*
X36351Y102478D01*
X36306Y102642D01*
X36274Y102712D01*
X36250Y102784D01*
X36171Y102935D01*
X36100Y103091D01*
X36057Y103154D01*
X36022Y103222D01*
X35956Y103304D01*
X35824Y103500D01*
X35663Y103672D01*
X35597Y103755D01*
X32821Y106530D01*
X30733Y111572D01*
X30733Y117028D01*
X32822Y122070D01*
X35597Y124845D01*
X35646Y124903D01*
X35702Y124956D01*
X35806Y125091D01*
X35916Y125221D01*
X35956Y125286D01*
X36002Y125347D01*
X36083Y125497D01*
X36171Y125644D01*
X36199Y125715D01*
X36235Y125782D01*
X36291Y125943D01*
X36354Y126102D01*
X36370Y126176D01*
X36395Y126248D01*
X36424Y126417D01*
X36461Y126584D01*
X36465Y126660D01*
X36478Y126735D01*
X36479Y126906D01*
X36488Y127076D01*
X36480Y127152D01*
X36481Y127228D01*
X36454Y127397D01*
X36436Y127567D01*
X36416Y127640D01*
X36404Y127715D01*
X36351Y127878D01*
X36306Y128042D01*
X36274Y128112D01*
X36250Y128184D01*
X36171Y128335D01*
X36100Y128491D01*
X36057Y128554D01*
X36022Y128622D01*
X35956Y128704D01*
X35824Y128900D01*
X35663Y129072D01*
X35597Y129155D01*
X32821Y131930D01*
X30733Y136972D01*
X30733Y142428D01*
X32822Y147470D01*
X35597Y150245D01*
X35608Y150259D01*
X35615Y150264D01*
X35645Y150301D01*
X35646Y150303D01*
X35702Y150356D01*
X35806Y150491D01*
X35916Y150621D01*
X35956Y150686D01*
X36002Y150747D01*
X36083Y150897D01*
X36171Y151044D01*
X36199Y151115D01*
X36235Y151182D01*
X36291Y151343D01*
X36354Y151502D01*
X36370Y151576D01*
X36395Y151648D01*
X36424Y151817D01*
X36461Y151984D01*
X36465Y152060D01*
X36478Y152135D01*
X36479Y152306D01*
X36488Y152476D01*
X36480Y152552D01*
X36481Y152628D01*
X36454Y152797D01*
X36436Y152967D01*
X36416Y153040D01*
X36404Y153115D01*
X36351Y153278D01*
X36306Y153442D01*
X36274Y153512D01*
X36250Y153584D01*
X36171Y153735D01*
X36100Y153891D01*
X36057Y153954D01*
X36022Y154022D01*
X35956Y154104D01*
X35824Y154300D01*
X35663Y154472D01*
X35597Y154555D01*
X32821Y157330D01*
X30733Y162372D01*
X30733Y167828D01*
X32822Y172870D01*
X35597Y175645D01*
X35646Y175703D01*
X35702Y175756D01*
X35806Y175891D01*
X35916Y176021D01*
X35956Y176086D01*
X36002Y176147D01*
X36083Y176297D01*
X36171Y176444D01*
X36199Y176515D01*
X36235Y176582D01*
X36291Y176743D01*
X36354Y176902D01*
X36370Y176976D01*
X36395Y177048D01*
X36424Y177217D01*
X36461Y177384D01*
X36465Y177460D01*
X36478Y177535D01*
X36479Y177706D01*
X36488Y177876D01*
X36480Y177952D01*
X36481Y178028D01*
X36454Y178197D01*
X36436Y178367D01*
X36416Y178440D01*
X36404Y178515D01*
X36351Y178678D01*
X36306Y178842D01*
X36274Y178912D01*
X36250Y178984D01*
X36171Y179135D01*
X36100Y179291D01*
X36057Y179354D01*
X36022Y179422D01*
X35956Y179504D01*
X35824Y179700D01*
X35663Y179872D01*
X35597Y179955D01*
X32821Y182730D01*
X30733Y187772D01*
X30733Y193228D01*
X32822Y198270D01*
X35597Y201045D01*
X35646Y201103D01*
X35702Y201156D01*
X35806Y201291D01*
X35916Y201421D01*
X35956Y201486D01*
X36002Y201547D01*
X36083Y201697D01*
X36171Y201844D01*
X36199Y201915D01*
X36235Y201982D01*
X36291Y202143D01*
X36354Y202302D01*
X36370Y202376D01*
X36395Y202448D01*
X36424Y202617D01*
X36461Y202784D01*
X36465Y202860D01*
X36478Y202935D01*
X36479Y203106D01*
X36488Y203276D01*
X36480Y203352D01*
X36481Y203428D01*
X36454Y203597D01*
X36436Y203767D01*
X36416Y203840D01*
X36404Y203915D01*
X36351Y204078D01*
X36306Y204242D01*
X36274Y204312D01*
X36250Y204384D01*
X36171Y204535D01*
X36100Y204691D01*
X36057Y204754D01*
X36022Y204822D01*
X35956Y204904D01*
X35824Y205100D01*
X35663Y205272D01*
X35597Y205355D01*
X32821Y208130D01*
X30733Y213172D01*
X30733Y218628D01*
X32822Y223670D01*
X35597Y226445D01*
X35646Y226503D01*
X35702Y226556D01*
X35806Y226691D01*
X35916Y226821D01*
X35956Y226886D01*
X36002Y226947D01*
X36083Y227097D01*
X36171Y227244D01*
X36199Y227315D01*
X36235Y227382D01*
X36291Y227543D01*
X36354Y227702D01*
X36370Y227776D01*
X36395Y227848D01*
X36424Y228017D01*
X36461Y228184D01*
X36465Y228260D01*
X36478Y228335D01*
X36479Y228506D01*
X36488Y228676D01*
X36480Y228752D01*
X36481Y228828D01*
X36454Y228997D01*
X36436Y229167D01*
X36416Y229240D01*
X36404Y229315D01*
X36351Y229478D01*
X36306Y229642D01*
X36274Y229712D01*
X36250Y229784D01*
X36171Y229935D01*
X36100Y230091D01*
X36057Y230154D01*
X36022Y230222D01*
X35956Y230304D01*
X35824Y230500D01*
X35663Y230672D01*
X35597Y230755D01*
X32821Y233530D01*
X30733Y238572D01*
X30733Y244028D01*
X32822Y249070D01*
X35597Y251845D01*
X35646Y251903D01*
X35702Y251956D01*
X35806Y252091D01*
X35916Y252221D01*
X35956Y252286D01*
X36002Y252347D01*
X36083Y252497D01*
X36171Y252644D01*
X36199Y252715D01*
X36235Y252782D01*
X36291Y252943D01*
X36354Y253102D01*
X36370Y253176D01*
X36395Y253248D01*
X36424Y253417D01*
X36461Y253584D01*
X36465Y253660D01*
X36478Y253735D01*
X36479Y253906D01*
X36488Y254076D01*
X36480Y254152D01*
X36481Y254228D01*
X36454Y254397D01*
X36436Y254567D01*
X36416Y254640D01*
X36404Y254715D01*
X36351Y254878D01*
X36306Y255042D01*
X36274Y255112D01*
X36250Y255184D01*
X36171Y255335D01*
X36100Y255491D01*
X36057Y255554D01*
X36022Y255622D01*
X35956Y255704D01*
X35824Y255900D01*
X35663Y256072D01*
X35597Y256155D01*
X32821Y258930D01*
X30733Y263972D01*
X30733Y269428D01*
X32822Y274470D01*
X36680Y278328D01*
X41722Y280417D01*
X47178Y280417D01*
X52220Y278329D01*
X54995Y275553D01*
X55053Y275504D01*
X55105Y275448D01*
X55241Y275344D01*
X55371Y275234D01*
X55437Y275194D01*
X55497Y275148D01*
X55647Y275067D01*
X55794Y274979D01*
X55864Y274951D01*
X55932Y274915D01*
X56093Y274859D01*
X56252Y274796D01*
X56326Y274780D01*
X56398Y274755D01*
X56567Y274726D01*
X56733Y274689D01*
X56810Y274685D01*
X56885Y274672D01*
X57056Y274671D01*
X57226Y274662D01*
X57302Y274670D01*
X57378Y274669D01*
G37*
%LPD*%
%LPC*%
G36*
X439722Y72867D02*
X439722Y72867D01*
X439901Y72886D01*
X440081Y72898D01*
X440146Y72912D01*
X440212Y72919D01*
X440386Y72967D01*
X440562Y73007D01*
X440624Y73032D01*
X440688Y73050D01*
X440852Y73125D01*
X441019Y73193D01*
X441076Y73228D01*
X441136Y73256D01*
X441286Y73356D01*
X441440Y73451D01*
X441491Y73494D01*
X441546Y73531D01*
X441677Y73655D01*
X441814Y73772D01*
X441857Y73823D01*
X441905Y73869D01*
X442015Y74012D01*
X442131Y74150D01*
X442156Y74197D01*
X442205Y74260D01*
X442439Y74695D01*
X442449Y74727D01*
X442461Y74747D01*
X442691Y75302D01*
X445398Y78009D01*
X448935Y79475D01*
X452765Y79475D01*
X456302Y78009D01*
X459009Y75302D01*
X460089Y72696D01*
X460171Y72535D01*
X460247Y72371D01*
X460284Y72316D01*
X460314Y72257D01*
X460421Y72112D01*
X460522Y71962D01*
X460567Y71913D01*
X460607Y71860D01*
X460736Y71734D01*
X460860Y71602D01*
X460912Y71562D01*
X460960Y71516D01*
X461108Y71412D01*
X461251Y71302D01*
X461310Y71271D01*
X461364Y71233D01*
X461527Y71154D01*
X461686Y71069D01*
X461749Y71047D01*
X461809Y71019D01*
X461982Y70967D01*
X462153Y70909D01*
X462218Y70898D01*
X462282Y70879D01*
X462461Y70857D01*
X462639Y70826D01*
X462706Y70826D01*
X462771Y70818D01*
X462951Y70824D01*
X463132Y70823D01*
X463198Y70834D01*
X463264Y70836D01*
X463441Y70872D01*
X463620Y70900D01*
X463683Y70921D01*
X463748Y70934D01*
X463917Y70998D01*
X464088Y71054D01*
X464147Y71085D01*
X464209Y71108D01*
X464366Y71199D01*
X464526Y71282D01*
X464567Y71315D01*
X464637Y71355D01*
X465018Y71668D01*
X465041Y71693D01*
X465059Y71707D01*
X467397Y74045D01*
X467415Y74067D01*
X467433Y74083D01*
X467461Y74117D01*
X467502Y74156D01*
X467606Y74291D01*
X467716Y74421D01*
X467756Y74486D01*
X467802Y74547D01*
X467883Y74698D01*
X467971Y74844D01*
X467999Y74915D01*
X468035Y74982D01*
X468091Y75143D01*
X468154Y75302D01*
X468171Y75376D01*
X468195Y75448D01*
X468224Y75617D01*
X468261Y75784D01*
X468265Y75860D01*
X468278Y75935D01*
X468279Y76106D01*
X468288Y76276D01*
X468280Y76352D01*
X468281Y76428D01*
X468254Y76597D01*
X468236Y76767D01*
X468216Y76840D01*
X468204Y76915D01*
X468151Y77078D01*
X468106Y77242D01*
X468074Y77312D01*
X468050Y77384D01*
X467971Y77536D01*
X467900Y77691D01*
X467857Y77754D01*
X467822Y77822D01*
X467756Y77904D01*
X467624Y78100D01*
X467463Y78272D01*
X467397Y78355D01*
X464621Y81130D01*
X462533Y86172D01*
X462533Y91628D01*
X464622Y96670D01*
X467397Y99445D01*
X467446Y99503D01*
X467502Y99556D01*
X467606Y99691D01*
X467716Y99821D01*
X467756Y99886D01*
X467802Y99947D01*
X467883Y100097D01*
X467971Y100244D01*
X467999Y100315D01*
X468035Y100382D01*
X468091Y100543D01*
X468154Y100702D01*
X468170Y100776D01*
X468195Y100848D01*
X468224Y101017D01*
X468261Y101184D01*
X468265Y101260D01*
X468278Y101335D01*
X468279Y101506D01*
X468288Y101676D01*
X468280Y101752D01*
X468281Y101828D01*
X468254Y101997D01*
X468236Y102167D01*
X468216Y102240D01*
X468204Y102315D01*
X468151Y102478D01*
X468106Y102642D01*
X468074Y102712D01*
X468050Y102784D01*
X467971Y102935D01*
X467900Y103091D01*
X467857Y103154D01*
X467822Y103222D01*
X467756Y103304D01*
X467624Y103500D01*
X467463Y103672D01*
X467397Y103755D01*
X464621Y106530D01*
X462533Y111572D01*
X462533Y114967D01*
X462516Y115185D01*
X462502Y115403D01*
X462496Y115431D01*
X462493Y115459D01*
X462441Y115671D01*
X462392Y115884D01*
X462381Y115910D01*
X462375Y115938D01*
X462289Y116138D01*
X462206Y116341D01*
X462191Y116365D01*
X462180Y116391D01*
X462063Y116575D01*
X461949Y116762D01*
X461930Y116783D01*
X461915Y116807D01*
X461770Y116970D01*
X461627Y117136D01*
X461605Y117154D01*
X461586Y117175D01*
X461417Y117312D01*
X461249Y117453D01*
X461228Y117464D01*
X461202Y117485D01*
X460774Y117729D01*
X460698Y117757D01*
X460652Y117783D01*
X458098Y118841D01*
X455391Y121548D01*
X453925Y125085D01*
X453925Y128915D01*
X455391Y132452D01*
X458098Y135159D01*
X460652Y136217D01*
X460846Y136317D01*
X461043Y136413D01*
X461066Y136430D01*
X461091Y136442D01*
X461267Y136572D01*
X461445Y136699D01*
X461465Y136719D01*
X461488Y136735D01*
X461641Y136892D01*
X461796Y137045D01*
X461813Y137068D01*
X461833Y137089D01*
X461958Y137267D01*
X462086Y137444D01*
X462099Y137469D01*
X462115Y137493D01*
X462210Y137689D01*
X462309Y137884D01*
X462317Y137911D01*
X462330Y137937D01*
X462391Y138147D01*
X462457Y138355D01*
X462460Y138378D01*
X462469Y138410D01*
X462530Y138900D01*
X462527Y138980D01*
X462533Y139033D01*
X462533Y142428D01*
X464622Y147470D01*
X467397Y150245D01*
X467408Y150259D01*
X467415Y150264D01*
X467445Y150301D01*
X467446Y150303D01*
X467502Y150356D01*
X467606Y150491D01*
X467716Y150621D01*
X467756Y150686D01*
X467802Y150747D01*
X467883Y150897D01*
X467971Y151044D01*
X467999Y151115D01*
X468035Y151182D01*
X468091Y151343D01*
X468154Y151502D01*
X468170Y151576D01*
X468195Y151648D01*
X468224Y151817D01*
X468261Y151984D01*
X468265Y152060D01*
X468278Y152135D01*
X468279Y152306D01*
X468288Y152476D01*
X468280Y152552D01*
X468281Y152628D01*
X468254Y152797D01*
X468236Y152967D01*
X468216Y153040D01*
X468204Y153115D01*
X468151Y153278D01*
X468106Y153442D01*
X468074Y153512D01*
X468050Y153584D01*
X467971Y153735D01*
X467900Y153891D01*
X467857Y153954D01*
X467822Y154022D01*
X467756Y154104D01*
X467624Y154300D01*
X467463Y154472D01*
X467397Y154555D01*
X464621Y157330D01*
X462533Y162372D01*
X462533Y167828D01*
X464622Y172870D01*
X467397Y175645D01*
X467446Y175703D01*
X467502Y175756D01*
X467606Y175891D01*
X467716Y176021D01*
X467756Y176086D01*
X467802Y176147D01*
X467883Y176297D01*
X467971Y176444D01*
X467999Y176515D01*
X468035Y176582D01*
X468091Y176743D01*
X468154Y176902D01*
X468170Y176976D01*
X468195Y177048D01*
X468224Y177217D01*
X468261Y177384D01*
X468265Y177460D01*
X468278Y177535D01*
X468279Y177706D01*
X468288Y177876D01*
X468280Y177952D01*
X468281Y178028D01*
X468254Y178197D01*
X468236Y178367D01*
X468216Y178440D01*
X468204Y178515D01*
X468151Y178678D01*
X468106Y178842D01*
X468074Y178912D01*
X468050Y178984D01*
X467971Y179135D01*
X467900Y179291D01*
X467857Y179354D01*
X467822Y179422D01*
X467756Y179504D01*
X467624Y179700D01*
X467463Y179872D01*
X467397Y179955D01*
X464621Y182730D01*
X462533Y187772D01*
X462533Y193228D01*
X464622Y198270D01*
X467397Y201045D01*
X467446Y201103D01*
X467502Y201156D01*
X467606Y201291D01*
X467716Y201421D01*
X467756Y201486D01*
X467802Y201547D01*
X467883Y201697D01*
X467971Y201844D01*
X467999Y201915D01*
X468035Y201982D01*
X468091Y202143D01*
X468154Y202302D01*
X468170Y202376D01*
X468195Y202448D01*
X468224Y202617D01*
X468261Y202784D01*
X468265Y202860D01*
X468278Y202935D01*
X468279Y203106D01*
X468288Y203276D01*
X468280Y203352D01*
X468281Y203428D01*
X468254Y203597D01*
X468236Y203767D01*
X468216Y203840D01*
X468204Y203915D01*
X468151Y204078D01*
X468106Y204242D01*
X468074Y204312D01*
X468050Y204384D01*
X467971Y204535D01*
X467900Y204691D01*
X467857Y204754D01*
X467822Y204822D01*
X467756Y204904D01*
X467624Y205100D01*
X467463Y205272D01*
X467397Y205355D01*
X464621Y208130D01*
X462533Y213172D01*
X462533Y218628D01*
X464621Y223670D01*
X467397Y226445D01*
X467446Y226503D01*
X467502Y226555D01*
X467606Y226691D01*
X467716Y226821D01*
X467756Y226887D01*
X467802Y226947D01*
X467883Y227097D01*
X467971Y227244D01*
X467999Y227314D01*
X468035Y227382D01*
X468091Y227543D01*
X468154Y227702D01*
X468170Y227776D01*
X468195Y227848D01*
X468224Y228017D01*
X468261Y228183D01*
X468265Y228260D01*
X468278Y228335D01*
X468279Y228506D01*
X468288Y228676D01*
X468280Y228752D01*
X468281Y228828D01*
X468254Y228997D01*
X468236Y229167D01*
X468216Y229240D01*
X468204Y229315D01*
X468151Y229478D01*
X468106Y229642D01*
X468074Y229712D01*
X468050Y229784D01*
X467971Y229936D01*
X467900Y230091D01*
X467857Y230154D01*
X467822Y230222D01*
X467756Y230304D01*
X467624Y230500D01*
X467462Y230672D01*
X467397Y230755D01*
X464622Y233530D01*
X462533Y238572D01*
X462533Y244028D01*
X464622Y249070D01*
X467397Y251845D01*
X467446Y251903D01*
X467502Y251956D01*
X467606Y252091D01*
X467716Y252221D01*
X467756Y252286D01*
X467802Y252347D01*
X467883Y252497D01*
X467971Y252644D01*
X467999Y252715D01*
X468035Y252782D01*
X468091Y252943D01*
X468154Y253102D01*
X468170Y253176D01*
X468195Y253248D01*
X468224Y253417D01*
X468261Y253584D01*
X468265Y253660D01*
X468278Y253735D01*
X468279Y253906D01*
X468288Y254076D01*
X468280Y254152D01*
X468281Y254228D01*
X468254Y254397D01*
X468236Y254567D01*
X468216Y254640D01*
X468204Y254715D01*
X468151Y254878D01*
X468106Y255042D01*
X468074Y255112D01*
X468050Y255184D01*
X467971Y255335D01*
X467900Y255491D01*
X467857Y255554D01*
X467822Y255622D01*
X467756Y255704D01*
X467624Y255900D01*
X467463Y256072D01*
X467397Y256155D01*
X464621Y258930D01*
X462533Y263972D01*
X462533Y269428D01*
X464622Y274470D01*
X468480Y278328D01*
X473522Y280417D01*
X478978Y280417D01*
X484020Y278328D01*
X486795Y275553D01*
X486853Y275504D01*
X486906Y275448D01*
X487041Y275344D01*
X487171Y275234D01*
X487236Y275194D01*
X487297Y275148D01*
X487447Y275067D01*
X487594Y274979D01*
X487665Y274951D01*
X487732Y274915D01*
X487893Y274859D01*
X488052Y274796D01*
X488126Y274780D01*
X488198Y274755D01*
X488367Y274726D01*
X488534Y274689D01*
X488610Y274685D01*
X488685Y274672D01*
X488856Y274671D01*
X489026Y274662D01*
X489102Y274670D01*
X489178Y274669D01*
X489347Y274696D01*
X489517Y274714D01*
X489590Y274734D01*
X489665Y274746D01*
X489828Y274799D01*
X489992Y274844D01*
X490062Y274876D01*
X490134Y274900D01*
X490285Y274979D01*
X490441Y275050D01*
X490504Y275093D01*
X490572Y275128D01*
X490654Y275194D01*
X490850Y275326D01*
X491022Y275487D01*
X491105Y275553D01*
X493880Y278329D01*
X498922Y280417D01*
X504378Y280417D01*
X509420Y278328D01*
X513278Y274470D01*
X515367Y269428D01*
X515367Y263972D01*
X513279Y258930D01*
X510503Y256155D01*
X510454Y256097D01*
X510398Y256045D01*
X510294Y255909D01*
X510184Y255779D01*
X510144Y255713D01*
X510098Y255653D01*
X510017Y255503D01*
X509929Y255356D01*
X509901Y255286D01*
X509865Y255218D01*
X509809Y255057D01*
X509746Y254898D01*
X509730Y254824D01*
X509705Y254752D01*
X509676Y254583D01*
X509639Y254417D01*
X509635Y254340D01*
X509622Y254265D01*
X509621Y254094D01*
X509612Y253924D01*
X509620Y253848D01*
X509619Y253772D01*
X509646Y253603D01*
X509664Y253433D01*
X509684Y253360D01*
X509696Y253285D01*
X509749Y253122D01*
X509794Y252958D01*
X509826Y252888D01*
X509850Y252816D01*
X509929Y252664D01*
X510000Y252509D01*
X510043Y252446D01*
X510078Y252378D01*
X510144Y252296D01*
X510276Y252100D01*
X510438Y251928D01*
X510503Y251845D01*
X513278Y249070D01*
X515367Y244028D01*
X515367Y238572D01*
X513279Y233530D01*
X510503Y230755D01*
X510454Y230697D01*
X510398Y230645D01*
X510294Y230509D01*
X510184Y230379D01*
X510144Y230313D01*
X510098Y230253D01*
X510017Y230103D01*
X509929Y229956D01*
X509901Y229886D01*
X509865Y229818D01*
X509809Y229657D01*
X509746Y229498D01*
X509730Y229424D01*
X509705Y229352D01*
X509676Y229183D01*
X509639Y229017D01*
X509635Y228940D01*
X509622Y228865D01*
X509621Y228694D01*
X509612Y228524D01*
X509620Y228448D01*
X509619Y228372D01*
X509646Y228203D01*
X509664Y228033D01*
X509684Y227960D01*
X509696Y227885D01*
X509749Y227722D01*
X509794Y227558D01*
X509826Y227488D01*
X509850Y227416D01*
X509929Y227264D01*
X510000Y227109D01*
X510043Y227046D01*
X510078Y226978D01*
X510144Y226896D01*
X510276Y226700D01*
X510366Y226604D01*
X510378Y226587D01*
X510442Y226522D01*
X510503Y226445D01*
X513278Y223670D01*
X515367Y218628D01*
X515367Y213172D01*
X513279Y208130D01*
X510503Y205355D01*
X510454Y205297D01*
X510398Y205245D01*
X510294Y205109D01*
X510184Y204979D01*
X510144Y204913D01*
X510098Y204853D01*
X510017Y204703D01*
X509929Y204556D01*
X509901Y204486D01*
X509865Y204418D01*
X509809Y204257D01*
X509746Y204098D01*
X509730Y204024D01*
X509705Y203952D01*
X509676Y203783D01*
X509639Y203617D01*
X509635Y203540D01*
X509622Y203465D01*
X509621Y203294D01*
X509612Y203124D01*
X509620Y203048D01*
X509619Y202972D01*
X509646Y202803D01*
X509664Y202633D01*
X509684Y202560D01*
X509696Y202485D01*
X509749Y202322D01*
X509794Y202158D01*
X509826Y202088D01*
X509850Y202016D01*
X509929Y201864D01*
X510000Y201709D01*
X510043Y201646D01*
X510078Y201578D01*
X510144Y201496D01*
X510276Y201300D01*
X510438Y201128D01*
X510503Y201045D01*
X513278Y198270D01*
X515367Y193228D01*
X515367Y187772D01*
X513279Y182730D01*
X510503Y179955D01*
X510454Y179897D01*
X510398Y179845D01*
X510294Y179709D01*
X510184Y179579D01*
X510144Y179513D01*
X510098Y179453D01*
X510017Y179303D01*
X509929Y179156D01*
X509901Y179086D01*
X509865Y179018D01*
X509809Y178857D01*
X509746Y178698D01*
X509730Y178624D01*
X509705Y178552D01*
X509676Y178383D01*
X509639Y178217D01*
X509635Y178140D01*
X509622Y178065D01*
X509621Y177894D01*
X509612Y177724D01*
X509620Y177648D01*
X509619Y177572D01*
X509646Y177403D01*
X509664Y177233D01*
X509684Y177160D01*
X509696Y177085D01*
X509749Y176922D01*
X509794Y176758D01*
X509826Y176688D01*
X509850Y176616D01*
X509929Y176464D01*
X510000Y176309D01*
X510043Y176246D01*
X510078Y176178D01*
X510144Y176096D01*
X510276Y175900D01*
X510438Y175728D01*
X510503Y175645D01*
X513278Y172870D01*
X515367Y167828D01*
X515367Y162372D01*
X513279Y157330D01*
X510503Y154555D01*
X510454Y154497D01*
X510398Y154445D01*
X510294Y154309D01*
X510184Y154179D01*
X510144Y154113D01*
X510098Y154053D01*
X510017Y153903D01*
X509929Y153756D01*
X509901Y153686D01*
X509865Y153618D01*
X509809Y153457D01*
X509746Y153298D01*
X509730Y153224D01*
X509705Y153152D01*
X509676Y152983D01*
X509639Y152817D01*
X509635Y152740D01*
X509622Y152665D01*
X509621Y152494D01*
X509612Y152324D01*
X509620Y152248D01*
X509619Y152172D01*
X509646Y152003D01*
X509664Y151833D01*
X509684Y151760D01*
X509696Y151685D01*
X509749Y151522D01*
X509794Y151358D01*
X509826Y151288D01*
X509850Y151216D01*
X509929Y151064D01*
X510000Y150909D01*
X510043Y150846D01*
X510078Y150778D01*
X510144Y150696D01*
X510276Y150500D01*
X510344Y150428D01*
X510359Y150406D01*
X510443Y150321D01*
X510503Y150245D01*
X513278Y147470D01*
X515367Y142428D01*
X515367Y136972D01*
X513279Y131930D01*
X510503Y129155D01*
X510454Y129097D01*
X510398Y129045D01*
X510294Y128909D01*
X510184Y128779D01*
X510144Y128713D01*
X510098Y128653D01*
X510017Y128503D01*
X509929Y128356D01*
X509901Y128286D01*
X509865Y128218D01*
X509809Y128057D01*
X509746Y127898D01*
X509730Y127824D01*
X509705Y127752D01*
X509676Y127583D01*
X509639Y127417D01*
X509635Y127340D01*
X509622Y127265D01*
X509621Y127094D01*
X509612Y126924D01*
X509620Y126848D01*
X509619Y126772D01*
X509646Y126603D01*
X509664Y126433D01*
X509684Y126360D01*
X509696Y126285D01*
X509749Y126122D01*
X509794Y125958D01*
X509826Y125888D01*
X509850Y125816D01*
X509929Y125664D01*
X510000Y125509D01*
X510043Y125446D01*
X510078Y125378D01*
X510144Y125296D01*
X510276Y125100D01*
X510438Y124928D01*
X510503Y124845D01*
X513278Y122070D01*
X515367Y117028D01*
X515367Y111572D01*
X513279Y106530D01*
X510503Y103755D01*
X510454Y103697D01*
X510398Y103645D01*
X510294Y103509D01*
X510184Y103379D01*
X510144Y103313D01*
X510098Y103253D01*
X510017Y103103D01*
X509929Y102956D01*
X509901Y102886D01*
X509865Y102818D01*
X509809Y102657D01*
X509746Y102498D01*
X509730Y102424D01*
X509705Y102352D01*
X509676Y102183D01*
X509639Y102017D01*
X509635Y101940D01*
X509622Y101865D01*
X509621Y101694D01*
X509612Y101524D01*
X509620Y101448D01*
X509619Y101372D01*
X509646Y101203D01*
X509664Y101033D01*
X509684Y100960D01*
X509696Y100885D01*
X509749Y100722D01*
X509794Y100558D01*
X509826Y100488D01*
X509850Y100416D01*
X509929Y100264D01*
X510000Y100109D01*
X510043Y100046D01*
X510078Y99978D01*
X510144Y99896D01*
X510276Y99700D01*
X510438Y99528D01*
X510503Y99445D01*
X513278Y96670D01*
X515367Y91628D01*
X515367Y86172D01*
X513279Y81130D01*
X510503Y78355D01*
X510454Y78297D01*
X510398Y78245D01*
X510294Y78109D01*
X510184Y77979D01*
X510144Y77913D01*
X510098Y77853D01*
X510017Y77703D01*
X509929Y77556D01*
X509901Y77486D01*
X509865Y77418D01*
X509809Y77257D01*
X509746Y77098D01*
X509730Y77024D01*
X509705Y76952D01*
X509676Y76783D01*
X509639Y76617D01*
X509635Y76540D01*
X509622Y76465D01*
X509621Y76294D01*
X509612Y76124D01*
X509620Y76048D01*
X509619Y75972D01*
X509646Y75803D01*
X509664Y75633D01*
X509684Y75560D01*
X509696Y75485D01*
X509749Y75322D01*
X509794Y75158D01*
X509826Y75088D01*
X509850Y75016D01*
X509929Y74864D01*
X510000Y74709D01*
X510043Y74646D01*
X510078Y74578D01*
X510144Y74496D01*
X510276Y74300D01*
X510321Y74251D01*
X510340Y74225D01*
X510444Y74120D01*
X510503Y74045D01*
X513278Y71270D01*
X515367Y66228D01*
X515367Y60772D01*
X513279Y55730D01*
X510503Y52955D01*
X510454Y52897D01*
X510398Y52845D01*
X510294Y52709D01*
X510184Y52579D01*
X510144Y52513D01*
X510098Y52453D01*
X510017Y52303D01*
X509929Y52156D01*
X509901Y52086D01*
X509865Y52018D01*
X509809Y51857D01*
X509746Y51698D01*
X509730Y51624D01*
X509705Y51552D01*
X509676Y51383D01*
X509639Y51217D01*
X509635Y51140D01*
X509622Y51065D01*
X509621Y50894D01*
X509612Y50724D01*
X509620Y50648D01*
X509619Y50572D01*
X509646Y50403D01*
X509664Y50233D01*
X509684Y50160D01*
X509696Y50085D01*
X509749Y49922D01*
X509794Y49758D01*
X509826Y49688D01*
X509850Y49616D01*
X509929Y49464D01*
X510000Y49309D01*
X510043Y49246D01*
X510078Y49178D01*
X510144Y49096D01*
X510276Y48900D01*
X510438Y48728D01*
X510503Y48645D01*
X513278Y45870D01*
X515367Y40828D01*
X515367Y35372D01*
X513278Y30330D01*
X509420Y26472D01*
X504378Y24383D01*
X498922Y24383D01*
X493880Y26472D01*
X491105Y29247D01*
X491047Y29296D01*
X490994Y29352D01*
X490859Y29456D01*
X490729Y29566D01*
X490664Y29606D01*
X490603Y29652D01*
X490453Y29733D01*
X490306Y29821D01*
X490235Y29849D01*
X490168Y29885D01*
X490007Y29941D01*
X489848Y30004D01*
X489774Y30020D01*
X489702Y30045D01*
X489533Y30074D01*
X489366Y30111D01*
X489290Y30115D01*
X489215Y30128D01*
X489044Y30129D01*
X488874Y30138D01*
X488798Y30130D01*
X488722Y30131D01*
X488553Y30104D01*
X488383Y30086D01*
X488310Y30066D01*
X488235Y30054D01*
X488072Y30001D01*
X487908Y29956D01*
X487838Y29924D01*
X487766Y29900D01*
X487615Y29821D01*
X487459Y29750D01*
X487396Y29707D01*
X487328Y29672D01*
X487246Y29606D01*
X487050Y29474D01*
X486878Y29313D01*
X486795Y29247D01*
X484020Y26471D01*
X478978Y24383D01*
X473522Y24383D01*
X468480Y26472D01*
X464622Y30330D01*
X462533Y35372D01*
X462533Y40828D01*
X463098Y42192D01*
X463110Y42228D01*
X463126Y42263D01*
X463185Y42462D01*
X463249Y42661D01*
X463255Y42699D01*
X463266Y42736D01*
X463292Y42943D01*
X463323Y43149D01*
X463322Y43187D01*
X463327Y43225D01*
X463319Y43434D01*
X463317Y43642D01*
X463310Y43680D01*
X463309Y43718D01*
X463267Y43923D01*
X463231Y44128D01*
X463218Y44164D01*
X463211Y44202D01*
X463137Y44397D01*
X463068Y44594D01*
X463050Y44627D01*
X463036Y44663D01*
X462932Y44844D01*
X462832Y45027D01*
X462809Y45057D01*
X462789Y45090D01*
X462657Y45252D01*
X462529Y45417D01*
X462501Y45443D01*
X462477Y45472D01*
X462320Y45611D01*
X462168Y45752D01*
X462136Y45773D01*
X462107Y45799D01*
X461930Y45910D01*
X461757Y46025D01*
X461722Y46041D01*
X461689Y46061D01*
X461497Y46142D01*
X461307Y46228D01*
X461270Y46238D01*
X461235Y46253D01*
X461032Y46302D01*
X460830Y46355D01*
X460792Y46359D01*
X460755Y46368D01*
X460547Y46384D01*
X460339Y46405D01*
X460301Y46402D01*
X460263Y46405D01*
X460055Y46387D01*
X459847Y46374D01*
X459810Y46365D01*
X459772Y46362D01*
X459682Y46336D01*
X459416Y46275D01*
X455037Y46275D01*
X451040Y47931D01*
X447981Y50990D01*
X446898Y53603D01*
X446881Y53637D01*
X446868Y53673D01*
X446768Y53857D01*
X446673Y54042D01*
X446651Y54073D01*
X446632Y54107D01*
X446504Y54272D01*
X446380Y54439D01*
X446353Y54466D01*
X446330Y54496D01*
X446176Y54638D01*
X446027Y54784D01*
X445996Y54806D01*
X445968Y54832D01*
X445794Y54947D01*
X445623Y55067D01*
X445589Y55083D01*
X445557Y55104D01*
X445366Y55190D01*
X445179Y55281D01*
X445142Y55292D01*
X445107Y55307D01*
X444906Y55361D01*
X444705Y55420D01*
X444667Y55425D01*
X444631Y55435D01*
X444423Y55456D01*
X444216Y55482D01*
X444178Y55480D01*
X444140Y55484D01*
X443931Y55471D01*
X443723Y55463D01*
X443685Y55456D01*
X443647Y55453D01*
X443444Y55407D01*
X443239Y55365D01*
X443203Y55352D01*
X443166Y55343D01*
X442974Y55265D01*
X442778Y55191D01*
X442745Y55172D01*
X442710Y55157D01*
X442532Y55049D01*
X442351Y54944D01*
X442321Y54920D01*
X442289Y54900D01*
X442131Y54764D01*
X441969Y54632D01*
X441944Y54603D01*
X441915Y54578D01*
X441780Y54418D01*
X441642Y54262D01*
X441622Y54230D01*
X441598Y54200D01*
X441553Y54119D01*
X441380Y53844D01*
X441313Y53686D01*
X441268Y53603D01*
X438733Y47483D01*
X432517Y41267D01*
X424395Y37903D01*
X415605Y37903D01*
X407483Y41267D01*
X401267Y47483D01*
X397903Y55605D01*
X397903Y64395D01*
X401267Y72517D01*
X407483Y78733D01*
X415605Y82097D01*
X424395Y82097D01*
X432517Y78733D01*
X437491Y73759D01*
X437628Y73642D01*
X437761Y73519D01*
X437816Y73482D01*
X437867Y73439D01*
X438022Y73346D01*
X438172Y73246D01*
X438232Y73219D01*
X438289Y73185D01*
X438457Y73118D01*
X438621Y73043D01*
X438686Y73026D01*
X438747Y73002D01*
X438923Y72963D01*
X439098Y72916D01*
X439164Y72909D01*
X439229Y72895D01*
X439409Y72885D01*
X439589Y72867D01*
X439655Y72871D01*
X439722Y72867D01*
G37*
%LPD*%
%LPC*%
G36*
X252317Y478264D02*
X252317Y478264D01*
X252390Y478284D01*
X252465Y478296D01*
X252628Y478349D01*
X252792Y478394D01*
X252862Y478426D01*
X252934Y478450D01*
X253086Y478529D01*
X253241Y478600D01*
X253304Y478643D01*
X253372Y478678D01*
X253454Y478744D01*
X253650Y478876D01*
X253823Y479038D01*
X253905Y479103D01*
X257830Y483028D01*
X262872Y485117D01*
X268328Y485117D01*
X273370Y483029D01*
X277245Y479153D01*
X277303Y479104D01*
X277355Y479048D01*
X277491Y478944D01*
X277621Y478834D01*
X277687Y478794D01*
X277747Y478748D01*
X277897Y478667D01*
X278044Y478579D01*
X278114Y478551D01*
X278182Y478515D01*
X278343Y478459D01*
X278502Y478396D01*
X278576Y478380D01*
X278648Y478355D01*
X278817Y478326D01*
X278983Y478289D01*
X279060Y478285D01*
X279135Y478272D01*
X279306Y478271D01*
X279476Y478262D01*
X279552Y478270D01*
X279628Y478269D01*
X279797Y478296D01*
X279967Y478314D01*
X280040Y478334D01*
X280115Y478346D01*
X280278Y478399D01*
X280442Y478444D01*
X280512Y478476D01*
X280584Y478500D01*
X280736Y478579D01*
X280891Y478650D01*
X280954Y478693D01*
X281022Y478728D01*
X281104Y478794D01*
X281300Y478926D01*
X281473Y479088D01*
X281555Y479153D01*
X285430Y483028D01*
X290472Y485117D01*
X295928Y485117D01*
X300970Y483029D01*
X304895Y479103D01*
X304953Y479054D01*
X305005Y478998D01*
X305141Y478894D01*
X305271Y478784D01*
X305337Y478744D01*
X305397Y478698D01*
X305547Y478617D01*
X305694Y478529D01*
X305764Y478501D01*
X305832Y478465D01*
X305993Y478409D01*
X306152Y478346D01*
X306226Y478330D01*
X306298Y478305D01*
X306467Y478276D01*
X306633Y478239D01*
X306710Y478235D01*
X306785Y478222D01*
X306956Y478221D01*
X307126Y478212D01*
X307202Y478220D01*
X307278Y478219D01*
X307447Y478246D01*
X307617Y478264D01*
X307690Y478284D01*
X307765Y478296D01*
X307928Y478349D01*
X308092Y478394D01*
X308162Y478426D01*
X308234Y478450D01*
X308386Y478529D01*
X308541Y478600D01*
X308604Y478643D01*
X308672Y478678D01*
X308754Y478744D01*
X308950Y478876D01*
X309123Y479038D01*
X309205Y479103D01*
X313130Y483028D01*
X318172Y485117D01*
X323628Y485117D01*
X328670Y483028D01*
X332528Y479170D01*
X334617Y474128D01*
X334617Y468672D01*
X332529Y463630D01*
X330817Y461919D01*
X330792Y461890D01*
X330764Y461864D01*
X330633Y461702D01*
X330498Y461543D01*
X330478Y461510D01*
X330454Y461480D01*
X330351Y461299D01*
X330243Y461120D01*
X330229Y461085D01*
X330210Y461052D01*
X330137Y460856D01*
X330060Y460662D01*
X330052Y460625D01*
X330038Y460589D01*
X329998Y460384D01*
X329953Y460180D01*
X329951Y460142D01*
X329944Y460105D01*
X329937Y459897D01*
X329926Y459688D01*
X329930Y459650D01*
X329928Y459612D01*
X329956Y459405D01*
X329978Y459197D01*
X329988Y459161D01*
X329993Y459123D01*
X330053Y458922D01*
X330108Y458722D01*
X330124Y458687D01*
X330135Y458650D01*
X330227Y458463D01*
X330314Y458273D01*
X330335Y458242D01*
X330352Y458207D01*
X330473Y458037D01*
X330589Y457864D01*
X330616Y457836D01*
X330638Y457805D01*
X330784Y457657D01*
X330927Y457504D01*
X330958Y457481D01*
X330984Y457454D01*
X331153Y457331D01*
X331319Y457204D01*
X331352Y457186D01*
X331383Y457164D01*
X331569Y457070D01*
X331753Y456971D01*
X331790Y456958D01*
X331824Y456941D01*
X332023Y456879D01*
X332220Y456811D01*
X332258Y456805D01*
X332294Y456793D01*
X332387Y456783D01*
X332706Y456728D01*
X332879Y456727D01*
X332972Y456717D01*
X337528Y456717D01*
X342570Y454628D01*
X346428Y450770D01*
X348517Y445728D01*
X348517Y440272D01*
X346428Y435230D01*
X342570Y431372D01*
X337528Y429283D01*
X332072Y429283D01*
X327030Y431372D01*
X323105Y435297D01*
X323047Y435346D01*
X322994Y435402D01*
X322859Y435506D01*
X322729Y435616D01*
X322664Y435656D01*
X322603Y435702D01*
X322453Y435783D01*
X322306Y435871D01*
X322235Y435899D01*
X322168Y435935D01*
X322007Y435991D01*
X321848Y436054D01*
X321774Y436070D01*
X321702Y436095D01*
X321533Y436124D01*
X321366Y436161D01*
X321290Y436165D01*
X321215Y436178D01*
X321044Y436179D01*
X320874Y436188D01*
X320798Y436180D01*
X320722Y436181D01*
X320553Y436154D01*
X320383Y436136D01*
X320310Y436116D01*
X320235Y436104D01*
X320072Y436051D01*
X319908Y436006D01*
X319838Y435974D01*
X319766Y435950D01*
X319615Y435871D01*
X319459Y435800D01*
X319396Y435757D01*
X319328Y435722D01*
X319246Y435656D01*
X319050Y435524D01*
X318878Y435363D01*
X318795Y435297D01*
X314870Y431371D01*
X309828Y429283D01*
X304372Y429283D01*
X299330Y431372D01*
X295472Y435230D01*
X294133Y438462D01*
X294057Y438610D01*
X293990Y438760D01*
X293945Y438828D01*
X293908Y438901D01*
X293809Y439034D01*
X293719Y439172D01*
X293663Y439232D01*
X293615Y439298D01*
X293496Y439414D01*
X293384Y439535D01*
X293320Y439586D01*
X293262Y439643D01*
X293126Y439738D01*
X292996Y439839D01*
X292924Y439879D01*
X292857Y439926D01*
X292708Y439997D01*
X292564Y440077D01*
X292487Y440104D01*
X292413Y440140D01*
X292254Y440186D01*
X292099Y440242D01*
X292018Y440256D01*
X291940Y440279D01*
X291776Y440300D01*
X291613Y440329D01*
X291531Y440330D01*
X291450Y440340D01*
X291285Y440334D01*
X291120Y440337D01*
X291039Y440325D01*
X290957Y440322D01*
X290795Y440289D01*
X290632Y440265D01*
X290554Y440240D01*
X290474Y440224D01*
X290319Y440166D01*
X290162Y440116D01*
X290089Y440079D01*
X290012Y440050D01*
X289869Y439967D01*
X289722Y439892D01*
X289656Y439844D01*
X289585Y439803D01*
X289457Y439698D01*
X289324Y439601D01*
X289266Y439542D01*
X289203Y439491D01*
X289094Y439367D01*
X288978Y439249D01*
X288943Y439196D01*
X288877Y439121D01*
X288614Y438703D01*
X288608Y438689D01*
X288602Y438680D01*
X288090Y437675D01*
X287150Y436381D01*
X286019Y435250D01*
X284725Y434310D01*
X283300Y433584D01*
X282447Y433307D01*
X282447Y443000D01*
X282447Y452693D01*
X283300Y452416D01*
X284725Y451690D01*
X286019Y450750D01*
X287150Y449619D01*
X288090Y448325D01*
X288602Y447320D01*
X288689Y447180D01*
X288768Y447035D01*
X288818Y446970D01*
X288861Y446900D01*
X288969Y446776D01*
X289071Y446645D01*
X289131Y446589D01*
X289184Y446528D01*
X289311Y446422D01*
X289433Y446310D01*
X289501Y446264D01*
X289563Y446212D01*
X289706Y446128D01*
X289844Y446037D01*
X289918Y446003D01*
X289989Y445962D01*
X290143Y445902D01*
X290293Y445834D01*
X290372Y445813D01*
X290448Y445783D01*
X290610Y445749D01*
X290770Y445706D01*
X290851Y445698D01*
X290931Y445681D01*
X291096Y445674D01*
X291261Y445657D01*
X291342Y445662D01*
X291424Y445658D01*
X291588Y445678D01*
X291753Y445688D01*
X291833Y445706D01*
X291914Y445716D01*
X292073Y445761D01*
X292234Y445798D01*
X292310Y445829D01*
X292388Y445851D01*
X292538Y445921D01*
X292691Y445984D01*
X292761Y446026D01*
X292835Y446061D01*
X292971Y446155D01*
X293112Y446241D01*
X293174Y446294D01*
X293241Y446341D01*
X293360Y446455D01*
X293486Y446563D01*
X293538Y446625D01*
X293597Y446682D01*
X293697Y446814D01*
X293803Y446941D01*
X293834Y446996D01*
X293894Y447076D01*
X294123Y447513D01*
X294127Y447528D01*
X294133Y447538D01*
X295472Y450770D01*
X297183Y452481D01*
X297208Y452510D01*
X297236Y452536D01*
X297367Y452698D01*
X297502Y452857D01*
X297522Y452890D01*
X297546Y452920D01*
X297649Y453101D01*
X297757Y453280D01*
X297771Y453315D01*
X297790Y453348D01*
X297863Y453544D01*
X297940Y453738D01*
X297948Y453775D01*
X297962Y453811D01*
X298002Y454015D01*
X298047Y454220D01*
X298049Y454258D01*
X298056Y454295D01*
X298063Y454503D01*
X298074Y454712D01*
X298070Y454750D01*
X298072Y454788D01*
X298044Y454995D01*
X298022Y455203D01*
X298012Y455239D01*
X298007Y455277D01*
X297947Y455478D01*
X297892Y455678D01*
X297876Y455713D01*
X297865Y455750D01*
X297773Y455937D01*
X297686Y456127D01*
X297665Y456158D01*
X297648Y456193D01*
X297527Y456363D01*
X297411Y456536D01*
X297384Y456564D01*
X297362Y456595D01*
X297216Y456743D01*
X297073Y456896D01*
X297042Y456919D01*
X297016Y456946D01*
X296847Y457069D01*
X296681Y457196D01*
X296648Y457214D01*
X296617Y457236D01*
X296431Y457330D01*
X296247Y457429D01*
X296210Y457442D01*
X296176Y457459D01*
X295977Y457521D01*
X295780Y457589D01*
X295742Y457595D01*
X295706Y457607D01*
X295613Y457617D01*
X295294Y457672D01*
X295121Y457673D01*
X295028Y457683D01*
X290472Y457683D01*
X285430Y459772D01*
X281555Y463647D01*
X281497Y463696D01*
X281444Y463752D01*
X281309Y463856D01*
X281179Y463966D01*
X281114Y464006D01*
X281053Y464052D01*
X280903Y464133D01*
X280756Y464221D01*
X280685Y464249D01*
X280618Y464285D01*
X280457Y464341D01*
X280298Y464404D01*
X280224Y464420D01*
X280152Y464445D01*
X279983Y464474D01*
X279816Y464511D01*
X279740Y464515D01*
X279665Y464528D01*
X279494Y464529D01*
X279324Y464538D01*
X279248Y464530D01*
X279172Y464531D01*
X279003Y464504D01*
X278833Y464486D01*
X278760Y464466D01*
X278685Y464454D01*
X278522Y464401D01*
X278358Y464356D01*
X278288Y464324D01*
X278216Y464300D01*
X278065Y464221D01*
X277909Y464150D01*
X277846Y464107D01*
X277778Y464072D01*
X277696Y464006D01*
X277500Y463874D01*
X277328Y463713D01*
X277245Y463647D01*
X273370Y459771D01*
X268328Y457683D01*
X263772Y457683D01*
X263734Y457680D01*
X263696Y457682D01*
X263488Y457660D01*
X263280Y457643D01*
X263243Y457634D01*
X263205Y457630D01*
X263004Y457575D01*
X262801Y457525D01*
X262766Y457510D01*
X262729Y457499D01*
X262540Y457412D01*
X262348Y457330D01*
X262316Y457310D01*
X262281Y457294D01*
X262108Y457177D01*
X261932Y457065D01*
X261903Y457040D01*
X261872Y457018D01*
X261719Y456875D01*
X261564Y456736D01*
X261540Y456707D01*
X261512Y456681D01*
X261385Y456515D01*
X261254Y456352D01*
X261235Y456319D01*
X261212Y456289D01*
X261113Y456105D01*
X261010Y455924D01*
X260997Y455888D01*
X260979Y455854D01*
X260911Y455657D01*
X260838Y455461D01*
X260831Y455424D01*
X260819Y455388D01*
X260784Y455181D01*
X260744Y454977D01*
X260743Y454939D01*
X260736Y454901D01*
X260735Y454692D01*
X260728Y454484D01*
X260733Y454446D01*
X260733Y454408D01*
X260766Y454201D01*
X260793Y453995D01*
X260804Y453958D01*
X260810Y453921D01*
X260875Y453722D01*
X260935Y453523D01*
X260952Y453488D01*
X260964Y453452D01*
X261061Y453267D01*
X261152Y453079D01*
X261174Y453048D01*
X261192Y453014D01*
X261250Y452942D01*
X261438Y452677D01*
X261558Y452555D01*
X261617Y452481D01*
X263328Y450770D01*
X264667Y447538D01*
X264743Y447390D01*
X264810Y447240D01*
X264855Y447172D01*
X264892Y447099D01*
X264991Y446966D01*
X265081Y446828D01*
X265137Y446768D01*
X265185Y446702D01*
X265304Y446586D01*
X265416Y446465D01*
X265480Y446414D01*
X265538Y446357D01*
X265674Y446262D01*
X265804Y446161D01*
X265876Y446121D01*
X265943Y446074D01*
X266092Y446003D01*
X266236Y445923D01*
X266313Y445896D01*
X266387Y445860D01*
X266546Y445814D01*
X266701Y445758D01*
X266782Y445744D01*
X266860Y445721D01*
X267024Y445700D01*
X267187Y445671D01*
X267269Y445670D01*
X267350Y445660D01*
X267515Y445666D01*
X267680Y445663D01*
X267761Y445675D01*
X267843Y445678D01*
X268005Y445711D01*
X268168Y445735D01*
X268246Y445760D01*
X268326Y445776D01*
X268481Y445834D01*
X268638Y445884D01*
X268711Y445921D01*
X268788Y445950D01*
X268931Y446033D01*
X269078Y446108D01*
X269144Y446156D01*
X269215Y446197D01*
X269343Y446302D01*
X269476Y446399D01*
X269534Y446458D01*
X269597Y446509D01*
X269706Y446633D01*
X269822Y446751D01*
X269857Y446804D01*
X269923Y446879D01*
X270186Y447297D01*
X270192Y447311D01*
X270198Y447320D01*
X270710Y448325D01*
X271650Y449619D01*
X272781Y450750D01*
X274075Y451690D01*
X275500Y452416D01*
X276353Y452693D01*
X276353Y443000D01*
X276353Y433307D01*
X275500Y433584D01*
X274075Y434310D01*
X272781Y435250D01*
X271650Y436381D01*
X270710Y437675D01*
X270198Y438680D01*
X270111Y438820D01*
X270032Y438965D01*
X269982Y439030D01*
X269939Y439100D01*
X269831Y439224D01*
X269729Y439355D01*
X269669Y439411D01*
X269616Y439472D01*
X269489Y439578D01*
X269367Y439690D01*
X269299Y439736D01*
X269237Y439788D01*
X269094Y439872D01*
X268956Y439963D01*
X268882Y439997D01*
X268811Y440038D01*
X268657Y440098D01*
X268507Y440166D01*
X268428Y440187D01*
X268352Y440217D01*
X268190Y440251D01*
X268030Y440294D01*
X267949Y440302D01*
X267869Y440319D01*
X267704Y440326D01*
X267539Y440343D01*
X267458Y440338D01*
X267376Y440342D01*
X267212Y440322D01*
X267047Y440312D01*
X266967Y440294D01*
X266886Y440284D01*
X266727Y440239D01*
X266566Y440202D01*
X266490Y440171D01*
X266412Y440149D01*
X266262Y440079D01*
X266109Y440016D01*
X266039Y439974D01*
X265965Y439939D01*
X265829Y439845D01*
X265688Y439759D01*
X265626Y439706D01*
X265559Y439659D01*
X265440Y439545D01*
X265314Y439437D01*
X265262Y439375D01*
X265203Y439318D01*
X265103Y439186D01*
X264997Y439059D01*
X264966Y439004D01*
X264906Y438924D01*
X264677Y438487D01*
X264673Y438472D01*
X264667Y438462D01*
X263328Y435230D01*
X259470Y431372D01*
X254428Y429283D01*
X248972Y429283D01*
X243930Y431372D01*
X240005Y435297D01*
X239947Y435346D01*
X239894Y435402D01*
X239759Y435506D01*
X239629Y435616D01*
X239564Y435656D01*
X239503Y435702D01*
X239353Y435783D01*
X239206Y435871D01*
X239135Y435899D01*
X239068Y435935D01*
X238907Y435991D01*
X238748Y436054D01*
X238674Y436070D01*
X238602Y436095D01*
X238433Y436124D01*
X238266Y436161D01*
X238190Y436165D01*
X238115Y436178D01*
X237944Y436179D01*
X237774Y436188D01*
X237698Y436180D01*
X237622Y436181D01*
X237453Y436154D01*
X237283Y436136D01*
X237210Y436116D01*
X237135Y436104D01*
X236972Y436051D01*
X236808Y436006D01*
X236738Y435974D01*
X236666Y435950D01*
X236515Y435871D01*
X236359Y435800D01*
X236296Y435757D01*
X236228Y435722D01*
X236146Y435656D01*
X235950Y435524D01*
X235778Y435363D01*
X235695Y435297D01*
X231770Y431371D01*
X226728Y429283D01*
X221272Y429283D01*
X216230Y431372D01*
X212372Y435230D01*
X210283Y440272D01*
X210283Y445728D01*
X212372Y450770D01*
X216230Y454628D01*
X221272Y456717D01*
X225828Y456717D01*
X225866Y456720D01*
X225904Y456718D01*
X226112Y456740D01*
X226320Y456757D01*
X226357Y456766D01*
X226395Y456770D01*
X226596Y456825D01*
X226799Y456875D01*
X226834Y456890D01*
X226871Y456901D01*
X227060Y456988D01*
X227252Y457070D01*
X227284Y457090D01*
X227319Y457106D01*
X227492Y457223D01*
X227668Y457335D01*
X227697Y457360D01*
X227728Y457382D01*
X227881Y457525D01*
X228036Y457664D01*
X228060Y457693D01*
X228088Y457719D01*
X228215Y457885D01*
X228346Y458048D01*
X228365Y458081D01*
X228388Y458111D01*
X228487Y458295D01*
X228590Y458476D01*
X228603Y458512D01*
X228621Y458546D01*
X228689Y458743D01*
X228762Y458939D01*
X228769Y458976D01*
X228781Y459012D01*
X228816Y459219D01*
X228856Y459423D01*
X228857Y459461D01*
X228864Y459499D01*
X228865Y459708D01*
X228872Y459916D01*
X228867Y459954D01*
X228867Y459992D01*
X228834Y460199D01*
X228807Y460405D01*
X228796Y460442D01*
X228790Y460479D01*
X228725Y460678D01*
X228665Y460877D01*
X228648Y460912D01*
X228636Y460948D01*
X228540Y461133D01*
X228448Y461321D01*
X228426Y461352D01*
X228408Y461386D01*
X228350Y461458D01*
X228162Y461723D01*
X228042Y461845D01*
X227983Y461919D01*
X226271Y463630D01*
X224183Y468672D01*
X224183Y474128D01*
X226272Y479170D01*
X230130Y483028D01*
X235172Y485117D01*
X240628Y485117D01*
X245670Y483029D01*
X249595Y479103D01*
X249653Y479054D01*
X249705Y478998D01*
X249841Y478894D01*
X249971Y478784D01*
X250037Y478744D01*
X250097Y478698D01*
X250247Y478617D01*
X250394Y478529D01*
X250464Y478501D01*
X250532Y478465D01*
X250693Y478409D01*
X250852Y478346D01*
X250926Y478330D01*
X250998Y478305D01*
X251167Y478276D01*
X251333Y478239D01*
X251410Y478235D01*
X251485Y478222D01*
X251656Y478221D01*
X251826Y478212D01*
X251902Y478220D01*
X251978Y478219D01*
X252147Y478246D01*
X252317Y478264D01*
G37*
%LPD*%
%LPC*%
G36*
X400755Y429513D02*
X400755Y429513D01*
X393713Y431400D01*
X387400Y435045D01*
X382245Y440200D01*
X378600Y446513D01*
X376713Y453555D01*
X376713Y460845D01*
X378600Y467887D01*
X382245Y474200D01*
X387400Y479355D01*
X393713Y483000D01*
X400755Y484887D01*
X408045Y484887D01*
X415087Y483000D01*
X421400Y479355D01*
X426555Y474200D01*
X430200Y467887D01*
X432087Y460845D01*
X432087Y453555D01*
X430200Y446513D01*
X426555Y440200D01*
X421400Y435045D01*
X415087Y431400D01*
X408045Y429513D01*
X400755Y429513D01*
G37*
%LPD*%
%LPC*%
G36*
X150755Y429513D02*
X150755Y429513D01*
X143713Y431400D01*
X137400Y435045D01*
X132245Y440200D01*
X128600Y446513D01*
X126713Y453555D01*
X126713Y460845D01*
X128600Y467887D01*
X132245Y474200D01*
X137400Y479355D01*
X143713Y483000D01*
X150755Y484887D01*
X158045Y484887D01*
X165087Y483000D01*
X171400Y479355D01*
X176555Y474200D01*
X180200Y467887D01*
X182087Y460845D01*
X182087Y453555D01*
X180200Y446513D01*
X176555Y440200D01*
X171400Y435045D01*
X165087Y431400D01*
X158045Y429513D01*
X150755Y429513D01*
G37*
%LPD*%
%LPC*%
G36*
X55605Y477903D02*
X55605Y477903D01*
X47483Y481267D01*
X41267Y487483D01*
X37903Y495605D01*
X37903Y504395D01*
X41267Y512517D01*
X47483Y518733D01*
X55605Y522097D01*
X64395Y522097D01*
X72517Y518733D01*
X78733Y512517D01*
X82097Y504395D01*
X82097Y495605D01*
X78733Y487483D01*
X72517Y481267D01*
X64395Y477903D01*
X55605Y477903D01*
G37*
%LPD*%
%LPC*%
G36*
X475605Y477903D02*
X475605Y477903D01*
X467483Y481267D01*
X461267Y487483D01*
X457903Y495605D01*
X457903Y504395D01*
X461267Y512517D01*
X467483Y518733D01*
X475605Y522097D01*
X484395Y522097D01*
X492517Y518733D01*
X498733Y512517D01*
X502097Y504395D01*
X502097Y495605D01*
X498733Y487483D01*
X492517Y481267D01*
X484395Y477903D01*
X475605Y477903D01*
G37*
%LPD*%
%LPC*%
G36*
X475605Y397903D02*
X475605Y397903D01*
X467483Y401267D01*
X461267Y407483D01*
X457903Y415605D01*
X457903Y424395D01*
X461267Y432517D01*
X467483Y438733D01*
X475605Y442097D01*
X484395Y442097D01*
X492517Y438733D01*
X498733Y432517D01*
X502097Y424395D01*
X502097Y415605D01*
X498733Y407483D01*
X492517Y401267D01*
X484395Y397903D01*
X475605Y397903D01*
G37*
%LPD*%
%LPC*%
G36*
X55605Y397903D02*
X55605Y397903D01*
X47483Y401267D01*
X41267Y407483D01*
X37903Y415605D01*
X37903Y424395D01*
X41267Y432517D01*
X47483Y438733D01*
X55605Y442097D01*
X64395Y442097D01*
X72517Y438733D01*
X78733Y432517D01*
X82097Y424395D01*
X82097Y415605D01*
X78733Y407483D01*
X72517Y401267D01*
X64395Y397903D01*
X55605Y397903D01*
G37*
%LPD*%
%LPC*%
G36*
X255605Y37903D02*
X255605Y37903D01*
X247483Y41267D01*
X241267Y47483D01*
X237903Y55605D01*
X237903Y64395D01*
X241267Y72517D01*
X247483Y78733D01*
X255605Y82097D01*
X264395Y82097D01*
X272517Y78733D01*
X278733Y72517D01*
X282097Y64395D01*
X282097Y55605D01*
X278733Y47483D01*
X272517Y41267D01*
X264395Y37903D01*
X255605Y37903D01*
G37*
%LPD*%
%LPC*%
G36*
X115605Y37903D02*
X115605Y37903D01*
X107483Y41267D01*
X101267Y47483D01*
X97903Y55605D01*
X97903Y64395D01*
X101267Y72517D01*
X107483Y78733D01*
X115605Y82097D01*
X124395Y82097D01*
X132517Y78733D01*
X138733Y72517D01*
X142097Y64395D01*
X142097Y55605D01*
X138733Y47483D01*
X132517Y41267D01*
X124395Y37903D01*
X115605Y37903D01*
G37*
%LPD*%
%LPC*%
G36*
X323740Y74660D02*
X323740Y74660D01*
X323872Y74672D01*
X324005Y74673D01*
X324118Y74693D01*
X324231Y74703D01*
X324322Y74729D01*
X324491Y74759D01*
X324797Y74866D01*
X324887Y74892D01*
X328286Y76300D01*
X332115Y76300D01*
X335041Y75088D01*
X335248Y75021D01*
X335455Y74950D01*
X335483Y74945D01*
X335510Y74936D01*
X335726Y74904D01*
X335942Y74867D01*
X335970Y74867D01*
X335998Y74863D01*
X336216Y74866D01*
X336435Y74864D01*
X336463Y74869D01*
X336492Y74869D01*
X336706Y74907D01*
X336922Y74941D01*
X336949Y74950D01*
X336977Y74955D01*
X337183Y75027D01*
X337391Y75095D01*
X337416Y75108D01*
X337443Y75118D01*
X337634Y75222D01*
X337829Y75323D01*
X337847Y75338D01*
X337876Y75354D01*
X338266Y75656D01*
X338320Y75715D01*
X338362Y75748D01*
X340623Y78009D01*
X344160Y79475D01*
X347990Y79475D01*
X351527Y78009D01*
X354234Y75302D01*
X355700Y71765D01*
X355700Y67935D01*
X354234Y64398D01*
X351527Y61691D01*
X347990Y60225D01*
X344160Y60225D01*
X341234Y61437D01*
X341027Y61504D01*
X340820Y61575D01*
X340792Y61580D01*
X340765Y61589D01*
X340549Y61621D01*
X340333Y61658D01*
X340305Y61658D01*
X340277Y61662D01*
X340059Y61659D01*
X339840Y61661D01*
X339812Y61656D01*
X339783Y61656D01*
X339569Y61618D01*
X339353Y61584D01*
X339326Y61575D01*
X339298Y61570D01*
X339092Y61498D01*
X338884Y61430D01*
X338859Y61417D01*
X338832Y61407D01*
X338641Y61303D01*
X338446Y61202D01*
X338428Y61187D01*
X338399Y61171D01*
X338009Y60869D01*
X337955Y60810D01*
X337913Y60777D01*
X335652Y58516D01*
X332115Y57050D01*
X328286Y57050D01*
X324887Y58458D01*
X324778Y58493D01*
X324673Y58537D01*
X324544Y58569D01*
X324417Y58609D01*
X324304Y58626D01*
X324193Y58653D01*
X324061Y58663D01*
X323929Y58683D01*
X323815Y58681D01*
X323701Y58690D01*
X323569Y58678D01*
X323436Y58677D01*
X323324Y58657D01*
X323210Y58647D01*
X323120Y58621D01*
X322950Y58591D01*
X322644Y58484D01*
X322554Y58458D01*
X319395Y57149D01*
X315605Y57149D01*
X312104Y58599D01*
X309424Y61279D01*
X307974Y64780D01*
X307974Y68570D01*
X309424Y72071D01*
X312104Y74751D01*
X315605Y76201D01*
X319395Y76201D01*
X322554Y74892D01*
X322663Y74857D01*
X322768Y74813D01*
X322898Y74781D01*
X323024Y74741D01*
X323137Y74724D01*
X323248Y74697D01*
X323380Y74687D01*
X323512Y74667D01*
X323626Y74669D01*
X323740Y74660D01*
G37*
%LPD*%
%LPC*%
G36*
X260350Y212597D02*
X260350Y212597D01*
X250657Y212597D01*
X250934Y213450D01*
X251660Y214875D01*
X252600Y216169D01*
X253731Y217300D01*
X254189Y217633D01*
X254320Y217746D01*
X254457Y217852D01*
X254507Y217906D01*
X254564Y217955D01*
X254675Y218087D01*
X254792Y218214D01*
X254834Y218276D01*
X254881Y218332D01*
X254969Y218480D01*
X255065Y218625D01*
X255096Y218692D01*
X255134Y218756D01*
X255197Y218917D01*
X255268Y219074D01*
X255287Y219146D01*
X255314Y219215D01*
X255351Y219384D01*
X255396Y219551D01*
X255403Y219625D01*
X255419Y219697D01*
X255428Y219870D01*
X255445Y220042D01*
X255440Y220116D01*
X255444Y220190D01*
X255425Y220362D01*
X255414Y220534D01*
X255398Y220606D01*
X255389Y220680D01*
X255343Y220847D01*
X255304Y221015D01*
X255276Y221084D01*
X255256Y221155D01*
X255183Y221312D01*
X255118Y221472D01*
X255080Y221535D01*
X255048Y221603D01*
X254951Y221746D01*
X254861Y221893D01*
X254813Y221949D01*
X254771Y222011D01*
X254652Y222136D01*
X254539Y222267D01*
X254482Y222315D01*
X254431Y222368D01*
X254294Y222473D01*
X254161Y222584D01*
X254110Y222612D01*
X254038Y222667D01*
X253602Y222898D01*
X253579Y222905D01*
X253564Y222914D01*
X252580Y223322D01*
X248722Y227180D01*
X246633Y232222D01*
X246633Y237678D01*
X248722Y242720D01*
X252580Y246578D01*
X257622Y248667D01*
X263078Y248667D01*
X268120Y246578D01*
X271978Y242720D01*
X274067Y237678D01*
X274067Y232222D01*
X271978Y227180D01*
X268120Y223322D01*
X267136Y222914D01*
X266982Y222835D01*
X266824Y222764D01*
X266763Y222723D01*
X266697Y222689D01*
X266557Y222586D01*
X266414Y222490D01*
X266359Y222440D01*
X266300Y222396D01*
X266179Y222272D01*
X266053Y222154D01*
X266007Y222096D01*
X265955Y222043D01*
X265856Y221901D01*
X265750Y221764D01*
X265715Y221699D01*
X265672Y221639D01*
X265597Y221483D01*
X265515Y221331D01*
X265491Y221261D01*
X265458Y221194D01*
X265409Y221028D01*
X265353Y220865D01*
X265340Y220792D01*
X265319Y220721D01*
X265297Y220549D01*
X265268Y220379D01*
X265267Y220305D01*
X265258Y220231D01*
X265264Y220059D01*
X265262Y219886D01*
X265273Y219812D01*
X265276Y219738D01*
X265310Y219569D01*
X265336Y219398D01*
X265359Y219328D01*
X265374Y219255D01*
X265435Y219093D01*
X265488Y218929D01*
X265522Y218863D01*
X265548Y218793D01*
X265635Y218644D01*
X265714Y218490D01*
X265758Y218430D01*
X265795Y218366D01*
X265905Y218232D01*
X266007Y218093D01*
X266050Y218054D01*
X266107Y217984D01*
X266477Y217658D01*
X266498Y217645D01*
X266511Y217633D01*
X266969Y217300D01*
X268100Y216169D01*
X269040Y214875D01*
X269766Y213450D01*
X270043Y212597D01*
X260350Y212597D01*
X260350Y212597D01*
G37*
%LPD*%
%LPC*%
G36*
X257622Y170433D02*
X257622Y170433D01*
X252580Y172522D01*
X248722Y176380D01*
X246633Y181422D01*
X246633Y186878D01*
X248722Y191920D01*
X252580Y195778D01*
X253564Y196186D01*
X253718Y196265D01*
X253876Y196336D01*
X253937Y196377D01*
X254003Y196411D01*
X254142Y196514D01*
X254286Y196610D01*
X254341Y196660D01*
X254400Y196704D01*
X254521Y196828D01*
X254648Y196946D01*
X254693Y197004D01*
X254745Y197057D01*
X254844Y197199D01*
X254950Y197336D01*
X254985Y197401D01*
X255028Y197461D01*
X255103Y197617D01*
X255185Y197769D01*
X255210Y197839D01*
X255242Y197906D01*
X255291Y198072D01*
X255347Y198235D01*
X255360Y198308D01*
X255381Y198379D01*
X255403Y198551D01*
X255432Y198721D01*
X255433Y198795D01*
X255442Y198869D01*
X255436Y199041D01*
X255438Y199214D01*
X255427Y199288D01*
X255424Y199362D01*
X255390Y199531D01*
X255364Y199702D01*
X255341Y199773D01*
X255326Y199845D01*
X255265Y200007D01*
X255212Y200171D01*
X255178Y200237D01*
X255152Y200307D01*
X255065Y200456D01*
X254986Y200610D01*
X254942Y200670D01*
X254905Y200734D01*
X254796Y200867D01*
X254693Y201007D01*
X254650Y201046D01*
X254593Y201116D01*
X254223Y201442D01*
X254202Y201455D01*
X254189Y201467D01*
X253731Y201800D01*
X252600Y202931D01*
X251660Y204225D01*
X250934Y205650D01*
X250657Y206503D01*
X260350Y206503D01*
X270043Y206503D01*
X269766Y205650D01*
X269040Y204225D01*
X268100Y202931D01*
X266969Y201800D01*
X266511Y201467D01*
X266380Y201354D01*
X266243Y201248D01*
X266193Y201194D01*
X266136Y201145D01*
X266025Y201013D01*
X265907Y200886D01*
X265866Y200824D01*
X265819Y200768D01*
X265730Y200619D01*
X265635Y200475D01*
X265604Y200408D01*
X265566Y200344D01*
X265503Y200183D01*
X265432Y200026D01*
X265413Y199954D01*
X265386Y199885D01*
X265349Y199716D01*
X265304Y199549D01*
X265297Y199475D01*
X265281Y199403D01*
X265272Y199230D01*
X265255Y199058D01*
X265260Y198984D01*
X265256Y198910D01*
X265275Y198738D01*
X265286Y198566D01*
X265302Y198494D01*
X265311Y198420D01*
X265357Y198253D01*
X265396Y198085D01*
X265424Y198016D01*
X265444Y197945D01*
X265516Y197788D01*
X265582Y197628D01*
X265620Y197565D01*
X265652Y197497D01*
X265749Y197355D01*
X265839Y197207D01*
X265887Y197151D01*
X265929Y197090D01*
X266048Y196964D01*
X266161Y196833D01*
X266218Y196785D01*
X266269Y196732D01*
X266406Y196627D01*
X266539Y196516D01*
X266590Y196488D01*
X266662Y196433D01*
X267097Y196202D01*
X267121Y196194D01*
X267136Y196186D01*
X268120Y195778D01*
X271978Y191920D01*
X274067Y186878D01*
X274067Y181422D01*
X271978Y176380D01*
X268120Y172522D01*
X263078Y170433D01*
X257622Y170433D01*
G37*
%LPD*%
%LPC*%
G36*
X276520Y334771D02*
X276520Y334771D01*
X271198Y336976D01*
X267126Y341048D01*
X264921Y346370D01*
X264921Y352130D01*
X267126Y357452D01*
X271198Y361524D01*
X276520Y363729D01*
X282280Y363729D01*
X287602Y361524D01*
X291674Y357452D01*
X293879Y352130D01*
X293879Y346370D01*
X291674Y341048D01*
X287602Y336976D01*
X282280Y334771D01*
X276520Y334771D01*
G37*
%LPD*%
%LPC*%
G36*
X353705Y114299D02*
X353705Y114299D01*
X350204Y115749D01*
X347524Y118429D01*
X346074Y121930D01*
X346074Y125720D01*
X347524Y129221D01*
X350204Y131900D01*
X350543Y132041D01*
X350738Y132141D01*
X350934Y132237D01*
X350957Y132253D01*
X350982Y132266D01*
X351158Y132396D01*
X351336Y132522D01*
X351356Y132542D01*
X351379Y132559D01*
X351532Y132715D01*
X351687Y132869D01*
X351704Y132892D01*
X351724Y132912D01*
X351849Y133091D01*
X351977Y133268D01*
X351990Y133293D01*
X352006Y133316D01*
X352101Y133513D01*
X352200Y133708D01*
X352208Y133735D01*
X352221Y133761D01*
X352282Y133969D01*
X352348Y134178D01*
X352351Y134202D01*
X352360Y134234D01*
X352421Y134723D01*
X352418Y134804D01*
X352424Y134856D01*
X352424Y138420D01*
X353874Y141921D01*
X356554Y144601D01*
X360055Y146051D01*
X363845Y146051D01*
X367346Y144601D01*
X370026Y141921D01*
X371476Y138420D01*
X371476Y134630D01*
X370026Y131129D01*
X367346Y128450D01*
X367007Y128309D01*
X366812Y128209D01*
X366616Y128113D01*
X366593Y128097D01*
X366568Y128084D01*
X366392Y127954D01*
X366214Y127828D01*
X366194Y127808D01*
X366171Y127791D01*
X366018Y127635D01*
X365863Y127481D01*
X365846Y127458D01*
X365826Y127438D01*
X365701Y127259D01*
X365573Y127082D01*
X365560Y127057D01*
X365544Y127034D01*
X365449Y126837D01*
X365350Y126642D01*
X365342Y126615D01*
X365329Y126589D01*
X365268Y126380D01*
X365202Y126172D01*
X365199Y126148D01*
X365190Y126116D01*
X365129Y125627D01*
X365132Y125546D01*
X365126Y125494D01*
X365126Y121930D01*
X363676Y118429D01*
X360996Y115749D01*
X357495Y114299D01*
X353705Y114299D01*
G37*
%LPD*%
%LPC*%
G36*
X200775Y368807D02*
X200775Y368807D01*
X196293Y370663D01*
X192863Y374093D01*
X191007Y378575D01*
X191007Y383425D01*
X192863Y387907D01*
X196293Y391337D01*
X200775Y393193D01*
X205625Y393193D01*
X210107Y391337D01*
X213537Y387907D01*
X215393Y383425D01*
X215393Y378575D01*
X213537Y374093D01*
X210107Y370663D01*
X205625Y368807D01*
X200775Y368807D01*
G37*
%LPD*%
%LPC*%
G36*
X302375Y368807D02*
X302375Y368807D01*
X297893Y370663D01*
X294463Y374093D01*
X292607Y378575D01*
X292607Y383425D01*
X294463Y387907D01*
X297893Y391337D01*
X302375Y393193D01*
X307225Y393193D01*
X311707Y391337D01*
X315137Y387907D01*
X316993Y383425D01*
X316993Y378575D01*
X315137Y374093D01*
X311707Y370663D01*
X307225Y368807D01*
X302375Y368807D01*
G37*
%LPD*%
%LPC*%
G36*
X188585Y288825D02*
X188585Y288825D01*
X185048Y290291D01*
X182341Y292998D01*
X180875Y296535D01*
X180875Y300365D01*
X182341Y303902D01*
X185048Y306609D01*
X188585Y308075D01*
X192415Y308075D01*
X195952Y306609D01*
X198659Y303902D01*
X200125Y300365D01*
X200125Y296535D01*
X198659Y292998D01*
X195952Y290291D01*
X192415Y288825D01*
X188585Y288825D01*
G37*
%LPD*%
%LPC*%
G36*
X112385Y257075D02*
X112385Y257075D01*
X108848Y258541D01*
X106141Y261248D01*
X104675Y264785D01*
X104675Y268615D01*
X106141Y272152D01*
X108848Y274859D01*
X112385Y276325D01*
X116215Y276325D01*
X119752Y274859D01*
X122459Y272152D01*
X123925Y268615D01*
X123925Y264785D01*
X122459Y261248D01*
X119752Y258541D01*
X116215Y257075D01*
X112385Y257075D01*
G37*
%LPD*%
%LPC*%
G36*
X404485Y238025D02*
X404485Y238025D01*
X400948Y239491D01*
X398241Y242198D01*
X396775Y245735D01*
X396775Y249565D01*
X398241Y253102D01*
X400948Y255809D01*
X404485Y257275D01*
X408315Y257275D01*
X411852Y255809D01*
X414559Y253102D01*
X416025Y249565D01*
X416025Y245735D01*
X414559Y242198D01*
X411852Y239491D01*
X408315Y238025D01*
X404485Y238025D01*
G37*
%LPD*%
%LPC*%
G36*
X296535Y225325D02*
X296535Y225325D01*
X292998Y226791D01*
X290291Y229498D01*
X288825Y233035D01*
X288825Y236865D01*
X290291Y240402D01*
X292998Y243109D01*
X296535Y244575D01*
X300365Y244575D01*
X303902Y243109D01*
X306609Y240402D01*
X308075Y236865D01*
X308075Y233035D01*
X306609Y229498D01*
X303902Y226791D01*
X300365Y225325D01*
X296535Y225325D01*
G37*
%LPD*%
%LPC*%
G36*
X321935Y168175D02*
X321935Y168175D01*
X318398Y169641D01*
X315691Y172348D01*
X314225Y175885D01*
X314225Y179715D01*
X315691Y183252D01*
X318398Y185959D01*
X321935Y187425D01*
X325765Y187425D01*
X329302Y185959D01*
X332009Y183252D01*
X333475Y179715D01*
X333475Y175885D01*
X332009Y172348D01*
X329302Y169641D01*
X325765Y168175D01*
X321935Y168175D01*
G37*
%LPD*%
%LPC*%
G36*
X379085Y155475D02*
X379085Y155475D01*
X375548Y156941D01*
X372841Y159648D01*
X371375Y163185D01*
X371375Y167015D01*
X372841Y170552D01*
X375548Y173259D01*
X379085Y174725D01*
X382915Y174725D01*
X386452Y173259D01*
X389159Y170552D01*
X390625Y167015D01*
X390625Y163185D01*
X389159Y159648D01*
X386452Y156941D01*
X382915Y155475D01*
X379085Y155475D01*
G37*
%LPD*%
%LPC*%
G36*
X372735Y60225D02*
X372735Y60225D01*
X369198Y61691D01*
X366491Y64398D01*
X365025Y67935D01*
X365025Y71765D01*
X366491Y75302D01*
X369198Y78009D01*
X372735Y79475D01*
X376565Y79475D01*
X380102Y78009D01*
X382809Y75302D01*
X384275Y71765D01*
X384275Y67935D01*
X382809Y64398D01*
X380102Y61691D01*
X376565Y60225D01*
X372735Y60225D01*
G37*
%LPD*%
%LPC*%
G36*
X385455Y126999D02*
X385455Y126999D01*
X381954Y128449D01*
X379274Y131129D01*
X377824Y134630D01*
X377824Y138420D01*
X379274Y141921D01*
X381954Y144601D01*
X385455Y146051D01*
X389245Y146051D01*
X392746Y144601D01*
X395426Y141921D01*
X396876Y138420D01*
X396876Y134630D01*
X395426Y131129D01*
X392746Y128449D01*
X389245Y126999D01*
X385455Y126999D01*
G37*
%LPD*%
%LPC*%
G36*
X180847Y352297D02*
X180847Y352297D01*
X180847Y359745D01*
X181993Y359373D01*
X183525Y358592D01*
X184916Y357581D01*
X186131Y356366D01*
X187142Y354975D01*
X187923Y353443D01*
X188295Y352297D01*
X180847Y352297D01*
G37*
%LPD*%
%LPC*%
G36*
X167305Y352297D02*
X167305Y352297D01*
X167677Y353443D01*
X168458Y354975D01*
X169469Y356366D01*
X170684Y357581D01*
X172075Y358592D01*
X173607Y359373D01*
X174753Y359745D01*
X174753Y352297D01*
X167305Y352297D01*
G37*
%LPD*%
%LPC*%
G36*
X180847Y346203D02*
X180847Y346203D01*
X188295Y346203D01*
X187923Y345057D01*
X187142Y343525D01*
X186131Y342134D01*
X184916Y340919D01*
X183525Y339908D01*
X181993Y339127D01*
X180847Y338755D01*
X180847Y346203D01*
G37*
%LPD*%
%LPC*%
G36*
X173607Y339127D02*
X173607Y339127D01*
X172075Y339908D01*
X170684Y340919D01*
X169469Y342134D01*
X168458Y343525D01*
X167677Y345057D01*
X167305Y346203D01*
X174753Y346203D01*
X174753Y338755D01*
X173607Y339127D01*
G37*
%LPD*%
D10*
X44450Y266700D03*
X44450Y241300D03*
X44450Y215900D03*
X44450Y190500D03*
X44450Y165100D03*
X44450Y139700D03*
X44450Y114300D03*
X44450Y88900D03*
X44450Y63500D03*
X44450Y38100D03*
X69850Y266700D03*
X69850Y241300D03*
X69850Y215900D03*
X69850Y190500D03*
X69850Y165100D03*
X69850Y139700D03*
X69850Y114300D03*
X69850Y88900D03*
X69850Y63500D03*
X69850Y38100D03*
X476250Y266700D03*
X476250Y241300D03*
X476250Y215900D03*
X476250Y190500D03*
X476250Y165100D03*
X476250Y139700D03*
X476250Y114300D03*
X476250Y88900D03*
X476250Y63500D03*
X476250Y38100D03*
X501650Y266700D03*
X501650Y241300D03*
X501650Y215900D03*
X501650Y190500D03*
X501650Y165100D03*
X501650Y139700D03*
X501650Y114300D03*
X501650Y88900D03*
X501650Y63500D03*
X501650Y38100D03*
X224000Y443000D03*
X251700Y443000D03*
X279400Y443000D03*
X307100Y443000D03*
X334800Y443000D03*
X237900Y471400D03*
X265600Y471400D03*
X293200Y471400D03*
X320900Y471400D03*
D11*
X154400Y457200D03*
X404400Y457200D03*
D12*
X304800Y381000D03*
X203200Y381000D03*
D10*
X260350Y234950D03*
X260350Y209550D03*
X260350Y184150D03*
D13*
X177800Y349250D03*
X279400Y349250D03*
D14*
X444500Y134846D03*
X374650Y260350D03*
D15*
X361950Y260350D01*
D14*
X374650Y215900D03*
D15*
X361950Y215900D01*
D14*
X190500Y317500D03*
X127000Y184150D03*
X152400Y101600D03*
X203200Y101600D03*
D16*
X393700Y50800D03*
D17*
X398158Y55258D01*
X398158Y57150D01*
D14*
X196850Y31750D03*
D18*
X203200Y31750D01*
D14*
X120650Y247650D03*
X171450Y114300D03*
X222250Y114300D03*
X406400Y247650D03*
X298450Y234950D03*
X114300Y266700D03*
X463550Y127000D03*
X323850Y177800D03*
X190500Y298450D03*
X330200Y66675D03*
D19*
X317500Y66675D03*
X323850Y142875D03*
X361950Y136525D03*
D18*
X336550Y142875D02*
X314325Y120650D01*
X76200Y120650D01*
X69850Y114300D01*
D19*
X336550Y142875D03*
X387350Y136525D03*
X355600Y123825D03*
D14*
X346075Y69850D03*
X381000Y165100D03*
D16*
X457200Y57150D03*
D14*
X374650Y69850D03*
X450850Y69850D03*
M02*
