G04 EAGLE Gerber X2 export*
%TF.Part,Single*%
%TF.FileFunction,Copper,L4,Bot,Mixed*%
%TF.FilePolarity,Positive*%
%TF.GenerationSoftware,Autodesk,EAGLE,9.0.0*%
%TF.CreationDate,2018-07-03T14:12:15Z*%
G75*
%MOMM*%
%FSLAX34Y34*%
%LPD*%
%AMOC8*
5,1,8,0,0,1.08239X$1,22.5*%
G01*
%ADD10R,1.879600X1.879600*%
%ADD11C,1.879600*%
%ADD12C,5.080000*%
%ADD13P,1.814519X8X202.500000*%
%ADD14C,1.524000*%
%ADD15C,1.676400*%
%ADD16C,0.705600*%
%ADD17C,0.955600*%
%ADD18C,0.508000*%
%ADD19C,0.254000*%
%ADD20C,0.685800*%

G36*
X533518Y11446D02*
X533518Y11446D01*
X533637Y11453D01*
X533675Y11466D01*
X533716Y11471D01*
X533826Y11514D01*
X533939Y11551D01*
X533974Y11573D01*
X534011Y11588D01*
X534107Y11658D01*
X534208Y11721D01*
X534236Y11751D01*
X534269Y11774D01*
X534345Y11866D01*
X534426Y11953D01*
X534446Y11988D01*
X534471Y12019D01*
X534522Y12127D01*
X534580Y12231D01*
X534590Y12271D01*
X534607Y12307D01*
X534629Y12424D01*
X534659Y12539D01*
X534663Y12600D01*
X534667Y12620D01*
X534665Y12640D01*
X534669Y12700D01*
X534669Y546100D01*
X534654Y546218D01*
X534647Y546337D01*
X534634Y546375D01*
X534629Y546416D01*
X534586Y546526D01*
X534549Y546639D01*
X534527Y546674D01*
X534512Y546711D01*
X534443Y546807D01*
X534379Y546908D01*
X534349Y546936D01*
X534326Y546969D01*
X534234Y547045D01*
X534147Y547126D01*
X534112Y547146D01*
X534081Y547171D01*
X533973Y547222D01*
X533869Y547280D01*
X533829Y547290D01*
X533793Y547307D01*
X533676Y547329D01*
X533561Y547359D01*
X533501Y547363D01*
X533481Y547367D01*
X533460Y547365D01*
X533400Y547369D01*
X450850Y547369D01*
X450732Y547354D01*
X450613Y547347D01*
X450575Y547334D01*
X450534Y547329D01*
X450424Y547286D01*
X450311Y547249D01*
X450276Y547227D01*
X450239Y547212D01*
X450143Y547143D01*
X450042Y547079D01*
X450014Y547049D01*
X449981Y547026D01*
X449906Y546934D01*
X449824Y546847D01*
X449804Y546812D01*
X449779Y546781D01*
X449728Y546673D01*
X449670Y546569D01*
X449660Y546529D01*
X449643Y546493D01*
X449621Y546376D01*
X449591Y546261D01*
X449587Y546201D01*
X449583Y546181D01*
X449585Y546160D01*
X449581Y546100D01*
X449581Y324397D01*
X448443Y323323D01*
X448443Y323322D01*
X447099Y322053D01*
X445755Y320784D01*
X444411Y319515D01*
X440380Y315707D01*
X440379Y315707D01*
X439036Y314438D01*
X439035Y314438D01*
X437692Y313169D01*
X437692Y313168D01*
X436348Y311899D01*
X433660Y309361D01*
X432316Y308092D01*
X432316Y308091D01*
X430972Y306822D01*
X429628Y305553D01*
X426941Y303015D01*
X426940Y303015D01*
X426940Y303014D01*
X425597Y301745D01*
X425596Y301745D01*
X424253Y300476D01*
X424252Y300476D01*
X422909Y299207D01*
X418877Y295399D01*
X417533Y294130D01*
X416189Y292861D01*
X416189Y292860D01*
X414845Y291591D01*
X412157Y289053D01*
X410814Y287784D01*
X410813Y287784D01*
X410813Y287783D01*
X409470Y286514D01*
X409469Y286514D01*
X408126Y285245D01*
X404094Y281437D01*
X402750Y280168D01*
X401406Y278899D01*
X400062Y277630D01*
X400062Y277629D01*
X397374Y275091D01*
X396031Y273822D01*
X396030Y273822D01*
X394687Y272553D01*
X394686Y272553D01*
X394686Y272552D01*
X393343Y271283D01*
X389311Y267476D01*
X389311Y267475D01*
X387967Y266206D01*
X386623Y264937D01*
X385279Y263668D01*
X382591Y261129D01*
X381247Y259860D01*
X379904Y258591D01*
X379903Y258591D01*
X379258Y257981D01*
X379240Y257960D01*
X379219Y257943D01*
X379140Y257837D01*
X379056Y257735D01*
X379044Y257710D01*
X379028Y257688D01*
X378957Y257544D01*
X378933Y257488D01*
X377512Y256067D01*
X377227Y255948D01*
X377095Y255873D01*
X376965Y255801D01*
X376956Y255794D01*
X376951Y255791D01*
X376941Y255781D01*
X376841Y255698D01*
X375872Y254783D01*
X374528Y253514D01*
X373184Y252245D01*
X373184Y252244D01*
X370496Y249706D01*
X369152Y248437D01*
X367808Y247168D01*
X367808Y247167D01*
X366464Y245898D01*
X362433Y242091D01*
X362432Y242090D01*
X361089Y240821D01*
X359745Y239552D01*
X358401Y238283D01*
X355713Y235744D01*
X354369Y234475D01*
X353025Y233206D01*
X351681Y231937D01*
X351681Y231936D01*
X348994Y229398D01*
X348993Y229398D01*
X347650Y228129D01*
X347649Y228129D01*
X346306Y226860D01*
X346306Y226859D01*
X344962Y225590D01*
X340930Y221783D01*
X340930Y221782D01*
X339586Y220513D01*
X338242Y219244D01*
X336898Y217975D01*
X336045Y217169D01*
X298450Y217169D01*
X298332Y217154D01*
X298213Y217147D01*
X298175Y217134D01*
X298134Y217129D01*
X298024Y217086D01*
X297911Y217049D01*
X297876Y217027D01*
X297839Y217012D01*
X297743Y216943D01*
X297642Y216879D01*
X297614Y216849D01*
X297581Y216826D01*
X297506Y216734D01*
X297424Y216647D01*
X297404Y216612D01*
X297379Y216581D01*
X297328Y216473D01*
X297270Y216369D01*
X297260Y216329D01*
X297243Y216293D01*
X297221Y216176D01*
X297191Y216061D01*
X297187Y216001D01*
X297183Y215981D01*
X297185Y215960D01*
X297181Y215900D01*
X297181Y83819D01*
X128269Y83819D01*
X128269Y177828D01*
X128254Y177946D01*
X128247Y178065D01*
X128234Y178103D01*
X128229Y178144D01*
X128186Y178254D01*
X128149Y178367D01*
X128127Y178402D01*
X128112Y178439D01*
X128043Y178535D01*
X127979Y178636D01*
X127949Y178664D01*
X127926Y178697D01*
X127834Y178773D01*
X127747Y178854D01*
X127712Y178874D01*
X127681Y178899D01*
X127573Y178950D01*
X127469Y179008D01*
X127429Y179018D01*
X127393Y179035D01*
X127276Y179057D01*
X127161Y179087D01*
X127101Y179091D01*
X127081Y179095D01*
X127060Y179093D01*
X127000Y179097D01*
X125995Y179097D01*
X124138Y179866D01*
X122716Y181288D01*
X121947Y183145D01*
X121947Y185155D01*
X122716Y187012D01*
X124138Y188434D01*
X125995Y189203D01*
X127000Y189203D01*
X127118Y189218D01*
X127237Y189225D01*
X127275Y189238D01*
X127316Y189243D01*
X127426Y189286D01*
X127539Y189323D01*
X127574Y189345D01*
X127611Y189360D01*
X127707Y189429D01*
X127808Y189493D01*
X127836Y189523D01*
X127869Y189546D01*
X127945Y189638D01*
X128026Y189725D01*
X128046Y189760D01*
X128071Y189791D01*
X128122Y189899D01*
X128180Y190003D01*
X128190Y190043D01*
X128207Y190079D01*
X128229Y190196D01*
X128259Y190311D01*
X128263Y190371D01*
X128267Y190391D01*
X128265Y190412D01*
X128269Y190472D01*
X128269Y209550D01*
X128266Y209580D01*
X128268Y209609D01*
X128246Y209737D01*
X128229Y209866D01*
X128218Y209893D01*
X128213Y209923D01*
X128160Y210041D01*
X128112Y210161D01*
X128095Y210185D01*
X128083Y210213D01*
X128002Y210314D01*
X127926Y210419D01*
X127903Y210438D01*
X127884Y210461D01*
X127762Y210565D01*
X102362Y229615D01*
X102354Y229620D01*
X102347Y229626D01*
X102216Y229698D01*
X102085Y229773D01*
X102077Y229775D01*
X102069Y229780D01*
X101924Y229817D01*
X101778Y229857D01*
X101769Y229857D01*
X101761Y229859D01*
X101600Y229869D01*
X64284Y229869D01*
X62827Y232784D01*
X62759Y232886D01*
X62696Y232993D01*
X62661Y233032D01*
X62651Y233048D01*
X62635Y233062D01*
X62590Y233113D01*
X60590Y235113D01*
X58927Y239127D01*
X58927Y240284D01*
X58920Y240338D01*
X58923Y240392D01*
X58901Y240495D01*
X58887Y240599D01*
X58867Y240650D01*
X58856Y240703D01*
X58793Y240852D01*
X57777Y242884D01*
X57763Y242904D01*
X57754Y242927D01*
X57675Y243036D01*
X57601Y243148D01*
X57582Y243165D01*
X57568Y243185D01*
X57464Y243271D01*
X57364Y243360D01*
X57342Y243372D01*
X57323Y243387D01*
X57201Y243445D01*
X57081Y243507D01*
X57057Y243512D01*
X57035Y243523D01*
X56903Y243548D01*
X56772Y243579D01*
X56747Y243578D01*
X56722Y243583D01*
X56588Y243574D01*
X56454Y243571D01*
X56430Y243565D01*
X56405Y243563D01*
X56277Y243522D01*
X56148Y243485D01*
X56126Y243473D01*
X56103Y243465D01*
X55989Y243393D01*
X55872Y243325D01*
X55855Y243308D01*
X55834Y243295D01*
X55742Y243197D01*
X55646Y243102D01*
X55633Y243081D01*
X55616Y243063D01*
X55551Y242945D01*
X55481Y242830D01*
X55474Y242806D01*
X55462Y242785D01*
X55429Y242654D01*
X55390Y242525D01*
X55389Y242501D01*
X55383Y242477D01*
X55373Y242316D01*
X55373Y239127D01*
X53710Y235113D01*
X50637Y232040D01*
X46623Y230377D01*
X42277Y230377D01*
X38263Y232040D01*
X35190Y235113D01*
X33527Y239127D01*
X33527Y243473D01*
X35190Y247487D01*
X38263Y250560D01*
X42277Y252223D01*
X46623Y252223D01*
X50637Y250560D01*
X51710Y249487D01*
X51801Y249417D01*
X51886Y249340D01*
X51926Y249319D01*
X51962Y249292D01*
X52067Y249246D01*
X52169Y249193D01*
X52212Y249183D01*
X52254Y249165D01*
X52367Y249147D01*
X52478Y249121D01*
X52523Y249123D01*
X52568Y249115D01*
X52682Y249126D01*
X52796Y249129D01*
X52839Y249141D01*
X52884Y249145D01*
X52992Y249184D01*
X53102Y249215D01*
X53141Y249238D01*
X53184Y249253D01*
X53278Y249317D01*
X53378Y249375D01*
X53410Y249406D01*
X53447Y249431D01*
X53522Y249517D01*
X53604Y249598D01*
X53628Y249636D01*
X53657Y249670D01*
X53709Y249772D01*
X53768Y249870D01*
X53781Y249913D01*
X53802Y249953D01*
X53827Y250065D01*
X53860Y250175D01*
X53862Y250220D01*
X53871Y250263D01*
X53868Y250378D01*
X53873Y250492D01*
X53863Y250536D01*
X53862Y250581D01*
X53830Y250691D01*
X53806Y250803D01*
X53779Y250866D01*
X53773Y250887D01*
X53764Y250903D01*
X53743Y250952D01*
X52189Y254060D01*
X52110Y254179D01*
X52033Y254300D01*
X52021Y254311D01*
X52012Y254324D01*
X51906Y254420D01*
X51801Y254518D01*
X51787Y254526D01*
X51776Y254536D01*
X51648Y254603D01*
X51523Y254672D01*
X51507Y254676D01*
X51493Y254683D01*
X51353Y254715D01*
X51215Y254751D01*
X51193Y254752D01*
X51184Y254755D01*
X51165Y254754D01*
X51054Y254761D01*
X46989Y254761D01*
X46989Y265430D01*
X46974Y265548D01*
X46967Y265667D01*
X46954Y265705D01*
X46949Y265745D01*
X46906Y265856D01*
X46869Y265969D01*
X46847Y266003D01*
X46832Y266041D01*
X46762Y266137D01*
X46699Y266238D01*
X46669Y266266D01*
X46645Y266298D01*
X46554Y266374D01*
X46467Y266456D01*
X46432Y266475D01*
X46401Y266501D01*
X46293Y266552D01*
X46189Y266609D01*
X46149Y266620D01*
X46113Y266637D01*
X45996Y266659D01*
X45881Y266689D01*
X45820Y266693D01*
X45800Y266697D01*
X45780Y266695D01*
X45720Y266699D01*
X44449Y266699D01*
X44449Y266701D01*
X45720Y266701D01*
X45838Y266716D01*
X45957Y266723D01*
X45995Y266736D01*
X46035Y266741D01*
X46146Y266785D01*
X46259Y266821D01*
X46294Y266843D01*
X46331Y266858D01*
X46427Y266928D01*
X46528Y266991D01*
X46556Y267021D01*
X46589Y267045D01*
X46664Y267136D01*
X46746Y267223D01*
X46766Y267258D01*
X46791Y267290D01*
X46842Y267397D01*
X46900Y267502D01*
X46910Y267541D01*
X46927Y267577D01*
X46949Y267694D01*
X46979Y267809D01*
X46983Y267870D01*
X46987Y267890D01*
X46985Y267910D01*
X46989Y267970D01*
X46989Y278639D01*
X51308Y278639D01*
X51406Y278651D01*
X51505Y278654D01*
X51563Y278671D01*
X51624Y278679D01*
X51716Y278715D01*
X51811Y278743D01*
X51863Y278773D01*
X51919Y278796D01*
X51999Y278854D01*
X52085Y278904D01*
X52160Y278970D01*
X52177Y278982D01*
X52184Y278992D01*
X52205Y279010D01*
X64026Y290831D01*
X151874Y290831D01*
X183253Y259453D01*
X183331Y259392D01*
X183403Y259324D01*
X183456Y259295D01*
X183504Y259258D01*
X183595Y259218D01*
X183681Y259170D01*
X183740Y259155D01*
X183796Y259131D01*
X183894Y259116D01*
X183989Y259091D01*
X184089Y259085D01*
X184110Y259081D01*
X184122Y259083D01*
X184150Y259081D01*
X209550Y259081D01*
X209668Y259096D01*
X209787Y259103D01*
X209825Y259116D01*
X209866Y259121D01*
X209976Y259164D01*
X210089Y259201D01*
X210124Y259223D01*
X210161Y259238D01*
X210257Y259308D01*
X210358Y259371D01*
X210386Y259401D01*
X210419Y259424D01*
X210495Y259516D01*
X210576Y259603D01*
X210596Y259638D01*
X210621Y259669D01*
X210672Y259777D01*
X210730Y259881D01*
X210740Y259921D01*
X210757Y259957D01*
X210779Y260074D01*
X210809Y260189D01*
X210813Y260250D01*
X210817Y260270D01*
X210815Y260290D01*
X210819Y260350D01*
X210819Y311150D01*
X210807Y311248D01*
X210804Y311347D01*
X210787Y311405D01*
X210779Y311466D01*
X210743Y311558D01*
X210715Y311653D01*
X210685Y311705D01*
X210662Y311761D01*
X210604Y311841D01*
X210554Y311927D01*
X210488Y312002D01*
X210476Y312019D01*
X210466Y312026D01*
X210448Y312048D01*
X182761Y339734D01*
X182738Y339752D01*
X182719Y339774D01*
X182612Y339849D01*
X182510Y339929D01*
X182483Y339941D01*
X182459Y339958D01*
X182337Y340004D01*
X182218Y340055D01*
X182189Y340060D01*
X182161Y340070D01*
X182032Y340085D01*
X181904Y340105D01*
X181874Y340102D01*
X181845Y340106D01*
X181717Y340087D01*
X181587Y340075D01*
X181559Y340065D01*
X181530Y340061D01*
X181378Y340009D01*
X179771Y339343D01*
X175829Y339343D01*
X172188Y340851D01*
X169401Y343638D01*
X167893Y347279D01*
X167893Y351221D01*
X168559Y352828D01*
X168567Y352856D01*
X168580Y352883D01*
X168609Y353010D01*
X168643Y353135D01*
X168643Y353164D01*
X168650Y353193D01*
X168646Y353323D01*
X168648Y353453D01*
X168641Y353481D01*
X168640Y353511D01*
X168604Y353636D01*
X168574Y353762D01*
X168560Y353788D01*
X168552Y353816D01*
X168486Y353928D01*
X168425Y354043D01*
X168405Y354065D01*
X168390Y354090D01*
X168284Y354211D01*
X109219Y413276D01*
X109219Y546100D01*
X109204Y546218D01*
X109197Y546337D01*
X109184Y546375D01*
X109179Y546416D01*
X109136Y546526D01*
X109099Y546639D01*
X109077Y546674D01*
X109062Y546711D01*
X108993Y546807D01*
X108929Y546908D01*
X108899Y546936D01*
X108876Y546969D01*
X108784Y547045D01*
X108697Y547126D01*
X108662Y547146D01*
X108631Y547171D01*
X108523Y547222D01*
X108419Y547280D01*
X108379Y547290D01*
X108343Y547307D01*
X108226Y547329D01*
X108111Y547359D01*
X108051Y547363D01*
X108031Y547367D01*
X108010Y547365D01*
X107950Y547369D01*
X12700Y547369D01*
X12582Y547354D01*
X12463Y547347D01*
X12425Y547334D01*
X12384Y547329D01*
X12274Y547286D01*
X12161Y547249D01*
X12126Y547227D01*
X12089Y547212D01*
X11993Y547143D01*
X11892Y547079D01*
X11864Y547049D01*
X11831Y547026D01*
X11756Y546934D01*
X11674Y546847D01*
X11654Y546812D01*
X11629Y546781D01*
X11578Y546673D01*
X11520Y546569D01*
X11510Y546529D01*
X11493Y546493D01*
X11471Y546376D01*
X11441Y546261D01*
X11437Y546201D01*
X11433Y546181D01*
X11435Y546160D01*
X11431Y546100D01*
X11431Y12700D01*
X11446Y12582D01*
X11453Y12463D01*
X11466Y12425D01*
X11471Y12384D01*
X11514Y12274D01*
X11551Y12161D01*
X11573Y12126D01*
X11588Y12089D01*
X11658Y11993D01*
X11721Y11892D01*
X11751Y11864D01*
X11774Y11831D01*
X11866Y11756D01*
X11953Y11674D01*
X11988Y11654D01*
X12019Y11629D01*
X12127Y11578D01*
X12231Y11520D01*
X12271Y11510D01*
X12307Y11493D01*
X12424Y11471D01*
X12539Y11441D01*
X12600Y11437D01*
X12620Y11433D01*
X12640Y11435D01*
X12700Y11431D01*
X533400Y11431D01*
X533518Y11446D01*
G37*
G36*
X330280Y220991D02*
X330280Y220991D01*
X330361Y220991D01*
X330438Y221011D01*
X330516Y221021D01*
X330591Y221050D01*
X330669Y221071D01*
X330738Y221109D01*
X330811Y221138D01*
X330877Y221185D01*
X330948Y221224D01*
X331065Y221322D01*
X331069Y221324D01*
X331069Y221326D01*
X331072Y221327D01*
X332412Y222594D01*
X332413Y222594D01*
X333756Y223863D01*
X333757Y223863D01*
X335100Y225132D01*
X336444Y226401D01*
X336444Y226402D01*
X339132Y228940D01*
X340476Y230209D01*
X341820Y231478D01*
X341820Y231479D01*
X343164Y232748D01*
X347195Y236555D01*
X347196Y236555D01*
X347196Y236556D01*
X348539Y237825D01*
X348540Y237825D01*
X349883Y239094D01*
X351227Y240363D01*
X353915Y242902D01*
X355259Y244171D01*
X356603Y245440D01*
X357947Y246709D01*
X357947Y246710D01*
X361978Y250517D01*
X361979Y250517D01*
X363322Y251786D01*
X363323Y251787D01*
X364666Y253056D01*
X366010Y254325D01*
X368698Y256863D01*
X368698Y256864D01*
X369447Y257571D01*
X369478Y257608D01*
X369514Y257639D01*
X369578Y257730D01*
X369649Y257817D01*
X369670Y257860D01*
X369697Y257899D01*
X369737Y258004D01*
X369784Y258105D01*
X369793Y258152D01*
X369810Y258196D01*
X369822Y258308D01*
X369843Y258417D01*
X369840Y258465D01*
X369845Y258512D01*
X369829Y258623D01*
X369822Y258735D01*
X369807Y258780D01*
X369801Y258827D01*
X369749Y258980D01*
X369597Y259345D01*
X369597Y261355D01*
X370366Y263212D01*
X371788Y264634D01*
X373645Y265403D01*
X375655Y265403D01*
X376345Y265117D01*
X376355Y265114D01*
X376365Y265109D01*
X376509Y265072D01*
X376651Y265033D01*
X376663Y265033D01*
X376674Y265030D01*
X376821Y265030D01*
X376969Y265028D01*
X376980Y265031D01*
X376992Y265031D01*
X377135Y265068D01*
X377279Y265102D01*
X377288Y265108D01*
X377300Y265110D01*
X377429Y265182D01*
X377560Y265251D01*
X377568Y265259D01*
X377578Y265264D01*
X377702Y265367D01*
X379449Y267017D01*
X379450Y267018D01*
X380793Y268287D01*
X382137Y269556D01*
X383481Y270825D01*
X387513Y274633D01*
X388857Y275902D01*
X390201Y277171D01*
X390201Y277172D01*
X391545Y278441D01*
X394232Y280979D01*
X394233Y280979D01*
X395576Y282248D01*
X395576Y282249D01*
X396920Y283518D01*
X398264Y284787D01*
X402296Y288595D01*
X403640Y289864D01*
X404984Y291133D01*
X406328Y292402D01*
X406328Y292403D01*
X409015Y294941D01*
X409016Y294941D01*
X410359Y296210D01*
X411703Y297479D01*
X411703Y297480D01*
X413047Y298749D01*
X417079Y302556D01*
X417079Y302557D01*
X418423Y303826D01*
X419767Y305095D01*
X421111Y306364D01*
X423798Y308903D01*
X423799Y308903D01*
X425142Y310172D01*
X425143Y310172D01*
X426486Y311441D01*
X427830Y312710D01*
X427830Y312711D01*
X431862Y316518D01*
X433206Y317787D01*
X433206Y317788D01*
X434550Y319057D01*
X435894Y320326D01*
X438581Y322864D01*
X438582Y322864D01*
X438582Y322865D01*
X439925Y324134D01*
X439926Y324134D01*
X441269Y325403D01*
X442613Y326672D01*
X445372Y329277D01*
X445446Y329368D01*
X445526Y329453D01*
X445547Y329490D01*
X445574Y329523D01*
X445623Y329629D01*
X445680Y329731D01*
X445690Y329772D01*
X445708Y329811D01*
X445730Y329926D01*
X445759Y330039D01*
X445763Y330103D01*
X445767Y330124D01*
X445766Y330143D01*
X445769Y330200D01*
X445769Y546100D01*
X445754Y546218D01*
X445747Y546337D01*
X445734Y546375D01*
X445729Y546416D01*
X445686Y546526D01*
X445649Y546639D01*
X445627Y546674D01*
X445612Y546711D01*
X445543Y546807D01*
X445479Y546908D01*
X445449Y546936D01*
X445426Y546969D01*
X445334Y547045D01*
X445247Y547126D01*
X445212Y547146D01*
X445181Y547171D01*
X445073Y547222D01*
X444969Y547280D01*
X444929Y547290D01*
X444893Y547307D01*
X444776Y547329D01*
X444661Y547359D01*
X444601Y547363D01*
X444581Y547367D01*
X444560Y547365D01*
X444500Y547369D01*
X114300Y547369D01*
X114182Y547354D01*
X114063Y547347D01*
X114025Y547334D01*
X113984Y547329D01*
X113874Y547286D01*
X113761Y547249D01*
X113726Y547227D01*
X113689Y547212D01*
X113593Y547143D01*
X113492Y547079D01*
X113464Y547049D01*
X113431Y547026D01*
X113356Y546934D01*
X113274Y546847D01*
X113254Y546812D01*
X113229Y546781D01*
X113178Y546673D01*
X113120Y546569D01*
X113110Y546529D01*
X113093Y546493D01*
X113071Y546376D01*
X113041Y546261D01*
X113037Y546201D01*
X113033Y546181D01*
X113035Y546160D01*
X113031Y546100D01*
X113031Y419100D01*
X113043Y419002D01*
X113046Y418903D01*
X113063Y418845D01*
X113071Y418784D01*
X113107Y418692D01*
X113135Y418597D01*
X113165Y418545D01*
X113188Y418489D01*
X113246Y418409D01*
X113296Y418323D01*
X113362Y418248D01*
X113374Y418231D01*
X113384Y418224D01*
X113403Y418203D01*
X172839Y358766D01*
X172862Y358748D01*
X172881Y358726D01*
X172987Y358651D01*
X173090Y358571D01*
X173117Y358559D01*
X173141Y358542D01*
X173263Y358496D01*
X173382Y358445D01*
X173411Y358440D01*
X173439Y358430D01*
X173568Y358415D01*
X173696Y358395D01*
X173726Y358398D01*
X173755Y358394D01*
X173883Y358413D01*
X174013Y358425D01*
X174041Y358435D01*
X174070Y358439D01*
X174222Y358491D01*
X175829Y359157D01*
X179771Y359157D01*
X183412Y357649D01*
X186199Y354862D01*
X187707Y351221D01*
X187707Y347279D01*
X187041Y345672D01*
X187033Y345644D01*
X187020Y345617D01*
X186991Y345491D01*
X186957Y345365D01*
X186957Y345336D01*
X186950Y345307D01*
X186954Y345177D01*
X186952Y345047D01*
X186959Y345019D01*
X186960Y344989D01*
X186996Y344865D01*
X187026Y344738D01*
X187040Y344712D01*
X187048Y344684D01*
X187114Y344572D01*
X187175Y344457D01*
X187195Y344435D01*
X187210Y344410D01*
X187316Y344289D01*
X214631Y316974D01*
X214631Y255269D01*
X190500Y255269D01*
X190382Y255254D01*
X190263Y255247D01*
X190225Y255234D01*
X190184Y255229D01*
X190074Y255186D01*
X189961Y255149D01*
X189926Y255127D01*
X189889Y255112D01*
X189793Y255043D01*
X189692Y254979D01*
X189664Y254949D01*
X189631Y254926D01*
X189556Y254834D01*
X189474Y254747D01*
X189454Y254712D01*
X189429Y254681D01*
X189378Y254573D01*
X189320Y254469D01*
X189310Y254429D01*
X189293Y254393D01*
X189271Y254276D01*
X189241Y254161D01*
X189237Y254101D01*
X189233Y254081D01*
X189234Y254066D01*
X189233Y254062D01*
X189234Y254051D01*
X189231Y254000D01*
X189231Y222250D01*
X189246Y222132D01*
X189253Y222013D01*
X189266Y221975D01*
X189271Y221934D01*
X189314Y221824D01*
X189351Y221711D01*
X189373Y221676D01*
X189388Y221639D01*
X189458Y221543D01*
X189521Y221442D01*
X189551Y221414D01*
X189574Y221381D01*
X189666Y221306D01*
X189753Y221224D01*
X189788Y221204D01*
X189819Y221179D01*
X189927Y221128D01*
X190031Y221070D01*
X190071Y221060D01*
X190107Y221043D01*
X190224Y221021D01*
X190339Y220991D01*
X190400Y220987D01*
X190420Y220983D01*
X190440Y220985D01*
X190500Y220981D01*
X330200Y220981D01*
X330280Y220991D01*
G37*
G36*
X292218Y87646D02*
X292218Y87646D01*
X292337Y87653D01*
X292375Y87666D01*
X292416Y87671D01*
X292526Y87714D01*
X292639Y87751D01*
X292674Y87773D01*
X292711Y87788D01*
X292807Y87858D01*
X292908Y87921D01*
X292936Y87951D01*
X292969Y87974D01*
X293045Y88066D01*
X293126Y88153D01*
X293146Y88188D01*
X293171Y88219D01*
X293222Y88327D01*
X293280Y88431D01*
X293290Y88471D01*
X293307Y88507D01*
X293329Y88624D01*
X293359Y88739D01*
X293363Y88800D01*
X293367Y88820D01*
X293365Y88840D01*
X293369Y88900D01*
X293369Y215900D01*
X293354Y216018D01*
X293347Y216137D01*
X293334Y216175D01*
X293329Y216216D01*
X293286Y216326D01*
X293249Y216439D01*
X293227Y216474D01*
X293212Y216511D01*
X293143Y216607D01*
X293079Y216708D01*
X293049Y216736D01*
X293026Y216769D01*
X292934Y216845D01*
X292847Y216926D01*
X292812Y216946D01*
X292781Y216971D01*
X292673Y217022D01*
X292569Y217080D01*
X292529Y217090D01*
X292493Y217107D01*
X292376Y217129D01*
X292261Y217159D01*
X292201Y217163D01*
X292181Y217167D01*
X292160Y217165D01*
X292100Y217169D01*
X276348Y217169D01*
X276210Y217152D01*
X276071Y217139D01*
X276052Y217132D01*
X276032Y217129D01*
X275903Y217078D01*
X275772Y217031D01*
X275755Y217020D01*
X275736Y217012D01*
X275624Y216931D01*
X275509Y216853D01*
X275495Y216837D01*
X275479Y216826D01*
X275390Y216718D01*
X275298Y216614D01*
X275289Y216596D01*
X275276Y216581D01*
X275217Y216455D01*
X275154Y216331D01*
X275149Y216311D01*
X275141Y216293D01*
X275115Y216157D01*
X275084Y216021D01*
X275085Y216000D01*
X275081Y215981D01*
X275090Y215842D01*
X275094Y215703D01*
X275099Y215683D01*
X275101Y215663D01*
X275143Y215531D01*
X275182Y215397D01*
X275192Y215380D01*
X275199Y215361D01*
X275273Y215243D01*
X275344Y215123D01*
X275362Y215102D01*
X275369Y215092D01*
X275384Y215078D01*
X275450Y215003D01*
X275723Y214730D01*
X277115Y211369D01*
X277115Y207731D01*
X275723Y204370D01*
X273150Y201797D01*
X269789Y200405D01*
X250911Y200405D01*
X247550Y201797D01*
X244977Y204370D01*
X243585Y207731D01*
X243585Y211369D01*
X244977Y214730D01*
X245250Y215003D01*
X245335Y215112D01*
X245424Y215219D01*
X245432Y215238D01*
X245445Y215254D01*
X245500Y215382D01*
X245559Y215507D01*
X245563Y215527D01*
X245571Y215546D01*
X245593Y215684D01*
X245619Y215820D01*
X245618Y215840D01*
X245621Y215860D01*
X245608Y215999D01*
X245599Y216137D01*
X245593Y216156D01*
X245591Y216176D01*
X245544Y216308D01*
X245501Y216439D01*
X245491Y216457D01*
X245484Y216476D01*
X245406Y216591D01*
X245331Y216708D01*
X245316Y216722D01*
X245305Y216739D01*
X245201Y216831D01*
X245100Y216926D01*
X245082Y216936D01*
X245067Y216949D01*
X244943Y217012D01*
X244821Y217080D01*
X244801Y217085D01*
X244783Y217094D01*
X244648Y217124D01*
X244513Y217159D01*
X244485Y217161D01*
X244473Y217164D01*
X244453Y217163D01*
X244352Y217169D01*
X185419Y217169D01*
X185419Y247650D01*
X185407Y247748D01*
X185404Y247847D01*
X185387Y247905D01*
X185379Y247966D01*
X185343Y248058D01*
X185315Y248153D01*
X185285Y248205D01*
X185262Y248261D01*
X185204Y248341D01*
X185154Y248427D01*
X185088Y248502D01*
X185076Y248519D01*
X185066Y248526D01*
X185048Y248548D01*
X146948Y286648D01*
X146869Y286708D01*
X146797Y286776D01*
X146744Y286805D01*
X146696Y286842D01*
X146605Y286882D01*
X146519Y286930D01*
X146460Y286945D01*
X146404Y286969D01*
X146306Y286984D01*
X146211Y287009D01*
X146111Y287015D01*
X146090Y287019D01*
X146078Y287017D01*
X146050Y287019D01*
X63500Y287019D01*
X63402Y287007D01*
X63303Y287004D01*
X63245Y286987D01*
X63184Y286979D01*
X63092Y286943D01*
X62997Y286915D01*
X62945Y286885D01*
X62889Y286862D01*
X62809Y286804D01*
X62723Y286754D01*
X62648Y286688D01*
X62631Y286676D01*
X62624Y286666D01*
X62603Y286648D01*
X56253Y280298D01*
X56192Y280219D01*
X56124Y280147D01*
X56095Y280094D01*
X56058Y280046D01*
X56018Y279955D01*
X55970Y279869D01*
X55955Y279810D01*
X55931Y279754D01*
X55916Y279656D01*
X55891Y279561D01*
X55885Y279461D01*
X55881Y279440D01*
X55883Y279428D01*
X55881Y279400D01*
X55881Y277999D01*
X55898Y277861D01*
X55903Y277781D01*
X55908Y277765D01*
X55914Y277709D01*
X55919Y277697D01*
X55921Y277683D01*
X55974Y277548D01*
X56025Y277411D01*
X56033Y277400D01*
X56038Y277387D01*
X56123Y277270D01*
X56206Y277150D01*
X56217Y277141D01*
X56224Y277130D01*
X56336Y277037D01*
X56447Y276942D01*
X56459Y276936D01*
X56469Y276927D01*
X56601Y276865D01*
X56732Y276800D01*
X56745Y276798D01*
X56757Y276792D01*
X56900Y276764D01*
X57043Y276734D01*
X57056Y276735D01*
X57070Y276732D01*
X57215Y276741D01*
X57361Y276747D01*
X57373Y276751D01*
X57387Y276752D01*
X57526Y276797D01*
X57665Y276839D01*
X57677Y276846D01*
X57689Y276850D01*
X57813Y276928D01*
X57937Y277003D01*
X57947Y277013D01*
X57958Y277020D01*
X58020Y277085D01*
X58030Y277093D01*
X58054Y277122D01*
X58058Y277126D01*
X58160Y277230D01*
X58170Y277245D01*
X58176Y277252D01*
X58184Y277267D01*
X58227Y277331D01*
X58233Y277338D01*
X58235Y277343D01*
X58249Y277364D01*
X58419Y277658D01*
X58892Y278131D01*
X59471Y278466D01*
X60118Y278639D01*
X67311Y278639D01*
X67311Y267970D01*
X67326Y267852D01*
X67333Y267733D01*
X67346Y267695D01*
X67351Y267655D01*
X67394Y267544D01*
X67431Y267431D01*
X67453Y267397D01*
X67468Y267359D01*
X67538Y267263D01*
X67601Y267162D01*
X67631Y267134D01*
X67654Y267102D01*
X67746Y267026D01*
X67833Y266944D01*
X67868Y266925D01*
X67899Y266899D01*
X68007Y266848D01*
X68111Y266791D01*
X68151Y266780D01*
X68187Y266763D01*
X68304Y266741D01*
X68419Y266711D01*
X68480Y266707D01*
X68500Y266703D01*
X68520Y266705D01*
X68580Y266701D01*
X69851Y266701D01*
X69851Y266699D01*
X68580Y266699D01*
X68462Y266684D01*
X68343Y266677D01*
X68305Y266664D01*
X68264Y266659D01*
X68154Y266615D01*
X68041Y266579D01*
X68006Y266557D01*
X67969Y266542D01*
X67873Y266472D01*
X67772Y266409D01*
X67744Y266379D01*
X67711Y266355D01*
X67636Y266264D01*
X67554Y266177D01*
X67534Y266142D01*
X67509Y266110D01*
X67458Y266003D01*
X67400Y265898D01*
X67390Y265859D01*
X67373Y265823D01*
X67351Y265706D01*
X67321Y265591D01*
X67317Y265530D01*
X67313Y265510D01*
X67315Y265490D01*
X67311Y265430D01*
X67311Y254761D01*
X60579Y254761D01*
X60485Y254749D01*
X60391Y254747D01*
X60328Y254730D01*
X60263Y254721D01*
X60176Y254687D01*
X60085Y254661D01*
X60028Y254628D01*
X59968Y254604D01*
X59891Y254549D01*
X59809Y254501D01*
X59763Y254456D01*
X59710Y254418D01*
X59650Y254345D01*
X59583Y254278D01*
X59549Y254223D01*
X59508Y254173D01*
X59467Y254087D01*
X59418Y254006D01*
X59400Y253944D01*
X59372Y253885D01*
X59354Y253792D01*
X59327Y253701D01*
X59325Y253636D01*
X59312Y253573D01*
X59318Y253478D01*
X59314Y253384D01*
X59328Y253320D01*
X59332Y253255D01*
X59361Y253165D01*
X59381Y253073D01*
X59424Y252970D01*
X59430Y252953D01*
X59435Y252944D01*
X59444Y252924D01*
X60851Y250110D01*
X60853Y250107D01*
X60855Y250102D01*
X60942Y249974D01*
X61027Y249846D01*
X61031Y249843D01*
X61033Y249839D01*
X61148Y249738D01*
X61264Y249634D01*
X61268Y249632D01*
X61272Y249629D01*
X61408Y249559D01*
X61547Y249487D01*
X61551Y249486D01*
X61555Y249484D01*
X61704Y249451D01*
X61856Y249415D01*
X61861Y249415D01*
X61865Y249415D01*
X62021Y249419D01*
X62174Y249423D01*
X62179Y249424D01*
X62183Y249424D01*
X62333Y249468D01*
X62480Y249509D01*
X62484Y249511D01*
X62489Y249513D01*
X62623Y249591D01*
X62756Y249669D01*
X62759Y249672D01*
X62763Y249674D01*
X62883Y249781D01*
X63663Y250560D01*
X67677Y252223D01*
X72023Y252223D01*
X76037Y250560D01*
X79110Y247487D01*
X80773Y243473D01*
X80773Y239127D01*
X79244Y235436D01*
X79230Y235388D01*
X79209Y235343D01*
X79189Y235235D01*
X79160Y235129D01*
X79159Y235079D01*
X79150Y235031D01*
X79156Y234921D01*
X79155Y234811D01*
X79166Y234763D01*
X79169Y234713D01*
X79203Y234609D01*
X79229Y234502D01*
X79252Y234458D01*
X79267Y234411D01*
X79326Y234318D01*
X79377Y234221D01*
X79411Y234184D01*
X79437Y234142D01*
X79518Y234067D01*
X79591Y233985D01*
X79633Y233958D01*
X79669Y233924D01*
X79765Y233871D01*
X79857Y233811D01*
X79904Y233794D01*
X79948Y233770D01*
X80054Y233743D01*
X80158Y233707D01*
X80207Y233703D01*
X80256Y233691D01*
X80416Y233681D01*
X107527Y233681D01*
X132081Y215265D01*
X132081Y88900D01*
X132096Y88782D01*
X132103Y88663D01*
X132116Y88625D01*
X132121Y88584D01*
X132164Y88474D01*
X132201Y88361D01*
X132223Y88326D01*
X132238Y88289D01*
X132308Y88193D01*
X132371Y88092D01*
X132401Y88064D01*
X132424Y88031D01*
X132516Y87956D01*
X132603Y87874D01*
X132638Y87854D01*
X132669Y87829D01*
X132777Y87778D01*
X132881Y87720D01*
X132921Y87710D01*
X132957Y87693D01*
X133074Y87671D01*
X133189Y87641D01*
X133250Y87637D01*
X133270Y87633D01*
X133290Y87635D01*
X133350Y87631D01*
X292100Y87631D01*
X292218Y87646D01*
G37*
%LPC*%
G36*
X400855Y430275D02*
X400855Y430275D01*
X394007Y432110D01*
X387868Y435655D01*
X382855Y440668D01*
X379310Y446807D01*
X377475Y453655D01*
X377475Y460745D01*
X379310Y467593D01*
X382855Y473732D01*
X387868Y478745D01*
X394007Y482290D01*
X400855Y484125D01*
X407945Y484125D01*
X414793Y482290D01*
X420932Y478745D01*
X425945Y473732D01*
X429490Y467593D01*
X431325Y460745D01*
X431325Y453655D01*
X429490Y446807D01*
X425945Y440668D01*
X420932Y435655D01*
X414793Y432110D01*
X407945Y430275D01*
X400855Y430275D01*
G37*
%LPD*%
%LPC*%
G36*
X150855Y430275D02*
X150855Y430275D01*
X144007Y432110D01*
X137868Y435655D01*
X132855Y440668D01*
X129310Y446807D01*
X127475Y453655D01*
X127475Y460745D01*
X129310Y467593D01*
X132855Y473732D01*
X137868Y478745D01*
X144007Y482290D01*
X150855Y484125D01*
X157945Y484125D01*
X164793Y482290D01*
X170932Y478745D01*
X175945Y473732D01*
X179490Y467593D01*
X181325Y460745D01*
X181325Y453655D01*
X179490Y446807D01*
X175945Y440668D01*
X170932Y435655D01*
X164793Y432110D01*
X157945Y430275D01*
X150855Y430275D01*
G37*
%LPD*%
%LPC*%
G36*
X329195Y61622D02*
X329195Y61622D01*
X327338Y62391D01*
X325916Y63813D01*
X325147Y65670D01*
X325147Y67306D01*
X325130Y67443D01*
X325128Y67459D01*
X325125Y67515D01*
X325122Y67522D01*
X325117Y67582D01*
X325110Y67601D01*
X325107Y67621D01*
X325056Y67750D01*
X325009Y67881D01*
X324998Y67898D01*
X324990Y67917D01*
X324909Y68029D01*
X324831Y68145D01*
X324815Y68158D01*
X324804Y68174D01*
X324696Y68263D01*
X324592Y68355D01*
X324574Y68364D01*
X324559Y68377D01*
X324433Y68436D01*
X324309Y68500D01*
X324289Y68504D01*
X324271Y68513D01*
X324135Y68539D01*
X323999Y68569D01*
X323978Y68569D01*
X323959Y68572D01*
X323820Y68564D01*
X323681Y68560D01*
X323661Y68554D01*
X323641Y68553D01*
X323509Y68510D01*
X323375Y68471D01*
X323358Y68461D01*
X323339Y68455D01*
X323221Y68380D01*
X323101Y68310D01*
X323080Y68291D01*
X323070Y68284D01*
X323056Y68270D01*
X322980Y68203D01*
X322825Y68048D01*
X322765Y67970D01*
X322697Y67898D01*
X322668Y67845D01*
X322630Y67797D01*
X322591Y67706D01*
X322543Y67619D01*
X322528Y67561D01*
X322504Y67505D01*
X322489Y67407D01*
X322464Y67311D01*
X322458Y67211D01*
X322454Y67191D01*
X322456Y67179D01*
X322454Y67151D01*
X322454Y65690D01*
X321700Y63869D01*
X320306Y62475D01*
X318485Y61721D01*
X316515Y61721D01*
X314694Y62475D01*
X313300Y63869D01*
X312546Y65690D01*
X312546Y67660D01*
X313300Y69481D01*
X314694Y70875D01*
X316515Y71629D01*
X317976Y71629D01*
X318074Y71641D01*
X318173Y71644D01*
X318231Y71661D01*
X318291Y71669D01*
X318383Y71705D01*
X318478Y71733D01*
X318531Y71763D01*
X318587Y71786D01*
X318667Y71844D01*
X318752Y71894D01*
X318828Y71960D01*
X318844Y71972D01*
X318852Y71982D01*
X318873Y72000D01*
X335392Y88520D01*
X464058Y88520D01*
X464176Y88535D01*
X464295Y88542D01*
X464333Y88555D01*
X464374Y88560D01*
X464484Y88603D01*
X464597Y88640D01*
X464632Y88662D01*
X464669Y88677D01*
X464765Y88746D01*
X464866Y88810D01*
X464894Y88840D01*
X464927Y88863D01*
X465003Y88955D01*
X465084Y89042D01*
X465104Y89077D01*
X465129Y89108D01*
X465180Y89216D01*
X465238Y89320D01*
X465248Y89360D01*
X465265Y89396D01*
X465287Y89513D01*
X465317Y89628D01*
X465321Y89688D01*
X465325Y89708D01*
X465323Y89729D01*
X465327Y89789D01*
X465327Y91073D01*
X466990Y95087D01*
X470063Y98160D01*
X474077Y99823D01*
X478423Y99823D01*
X482437Y98160D01*
X485510Y95087D01*
X487173Y91073D01*
X487173Y86727D01*
X485510Y82713D01*
X482437Y79640D01*
X478423Y77977D01*
X474077Y77977D01*
X470063Y79640D01*
X467144Y82559D01*
X467066Y82619D01*
X466994Y82687D01*
X466941Y82716D01*
X466893Y82753D01*
X466802Y82793D01*
X466716Y82841D01*
X466657Y82856D01*
X466601Y82880D01*
X466503Y82895D01*
X466408Y82920D01*
X466308Y82926D01*
X466287Y82930D01*
X466275Y82928D01*
X466247Y82930D01*
X338233Y82930D01*
X338135Y82918D01*
X338036Y82915D01*
X337978Y82898D01*
X337918Y82890D01*
X337826Y82854D01*
X337731Y82826D01*
X337678Y82796D01*
X337622Y82773D01*
X337542Y82715D01*
X337457Y82665D01*
X337381Y82598D01*
X337365Y82587D01*
X337357Y82577D01*
X337336Y82559D01*
X328672Y73894D01*
X328587Y73785D01*
X328498Y73678D01*
X328489Y73659D01*
X328477Y73643D01*
X328421Y73515D01*
X328362Y73390D01*
X328359Y73370D01*
X328351Y73351D01*
X328329Y73213D01*
X328303Y73077D01*
X328304Y73057D01*
X328301Y73037D01*
X328314Y72898D01*
X328322Y72760D01*
X328329Y72741D01*
X328330Y72721D01*
X328378Y72589D01*
X328420Y72458D01*
X328431Y72440D01*
X328438Y72421D01*
X328516Y72306D01*
X328591Y72189D01*
X328605Y72175D01*
X328617Y72158D01*
X328721Y72066D01*
X328822Y71971D01*
X328840Y71961D01*
X328855Y71948D01*
X328979Y71884D01*
X329101Y71817D01*
X329120Y71812D01*
X329138Y71803D01*
X329274Y71773D01*
X329409Y71738D01*
X329437Y71736D01*
X329449Y71733D01*
X329469Y71734D01*
X329569Y71728D01*
X331205Y71728D01*
X333062Y70959D01*
X334484Y69537D01*
X335253Y67680D01*
X335253Y65670D01*
X334484Y63813D01*
X333062Y62391D01*
X331205Y61622D01*
X329195Y61622D01*
G37*
%LPD*%
%LPC*%
G36*
X416059Y40189D02*
X416059Y40189D01*
X408778Y43205D01*
X403205Y48778D01*
X402445Y50615D01*
X402410Y50675D01*
X402384Y50740D01*
X402332Y50813D01*
X402287Y50891D01*
X402239Y50941D01*
X402198Y50997D01*
X402128Y51055D01*
X402066Y51119D01*
X402006Y51156D01*
X401953Y51200D01*
X401871Y51239D01*
X401795Y51285D01*
X401728Y51306D01*
X401665Y51336D01*
X401577Y51353D01*
X401491Y51379D01*
X401421Y51382D01*
X401352Y51396D01*
X401263Y51390D01*
X401173Y51394D01*
X401105Y51380D01*
X401035Y51376D01*
X400950Y51348D01*
X400862Y51330D01*
X400799Y51299D01*
X400733Y51278D01*
X400657Y51230D01*
X400576Y51190D01*
X400523Y51145D01*
X400464Y51108D01*
X400402Y51042D01*
X400334Y50984D01*
X400294Y50927D01*
X400246Y50876D01*
X400203Y50797D01*
X400151Y50724D01*
X400126Y50658D01*
X400092Y50597D01*
X400070Y50511D01*
X400038Y50426D01*
X400030Y50357D01*
X400013Y50290D01*
X400003Y50129D01*
X400003Y49546D01*
X399043Y47230D01*
X397270Y45457D01*
X394954Y44497D01*
X392446Y44497D01*
X390130Y45457D01*
X388357Y47230D01*
X387397Y49546D01*
X387397Y52054D01*
X388357Y54370D01*
X390130Y56143D01*
X392446Y57103D01*
X394954Y57103D01*
X397270Y56143D01*
X398023Y55391D01*
X398132Y55306D01*
X398239Y55217D01*
X398258Y55208D01*
X398274Y55196D01*
X398402Y55141D01*
X398527Y55081D01*
X398547Y55078D01*
X398566Y55070D01*
X398704Y55048D01*
X398840Y55022D01*
X398860Y55023D01*
X398880Y55020D01*
X399019Y55033D01*
X399157Y55041D01*
X399176Y55048D01*
X399196Y55050D01*
X399328Y55097D01*
X399459Y55139D01*
X399477Y55150D01*
X399496Y55157D01*
X399611Y55235D01*
X399728Y55310D01*
X399742Y55324D01*
X399759Y55336D01*
X399851Y55440D01*
X399946Y55541D01*
X399956Y55559D01*
X399969Y55574D01*
X400032Y55698D01*
X400100Y55820D01*
X400105Y55839D01*
X400114Y55857D01*
X400144Y55993D01*
X400179Y56128D01*
X400181Y56156D01*
X400184Y56168D01*
X400183Y56188D01*
X400189Y56288D01*
X400189Y63941D01*
X403205Y71222D01*
X408778Y76795D01*
X416059Y79811D01*
X423941Y79811D01*
X431222Y76795D01*
X436795Y71222D01*
X439811Y63941D01*
X439811Y56059D01*
X436795Y48778D01*
X431222Y43205D01*
X423941Y40189D01*
X416059Y40189D01*
G37*
%LPD*%
%LPC*%
G36*
X476059Y480189D02*
X476059Y480189D01*
X468778Y483205D01*
X463205Y488778D01*
X460189Y496059D01*
X460189Y503941D01*
X463205Y511222D01*
X468778Y516795D01*
X476059Y519811D01*
X483941Y519811D01*
X491222Y516795D01*
X496795Y511222D01*
X499811Y503941D01*
X499811Y496059D01*
X496795Y488778D01*
X491222Y483205D01*
X483941Y480189D01*
X476059Y480189D01*
G37*
%LPD*%
%LPC*%
G36*
X56059Y480189D02*
X56059Y480189D01*
X48778Y483205D01*
X43205Y488778D01*
X40189Y496059D01*
X40189Y503941D01*
X43205Y511222D01*
X48778Y516795D01*
X56059Y519811D01*
X63941Y519811D01*
X71222Y516795D01*
X76795Y511222D01*
X79811Y503941D01*
X79811Y496059D01*
X76795Y488778D01*
X71222Y483205D01*
X63941Y480189D01*
X56059Y480189D01*
G37*
%LPD*%
%LPC*%
G36*
X56059Y400189D02*
X56059Y400189D01*
X48778Y403205D01*
X43205Y408778D01*
X40189Y416059D01*
X40189Y423941D01*
X43205Y431222D01*
X48778Y436795D01*
X56059Y439811D01*
X63941Y439811D01*
X71222Y436795D01*
X76795Y431222D01*
X79811Y423941D01*
X79811Y416059D01*
X76795Y408778D01*
X71222Y403205D01*
X63941Y400189D01*
X56059Y400189D01*
G37*
%LPD*%
%LPC*%
G36*
X476059Y400189D02*
X476059Y400189D01*
X468778Y403205D01*
X463205Y408778D01*
X460189Y416059D01*
X460189Y423941D01*
X463205Y431222D01*
X468778Y436795D01*
X476059Y439811D01*
X483941Y439811D01*
X491222Y436795D01*
X496795Y431222D01*
X499811Y423941D01*
X499811Y416059D01*
X496795Y408778D01*
X491222Y403205D01*
X483941Y400189D01*
X476059Y400189D01*
G37*
%LPD*%
%LPC*%
G36*
X256059Y40189D02*
X256059Y40189D01*
X248778Y43205D01*
X243205Y48778D01*
X240189Y56059D01*
X240189Y63941D01*
X243205Y71222D01*
X248778Y76795D01*
X256059Y79811D01*
X263941Y79811D01*
X271222Y76795D01*
X276795Y71222D01*
X279811Y63941D01*
X279811Y56059D01*
X276795Y48778D01*
X271222Y43205D01*
X263941Y40189D01*
X256059Y40189D01*
G37*
%LPD*%
%LPC*%
G36*
X116059Y40189D02*
X116059Y40189D01*
X108778Y43205D01*
X103205Y48778D01*
X100189Y56059D01*
X100189Y63941D01*
X103205Y71222D01*
X108778Y76795D01*
X116059Y79811D01*
X123941Y79811D01*
X131222Y76795D01*
X136795Y71222D01*
X139811Y63941D01*
X139811Y56059D01*
X136795Y48778D01*
X131222Y43205D01*
X123941Y40189D01*
X116059Y40189D01*
G37*
%LPD*%
%LPC*%
G36*
X466220Y255777D02*
X466220Y255777D01*
X465327Y256670D01*
X465327Y276730D01*
X466220Y277623D01*
X486280Y277623D01*
X487173Y276730D01*
X487173Y256670D01*
X486280Y255777D01*
X466220Y255777D01*
G37*
%LPD*%
%LPC*%
G36*
X491620Y255777D02*
X491620Y255777D01*
X490727Y256670D01*
X490727Y276730D01*
X491620Y277623D01*
X511680Y277623D01*
X512573Y276730D01*
X512573Y256670D01*
X511680Y255777D01*
X491620Y255777D01*
G37*
%LPD*%
%LPC*%
G36*
X213970Y432077D02*
X213970Y432077D01*
X213077Y432970D01*
X213077Y453030D01*
X213970Y453923D01*
X234030Y453923D01*
X234923Y453030D01*
X234923Y432970D01*
X234030Y432077D01*
X213970Y432077D01*
G37*
%LPD*%
%LPC*%
G36*
X474077Y154177D02*
X474077Y154177D01*
X470063Y155840D01*
X466990Y158913D01*
X465327Y162927D01*
X465327Y167273D01*
X466990Y171287D01*
X470063Y174360D01*
X474077Y176023D01*
X478423Y176023D01*
X482437Y174360D01*
X485510Y171287D01*
X487173Y167273D01*
X487173Y162927D01*
X485510Y158913D01*
X482437Y155840D01*
X478423Y154177D01*
X474077Y154177D01*
G37*
%LPD*%
%LPC*%
G36*
X499477Y154177D02*
X499477Y154177D01*
X495463Y155840D01*
X492390Y158913D01*
X490727Y162927D01*
X490727Y167273D01*
X492390Y171287D01*
X495463Y174360D01*
X499477Y176023D01*
X503823Y176023D01*
X507837Y174360D01*
X510910Y171287D01*
X512573Y167273D01*
X512573Y162927D01*
X510910Y158913D01*
X507837Y155840D01*
X503823Y154177D01*
X499477Y154177D01*
G37*
%LPD*%
%LPC*%
G36*
X235727Y460477D02*
X235727Y460477D01*
X231713Y462140D01*
X228640Y465213D01*
X226977Y469227D01*
X226977Y473573D01*
X228640Y477587D01*
X231713Y480660D01*
X235727Y482323D01*
X240073Y482323D01*
X244087Y480660D01*
X247160Y477587D01*
X248823Y473573D01*
X248823Y469227D01*
X247160Y465213D01*
X244087Y462140D01*
X240073Y460477D01*
X235727Y460477D01*
G37*
%LPD*%
%LPC*%
G36*
X263427Y460477D02*
X263427Y460477D01*
X259413Y462140D01*
X256340Y465213D01*
X254677Y469227D01*
X254677Y473573D01*
X256340Y477587D01*
X259413Y480660D01*
X263427Y482323D01*
X267773Y482323D01*
X271787Y480660D01*
X274860Y477587D01*
X276523Y473573D01*
X276523Y469227D01*
X274860Y465213D01*
X271787Y462140D01*
X267773Y460477D01*
X263427Y460477D01*
G37*
%LPD*%
%LPC*%
G36*
X291027Y460477D02*
X291027Y460477D01*
X287013Y462140D01*
X283940Y465213D01*
X282277Y469227D01*
X282277Y473573D01*
X283940Y477587D01*
X287013Y480660D01*
X291027Y482323D01*
X295373Y482323D01*
X299387Y480660D01*
X302460Y477587D01*
X304123Y473573D01*
X304123Y469227D01*
X302460Y465213D01*
X299387Y462140D01*
X295373Y460477D01*
X291027Y460477D01*
G37*
%LPD*%
%LPC*%
G36*
X42277Y52577D02*
X42277Y52577D01*
X38263Y54240D01*
X35190Y57313D01*
X33527Y61327D01*
X33527Y65673D01*
X35190Y69687D01*
X38263Y72760D01*
X42277Y74423D01*
X46623Y74423D01*
X50637Y72760D01*
X53710Y69687D01*
X55373Y65673D01*
X55373Y61327D01*
X53710Y57313D01*
X50637Y54240D01*
X46623Y52577D01*
X42277Y52577D01*
G37*
%LPD*%
%LPC*%
G36*
X67677Y154177D02*
X67677Y154177D01*
X63663Y155840D01*
X60590Y158913D01*
X58927Y162927D01*
X58927Y167273D01*
X60590Y171287D01*
X63663Y174360D01*
X67677Y176023D01*
X72023Y176023D01*
X76037Y174360D01*
X79110Y171287D01*
X80773Y167273D01*
X80773Y162927D01*
X79110Y158913D01*
X76037Y155840D01*
X72023Y154177D01*
X67677Y154177D01*
G37*
%LPD*%
%LPC*%
G36*
X499477Y27177D02*
X499477Y27177D01*
X495463Y28840D01*
X492390Y31913D01*
X490727Y35927D01*
X490727Y40273D01*
X492390Y44287D01*
X495463Y47360D01*
X499477Y49023D01*
X503823Y49023D01*
X507837Y47360D01*
X510910Y44287D01*
X512573Y40273D01*
X512573Y35927D01*
X510910Y31913D01*
X507837Y28840D01*
X503823Y27177D01*
X499477Y27177D01*
G37*
%LPD*%
%LPC*%
G36*
X249527Y432077D02*
X249527Y432077D01*
X245513Y433740D01*
X242440Y436813D01*
X240777Y440827D01*
X240777Y445173D01*
X242440Y449187D01*
X245513Y452260D01*
X249527Y453923D01*
X253873Y453923D01*
X257887Y452260D01*
X260960Y449187D01*
X262623Y445173D01*
X262623Y440827D01*
X260960Y436813D01*
X257887Y433740D01*
X253873Y432077D01*
X249527Y432077D01*
G37*
%LPD*%
%LPC*%
G36*
X304927Y432077D02*
X304927Y432077D01*
X300913Y433740D01*
X297840Y436813D01*
X296177Y440827D01*
X296177Y445173D01*
X297840Y449187D01*
X300913Y452260D01*
X304927Y453923D01*
X309273Y453923D01*
X313287Y452260D01*
X316360Y449187D01*
X318023Y445173D01*
X318023Y440827D01*
X316360Y436813D01*
X313287Y433740D01*
X309273Y432077D01*
X304927Y432077D01*
G37*
%LPD*%
%LPC*%
G36*
X277227Y432077D02*
X277227Y432077D01*
X273213Y433740D01*
X270140Y436813D01*
X268477Y440827D01*
X268477Y445173D01*
X270140Y449187D01*
X273213Y452260D01*
X277227Y453923D01*
X281573Y453923D01*
X285587Y452260D01*
X288660Y449187D01*
X290323Y445173D01*
X290323Y440827D01*
X288660Y436813D01*
X285587Y433740D01*
X281573Y432077D01*
X277227Y432077D01*
G37*
%LPD*%
%LPC*%
G36*
X332627Y432077D02*
X332627Y432077D01*
X328613Y433740D01*
X325540Y436813D01*
X323877Y440827D01*
X323877Y445173D01*
X325540Y449187D01*
X328613Y452260D01*
X332627Y453923D01*
X336973Y453923D01*
X340987Y452260D01*
X344060Y449187D01*
X345723Y445173D01*
X345723Y440827D01*
X344060Y436813D01*
X340987Y433740D01*
X336973Y432077D01*
X332627Y432077D01*
G37*
%LPD*%
%LPC*%
G36*
X474077Y27177D02*
X474077Y27177D01*
X470063Y28840D01*
X466990Y31913D01*
X465327Y35927D01*
X465327Y40273D01*
X466990Y44287D01*
X470063Y47360D01*
X474077Y49023D01*
X478423Y49023D01*
X482437Y47360D01*
X485510Y44287D01*
X487173Y40273D01*
X487173Y35927D01*
X485510Y31913D01*
X482437Y28840D01*
X478423Y27177D01*
X474077Y27177D01*
G37*
%LPD*%
%LPC*%
G36*
X67677Y27177D02*
X67677Y27177D01*
X63663Y28840D01*
X60590Y31913D01*
X58927Y35927D01*
X58927Y40273D01*
X60590Y44287D01*
X63663Y47360D01*
X67677Y49023D01*
X72023Y49023D01*
X76037Y47360D01*
X79110Y44287D01*
X80773Y40273D01*
X80773Y35927D01*
X79110Y31913D01*
X76037Y28840D01*
X72023Y27177D01*
X67677Y27177D01*
G37*
%LPD*%
%LPC*%
G36*
X42277Y27177D02*
X42277Y27177D01*
X38263Y28840D01*
X35190Y31913D01*
X33527Y35927D01*
X33527Y40273D01*
X35190Y44287D01*
X38263Y47360D01*
X42277Y49023D01*
X46623Y49023D01*
X50637Y47360D01*
X53710Y44287D01*
X55373Y40273D01*
X55373Y35927D01*
X53710Y31913D01*
X50637Y28840D01*
X46623Y27177D01*
X42277Y27177D01*
G37*
%LPD*%
%LPC*%
G36*
X42277Y179577D02*
X42277Y179577D01*
X38263Y181240D01*
X35190Y184313D01*
X33527Y188327D01*
X33527Y192673D01*
X35190Y196687D01*
X38263Y199760D01*
X42277Y201423D01*
X46623Y201423D01*
X50637Y199760D01*
X53710Y196687D01*
X55373Y192673D01*
X55373Y188327D01*
X53710Y184313D01*
X50637Y181240D01*
X46623Y179577D01*
X42277Y179577D01*
G37*
%LPD*%
%LPC*%
G36*
X67677Y179577D02*
X67677Y179577D01*
X63663Y181240D01*
X60590Y184313D01*
X58927Y188327D01*
X58927Y192673D01*
X60590Y196687D01*
X63663Y199760D01*
X67677Y201423D01*
X72023Y201423D01*
X76037Y199760D01*
X79110Y196687D01*
X80773Y192673D01*
X80773Y188327D01*
X79110Y184313D01*
X76037Y181240D01*
X72023Y179577D01*
X67677Y179577D01*
G37*
%LPD*%
%LPC*%
G36*
X499477Y179577D02*
X499477Y179577D01*
X495463Y181240D01*
X492390Y184313D01*
X490727Y188327D01*
X490727Y192673D01*
X492390Y196687D01*
X495463Y199760D01*
X499477Y201423D01*
X503823Y201423D01*
X507837Y199760D01*
X510910Y196687D01*
X512573Y192673D01*
X512573Y188327D01*
X510910Y184313D01*
X507837Y181240D01*
X503823Y179577D01*
X499477Y179577D01*
G37*
%LPD*%
%LPC*%
G36*
X42277Y204977D02*
X42277Y204977D01*
X38263Y206640D01*
X35190Y209713D01*
X33527Y213727D01*
X33527Y218073D01*
X35190Y222087D01*
X38263Y225160D01*
X42277Y226823D01*
X46623Y226823D01*
X50637Y225160D01*
X53710Y222087D01*
X55373Y218073D01*
X55373Y213727D01*
X53710Y209713D01*
X50637Y206640D01*
X46623Y204977D01*
X42277Y204977D01*
G37*
%LPD*%
%LPC*%
G36*
X474077Y179577D02*
X474077Y179577D01*
X470063Y181240D01*
X466990Y184313D01*
X465327Y188327D01*
X465327Y192673D01*
X466990Y196687D01*
X470063Y199760D01*
X474077Y201423D01*
X478423Y201423D01*
X482437Y199760D01*
X485510Y196687D01*
X487173Y192673D01*
X487173Y188327D01*
X485510Y184313D01*
X482437Y181240D01*
X478423Y179577D01*
X474077Y179577D01*
G37*
%LPD*%
%LPC*%
G36*
X499477Y204977D02*
X499477Y204977D01*
X495463Y206640D01*
X492390Y209713D01*
X490727Y213727D01*
X490727Y218073D01*
X492390Y222087D01*
X495463Y225160D01*
X499477Y226823D01*
X503823Y226823D01*
X507837Y225160D01*
X510910Y222087D01*
X512573Y218073D01*
X512573Y213727D01*
X510910Y209713D01*
X507837Y206640D01*
X503823Y204977D01*
X499477Y204977D01*
G37*
%LPD*%
%LPC*%
G36*
X474077Y204977D02*
X474077Y204977D01*
X470063Y206640D01*
X466990Y209713D01*
X465327Y213727D01*
X465327Y218073D01*
X466990Y222087D01*
X470063Y225160D01*
X474077Y226823D01*
X478423Y226823D01*
X482437Y225160D01*
X485510Y222087D01*
X487173Y218073D01*
X487173Y213727D01*
X485510Y209713D01*
X482437Y206640D01*
X478423Y204977D01*
X474077Y204977D01*
G37*
%LPD*%
%LPC*%
G36*
X474077Y230377D02*
X474077Y230377D01*
X470063Y232040D01*
X466990Y235113D01*
X465327Y239127D01*
X465327Y243473D01*
X466990Y247487D01*
X470063Y250560D01*
X474077Y252223D01*
X478423Y252223D01*
X482437Y250560D01*
X485510Y247487D01*
X487173Y243473D01*
X487173Y239127D01*
X485510Y235113D01*
X482437Y232040D01*
X478423Y230377D01*
X474077Y230377D01*
G37*
%LPD*%
%LPC*%
G36*
X499477Y230377D02*
X499477Y230377D01*
X495463Y232040D01*
X492390Y235113D01*
X490727Y239127D01*
X490727Y243473D01*
X492390Y247487D01*
X495463Y250560D01*
X499477Y252223D01*
X503823Y252223D01*
X507837Y250560D01*
X510910Y247487D01*
X512573Y243473D01*
X512573Y239127D01*
X510910Y235113D01*
X507837Y232040D01*
X503823Y230377D01*
X499477Y230377D01*
G37*
%LPD*%
%LPC*%
G36*
X67677Y204977D02*
X67677Y204977D01*
X63663Y206640D01*
X60590Y209713D01*
X58927Y213727D01*
X58927Y218073D01*
X60590Y222087D01*
X63663Y225160D01*
X67677Y226823D01*
X72023Y226823D01*
X76037Y225160D01*
X79110Y222087D01*
X80773Y218073D01*
X80773Y213727D01*
X79110Y209713D01*
X76037Y206640D01*
X72023Y204977D01*
X67677Y204977D01*
G37*
%LPD*%
%LPC*%
G36*
X42277Y154177D02*
X42277Y154177D01*
X38263Y155840D01*
X35190Y158913D01*
X33527Y162927D01*
X33527Y167273D01*
X35190Y171287D01*
X38263Y174360D01*
X42277Y176023D01*
X46623Y176023D01*
X50637Y174360D01*
X53710Y171287D01*
X55373Y167273D01*
X55373Y162927D01*
X53710Y158913D01*
X50637Y155840D01*
X46623Y154177D01*
X42277Y154177D01*
G37*
%LPD*%
%LPC*%
G36*
X42277Y128777D02*
X42277Y128777D01*
X38263Y130440D01*
X35190Y133513D01*
X33527Y137527D01*
X33527Y141873D01*
X35190Y145887D01*
X38263Y148960D01*
X42277Y150623D01*
X46623Y150623D01*
X50637Y148960D01*
X53710Y145887D01*
X55373Y141873D01*
X55373Y137527D01*
X53710Y133513D01*
X50637Y130440D01*
X46623Y128777D01*
X42277Y128777D01*
G37*
%LPD*%
%LPC*%
G36*
X499477Y128777D02*
X499477Y128777D01*
X495463Y130440D01*
X492390Y133513D01*
X490727Y137527D01*
X490727Y141873D01*
X492390Y145887D01*
X495463Y148960D01*
X499477Y150623D01*
X503823Y150623D01*
X507837Y148960D01*
X510910Y145887D01*
X512573Y141873D01*
X512573Y137527D01*
X510910Y133513D01*
X507837Y130440D01*
X503823Y128777D01*
X499477Y128777D01*
G37*
%LPD*%
%LPC*%
G36*
X474077Y128777D02*
X474077Y128777D01*
X470063Y130440D01*
X466990Y133513D01*
X465327Y137527D01*
X465327Y141873D01*
X466990Y145887D01*
X470063Y148960D01*
X474077Y150623D01*
X478423Y150623D01*
X482437Y148960D01*
X485510Y145887D01*
X487173Y141873D01*
X487173Y137527D01*
X485510Y133513D01*
X482437Y130440D01*
X478423Y128777D01*
X474077Y128777D01*
G37*
%LPD*%
%LPC*%
G36*
X67677Y128777D02*
X67677Y128777D01*
X63663Y130440D01*
X60590Y133513D01*
X58927Y137527D01*
X58927Y141873D01*
X60590Y145887D01*
X63663Y148960D01*
X67677Y150623D01*
X72023Y150623D01*
X76037Y148960D01*
X79110Y145887D01*
X80773Y141873D01*
X80773Y137527D01*
X79110Y133513D01*
X76037Y130440D01*
X72023Y128777D01*
X67677Y128777D01*
G37*
%LPD*%
%LPC*%
G36*
X499477Y103377D02*
X499477Y103377D01*
X495463Y105040D01*
X492390Y108113D01*
X490727Y112127D01*
X490727Y116473D01*
X492390Y120487D01*
X495463Y123560D01*
X499477Y125223D01*
X503823Y125223D01*
X507837Y123560D01*
X510910Y120487D01*
X512573Y116473D01*
X512573Y112127D01*
X510910Y108113D01*
X507837Y105040D01*
X503823Y103377D01*
X499477Y103377D01*
G37*
%LPD*%
%LPC*%
G36*
X474077Y103377D02*
X474077Y103377D01*
X470063Y105040D01*
X466990Y108113D01*
X465327Y112127D01*
X465327Y116473D01*
X466990Y120487D01*
X470063Y123560D01*
X474077Y125223D01*
X478423Y125223D01*
X482437Y123560D01*
X485510Y120487D01*
X487173Y116473D01*
X487173Y112127D01*
X485510Y108113D01*
X482437Y105040D01*
X478423Y103377D01*
X474077Y103377D01*
G37*
%LPD*%
%LPC*%
G36*
X67677Y103377D02*
X67677Y103377D01*
X63663Y105040D01*
X60590Y108113D01*
X58927Y112127D01*
X58927Y116473D01*
X60590Y120487D01*
X63663Y123560D01*
X67677Y125223D01*
X72023Y125223D01*
X76037Y123560D01*
X79110Y120487D01*
X80773Y116473D01*
X80773Y112127D01*
X79110Y108113D01*
X76037Y105040D01*
X72023Y103377D01*
X67677Y103377D01*
G37*
%LPD*%
%LPC*%
G36*
X42277Y103377D02*
X42277Y103377D01*
X38263Y105040D01*
X35190Y108113D01*
X33527Y112127D01*
X33527Y116473D01*
X35190Y120487D01*
X38263Y123560D01*
X42277Y125223D01*
X46623Y125223D01*
X50637Y123560D01*
X53710Y120487D01*
X55373Y116473D01*
X55373Y112127D01*
X53710Y108113D01*
X50637Y105040D01*
X46623Y103377D01*
X42277Y103377D01*
G37*
%LPD*%
%LPC*%
G36*
X42277Y77977D02*
X42277Y77977D01*
X38263Y79640D01*
X35190Y82713D01*
X33527Y86727D01*
X33527Y91073D01*
X35190Y95087D01*
X38263Y98160D01*
X42277Y99823D01*
X46623Y99823D01*
X50637Y98160D01*
X53710Y95087D01*
X55373Y91073D01*
X55373Y86727D01*
X53710Y82713D01*
X50637Y79640D01*
X46623Y77977D01*
X42277Y77977D01*
G37*
%LPD*%
%LPC*%
G36*
X499477Y77977D02*
X499477Y77977D01*
X495463Y79640D01*
X492390Y82713D01*
X490727Y86727D01*
X490727Y91073D01*
X492390Y95087D01*
X495463Y98160D01*
X499477Y99823D01*
X503823Y99823D01*
X507837Y98160D01*
X510910Y95087D01*
X512573Y91073D01*
X512573Y86727D01*
X510910Y82713D01*
X507837Y79640D01*
X503823Y77977D01*
X499477Y77977D01*
G37*
%LPD*%
%LPC*%
G36*
X67677Y77977D02*
X67677Y77977D01*
X63663Y79640D01*
X60590Y82713D01*
X58927Y86727D01*
X58927Y91073D01*
X60590Y95087D01*
X63663Y98160D01*
X67677Y99823D01*
X72023Y99823D01*
X76037Y98160D01*
X79110Y95087D01*
X80773Y91073D01*
X80773Y86727D01*
X79110Y82713D01*
X76037Y79640D01*
X72023Y77977D01*
X67677Y77977D01*
G37*
%LPD*%
%LPC*%
G36*
X474077Y52577D02*
X474077Y52577D01*
X470063Y54240D01*
X466990Y57313D01*
X465327Y61327D01*
X465327Y65673D01*
X466990Y69687D01*
X470063Y72760D01*
X474077Y74423D01*
X478423Y74423D01*
X482437Y72760D01*
X485510Y69687D01*
X487173Y65673D01*
X487173Y61327D01*
X485510Y57313D01*
X482437Y54240D01*
X478423Y52577D01*
X474077Y52577D01*
G37*
%LPD*%
%LPC*%
G36*
X499477Y52577D02*
X499477Y52577D01*
X495463Y54240D01*
X492390Y57313D01*
X490727Y61327D01*
X490727Y65673D01*
X492390Y69687D01*
X495463Y72760D01*
X499477Y74423D01*
X503823Y74423D01*
X507837Y72760D01*
X510910Y69687D01*
X512573Y65673D01*
X512573Y61327D01*
X510910Y57313D01*
X507837Y54240D01*
X503823Y52577D01*
X499477Y52577D01*
G37*
%LPD*%
%LPC*%
G36*
X67677Y52577D02*
X67677Y52577D01*
X63663Y54240D01*
X60590Y57313D01*
X58927Y61327D01*
X58927Y65673D01*
X60590Y69687D01*
X63663Y72760D01*
X67677Y74423D01*
X72023Y74423D01*
X76037Y72760D01*
X79110Y69687D01*
X80773Y65673D01*
X80773Y61327D01*
X79110Y57313D01*
X76037Y54240D01*
X72023Y52577D01*
X67677Y52577D01*
G37*
%LPD*%
%LPC*%
G36*
X199097Y371093D02*
X199097Y371093D01*
X193293Y376897D01*
X193293Y385103D01*
X199097Y390907D01*
X207303Y390907D01*
X213107Y385103D01*
X213107Y376897D01*
X207303Y371093D01*
X199097Y371093D01*
G37*
%LPD*%
%LPC*%
G36*
X300697Y371093D02*
X300697Y371093D01*
X294893Y376897D01*
X294893Y385103D01*
X300697Y390907D01*
X308903Y390907D01*
X314707Y385103D01*
X314707Y376897D01*
X308903Y371093D01*
X300697Y371093D01*
G37*
%LPD*%
%LPC*%
G36*
X455946Y50847D02*
X455946Y50847D01*
X453630Y51807D01*
X451857Y53580D01*
X450897Y55896D01*
X450897Y58404D01*
X451857Y60720D01*
X453630Y62493D01*
X455946Y63453D01*
X458454Y63453D01*
X460770Y62493D01*
X462543Y60720D01*
X463503Y58404D01*
X463503Y55896D01*
X462543Y53580D01*
X460770Y51807D01*
X458454Y50847D01*
X455946Y50847D01*
G37*
%LPD*%
%LPC*%
G36*
X262889Y186689D02*
X262889Y186689D01*
X262889Y194311D01*
X268770Y194311D01*
X270349Y194061D01*
X271870Y193566D01*
X273295Y192840D01*
X274589Y191900D01*
X275720Y190769D01*
X276660Y189475D01*
X277386Y188050D01*
X277829Y186689D01*
X262889Y186689D01*
G37*
%LPD*%
%LPC*%
G36*
X262889Y237489D02*
X262889Y237489D01*
X262889Y245111D01*
X268770Y245111D01*
X270349Y244861D01*
X271870Y244366D01*
X273295Y243640D01*
X274589Y242700D01*
X275720Y241569D01*
X276660Y240275D01*
X277386Y238850D01*
X277829Y237489D01*
X262889Y237489D01*
G37*
%LPD*%
%LPC*%
G36*
X242871Y186689D02*
X242871Y186689D01*
X243314Y188050D01*
X244040Y189475D01*
X244980Y190769D01*
X246111Y191900D01*
X247405Y192840D01*
X248830Y193566D01*
X250351Y194061D01*
X251930Y194311D01*
X257811Y194311D01*
X257811Y186689D01*
X242871Y186689D01*
G37*
%LPD*%
%LPC*%
G36*
X242871Y237489D02*
X242871Y237489D01*
X243314Y238850D01*
X244040Y240275D01*
X244980Y241569D01*
X246111Y242700D01*
X247405Y243640D01*
X248830Y244366D01*
X250351Y244861D01*
X251930Y245111D01*
X257811Y245111D01*
X257811Y237489D01*
X242871Y237489D01*
G37*
%LPD*%
%LPC*%
G36*
X262889Y173989D02*
X262889Y173989D01*
X262889Y181611D01*
X277829Y181611D01*
X277386Y180250D01*
X276660Y178825D01*
X275720Y177531D01*
X274589Y176400D01*
X273295Y175460D01*
X271870Y174734D01*
X270349Y174239D01*
X268770Y173989D01*
X262889Y173989D01*
G37*
%LPD*%
%LPC*%
G36*
X262889Y224789D02*
X262889Y224789D01*
X262889Y232411D01*
X277829Y232411D01*
X277386Y231050D01*
X276660Y229625D01*
X275720Y228331D01*
X274589Y227200D01*
X273295Y226260D01*
X271870Y225534D01*
X270349Y225039D01*
X268770Y224789D01*
X262889Y224789D01*
G37*
%LPD*%
%LPC*%
G36*
X251930Y173989D02*
X251930Y173989D01*
X250351Y174239D01*
X248830Y174734D01*
X247405Y175460D01*
X246111Y176400D01*
X244980Y177531D01*
X244040Y178825D01*
X243314Y180250D01*
X242871Y181611D01*
X257811Y181611D01*
X257811Y173989D01*
X251930Y173989D01*
G37*
%LPD*%
%LPC*%
G36*
X251930Y224789D02*
X251930Y224789D01*
X250351Y225039D01*
X248830Y225534D01*
X247405Y226260D01*
X246111Y227200D01*
X244980Y228331D01*
X244040Y229625D01*
X243314Y231050D01*
X242871Y232411D01*
X257811Y232411D01*
X257811Y224789D01*
X251930Y224789D01*
G37*
%LPD*%
%LPC*%
G36*
X72389Y269239D02*
X72389Y269239D01*
X72389Y278639D01*
X79582Y278639D01*
X80229Y278466D01*
X80808Y278131D01*
X81281Y277658D01*
X81616Y277079D01*
X81789Y276432D01*
X81789Y269239D01*
X72389Y269239D01*
G37*
%LPD*%
%LPC*%
G36*
X32511Y269239D02*
X32511Y269239D01*
X32511Y276432D01*
X32684Y277079D01*
X33019Y277658D01*
X33492Y278131D01*
X34071Y278466D01*
X34718Y278639D01*
X41911Y278639D01*
X41911Y269239D01*
X32511Y269239D01*
G37*
%LPD*%
%LPC*%
G36*
X72389Y254761D02*
X72389Y254761D01*
X72389Y264161D01*
X81789Y264161D01*
X81789Y256968D01*
X81616Y256321D01*
X81281Y255742D01*
X80808Y255269D01*
X80229Y254934D01*
X79582Y254761D01*
X72389Y254761D01*
G37*
%LPD*%
%LPC*%
G36*
X34718Y254761D02*
X34718Y254761D01*
X34071Y254934D01*
X33492Y255269D01*
X33019Y255742D01*
X32684Y256321D01*
X32511Y256968D01*
X32511Y264161D01*
X41911Y264161D01*
X41911Y254761D01*
X34718Y254761D01*
G37*
%LPD*%
%LPC*%
G36*
X379995Y160047D02*
X379995Y160047D01*
X378138Y160816D01*
X376716Y162238D01*
X375947Y164095D01*
X375947Y166105D01*
X376716Y167962D01*
X378138Y169384D01*
X379995Y170153D01*
X382005Y170153D01*
X383862Y169384D01*
X385284Y167962D01*
X386053Y166105D01*
X386053Y164095D01*
X385284Y162238D01*
X383862Y160816D01*
X382005Y160047D01*
X379995Y160047D01*
G37*
%LPD*%
%LPC*%
G36*
X373645Y64797D02*
X373645Y64797D01*
X371788Y65566D01*
X370366Y66988D01*
X369597Y68845D01*
X369597Y70855D01*
X370366Y72712D01*
X371788Y74134D01*
X373645Y74903D01*
X375655Y74903D01*
X377512Y74134D01*
X378934Y72712D01*
X379703Y70855D01*
X379703Y68845D01*
X378934Y66988D01*
X377512Y65566D01*
X375655Y64797D01*
X373645Y64797D01*
G37*
%LPD*%
%LPC*%
G36*
X345070Y64797D02*
X345070Y64797D01*
X343213Y65566D01*
X341791Y66988D01*
X341022Y68845D01*
X341022Y70855D01*
X341791Y72712D01*
X343213Y74134D01*
X345070Y74903D01*
X347080Y74903D01*
X348937Y74134D01*
X350359Y72712D01*
X351128Y70855D01*
X351128Y68845D01*
X350359Y66988D01*
X348937Y65566D01*
X347080Y64797D01*
X345070Y64797D01*
G37*
%LPD*%
%LPC*%
G36*
X405395Y242597D02*
X405395Y242597D01*
X403538Y243366D01*
X402116Y244788D01*
X401347Y246645D01*
X401347Y248655D01*
X402116Y250512D01*
X403538Y251934D01*
X405395Y252703D01*
X407405Y252703D01*
X409262Y251934D01*
X410684Y250512D01*
X411453Y248655D01*
X411453Y246645D01*
X410684Y244788D01*
X409262Y243366D01*
X407405Y242597D01*
X405395Y242597D01*
G37*
%LPD*%
%LPC*%
G36*
X202195Y96547D02*
X202195Y96547D01*
X200338Y97316D01*
X198916Y98738D01*
X198147Y100595D01*
X198147Y102605D01*
X198916Y104462D01*
X200338Y105884D01*
X202195Y106653D01*
X204205Y106653D01*
X206062Y105884D01*
X207484Y104462D01*
X208253Y102605D01*
X208253Y100595D01*
X207484Y98738D01*
X206062Y97316D01*
X204205Y96547D01*
X202195Y96547D01*
G37*
%LPD*%
%LPC*%
G36*
X151395Y96547D02*
X151395Y96547D01*
X149538Y97316D01*
X148116Y98738D01*
X147347Y100595D01*
X147347Y102605D01*
X148116Y104462D01*
X149538Y105884D01*
X151395Y106653D01*
X153405Y106653D01*
X155262Y105884D01*
X156684Y104462D01*
X157453Y102605D01*
X157453Y100595D01*
X156684Y98738D01*
X155262Y97316D01*
X153405Y96547D01*
X151395Y96547D01*
G37*
%LPD*%
%LPC*%
G36*
X119645Y242597D02*
X119645Y242597D01*
X117788Y243366D01*
X116366Y244788D01*
X115597Y246645D01*
X115597Y248655D01*
X116366Y250512D01*
X117788Y251934D01*
X119645Y252703D01*
X121655Y252703D01*
X123512Y251934D01*
X124934Y250512D01*
X125703Y248655D01*
X125703Y246645D01*
X124934Y244788D01*
X123512Y243366D01*
X121655Y242597D01*
X119645Y242597D01*
G37*
%LPD*%
%LPC*%
G36*
X297445Y229897D02*
X297445Y229897D01*
X295588Y230666D01*
X294166Y232088D01*
X293397Y233945D01*
X293397Y235955D01*
X294166Y237812D01*
X295588Y239234D01*
X297445Y240003D01*
X299455Y240003D01*
X301312Y239234D01*
X302734Y237812D01*
X303503Y235955D01*
X303503Y233945D01*
X302734Y232088D01*
X301312Y230666D01*
X299455Y229897D01*
X297445Y229897D01*
G37*
%LPD*%
%LPC*%
G36*
X449845Y64797D02*
X449845Y64797D01*
X447988Y65566D01*
X446566Y66988D01*
X445797Y68845D01*
X445797Y70855D01*
X446566Y72712D01*
X447988Y74134D01*
X449845Y74903D01*
X451855Y74903D01*
X453712Y74134D01*
X455134Y72712D01*
X455903Y70855D01*
X455903Y68845D01*
X455134Y66988D01*
X453712Y65566D01*
X451855Y64797D01*
X449845Y64797D01*
G37*
%LPD*%
%LPC*%
G36*
X443495Y129793D02*
X443495Y129793D01*
X441638Y130562D01*
X440216Y131984D01*
X439447Y133841D01*
X439447Y135851D01*
X440216Y137708D01*
X441638Y139130D01*
X443495Y139899D01*
X445505Y139899D01*
X447362Y139130D01*
X448784Y137708D01*
X449553Y135851D01*
X449553Y133841D01*
X448784Y131984D01*
X447362Y130562D01*
X445505Y129793D01*
X443495Y129793D01*
G37*
%LPD*%
%LPC*%
G36*
X373645Y210847D02*
X373645Y210847D01*
X371788Y211616D01*
X370366Y213038D01*
X369597Y214895D01*
X369597Y216905D01*
X370366Y218762D01*
X371788Y220184D01*
X373645Y220953D01*
X375655Y220953D01*
X377512Y220184D01*
X378934Y218762D01*
X379703Y216905D01*
X379703Y214895D01*
X378934Y213038D01*
X377512Y211616D01*
X375655Y210847D01*
X373645Y210847D01*
G37*
%LPD*%
%LPC*%
G36*
X189495Y312447D02*
X189495Y312447D01*
X187638Y313216D01*
X186216Y314638D01*
X185447Y316495D01*
X185447Y318505D01*
X186216Y320362D01*
X187638Y321784D01*
X189495Y322553D01*
X191505Y322553D01*
X193362Y321784D01*
X194784Y320362D01*
X195553Y318505D01*
X195553Y316495D01*
X194784Y314638D01*
X193362Y313216D01*
X191505Y312447D01*
X189495Y312447D01*
G37*
%LPD*%
%LPC*%
G36*
X195845Y26697D02*
X195845Y26697D01*
X193988Y27466D01*
X192566Y28888D01*
X191797Y30745D01*
X191797Y32755D01*
X192566Y34612D01*
X193988Y36034D01*
X195845Y36803D01*
X197855Y36803D01*
X199712Y36034D01*
X201134Y34612D01*
X201903Y32755D01*
X201903Y30745D01*
X201134Y28888D01*
X199712Y27466D01*
X197855Y26697D01*
X195845Y26697D01*
G37*
%LPD*%
%LPC*%
G36*
X386365Y131571D02*
X386365Y131571D01*
X384544Y132325D01*
X383150Y133719D01*
X382396Y135540D01*
X382396Y137510D01*
X383150Y139331D01*
X384544Y140725D01*
X386365Y141479D01*
X388335Y141479D01*
X390156Y140725D01*
X391550Y139331D01*
X392304Y137510D01*
X392304Y135540D01*
X391550Y133719D01*
X390156Y132325D01*
X388335Y131571D01*
X386365Y131571D01*
G37*
%LPD*%
%LPC*%
G36*
X360965Y131571D02*
X360965Y131571D01*
X359144Y132325D01*
X357750Y133719D01*
X356996Y135540D01*
X356996Y137510D01*
X357750Y139331D01*
X359144Y140725D01*
X360965Y141479D01*
X362935Y141479D01*
X364756Y140725D01*
X366150Y139331D01*
X366904Y137510D01*
X366904Y135540D01*
X366150Y133719D01*
X364756Y132325D01*
X362935Y131571D01*
X360965Y131571D01*
G37*
%LPD*%
%LPC*%
G36*
X354615Y118871D02*
X354615Y118871D01*
X352794Y119625D01*
X351400Y121019D01*
X350646Y122840D01*
X350646Y124810D01*
X351400Y126631D01*
X352794Y128025D01*
X354615Y128779D01*
X356585Y128779D01*
X358406Y128025D01*
X359800Y126631D01*
X360554Y124810D01*
X360554Y122840D01*
X359800Y121019D01*
X358406Y119625D01*
X356585Y118871D01*
X354615Y118871D01*
G37*
%LPD*%
%LPC*%
G36*
X322865Y137921D02*
X322865Y137921D01*
X321044Y138675D01*
X319650Y140069D01*
X318896Y141890D01*
X318896Y143860D01*
X319650Y145681D01*
X321044Y147075D01*
X322865Y147829D01*
X324835Y147829D01*
X326656Y147075D01*
X328050Y145681D01*
X328804Y143860D01*
X328804Y141890D01*
X328050Y140069D01*
X326656Y138675D01*
X324835Y137921D01*
X322865Y137921D01*
G37*
%LPD*%
%LPC*%
G36*
X335565Y137921D02*
X335565Y137921D01*
X333744Y138675D01*
X332350Y140069D01*
X331596Y141890D01*
X331596Y143860D01*
X332350Y145681D01*
X333744Y147075D01*
X335565Y147829D01*
X337535Y147829D01*
X339356Y147075D01*
X340750Y145681D01*
X341504Y143860D01*
X341504Y141890D01*
X340750Y140069D01*
X339356Y138675D01*
X337535Y137921D01*
X335565Y137921D01*
G37*
%LPD*%
%LPC*%
G36*
X323439Y473939D02*
X323439Y473939D01*
X323439Y483085D01*
X323696Y483045D01*
X325483Y482464D01*
X327157Y481611D01*
X328678Y480506D01*
X330006Y479178D01*
X331111Y477657D01*
X331964Y475983D01*
X332545Y474196D01*
X332585Y473939D01*
X323439Y473939D01*
G37*
%LPD*%
%LPC*%
G36*
X323439Y468861D02*
X323439Y468861D01*
X332585Y468861D01*
X332545Y468604D01*
X331964Y466817D01*
X331111Y465143D01*
X330006Y463622D01*
X328678Y462294D01*
X327157Y461189D01*
X325483Y460336D01*
X323696Y459755D01*
X323439Y459715D01*
X323439Y468861D01*
G37*
%LPD*%
%LPC*%
G36*
X309215Y473939D02*
X309215Y473939D01*
X309255Y474196D01*
X309836Y475983D01*
X310689Y477657D01*
X311794Y479178D01*
X313122Y480506D01*
X314643Y481611D01*
X316317Y482464D01*
X318104Y483045D01*
X318361Y483085D01*
X318361Y473939D01*
X309215Y473939D01*
G37*
%LPD*%
%LPC*%
G36*
X318104Y459755D02*
X318104Y459755D01*
X316317Y460336D01*
X314643Y461189D01*
X313122Y462294D01*
X311794Y463622D01*
X310689Y465143D01*
X309836Y466817D01*
X309255Y468604D01*
X309215Y468861D01*
X318361Y468861D01*
X318361Y459715D01*
X318104Y459755D01*
G37*
%LPD*%
%LPC*%
G36*
X281939Y351789D02*
X281939Y351789D01*
X281939Y359907D01*
X281958Y359904D01*
X283593Y359373D01*
X285125Y358592D01*
X286516Y357581D01*
X287731Y356366D01*
X288742Y354975D01*
X289523Y353443D01*
X290054Y351808D01*
X290057Y351789D01*
X281939Y351789D01*
G37*
%LPD*%
%LPC*%
G36*
X281939Y346711D02*
X281939Y346711D01*
X290057Y346711D01*
X290054Y346692D01*
X289523Y345057D01*
X288742Y343525D01*
X287731Y342134D01*
X286516Y340919D01*
X285125Y339908D01*
X283593Y339127D01*
X281958Y338596D01*
X281939Y338593D01*
X281939Y346711D01*
G37*
%LPD*%
%LPC*%
G36*
X268743Y351789D02*
X268743Y351789D01*
X268746Y351808D01*
X269277Y353443D01*
X270058Y354975D01*
X271069Y356366D01*
X272284Y357581D01*
X273675Y358592D01*
X275207Y359373D01*
X276842Y359904D01*
X276861Y359907D01*
X276861Y351789D01*
X268743Y351789D01*
G37*
%LPD*%
%LPC*%
G36*
X276842Y338596D02*
X276842Y338596D01*
X275207Y339127D01*
X273675Y339908D01*
X272284Y340919D01*
X271069Y342134D01*
X270058Y343525D01*
X269277Y345057D01*
X268746Y346692D01*
X268743Y346711D01*
X276861Y346711D01*
X276861Y338593D01*
X276842Y338596D01*
G37*
%LPD*%
%LPC*%
G36*
X260349Y184149D02*
X260349Y184149D01*
X260349Y184151D01*
X260351Y184151D01*
X260351Y184149D01*
X260349Y184149D01*
G37*
%LPD*%
%LPC*%
G36*
X320899Y471399D02*
X320899Y471399D01*
X320899Y471401D01*
X320901Y471401D01*
X320901Y471399D01*
X320899Y471399D01*
G37*
%LPD*%
%LPC*%
G36*
X260349Y234949D02*
X260349Y234949D01*
X260349Y234951D01*
X260351Y234951D01*
X260351Y234949D01*
X260349Y234949D01*
G37*
%LPD*%
%LPC*%
G36*
X279399Y349249D02*
X279399Y349249D01*
X279399Y349251D01*
X279401Y349251D01*
X279401Y349249D01*
X279399Y349249D01*
G37*
%LPD*%
D10*
X44450Y266700D03*
D11*
X44450Y241300D03*
X44450Y215900D03*
X44450Y190500D03*
X44450Y165100D03*
X44450Y139700D03*
X44450Y114300D03*
X44450Y88900D03*
X44450Y63500D03*
X44450Y38100D03*
D10*
X69850Y266700D03*
D11*
X69850Y241300D03*
X69850Y215900D03*
X69850Y190500D03*
X69850Y165100D03*
X69850Y139700D03*
X69850Y114300D03*
X69850Y88900D03*
X69850Y63500D03*
X69850Y38100D03*
D10*
X476250Y266700D03*
D11*
X476250Y241300D03*
X476250Y215900D03*
X476250Y190500D03*
X476250Y165100D03*
X476250Y139700D03*
X476250Y114300D03*
X476250Y88900D03*
X476250Y63500D03*
X476250Y38100D03*
D10*
X501650Y266700D03*
D11*
X501650Y241300D03*
X501650Y215900D03*
X501650Y190500D03*
X501650Y165100D03*
X501650Y139700D03*
X501650Y114300D03*
X501650Y88900D03*
X501650Y63500D03*
X501650Y38100D03*
D10*
X224000Y443000D03*
D11*
X251700Y443000D03*
X279400Y443000D03*
X307100Y443000D03*
X334800Y443000D03*
X237900Y471400D03*
X265600Y471400D03*
X293200Y471400D03*
X320900Y471400D03*
D12*
X154400Y457200D03*
X404400Y457200D03*
D13*
X304800Y381000D03*
X203200Y381000D03*
D14*
X252730Y234950D02*
X267970Y234950D01*
X267970Y209550D02*
X252730Y209550D01*
X252730Y184150D02*
X267970Y184150D01*
D15*
X177800Y349250D03*
X279400Y349250D03*
D16*
X444500Y134846D03*
X374650Y260350D03*
X374650Y215900D03*
X190500Y317500D03*
X127000Y184150D03*
X152400Y101600D03*
X203200Y101600D03*
D17*
X393700Y50800D03*
D16*
X196850Y31750D03*
X120650Y247650D03*
X171450Y114300D03*
X222250Y114300D03*
X406400Y247650D03*
X298450Y234950D03*
X114300Y266700D03*
X463550Y127000D03*
D18*
X457200Y127000D01*
D16*
X323850Y177800D03*
D18*
X323850Y171450D01*
D16*
X190500Y298450D03*
X330200Y66675D03*
D19*
X317500Y66675D02*
X336550Y85725D01*
X473075Y85725D01*
X476250Y88900D01*
D20*
X317500Y66675D03*
X323850Y142875D03*
X361950Y136525D03*
X336550Y142875D03*
X387350Y136525D03*
X355600Y123825D03*
D16*
X346075Y69850D03*
X381000Y165100D03*
D17*
X457200Y57150D03*
D16*
X374650Y69850D03*
X450850Y69850D03*
M02*
