G04 EAGLE Gerber X2 export*
%TF.Part,Single*%
%TF.FileFunction,Copper,L1,Top,Mixed*%
%TF.FilePolarity,Positive*%
%TF.GenerationSoftware,Autodesk,EAGLE,9.0.0*%
%TF.CreationDate,2018-07-03T14:12:15Z*%
G75*
%MOMM*%
%FSLAX34Y34*%
%LPD*%
%AMOC8*
5,1,8,0,0,1.08239X$1,22.5*%
G01*
%ADD10R,1.879600X1.879600*%
%ADD11C,1.879600*%
%ADD12C,5.080000*%
%ADD13R,1.981200X0.558800*%
%ADD14P,1.814519X8X202.500000*%
%ADD15R,1.000000X1.100000*%
%ADD16R,0.550000X1.200000*%
%ADD17R,1.100000X1.000000*%
%ADD18R,1.000000X0.600000*%
%ADD19C,1.524000*%
%ADD20R,0.558800X1.981200*%
%ADD21R,2.000000X1.500000*%
%ADD22R,0.600000X1.550000*%
%ADD23R,1.200000X1.800000*%
%ADD24C,1.676400*%
%ADD25C,0.508000*%
%ADD26C,0.609600*%
%ADD27C,0.705600*%
%ADD28C,0.254000*%
%ADD29C,0.406400*%
%ADD30C,0.955600*%
%ADD31C,0.685800*%


D10*
X44450Y266700D03*
D11*
X44450Y241300D03*
X44450Y215900D03*
X44450Y190500D03*
X44450Y165100D03*
X44450Y139700D03*
X44450Y114300D03*
X44450Y88900D03*
X44450Y63500D03*
X44450Y38100D03*
D10*
X69850Y266700D03*
D11*
X69850Y241300D03*
X69850Y215900D03*
X69850Y190500D03*
X69850Y165100D03*
X69850Y139700D03*
X69850Y114300D03*
X69850Y88900D03*
X69850Y63500D03*
X69850Y38100D03*
D10*
X476250Y266700D03*
D11*
X476250Y241300D03*
X476250Y215900D03*
X476250Y190500D03*
X476250Y165100D03*
X476250Y139700D03*
X476250Y114300D03*
X476250Y88900D03*
X476250Y63500D03*
X476250Y38100D03*
D10*
X501650Y266700D03*
D11*
X501650Y241300D03*
X501650Y215900D03*
X501650Y190500D03*
X501650Y165100D03*
X501650Y139700D03*
X501650Y114300D03*
X501650Y88900D03*
X501650Y63500D03*
X501650Y38100D03*
D10*
X224000Y443000D03*
D11*
X251700Y443000D03*
X279400Y443000D03*
X307100Y443000D03*
X334800Y443000D03*
X237900Y471400D03*
X265600Y471400D03*
X293200Y471400D03*
X320900Y471400D03*
D12*
X154400Y457200D03*
X404400Y457200D03*
D13*
X229362Y323850D03*
X229362Y311150D03*
X229362Y298450D03*
X229362Y285750D03*
X278638Y285750D03*
X278638Y298450D03*
X278638Y311150D03*
X278638Y323850D03*
D14*
X304800Y381000D03*
X203200Y381000D03*
D15*
X203200Y296300D03*
X203200Y313300D03*
X101600Y245500D03*
X101600Y262500D03*
D16*
X161900Y140001D03*
X152400Y140001D03*
X142900Y140001D03*
X142900Y113999D03*
X161900Y113999D03*
X152400Y113999D03*
X212700Y140001D03*
X203200Y140001D03*
X193700Y140001D03*
X193700Y113999D03*
X212700Y113999D03*
X203200Y113999D03*
D15*
X444500Y232800D03*
X444500Y249800D03*
X419100Y220100D03*
X419100Y237100D03*
X190500Y156600D03*
X190500Y173600D03*
X127000Y156600D03*
X127000Y173600D03*
D17*
X207400Y88900D03*
X224400Y88900D03*
X156600Y88900D03*
X173600Y88900D03*
D18*
X360900Y269850D03*
X360900Y260350D03*
X360900Y250850D03*
X388400Y250850D03*
X388400Y269850D03*
X360900Y225400D03*
X360900Y215900D03*
X360900Y206400D03*
X388400Y206400D03*
X388400Y225400D03*
D19*
X267970Y234950D02*
X252730Y234950D01*
X252730Y209550D02*
X267970Y209550D01*
X267970Y184150D02*
X252730Y184150D01*
D15*
X446650Y146050D03*
X429650Y146050D03*
X446650Y165100D03*
X429650Y165100D03*
X446650Y190500D03*
X429650Y190500D03*
X414900Y190500D03*
X397900Y190500D03*
X414900Y165100D03*
X397900Y165100D03*
X414900Y146050D03*
X397900Y146050D03*
D20*
X323850Y108712D03*
X336550Y108712D03*
X349250Y108712D03*
X361950Y108712D03*
X361950Y157988D03*
X349250Y157988D03*
X336550Y157988D03*
X323850Y157988D03*
D13*
X394462Y127000D03*
X394462Y114300D03*
X394462Y101600D03*
X394462Y88900D03*
X443738Y88900D03*
X443738Y101600D03*
X443738Y114300D03*
X443738Y127000D03*
D21*
X215900Y249950D03*
X215900Y219950D03*
X215900Y169150D03*
X215900Y199150D03*
D15*
X436000Y31750D03*
X453000Y31750D03*
X404250Y31750D03*
X421250Y31750D03*
D22*
X165100Y50800D03*
X175100Y50800D03*
X185100Y50800D03*
X195100Y50800D03*
X205100Y50800D03*
X215100Y50800D03*
D23*
X152100Y15850D03*
X228100Y15850D03*
D22*
X317500Y50800D03*
X327500Y50800D03*
X337500Y50800D03*
X347500Y50800D03*
X357500Y50800D03*
X367500Y50800D03*
D23*
X304500Y15850D03*
X380500Y15850D03*
D24*
X177800Y349250D03*
X279400Y349250D03*
D25*
X76200Y247650D02*
X69850Y241300D01*
X76200Y247650D02*
X99450Y247650D01*
X101600Y245500D01*
D26*
X215900Y219950D02*
X215900Y209550D01*
X215900Y199150D01*
X215900Y209550D02*
X260350Y209550D01*
D25*
X444500Y143900D02*
X446650Y146050D01*
D27*
X444500Y134846D03*
D25*
X443512Y133858D01*
X432149Y133858D01*
X412750Y114459D01*
X412750Y95250D01*
X406400Y88900D01*
X394462Y88900D01*
X444500Y134846D02*
X444500Y143900D01*
X394462Y88900D02*
X374650Y88900D01*
X361950Y101600D01*
X361950Y108712D01*
X446650Y146050D02*
X446650Y165100D01*
X446650Y190500D01*
X374650Y260350D02*
X360900Y260350D01*
D27*
X374650Y260350D03*
D25*
X374650Y215900D02*
X360900Y215900D01*
D27*
X374650Y215900D03*
D25*
X229362Y311150D02*
X205350Y311150D01*
X203200Y313300D01*
X194700Y313300D01*
X190500Y317500D01*
D27*
X190500Y317500D03*
D25*
X127000Y184150D02*
X127000Y173600D01*
D27*
X127000Y184150D03*
D25*
X203200Y113999D02*
X203200Y101600D01*
X207400Y97400D02*
X207400Y88900D01*
X207400Y97400D02*
X203200Y101600D01*
X152400Y101600D02*
X152400Y113999D01*
X156600Y97400D02*
X156600Y88900D01*
X156600Y97400D02*
X152400Y101600D01*
D27*
X152400Y101600D03*
X203200Y101600D03*
D28*
X446650Y165100D02*
X447675Y165100D01*
X158750Y88900D02*
X156600Y88900D01*
D29*
X393700Y42300D02*
X404250Y31750D01*
X393700Y42300D02*
X393700Y50800D01*
D30*
X393700Y50800D03*
D28*
X195100Y50800D02*
X195100Y33500D01*
X196850Y31750D01*
D27*
X196850Y31750D03*
D28*
X101600Y245500D02*
X103750Y247650D01*
X120650Y247650D01*
D27*
X120650Y247650D03*
D25*
X251700Y435850D02*
X251700Y443000D01*
X203200Y387350D02*
X203200Y381000D01*
X203200Y387350D02*
X251700Y435850D01*
X266700Y298450D02*
X278638Y298450D01*
X266700Y298450D02*
X260350Y304800D01*
X260350Y323850D02*
X203200Y381000D01*
X260350Y323850D02*
X260350Y304800D01*
X265600Y420200D02*
X265600Y471400D01*
X265600Y420200D02*
X304800Y381000D01*
X304800Y323850D01*
X292100Y311150D01*
X278638Y311150D01*
X245350Y249950D02*
X215900Y249950D01*
X245350Y249950D02*
X260350Y234950D01*
X74050Y262500D02*
X69850Y266700D01*
X74050Y262500D02*
X101600Y262500D01*
X215900Y169150D02*
X230900Y184150D01*
X260350Y184150D01*
X171149Y113999D02*
X161900Y113999D01*
X171149Y113999D02*
X171450Y114300D01*
D27*
X171450Y114300D03*
D25*
X212700Y113999D02*
X221949Y113999D01*
X222250Y114300D01*
D27*
X222250Y114300D03*
D25*
X224400Y111548D02*
X224400Y88900D01*
X224400Y111548D02*
X221949Y113999D01*
X173600Y111548D02*
X173600Y88900D01*
X173600Y111548D02*
X171149Y113999D01*
D28*
X190500Y171450D02*
X215900Y171450D01*
X190500Y171450D02*
X190500Y173600D01*
X215900Y171450D02*
X215900Y169150D01*
D29*
X173600Y88900D02*
X173600Y80400D01*
X185100Y68900D01*
D25*
X442350Y247650D02*
X444500Y249800D01*
X442350Y247650D02*
X419100Y247650D01*
X419100Y237100D01*
X419100Y247650D02*
X406400Y247650D01*
D27*
X406400Y247650D03*
X298450Y234950D03*
D25*
X282575Y219075D01*
X282575Y193675D01*
X273050Y184150D01*
X260350Y184150D01*
D28*
X185100Y68900D02*
X185100Y50800D01*
X110100Y262500D02*
X101600Y262500D01*
X110100Y262500D02*
X114300Y266700D01*
D27*
X114300Y266700D03*
D28*
X184150Y285750D02*
X229362Y285750D01*
X184150Y285750D02*
X76200Y177800D01*
X57150Y177800D01*
X44450Y165100D01*
X184150Y323850D02*
X229362Y323850D01*
X184150Y323850D02*
X171450Y311150D01*
X171450Y279400D01*
X95250Y203200D01*
X38100Y203200D01*
X31750Y196850D01*
X31750Y152400D01*
X44450Y139700D01*
D25*
X443738Y127000D02*
X463550Y127000D01*
D27*
X463550Y127000D03*
D25*
X323850Y157988D02*
X323850Y177800D01*
D27*
X323850Y177800D03*
D25*
X203200Y296300D02*
X192650Y296300D01*
X190500Y298450D01*
D27*
X190500Y298450D03*
D25*
X229362Y298450D01*
D28*
X438150Y127000D02*
X443738Y127000D01*
X152400Y136525D02*
X152400Y140001D01*
X152400Y136525D02*
X158750Y130175D01*
X196850Y130175D01*
X203200Y136525D01*
X203200Y140001D01*
X444500Y231775D02*
X466725Y231775D01*
X469900Y228600D01*
X488950Y228600D01*
X501650Y241300D01*
X444500Y232800D02*
X444500Y231775D01*
X203200Y146050D02*
X203200Y140001D01*
X203200Y146050D02*
X215900Y158750D01*
X260350Y158750D01*
X288925Y187325D01*
X288925Y206375D01*
X320675Y238125D01*
X403225Y238125D01*
X412750Y228600D01*
X469900Y228600D01*
X161925Y146050D02*
X161925Y142875D01*
X161925Y146050D02*
X142875Y165100D01*
X120650Y165100D01*
X117475Y161925D01*
X117475Y149225D01*
X142875Y123825D01*
X200025Y123825D01*
X212725Y136525D01*
X212725Y139700D01*
X161900Y140001D02*
X161925Y142875D01*
X212700Y140001D02*
X212725Y139700D01*
X419100Y219075D02*
X473075Y219075D01*
X476250Y215900D01*
X419100Y219075D02*
X419100Y220100D01*
X250825Y142875D02*
X212725Y142875D01*
X250825Y142875D02*
X295275Y187325D01*
X295275Y206375D01*
X320675Y231775D01*
X403225Y231775D01*
X412750Y222250D01*
X419100Y222250D01*
X212725Y142875D02*
X212700Y140001D01*
X419100Y220100D02*
X419100Y222250D01*
X330200Y66675D02*
X327500Y60800D01*
D27*
X330200Y66675D03*
D28*
X327500Y60800D02*
X327500Y50800D01*
D31*
X317500Y66675D03*
D28*
X317500Y50800D01*
X323850Y107950D02*
X336550Y107950D01*
X323850Y107950D02*
X323850Y108712D01*
X336550Y108712D02*
X336550Y107950D01*
X323850Y108712D02*
X323850Y142875D01*
D31*
X323850Y142875D03*
D28*
X396875Y127000D02*
X396875Y114300D01*
X394462Y114300D01*
X394462Y127000D02*
X396875Y127000D01*
X394462Y127000D02*
X371475Y127000D01*
X361950Y136525D01*
D31*
X361950Y136525D03*
D28*
X349250Y158750D02*
X336550Y158750D01*
X336550Y157988D01*
X349250Y157988D02*
X349250Y158750D01*
X336550Y157988D02*
X336550Y142875D01*
D31*
X336550Y142875D03*
D28*
X301625Y203200D02*
X323850Y225425D01*
X301625Y203200D02*
X301625Y136525D01*
X222250Y57150D02*
X215900Y50800D01*
X222250Y57150D02*
X301625Y136525D01*
X360900Y225400D02*
X360875Y225425D01*
X323850Y225425D01*
X221450Y57150D02*
X215100Y50800D01*
X221450Y57150D02*
X222250Y57150D01*
X203200Y269875D02*
X327025Y269875D01*
X203200Y269875D02*
X111125Y177800D01*
X111125Y111125D01*
X327025Y269875D02*
X360900Y269850D01*
X165100Y57150D02*
X165100Y50800D01*
X165100Y57150D02*
X111125Y111125D01*
X193675Y111125D02*
X193675Y69850D01*
X203200Y60325D01*
X203200Y52700D02*
X203200Y50800D01*
X193675Y111125D02*
X193700Y113999D01*
X203200Y52700D02*
X205100Y50800D01*
X203200Y52700D02*
X203200Y60325D01*
X142875Y85725D02*
X142875Y111125D01*
X142875Y85725D02*
X165100Y63500D01*
X168275Y63500D01*
X174625Y57150D01*
X174625Y50800D01*
X142875Y111125D02*
X142900Y113999D01*
X174625Y50800D02*
X175100Y50800D01*
X142875Y139700D02*
X127000Y155575D01*
X127000Y156600D01*
X142900Y140001D02*
X142875Y139700D01*
X190500Y146050D02*
X190500Y156600D01*
X190500Y146050D02*
X193675Y142875D01*
X193700Y140001D01*
X396875Y269875D02*
X447675Y269875D01*
X463550Y254000D01*
X508000Y254000D01*
X514350Y247650D01*
X514350Y203200D01*
X501650Y190500D01*
X396875Y269875D02*
X388400Y269850D01*
X396875Y225425D02*
X415925Y206375D01*
X466725Y206375D01*
X469900Y203200D01*
X482600Y203200D01*
X488950Y196850D01*
X488950Y158750D01*
X495300Y152400D01*
X508000Y152400D01*
X514350Y146050D01*
X514350Y57150D01*
X508000Y50800D01*
X488950Y50800D01*
X476250Y38100D01*
X396875Y225425D02*
X388425Y225425D01*
X388400Y225400D01*
X414900Y146050D02*
X429650Y146050D01*
X412750Y146050D02*
X403225Y155575D01*
X361950Y155575D01*
X412750Y146050D02*
X414900Y146050D01*
X361950Y155575D02*
X361950Y157988D01*
X414900Y165100D02*
X429650Y165100D01*
X412750Y165100D02*
X403225Y174625D01*
X358775Y174625D01*
X355600Y171450D01*
X355600Y133350D01*
X387350Y101600D01*
X394462Y101600D01*
X412750Y165100D02*
X414900Y165100D01*
X414900Y190500D02*
X429650Y190500D01*
X412750Y190500D02*
X403225Y180975D01*
X339725Y180975D01*
X330200Y171450D01*
X330200Y133350D01*
X349250Y114300D01*
X349250Y108712D01*
X412750Y190500D02*
X414900Y190500D01*
X396875Y146050D02*
X387350Y136525D01*
X355600Y52700D02*
X355600Y50800D01*
X355600Y57150D02*
X355600Y123825D01*
X396875Y146050D02*
X397900Y146050D01*
D31*
X387350Y136525D03*
X355600Y123825D03*
D28*
X355600Y52700D02*
X357500Y50800D01*
X355600Y52700D02*
X355600Y57150D01*
X327025Y190500D02*
X397900Y190500D01*
X327025Y190500D02*
X317500Y180975D01*
X317500Y95250D01*
X336550Y76200D01*
X336550Y50800D01*
X337500Y50800D02*
X337500Y75250D01*
X336550Y76200D01*
X397900Y165100D02*
X400050Y165100D01*
D27*
X346075Y69850D03*
X381000Y165100D03*
D28*
X397900Y165100D01*
X347500Y68425D02*
X347500Y50800D01*
X347500Y68425D02*
X346075Y69850D01*
D29*
X443738Y101600D02*
X443738Y114300D01*
D28*
X443738Y101600D02*
X450850Y101600D01*
X457200Y95250D02*
X457200Y57150D01*
D30*
X457200Y57150D03*
D28*
X457200Y95250D02*
X450850Y101600D01*
X374650Y69850D02*
X367500Y62700D01*
D27*
X374650Y69850D03*
X450850Y69850D03*
D28*
X450850Y61508D01*
X449628Y60286D01*
X449628Y35122D01*
X453000Y31750D01*
X367500Y50800D02*
X367500Y62700D01*
D29*
X421250Y31750D02*
X436000Y31750D01*
X443738Y39488D01*
X443738Y88900D01*
M02*
