M48
;GenerationSoftware,Autodesk,EAGLE,9.0.0*%
;CreationDate,2018-07-03T14:12:14Z*%
FMAT,2
ICI,OFF
METRIC,TZ,000.000
T8C0.330
T7C0.350
T6C0.600
T5C0.813
T4C1.016
T3C1.118
T2C3.200
T1C3.302
%
G90
M71
T1
X40440Y45720
X15440Y45720
T2
X6000Y50000
X48000Y50000
X6000Y42000
X48000Y42000
X12000Y6000
X26000Y6000
X42000Y6000
T3
X17780Y34925
X27940Y34925
T4
X47625Y11430
X47625Y8890
X47625Y6350
X47625Y3810
X50165Y26670
X50165Y24130
X50165Y21590
X50165Y19050
X50165Y16510
X50165Y11430
X50165Y8890
X6985Y26670
X50165Y6350
X50165Y3810
X22400Y44300
X25170Y44300
X27940Y44300
X30710Y44300
X33480Y44300
X23790Y47140
X29320Y47140
X32090Y47140
X26035Y23495
X26035Y20955
X26035Y18415
X26560Y47140
X4445Y26670
X4445Y24130
X4445Y21590
X4445Y19050
X4445Y16510
X4445Y13970
X4445Y11430
X4445Y8890
X4445Y6350
X4445Y3810
X50165Y13970
X6985Y24130
X6985Y21590
X6985Y19050
X6985Y16510
X6985Y13970
X6985Y11430
X6985Y8890
X6985Y6350
X6985Y3810
X47625Y26670
X47625Y24130
X47625Y21590
X47625Y19050
X47625Y16510
X47625Y13970
T5
X30480Y38100
X20320Y38100
T6
X39370Y5080
X45720Y5715
T7
X44450Y13485
X37465Y26035
X37465Y21590
X19050Y31750
X12700Y18415
X15240Y10160
X20320Y10160
X19685Y3175
X12065Y24765
X17145Y11430
X40640Y24765
X29845Y23495
X11430Y26670
X46355Y12700
X32385Y17780
X19050Y29845
X33020Y6667
X34608Y6985
X45085Y6985
X22225Y11430
X37465Y6985
X38100Y16510
T8
X31750Y6667
X32385Y14287
X36195Y13652
X33655Y14287
X38735Y13652
X35560Y12382
M30