G04 EAGLE Gerber X2 export*
%TF.Part,Single*%
%TF.FileFunction,Profile,NP*%
%TF.FilePolarity,Positive*%
%TF.GenerationSoftware,Autodesk,EAGLE,9.0.0*%
%TF.CreationDate,2018-07-03T14:12:15Z*%
G75*
%MOMM*%
%FSLAX34Y34*%
%LPD*%
%AMOC8*
5,1,8,0,0,1.08239X$1,22.5*%
G01*
%ADD10C,0.254000*%


D10*
X-1016Y0D02*
X547116Y0D01*
X547116Y558800D01*
X-1016Y558800D01*
X-1016Y0D01*
X136000Y59476D02*
X135932Y58431D01*
X135795Y57392D01*
X135590Y56365D01*
X135319Y55353D01*
X134983Y54361D01*
X134582Y53393D01*
X134118Y52454D01*
X133595Y51546D01*
X133013Y50675D01*
X132375Y49844D01*
X131684Y49057D01*
X130943Y48316D01*
X130156Y47625D01*
X129325Y46988D01*
X128454Y46406D01*
X127546Y45882D01*
X126607Y45418D01*
X125639Y45017D01*
X124647Y44681D01*
X123635Y44410D01*
X122608Y44205D01*
X121569Y44069D01*
X120524Y44000D01*
X119476Y44000D01*
X118431Y44069D01*
X117392Y44205D01*
X116365Y44410D01*
X115353Y44681D01*
X114361Y45017D01*
X113393Y45418D01*
X112454Y45882D01*
X111546Y46406D01*
X110675Y46988D01*
X109844Y47625D01*
X109057Y48316D01*
X108316Y49057D01*
X107625Y49844D01*
X106988Y50675D01*
X106406Y51546D01*
X105882Y52454D01*
X105418Y53393D01*
X105017Y54361D01*
X104681Y55353D01*
X104410Y56365D01*
X104205Y57392D01*
X104069Y58431D01*
X104000Y59476D01*
X104000Y60524D01*
X104069Y61569D01*
X104205Y62608D01*
X104410Y63635D01*
X104681Y64647D01*
X105017Y65639D01*
X105418Y66607D01*
X105882Y67546D01*
X106406Y68454D01*
X106988Y69325D01*
X107625Y70156D01*
X108316Y70943D01*
X109057Y71684D01*
X109844Y72375D01*
X110675Y73013D01*
X111546Y73595D01*
X112454Y74118D01*
X113393Y74582D01*
X114361Y74983D01*
X115353Y75319D01*
X116365Y75590D01*
X117392Y75795D01*
X118431Y75932D01*
X119476Y76000D01*
X120524Y76000D01*
X121569Y75932D01*
X122608Y75795D01*
X123635Y75590D01*
X124647Y75319D01*
X125639Y74983D01*
X126607Y74582D01*
X127546Y74118D01*
X128454Y73595D01*
X129325Y73013D01*
X130156Y72375D01*
X130943Y71684D01*
X131684Y70943D01*
X132375Y70156D01*
X133013Y69325D01*
X133595Y68454D01*
X134118Y67546D01*
X134582Y66607D01*
X134983Y65639D01*
X135319Y64647D01*
X135590Y63635D01*
X135795Y62608D01*
X135932Y61569D01*
X136000Y60524D01*
X136000Y59476D01*
X276000Y59476D02*
X275932Y58431D01*
X275795Y57392D01*
X275590Y56365D01*
X275319Y55353D01*
X274983Y54361D01*
X274582Y53393D01*
X274118Y52454D01*
X273595Y51546D01*
X273013Y50675D01*
X272375Y49844D01*
X271684Y49057D01*
X270943Y48316D01*
X270156Y47625D01*
X269325Y46988D01*
X268454Y46406D01*
X267546Y45882D01*
X266607Y45418D01*
X265639Y45017D01*
X264647Y44681D01*
X263635Y44410D01*
X262608Y44205D01*
X261569Y44069D01*
X260524Y44000D01*
X259476Y44000D01*
X258431Y44069D01*
X257392Y44205D01*
X256365Y44410D01*
X255353Y44681D01*
X254361Y45017D01*
X253393Y45418D01*
X252454Y45882D01*
X251546Y46406D01*
X250675Y46988D01*
X249844Y47625D01*
X249057Y48316D01*
X248316Y49057D01*
X247625Y49844D01*
X246988Y50675D01*
X246406Y51546D01*
X245882Y52454D01*
X245418Y53393D01*
X245017Y54361D01*
X244681Y55353D01*
X244410Y56365D01*
X244205Y57392D01*
X244069Y58431D01*
X244000Y59476D01*
X244000Y60524D01*
X244069Y61569D01*
X244205Y62608D01*
X244410Y63635D01*
X244681Y64647D01*
X245017Y65639D01*
X245418Y66607D01*
X245882Y67546D01*
X246406Y68454D01*
X246988Y69325D01*
X247625Y70156D01*
X248316Y70943D01*
X249057Y71684D01*
X249844Y72375D01*
X250675Y73013D01*
X251546Y73595D01*
X252454Y74118D01*
X253393Y74582D01*
X254361Y74983D01*
X255353Y75319D01*
X256365Y75590D01*
X257392Y75795D01*
X258431Y75932D01*
X259476Y76000D01*
X260524Y76000D01*
X261569Y75932D01*
X262608Y75795D01*
X263635Y75590D01*
X264647Y75319D01*
X265639Y74983D01*
X266607Y74582D01*
X267546Y74118D01*
X268454Y73595D01*
X269325Y73013D01*
X270156Y72375D01*
X270943Y71684D01*
X271684Y70943D01*
X272375Y70156D01*
X273013Y69325D01*
X273595Y68454D01*
X274118Y67546D01*
X274582Y66607D01*
X274983Y65639D01*
X275319Y64647D01*
X275590Y63635D01*
X275795Y62608D01*
X275932Y61569D01*
X276000Y60524D01*
X276000Y59476D01*
X436000Y59476D02*
X435932Y58431D01*
X435795Y57392D01*
X435590Y56365D01*
X435319Y55353D01*
X434983Y54361D01*
X434582Y53393D01*
X434118Y52454D01*
X433595Y51546D01*
X433013Y50675D01*
X432375Y49844D01*
X431684Y49057D01*
X430943Y48316D01*
X430156Y47625D01*
X429325Y46988D01*
X428454Y46406D01*
X427546Y45882D01*
X426607Y45418D01*
X425639Y45017D01*
X424647Y44681D01*
X423635Y44410D01*
X422608Y44205D01*
X421569Y44069D01*
X420524Y44000D01*
X419476Y44000D01*
X418431Y44069D01*
X417392Y44205D01*
X416365Y44410D01*
X415353Y44681D01*
X414361Y45017D01*
X413393Y45418D01*
X412454Y45882D01*
X411546Y46406D01*
X410675Y46988D01*
X409844Y47625D01*
X409057Y48316D01*
X408316Y49057D01*
X407625Y49844D01*
X406988Y50675D01*
X406406Y51546D01*
X405882Y52454D01*
X405418Y53393D01*
X405017Y54361D01*
X404681Y55353D01*
X404410Y56365D01*
X404205Y57392D01*
X404069Y58431D01*
X404000Y59476D01*
X404000Y60524D01*
X404069Y61569D01*
X404205Y62608D01*
X404410Y63635D01*
X404681Y64647D01*
X405017Y65639D01*
X405418Y66607D01*
X405882Y67546D01*
X406406Y68454D01*
X406988Y69325D01*
X407625Y70156D01*
X408316Y70943D01*
X409057Y71684D01*
X409844Y72375D01*
X410675Y73013D01*
X411546Y73595D01*
X412454Y74118D01*
X413393Y74582D01*
X414361Y74983D01*
X415353Y75319D01*
X416365Y75590D01*
X417392Y75795D01*
X418431Y75932D01*
X419476Y76000D01*
X420524Y76000D01*
X421569Y75932D01*
X422608Y75795D01*
X423635Y75590D01*
X424647Y75319D01*
X425639Y74983D01*
X426607Y74582D01*
X427546Y74118D01*
X428454Y73595D01*
X429325Y73013D01*
X430156Y72375D01*
X430943Y71684D01*
X431684Y70943D01*
X432375Y70156D01*
X433013Y69325D01*
X433595Y68454D01*
X434118Y67546D01*
X434582Y66607D01*
X434983Y65639D01*
X435319Y64647D01*
X435590Y63635D01*
X435795Y62608D01*
X435932Y61569D01*
X436000Y60524D01*
X436000Y59476D01*
X76000Y499476D02*
X75932Y498431D01*
X75795Y497392D01*
X75590Y496365D01*
X75319Y495353D01*
X74983Y494361D01*
X74582Y493393D01*
X74118Y492454D01*
X73595Y491546D01*
X73013Y490675D01*
X72375Y489844D01*
X71684Y489057D01*
X70943Y488316D01*
X70156Y487625D01*
X69325Y486988D01*
X68454Y486406D01*
X67546Y485882D01*
X66607Y485418D01*
X65639Y485017D01*
X64647Y484681D01*
X63635Y484410D01*
X62608Y484205D01*
X61569Y484069D01*
X60524Y484000D01*
X59476Y484000D01*
X58431Y484069D01*
X57392Y484205D01*
X56365Y484410D01*
X55353Y484681D01*
X54361Y485017D01*
X53393Y485418D01*
X52454Y485882D01*
X51546Y486406D01*
X50675Y486988D01*
X49844Y487625D01*
X49057Y488316D01*
X48316Y489057D01*
X47625Y489844D01*
X46988Y490675D01*
X46406Y491546D01*
X45882Y492454D01*
X45418Y493393D01*
X45017Y494361D01*
X44681Y495353D01*
X44410Y496365D01*
X44205Y497392D01*
X44069Y498431D01*
X44000Y499476D01*
X44000Y500524D01*
X44069Y501569D01*
X44205Y502608D01*
X44410Y503635D01*
X44681Y504647D01*
X45017Y505639D01*
X45418Y506607D01*
X45882Y507546D01*
X46406Y508454D01*
X46988Y509325D01*
X47625Y510156D01*
X48316Y510943D01*
X49057Y511684D01*
X49844Y512375D01*
X50675Y513013D01*
X51546Y513595D01*
X52454Y514118D01*
X53393Y514582D01*
X54361Y514983D01*
X55353Y515319D01*
X56365Y515590D01*
X57392Y515795D01*
X58431Y515932D01*
X59476Y516000D01*
X60524Y516000D01*
X61569Y515932D01*
X62608Y515795D01*
X63635Y515590D01*
X64647Y515319D01*
X65639Y514983D01*
X66607Y514582D01*
X67546Y514118D01*
X68454Y513595D01*
X69325Y513013D01*
X70156Y512375D01*
X70943Y511684D01*
X71684Y510943D01*
X72375Y510156D01*
X73013Y509325D01*
X73595Y508454D01*
X74118Y507546D01*
X74582Y506607D01*
X74983Y505639D01*
X75319Y504647D01*
X75590Y503635D01*
X75795Y502608D01*
X75932Y501569D01*
X76000Y500524D01*
X76000Y499476D01*
X496000Y499476D02*
X495932Y498431D01*
X495795Y497392D01*
X495590Y496365D01*
X495319Y495353D01*
X494983Y494361D01*
X494582Y493393D01*
X494118Y492454D01*
X493595Y491546D01*
X493013Y490675D01*
X492375Y489844D01*
X491684Y489057D01*
X490943Y488316D01*
X490156Y487625D01*
X489325Y486988D01*
X488454Y486406D01*
X487546Y485882D01*
X486607Y485418D01*
X485639Y485017D01*
X484647Y484681D01*
X483635Y484410D01*
X482608Y484205D01*
X481569Y484069D01*
X480524Y484000D01*
X479476Y484000D01*
X478431Y484069D01*
X477392Y484205D01*
X476365Y484410D01*
X475353Y484681D01*
X474361Y485017D01*
X473393Y485418D01*
X472454Y485882D01*
X471546Y486406D01*
X470675Y486988D01*
X469844Y487625D01*
X469057Y488316D01*
X468316Y489057D01*
X467625Y489844D01*
X466988Y490675D01*
X466406Y491546D01*
X465882Y492454D01*
X465418Y493393D01*
X465017Y494361D01*
X464681Y495353D01*
X464410Y496365D01*
X464205Y497392D01*
X464069Y498431D01*
X464000Y499476D01*
X464000Y500524D01*
X464069Y501569D01*
X464205Y502608D01*
X464410Y503635D01*
X464681Y504647D01*
X465017Y505639D01*
X465418Y506607D01*
X465882Y507546D01*
X466406Y508454D01*
X466988Y509325D01*
X467625Y510156D01*
X468316Y510943D01*
X469057Y511684D01*
X469844Y512375D01*
X470675Y513013D01*
X471546Y513595D01*
X472454Y514118D01*
X473393Y514582D01*
X474361Y514983D01*
X475353Y515319D01*
X476365Y515590D01*
X477392Y515795D01*
X478431Y515932D01*
X479476Y516000D01*
X480524Y516000D01*
X481569Y515932D01*
X482608Y515795D01*
X483635Y515590D01*
X484647Y515319D01*
X485639Y514983D01*
X486607Y514582D01*
X487546Y514118D01*
X488454Y513595D01*
X489325Y513013D01*
X490156Y512375D01*
X490943Y511684D01*
X491684Y510943D01*
X492375Y510156D01*
X493013Y509325D01*
X493595Y508454D01*
X494118Y507546D01*
X494582Y506607D01*
X494983Y505639D01*
X495319Y504647D01*
X495590Y503635D01*
X495795Y502608D01*
X495932Y501569D01*
X496000Y500524D01*
X496000Y499476D01*
X76000Y419476D02*
X75932Y418431D01*
X75795Y417392D01*
X75590Y416365D01*
X75319Y415353D01*
X74983Y414361D01*
X74582Y413393D01*
X74118Y412454D01*
X73595Y411546D01*
X73013Y410675D01*
X72375Y409844D01*
X71684Y409057D01*
X70943Y408316D01*
X70156Y407625D01*
X69325Y406988D01*
X68454Y406406D01*
X67546Y405882D01*
X66607Y405418D01*
X65639Y405017D01*
X64647Y404681D01*
X63635Y404410D01*
X62608Y404205D01*
X61569Y404069D01*
X60524Y404000D01*
X59476Y404000D01*
X58431Y404069D01*
X57392Y404205D01*
X56365Y404410D01*
X55353Y404681D01*
X54361Y405017D01*
X53393Y405418D01*
X52454Y405882D01*
X51546Y406406D01*
X50675Y406988D01*
X49844Y407625D01*
X49057Y408316D01*
X48316Y409057D01*
X47625Y409844D01*
X46988Y410675D01*
X46406Y411546D01*
X45882Y412454D01*
X45418Y413393D01*
X45017Y414361D01*
X44681Y415353D01*
X44410Y416365D01*
X44205Y417392D01*
X44069Y418431D01*
X44000Y419476D01*
X44000Y420524D01*
X44069Y421569D01*
X44205Y422608D01*
X44410Y423635D01*
X44681Y424647D01*
X45017Y425639D01*
X45418Y426607D01*
X45882Y427546D01*
X46406Y428454D01*
X46988Y429325D01*
X47625Y430156D01*
X48316Y430943D01*
X49057Y431684D01*
X49844Y432375D01*
X50675Y433013D01*
X51546Y433595D01*
X52454Y434118D01*
X53393Y434582D01*
X54361Y434983D01*
X55353Y435319D01*
X56365Y435590D01*
X57392Y435795D01*
X58431Y435932D01*
X59476Y436000D01*
X60524Y436000D01*
X61569Y435932D01*
X62608Y435795D01*
X63635Y435590D01*
X64647Y435319D01*
X65639Y434983D01*
X66607Y434582D01*
X67546Y434118D01*
X68454Y433595D01*
X69325Y433013D01*
X70156Y432375D01*
X70943Y431684D01*
X71684Y430943D01*
X72375Y430156D01*
X73013Y429325D01*
X73595Y428454D01*
X74118Y427546D01*
X74582Y426607D01*
X74983Y425639D01*
X75319Y424647D01*
X75590Y423635D01*
X75795Y422608D01*
X75932Y421569D01*
X76000Y420524D01*
X76000Y419476D01*
X496000Y419476D02*
X495932Y418431D01*
X495795Y417392D01*
X495590Y416365D01*
X495319Y415353D01*
X494983Y414361D01*
X494582Y413393D01*
X494118Y412454D01*
X493595Y411546D01*
X493013Y410675D01*
X492375Y409844D01*
X491684Y409057D01*
X490943Y408316D01*
X490156Y407625D01*
X489325Y406988D01*
X488454Y406406D01*
X487546Y405882D01*
X486607Y405418D01*
X485639Y405017D01*
X484647Y404681D01*
X483635Y404410D01*
X482608Y404205D01*
X481569Y404069D01*
X480524Y404000D01*
X479476Y404000D01*
X478431Y404069D01*
X477392Y404205D01*
X476365Y404410D01*
X475353Y404681D01*
X474361Y405017D01*
X473393Y405418D01*
X472454Y405882D01*
X471546Y406406D01*
X470675Y406988D01*
X469844Y407625D01*
X469057Y408316D01*
X468316Y409057D01*
X467625Y409844D01*
X466988Y410675D01*
X466406Y411546D01*
X465882Y412454D01*
X465418Y413393D01*
X465017Y414361D01*
X464681Y415353D01*
X464410Y416365D01*
X464205Y417392D01*
X464069Y418431D01*
X464000Y419476D01*
X464000Y420524D01*
X464069Y421569D01*
X464205Y422608D01*
X464410Y423635D01*
X464681Y424647D01*
X465017Y425639D01*
X465418Y426607D01*
X465882Y427546D01*
X466406Y428454D01*
X466988Y429325D01*
X467625Y430156D01*
X468316Y430943D01*
X469057Y431684D01*
X469844Y432375D01*
X470675Y433013D01*
X471546Y433595D01*
X472454Y434118D01*
X473393Y434582D01*
X474361Y434983D01*
X475353Y435319D01*
X476365Y435590D01*
X477392Y435795D01*
X478431Y435932D01*
X479476Y436000D01*
X480524Y436000D01*
X481569Y435932D01*
X482608Y435795D01*
X483635Y435590D01*
X484647Y435319D01*
X485639Y434983D01*
X486607Y434582D01*
X487546Y434118D01*
X488454Y433595D01*
X489325Y433013D01*
X490156Y432375D01*
X490943Y431684D01*
X491684Y430943D01*
X492375Y430156D01*
X493013Y429325D01*
X493595Y428454D01*
X494118Y427546D01*
X494582Y426607D01*
X494983Y425639D01*
X495319Y424647D01*
X495590Y423635D01*
X495795Y422608D01*
X495932Y421569D01*
X496000Y420524D01*
X496000Y419476D01*
X136000Y59476D02*
X135932Y58431D01*
X135795Y57392D01*
X135590Y56365D01*
X135319Y55353D01*
X134983Y54361D01*
X134582Y53393D01*
X134118Y52454D01*
X133595Y51546D01*
X133013Y50675D01*
X132375Y49844D01*
X131684Y49057D01*
X130943Y48316D01*
X130156Y47625D01*
X129325Y46988D01*
X128454Y46406D01*
X127546Y45882D01*
X126607Y45418D01*
X125639Y45017D01*
X124647Y44681D01*
X123635Y44410D01*
X122608Y44205D01*
X121569Y44069D01*
X120524Y44000D01*
X119476Y44000D01*
X118431Y44069D01*
X117392Y44205D01*
X116365Y44410D01*
X115353Y44681D01*
X114361Y45017D01*
X113393Y45418D01*
X112454Y45882D01*
X111546Y46406D01*
X110675Y46988D01*
X109844Y47625D01*
X109057Y48316D01*
X108316Y49057D01*
X107625Y49844D01*
X106988Y50675D01*
X106406Y51546D01*
X105882Y52454D01*
X105418Y53393D01*
X105017Y54361D01*
X104681Y55353D01*
X104410Y56365D01*
X104205Y57392D01*
X104069Y58431D01*
X104000Y59476D01*
X104000Y60524D01*
X104069Y61569D01*
X104205Y62608D01*
X104410Y63635D01*
X104681Y64647D01*
X105017Y65639D01*
X105418Y66607D01*
X105882Y67546D01*
X106406Y68454D01*
X106988Y69325D01*
X107625Y70156D01*
X108316Y70943D01*
X109057Y71684D01*
X109844Y72375D01*
X110675Y73013D01*
X111546Y73595D01*
X112454Y74118D01*
X113393Y74582D01*
X114361Y74983D01*
X115353Y75319D01*
X116365Y75590D01*
X117392Y75795D01*
X118431Y75932D01*
X119476Y76000D01*
X120524Y76000D01*
X121569Y75932D01*
X122608Y75795D01*
X123635Y75590D01*
X124647Y75319D01*
X125639Y74983D01*
X126607Y74582D01*
X127546Y74118D01*
X128454Y73595D01*
X129325Y73013D01*
X130156Y72375D01*
X130943Y71684D01*
X131684Y70943D01*
X132375Y70156D01*
X133013Y69325D01*
X133595Y68454D01*
X134118Y67546D01*
X134582Y66607D01*
X134983Y65639D01*
X135319Y64647D01*
X135590Y63635D01*
X135795Y62608D01*
X135932Y61569D01*
X136000Y60524D01*
X136000Y59476D01*
X276000Y59476D02*
X275932Y58431D01*
X275795Y57392D01*
X275590Y56365D01*
X275319Y55353D01*
X274983Y54361D01*
X274582Y53393D01*
X274118Y52454D01*
X273595Y51546D01*
X273013Y50675D01*
X272375Y49844D01*
X271684Y49057D01*
X270943Y48316D01*
X270156Y47625D01*
X269325Y46988D01*
X268454Y46406D01*
X267546Y45882D01*
X266607Y45418D01*
X265639Y45017D01*
X264647Y44681D01*
X263635Y44410D01*
X262608Y44205D01*
X261569Y44069D01*
X260524Y44000D01*
X259476Y44000D01*
X258431Y44069D01*
X257392Y44205D01*
X256365Y44410D01*
X255353Y44681D01*
X254361Y45017D01*
X253393Y45418D01*
X252454Y45882D01*
X251546Y46406D01*
X250675Y46988D01*
X249844Y47625D01*
X249057Y48316D01*
X248316Y49057D01*
X247625Y49844D01*
X246988Y50675D01*
X246406Y51546D01*
X245882Y52454D01*
X245418Y53393D01*
X245017Y54361D01*
X244681Y55353D01*
X244410Y56365D01*
X244205Y57392D01*
X244069Y58431D01*
X244000Y59476D01*
X244000Y60524D01*
X244069Y61569D01*
X244205Y62608D01*
X244410Y63635D01*
X244681Y64647D01*
X245017Y65639D01*
X245418Y66607D01*
X245882Y67546D01*
X246406Y68454D01*
X246988Y69325D01*
X247625Y70156D01*
X248316Y70943D01*
X249057Y71684D01*
X249844Y72375D01*
X250675Y73013D01*
X251546Y73595D01*
X252454Y74118D01*
X253393Y74582D01*
X254361Y74983D01*
X255353Y75319D01*
X256365Y75590D01*
X257392Y75795D01*
X258431Y75932D01*
X259476Y76000D01*
X260524Y76000D01*
X261569Y75932D01*
X262608Y75795D01*
X263635Y75590D01*
X264647Y75319D01*
X265639Y74983D01*
X266607Y74582D01*
X267546Y74118D01*
X268454Y73595D01*
X269325Y73013D01*
X270156Y72375D01*
X270943Y71684D01*
X271684Y70943D01*
X272375Y70156D01*
X273013Y69325D01*
X273595Y68454D01*
X274118Y67546D01*
X274582Y66607D01*
X274983Y65639D01*
X275319Y64647D01*
X275590Y63635D01*
X275795Y62608D01*
X275932Y61569D01*
X276000Y60524D01*
X276000Y59476D01*
X436000Y59476D02*
X435932Y58431D01*
X435795Y57392D01*
X435590Y56365D01*
X435319Y55353D01*
X434983Y54361D01*
X434582Y53393D01*
X434118Y52454D01*
X433595Y51546D01*
X433013Y50675D01*
X432375Y49844D01*
X431684Y49057D01*
X430943Y48316D01*
X430156Y47625D01*
X429325Y46988D01*
X428454Y46406D01*
X427546Y45882D01*
X426607Y45418D01*
X425639Y45017D01*
X424647Y44681D01*
X423635Y44410D01*
X422608Y44205D01*
X421569Y44069D01*
X420524Y44000D01*
X419476Y44000D01*
X418431Y44069D01*
X417392Y44205D01*
X416365Y44410D01*
X415353Y44681D01*
X414361Y45017D01*
X413393Y45418D01*
X412454Y45882D01*
X411546Y46406D01*
X410675Y46988D01*
X409844Y47625D01*
X409057Y48316D01*
X408316Y49057D01*
X407625Y49844D01*
X406988Y50675D01*
X406406Y51546D01*
X405882Y52454D01*
X405418Y53393D01*
X405017Y54361D01*
X404681Y55353D01*
X404410Y56365D01*
X404205Y57392D01*
X404069Y58431D01*
X404000Y59476D01*
X404000Y60524D01*
X404069Y61569D01*
X404205Y62608D01*
X404410Y63635D01*
X404681Y64647D01*
X405017Y65639D01*
X405418Y66607D01*
X405882Y67546D01*
X406406Y68454D01*
X406988Y69325D01*
X407625Y70156D01*
X408316Y70943D01*
X409057Y71684D01*
X409844Y72375D01*
X410675Y73013D01*
X411546Y73595D01*
X412454Y74118D01*
X413393Y74582D01*
X414361Y74983D01*
X415353Y75319D01*
X416365Y75590D01*
X417392Y75795D01*
X418431Y75932D01*
X419476Y76000D01*
X420524Y76000D01*
X421569Y75932D01*
X422608Y75795D01*
X423635Y75590D01*
X424647Y75319D01*
X425639Y74983D01*
X426607Y74582D01*
X427546Y74118D01*
X428454Y73595D01*
X429325Y73013D01*
X430156Y72375D01*
X430943Y71684D01*
X431684Y70943D01*
X432375Y70156D01*
X433013Y69325D01*
X433595Y68454D01*
X434118Y67546D01*
X434582Y66607D01*
X434983Y65639D01*
X435319Y64647D01*
X435590Y63635D01*
X435795Y62608D01*
X435932Y61569D01*
X436000Y60524D01*
X436000Y59476D01*
X76000Y499476D02*
X75932Y498431D01*
X75795Y497392D01*
X75590Y496365D01*
X75319Y495353D01*
X74983Y494361D01*
X74582Y493393D01*
X74118Y492454D01*
X73595Y491546D01*
X73013Y490675D01*
X72375Y489844D01*
X71684Y489057D01*
X70943Y488316D01*
X70156Y487625D01*
X69325Y486988D01*
X68454Y486406D01*
X67546Y485882D01*
X66607Y485418D01*
X65639Y485017D01*
X64647Y484681D01*
X63635Y484410D01*
X62608Y484205D01*
X61569Y484069D01*
X60524Y484000D01*
X59476Y484000D01*
X58431Y484069D01*
X57392Y484205D01*
X56365Y484410D01*
X55353Y484681D01*
X54361Y485017D01*
X53393Y485418D01*
X52454Y485882D01*
X51546Y486406D01*
X50675Y486988D01*
X49844Y487625D01*
X49057Y488316D01*
X48316Y489057D01*
X47625Y489844D01*
X46988Y490675D01*
X46406Y491546D01*
X45882Y492454D01*
X45418Y493393D01*
X45017Y494361D01*
X44681Y495353D01*
X44410Y496365D01*
X44205Y497392D01*
X44069Y498431D01*
X44000Y499476D01*
X44000Y500524D01*
X44069Y501569D01*
X44205Y502608D01*
X44410Y503635D01*
X44681Y504647D01*
X45017Y505639D01*
X45418Y506607D01*
X45882Y507546D01*
X46406Y508454D01*
X46988Y509325D01*
X47625Y510156D01*
X48316Y510943D01*
X49057Y511684D01*
X49844Y512375D01*
X50675Y513013D01*
X51546Y513595D01*
X52454Y514118D01*
X53393Y514582D01*
X54361Y514983D01*
X55353Y515319D01*
X56365Y515590D01*
X57392Y515795D01*
X58431Y515932D01*
X59476Y516000D01*
X60524Y516000D01*
X61569Y515932D01*
X62608Y515795D01*
X63635Y515590D01*
X64647Y515319D01*
X65639Y514983D01*
X66607Y514582D01*
X67546Y514118D01*
X68454Y513595D01*
X69325Y513013D01*
X70156Y512375D01*
X70943Y511684D01*
X71684Y510943D01*
X72375Y510156D01*
X73013Y509325D01*
X73595Y508454D01*
X74118Y507546D01*
X74582Y506607D01*
X74983Y505639D01*
X75319Y504647D01*
X75590Y503635D01*
X75795Y502608D01*
X75932Y501569D01*
X76000Y500524D01*
X76000Y499476D01*
X496000Y499476D02*
X495932Y498431D01*
X495795Y497392D01*
X495590Y496365D01*
X495319Y495353D01*
X494983Y494361D01*
X494582Y493393D01*
X494118Y492454D01*
X493595Y491546D01*
X493013Y490675D01*
X492375Y489844D01*
X491684Y489057D01*
X490943Y488316D01*
X490156Y487625D01*
X489325Y486988D01*
X488454Y486406D01*
X487546Y485882D01*
X486607Y485418D01*
X485639Y485017D01*
X484647Y484681D01*
X483635Y484410D01*
X482608Y484205D01*
X481569Y484069D01*
X480524Y484000D01*
X479476Y484000D01*
X478431Y484069D01*
X477392Y484205D01*
X476365Y484410D01*
X475353Y484681D01*
X474361Y485017D01*
X473393Y485418D01*
X472454Y485882D01*
X471546Y486406D01*
X470675Y486988D01*
X469844Y487625D01*
X469057Y488316D01*
X468316Y489057D01*
X467625Y489844D01*
X466988Y490675D01*
X466406Y491546D01*
X465882Y492454D01*
X465418Y493393D01*
X465017Y494361D01*
X464681Y495353D01*
X464410Y496365D01*
X464205Y497392D01*
X464069Y498431D01*
X464000Y499476D01*
X464000Y500524D01*
X464069Y501569D01*
X464205Y502608D01*
X464410Y503635D01*
X464681Y504647D01*
X465017Y505639D01*
X465418Y506607D01*
X465882Y507546D01*
X466406Y508454D01*
X466988Y509325D01*
X467625Y510156D01*
X468316Y510943D01*
X469057Y511684D01*
X469844Y512375D01*
X470675Y513013D01*
X471546Y513595D01*
X472454Y514118D01*
X473393Y514582D01*
X474361Y514983D01*
X475353Y515319D01*
X476365Y515590D01*
X477392Y515795D01*
X478431Y515932D01*
X479476Y516000D01*
X480524Y516000D01*
X481569Y515932D01*
X482608Y515795D01*
X483635Y515590D01*
X484647Y515319D01*
X485639Y514983D01*
X486607Y514582D01*
X487546Y514118D01*
X488454Y513595D01*
X489325Y513013D01*
X490156Y512375D01*
X490943Y511684D01*
X491684Y510943D01*
X492375Y510156D01*
X493013Y509325D01*
X493595Y508454D01*
X494118Y507546D01*
X494582Y506607D01*
X494983Y505639D01*
X495319Y504647D01*
X495590Y503635D01*
X495795Y502608D01*
X495932Y501569D01*
X496000Y500524D01*
X496000Y499476D01*
X76000Y419476D02*
X75932Y418431D01*
X75795Y417392D01*
X75590Y416365D01*
X75319Y415353D01*
X74983Y414361D01*
X74582Y413393D01*
X74118Y412454D01*
X73595Y411546D01*
X73013Y410675D01*
X72375Y409844D01*
X71684Y409057D01*
X70943Y408316D01*
X70156Y407625D01*
X69325Y406988D01*
X68454Y406406D01*
X67546Y405882D01*
X66607Y405418D01*
X65639Y405017D01*
X64647Y404681D01*
X63635Y404410D01*
X62608Y404205D01*
X61569Y404069D01*
X60524Y404000D01*
X59476Y404000D01*
X58431Y404069D01*
X57392Y404205D01*
X56365Y404410D01*
X55353Y404681D01*
X54361Y405017D01*
X53393Y405418D01*
X52454Y405882D01*
X51546Y406406D01*
X50675Y406988D01*
X49844Y407625D01*
X49057Y408316D01*
X48316Y409057D01*
X47625Y409844D01*
X46988Y410675D01*
X46406Y411546D01*
X45882Y412454D01*
X45418Y413393D01*
X45017Y414361D01*
X44681Y415353D01*
X44410Y416365D01*
X44205Y417392D01*
X44069Y418431D01*
X44000Y419476D01*
X44000Y420524D01*
X44069Y421569D01*
X44205Y422608D01*
X44410Y423635D01*
X44681Y424647D01*
X45017Y425639D01*
X45418Y426607D01*
X45882Y427546D01*
X46406Y428454D01*
X46988Y429325D01*
X47625Y430156D01*
X48316Y430943D01*
X49057Y431684D01*
X49844Y432375D01*
X50675Y433013D01*
X51546Y433595D01*
X52454Y434118D01*
X53393Y434582D01*
X54361Y434983D01*
X55353Y435319D01*
X56365Y435590D01*
X57392Y435795D01*
X58431Y435932D01*
X59476Y436000D01*
X60524Y436000D01*
X61569Y435932D01*
X62608Y435795D01*
X63635Y435590D01*
X64647Y435319D01*
X65639Y434983D01*
X66607Y434582D01*
X67546Y434118D01*
X68454Y433595D01*
X69325Y433013D01*
X70156Y432375D01*
X70943Y431684D01*
X71684Y430943D01*
X72375Y430156D01*
X73013Y429325D01*
X73595Y428454D01*
X74118Y427546D01*
X74582Y426607D01*
X74983Y425639D01*
X75319Y424647D01*
X75590Y423635D01*
X75795Y422608D01*
X75932Y421569D01*
X76000Y420524D01*
X76000Y419476D01*
X496000Y419476D02*
X495932Y418431D01*
X495795Y417392D01*
X495590Y416365D01*
X495319Y415353D01*
X494983Y414361D01*
X494582Y413393D01*
X494118Y412454D01*
X493595Y411546D01*
X493013Y410675D01*
X492375Y409844D01*
X491684Y409057D01*
X490943Y408316D01*
X490156Y407625D01*
X489325Y406988D01*
X488454Y406406D01*
X487546Y405882D01*
X486607Y405418D01*
X485639Y405017D01*
X484647Y404681D01*
X483635Y404410D01*
X482608Y404205D01*
X481569Y404069D01*
X480524Y404000D01*
X479476Y404000D01*
X478431Y404069D01*
X477392Y404205D01*
X476365Y404410D01*
X475353Y404681D01*
X474361Y405017D01*
X473393Y405418D01*
X472454Y405882D01*
X471546Y406406D01*
X470675Y406988D01*
X469844Y407625D01*
X469057Y408316D01*
X468316Y409057D01*
X467625Y409844D01*
X466988Y410675D01*
X466406Y411546D01*
X465882Y412454D01*
X465418Y413393D01*
X465017Y414361D01*
X464681Y415353D01*
X464410Y416365D01*
X464205Y417392D01*
X464069Y418431D01*
X464000Y419476D01*
X464000Y420524D01*
X464069Y421569D01*
X464205Y422608D01*
X464410Y423635D01*
X464681Y424647D01*
X465017Y425639D01*
X465418Y426607D01*
X465882Y427546D01*
X466406Y428454D01*
X466988Y429325D01*
X467625Y430156D01*
X468316Y430943D01*
X469057Y431684D01*
X469844Y432375D01*
X470675Y433013D01*
X471546Y433595D01*
X472454Y434118D01*
X473393Y434582D01*
X474361Y434983D01*
X475353Y435319D01*
X476365Y435590D01*
X477392Y435795D01*
X478431Y435932D01*
X479476Y436000D01*
X480524Y436000D01*
X481569Y435932D01*
X482608Y435795D01*
X483635Y435590D01*
X484647Y435319D01*
X485639Y434983D01*
X486607Y434582D01*
X487546Y434118D01*
X488454Y433595D01*
X489325Y433013D01*
X490156Y432375D01*
X490943Y431684D01*
X491684Y430943D01*
X492375Y430156D01*
X493013Y429325D01*
X493595Y428454D01*
X494118Y427546D01*
X494582Y426607D01*
X494983Y425639D01*
X495319Y424647D01*
X495590Y423635D01*
X495795Y422608D01*
X495932Y421569D01*
X496000Y420524D01*
X496000Y419476D01*
M02*
