G04 EAGLE Gerber X2 export*
%TF.Part,Single*%
%TF.FileFunction,Legend,Bot,1*%
%TF.FilePolarity,Positive*%
%TF.GenerationSoftware,Autodesk,EAGLE,9.0.0*%
%TF.CreationDate,2018-07-03T14:12:15Z*%
G75*
%MOMM*%
%FSLAX34Y34*%
%LPD*%
%AMOC8*
5,1,8,0,0,1.08239X$1,22.5*%
G01*
%ADD10C,0.152400*%
%ADD11R,47.625000X0.063500*%
%ADD12R,17.653000X0.063500*%
%ADD13R,29.591000X0.063500*%
%ADD14R,15.494000X0.063500*%
%ADD15R,1.587500X0.063500*%
%ADD16R,0.508000X0.063500*%
%ADD17R,1.968500X0.063500*%
%ADD18R,2.857500X0.063500*%
%ADD19R,1.206500X0.063500*%
%ADD20R,3.111500X0.063500*%
%ADD21R,15.113000X0.063500*%
%ADD22R,8.382000X0.063500*%
%ADD23R,1.397000X0.063500*%
%ADD24R,3.302000X0.063500*%
%ADD25R,1.333500X0.063500*%
%ADD26R,0.317500X0.063500*%
%ADD27R,1.524000X0.063500*%
%ADD28R,0.762000X0.063500*%
%ADD29R,1.016000X0.063500*%
%ADD30R,0.889000X0.063500*%
%ADD31R,1.143000X0.063500*%
%ADD32R,1.079500X0.063500*%
%ADD33R,14.922500X0.063500*%
%ADD34R,3.175000X0.063500*%
%ADD35R,0.190500X0.063500*%
%ADD36R,0.635000X0.063500*%
%ADD37R,0.254000X0.063500*%
%ADD38R,0.825500X0.063500*%
%ADD39R,0.952500X0.063500*%
%ADD40R,14.795500X0.063500*%
%ADD41R,0.127000X0.063500*%
%ADD42R,0.698500X0.063500*%
%ADD43R,14.732000X0.063500*%
%ADD44R,2.984500X0.063500*%
%ADD45R,0.063500X0.063500*%
%ADD46R,14.668500X0.063500*%
%ADD47R,8.445500X0.063500*%
%ADD48R,2.921000X0.063500*%
%ADD49R,0.444500X0.063500*%
%ADD50R,14.605000X0.063500*%
%ADD51R,8.509000X0.063500*%
%ADD52R,2.667000X0.063500*%
%ADD53R,1.714500X0.063500*%
%ADD54R,8.572500X0.063500*%
%ADD55R,2.794000X0.063500*%
%ADD56R,1.778000X0.063500*%
%ADD57R,14.541500X0.063500*%
%ADD58R,8.636000X0.063500*%
%ADD59R,2.540000X0.063500*%
%ADD60R,2.730500X0.063500*%
%ADD61R,1.841500X0.063500*%
%ADD62R,2.032000X0.063500*%
%ADD63R,8.699500X0.063500*%
%ADD64R,2.476500X0.063500*%
%ADD65R,1.905000X0.063500*%
%ADD66R,8.763000X0.063500*%
%ADD67R,2.413000X0.063500*%
%ADD68R,8.826500X0.063500*%
%ADD69R,2.349500X0.063500*%
%ADD70R,0.571500X0.063500*%
%ADD71R,8.890000X0.063500*%
%ADD72R,2.286000X0.063500*%
%ADD73R,2.603500X0.063500*%
%ADD74R,1.270000X0.063500*%
%ADD75R,8.953500X0.063500*%
%ADD76R,2.222500X0.063500*%
%ADD77R,1.651000X0.063500*%
%ADD78R,0.381000X0.063500*%
%ADD79R,9.017000X0.063500*%
%ADD80R,2.159000X0.063500*%
%ADD81R,9.080500X0.063500*%
%ADD82R,2.095500X0.063500*%
%ADD83R,9.144000X0.063500*%
%ADD84R,9.207500X0.063500*%
%ADD85R,1.460500X0.063500*%
%ADD86R,9.271000X0.063500*%
%ADD87R,9.334500X0.063500*%
%ADD88R,14.859000X0.063500*%
%ADD89R,9.398000X0.063500*%
%ADD90R,14.986000X0.063500*%
%ADD91R,9.461500X0.063500*%
%ADD92R,15.176500X0.063500*%
%ADD93R,9.525000X0.063500*%
%ADD94R,15.303500X0.063500*%
%ADD95R,15.430500X0.063500*%
%ADD96R,9.588500X0.063500*%
%ADD97R,9.652000X0.063500*%
%ADD98R,15.557500X0.063500*%
%ADD99R,9.715500X0.063500*%
%ADD100R,9.779000X0.063500*%
%ADD101R,9.842500X0.063500*%
%ADD102R,20.828000X0.063500*%
%ADD103R,4.445000X0.063500*%
%ADD104R,4.508500X0.063500*%
%ADD105R,4.635500X0.063500*%
%ADD106R,4.699000X0.063500*%
%ADD107R,4.762500X0.063500*%
%ADD108R,30.797500X0.063500*%
%ADD109R,4.889500X0.063500*%
%ADD110R,30.861000X0.063500*%
%ADD111R,5.080000X0.063500*%
%ADD112R,30.988000X0.063500*%
%ADD113R,5.270500X0.063500*%
%ADD114R,31.051500X0.063500*%
%ADD115R,5.588000X0.063500*%
%ADD116R,31.178500X0.063500*%
%ADD117R,31.305500X0.063500*%
%ADD118R,31.559500X0.063500*%
%ADD119R,32.512000X0.063500*%
%ADD120R,11.620500X0.063500*%
%ADD121R,4.826000X0.063500*%
%ADD122R,23.685500X0.063500*%
%ADD123R,23.495000X0.063500*%
%ADD124R,23.368000X0.063500*%
%ADD125R,23.304500X0.063500*%
%ADD126R,23.241000X0.063500*%
%ADD127R,23.177500X0.063500*%
%ADD128R,23.114000X0.063500*%
%ADD129R,3.048000X0.063500*%
%ADD130R,19.748500X0.063500*%
%ADD131R,18.478500X0.063500*%
%ADD132R,17.716500X0.063500*%
%ADD133R,17.589500X0.063500*%
%ADD134R,17.462500X0.063500*%
%ADD135R,17.399000X0.063500*%
%ADD136R,17.335500X0.063500*%
%ADD137R,17.272000X0.063500*%
%ADD138R,17.208500X0.063500*%
%ADD139R,17.145000X0.063500*%
%ADD140R,3.238500X0.063500*%
%ADD141R,17.081500X0.063500*%
%ADD142R,3.365500X0.063500*%
%ADD143R,4.318000X0.063500*%
%ADD144R,4.381500X0.063500*%
%ADD145R,5.905500X0.063500*%
%ADD146R,18.288000X0.063500*%
%ADD147R,4.191000X0.063500*%
%ADD148R,12.890500X0.063500*%
%ADD149R,4.064000X0.063500*%
%ADD150R,18.224500X0.063500*%
%ADD151R,12.954000X0.063500*%
%ADD152R,18.161000X0.063500*%
%ADD153R,3.937000X0.063500*%
%ADD154R,13.017500X0.063500*%
%ADD155R,3.873500X0.063500*%
%ADD156R,13.081000X0.063500*%
%ADD157R,8.064500X0.063500*%
%ADD158R,3.810000X0.063500*%
%ADD159R,13.208000X0.063500*%
%ADD160R,3.683000X0.063500*%
%ADD161R,8.128000X0.063500*%
%ADD162R,8.318500X0.063500*%
%ADD163R,13.271500X0.063500*%
%ADD164R,13.398500X0.063500*%
%ADD165R,13.462000X0.063500*%
%ADD166R,28.067000X0.063500*%
%ADD167R,13.589000X0.063500*%
%ADD168R,28.003500X0.063500*%
%ADD169R,13.652500X0.063500*%
%ADD170R,27.940000X0.063500*%
%ADD171R,13.716000X0.063500*%
%ADD172R,27.876500X0.063500*%
%ADD173R,13.843000X0.063500*%
%ADD174R,27.749500X0.063500*%
%ADD175R,13.906500X0.063500*%
%ADD176R,27.686000X0.063500*%
%ADD177R,13.970000X0.063500*%
%ADD178R,27.622500X0.063500*%
%ADD179R,14.097000X0.063500*%
%ADD180R,27.559000X0.063500*%
%ADD181R,14.160500X0.063500*%
%ADD182R,27.495500X0.063500*%
%ADD183R,14.287500X0.063500*%
%ADD184R,19.113500X0.063500*%
%ADD185R,8.001000X0.063500*%
%ADD186R,14.351000X0.063500*%
%ADD187R,18.859500X0.063500*%
%ADD188R,7.493000X0.063500*%
%ADD189R,14.414500X0.063500*%
%ADD190R,18.732500X0.063500*%
%ADD191R,7.112000X0.063500*%
%ADD192R,18.542000X0.063500*%
%ADD193R,6.921500X0.063500*%
%ADD194R,18.415000X0.063500*%
%ADD195R,6.667500X0.063500*%
%ADD196R,17.843500X0.063500*%
%ADD197R,6.413500X0.063500*%
%ADD198R,5.842000X0.063500*%
%ADD199R,7.366000X0.063500*%
%ADD200R,5.524500X0.063500*%
%ADD201R,5.334000X0.063500*%
%ADD202R,7.048500X0.063500*%
%ADD203R,5.143500X0.063500*%
%ADD204R,6.604000X0.063500*%
%ADD205R,6.286500X0.063500*%
%ADD206R,5.207000X0.063500*%
%ADD207R,3.429000X0.063500*%
%ADD208R,3.556000X0.063500*%
%ADD209R,4.953000X0.063500*%
%ADD210R,4.254500X0.063500*%
%ADD211R,4.127500X0.063500*%
%ADD212R,3.746500X0.063500*%
%ADD213R,3.619500X0.063500*%
%ADD214R,6.794500X0.063500*%
%ADD215R,6.731000X0.063500*%
%ADD216R,3.492500X0.063500*%
%ADD217R,8.255000X0.063500*%
%ADD218R,6.223000X0.063500*%
%ADD219R,6.096000X0.063500*%
%ADD220R,5.715000X0.063500*%
%ADD221R,5.651500X0.063500*%
%ADD222R,5.461000X0.063500*%
%ADD223R,5.397500X0.063500*%
%ADD224R,5.016500X0.063500*%
%ADD225R,10.096500X0.063500*%
%ADD226R,4.000500X0.063500*%
%ADD227R,9.906000X0.063500*%
%ADD228R,9.969500X0.063500*%
%ADD229R,10.033000X0.063500*%
%ADD230R,10.795000X0.063500*%
%ADD231R,11.239500X0.063500*%
%ADD232R,7.937500X0.063500*%
%ADD233R,10.350500X0.063500*%
%ADD234R,8.191500X0.063500*%
%ADD235R,7.620000X0.063500*%
%ADD236R,7.175500X0.063500*%
%ADD237R,7.556500X0.063500*%
%ADD238R,7.239000X0.063500*%
%ADD239R,7.874000X0.063500*%
%ADD240R,7.683500X0.063500*%
%ADD241R,7.429500X0.063500*%
%ADD242R,6.985000X0.063500*%
%ADD243R,7.810500X0.063500*%
%ADD244R,19.050000X0.063500*%
%ADD245R,7.302500X0.063500*%
%ADD246R,4.572000X0.063500*%
%ADD247R,19.177000X0.063500*%
%ADD248R,19.240500X0.063500*%
%ADD249R,19.304000X0.063500*%
%ADD250R,19.367500X0.063500*%
%ADD251R,6.858000X0.063500*%
%ADD252R,13.779500X0.063500*%
%ADD253R,6.540500X0.063500*%
%ADD254R,18.796000X0.063500*%
%ADD255R,20.129500X0.063500*%
%ADD256R,20.193000X0.063500*%
%ADD257R,20.256500X0.063500*%
%ADD258R,10.604500X0.063500*%
%ADD259R,20.320000X0.063500*%
%ADD260R,10.477500X0.063500*%
%ADD261R,10.287000X0.063500*%
%ADD262R,20.383500X0.063500*%
%ADD263R,10.223500X0.063500*%
%ADD264R,20.447000X0.063500*%
%ADD265R,12.319000X0.063500*%
%ADD266R,20.510500X0.063500*%
%ADD267R,12.446000X0.063500*%
%ADD268R,12.573000X0.063500*%
%ADD269R,11.874500X0.063500*%
%ADD270R,11.938000X0.063500*%
%ADD271R,12.001500X0.063500*%
%ADD272R,12.065000X0.063500*%
%ADD273R,12.636500X0.063500*%
%ADD274R,12.700000X0.063500*%
%ADD275R,6.477000X0.063500*%
%ADD276R,6.159500X0.063500*%
%ADD277R,12.509500X0.063500*%
%ADD278R,11.493500X0.063500*%
%ADD279R,11.303000X0.063500*%
%ADD280R,11.176000X0.063500*%
%ADD281R,11.049000X0.063500*%
%ADD282R,10.922000X0.063500*%
%ADD283R,10.858500X0.063500*%
%ADD284R,10.731500X0.063500*%
%ADD285R,7.747000X0.063500*%
%ADD286R,10.668000X0.063500*%
%ADD287R,10.985500X0.063500*%
%ADD288R,6.032500X0.063500*%
%ADD289R,10.160000X0.063500*%
%ADD290R,5.969000X0.063500*%
%ADD291R,10.541000X0.063500*%
%ADD292R,10.414000X0.063500*%
%ADD293R,5.778500X0.063500*%
%ADD294R,11.811000X0.063500*%
%ADD295R,11.747500X0.063500*%
%ADD296R,11.684000X0.063500*%
%ADD297R,11.557000X0.063500*%
%ADD298R,11.112500X0.063500*%
%ADD299R,11.366500X0.063500*%
%ADD300R,12.128500X0.063500*%
%ADD301R,6.350000X0.063500*%
%ADD302R,12.192000X0.063500*%
%ADD303R,12.255500X0.063500*%
%ADD304R,12.382500X0.063500*%
%ADD305R,12.763500X0.063500*%
%ADD306R,12.827000X0.063500*%
%ADD307R,22.606000X0.063500*%
%ADD308R,22.542500X0.063500*%
%ADD309R,22.479000X0.063500*%
%ADD310R,22.415500X0.063500*%
%ADD311R,22.352000X0.063500*%
%ADD312R,22.288500X0.063500*%
%ADD313R,22.225000X0.063500*%
%ADD314R,22.161500X0.063500*%
%ADD315R,22.098000X0.063500*%
%ADD316R,22.669500X0.063500*%
%ADD317R,22.733000X0.063500*%
%ADD318R,18.605500X0.063500*%
%ADD319R,22.796500X0.063500*%
%ADD320R,18.351500X0.063500*%
%ADD321R,22.860000X0.063500*%
%ADD322R,22.923500X0.063500*%
%ADD323R,22.987000X0.063500*%
%ADD324R,23.050500X0.063500*%
%ADD325R,19.431000X0.063500*%
%ADD326R,20.955000X0.063500*%
%ADD327R,21.018500X0.063500*%
%ADD328R,21.145500X0.063500*%
%ADD329R,23.431500X0.063500*%
%ADD330R,21.399500X0.063500*%
%ADD331R,23.558500X0.063500*%
%ADD332R,21.526500X0.063500*%
%ADD333R,23.812500X0.063500*%
%ADD334R,23.939500X0.063500*%
%ADD335R,24.130000X0.063500*%
%ADD336R,24.511000X0.063500*%
%ADD337R,24.574500X0.063500*%
%ADD338R,24.701500X0.063500*%
%ADD339R,24.765000X0.063500*%
%ADD340R,24.828500X0.063500*%
%ADD341R,24.955500X0.063500*%
%ADD342R,25.082500X0.063500*%
%ADD343R,30.734000X0.063500*%
%ADD344R,32.385000X0.063500*%
%ADD345C,0.050800*%


D10*
X377952Y24892D02*
X377952Y41162D01*
X377952Y33027D02*
X367105Y33027D01*
X367105Y41162D02*
X367105Y24892D01*
X361580Y27604D02*
X361580Y35739D01*
X361580Y27604D02*
X358869Y24892D01*
X350734Y24892D01*
X350734Y35739D01*
X339786Y19469D02*
X337074Y19469D01*
X334362Y22180D01*
X334362Y35739D01*
X342497Y35739D01*
X345209Y33027D01*
X345209Y27604D01*
X342497Y24892D01*
X334362Y24892D01*
X328837Y24892D02*
X328837Y41162D01*
X326126Y35739D02*
X328837Y33027D01*
X326126Y35739D02*
X320702Y35739D01*
X317991Y33027D01*
X317991Y24892D01*
X309754Y24892D02*
X304331Y24892D01*
X309754Y24892D02*
X312466Y27604D01*
X312466Y33027D01*
X309754Y35739D01*
X304331Y35739D01*
X301619Y33027D01*
X301619Y30315D01*
X312466Y30315D01*
X296094Y24892D02*
X287959Y24892D01*
X285248Y27604D01*
X287959Y30315D01*
X293383Y30315D01*
X296094Y33027D01*
X293383Y35739D01*
X285248Y35739D01*
X263351Y41162D02*
X252504Y41162D01*
X263351Y41162D02*
X263351Y24892D01*
X252504Y24892D01*
X257928Y33027D02*
X263351Y33027D01*
X246980Y41162D02*
X244268Y41162D01*
X244268Y24892D01*
X246980Y24892D02*
X241556Y24892D01*
X233354Y24892D02*
X227930Y24892D01*
X233354Y24892D02*
X236065Y27604D01*
X236065Y33027D01*
X233354Y35739D01*
X227930Y35739D01*
X225219Y33027D01*
X225219Y30315D01*
X236065Y30315D01*
X216982Y35739D02*
X208847Y35739D01*
X216982Y35739D02*
X219694Y33027D01*
X219694Y27604D01*
X216982Y24892D01*
X208847Y24892D01*
X200610Y27604D02*
X200610Y38450D01*
X200610Y27604D02*
X197899Y24892D01*
X197899Y35739D02*
X203322Y35739D01*
X192408Y35739D02*
X192408Y24892D01*
X192408Y30315D02*
X186984Y35739D01*
X184273Y35739D01*
X176053Y24892D02*
X170630Y24892D01*
X167918Y27604D01*
X167918Y33027D01*
X170630Y35739D01*
X176053Y35739D01*
X178765Y33027D01*
X178765Y27604D01*
X176053Y24892D01*
X162393Y24892D02*
X162393Y35739D01*
X154258Y35739D01*
X151547Y33027D01*
X151547Y24892D01*
X146022Y35739D02*
X143310Y35739D01*
X143310Y24892D01*
X146022Y24892D02*
X140598Y24892D01*
X143310Y41162D02*
X143310Y43874D01*
X132396Y35739D02*
X124261Y35739D01*
X132396Y35739D02*
X135107Y33027D01*
X135107Y27604D01*
X132396Y24892D01*
X124261Y24892D01*
X118736Y24892D02*
X110601Y24892D01*
X107889Y27604D01*
X110601Y30315D01*
X116024Y30315D01*
X118736Y33027D01*
X116024Y35739D01*
X107889Y35739D01*
D11*
X269558Y57150D03*
X269558Y57785D03*
X269558Y58420D03*
X269558Y59055D03*
X269558Y59690D03*
X269558Y60325D03*
X269558Y60960D03*
X269558Y61595D03*
X269558Y62230D03*
X269558Y62865D03*
X269558Y63500D03*
X269558Y64135D03*
X269558Y64770D03*
X269558Y65405D03*
X269558Y66040D03*
X269558Y66675D03*
X269558Y67310D03*
X269558Y67945D03*
X269558Y68580D03*
X269558Y69215D03*
X269558Y69850D03*
X269558Y70485D03*
X269558Y71120D03*
X269558Y71755D03*
X269558Y72390D03*
X269558Y73025D03*
X269558Y73660D03*
X269558Y74295D03*
X269558Y74930D03*
X269558Y75565D03*
X269558Y76200D03*
X269558Y76835D03*
X269558Y77470D03*
X269558Y78105D03*
X269558Y78740D03*
X269558Y79375D03*
X269558Y80010D03*
X269558Y80645D03*
D12*
X419418Y81280D03*
D13*
X179388Y81280D03*
D12*
X419418Y81915D03*
D13*
X179388Y81915D03*
D12*
X419418Y82550D03*
D13*
X179388Y82550D03*
D12*
X419418Y83185D03*
D13*
X179388Y83185D03*
D12*
X419418Y83820D03*
D13*
X179388Y83820D03*
D12*
X419418Y84455D03*
D13*
X179388Y84455D03*
D12*
X419418Y85090D03*
D13*
X179388Y85090D03*
D12*
X419418Y85725D03*
D13*
X179388Y85725D03*
D12*
X419418Y86360D03*
D13*
X179388Y86360D03*
D12*
X419418Y86995D03*
D13*
X179388Y86995D03*
D12*
X419418Y87630D03*
D13*
X179388Y87630D03*
D12*
X419418Y88265D03*
D13*
X179388Y88265D03*
D12*
X419418Y88900D03*
D13*
X179388Y88900D03*
D14*
X430213Y89535D03*
D15*
X339090Y89535D03*
D16*
X324803Y89535D03*
D17*
X307975Y89535D03*
D18*
X278130Y89535D03*
D17*
X249555Y89535D03*
D19*
X229235Y89535D03*
D20*
X203200Y89535D03*
D21*
X106998Y89535D03*
D22*
X465773Y90170D03*
D23*
X397828Y90170D03*
D24*
X371793Y90170D03*
D25*
X337820Y90170D03*
D26*
X325755Y90170D03*
D27*
X308293Y90170D03*
D28*
X286068Y90170D03*
D25*
X271780Y90170D03*
D26*
X255905Y90170D03*
D29*
X246063Y90170D03*
D30*
X229553Y90170D03*
D31*
X210503Y90170D03*
D32*
X195580Y90170D03*
D33*
X106045Y90170D03*
D22*
X465773Y90805D03*
D23*
X397828Y90805D03*
D34*
X372428Y90805D03*
D19*
X337185Y90805D03*
D35*
X326390Y90805D03*
D25*
X307975Y90805D03*
D36*
X285433Y90805D03*
D19*
X272415Y90805D03*
D37*
X255588Y90805D03*
D30*
X246698Y90805D03*
D38*
X230505Y90805D03*
D29*
X209868Y90805D03*
D39*
X196215Y90805D03*
D40*
X105410Y90805D03*
D22*
X465773Y91440D03*
D23*
X397828Y91440D03*
D20*
X372745Y91440D03*
D32*
X336550Y91440D03*
D41*
X326708Y91440D03*
D31*
X308293Y91440D03*
D36*
X285433Y91440D03*
D31*
X272733Y91440D03*
D41*
X254953Y91440D03*
D30*
X246698Y91440D03*
D42*
X231140Y91440D03*
D39*
X209550Y91440D03*
X196215Y91440D03*
D43*
X105093Y91440D03*
D22*
X465773Y92075D03*
D23*
X397828Y92075D03*
D44*
X373380Y92075D03*
D29*
X336233Y92075D03*
D45*
X327025Y92075D03*
D29*
X308293Y92075D03*
D42*
X285750Y92075D03*
D32*
X273050Y92075D03*
D45*
X254635Y92075D03*
D38*
X247015Y92075D03*
D36*
X231458Y92075D03*
D30*
X209233Y92075D03*
D29*
X195898Y92075D03*
D46*
X104775Y92075D03*
D47*
X465455Y92710D03*
D23*
X397828Y92710D03*
D48*
X373698Y92710D03*
D49*
X349885Y92710D03*
D39*
X335915Y92710D03*
D16*
X320993Y92710D03*
D30*
X308293Y92710D03*
D42*
X294640Y92710D03*
X285750Y92710D03*
D32*
X273050Y92710D03*
D49*
X260350Y92710D03*
D38*
X247015Y92710D03*
D30*
X233363Y92710D03*
D16*
X220663Y92710D03*
D38*
X208915Y92710D03*
D29*
X195898Y92710D03*
D16*
X185103Y92710D03*
D50*
X104458Y92710D03*
D51*
X465138Y93345D03*
D52*
X404178Y93345D03*
D18*
X374015Y93345D03*
D38*
X349885Y93345D03*
D30*
X335598Y93345D03*
D42*
X320675Y93345D03*
D28*
X308293Y93345D03*
D53*
X290830Y93345D03*
D29*
X273368Y93345D03*
D42*
X260350Y93345D03*
D28*
X247333Y93345D03*
D39*
X234315Y93345D03*
D42*
X220980Y93345D03*
D28*
X208598Y93345D03*
D29*
X195898Y93345D03*
D28*
X185738Y93345D03*
D50*
X104458Y93345D03*
D54*
X464820Y93980D03*
D52*
X404178Y93980D03*
D55*
X374333Y93980D03*
D29*
X349568Y93980D03*
D38*
X335280Y93980D03*
D30*
X320993Y93980D03*
D28*
X308293Y93980D03*
D56*
X291148Y93980D03*
D29*
X273368Y93980D03*
D28*
X260033Y93980D03*
X247333Y93980D03*
D39*
X234315Y93980D03*
D30*
X220663Y93980D03*
D42*
X208280Y93980D03*
D17*
X191135Y93980D03*
D57*
X104140Y93980D03*
D58*
X464503Y94615D03*
D59*
X403543Y94615D03*
D60*
X374650Y94615D03*
D19*
X349885Y94615D03*
D28*
X334963Y94615D03*
D29*
X320993Y94615D03*
D36*
X308293Y94615D03*
D61*
X291465Y94615D03*
D29*
X273368Y94615D03*
D30*
X260033Y94615D03*
D28*
X247333Y94615D03*
D39*
X234950Y94615D03*
X220980Y94615D03*
D36*
X207963Y94615D03*
D62*
X190818Y94615D03*
D57*
X104140Y94615D03*
D63*
X464185Y95250D03*
D64*
X403225Y95250D03*
D60*
X374650Y95250D03*
D25*
X349885Y95250D03*
D42*
X334645Y95250D03*
D32*
X320675Y95250D03*
D36*
X308293Y95250D03*
D65*
X291783Y95250D03*
D29*
X273368Y95250D03*
D30*
X260033Y95250D03*
D28*
X247333Y95250D03*
D39*
X234950Y95250D03*
D32*
X220980Y95250D03*
D36*
X207963Y95250D03*
D62*
X190818Y95250D03*
D57*
X104140Y95250D03*
D66*
X463868Y95885D03*
D67*
X402908Y95885D03*
D52*
X374968Y95885D03*
D23*
X349568Y95885D03*
D42*
X334645Y95885D03*
D31*
X320993Y95885D03*
D16*
X308293Y95885D03*
D17*
X292100Y95885D03*
D29*
X273368Y95885D03*
D39*
X259715Y95885D03*
D28*
X247333Y95885D03*
D30*
X235268Y95885D03*
D31*
X220663Y95885D03*
D36*
X207963Y95885D03*
D62*
X190818Y95885D03*
D57*
X104140Y95885D03*
D68*
X463550Y96520D03*
D69*
X402590Y96520D03*
D52*
X374968Y96520D03*
D27*
X349568Y96520D03*
D36*
X334328Y96520D03*
D19*
X320675Y96520D03*
D16*
X308293Y96520D03*
D17*
X292100Y96520D03*
D29*
X273368Y96520D03*
D39*
X259715Y96520D03*
D28*
X247333Y96520D03*
D30*
X235268Y96520D03*
D19*
X220980Y96520D03*
D70*
X207645Y96520D03*
D62*
X190818Y96520D03*
D57*
X104140Y96520D03*
D71*
X463233Y97155D03*
D72*
X402273Y97155D03*
D73*
X375285Y97155D03*
D15*
X349885Y97155D03*
D36*
X334328Y97155D03*
D19*
X320675Y97155D03*
D16*
X308293Y97155D03*
D17*
X292100Y97155D03*
D29*
X273368Y97155D03*
D39*
X259715Y97155D03*
D28*
X247333Y97155D03*
D30*
X235268Y97155D03*
D74*
X220663Y97155D03*
D70*
X207645Y97155D03*
D62*
X190818Y97155D03*
D57*
X104140Y97155D03*
D75*
X462915Y97790D03*
D76*
X401955Y97790D03*
D73*
X375285Y97790D03*
D77*
X349568Y97790D03*
D70*
X334010Y97790D03*
D74*
X320993Y97790D03*
D78*
X308293Y97790D03*
D62*
X292418Y97790D03*
D29*
X273368Y97790D03*
D30*
X259398Y97790D03*
D28*
X247333Y97790D03*
D38*
X235585Y97790D03*
D74*
X220663Y97790D03*
D70*
X207645Y97790D03*
D17*
X191135Y97790D03*
D57*
X104140Y97790D03*
D79*
X462598Y98425D03*
D80*
X401638Y98425D03*
D59*
X375603Y98425D03*
D53*
X349885Y98425D03*
D70*
X334010Y98425D03*
D25*
X320675Y98425D03*
D78*
X308293Y98425D03*
D62*
X292418Y98425D03*
D32*
X273050Y98425D03*
D30*
X259398Y98425D03*
D28*
X247333Y98425D03*
D38*
X235585Y98425D03*
D25*
X220980Y98425D03*
D16*
X207328Y98425D03*
D65*
X191453Y98425D03*
D50*
X104458Y98425D03*
D81*
X462280Y99060D03*
D82*
X401320Y99060D03*
D59*
X375603Y99060D03*
D56*
X349568Y99060D03*
D70*
X334010Y99060D03*
D25*
X320675Y99060D03*
D78*
X308293Y99060D03*
D62*
X292418Y99060D03*
D32*
X273050Y99060D03*
D38*
X259080Y99060D03*
D28*
X247333Y99060D03*
D38*
X235585Y99060D03*
D23*
X220663Y99060D03*
D16*
X207328Y99060D03*
D56*
X192088Y99060D03*
D50*
X104458Y99060D03*
D83*
X461963Y99695D03*
D82*
X401320Y99695D03*
D59*
X375603Y99695D03*
D61*
X349885Y99695D03*
D16*
X333693Y99695D03*
D25*
X320675Y99695D03*
D78*
X308293Y99695D03*
D62*
X292418Y99695D03*
D31*
X272733Y99695D03*
D28*
X258763Y99695D03*
X247333Y99695D03*
D38*
X235585Y99695D03*
D23*
X220663Y99695D03*
D16*
X207328Y99695D03*
D77*
X192723Y99695D03*
D46*
X104775Y99695D03*
D84*
X461645Y100330D03*
D62*
X401003Y100330D03*
D64*
X375920Y100330D03*
D61*
X349885Y100330D03*
D16*
X333693Y100330D03*
D25*
X320675Y100330D03*
D78*
X308293Y100330D03*
D62*
X292418Y100330D03*
D19*
X272415Y100330D03*
D70*
X257810Y100330D03*
D28*
X247333Y100330D03*
D38*
X235585Y100330D03*
D23*
X220663Y100330D03*
D16*
X207328Y100330D03*
D85*
X193675Y100330D03*
D43*
X105093Y100330D03*
D86*
X461328Y100965D03*
D39*
X405765Y100965D03*
D23*
X370523Y100965D03*
D65*
X349568Y100965D03*
D16*
X333693Y100965D03*
D25*
X320675Y100965D03*
D78*
X308293Y100965D03*
D16*
X284798Y100965D03*
D74*
X272098Y100965D03*
D37*
X256223Y100965D03*
D28*
X247333Y100965D03*
D38*
X235585Y100965D03*
D23*
X220663Y100965D03*
D16*
X207328Y100965D03*
D25*
X194310Y100965D03*
D40*
X105410Y100965D03*
D87*
X461010Y101600D03*
D30*
X405448Y101600D03*
D23*
X370523Y101600D03*
D65*
X349568Y101600D03*
D16*
X333693Y101600D03*
D25*
X320675Y101600D03*
D78*
X308293Y101600D03*
D16*
X284798Y101600D03*
D25*
X271780Y101600D03*
D28*
X247333Y101600D03*
D38*
X235585Y101600D03*
D23*
X220663Y101600D03*
D16*
X207328Y101600D03*
D74*
X194628Y101600D03*
D88*
X105728Y101600D03*
D89*
X460693Y102235D03*
D38*
X405130Y102235D03*
D23*
X370523Y102235D03*
D17*
X349885Y102235D03*
D49*
X333375Y102235D03*
D25*
X320675Y102235D03*
D78*
X308293Y102235D03*
D16*
X284798Y102235D03*
D85*
X271145Y102235D03*
D28*
X247333Y102235D03*
D38*
X235585Y102235D03*
D23*
X220663Y102235D03*
D16*
X207328Y102235D03*
D19*
X194945Y102235D03*
D90*
X106363Y102235D03*
D91*
X460375Y102870D03*
D28*
X404813Y102870D03*
D23*
X370523Y102870D03*
D17*
X349885Y102870D03*
D49*
X333375Y102870D03*
D25*
X320675Y102870D03*
D78*
X308293Y102870D03*
D16*
X284798Y102870D03*
D15*
X270510Y102870D03*
D28*
X247333Y102870D03*
D38*
X235585Y102870D03*
D23*
X220663Y102870D03*
D16*
X207328Y102870D03*
D31*
X195263Y102870D03*
D92*
X107315Y102870D03*
D93*
X460058Y103505D03*
D56*
X399733Y103505D03*
D67*
X375603Y103505D03*
D17*
X349885Y103505D03*
D49*
X333375Y103505D03*
D25*
X320675Y103505D03*
D78*
X308293Y103505D03*
D31*
X296863Y103505D03*
D16*
X284798Y103505D03*
D65*
X268923Y103505D03*
D28*
X247333Y103505D03*
D38*
X235585Y103505D03*
D25*
X220980Y103505D03*
D16*
X207328Y103505D03*
D32*
X195580Y103505D03*
D94*
X107950Y103505D03*
D93*
X460058Y104140D03*
D53*
X399415Y104140D03*
D64*
X375920Y104140D03*
D62*
X349568Y104140D03*
D49*
X333375Y104140D03*
D19*
X320675Y104140D03*
D49*
X307975Y104140D03*
D31*
X296863Y104140D03*
D16*
X284798Y104140D03*
D72*
X266383Y104140D03*
D28*
X247333Y104140D03*
D38*
X235585Y104140D03*
D74*
X220663Y104140D03*
D70*
X207645Y104140D03*
D29*
X195263Y104140D03*
D95*
X108585Y104140D03*
D96*
X459740Y104775D03*
D77*
X399098Y104775D03*
D64*
X375920Y104775D03*
D62*
X349568Y104775D03*
D49*
X333375Y104775D03*
D19*
X320675Y104775D03*
D49*
X307975Y104775D03*
D32*
X296545Y104775D03*
D16*
X284798Y104775D03*
D72*
X266383Y104775D03*
D28*
X247333Y104775D03*
D30*
X235268Y104775D03*
D74*
X220663Y104775D03*
D70*
X207645Y104775D03*
D39*
X195580Y104775D03*
D14*
X108903Y104775D03*
D97*
X459423Y105410D03*
D77*
X399098Y105410D03*
D64*
X375920Y105410D03*
D62*
X349568Y105410D03*
D49*
X333375Y105410D03*
D19*
X320675Y105410D03*
D16*
X308293Y105410D03*
D32*
X296545Y105410D03*
D70*
X285115Y105410D03*
D72*
X266383Y105410D03*
D28*
X247333Y105410D03*
D30*
X235268Y105410D03*
D19*
X220980Y105410D03*
D70*
X207645Y105410D03*
D39*
X195580Y105410D03*
D98*
X109220Y105410D03*
D97*
X459423Y106045D03*
D15*
X398780Y106045D03*
D64*
X375920Y106045D03*
D62*
X349568Y106045D03*
D49*
X333375Y106045D03*
D32*
X320675Y106045D03*
D16*
X308293Y106045D03*
D29*
X296863Y106045D03*
D70*
X285115Y106045D03*
D76*
X266065Y106045D03*
D28*
X247333Y106045D03*
D30*
X235268Y106045D03*
D31*
X220663Y106045D03*
D70*
X207645Y106045D03*
D30*
X195263Y106045D03*
D98*
X109220Y106045D03*
D99*
X459105Y106680D03*
D15*
X398780Y106680D03*
D64*
X375920Y106680D03*
D62*
X349568Y106680D03*
D49*
X333375Y106680D03*
D32*
X320675Y106680D03*
D70*
X307975Y106680D03*
D39*
X296545Y106680D03*
D70*
X285115Y106680D03*
D80*
X266383Y106680D03*
D38*
X247650Y106680D03*
D39*
X234950Y106680D03*
D32*
X220980Y106680D03*
D36*
X207963Y106680D03*
D30*
X195263Y106680D03*
D98*
X109220Y106680D03*
D99*
X459105Y107315D03*
D27*
X398463Y107315D03*
D64*
X375920Y107315D03*
D17*
X349885Y107315D03*
D49*
X333375Y107315D03*
D39*
X320675Y107315D03*
D36*
X308293Y107315D03*
D39*
X296545Y107315D03*
D36*
X285433Y107315D03*
D82*
X266065Y107315D03*
D38*
X247650Y107315D03*
D39*
X234950Y107315D03*
D29*
X220663Y107315D03*
D36*
X207963Y107315D03*
D38*
X194945Y107315D03*
D98*
X109220Y107315D03*
D100*
X458788Y107950D03*
D27*
X398463Y107950D03*
D64*
X375920Y107950D03*
D17*
X349885Y107950D03*
D49*
X333375Y107950D03*
D38*
X320675Y107950D03*
D42*
X307975Y107950D03*
D38*
X296545Y107950D03*
D36*
X285433Y107950D03*
D17*
X266065Y107950D03*
D38*
X247650Y107950D03*
D29*
X234633Y107950D03*
D30*
X220663Y107950D03*
D42*
X208280Y107950D03*
D28*
X194628Y107950D03*
D98*
X109220Y107950D03*
D100*
X458788Y108585D03*
D27*
X398463Y108585D03*
D64*
X375920Y108585D03*
D17*
X349885Y108585D03*
D49*
X333375Y108585D03*
D42*
X320675Y108585D03*
D38*
X307975Y108585D03*
D42*
X296545Y108585D03*
X285750Y108585D03*
D45*
X278765Y108585D03*
D38*
X270510Y108585D03*
X260985Y108585D03*
D30*
X247968Y108585D03*
D29*
X234633Y108585D03*
D28*
X220663Y108585D03*
D42*
X208280Y108585D03*
D45*
X201295Y108585D03*
D42*
X193675Y108585D03*
D14*
X108903Y108585D03*
D100*
X458788Y109220D03*
D85*
X398145Y109220D03*
D64*
X375920Y109220D03*
D65*
X349568Y109220D03*
D16*
X333693Y109220D03*
D41*
X327343Y109220D03*
D49*
X320675Y109220D03*
D30*
X308293Y109220D03*
D70*
X296545Y109220D03*
D42*
X285750Y109220D03*
D41*
X278448Y109220D03*
D16*
X268923Y109220D03*
D70*
X260350Y109220D03*
X249555Y109220D03*
D16*
X231458Y109220D03*
X220663Y109220D03*
D28*
X208598Y109220D03*
D41*
X200978Y109220D03*
D78*
X192088Y109220D03*
D70*
X182880Y109220D03*
D46*
X104775Y109220D03*
D101*
X458470Y109855D03*
D85*
X398145Y109855D03*
D64*
X375920Y109855D03*
D65*
X349568Y109855D03*
D16*
X333693Y109855D03*
D41*
X327343Y109855D03*
D39*
X307975Y109855D03*
D35*
X296545Y109855D03*
D28*
X286068Y109855D03*
D41*
X278448Y109855D03*
D16*
X268923Y109855D03*
D36*
X249873Y109855D03*
D70*
X231140Y109855D03*
D38*
X208915Y109855D03*
D41*
X200978Y109855D03*
D49*
X191770Y109855D03*
D46*
X104775Y109855D03*
D101*
X458470Y110490D03*
D85*
X398145Y110490D03*
D59*
X375603Y110490D03*
D61*
X349885Y110490D03*
D16*
X333693Y110490D03*
D37*
X326708Y110490D03*
D32*
X307975Y110490D03*
D38*
X286385Y110490D03*
D35*
X278130Y110490D03*
D49*
X269240Y110490D03*
D42*
X250190Y110490D03*
D36*
X230823Y110490D03*
D30*
X209233Y110490D03*
D35*
X200660Y110490D03*
D16*
X191453Y110490D03*
D46*
X104775Y110490D03*
D101*
X458470Y111125D03*
D85*
X398145Y111125D03*
D59*
X375603Y111125D03*
D61*
X349885Y111125D03*
D16*
X333693Y111125D03*
D26*
X326390Y111125D03*
D25*
X307975Y111125D03*
D30*
X286703Y111125D03*
D37*
X277813Y111125D03*
D16*
X268923Y111125D03*
D28*
X250508Y111125D03*
X230188Y111125D03*
D29*
X209868Y111125D03*
D37*
X200343Y111125D03*
D70*
X191135Y111125D03*
D50*
X104458Y111125D03*
D101*
X458470Y111760D03*
D85*
X398145Y111760D03*
D59*
X375603Y111760D03*
D56*
X349568Y111760D03*
D16*
X333693Y111760D03*
D49*
X325755Y111760D03*
D85*
X307975Y111760D03*
D29*
X287338Y111760D03*
D26*
X277495Y111760D03*
D36*
X268288Y111760D03*
D38*
X250825Y111760D03*
D30*
X229553Y111760D03*
D31*
X210503Y111760D03*
D26*
X200025Y111760D03*
D42*
X190500Y111760D03*
D43*
X105093Y111760D03*
D101*
X458470Y112395D03*
D85*
X398145Y112395D03*
D59*
X375603Y112395D03*
D53*
X349885Y112395D03*
D27*
X329248Y112395D03*
D61*
X307975Y112395D03*
D17*
X283845Y112395D03*
D30*
X267018Y112395D03*
D25*
X250190Y112395D03*
D77*
X231458Y112395D03*
D80*
X207328Y112395D03*
D38*
X189865Y112395D03*
D33*
X106045Y112395D03*
D100*
X458788Y113030D03*
D85*
X398145Y113030D03*
D73*
X375285Y113030D03*
D77*
X349568Y113030D03*
D87*
X290195Y113030D03*
D102*
X135573Y113030D03*
D100*
X458788Y113665D03*
D85*
X398145Y113665D03*
D73*
X375285Y113665D03*
D15*
X349885Y113665D03*
D89*
X290513Y113665D03*
D102*
X135573Y113665D03*
D100*
X458788Y114300D03*
D103*
X383858Y114300D03*
D27*
X349568Y114300D03*
D89*
X290513Y114300D03*
D102*
X135573Y114300D03*
D54*
X464820Y114935D03*
D29*
X415608Y114935D03*
D103*
X383858Y114935D03*
D23*
X349568Y114935D03*
D91*
X290830Y114935D03*
D102*
X135573Y114935D03*
D54*
X464820Y115570D03*
D30*
X415608Y115570D03*
D104*
X383540Y115570D03*
D25*
X349885Y115570D03*
D91*
X290830Y115570D03*
D102*
X135573Y115570D03*
D51*
X465138Y116205D03*
D42*
X415290Y116205D03*
D105*
X383540Y116205D03*
D19*
X349885Y116205D03*
D93*
X291148Y116205D03*
D102*
X135573Y116205D03*
D51*
X465138Y116840D03*
D26*
X415290Y116840D03*
D106*
X383223Y116840D03*
D29*
X349568Y116840D03*
D100*
X290513Y116840D03*
D102*
X135573Y116840D03*
D51*
X465138Y117475D03*
D107*
X383540Y117475D03*
D38*
X349885Y117475D03*
D108*
X185420Y117475D03*
D54*
X464820Y118110D03*
D109*
X383540Y118110D03*
D16*
X349568Y118110D03*
D110*
X185738Y118110D03*
D63*
X464185Y118745D03*
D111*
X383223Y118745D03*
D112*
X186373Y118745D03*
D68*
X463550Y119380D03*
D113*
X383540Y119380D03*
D114*
X186690Y119380D03*
D81*
X462280Y120015D03*
D115*
X383858Y120015D03*
D116*
X187325Y120015D03*
D94*
X431165Y120650D03*
D117*
X187960Y120650D03*
D98*
X429895Y121285D03*
D118*
X189230Y121285D03*
D11*
X269558Y121920D03*
X269558Y122555D03*
X269558Y123190D03*
X269558Y123825D03*
X269558Y124460D03*
X269558Y125095D03*
X269558Y125730D03*
X269558Y126365D03*
X269558Y127000D03*
X269558Y127635D03*
X269558Y128270D03*
X269558Y128905D03*
X269558Y129540D03*
X269558Y130175D03*
X269558Y130810D03*
X269558Y131445D03*
X269558Y132080D03*
X269558Y132715D03*
X269558Y133350D03*
X270193Y133985D03*
X269558Y134620D03*
X269558Y135255D03*
X269558Y135890D03*
D43*
X434023Y136525D03*
D119*
X193993Y136525D03*
D43*
X434023Y137160D03*
D119*
X193993Y137160D03*
D43*
X434023Y137795D03*
D119*
X193993Y137795D03*
D43*
X434023Y138430D03*
D119*
X193993Y138430D03*
D43*
X434023Y139065D03*
D119*
X193993Y139065D03*
D43*
X434023Y139700D03*
D119*
X193993Y139700D03*
D43*
X434023Y140335D03*
D119*
X193993Y140335D03*
D43*
X434023Y140970D03*
D119*
X193993Y140970D03*
D43*
X434023Y141605D03*
D119*
X193993Y141605D03*
D43*
X434023Y142240D03*
D119*
X193993Y142240D03*
D43*
X434023Y142875D03*
D119*
X193993Y142875D03*
D43*
X434023Y143510D03*
D119*
X193993Y143510D03*
D43*
X434023Y144145D03*
D119*
X193993Y144145D03*
D120*
X449580Y144780D03*
D15*
X377825Y144780D03*
D16*
X362903Y144780D03*
D19*
X350520Y144780D03*
D121*
X315913Y144780D03*
D74*
X279718Y144780D03*
D122*
X149860Y144780D03*
D54*
X464820Y145415D03*
D31*
X412433Y145415D03*
D38*
X398145Y145415D03*
D31*
X377508Y145415D03*
D26*
X361950Y145415D03*
D32*
X351155Y145415D03*
D78*
X336233Y145415D03*
D42*
X327660Y145415D03*
D36*
X317183Y145415D03*
D15*
X302260Y145415D03*
D28*
X279718Y145415D03*
D123*
X148908Y145415D03*
D54*
X464820Y146050D03*
D31*
X412433Y146050D03*
D28*
X399098Y146050D03*
D39*
X377190Y146050D03*
D35*
X361315Y146050D03*
D29*
X351473Y146050D03*
D37*
X335598Y146050D03*
D42*
X327660Y146050D03*
D36*
X317183Y146050D03*
D27*
X302578Y146050D03*
D16*
X279718Y146050D03*
D124*
X148273Y146050D03*
D54*
X464820Y146685D03*
D31*
X412433Y146685D03*
D42*
X399415Y146685D03*
D38*
X377825Y146685D03*
D41*
X360998Y146685D03*
D39*
X351790Y146685D03*
D35*
X335280Y146685D03*
D42*
X327660Y146685D03*
D36*
X317183Y146685D03*
D23*
X303213Y146685D03*
D16*
X279718Y146685D03*
D125*
X147955Y146685D03*
D54*
X464820Y147320D03*
D32*
X412750Y147320D03*
D36*
X399733Y147320D03*
D38*
X378460Y147320D03*
D45*
X360680Y147320D03*
D30*
X352108Y147320D03*
D41*
X334963Y147320D03*
D42*
X327660Y147320D03*
D36*
X317183Y147320D03*
D25*
X303530Y147320D03*
D36*
X279718Y147320D03*
D126*
X147638Y147320D03*
D54*
X464820Y147955D03*
D32*
X412750Y147955D03*
D36*
X400368Y147955D03*
D42*
X387985Y147955D03*
D38*
X378460Y147955D03*
D78*
X366713Y147955D03*
D45*
X360680Y147955D03*
D38*
X352425Y147955D03*
D37*
X340678Y147955D03*
D45*
X334645Y147955D03*
D42*
X327660Y147955D03*
D36*
X317183Y147955D03*
D74*
X303848Y147955D03*
D42*
X288290Y147955D03*
D36*
X279718Y147955D03*
D16*
X270828Y147955D03*
D127*
X147320Y147955D03*
D54*
X464820Y148590D03*
D32*
X412750Y148590D03*
D70*
X400685Y148590D03*
D56*
X383858Y148590D03*
D36*
X366713Y148590D03*
D38*
X352425Y148590D03*
D70*
X340360Y148590D03*
D42*
X327660Y148590D03*
D36*
X317183Y148590D03*
D19*
X304165Y148590D03*
D77*
X284798Y148590D03*
D28*
X271463Y148590D03*
D127*
X147320Y148590D03*
D54*
X464820Y149225D03*
D32*
X412750Y149225D03*
D70*
X400685Y149225D03*
D56*
X384493Y149225D03*
D38*
X366395Y149225D03*
D28*
X352743Y149225D03*
D42*
X340360Y149225D03*
X327660Y149225D03*
D36*
X317183Y149225D03*
D19*
X304165Y149225D03*
D52*
X280353Y149225D03*
D128*
X147003Y149225D03*
D54*
X464820Y149860D03*
D29*
X413068Y149860D03*
D16*
X401003Y149860D03*
D61*
X384810Y149860D03*
D39*
X366395Y149860D03*
D28*
X352743Y149860D03*
D38*
X340360Y149860D03*
D42*
X327660Y149860D03*
D36*
X317183Y149860D03*
D31*
X304483Y149860D03*
D55*
X280353Y149860D03*
D128*
X147003Y149860D03*
D54*
X464820Y150495D03*
D29*
X413068Y150495D03*
D70*
X401320Y150495D03*
D61*
X385445Y150495D03*
D29*
X366713Y150495D03*
D28*
X352743Y150495D03*
D39*
X340360Y150495D03*
D42*
X327660Y150495D03*
D36*
X317183Y150495D03*
D31*
X304483Y150495D03*
D18*
X280670Y150495D03*
D128*
X147003Y150495D03*
D54*
X464820Y151130D03*
D29*
X413068Y151130D03*
D16*
X401638Y151130D03*
D65*
X385763Y151130D03*
D32*
X366395Y151130D03*
D42*
X353060Y151130D03*
D39*
X340360Y151130D03*
D42*
X327660Y151130D03*
D36*
X317183Y151130D03*
D32*
X304800Y151130D03*
D48*
X280988Y151130D03*
D128*
X147003Y151130D03*
D54*
X464820Y151765D03*
D29*
X413068Y151765D03*
D16*
X401638Y151765D03*
D65*
X385763Y151765D03*
D31*
X366713Y151765D03*
D42*
X353060Y151765D03*
D29*
X340043Y151765D03*
D42*
X327660Y151765D03*
D36*
X317183Y151765D03*
D32*
X304800Y151765D03*
D48*
X280988Y151765D03*
D128*
X147003Y151765D03*
D54*
X464820Y152400D03*
D39*
X413385Y152400D03*
D16*
X401638Y152400D03*
D61*
X386080Y152400D03*
D19*
X366395Y152400D03*
D42*
X353060Y152400D03*
D32*
X340360Y152400D03*
D42*
X327660Y152400D03*
D36*
X317183Y152400D03*
D32*
X304800Y152400D03*
D48*
X280988Y152400D03*
D129*
X247333Y152400D03*
D130*
X130175Y152400D03*
D54*
X464820Y153035D03*
D39*
X413385Y153035D03*
D16*
X402273Y153035D03*
D65*
X386398Y153035D03*
D19*
X366395Y153035D03*
D42*
X353060Y153035D03*
D32*
X340360Y153035D03*
D42*
X327660Y153035D03*
D36*
X317183Y153035D03*
D29*
X305118Y153035D03*
D48*
X281623Y153035D03*
X247968Y153035D03*
D42*
X224155Y153035D03*
D131*
X123825Y153035D03*
D54*
X464820Y153670D03*
D39*
X413385Y153670D03*
D16*
X402273Y153670D03*
D65*
X386398Y153670D03*
D74*
X366713Y153670D03*
D42*
X353060Y153670D03*
D32*
X340360Y153670D03*
D42*
X327660Y153670D03*
D36*
X317183Y153670D03*
D29*
X305118Y153670D03*
D18*
X281940Y153670D03*
D48*
X248603Y153670D03*
D35*
X226060Y153670D03*
D132*
X120015Y153670D03*
D54*
X464820Y154305D03*
D39*
X413385Y154305D03*
D16*
X402273Y154305D03*
D65*
X386398Y154305D03*
D74*
X366713Y154305D03*
D42*
X353060Y154305D03*
D32*
X340360Y154305D03*
D42*
X327660Y154305D03*
D36*
X317183Y154305D03*
D29*
X305118Y154305D03*
D60*
X282575Y154305D03*
X249555Y154305D03*
D12*
X119698Y154305D03*
D54*
X464820Y154940D03*
D30*
X413703Y154940D03*
D16*
X402273Y154940D03*
D65*
X386398Y154940D03*
D74*
X366713Y154940D03*
D42*
X353060Y154940D03*
D32*
X340360Y154940D03*
D42*
X327660Y154940D03*
D36*
X317183Y154940D03*
D29*
X305118Y154940D03*
D73*
X283210Y154940D03*
D55*
X249873Y154940D03*
D133*
X119380Y154940D03*
D54*
X464820Y155575D03*
D30*
X413703Y155575D03*
D70*
X402590Y155575D03*
D65*
X386398Y155575D03*
D74*
X366713Y155575D03*
D42*
X353060Y155575D03*
D32*
X340360Y155575D03*
D42*
X327660Y155575D03*
D36*
X317183Y155575D03*
D29*
X305118Y155575D03*
D67*
X284163Y155575D03*
X252413Y155575D03*
D133*
X119380Y155575D03*
D54*
X464820Y156210D03*
D38*
X414020Y156210D03*
D70*
X402590Y156210D03*
D78*
X378778Y156210D03*
D74*
X366713Y156210D03*
D42*
X353060Y156210D03*
D32*
X340360Y156210D03*
D42*
X327660Y156210D03*
D36*
X317183Y156210D03*
D29*
X305118Y156210D03*
D28*
X277178Y156210D03*
D67*
X253048Y156210D03*
D133*
X119380Y156210D03*
D54*
X464820Y156845D03*
D28*
X414338Y156845D03*
D36*
X402908Y156845D03*
D78*
X378778Y156845D03*
D74*
X366713Y156845D03*
D42*
X353060Y156845D03*
D32*
X340360Y156845D03*
D42*
X327660Y156845D03*
D36*
X317183Y156845D03*
D29*
X305118Y156845D03*
D42*
X277495Y156845D03*
D67*
X253683Y156845D03*
D41*
X230188Y156845D03*
D78*
X218758Y156845D03*
D134*
X118745Y156845D03*
D54*
X464820Y157480D03*
D42*
X414655Y157480D03*
D36*
X402908Y157480D03*
D78*
X378778Y157480D03*
D74*
X366713Y157480D03*
D42*
X353060Y157480D03*
D32*
X340360Y157480D03*
D42*
X327660Y157480D03*
D36*
X317183Y157480D03*
D29*
X305118Y157480D03*
D36*
X277813Y157480D03*
D59*
X254318Y157480D03*
D37*
X230188Y157480D03*
D19*
X217170Y157480D03*
D135*
X118428Y157480D03*
D54*
X464820Y158115D03*
D70*
X415290Y158115D03*
D42*
X403225Y158115D03*
D78*
X378778Y158115D03*
D74*
X366713Y158115D03*
D42*
X353060Y158115D03*
D32*
X340360Y158115D03*
D42*
X327660Y158115D03*
D36*
X317183Y158115D03*
D29*
X305118Y158115D03*
D70*
X278130Y158115D03*
D60*
X255270Y158115D03*
D80*
X221933Y158115D03*
D136*
X118110Y158115D03*
D54*
X464820Y158750D03*
D28*
X403543Y158750D03*
D31*
X390208Y158750D03*
D78*
X378778Y158750D03*
D74*
X366713Y158750D03*
D42*
X353060Y158750D03*
D32*
X340360Y158750D03*
D42*
X327660Y158750D03*
D36*
X317183Y158750D03*
D29*
X305118Y158750D03*
D31*
X290513Y158750D03*
D16*
X278448Y158750D03*
D18*
X255905Y158750D03*
D69*
X222250Y158750D03*
D136*
X118110Y158750D03*
D54*
X464820Y159385D03*
D39*
X403860Y159385D03*
D31*
X390208Y159385D03*
D78*
X378778Y159385D03*
D19*
X366395Y159385D03*
D42*
X353060Y159385D03*
D32*
X340360Y159385D03*
D42*
X327660Y159385D03*
D36*
X317183Y159385D03*
D29*
X304483Y159385D03*
D31*
X290513Y159385D03*
D16*
X278448Y159385D03*
D44*
X256540Y159385D03*
D52*
X223203Y159385D03*
D137*
X117793Y159385D03*
D54*
X464820Y160020D03*
D39*
X403860Y160020D03*
D32*
X389890Y160020D03*
D49*
X378460Y160020D03*
D19*
X366395Y160020D03*
D42*
X353060Y160020D03*
D32*
X340360Y160020D03*
D42*
X327660Y160020D03*
D36*
X317183Y160020D03*
D29*
X304483Y160020D03*
D32*
X290195Y160020D03*
D49*
X278765Y160020D03*
D129*
X256858Y160020D03*
D49*
X233680Y160020D03*
D31*
X214948Y160020D03*
D137*
X117793Y160020D03*
D54*
X464820Y160655D03*
D38*
X403225Y160655D03*
D32*
X389890Y160655D03*
D16*
X378778Y160655D03*
D31*
X366713Y160655D03*
D42*
X353060Y160655D03*
D32*
X340360Y160655D03*
D42*
X327660Y160655D03*
D36*
X317183Y160655D03*
D29*
X304483Y160655D03*
D32*
X290195Y160655D03*
D16*
X279083Y160655D03*
D20*
X257175Y160655D03*
D35*
X234315Y160655D03*
D32*
X213995Y160655D03*
D138*
X117475Y160655D03*
D54*
X464820Y161290D03*
D28*
X402908Y161290D03*
D29*
X390208Y161290D03*
D16*
X378778Y161290D03*
D32*
X366395Y161290D03*
D42*
X353060Y161290D03*
D32*
X340360Y161290D03*
D42*
X327660Y161290D03*
D36*
X317183Y161290D03*
D39*
X304165Y161290D03*
D29*
X290513Y161290D03*
D16*
X279083Y161290D03*
D34*
X256858Y161290D03*
D29*
X213043Y161290D03*
D139*
X117158Y161290D03*
D54*
X464820Y161925D03*
D42*
X414655Y161925D03*
D28*
X402273Y161925D03*
D39*
X389890Y161925D03*
D70*
X378460Y161925D03*
D32*
X366395Y161925D03*
D42*
X353060Y161925D03*
D32*
X340360Y161925D03*
D42*
X327660Y161925D03*
D36*
X317183Y161925D03*
D29*
X303848Y161925D03*
D39*
X290195Y161925D03*
D16*
X279083Y161925D03*
D140*
X256540Y161925D03*
D39*
X212725Y161925D03*
D139*
X117158Y161925D03*
D54*
X464820Y162560D03*
D38*
X414020Y162560D03*
D42*
X401955Y162560D03*
D39*
X389890Y162560D03*
D36*
X378778Y162560D03*
D39*
X366395Y162560D03*
D42*
X353060Y162560D03*
D32*
X340360Y162560D03*
D42*
X327660Y162560D03*
D36*
X317183Y162560D03*
D39*
X303530Y162560D03*
X290195Y162560D03*
D70*
X279400Y162560D03*
D24*
X256223Y162560D03*
D29*
X212408Y162560D03*
D141*
X116840Y162560D03*
D54*
X464820Y163195D03*
D30*
X413703Y163195D03*
D42*
X401320Y163195D03*
D38*
X389890Y163195D03*
D42*
X378460Y163195D03*
D38*
X366395Y163195D03*
D42*
X353060Y163195D03*
D32*
X340360Y163195D03*
D42*
X327660Y163195D03*
D36*
X317183Y163195D03*
D39*
X302895Y163195D03*
D38*
X290195Y163195D03*
D70*
X279400Y163195D03*
D142*
X255905Y163195D03*
D29*
X211773Y163195D03*
D141*
X116840Y163195D03*
D54*
X464820Y163830D03*
D39*
X413385Y163830D03*
D42*
X400685Y163830D03*
X389890Y163830D03*
D28*
X378778Y163830D03*
D42*
X366395Y163830D03*
X353060Y163830D03*
D32*
X340360Y163830D03*
D42*
X327660Y163830D03*
D36*
X317183Y163830D03*
D45*
X310515Y163830D03*
D30*
X301943Y163830D03*
D42*
X290195Y163830D03*
X279400Y163830D03*
D142*
X255270Y163830D03*
D28*
X226378Y163830D03*
D29*
X211773Y163830D03*
D141*
X116840Y163830D03*
D54*
X464820Y164465D03*
D29*
X413068Y164465D03*
D42*
X400685Y164465D03*
D70*
X389890Y164465D03*
D38*
X378460Y164465D03*
D49*
X366395Y164465D03*
D42*
X353060Y164465D03*
D32*
X340360Y164465D03*
D42*
X327660Y164465D03*
D36*
X317183Y164465D03*
D41*
X310198Y164465D03*
D70*
X300355Y164465D03*
X290195Y164465D03*
D42*
X279400Y164465D03*
D70*
X268605Y164465D03*
D52*
X250508Y164465D03*
D29*
X226378Y164465D03*
X211138Y164465D03*
D141*
X116840Y164465D03*
D54*
X464820Y165100D03*
D29*
X413068Y165100D03*
D42*
X400050Y165100D03*
D35*
X389890Y165100D03*
D39*
X378460Y165100D03*
D41*
X360363Y165100D03*
D42*
X353060Y165100D03*
D32*
X340360Y165100D03*
D42*
X327660Y165100D03*
D36*
X317183Y165100D03*
D41*
X310198Y165100D03*
D36*
X300038Y165100D03*
D35*
X290195Y165100D03*
D38*
X279400Y165100D03*
D143*
X242253Y165100D03*
D29*
X211138Y165100D03*
D141*
X116840Y165100D03*
D54*
X464820Y165735D03*
D32*
X412750Y165735D03*
D28*
X399733Y165735D03*
D32*
X378460Y165735D03*
D35*
X360680Y165735D03*
D42*
X353060Y165735D03*
D32*
X340360Y165735D03*
D42*
X327660Y165735D03*
D36*
X317183Y165735D03*
D35*
X309880Y165735D03*
D42*
X299720Y165735D03*
D39*
X279400Y165735D03*
D144*
X241935Y165735D03*
D39*
X211455Y165735D03*
D141*
X116840Y165735D03*
D54*
X464820Y166370D03*
D32*
X412750Y166370D03*
D30*
X399098Y166370D03*
D19*
X378460Y166370D03*
D37*
X360998Y166370D03*
D42*
X353060Y166370D03*
D32*
X340360Y166370D03*
D42*
X327660Y166370D03*
D36*
X317183Y166370D03*
D37*
X309563Y166370D03*
D38*
X299085Y166370D03*
D32*
X279400Y166370D03*
D143*
X241618Y166370D03*
D30*
X211773Y166370D03*
D141*
X116840Y166370D03*
D54*
X464820Y167005D03*
D32*
X412750Y167005D03*
D39*
X398780Y167005D03*
D85*
X378460Y167005D03*
D26*
X361315Y167005D03*
D42*
X353060Y167005D03*
D32*
X340360Y167005D03*
D42*
X327660Y167005D03*
D36*
X317183Y167005D03*
D26*
X309245Y167005D03*
D30*
X298768Y167005D03*
D25*
X279400Y167005D03*
D103*
X242253Y167005D03*
D38*
X212090Y167005D03*
D141*
X116840Y167005D03*
D54*
X464820Y167640D03*
D32*
X412750Y167640D03*
D31*
X397828Y167640D03*
D56*
X378143Y167640D03*
D145*
X335280Y167640D03*
D32*
X297815Y167640D03*
D15*
X279400Y167640D03*
D105*
X243205Y167640D03*
D28*
X212408Y167640D03*
D139*
X117158Y167640D03*
D54*
X464820Y168275D03*
D32*
X412750Y168275D03*
D146*
X312103Y168275D03*
D28*
X212408Y168275D03*
D147*
X182563Y168275D03*
D148*
X95885Y168275D03*
D54*
X464820Y168910D03*
D32*
X412750Y168910D03*
D146*
X312103Y168910D03*
D42*
X212725Y168910D03*
D149*
X183833Y168910D03*
D148*
X95885Y168910D03*
D54*
X464820Y169545D03*
D29*
X413068Y169545D03*
D150*
X312420Y169545D03*
D28*
X213043Y169545D03*
D149*
X184468Y169545D03*
D151*
X96203Y169545D03*
D54*
X464820Y170180D03*
D29*
X413068Y170180D03*
D152*
X312738Y170180D03*
D28*
X213043Y170180D03*
D153*
X185103Y170180D03*
D154*
X96520Y170180D03*
D54*
X464820Y170815D03*
D39*
X413385Y170815D03*
D152*
X313373Y170815D03*
D42*
X213360Y170815D03*
D155*
X186055Y170815D03*
D156*
X96838Y170815D03*
D54*
X464820Y171450D03*
D39*
X413385Y171450D03*
D157*
X363855Y171450D03*
D101*
X271780Y171450D03*
D28*
X213678Y171450D03*
D158*
X186373Y171450D03*
D159*
X97473Y171450D03*
D54*
X464820Y172085D03*
D38*
X414020Y172085D03*
D157*
X364490Y172085D03*
D99*
X271780Y172085D03*
D28*
X214313Y172085D03*
D160*
X187643Y172085D03*
D154*
X96520Y172085D03*
D54*
X464820Y172720D03*
D42*
X414655Y172720D03*
D157*
X364490Y172720D03*
D96*
X271780Y172720D03*
D38*
X214630Y172720D03*
D20*
X190500Y172720D03*
D49*
X172085Y172720D03*
D154*
X96520Y172720D03*
D54*
X464820Y173355D03*
D157*
X365125Y173355D03*
D93*
X272098Y173355D03*
D28*
X214948Y173355D03*
D44*
X191135Y173355D03*
D26*
X172720Y173355D03*
D156*
X96838Y173355D03*
D54*
X464820Y173990D03*
D161*
X365443Y173990D03*
D91*
X272415Y173990D03*
D38*
X215265Y173990D03*
D44*
X191770Y173990D03*
D35*
X173355Y173990D03*
D159*
X97473Y173990D03*
D54*
X464820Y174625D03*
D162*
X365760Y174625D03*
D91*
X272415Y174625D03*
D30*
X215583Y174625D03*
D18*
X192405Y174625D03*
D163*
X97790Y174625D03*
D54*
X464820Y175260D03*
D47*
X366395Y175260D03*
D91*
X273050Y175260D03*
D39*
X215900Y175260D03*
D60*
X193040Y175260D03*
D164*
X98425Y175260D03*
D68*
X463550Y175895D03*
D66*
X367348Y175895D03*
D91*
X273685Y175895D03*
D39*
X215900Y175895D03*
D73*
X194310Y175895D03*
D165*
X98743Y175895D03*
D166*
X367348Y176530D03*
D29*
X216218Y176530D03*
D67*
X195263Y176530D03*
D167*
X99378Y176530D03*
D168*
X367665Y177165D03*
D32*
X216535Y177165D03*
D72*
X195898Y177165D03*
D169*
X99695Y177165D03*
D170*
X367983Y177800D03*
D31*
X216853Y177800D03*
D76*
X196215Y177800D03*
D171*
X100013Y177800D03*
D172*
X368300Y178435D03*
D19*
X217170Y178435D03*
D80*
X196533Y178435D03*
D173*
X100648Y178435D03*
D174*
X368935Y179070D03*
D74*
X217488Y179070D03*
D82*
X196850Y179070D03*
D175*
X100965Y179070D03*
D176*
X369253Y179705D03*
D74*
X218123Y179705D03*
D62*
X197168Y179705D03*
D177*
X101283Y179705D03*
D178*
X369570Y180340D03*
D74*
X218123Y180340D03*
D61*
X198755Y180340D03*
D179*
X101918Y180340D03*
D180*
X369888Y180975D03*
D23*
X218758Y180975D03*
D77*
X199708Y180975D03*
D181*
X102235Y180975D03*
D182*
X370205Y181610D03*
D85*
X219075Y181610D03*
D15*
X200025Y181610D03*
D183*
X102870Y181610D03*
D184*
X412115Y182245D03*
D185*
X274003Y182245D03*
D27*
X219393Y182245D03*
D85*
X200660Y182245D03*
D186*
X103188Y182245D03*
D187*
X413385Y182880D03*
D188*
X272098Y182880D03*
D15*
X219710Y182880D03*
D23*
X200978Y182880D03*
D189*
X103505Y182880D03*
D190*
X414020Y183515D03*
D191*
X270828Y183515D03*
D15*
X220345Y183515D03*
D74*
X201613Y183515D03*
D57*
X104140Y183515D03*
D192*
X414973Y184150D03*
D193*
X270510Y184150D03*
D77*
X220663Y184150D03*
D19*
X202565Y184150D03*
D50*
X104458Y184150D03*
D194*
X415608Y184785D03*
D195*
X270510Y184785D03*
D56*
X221298Y184785D03*
D31*
X202883Y184785D03*
D46*
X104775Y184785D03*
D196*
X418465Y185420D03*
D45*
X325120Y185420D03*
D197*
X269875Y185420D03*
D56*
X221933Y185420D03*
D32*
X203200Y185420D03*
D40*
X105410Y185420D03*
D132*
X419100Y186055D03*
D41*
X315278Y186055D03*
D198*
X267653Y186055D03*
D61*
X222250Y186055D03*
D29*
X203518Y186055D03*
D88*
X105728Y186055D03*
D16*
X505143Y186690D03*
D35*
X501015Y186690D03*
D41*
X498793Y186690D03*
D45*
X497205Y186690D03*
X495935Y186690D03*
X494665Y186690D03*
X493395Y186690D03*
X492125Y186690D03*
X490855Y186690D03*
X489585Y186690D03*
X488315Y186690D03*
D41*
X486728Y186690D03*
D35*
X484505Y186690D03*
D41*
X482283Y186690D03*
X480378Y186690D03*
D45*
X469900Y186690D03*
X446405Y186690D03*
X444500Y186690D03*
X443230Y186690D03*
X440690Y186690D03*
X439420Y186690D03*
X435610Y186690D03*
X433070Y186690D03*
X431800Y186690D03*
X430530Y186690D03*
X429260Y186690D03*
X427990Y186690D03*
X426720Y186690D03*
D35*
X424815Y186690D03*
D45*
X422910Y186690D03*
X421640Y186690D03*
X420370Y186690D03*
D41*
X418783Y186690D03*
D45*
X417195Y186690D03*
D37*
X414973Y186690D03*
D45*
X412750Y186690D03*
D41*
X411163Y186690D03*
D45*
X409575Y186690D03*
X407670Y186690D03*
D41*
X406083Y186690D03*
D199*
X367983Y186690D03*
D42*
X313690Y186690D03*
D200*
X267335Y186690D03*
D17*
X222885Y186690D03*
D39*
X204470Y186690D03*
D56*
X171768Y186690D03*
D45*
X130810Y186690D03*
D78*
X505778Y187325D03*
D45*
X502920Y187325D03*
D41*
X500698Y187325D03*
D45*
X498475Y187325D03*
X497205Y187325D03*
X495935Y187325D03*
X492125Y187325D03*
X446405Y187325D03*
X433070Y187325D03*
X429260Y187325D03*
X424815Y187325D03*
X423545Y187325D03*
X419100Y187325D03*
X417830Y187325D03*
X415925Y187325D03*
X414655Y187325D03*
D41*
X413068Y187325D03*
D45*
X411480Y187325D03*
D41*
X409893Y187325D03*
X407988Y187325D03*
D45*
X406400Y187325D03*
D199*
X368618Y187325D03*
D29*
X313373Y187325D03*
D201*
X267018Y187325D03*
D62*
X223203Y187325D03*
D39*
X204470Y187325D03*
D56*
X172403Y187325D03*
D45*
X130810Y187325D03*
D49*
X505460Y187960D03*
D45*
X502285Y187960D03*
X501015Y187960D03*
X499745Y187960D03*
X497840Y187960D03*
X496570Y187960D03*
X495300Y187960D03*
X494030Y187960D03*
X491490Y187960D03*
X429895Y187960D03*
X422275Y187960D03*
X421005Y187960D03*
X419735Y187960D03*
X417830Y187960D03*
X416560Y187960D03*
X415290Y187960D03*
X413385Y187960D03*
X412115Y187960D03*
X410210Y187960D03*
D41*
X408623Y187960D03*
D45*
X407035Y187960D03*
D35*
X404495Y187960D03*
D202*
X367665Y187960D03*
D25*
X313690Y187960D03*
D203*
X267335Y187960D03*
D62*
X223838Y187960D03*
D30*
X204788Y187960D03*
D65*
X173038Y187960D03*
D45*
X130810Y187960D03*
D16*
X505143Y188595D03*
D45*
X501650Y188595D03*
X499110Y188595D03*
X497840Y188595D03*
X494665Y188595D03*
X490855Y188595D03*
X429895Y188595D03*
X425450Y188595D03*
X424180Y188595D03*
X422910Y188595D03*
X421640Y188595D03*
X418465Y188595D03*
X414020Y188595D03*
X412750Y188595D03*
X410845Y188595D03*
X408940Y188595D03*
X407670Y188595D03*
D37*
X405448Y188595D03*
D204*
X370523Y188595D03*
D77*
X313373Y188595D03*
D142*
X275590Y188595D03*
D31*
X250508Y188595D03*
D82*
X224155Y188595D03*
D38*
X205105Y188595D03*
D17*
X173355Y188595D03*
D45*
X130810Y188595D03*
D70*
X504825Y189230D03*
D45*
X501015Y189230D03*
X499745Y189230D03*
X498475Y189230D03*
X497205Y189230D03*
X494030Y189230D03*
X430530Y189230D03*
X424815Y189230D03*
X420370Y189230D03*
X419100Y189230D03*
X417195Y189230D03*
X414655Y189230D03*
X413385Y189230D03*
X411480Y189230D03*
X409575Y189230D03*
X408305Y189230D03*
D37*
X406083Y189230D03*
D204*
X371158Y189230D03*
D41*
X327343Y189230D03*
D65*
X313373Y189230D03*
D48*
X275908Y189230D03*
D30*
X249873Y189230D03*
D76*
X224790Y189230D03*
D42*
X206375Y189230D03*
D82*
X173990Y189230D03*
D26*
X506095Y189865D03*
D37*
X502603Y189865D03*
D45*
X499110Y189865D03*
X497840Y189865D03*
X496570Y189865D03*
X490220Y189865D03*
X423545Y189865D03*
X422275Y189865D03*
X421005Y189865D03*
X419735Y189865D03*
X417830Y189865D03*
X416560Y189865D03*
X415290Y189865D03*
X412115Y189865D03*
X410210Y189865D03*
X408940Y189865D03*
D35*
X406400Y189865D03*
D197*
X372745Y189865D03*
D52*
X315278Y189865D03*
D45*
X299085Y189865D03*
D27*
X280988Y189865D03*
D38*
X266065Y189865D03*
D28*
X249873Y189865D03*
D72*
X225108Y189865D03*
D36*
X206693Y189865D03*
D82*
X174625Y189865D03*
D45*
X136525Y189865D03*
D78*
X505778Y190500D03*
D37*
X501968Y190500D03*
D45*
X497205Y190500D03*
X495935Y190500D03*
X493395Y190500D03*
X424180Y190500D03*
X422910Y190500D03*
X421640Y190500D03*
X419735Y190500D03*
X418465Y190500D03*
X417195Y190500D03*
X415925Y190500D03*
X412750Y190500D03*
X410845Y190500D03*
X409575Y190500D03*
D35*
X407035Y190500D03*
D205*
X374015Y190500D03*
D140*
X313055Y190500D03*
D32*
X281305Y190500D03*
D42*
X266065Y190500D03*
D37*
X250508Y190500D03*
D69*
X225425Y190500D03*
D70*
X207010Y190500D03*
D80*
X174943Y190500D03*
D49*
X505460Y191135D03*
D45*
X502285Y191135D03*
X501015Y191135D03*
X495300Y191135D03*
X492760Y191135D03*
X491490Y191135D03*
X420370Y191135D03*
X419100Y191135D03*
X417830Y191135D03*
X414655Y191135D03*
X413385Y191135D03*
X411480Y191135D03*
X410210Y191135D03*
X408305Y191135D03*
X407035Y191135D03*
D35*
X405130Y191135D03*
D78*
X401638Y191135D03*
D37*
X397828Y191135D03*
D206*
X369888Y191135D03*
D207*
X312738Y191135D03*
D28*
X281623Y191135D03*
D70*
X266065Y191135D03*
D64*
X226060Y191135D03*
D16*
X207328Y191135D03*
D76*
X175260Y191135D03*
D16*
X505143Y191770D03*
D45*
X501650Y191770D03*
X500380Y191770D03*
X492125Y191770D03*
X490855Y191770D03*
X423545Y191770D03*
X422275Y191770D03*
X421005Y191770D03*
X418465Y191770D03*
X416560Y191770D03*
X415290Y191770D03*
X414020Y191770D03*
X412115Y191770D03*
X410845Y191770D03*
X409575Y191770D03*
X407670Y191770D03*
D35*
X405765Y191770D03*
D78*
X402273Y191770D03*
D37*
X398463Y191770D03*
D206*
X370523Y191770D03*
D208*
X312738Y191770D03*
D78*
X281623Y191770D03*
D16*
X266383Y191770D03*
D73*
X227330Y191770D03*
D49*
X207645Y191770D03*
D72*
X176213Y191770D03*
D41*
X507048Y192405D03*
X505143Y192405D03*
D35*
X502920Y192405D03*
D45*
X501015Y192405D03*
X499745Y192405D03*
X498475Y192405D03*
X425450Y192405D03*
X424180Y192405D03*
X422910Y192405D03*
X419735Y192405D03*
X418465Y192405D03*
X417195Y192405D03*
X415925Y192405D03*
X414655Y192405D03*
X412750Y192405D03*
X411480Y192405D03*
X409575Y192405D03*
X408305Y192405D03*
D35*
X406400Y192405D03*
D45*
X404495Y192405D03*
D35*
X402590Y192405D03*
D26*
X399415Y192405D03*
D206*
X371158Y192405D03*
D45*
X335280Y192405D03*
D160*
X312738Y192405D03*
D16*
X266383Y192405D03*
D45*
X257810Y192405D03*
D55*
X228283Y192405D03*
D26*
X207010Y192405D03*
D69*
X176530Y192405D03*
D37*
X506413Y193040D03*
D45*
X504190Y193040D03*
D41*
X502603Y193040D03*
D45*
X500380Y193040D03*
X499110Y193040D03*
X497840Y193040D03*
X494030Y193040D03*
X491490Y193040D03*
X435610Y193040D03*
X424815Y193040D03*
X420370Y193040D03*
X419100Y193040D03*
X417830Y193040D03*
X416560Y193040D03*
X415290Y193040D03*
X413385Y193040D03*
X412115Y193040D03*
X408940Y193040D03*
D35*
X407035Y193040D03*
D45*
X405130Y193040D03*
D35*
X403225Y193040D03*
D37*
X400368Y193040D03*
X396558Y193040D03*
D209*
X369888Y193040D03*
D143*
X314008Y193040D03*
D16*
X266383Y193040D03*
D37*
X257493Y193040D03*
D48*
X228918Y193040D03*
D37*
X207328Y193040D03*
D67*
X176848Y193040D03*
D37*
X506413Y193675D03*
D45*
X503555Y193675D03*
D41*
X501968Y193675D03*
D45*
X499745Y193675D03*
X490855Y193675D03*
X422275Y193675D03*
X419735Y193675D03*
X418465Y193675D03*
X415925Y193675D03*
X414020Y193675D03*
D41*
X412433Y193675D03*
D45*
X410845Y193675D03*
D41*
X407988Y193675D03*
D45*
X405765Y193675D03*
D35*
X403860Y193675D03*
D41*
X401638Y193675D03*
D45*
X400050Y193675D03*
D201*
X372428Y193675D03*
D74*
X329883Y193675D03*
D17*
X299720Y193675D03*
D70*
X266065Y193675D03*
D26*
X256540Y193675D03*
D129*
X229553Y193675D03*
D35*
X207645Y193675D03*
D59*
X177483Y193675D03*
D35*
X506730Y194310D03*
D45*
X504825Y194310D03*
X502920Y194310D03*
D41*
X501333Y194310D03*
D45*
X499110Y194310D03*
X496570Y194310D03*
X490220Y194310D03*
X424180Y194310D03*
X422910Y194310D03*
X420370Y194310D03*
X419100Y194310D03*
X414655Y194310D03*
X413385Y194310D03*
D41*
X408623Y194310D03*
D78*
X405448Y194310D03*
D37*
X401638Y194310D03*
X398463Y194310D03*
D111*
X371158Y194310D03*
D78*
X329883Y194310D03*
D56*
X297498Y194310D03*
D41*
X274003Y194310D03*
D70*
X266065Y194310D03*
D49*
X255270Y194310D03*
D142*
X231140Y194310D03*
D59*
X178118Y194310D03*
D26*
X505460Y194945D03*
D45*
X502285Y194945D03*
D41*
X500698Y194945D03*
D45*
X424815Y194945D03*
D41*
X409258Y194945D03*
D78*
X406083Y194945D03*
D45*
X403225Y194945D03*
D41*
X401638Y194945D03*
D37*
X399098Y194945D03*
D206*
X371158Y194945D03*
D56*
X296228Y194945D03*
D37*
X274638Y194945D03*
D36*
X265748Y194945D03*
D210*
X235585Y194945D03*
D73*
X178435Y194945D03*
D37*
X505143Y195580D03*
D45*
X502920Y195580D03*
X501650Y195580D03*
D41*
X500063Y195580D03*
D45*
X497840Y195580D03*
X414655Y195580D03*
D41*
X409893Y195580D03*
D35*
X406400Y195580D03*
D45*
X403860Y195580D03*
X402590Y195580D03*
D35*
X400050Y195580D03*
D113*
X371475Y195580D03*
D61*
X294640Y195580D03*
D49*
X275590Y195580D03*
D42*
X265430Y195580D03*
D147*
X235903Y195580D03*
D52*
X179388Y195580D03*
D45*
X144780Y195580D03*
D41*
X507048Y196215D03*
D35*
X504825Y196215D03*
D45*
X502285Y196215D03*
X501015Y196215D03*
X499110Y196215D03*
X413385Y196215D03*
D41*
X410528Y196215D03*
D26*
X407670Y196215D03*
D45*
X404495Y196215D03*
X403225Y196215D03*
D37*
X401003Y196215D03*
D41*
X398463Y196215D03*
D206*
X371158Y196215D03*
D48*
X287973Y196215D03*
D28*
X265113Y196215D03*
D211*
X236220Y196215D03*
D60*
X179705Y196215D03*
D45*
X506095Y196850D03*
D35*
X503555Y196850D03*
D45*
X501650Y196850D03*
X500380Y196850D03*
X498475Y196850D03*
X496570Y196850D03*
X426085Y196850D03*
X418465Y196850D03*
D41*
X411163Y196850D03*
D45*
X409575Y196850D03*
D35*
X407670Y196850D03*
D45*
X405765Y196850D03*
X403860Y196850D03*
D37*
X401638Y196850D03*
D26*
X398145Y196850D03*
D206*
X369888Y196850D03*
D60*
X287020Y196850D03*
D38*
X264795Y196850D03*
D149*
X236538Y196850D03*
D60*
X179705Y196850D03*
D45*
X507365Y197485D03*
X505460Y197485D03*
X503555Y197485D03*
X502285Y197485D03*
X501015Y197485D03*
X499745Y197485D03*
X497840Y197485D03*
X420370Y197485D03*
X419100Y197485D03*
X414020Y197485D03*
D41*
X411798Y197485D03*
D45*
X410210Y197485D03*
D41*
X407988Y197485D03*
D45*
X406400Y197485D03*
X403225Y197485D03*
D41*
X401638Y197485D03*
D45*
X400050Y197485D03*
D41*
X398463Y197485D03*
D70*
X393700Y197485D03*
D109*
X365760Y197485D03*
D31*
X316548Y197485D03*
D52*
X286068Y197485D03*
D42*
X264160Y197485D03*
D153*
X237173Y197485D03*
D60*
X180340Y197485D03*
D45*
X506730Y198120D03*
X504825Y198120D03*
X502920Y198120D03*
X501650Y198120D03*
X500380Y198120D03*
X497205Y198120D03*
X419735Y198120D03*
D41*
X412433Y198120D03*
D45*
X410845Y198120D03*
D41*
X408623Y198120D03*
D45*
X407035Y198120D03*
X403860Y198120D03*
X402590Y198120D03*
D41*
X401003Y198120D03*
X399098Y198120D03*
D70*
X394970Y198120D03*
D198*
X362268Y198120D03*
D61*
X317500Y198120D03*
D73*
X285750Y198120D03*
D70*
X264160Y198120D03*
D155*
X237490Y198120D03*
D55*
X180658Y198120D03*
D45*
X506095Y198755D03*
X504190Y198755D03*
X502285Y198755D03*
X501015Y198755D03*
X498475Y198755D03*
X496570Y198755D03*
X420370Y198755D03*
D41*
X413068Y198755D03*
X409893Y198755D03*
D45*
X407670Y198755D03*
X406400Y198755D03*
X404495Y198755D03*
X403225Y198755D03*
D41*
X401638Y198755D03*
D45*
X400050Y198755D03*
D41*
X397828Y198755D03*
D26*
X394970Y198755D03*
D54*
X349250Y198755D03*
D59*
X285433Y198755D03*
D16*
X263843Y198755D03*
D212*
X238125Y198755D03*
D18*
X180975Y198755D03*
D45*
X90805Y198755D03*
D41*
X507048Y199390D03*
X505143Y199390D03*
D45*
X503555Y199390D03*
X501650Y199390D03*
X495935Y199390D03*
D41*
X413703Y199390D03*
D37*
X411163Y199390D03*
D45*
X408305Y199390D03*
X402590Y199390D03*
X400685Y199390D03*
D16*
X396558Y199390D03*
D66*
X349568Y199390D03*
D59*
X284798Y199390D03*
D78*
X263843Y199390D03*
D212*
X238760Y199390D03*
D48*
X181293Y199390D03*
D45*
X121920Y199390D03*
X506095Y200025D03*
X504190Y200025D03*
X502285Y200025D03*
X501015Y200025D03*
X495300Y200025D03*
X414655Y200025D03*
D41*
X411163Y200025D03*
D45*
X405130Y200025D03*
X403225Y200025D03*
D41*
X401638Y200025D03*
D37*
X398463Y200025D03*
D41*
X395923Y200025D03*
X393383Y200025D03*
D35*
X391160Y200025D03*
D54*
X346710Y200025D03*
D73*
X284480Y200025D03*
D45*
X264160Y200025D03*
D160*
X239078Y200025D03*
D48*
X181928Y200025D03*
D45*
X507365Y200660D03*
X505460Y200660D03*
X503555Y200660D03*
X501650Y200660D03*
X494665Y200660D03*
D41*
X414973Y200660D03*
D45*
X413385Y200660D03*
X412115Y200660D03*
D35*
X406400Y200660D03*
D45*
X404495Y200660D03*
X402590Y200660D03*
D26*
X399415Y200660D03*
D41*
X396558Y200660D03*
X394653Y200660D03*
D35*
X392430Y200660D03*
D68*
X346710Y200660D03*
D52*
X284163Y200660D03*
D213*
X239395Y200660D03*
D44*
X182245Y200660D03*
D45*
X122555Y200660D03*
X506095Y201295D03*
X504190Y201295D03*
X502920Y201295D03*
X415925Y201295D03*
X412750Y201295D03*
X406400Y201295D03*
X405130Y201295D03*
X403225Y201295D03*
X401320Y201295D03*
D41*
X399733Y201295D03*
X397828Y201295D03*
X395288Y201295D03*
X393383Y201295D03*
D79*
X346393Y201295D03*
D60*
X283845Y201295D03*
D213*
X240030Y201295D03*
D129*
X182563Y201295D03*
D45*
X123190Y201295D03*
X505460Y201930D03*
X503555Y201930D03*
X416560Y201930D03*
X413385Y201930D03*
D41*
X407988Y201930D03*
D45*
X404495Y201930D03*
D41*
X402273Y201930D03*
D45*
X400685Y201930D03*
X398780Y201930D03*
D41*
X396558Y201930D03*
D35*
X394335Y201930D03*
X391795Y201930D03*
D71*
X345758Y201930D03*
D60*
X283210Y201930D03*
D208*
X240348Y201930D03*
D20*
X182880Y201930D03*
D45*
X123190Y201930D03*
D41*
X507048Y202565D03*
D45*
X504825Y202565D03*
X502920Y202565D03*
X501015Y202565D03*
X496570Y202565D03*
X417195Y202565D03*
X414020Y202565D03*
D35*
X408940Y202565D03*
D45*
X407035Y202565D03*
X405130Y202565D03*
X403225Y202565D03*
D41*
X401638Y202565D03*
X399733Y202565D03*
D45*
X397510Y202565D03*
D41*
X395288Y202565D03*
X392748Y202565D03*
D35*
X390525Y202565D03*
D66*
X345123Y202565D03*
D18*
X282575Y202565D03*
D208*
X240983Y202565D03*
D34*
X183198Y202565D03*
D41*
X158433Y202565D03*
D45*
X506095Y203200D03*
D41*
X503873Y203200D03*
D45*
X502285Y203200D03*
X500380Y203200D03*
X495935Y203200D03*
X417830Y203200D03*
X414655Y203200D03*
D26*
X408940Y203200D03*
D45*
X405765Y203200D03*
X403860Y203200D03*
X402590Y203200D03*
X400685Y203200D03*
D41*
X398463Y203200D03*
D45*
X396240Y203200D03*
D41*
X394018Y203200D03*
D35*
X391795Y203200D03*
D71*
X345758Y203200D03*
D18*
X281940Y203200D03*
D213*
X241935Y203200D03*
D140*
X183515Y203200D03*
D78*
X157163Y203200D03*
D45*
X153670Y203200D03*
X507365Y203835D03*
X505460Y203835D03*
X502920Y203835D03*
X499745Y203835D03*
X418465Y203835D03*
X415290Y203835D03*
X410845Y203835D03*
D35*
X408940Y203835D03*
D45*
X407035Y203835D03*
D41*
X403543Y203835D03*
D45*
X401320Y203835D03*
X399415Y203835D03*
D41*
X397193Y203835D03*
X395288Y203835D03*
X392748Y203835D03*
D75*
X346075Y203835D03*
D44*
X281305Y203835D03*
D212*
X243205Y203835D03*
D24*
X183833Y203835D03*
D35*
X158750Y203835D03*
D37*
X152718Y203835D03*
D45*
X506730Y204470D03*
X504190Y204470D03*
X502285Y204470D03*
X500380Y204470D03*
X419100Y204470D03*
X413385Y204470D03*
D41*
X411163Y204470D03*
D45*
X409575Y204470D03*
X407670Y204470D03*
X405765Y204470D03*
X402590Y204470D03*
D41*
X400368Y204470D03*
X398463Y204470D03*
X395923Y204470D03*
X394018Y204470D03*
D36*
X388938Y204470D03*
D22*
X343218Y204470D03*
D191*
X260668Y204470D03*
D140*
X184150Y204470D03*
D35*
X150495Y204470D03*
D41*
X505778Y205105D03*
D45*
X503555Y205105D03*
X419735Y205105D03*
X412750Y205105D03*
X411480Y205105D03*
X406400Y205105D03*
X403225Y205105D03*
X401320Y205105D03*
X399415Y205105D03*
D41*
X397193Y205105D03*
D45*
X394970Y205105D03*
D70*
X390525Y205105D03*
D51*
X343853Y205105D03*
D202*
X260985Y205105D03*
D24*
X184468Y205105D03*
D45*
X507365Y205740D03*
X504825Y205740D03*
X420370Y205740D03*
X413385Y205740D03*
X407670Y205740D03*
X404495Y205740D03*
X402590Y205740D03*
X400685Y205740D03*
D41*
X398463Y205740D03*
X395923Y205740D03*
D16*
X391478Y205740D03*
D58*
X344488Y205740D03*
D193*
X260985Y205740D03*
D24*
X185103Y205740D03*
D45*
X506095Y206375D03*
D41*
X503873Y206375D03*
D45*
X501650Y206375D03*
X421005Y206375D03*
X401955Y206375D03*
X399415Y206375D03*
D41*
X397193Y206375D03*
D70*
X393065Y206375D03*
D68*
X344805Y206375D03*
D193*
X260985Y206375D03*
D142*
X185420Y206375D03*
D45*
X507365Y207010D03*
X505460Y207010D03*
X502920Y207010D03*
X414655Y207010D03*
X413385Y207010D03*
X408940Y207010D03*
X404495Y207010D03*
X402590Y207010D03*
X400685Y207010D03*
X398145Y207010D03*
D16*
X394018Y207010D03*
D35*
X389255Y207010D03*
D63*
X344170Y207010D03*
D193*
X260985Y207010D03*
D207*
X185738Y207010D03*
D41*
X506413Y207645D03*
D45*
X504190Y207645D03*
X502285Y207645D03*
X414020Y207645D03*
D41*
X409893Y207645D03*
D45*
X403860Y207645D03*
D41*
X401638Y207645D03*
D45*
X399415Y207645D03*
D41*
X397193Y207645D03*
X395288Y207645D03*
X393383Y207645D03*
D35*
X390525Y207645D03*
D71*
X344488Y207645D03*
D214*
X260985Y207645D03*
D207*
X186373Y207645D03*
D45*
X507365Y208280D03*
X505460Y208280D03*
D41*
X503238Y208280D03*
D45*
X501015Y208280D03*
D41*
X410528Y208280D03*
D45*
X407035Y208280D03*
X405130Y208280D03*
D41*
X402908Y208280D03*
D45*
X400685Y208280D03*
D26*
X397510Y208280D03*
D41*
X394653Y208280D03*
X392113Y208280D03*
D78*
X388303Y208280D03*
D54*
X342900Y208280D03*
D215*
X261303Y208280D03*
D216*
X186690Y208280D03*
D45*
X506730Y208915D03*
X504190Y208915D03*
X502285Y208915D03*
X500380Y208915D03*
D41*
X411798Y208915D03*
D45*
X407670Y208915D03*
X405765Y208915D03*
X403860Y208915D03*
X401955Y208915D03*
D41*
X399733Y208915D03*
X397828Y208915D03*
X395923Y208915D03*
X393383Y208915D03*
D78*
X389573Y208915D03*
D63*
X343535Y208915D03*
D195*
X261620Y208915D03*
D77*
X196533Y208915D03*
D61*
X178435Y208915D03*
D45*
X507365Y209550D03*
X505460Y209550D03*
D41*
X503238Y209550D03*
D45*
X499110Y209550D03*
X412750Y209550D03*
X408940Y209550D03*
X407035Y209550D03*
X405130Y209550D03*
X402590Y209550D03*
X400685Y209550D03*
D41*
X399098Y209550D03*
X397193Y209550D03*
X394653Y209550D03*
D78*
X390843Y209550D03*
D16*
X385763Y209550D03*
D217*
X341313Y209550D03*
D197*
X262890Y209550D03*
D216*
X187325Y209550D03*
D41*
X507048Y210185D03*
D45*
X504190Y210185D03*
X502285Y210185D03*
X413385Y210185D03*
X403860Y210185D03*
D41*
X401638Y210185D03*
D45*
X400050Y210185D03*
D41*
X398463Y210185D03*
X395923Y210185D03*
D26*
X392430Y210185D03*
D49*
X387350Y210185D03*
D22*
X341948Y210185D03*
D205*
X263525Y210185D03*
D208*
X187643Y210185D03*
D41*
X505778Y210820D03*
D45*
X503555Y210820D03*
X414020Y210820D03*
D41*
X402908Y210820D03*
X399733Y210820D03*
X397193Y210820D03*
D26*
X393700Y210820D03*
D49*
X388620Y210820D03*
D54*
X342265Y210820D03*
D218*
X263843Y210820D03*
D213*
X187960Y210820D03*
D45*
X506730Y211455D03*
D41*
X504508Y211455D03*
D45*
X415290Y211455D03*
D41*
X404178Y211455D03*
D35*
X398145Y211455D03*
D26*
X394970Y211455D03*
D49*
X390525Y211455D03*
D66*
X343218Y211455D03*
D219*
X263843Y211455D03*
D208*
X188278Y211455D03*
D45*
X505460Y212090D03*
X415925Y212090D03*
D35*
X404495Y212090D03*
D41*
X399733Y212090D03*
D37*
X396558Y212090D03*
D16*
X392113Y212090D03*
D71*
X343853Y212090D03*
D220*
X265748Y212090D03*
D35*
X234315Y212090D03*
D213*
X188595Y212090D03*
D45*
X167005Y212090D03*
D37*
X154623Y212090D03*
D41*
X507048Y212725D03*
D45*
X400685Y212725D03*
D37*
X397828Y212725D03*
D35*
X394335Y212725D03*
D41*
X392113Y212725D03*
D81*
X344805Y212725D03*
D220*
X265748Y212725D03*
D213*
X188595Y212725D03*
D41*
X166688Y212725D03*
D16*
X154623Y212725D03*
D41*
X505778Y213360D03*
D45*
X407035Y213360D03*
X405130Y213360D03*
D41*
X402273Y213360D03*
D26*
X399415Y213360D03*
D35*
X396240Y213360D03*
D41*
X393383Y213360D03*
D38*
X387350Y213360D03*
D22*
X340678Y213360D03*
D221*
X266065Y213360D03*
D208*
X189548Y213360D03*
D45*
X168275Y213360D03*
D41*
X166688Y213360D03*
D36*
X154623Y213360D03*
D45*
X132080Y213360D03*
D41*
X507048Y213995D03*
X504508Y213995D03*
X403543Y213995D03*
D16*
X399098Y213995D03*
D41*
X395288Y213995D03*
D28*
X388938Y213995D03*
D51*
X341313Y213995D03*
D115*
X265748Y213995D03*
D208*
X189548Y213995D03*
D37*
X166688Y213995D03*
D78*
X155893Y213995D03*
D35*
X152400Y213995D03*
D41*
X505778Y214630D03*
D45*
X503555Y214630D03*
X499110Y214630D03*
D37*
X402273Y214630D03*
D41*
X399098Y214630D03*
D45*
X396240Y214630D03*
D28*
X390843Y214630D03*
D63*
X342265Y214630D03*
D222*
X265748Y214630D03*
D140*
X191770Y214630D03*
D37*
X173673Y214630D03*
X166688Y214630D03*
D45*
X158115Y214630D03*
D37*
X155893Y214630D03*
D41*
X153353Y214630D03*
X151448Y214630D03*
D45*
X132715Y214630D03*
D41*
X507048Y215265D03*
D45*
X504825Y215265D03*
X502285Y215265D03*
D37*
X403543Y215265D03*
D41*
X400368Y215265D03*
D45*
X398145Y215265D03*
D35*
X394970Y215265D03*
X392430Y215265D03*
X389890Y215265D03*
D71*
X342583Y215265D03*
D223*
X266065Y215265D03*
D216*
X190500Y215265D03*
D35*
X166370Y215265D03*
D45*
X158115Y215265D03*
D37*
X155893Y215265D03*
D45*
X152400Y215265D03*
D41*
X150813Y215265D03*
X505778Y215900D03*
D45*
X503555Y215900D03*
X501015Y215900D03*
D37*
X404813Y215900D03*
D45*
X401955Y215900D03*
X399415Y215900D03*
D78*
X395288Y215900D03*
D41*
X391478Y215900D03*
D81*
X343535Y215900D03*
D206*
X266383Y215900D03*
D20*
X193040Y215900D03*
D78*
X174943Y215900D03*
D35*
X166370Y215900D03*
D41*
X157163Y215900D03*
D45*
X153035Y215900D03*
D41*
X151448Y215900D03*
D45*
X507365Y216535D03*
D35*
X406400Y216535D03*
X398145Y216535D03*
D41*
X395288Y216535D03*
X393383Y216535D03*
D86*
X343853Y216535D03*
D111*
X267018Y216535D03*
D129*
X193358Y216535D03*
D26*
X175260Y216535D03*
D41*
X166053Y216535D03*
D45*
X158750Y216535D03*
X156845Y216535D03*
X153670Y216535D03*
X151765Y216535D03*
X150495Y216535D03*
X135890Y216535D03*
D35*
X407670Y217170D03*
X400050Y217170D03*
D45*
X394970Y217170D03*
D91*
X344805Y217170D03*
D224*
X267970Y217170D03*
D129*
X193993Y217170D03*
D49*
X175895Y217170D03*
D37*
X165418Y217170D03*
D41*
X158433Y217170D03*
D45*
X156845Y217170D03*
X152400Y217170D03*
D41*
X150813Y217170D03*
D45*
X118745Y217170D03*
X506730Y217805D03*
D35*
X408940Y217805D03*
X401320Y217805D03*
D99*
X345440Y217805D03*
D109*
X268605Y217805D03*
D129*
X194628Y217805D03*
D78*
X176213Y217805D03*
D37*
X164783Y217805D03*
D45*
X158115Y217805D03*
X151765Y217805D03*
X132715Y217805D03*
X120015Y217805D03*
X118745Y217805D03*
D35*
X410210Y218440D03*
D41*
X402908Y218440D03*
D45*
X398780Y218440D03*
D16*
X393383Y218440D03*
D87*
X343535Y218440D03*
D107*
X268605Y218440D03*
D44*
X194945Y218440D03*
D78*
X176848Y218440D03*
D37*
X164783Y218440D03*
D45*
X158115Y218440D03*
X137160Y218440D03*
X132715Y218440D03*
D41*
X507048Y219075D03*
D45*
X411480Y219075D03*
D41*
X404178Y219075D03*
D45*
X400685Y219075D03*
D28*
X393383Y219075D03*
D84*
X342900Y219075D03*
D106*
X268923Y219075D03*
D44*
X195580Y219075D03*
D37*
X178118Y219075D03*
D45*
X175895Y219075D03*
D37*
X164148Y219075D03*
D45*
X157480Y219075D03*
X151130Y219075D03*
X137160Y219075D03*
X133350Y219075D03*
X119380Y219075D03*
D41*
X505778Y219710D03*
D45*
X502285Y219710D03*
D35*
X405765Y219710D03*
D45*
X402590Y219710D03*
D28*
X395923Y219710D03*
D36*
X388303Y219710D03*
D66*
X340678Y219710D03*
D106*
X268923Y219710D03*
D48*
X195898Y219710D03*
D37*
X178753Y219710D03*
D45*
X176530Y219710D03*
D37*
X163513Y219710D03*
D45*
X137795Y219710D03*
X133350Y219710D03*
X119380Y219710D03*
X507365Y220345D03*
X504190Y220345D03*
X501015Y220345D03*
D35*
X407670Y220345D03*
D45*
X403860Y220345D03*
D35*
X400050Y220345D03*
D49*
X396240Y220345D03*
D70*
X389890Y220345D03*
D71*
X341313Y220345D03*
D105*
X268605Y220345D03*
D48*
X196533Y220345D03*
D37*
X179388Y220345D03*
X162878Y220345D03*
D45*
X138430Y220345D03*
X133350Y220345D03*
D41*
X506413Y220980D03*
D45*
X502285Y220980D03*
D35*
X408940Y220980D03*
X401955Y220980D03*
D78*
X397828Y220980D03*
D16*
X392113Y220980D03*
D83*
X341948Y220980D03*
D104*
X268605Y220980D03*
D48*
X196533Y220980D03*
D26*
X179705Y220980D03*
D35*
X161925Y220980D03*
D45*
X139700Y220980D03*
X133985Y220980D03*
X118745Y220980D03*
X507365Y221615D03*
D35*
X410210Y221615D03*
X403225Y221615D03*
D78*
X399733Y221615D03*
D49*
X394335Y221615D03*
D36*
X386398Y221615D03*
D58*
X339408Y221615D03*
D104*
X268605Y221615D03*
D48*
X197168Y221615D03*
D35*
X180340Y221615D03*
D78*
X160338Y221615D03*
D35*
X140970Y221615D03*
D45*
X133985Y221615D03*
X118745Y221615D03*
D41*
X505778Y222250D03*
D45*
X412115Y222250D03*
D41*
X404813Y222250D03*
D37*
X401638Y222250D03*
D78*
X396558Y222250D03*
D36*
X388938Y222250D03*
D71*
X340678Y222250D03*
D103*
X268923Y222250D03*
D18*
X197485Y222250D03*
D35*
X180975Y222250D03*
D78*
X158433Y222250D03*
D41*
X141923Y222250D03*
D45*
X140335Y222250D03*
D41*
X134303Y222250D03*
X507048Y222885D03*
D45*
X407670Y222885D03*
D41*
X398463Y222885D03*
D70*
X391795Y222885D03*
D81*
X341630Y222885D03*
D103*
X268923Y222885D03*
D72*
X200343Y222885D03*
D16*
X185738Y222885D03*
D37*
X181293Y222885D03*
D45*
X165100Y222885D03*
D37*
X157798Y222885D03*
D45*
X142875Y222885D03*
D41*
X134303Y222885D03*
X505143Y223520D03*
D45*
X408305Y223520D03*
X406400Y223520D03*
D35*
X401320Y223520D03*
D78*
X393383Y223520D03*
D89*
X342583Y223520D03*
D103*
X268923Y223520D03*
D72*
X200978Y223520D03*
D49*
X186055Y223520D03*
D37*
X181293Y223520D03*
D41*
X155893Y223520D03*
D35*
X153670Y223520D03*
D45*
X134620Y223520D03*
X95885Y223520D03*
X92075Y223520D03*
D41*
X507048Y224155D03*
D37*
X403543Y224155D03*
X395923Y224155D03*
X390208Y224155D03*
D84*
X341630Y224155D03*
D103*
X268923Y224155D03*
D76*
X201295Y224155D03*
D49*
X186690Y224155D03*
D37*
X181928Y224155D03*
D45*
X96520Y224155D03*
D37*
X91123Y224155D03*
D41*
X505143Y224790D03*
D35*
X405130Y224790D03*
X398780Y224790D03*
D101*
X344805Y224790D03*
D143*
X269558Y224790D03*
D80*
X201613Y224790D03*
D49*
X186690Y224790D03*
D37*
X181928Y224790D03*
D35*
X139700Y224790D03*
D41*
X135573Y224790D03*
X87948Y224790D03*
X505778Y225425D03*
D45*
X502920Y225425D03*
D41*
X407353Y225425D03*
X401003Y225425D03*
D36*
X393383Y225425D03*
D87*
X342265Y225425D03*
D210*
X269875Y225425D03*
D80*
X202248Y225425D03*
D49*
X187325Y225425D03*
D37*
X182563Y225425D03*
D45*
X180340Y225425D03*
D35*
X177800Y225425D03*
D37*
X160973Y225425D03*
D41*
X141923Y225425D03*
X136208Y225425D03*
X86043Y225425D03*
X58738Y225425D03*
D45*
X507365Y226060D03*
X504190Y226060D03*
X410210Y226060D03*
D41*
X404178Y226060D03*
D45*
X402590Y226060D03*
D36*
X396558Y226060D03*
D78*
X389573Y226060D03*
D83*
X341313Y226060D03*
D147*
X270193Y226060D03*
D80*
X202883Y226060D03*
D78*
X187643Y226060D03*
D37*
X182563Y226060D03*
D45*
X180340Y226060D03*
D41*
X176848Y226060D03*
X166688Y226060D03*
X159068Y226060D03*
D35*
X136525Y226060D03*
D41*
X84138Y226060D03*
D45*
X59055Y226060D03*
X505460Y226695D03*
X406400Y226695D03*
X405130Y226695D03*
D70*
X398780Y226695D03*
D101*
X344805Y226695D03*
D147*
X270193Y226695D03*
D82*
X203200Y226695D03*
D49*
X187960Y226695D03*
D26*
X182880Y226695D03*
D45*
X180340Y226695D03*
D35*
X175895Y226695D03*
X137160Y226695D03*
D45*
X120650Y226695D03*
D35*
X81915Y226695D03*
D41*
X507048Y227330D03*
D45*
X408940Y227330D03*
D16*
X401638Y227330D03*
D39*
X392430Y227330D03*
D81*
X340995Y227330D03*
D147*
X270193Y227330D03*
D62*
X203518Y227330D03*
D78*
X188278Y227330D03*
D26*
X182880Y227330D03*
D45*
X180340Y227330D03*
D37*
X174308Y227330D03*
D41*
X170498Y227330D03*
D35*
X137160Y227330D03*
D41*
X80328Y227330D03*
D26*
X404495Y227965D03*
D38*
X395605Y227965D03*
D91*
X342900Y227965D03*
D147*
X270193Y227965D03*
D82*
X203835Y227965D03*
D78*
X188278Y227965D03*
X183198Y227965D03*
D45*
X180340Y227965D03*
D35*
X137795Y227965D03*
D41*
X79058Y227965D03*
D37*
X407353Y228600D03*
D42*
X398145Y228600D03*
D38*
X388620Y228600D03*
D66*
X339408Y228600D03*
D211*
X270510Y228600D03*
D62*
X204153Y228600D03*
D78*
X188913Y228600D03*
D70*
X182880Y228600D03*
D37*
X138113Y228600D03*
D45*
X77470Y228600D03*
D35*
X409575Y229235D03*
D16*
X402273Y229235D03*
D36*
X392748Y229235D03*
D81*
X341630Y229235D03*
D211*
X270510Y229235D03*
D17*
X204470Y229235D03*
D78*
X188913Y229235D03*
D49*
X183515Y229235D03*
D45*
X180340Y229235D03*
D37*
X138748Y229235D03*
D49*
X405130Y229870D03*
D16*
X396558Y229870D03*
D45*
X392430Y229870D03*
D91*
X343535Y229870D03*
D147*
X270828Y229870D03*
D62*
X204788Y229870D03*
D26*
X189230Y229870D03*
D16*
X183833Y229870D03*
D45*
X180340Y229870D03*
D37*
X139383Y229870D03*
D45*
X73025Y229870D03*
D35*
X407670Y230505D03*
D36*
X401003Y230505D03*
D30*
X390208Y230505D03*
D54*
X339090Y230505D03*
D211*
X271145Y230505D03*
D17*
X205105Y230505D03*
D78*
X189548Y230505D03*
D16*
X183833Y230505D03*
D45*
X180340Y230505D03*
D26*
X139700Y230505D03*
D45*
X118110Y230505D03*
X104140Y230505D03*
X73025Y230505D03*
D41*
X65723Y230505D03*
D45*
X504825Y231140D03*
D16*
X404178Y231140D03*
D28*
X394018Y231140D03*
D71*
X341313Y231140D03*
D149*
X271463Y231140D03*
D17*
X205105Y231140D03*
D78*
X189548Y231140D03*
D70*
X184150Y231140D03*
D41*
X180023Y231140D03*
D26*
X140335Y231140D03*
D45*
X117475Y231140D03*
X104775Y231140D03*
X103505Y231140D03*
X71755Y231140D03*
X65405Y231140D03*
X414020Y231775D03*
D26*
X407035Y231775D03*
D38*
X398780Y231775D03*
D87*
X343535Y231775D03*
D149*
X271463Y231775D03*
D65*
X205423Y231775D03*
D26*
X189865Y231775D03*
D70*
X184150Y231775D03*
D41*
X180023Y231775D03*
D26*
X140335Y231775D03*
D45*
X104775Y231775D03*
X103505Y231775D03*
D41*
X70803Y231775D03*
D78*
X480378Y232410D03*
D41*
X474028Y232410D03*
X470218Y232410D03*
X467043Y232410D03*
D35*
X463550Y232410D03*
D41*
X456248Y232410D03*
X450533Y232410D03*
X447358Y232410D03*
X442278Y232410D03*
D26*
X436880Y232410D03*
D35*
X431800Y232410D03*
D41*
X427673Y232410D03*
X411163Y232410D03*
D45*
X408940Y232410D03*
D70*
X401955Y232410D03*
D97*
X345758Y232410D03*
D149*
X272098Y232410D03*
D65*
X205423Y232410D03*
D78*
X190183Y232410D03*
D70*
X184785Y232410D03*
D41*
X180023Y232410D03*
D26*
X140970Y232410D03*
D45*
X69850Y232410D03*
D49*
X480060Y233045D03*
D35*
X473710Y233045D03*
D37*
X470218Y233045D03*
D35*
X466725Y233045D03*
D41*
X463233Y233045D03*
D35*
X455930Y233045D03*
X450215Y233045D03*
X447040Y233045D03*
X441960Y233045D03*
D49*
X436880Y233045D03*
D41*
X431483Y233045D03*
D35*
X427355Y233045D03*
D78*
X406083Y233045D03*
D45*
X400685Y233045D03*
D225*
X347980Y233045D03*
D226*
X272415Y233045D03*
D17*
X205740Y233045D03*
D26*
X190500Y233045D03*
D70*
X184785Y233045D03*
D35*
X179705Y233045D03*
D37*
X141288Y233045D03*
D45*
X135255Y233045D03*
X103505Y233045D03*
D35*
X88900Y233045D03*
D45*
X86995Y233045D03*
D41*
X68898Y233045D03*
D16*
X479108Y233680D03*
D35*
X473710Y233680D03*
D26*
X470535Y233680D03*
D35*
X466725Y233680D03*
D41*
X463233Y233680D03*
X455613Y233680D03*
D35*
X450215Y233680D03*
D41*
X446723Y233680D03*
D37*
X442278Y233680D03*
D41*
X438468Y233680D03*
D35*
X434975Y233680D03*
D45*
X427355Y233680D03*
X408940Y233680D03*
D26*
X400685Y233680D03*
D227*
X347028Y233680D03*
D149*
X272733Y233680D03*
D65*
X206058Y233680D03*
D78*
X190818Y233680D03*
D36*
X185103Y233680D03*
D41*
X179388Y233680D03*
D45*
X104140Y233680D03*
X102870Y233680D03*
D41*
X90488Y233680D03*
D45*
X88900Y233680D03*
D41*
X87313Y233680D03*
D35*
X480695Y234315D03*
D37*
X477203Y234315D03*
D78*
X472123Y234315D03*
D41*
X466408Y234315D03*
D35*
X462915Y234315D03*
D41*
X455613Y234315D03*
X449898Y234315D03*
X446723Y234315D03*
D37*
X442278Y234315D03*
D41*
X438468Y234315D03*
D35*
X434340Y234315D03*
D45*
X404495Y234315D03*
D41*
X401638Y234315D03*
D42*
X395605Y234315D03*
D86*
X344488Y234315D03*
D149*
X273368Y234315D03*
D65*
X206058Y234315D03*
D78*
X190818Y234315D03*
D36*
X185103Y234315D03*
D41*
X179388Y234315D03*
D45*
X104140Y234315D03*
X102870Y234315D03*
D41*
X91758Y234315D03*
X86043Y234315D03*
X480378Y234950D03*
X476568Y234950D03*
D78*
X472123Y234950D03*
D41*
X466408Y234950D03*
D35*
X462280Y234950D03*
D41*
X455613Y234950D03*
X449898Y234950D03*
D35*
X446405Y234950D03*
D78*
X442278Y234950D03*
D41*
X438468Y234950D03*
X436563Y234950D03*
D35*
X433705Y234950D03*
X430530Y234950D03*
X426720Y234950D03*
X407035Y234950D03*
D78*
X403543Y234950D03*
D35*
X400050Y234950D03*
D228*
X347980Y234950D03*
D149*
X273368Y234950D03*
D65*
X206058Y234950D03*
D26*
X191135Y234950D03*
D36*
X185103Y234950D03*
D41*
X178753Y234950D03*
D45*
X164465Y234950D03*
X104140Y234950D03*
X102870Y234950D03*
D41*
X92393Y234950D03*
D35*
X85090Y234950D03*
D41*
X480378Y235585D03*
X475933Y235585D03*
D16*
X471488Y235585D03*
D41*
X465773Y235585D03*
D70*
X460375Y235585D03*
D41*
X454978Y235585D03*
D35*
X449580Y235585D03*
D41*
X446088Y235585D03*
D78*
X442278Y235585D03*
D41*
X438468Y235585D03*
D49*
X434975Y235585D03*
D35*
X430530Y235585D03*
D41*
X426403Y235585D03*
X407988Y235585D03*
D38*
X396875Y235585D03*
D86*
X344488Y235585D03*
D211*
X273050Y235585D03*
D65*
X206693Y235585D03*
D78*
X191453Y235585D03*
D28*
X185103Y235585D03*
D41*
X178118Y235585D03*
D37*
X103188Y235585D03*
D45*
X92710Y235585D03*
D35*
X85090Y235585D03*
X480060Y236220D03*
D41*
X475298Y236220D03*
X472758Y236220D03*
D37*
X469583Y236220D03*
D41*
X465773Y236220D03*
D70*
X460375Y236220D03*
D41*
X454978Y236220D03*
X449263Y236220D03*
X446088Y236220D03*
D37*
X443548Y236220D03*
D41*
X441008Y236220D03*
X438468Y236220D03*
D26*
X434975Y236220D03*
D41*
X430213Y236220D03*
D35*
X426085Y236220D03*
D93*
X346393Y236220D03*
D147*
X273368Y236220D03*
D65*
X206693Y236220D03*
D26*
X191770Y236220D03*
D42*
X185420Y236220D03*
D45*
X177800Y236220D03*
D41*
X170498Y236220D03*
D35*
X102870Y236220D03*
D45*
X93345Y236220D03*
D41*
X86043Y236220D03*
D45*
X84455Y236220D03*
D35*
X480060Y236855D03*
D41*
X475298Y236855D03*
X472758Y236855D03*
D35*
X468630Y236855D03*
D41*
X465773Y236855D03*
X461963Y236855D03*
X454978Y236855D03*
X449263Y236855D03*
D78*
X444818Y236855D03*
D35*
X440690Y236855D03*
D41*
X437833Y236855D03*
D35*
X429895Y236855D03*
D41*
X425768Y236855D03*
D229*
X348933Y236855D03*
D147*
X273368Y236855D03*
D17*
X207010Y236855D03*
D26*
X191770Y236855D03*
D42*
X185420Y236855D03*
D45*
X173990Y236855D03*
D35*
X102870Y236855D03*
D45*
X93345Y236855D03*
D41*
X86678Y236855D03*
D45*
X83820Y236855D03*
X64135Y236855D03*
D41*
X479743Y237490D03*
X475298Y237490D03*
D35*
X472440Y237490D03*
D41*
X468313Y237490D03*
D35*
X465455Y237490D03*
D41*
X461963Y237490D03*
X454343Y237490D03*
D35*
X448945Y237490D03*
D26*
X444500Y237490D03*
D41*
X440373Y237490D03*
D35*
X437515Y237490D03*
D41*
X433388Y237490D03*
X429578Y237490D03*
X425768Y237490D03*
D26*
X409575Y237490D03*
D53*
X398145Y237490D03*
D47*
X341630Y237490D03*
D153*
X274638Y237490D03*
D17*
X207010Y237490D03*
D26*
X191770Y237490D03*
D28*
X185738Y237490D03*
D37*
X102553Y237490D03*
D45*
X93345Y237490D03*
X85090Y237490D03*
X83820Y237490D03*
X63500Y237490D03*
D37*
X479108Y238125D03*
X475933Y238125D03*
D41*
X472123Y238125D03*
X468313Y238125D03*
D35*
X465455Y238125D03*
X461645Y238125D03*
D45*
X456565Y238125D03*
D35*
X454660Y238125D03*
X448945Y238125D03*
D37*
X444818Y238125D03*
D41*
X440373Y238125D03*
D37*
X436563Y238125D03*
D35*
X433705Y238125D03*
X429260Y238125D03*
X425450Y238125D03*
D230*
X353378Y238125D03*
D226*
X274955Y238125D03*
D17*
X207645Y238125D03*
D26*
X191770Y238125D03*
D36*
X186373Y238125D03*
D45*
X182245Y238125D03*
D35*
X102235Y238125D03*
D45*
X93345Y238125D03*
X83820Y238125D03*
D70*
X477520Y238760D03*
D16*
X470218Y238760D03*
D35*
X464820Y238760D03*
D31*
X456883Y238760D03*
D41*
X448628Y238760D03*
D37*
X444818Y238760D03*
D35*
X440055Y238760D03*
D49*
X434975Y238760D03*
D35*
X429260Y238760D03*
D41*
X425133Y238760D03*
D231*
X356235Y238760D03*
D226*
X274955Y238760D03*
D17*
X207645Y238760D03*
D37*
X192088Y238760D03*
D36*
X187008Y238760D03*
D41*
X182563Y238760D03*
D37*
X101918Y238760D03*
D45*
X93345Y238760D03*
D35*
X84455Y238760D03*
D49*
X477520Y239395D03*
X470535Y239395D03*
D35*
X464820Y239395D03*
D32*
X456565Y239395D03*
D35*
X448310Y239395D03*
X445135Y239395D03*
X440055Y239395D03*
D26*
X434975Y239395D03*
D35*
X428625Y239395D03*
X424815Y239395D03*
D45*
X381635Y239395D03*
X380365Y239395D03*
D232*
X339725Y239395D03*
D153*
X275273Y239395D03*
D17*
X207645Y239395D03*
D37*
X192088Y239395D03*
D36*
X187008Y239395D03*
D41*
X182563Y239395D03*
D35*
X101600Y239395D03*
X85090Y239395D03*
D45*
X457835Y240030D03*
D35*
X428625Y240030D03*
X424815Y240030D03*
D233*
X352425Y240030D03*
D153*
X275908Y240030D03*
D17*
X207645Y240030D03*
D37*
X192088Y240030D03*
D36*
X187008Y240030D03*
D41*
X182563Y240030D03*
D37*
X101283Y240030D03*
D45*
X92710Y240030D03*
D35*
X85090Y240030D03*
D41*
X401003Y240665D03*
D157*
X340995Y240665D03*
D153*
X275908Y240665D03*
D17*
X207645Y240665D03*
D26*
X192405Y240665D03*
D70*
X187325Y240665D03*
D41*
X182563Y240665D03*
D45*
X102235Y240665D03*
D35*
X100330Y240665D03*
D45*
X92075Y240665D03*
X507365Y241300D03*
D89*
X348298Y241300D03*
D155*
X276225Y241300D03*
D65*
X207963Y241300D03*
D35*
X192405Y241300D03*
D36*
X187643Y241300D03*
D41*
X182563Y241300D03*
D35*
X99695Y241300D03*
D45*
X91440Y241300D03*
D28*
X404813Y241935D03*
D234*
X342900Y241935D03*
D226*
X276225Y241935D03*
D17*
X208280Y241935D03*
D37*
X192723Y241935D03*
D70*
X187960Y241935D03*
D41*
X182563Y241935D03*
X98743Y241935D03*
D45*
X503555Y242570D03*
D41*
X468313Y242570D03*
X463233Y242570D03*
D45*
X455930Y242570D03*
D41*
X451803Y242570D03*
D37*
X447358Y242570D03*
D41*
X442913Y242570D03*
D225*
X352425Y242570D03*
D149*
X276543Y242570D03*
D17*
X208280Y242570D03*
D37*
X192723Y242570D03*
D70*
X187960Y242570D03*
D41*
X182563Y242570D03*
D37*
X98108Y242570D03*
D41*
X507048Y243205D03*
D35*
X467995Y243205D03*
X462915Y243205D03*
X459105Y243205D03*
X455930Y243205D03*
X451485Y243205D03*
D78*
X447358Y243205D03*
D41*
X442913Y243205D03*
X439103Y243205D03*
D86*
X348933Y243205D03*
D149*
X276543Y243205D03*
D82*
X208280Y243205D03*
D37*
X192723Y243205D03*
D16*
X188278Y243205D03*
D41*
X182563Y243205D03*
D78*
X97473Y243205D03*
D35*
X467995Y243840D03*
D41*
X462598Y243840D03*
D37*
X459423Y243840D03*
D35*
X455295Y243840D03*
X451485Y243840D03*
D16*
X446723Y243840D03*
D35*
X442595Y243840D03*
D37*
X439103Y243840D03*
D45*
X407670Y243840D03*
X405765Y243840D03*
D36*
X399733Y243840D03*
D47*
X344805Y243840D03*
D226*
X276860Y243840D03*
D82*
X208280Y243840D03*
D35*
X193040Y243840D03*
D16*
X188278Y243840D03*
D41*
X183198Y243840D03*
D78*
X96838Y243840D03*
D41*
X467678Y244475D03*
D16*
X460693Y244475D03*
D70*
X453390Y244475D03*
D35*
X448945Y244475D03*
X445135Y244475D03*
D49*
X440690Y244475D03*
D89*
X350203Y244475D03*
D149*
X277178Y244475D03*
D82*
X208280Y244475D03*
D35*
X193040Y244475D03*
D16*
X188278Y244475D03*
D41*
X183198Y244475D03*
D45*
X116840Y244475D03*
X96520Y244475D03*
D35*
X94615Y244475D03*
X467360Y245110D03*
D78*
X461328Y245110D03*
D49*
X453390Y245110D03*
D41*
X449263Y245110D03*
X444818Y245110D03*
D26*
X441325Y245110D03*
D37*
X408623Y245110D03*
D26*
X403225Y245110D03*
D41*
X395923Y245110D03*
D81*
X348615Y245110D03*
D211*
X276860Y245110D03*
D82*
X208915Y245110D03*
D42*
X189865Y245110D03*
D41*
X183198Y245110D03*
D26*
X93980Y245110D03*
D41*
X467043Y245745D03*
D49*
X460375Y245745D03*
D41*
X454343Y245745D03*
X451803Y245745D03*
X449263Y245745D03*
D37*
X441643Y245745D03*
D41*
X406083Y245745D03*
D16*
X399733Y245745D03*
D68*
X347980Y245745D03*
D147*
X277178Y245745D03*
D82*
X208915Y245745D03*
D42*
X189865Y245745D03*
D35*
X183515Y245745D03*
D45*
X124460Y245745D03*
X114935Y245745D03*
D78*
X92393Y245745D03*
D41*
X467043Y246380D03*
D16*
X460058Y246380D03*
D35*
X454025Y246380D03*
D41*
X451803Y246380D03*
X448628Y246380D03*
D37*
X441008Y246380D03*
X395923Y246380D03*
X392113Y246380D03*
D51*
X347028Y246380D03*
D147*
X277178Y246380D03*
D80*
X209233Y246380D03*
D35*
X192405Y246380D03*
D49*
X188595Y246380D03*
D45*
X184785Y246380D03*
D41*
X183198Y246380D03*
D45*
X166370Y246380D03*
D41*
X164148Y246380D03*
D45*
X114300Y246380D03*
D37*
X90488Y246380D03*
D41*
X467043Y247015D03*
D35*
X461645Y247015D03*
D37*
X458153Y247015D03*
D26*
X452755Y247015D03*
D41*
X448628Y247015D03*
D26*
X440690Y247015D03*
D78*
X407353Y247015D03*
D37*
X401003Y247015D03*
D41*
X393383Y247015D03*
D35*
X389890Y247015D03*
D22*
X346393Y247015D03*
D210*
X277495Y247015D03*
D80*
X209233Y247015D03*
D35*
X192405Y247015D03*
D78*
X188913Y247015D03*
D45*
X185420Y247015D03*
X183515Y247015D03*
X166370Y247015D03*
D41*
X164148Y247015D03*
D45*
X123825Y247015D03*
D37*
X89218Y247015D03*
D41*
X466408Y247650D03*
X461328Y247650D03*
D35*
X457200Y247650D03*
D37*
X452438Y247650D03*
D35*
X448310Y247650D03*
D45*
X443865Y247650D03*
D78*
X440373Y247650D03*
D32*
X400685Y247650D03*
D41*
X392748Y247650D03*
D22*
X346393Y247650D03*
D143*
X277813Y247650D03*
D80*
X209233Y247650D03*
D35*
X192405Y247650D03*
D78*
X188913Y247650D03*
D45*
X185420Y247650D03*
X183515Y247650D03*
D37*
X87313Y247650D03*
D41*
X65723Y247650D03*
D45*
X506730Y248285D03*
D41*
X466408Y248285D03*
X461328Y248285D03*
X456883Y248285D03*
D37*
X452438Y248285D03*
X447358Y248285D03*
D35*
X443865Y248285D03*
X441325Y248285D03*
X438785Y248285D03*
D45*
X407035Y248285D03*
D32*
X396875Y248285D03*
D54*
X347980Y248285D03*
D143*
X277813Y248285D03*
D80*
X209233Y248285D03*
D35*
X192405Y248285D03*
D78*
X188913Y248285D03*
D41*
X183833Y248285D03*
D26*
X85090Y248285D03*
D49*
X68580Y248285D03*
D70*
X466090Y248920D03*
X459105Y248920D03*
D35*
X452120Y248920D03*
D16*
X445453Y248920D03*
D41*
X441008Y248920D03*
D37*
X437833Y248920D03*
D26*
X403860Y248920D03*
D78*
X395923Y248920D03*
D45*
X393065Y248920D03*
D54*
X347980Y248920D03*
D143*
X277813Y248920D03*
D80*
X209233Y248920D03*
D35*
X192405Y248920D03*
D78*
X188913Y248920D03*
D45*
X186055Y248920D03*
D41*
X183833Y248920D03*
D45*
X123190Y248920D03*
D78*
X82868Y248920D03*
X72708Y248920D03*
D45*
X31750Y248920D03*
D70*
X466090Y249555D03*
D16*
X459423Y249555D03*
D35*
X452120Y249555D03*
D78*
X445453Y249555D03*
D35*
X440690Y249555D03*
X437515Y249555D03*
D45*
X408940Y249555D03*
D37*
X406718Y249555D03*
D26*
X400050Y249555D03*
D49*
X391795Y249555D03*
D217*
X346393Y249555D03*
D144*
X278130Y249555D03*
D80*
X209233Y249555D03*
D35*
X192405Y249555D03*
D26*
X189230Y249555D03*
D45*
X186055Y249555D03*
X184150Y249555D03*
X166370Y249555D03*
X123190Y249555D03*
X121285Y249555D03*
D39*
X77470Y249555D03*
D45*
X31750Y249555D03*
D16*
X465773Y250190D03*
D26*
X459105Y250190D03*
D41*
X451803Y250190D03*
D35*
X445135Y250190D03*
D45*
X440690Y250190D03*
D26*
X403860Y250190D03*
D35*
X396240Y250190D03*
D47*
X347980Y250190D03*
D144*
X278130Y250190D03*
D80*
X209233Y250190D03*
D70*
X190500Y250190D03*
D45*
X186690Y250190D03*
X184150Y250190D03*
X166370Y250190D03*
X122555Y250190D03*
X31750Y250190D03*
D41*
X403543Y250825D03*
D78*
X399733Y250825D03*
X392748Y250825D03*
D185*
X345758Y250825D03*
D104*
X278130Y250825D03*
D80*
X209233Y250825D03*
D70*
X190500Y250825D03*
D45*
X186690Y250825D03*
X184150Y250825D03*
X121920Y250825D03*
X32385Y250825D03*
D37*
X400368Y251460D03*
D36*
X395288Y251460D03*
D16*
X388303Y251460D03*
D235*
X343853Y251460D03*
D103*
X278448Y251460D03*
D41*
X253048Y251460D03*
D80*
X209233Y251460D03*
D49*
X190500Y251460D03*
D45*
X184150Y251460D03*
X121920Y251460D03*
X32385Y251460D03*
X399415Y252095D03*
D39*
X393700Y252095D03*
D70*
X383540Y252095D03*
D236*
X342265Y252095D03*
D104*
X278765Y252095D03*
D41*
X253048Y252095D03*
D80*
X209233Y252095D03*
D70*
X189865Y252095D03*
D41*
X184468Y252095D03*
D45*
X121285Y252095D03*
X32385Y252095D03*
D26*
X394970Y252730D03*
D28*
X388938Y252730D03*
D237*
X344170Y252730D03*
D103*
X279083Y252730D03*
D35*
X253365Y252730D03*
D80*
X209233Y252730D03*
D70*
X189865Y252730D03*
D41*
X184468Y252730D03*
D45*
X122555Y252730D03*
X121285Y252730D03*
X33020Y252730D03*
X507365Y253365D03*
D41*
X472123Y253365D03*
D35*
X468630Y253365D03*
X465455Y253365D03*
D16*
X460693Y253365D03*
D70*
X453390Y253365D03*
D35*
X448310Y253365D03*
X442595Y253365D03*
D45*
X398145Y253365D03*
D25*
X387350Y253365D03*
D238*
X342583Y253365D03*
D103*
X279083Y253365D03*
D41*
X253683Y253365D03*
D80*
X209233Y253365D03*
D16*
X190183Y253365D03*
D45*
X184785Y253365D03*
X122555Y253365D03*
X44450Y253365D03*
X33020Y253365D03*
D41*
X505778Y254000D03*
D35*
X471805Y254000D03*
D37*
X468313Y254000D03*
D35*
X465455Y254000D03*
D70*
X460375Y254000D03*
X453390Y254000D03*
D35*
X448310Y254000D03*
X442595Y254000D03*
X394335Y254000D03*
D47*
X348615Y254000D03*
D103*
X279718Y254000D03*
D41*
X253683Y254000D03*
D80*
X209233Y254000D03*
D78*
X190183Y254000D03*
D41*
X185103Y254000D03*
D45*
X122555Y254000D03*
X507365Y254635D03*
D35*
X471805Y254635D03*
D37*
X468313Y254635D03*
D41*
X465138Y254635D03*
D70*
X460375Y254635D03*
D35*
X454660Y254635D03*
D45*
X451485Y254635D03*
D41*
X447993Y254635D03*
X442278Y254635D03*
D45*
X409575Y254635D03*
D41*
X403543Y254635D03*
D37*
X396558Y254635D03*
D35*
X392430Y254635D03*
D234*
X347980Y254635D03*
D103*
X279718Y254635D03*
D41*
X253683Y254635D03*
D82*
X209550Y254635D03*
D49*
X189865Y254635D03*
D41*
X185103Y254635D03*
D45*
X122555Y254635D03*
X121285Y254635D03*
X33655Y254635D03*
D41*
X471488Y255270D03*
D26*
X467995Y255270D03*
D41*
X465138Y255270D03*
X461963Y255270D03*
X458153Y255270D03*
X454978Y255270D03*
D35*
X447675Y255270D03*
D41*
X442278Y255270D03*
D35*
X401955Y255270D03*
D49*
X394970Y255270D03*
D45*
X391795Y255270D03*
D37*
X389573Y255270D03*
D239*
X346393Y255270D03*
D103*
X279718Y255270D03*
D41*
X253683Y255270D03*
D80*
X209233Y255270D03*
D49*
X189865Y255270D03*
D41*
X185103Y255270D03*
D45*
X120650Y255270D03*
D41*
X33973Y255270D03*
D35*
X471170Y255905D03*
D41*
X468948Y255905D03*
D78*
X465773Y255905D03*
D41*
X461963Y255905D03*
D35*
X457835Y255905D03*
D41*
X454343Y255905D03*
X447358Y255905D03*
D35*
X441960Y255905D03*
X405130Y255905D03*
X398780Y255905D03*
D41*
X394653Y255905D03*
D26*
X391795Y255905D03*
X386715Y255905D03*
D237*
X345440Y255905D03*
D104*
X280035Y255905D03*
D41*
X254318Y255905D03*
D80*
X209233Y255905D03*
D49*
X189865Y255905D03*
D41*
X185103Y255905D03*
D45*
X120650Y255905D03*
D41*
X34608Y255905D03*
X470853Y256540D03*
X468948Y256540D03*
D26*
X465455Y256540D03*
D35*
X461645Y256540D03*
D41*
X457518Y256540D03*
X454343Y256540D03*
X447358Y256540D03*
X441643Y256540D03*
D16*
X436563Y256540D03*
D45*
X403225Y256540D03*
D35*
X397510Y256540D03*
D70*
X389890Y256540D03*
D78*
X383223Y256540D03*
D238*
X343853Y256540D03*
D104*
X280035Y256540D03*
D41*
X254318Y256540D03*
D76*
X209550Y256540D03*
D78*
X189548Y256540D03*
D41*
X185103Y256540D03*
D45*
X121920Y256540D03*
X45085Y256540D03*
X41275Y256540D03*
X34925Y256540D03*
D26*
X469900Y257175D03*
D37*
X465138Y257175D03*
D41*
X461328Y257175D03*
X457518Y257175D03*
X454343Y257175D03*
D35*
X447040Y257175D03*
D41*
X441643Y257175D03*
D70*
X436245Y257175D03*
D35*
X400685Y257175D03*
D37*
X394018Y257175D03*
D36*
X387668Y257175D03*
D188*
X345123Y257175D03*
D103*
X280353Y257175D03*
D41*
X254318Y257175D03*
D62*
X210503Y257175D03*
D41*
X199073Y257175D03*
D78*
X189548Y257175D03*
D41*
X185738Y257175D03*
X120968Y257175D03*
D45*
X45720Y257175D03*
X34925Y257175D03*
D37*
X469583Y257810D03*
X465138Y257810D03*
D41*
X461328Y257810D03*
D35*
X457200Y257810D03*
D41*
X453708Y257810D03*
X446723Y257810D03*
D35*
X441325Y257810D03*
D41*
X434658Y257810D03*
D45*
X412115Y257810D03*
D41*
X407353Y257810D03*
D45*
X405765Y257810D03*
X398780Y257810D03*
X397510Y257810D03*
D49*
X391795Y257810D03*
D38*
X384810Y257810D03*
D236*
X344170Y257810D03*
D104*
X280670Y257810D03*
D35*
X254635Y257810D03*
D62*
X210503Y257810D03*
D41*
X199073Y257810D03*
D78*
X189548Y257810D03*
D41*
X185738Y257810D03*
D45*
X122555Y257810D03*
X120650Y257810D03*
X45720Y257810D03*
X41910Y257810D03*
X35560Y257810D03*
D37*
X469583Y258445D03*
X464503Y258445D03*
D35*
X461010Y258445D03*
D41*
X456883Y258445D03*
X453708Y258445D03*
X446723Y258445D03*
D35*
X441325Y258445D03*
D45*
X409575Y258445D03*
X403860Y258445D03*
D78*
X396558Y258445D03*
D35*
X391795Y258445D03*
D234*
X349250Y258445D03*
D103*
X280988Y258445D03*
D35*
X254635Y258445D03*
D82*
X210820Y258445D03*
D41*
X199073Y258445D03*
D35*
X189865Y258445D03*
D45*
X187960Y258445D03*
D41*
X185738Y258445D03*
D45*
X35560Y258445D03*
X31750Y258445D03*
D37*
X469583Y259080D03*
D35*
X464185Y259080D03*
D41*
X460693Y259080D03*
X456883Y259080D03*
D35*
X453390Y259080D03*
D45*
X448945Y259080D03*
D35*
X446405Y259080D03*
D41*
X441008Y259080D03*
D35*
X408305Y259080D03*
D78*
X401003Y259080D03*
D45*
X396240Y259080D03*
D37*
X394018Y259080D03*
D161*
X349568Y259080D03*
D144*
X281305Y259080D03*
D35*
X254635Y259080D03*
D82*
X210820Y259080D03*
D41*
X199073Y259080D03*
D26*
X189230Y259080D03*
D41*
X185738Y259080D03*
D45*
X121285Y259080D03*
X96520Y259080D03*
X45085Y259080D03*
X36195Y259080D03*
X31750Y259080D03*
D35*
X469265Y259715D03*
X464185Y259715D03*
D41*
X460693Y259715D03*
D35*
X456565Y259715D03*
X453390Y259715D03*
D36*
X446088Y259715D03*
D35*
X440690Y259715D03*
X407035Y259715D03*
D41*
X402908Y259715D03*
D35*
X400050Y259715D03*
D41*
X397828Y259715D03*
D45*
X394335Y259715D03*
D26*
X391795Y259715D03*
D232*
X348615Y259715D03*
D143*
X281623Y259715D03*
D35*
X254635Y259715D03*
D82*
X210820Y259715D03*
D41*
X199073Y259715D03*
D26*
X189230Y259715D03*
D41*
X185738Y259715D03*
D45*
X121285Y259715D03*
X95885Y259715D03*
X45720Y259715D03*
X36195Y259715D03*
X32385Y259715D03*
D41*
X469583Y260350D03*
X463868Y260350D03*
D35*
X460375Y260350D03*
D41*
X456248Y260350D03*
X453073Y260350D03*
D36*
X446088Y260350D03*
D35*
X440690Y260350D03*
D41*
X412433Y260350D03*
D45*
X408305Y260350D03*
D35*
X405130Y260350D03*
D41*
X401003Y260350D03*
D35*
X398780Y260350D03*
D41*
X395923Y260350D03*
D16*
X390843Y260350D03*
D240*
X347345Y260350D03*
D144*
X281940Y260350D03*
D35*
X254635Y260350D03*
D82*
X210820Y260350D03*
D45*
X198755Y260350D03*
D37*
X190183Y260350D03*
D45*
X187960Y260350D03*
D41*
X185738Y260350D03*
D45*
X121285Y260350D03*
X73660Y260350D03*
D35*
X64770Y260350D03*
D45*
X45720Y260350D03*
X36830Y260350D03*
X32385Y260350D03*
D41*
X411163Y260985D03*
D37*
X403543Y260985D03*
D78*
X397828Y260985D03*
D35*
X394335Y260985D03*
D70*
X388620Y260985D03*
D241*
X346710Y260985D03*
D143*
X282258Y260985D03*
D41*
X254953Y260985D03*
D80*
X211138Y260985D03*
D45*
X198755Y260985D03*
X190500Y260985D03*
D35*
X188595Y260985D03*
D41*
X186373Y260985D03*
D45*
X121920Y260985D03*
D26*
X69215Y260985D03*
D45*
X47625Y260985D03*
X46355Y260985D03*
X43180Y260985D03*
D41*
X37148Y260985D03*
D45*
X33020Y260985D03*
D41*
X409893Y261620D03*
D35*
X401955Y261620D03*
D45*
X398145Y261620D03*
D16*
X393383Y261620D03*
D42*
X386715Y261620D03*
D238*
X345758Y261620D03*
D144*
X282575Y261620D03*
D35*
X255270Y261620D03*
D80*
X211138Y261620D03*
D41*
X198438Y261620D03*
D45*
X190500Y261620D03*
D78*
X187643Y261620D03*
D41*
X121603Y261620D03*
X70803Y261620D03*
X68263Y261620D03*
D45*
X48260Y261620D03*
X46355Y261620D03*
X43180Y261620D03*
X37465Y261620D03*
X33020Y261620D03*
D41*
X407988Y262255D03*
D37*
X400368Y262255D03*
D41*
X395923Y262255D03*
D35*
X393065Y262255D03*
D32*
X386080Y262255D03*
D242*
X345123Y262255D03*
D144*
X282575Y262255D03*
D35*
X255270Y262255D03*
D80*
X211138Y262255D03*
D41*
X198438Y262255D03*
X190183Y262255D03*
D26*
X187325Y262255D03*
D45*
X121285Y262255D03*
D26*
X74295Y262255D03*
D41*
X66993Y262255D03*
X65088Y262255D03*
D45*
X46990Y262255D03*
D41*
X43498Y262255D03*
D45*
X38100Y262255D03*
X33655Y262255D03*
D41*
X406718Y262890D03*
D37*
X398463Y262890D03*
D41*
X394018Y262890D03*
D234*
X351155Y262890D03*
D144*
X282575Y262890D03*
D35*
X255270Y262890D03*
D80*
X211138Y262890D03*
D41*
X197803Y262890D03*
D45*
X189865Y262890D03*
D35*
X187960Y262890D03*
D45*
X186055Y262890D03*
X121285Y262890D03*
D41*
X89853Y262890D03*
D26*
X77470Y262890D03*
D45*
X48895Y262890D03*
X43815Y262890D03*
D41*
X39053Y262890D03*
D45*
X34290Y262890D03*
D37*
X405448Y263525D03*
D26*
X396875Y263525D03*
D41*
X392113Y263525D03*
D185*
X350203Y263525D03*
D103*
X282893Y263525D03*
D35*
X255270Y263525D03*
D80*
X211138Y263525D03*
D35*
X197485Y263525D03*
D24*
X178753Y263525D03*
D45*
X147955Y263525D03*
X144780Y263525D03*
X134620Y263525D03*
X129540Y263525D03*
X128270Y263525D03*
X125730Y263525D03*
X121285Y263525D03*
D49*
X88265Y263525D03*
D37*
X83503Y263525D03*
D45*
X80010Y263525D03*
D35*
X78105Y263525D03*
X73660Y263525D03*
D41*
X70168Y263525D03*
X49213Y263525D03*
D45*
X47625Y263525D03*
X44450Y263525D03*
D41*
X39688Y263525D03*
X34608Y263525D03*
D35*
X403860Y264160D03*
D41*
X398463Y264160D03*
D26*
X394970Y264160D03*
D35*
X390525Y264160D03*
D243*
X349885Y264160D03*
D103*
X282893Y264160D03*
D35*
X255270Y264160D03*
D244*
X126683Y264160D03*
D35*
X402590Y264795D03*
D41*
X397193Y264795D03*
D78*
X393383Y264795D03*
D35*
X388620Y264795D03*
D237*
X348615Y264795D03*
D103*
X283528Y264795D03*
D35*
X255270Y264795D03*
D184*
X127000Y264795D03*
D35*
X401320Y265430D03*
D45*
X398145Y265430D03*
D41*
X395288Y265430D03*
D78*
X391478Y265430D03*
D35*
X386715Y265430D03*
D245*
X347980Y265430D03*
D104*
X283845Y265430D03*
D41*
X255588Y265430D03*
D184*
X127000Y265430D03*
D45*
X407670Y266065D03*
D41*
X405448Y266065D03*
D45*
X403225Y266065D03*
D37*
X399733Y266065D03*
D41*
X396558Y266065D03*
X394018Y266065D03*
D49*
X389890Y266065D03*
D37*
X385128Y266065D03*
D191*
X347028Y266065D03*
D103*
X284163Y266065D03*
D41*
X255588Y266065D03*
D184*
X127000Y266065D03*
D45*
X404495Y266700D03*
X401955Y266700D03*
D37*
X398463Y266700D03*
D41*
X395288Y266700D03*
X392748Y266700D03*
D16*
X388303Y266700D03*
D35*
X383540Y266700D03*
D193*
X346710Y266700D03*
D104*
X284480Y266700D03*
D35*
X255905Y266700D03*
D184*
X127000Y266700D03*
D45*
X403225Y267335D03*
X400685Y267335D03*
D37*
X397193Y267335D03*
D41*
X394018Y267335D03*
X390843Y267335D03*
D16*
X386398Y267335D03*
D191*
X347663Y267335D03*
D246*
X284798Y267335D03*
D35*
X255905Y267335D03*
D184*
X127000Y267335D03*
D45*
X399415Y267970D03*
D37*
X395923Y267970D03*
D41*
X392113Y267970D03*
D243*
X351155Y267970D03*
D104*
X285115Y267970D03*
D35*
X256540Y267970D03*
D184*
X127000Y267970D03*
D45*
X400685Y268605D03*
X398145Y268605D03*
D26*
X394335Y268605D03*
D41*
X390843Y268605D03*
D237*
X350520Y268605D03*
D246*
X285433Y268605D03*
D35*
X256540Y268605D03*
D247*
X127318Y268605D03*
D45*
X403860Y269240D03*
X401320Y269240D03*
D41*
X399098Y269240D03*
X396558Y269240D03*
D37*
X392748Y269240D03*
D41*
X388938Y269240D03*
D241*
X349885Y269240D03*
D246*
X285433Y269240D03*
D41*
X256858Y269240D03*
D247*
X127318Y269240D03*
D45*
X406400Y269875D03*
D41*
X402908Y269875D03*
X400368Y269875D03*
X397828Y269875D03*
X395288Y269875D03*
D26*
X391160Y269875D03*
D35*
X387350Y269875D03*
D245*
X349250Y269875D03*
D104*
X285750Y269875D03*
D41*
X256858Y269875D03*
D248*
X127635Y269875D03*
D45*
X407670Y270510D03*
X405765Y270510D03*
X403860Y270510D03*
D41*
X401638Y270510D03*
X399098Y270510D03*
X396558Y270510D03*
X394018Y270510D03*
D78*
X390208Y270510D03*
D35*
X386080Y270510D03*
D191*
X348933Y270510D03*
D103*
X286068Y270510D03*
D41*
X256858Y270510D03*
D248*
X127635Y270510D03*
D45*
X506730Y271145D03*
X410210Y271145D03*
X404495Y271145D03*
D41*
X402908Y271145D03*
X400368Y271145D03*
X397828Y271145D03*
X395288Y271145D03*
X392748Y271145D03*
D26*
X388620Y271145D03*
D238*
X349568Y271145D03*
D104*
X286385Y271145D03*
D35*
X257175Y271145D03*
D248*
X127635Y271145D03*
D45*
X507365Y271780D03*
X504190Y271780D03*
X409575Y271780D03*
X407670Y271780D03*
X405765Y271780D03*
D41*
X403543Y271780D03*
X401638Y271780D03*
X399098Y271780D03*
X396558Y271780D03*
X394018Y271780D03*
X391478Y271780D03*
D78*
X387033Y271780D03*
D242*
X348933Y271780D03*
D104*
X286385Y271780D03*
D35*
X257175Y271780D03*
D248*
X127635Y271780D03*
D45*
X506730Y272415D03*
X504825Y272415D03*
X408305Y272415D03*
X404495Y272415D03*
X402590Y272415D03*
X400685Y272415D03*
D41*
X397828Y272415D03*
X395288Y272415D03*
X392748Y272415D03*
X390208Y272415D03*
D78*
X385763Y272415D03*
D193*
X348615Y272415D03*
D104*
X287020Y272415D03*
D41*
X257493Y272415D03*
D249*
X127953Y272415D03*
D45*
X506095Y273050D03*
X499110Y273050D03*
X407670Y273050D03*
X403860Y273050D03*
D41*
X401638Y273050D03*
X399733Y273050D03*
D45*
X396875Y273050D03*
D41*
X394018Y273050D03*
X391478Y273050D03*
D35*
X388620Y273050D03*
D238*
X350203Y273050D03*
D104*
X287020Y273050D03*
D41*
X257493Y273050D03*
D249*
X127953Y273050D03*
D45*
X506730Y273685D03*
X406400Y273685D03*
X404495Y273685D03*
X402590Y273685D03*
D41*
X400368Y273685D03*
X398463Y273685D03*
X395923Y273685D03*
X392748Y273685D03*
X390208Y273685D03*
D35*
X387350Y273685D03*
D202*
X349885Y273685D03*
D246*
X287338Y273685D03*
D41*
X257493Y273685D03*
D250*
X128270Y273685D03*
D45*
X507365Y274320D03*
X501015Y274320D03*
X495300Y274320D03*
X410210Y274320D03*
X405130Y274320D03*
X403225Y274320D03*
X401320Y274320D03*
D41*
X399098Y274320D03*
D45*
X397510Y274320D03*
D41*
X394653Y274320D03*
X391478Y274320D03*
X388938Y274320D03*
D37*
X385763Y274320D03*
D193*
X349250Y274320D03*
D246*
X287338Y274320D03*
D35*
X257810Y274320D03*
D250*
X128270Y274320D03*
D45*
X501650Y274955D03*
X404495Y274955D03*
X402590Y274955D03*
D41*
X400368Y274955D03*
D45*
X398145Y274955D03*
D41*
X395923Y274955D03*
X393383Y274955D03*
X390208Y274955D03*
X387668Y274955D03*
D202*
X349885Y274955D03*
D104*
X287655Y274955D03*
D41*
X258128Y274955D03*
D250*
X128270Y274955D03*
D45*
X502285Y275590D03*
X403225Y275590D03*
X401320Y275590D03*
X399415Y275590D03*
D41*
X397193Y275590D03*
D45*
X394970Y275590D03*
D41*
X392113Y275590D03*
X388938Y275590D03*
D35*
X386080Y275590D03*
D251*
X349568Y275590D03*
D246*
X287973Y275590D03*
D45*
X258445Y275590D03*
D107*
X201295Y275590D03*
D173*
X105728Y275590D03*
D45*
X31750Y275590D03*
X507365Y276225D03*
X502920Y276225D03*
X501650Y276225D03*
X402590Y276225D03*
D41*
X400368Y276225D03*
D45*
X398145Y276225D03*
D41*
X395923Y276225D03*
D45*
X393700Y276225D03*
D41*
X390843Y276225D03*
X387668Y276225D03*
D35*
X384810Y276225D03*
D215*
X348933Y276225D03*
D246*
X287973Y276225D03*
D41*
X258763Y276225D03*
D121*
X201613Y276225D03*
D252*
X106045Y276225D03*
D45*
X31750Y276225D03*
X506095Y276860D03*
X504190Y276860D03*
X502285Y276860D03*
X406400Y276860D03*
X404495Y276860D03*
X401320Y276860D03*
X399415Y276860D03*
D41*
X397193Y276860D03*
X394653Y276860D03*
X392748Y276860D03*
X389573Y276860D03*
D35*
X386715Y276860D03*
D193*
X349885Y276860D03*
D246*
X288608Y276860D03*
D41*
X258763Y276860D03*
D121*
X201613Y276860D03*
D252*
X106045Y276860D03*
D45*
X31750Y276860D03*
X506730Y277495D03*
D35*
X504825Y277495D03*
D45*
X502920Y277495D03*
X411480Y277495D03*
X407035Y277495D03*
X405765Y277495D03*
X403860Y277495D03*
X401955Y277495D03*
D41*
X400368Y277495D03*
X398463Y277495D03*
X395923Y277495D03*
D35*
X393700Y277495D03*
D41*
X391478Y277495D03*
D35*
X388620Y277495D03*
X385445Y277495D03*
D215*
X349568Y277495D03*
D246*
X288608Y277495D03*
D41*
X258763Y277495D03*
D109*
X201930Y277495D03*
D252*
X106045Y277495D03*
D41*
X32068Y277495D03*
D45*
X507365Y278130D03*
D41*
X505778Y278130D03*
D45*
X503555Y278130D03*
D41*
X501968Y278130D03*
D45*
X495935Y278130D03*
X491490Y278130D03*
X410845Y278130D03*
X404495Y278130D03*
X399415Y278130D03*
X397510Y278130D03*
D41*
X395288Y278130D03*
X392748Y278130D03*
X390208Y278130D03*
D35*
X387350Y278130D03*
D193*
X350520Y278130D03*
D246*
X288608Y278130D03*
D41*
X258763Y278130D03*
D109*
X201930Y278130D03*
D252*
X106045Y278130D03*
D41*
X32068Y278130D03*
D35*
X506730Y278765D03*
D45*
X504190Y278765D03*
X502920Y278765D03*
X496570Y278765D03*
X410210Y278765D03*
X403860Y278765D03*
X401955Y278765D03*
D41*
X398463Y278765D03*
X396558Y278765D03*
X394018Y278765D03*
X391478Y278765D03*
D35*
X389255Y278765D03*
X386080Y278765D03*
D214*
X349885Y278765D03*
D246*
X289243Y278765D03*
D35*
X259080Y278765D03*
D209*
X202248Y278765D03*
D171*
X106363Y278765D03*
D41*
X32068Y278765D03*
X507048Y279400D03*
D45*
X504825Y279400D03*
X503555Y279400D03*
X403225Y279400D03*
D41*
X397193Y279400D03*
X395288Y279400D03*
X392748Y279400D03*
D35*
X390525Y279400D03*
X387985Y279400D03*
D37*
X384493Y279400D03*
D204*
X349568Y279400D03*
D246*
X289243Y279400D03*
D41*
X259398Y279400D03*
D209*
X202248Y279400D03*
D252*
X106045Y279400D03*
D41*
X32068Y279400D03*
D45*
X507365Y280035D03*
D41*
X505778Y280035D03*
D45*
X504190Y280035D03*
X501650Y280035D03*
X408305Y280035D03*
X401955Y280035D03*
D41*
X396558Y280035D03*
X394018Y280035D03*
X392113Y280035D03*
D35*
X389255Y280035D03*
X386715Y280035D03*
D214*
X350520Y280035D03*
D246*
X289243Y280035D03*
D41*
X259398Y280035D03*
D209*
X202248Y280035D03*
D171*
X106363Y280035D03*
D35*
X32385Y280035D03*
X506730Y280670D03*
D45*
X504825Y280670D03*
X502285Y280670D03*
X417830Y280670D03*
X407670Y280670D03*
X400685Y280670D03*
X395605Y280670D03*
D41*
X393383Y280670D03*
X390843Y280670D03*
D35*
X387985Y280670D03*
X385445Y280670D03*
D195*
X349885Y280670D03*
D246*
X289243Y280670D03*
D41*
X259398Y280670D03*
D209*
X202248Y280670D03*
D171*
X106363Y280670D03*
D35*
X32385Y280670D03*
D41*
X507048Y281305D03*
D35*
X504825Y281305D03*
D45*
X502920Y281305D03*
X501650Y281305D03*
X494030Y281305D03*
X492760Y281305D03*
X488950Y281305D03*
X417195Y281305D03*
X415925Y281305D03*
X407035Y281305D03*
X405130Y281305D03*
X401955Y281305D03*
X400050Y281305D03*
X398145Y281305D03*
X396240Y281305D03*
X394335Y281305D03*
D41*
X392113Y281305D03*
X389573Y281305D03*
D49*
X385445Y281305D03*
D253*
X349885Y281305D03*
D246*
X289878Y281305D03*
D45*
X259715Y281305D03*
D209*
X202248Y281305D03*
D171*
X106363Y281305D03*
D35*
X32385Y281305D03*
D45*
X506095Y281940D03*
X504825Y281940D03*
X503555Y281940D03*
X502285Y281940D03*
X499745Y281940D03*
X497840Y281940D03*
X496570Y281940D03*
X494665Y281940D03*
X492125Y281940D03*
X485140Y281940D03*
X419735Y281940D03*
X416560Y281940D03*
X415290Y281940D03*
X412750Y281940D03*
X410845Y281940D03*
X407670Y281940D03*
X405765Y281940D03*
X404495Y281940D03*
X402590Y281940D03*
X399415Y281940D03*
X396875Y281940D03*
D41*
X395288Y281940D03*
X393383Y281940D03*
X390843Y281940D03*
D35*
X388620Y281940D03*
D242*
X352108Y281940D03*
D246*
X289878Y281940D03*
D45*
X259715Y281940D03*
D224*
X202565Y281940D03*
D171*
X106363Y281940D03*
D37*
X32703Y281940D03*
D41*
X507048Y282575D03*
D45*
X505460Y282575D03*
X504190Y282575D03*
X502920Y282575D03*
X500380Y282575D03*
X498475Y282575D03*
X497205Y282575D03*
X495300Y282575D03*
X492760Y282575D03*
X489585Y282575D03*
X487045Y282575D03*
X485775Y282575D03*
X419100Y282575D03*
X417830Y282575D03*
X414655Y282575D03*
X413385Y282575D03*
X410210Y282575D03*
X407035Y282575D03*
X405130Y282575D03*
X403860Y282575D03*
X401955Y282575D03*
X400050Y282575D03*
X398145Y282575D03*
X396240Y282575D03*
X394335Y282575D03*
D41*
X392113Y282575D03*
X390208Y282575D03*
D35*
X387350Y282575D03*
D251*
X351473Y282575D03*
D246*
X289878Y282575D03*
D45*
X259715Y282575D03*
D209*
X202883Y282575D03*
D171*
X106363Y282575D03*
D37*
X32703Y282575D03*
D45*
X507365Y283210D03*
X506095Y283210D03*
X503555Y283210D03*
D41*
X501333Y283210D03*
D45*
X499110Y283210D03*
X497840Y283210D03*
X495935Y283210D03*
X491490Y283210D03*
X490220Y283210D03*
X419735Y283210D03*
X418465Y283210D03*
X417195Y283210D03*
X414020Y283210D03*
X412750Y283210D03*
X411480Y283210D03*
X409575Y283210D03*
X407670Y283210D03*
X406400Y283210D03*
X404495Y283210D03*
X402590Y283210D03*
X401320Y283210D03*
X399415Y283210D03*
X397510Y283210D03*
D41*
X395288Y283210D03*
X393383Y283210D03*
X391478Y283210D03*
D35*
X389255Y283210D03*
D193*
X352425Y283210D03*
D246*
X290513Y283210D03*
D45*
X259715Y283210D03*
D224*
X203200Y283210D03*
D169*
X106680Y283210D03*
D37*
X32703Y283210D03*
D41*
X507048Y283845D03*
D45*
X505460Y283845D03*
X504190Y283845D03*
X502285Y283845D03*
X499745Y283845D03*
X498475Y283845D03*
X496570Y283845D03*
X494665Y283845D03*
X492125Y283845D03*
X490855Y283845D03*
X486410Y283845D03*
X419100Y283845D03*
X417830Y283845D03*
X416560Y283845D03*
X413385Y283845D03*
X412115Y283845D03*
X408940Y283845D03*
X407035Y283845D03*
X403860Y283845D03*
X401955Y283845D03*
X400050Y283845D03*
D41*
X398463Y283845D03*
X396558Y283845D03*
D45*
X394335Y283845D03*
X392430Y283845D03*
D41*
X390208Y283845D03*
D35*
X387985Y283845D03*
D251*
X352108Y283845D03*
D246*
X290513Y283845D03*
D45*
X259715Y283845D03*
D224*
X203200Y283845D03*
D169*
X106680Y283845D03*
D26*
X33020Y283845D03*
D35*
X506730Y284480D03*
D45*
X504825Y284480D03*
D35*
X502285Y284480D03*
D45*
X500380Y284480D03*
X499110Y284480D03*
X497205Y284480D03*
X495300Y284480D03*
X494030Y284480D03*
X490855Y284480D03*
X489585Y284480D03*
X487045Y284480D03*
X485140Y284480D03*
X418465Y284480D03*
X417195Y284480D03*
X412750Y284480D03*
X411480Y284480D03*
X408305Y284480D03*
X404495Y284480D03*
D41*
X402908Y284480D03*
D45*
X401320Y284480D03*
X399415Y284480D03*
X397510Y284480D03*
X395605Y284480D03*
X393700Y284480D03*
D41*
X391478Y284480D03*
D238*
X354013Y284480D03*
D246*
X290513Y284480D03*
D41*
X260033Y284480D03*
D224*
X203200Y284480D03*
D169*
X106680Y284480D03*
D26*
X33020Y284480D03*
D41*
X507048Y285115D03*
D45*
X505460Y285115D03*
D41*
X503238Y285115D03*
D45*
X501015Y285115D03*
X499745Y285115D03*
D41*
X497523Y285115D03*
D45*
X495935Y285115D03*
X494665Y285115D03*
X491490Y285115D03*
X490220Y285115D03*
X487045Y285115D03*
X485775Y285115D03*
X483870Y285115D03*
X416560Y285115D03*
D41*
X413703Y285115D03*
D45*
X412115Y285115D03*
D41*
X410528Y285115D03*
D45*
X408940Y285115D03*
X407670Y285115D03*
X405765Y285115D03*
X403860Y285115D03*
X401955Y285115D03*
X400050Y285115D03*
X398780Y285115D03*
X396875Y285115D03*
D41*
X394653Y285115D03*
D45*
X392430Y285115D03*
X390525Y285115D03*
D202*
X353695Y285115D03*
D246*
X291148Y285115D03*
D41*
X260033Y285115D03*
D224*
X203835Y285115D03*
D167*
X106998Y285115D03*
D26*
X33020Y285115D03*
D45*
X507365Y285750D03*
X506095Y285750D03*
D35*
X503555Y285750D03*
D45*
X501650Y285750D03*
X500380Y285750D03*
D41*
X498158Y285750D03*
D45*
X496570Y285750D03*
X495300Y285750D03*
X493395Y285750D03*
X492125Y285750D03*
X490220Y285750D03*
X488950Y285750D03*
X487680Y285750D03*
D35*
X415290Y285750D03*
D45*
X413385Y285750D03*
X411480Y285750D03*
D37*
X409258Y285750D03*
D41*
X406718Y285750D03*
D45*
X405130Y285750D03*
X403225Y285750D03*
X401320Y285750D03*
X399415Y285750D03*
D41*
X397828Y285750D03*
D45*
X396240Y285750D03*
X393700Y285750D03*
D41*
X391478Y285750D03*
X389573Y285750D03*
D242*
X353378Y285750D03*
D246*
X291148Y285750D03*
D41*
X260033Y285750D03*
D224*
X203835Y285750D03*
D167*
X106998Y285750D03*
D78*
X33338Y285750D03*
D45*
X506730Y286385D03*
D35*
X504190Y286385D03*
D45*
X502285Y286385D03*
X501015Y286385D03*
X498475Y286385D03*
X497205Y286385D03*
D41*
X495618Y286385D03*
D45*
X494030Y286385D03*
X492760Y286385D03*
X490855Y286385D03*
X489585Y286385D03*
X488315Y286385D03*
X486410Y286385D03*
X484505Y286385D03*
D35*
X414655Y286385D03*
D45*
X412750Y286385D03*
X410845Y286385D03*
D37*
X408623Y286385D03*
D45*
X405765Y286385D03*
X402590Y286385D03*
D41*
X400368Y286385D03*
D45*
X398780Y286385D03*
X396875Y286385D03*
X394970Y286385D03*
D41*
X392748Y286385D03*
D238*
X354648Y286385D03*
D246*
X291148Y286385D03*
D41*
X260033Y286385D03*
D224*
X203835Y286385D03*
D169*
X107315Y286385D03*
D78*
X33338Y286385D03*
X505778Y287020D03*
D35*
X502285Y287020D03*
D45*
X499110Y287020D03*
X497205Y287020D03*
X495935Y287020D03*
D37*
X493713Y287020D03*
D45*
X491490Y287020D03*
X489585Y287020D03*
X488315Y287020D03*
X487045Y287020D03*
X485140Y287020D03*
X483235Y287020D03*
X481965Y287020D03*
X479425Y287020D03*
X424180Y287020D03*
X421640Y287020D03*
X419100Y287020D03*
X416560Y287020D03*
D37*
X414338Y287020D03*
D45*
X412115Y287020D03*
X410210Y287020D03*
D41*
X408623Y287020D03*
D45*
X407035Y287020D03*
D41*
X405448Y287020D03*
X403543Y287020D03*
X401638Y287020D03*
X399733Y287020D03*
X397828Y287020D03*
X395923Y287020D03*
D45*
X394335Y287020D03*
D41*
X392113Y287020D03*
D191*
X354648Y287020D03*
D105*
X291465Y287020D03*
D41*
X260033Y287020D03*
D224*
X203835Y287020D03*
D167*
X107633Y287020D03*
D78*
X33338Y287020D03*
D187*
X413385Y287655D03*
D105*
X291465Y287655D03*
D45*
X260350Y287655D03*
D209*
X204153Y287655D03*
D167*
X107633Y287655D03*
D49*
X33655Y287655D03*
D187*
X413385Y288290D03*
D246*
X291783Y288290D03*
D224*
X204470Y288290D03*
D167*
X107633Y288290D03*
D49*
X33655Y288290D03*
D187*
X413385Y288925D03*
D105*
X292100Y288925D03*
D224*
X204470Y288925D03*
D167*
X108268Y288925D03*
D49*
X33655Y288925D03*
D187*
X413385Y289560D03*
D105*
X292100Y289560D03*
D224*
X205105Y289560D03*
D167*
X108268Y289560D03*
D16*
X33973Y289560D03*
D254*
X413703Y290195D03*
D246*
X292418Y290195D03*
D224*
X205105Y290195D03*
D169*
X108585Y290195D03*
D16*
X33973Y290195D03*
D254*
X413703Y290830D03*
D246*
X292418Y290830D03*
D224*
X205740Y290830D03*
D167*
X108903Y290830D03*
D16*
X33973Y290830D03*
D254*
X413703Y291465D03*
D105*
X292735Y291465D03*
D209*
X206058Y291465D03*
D167*
X108903Y291465D03*
D70*
X34290Y291465D03*
D254*
X413703Y292100D03*
D105*
X292735Y292100D03*
D109*
X206375Y292100D03*
D169*
X109220Y292100D03*
D70*
X34290Y292100D03*
D254*
X413703Y292735D03*
D246*
X293053Y292735D03*
D103*
X204153Y292735D03*
D167*
X109538Y292735D03*
D70*
X34290Y292735D03*
D190*
X414020Y293370D03*
D246*
X293053Y293370D03*
D213*
X200660Y293370D03*
D169*
X109855Y293370D03*
D36*
X34608Y293370D03*
D190*
X414020Y294005D03*
D212*
X288925Y294005D03*
D216*
X200660Y294005D03*
D171*
X110173Y294005D03*
D36*
X34608Y294005D03*
D190*
X414020Y294640D03*
D160*
X288608Y294640D03*
D45*
X231775Y294640D03*
D216*
X200660Y294640D03*
D171*
X110808Y294640D03*
D36*
X34608Y294640D03*
D190*
X414020Y295275D03*
D208*
X288608Y295275D03*
D160*
X249873Y295275D03*
D207*
X200978Y295275D03*
D171*
X110808Y295275D03*
D42*
X34925Y295275D03*
D190*
X414020Y295910D03*
D29*
X301308Y295910D03*
D36*
X275273Y295910D03*
D212*
X249555Y295910D03*
D207*
X200978Y295910D03*
D171*
X111443Y295910D03*
D42*
X34925Y295910D03*
D190*
X414020Y296545D03*
D149*
X247968Y296545D03*
D142*
X201295Y296545D03*
D252*
X111760Y296545D03*
D42*
X34925Y296545D03*
D254*
X413703Y297180D03*
D144*
X246380Y297180D03*
D24*
X200978Y297180D03*
D252*
X111760Y297180D03*
D28*
X35243Y297180D03*
D255*
X407035Y297815D03*
D105*
X244475Y297815D03*
D140*
X201295Y297815D03*
D252*
X112395Y297815D03*
D28*
X35243Y297815D03*
D255*
X407035Y298450D03*
D246*
X244793Y298450D03*
D140*
X201295Y298450D03*
D252*
X112395Y298450D03*
D38*
X35560Y298450D03*
D256*
X406718Y299085D03*
D105*
X244475Y299085D03*
D34*
X201613Y299085D03*
D252*
X113030Y299085D03*
D38*
X35560Y299085D03*
D256*
X406718Y299720D03*
D105*
X244475Y299720D03*
D34*
X201613Y299720D03*
D252*
X113030Y299720D03*
D38*
X35560Y299720D03*
D256*
X406718Y300355D03*
D105*
X244475Y300355D03*
D129*
X201613Y300355D03*
D173*
X113348Y300355D03*
D30*
X35878Y300355D03*
D257*
X406400Y300990D03*
D106*
X244158Y300990D03*
D129*
X201613Y300990D03*
D56*
X173673Y300990D03*
D49*
X160655Y300990D03*
D230*
X98743Y300990D03*
D30*
X35878Y300990D03*
D257*
X406400Y301625D03*
D106*
X244158Y301625D03*
D48*
X201613Y301625D03*
D27*
X175578Y301625D03*
D258*
X97790Y301625D03*
D39*
X36195Y301625D03*
D259*
X406083Y302260D03*
D106*
X244158Y302260D03*
D48*
X201613Y302260D03*
D25*
X176530Y302260D03*
D260*
X97155Y302260D03*
D39*
X36195Y302260D03*
D259*
X406083Y302895D03*
D106*
X244158Y302895D03*
D18*
X201930Y302895D03*
D25*
X177165Y302895D03*
D261*
X96838Y302895D03*
D39*
X36195Y302895D03*
D262*
X405765Y303530D03*
D32*
X261620Y303530D03*
D207*
X237173Y303530D03*
D18*
X201930Y303530D03*
D19*
X177800Y303530D03*
D45*
X164465Y303530D03*
X162560Y303530D03*
D28*
X156528Y303530D03*
D263*
X96520Y303530D03*
D29*
X36513Y303530D03*
D264*
X405448Y304165D03*
D32*
X261620Y304165D03*
D140*
X236220Y304165D03*
D18*
X201930Y304165D03*
D31*
X178753Y304165D03*
D53*
X158750Y304165D03*
D263*
X96520Y304165D03*
D29*
X36513Y304165D03*
D264*
X405448Y304800D03*
D29*
X261938Y304800D03*
D20*
X235585Y304800D03*
D55*
X202248Y304800D03*
D32*
X179070Y304800D03*
D265*
X107633Y304800D03*
D32*
X36830Y304800D03*
D266*
X405130Y305435D03*
D29*
X261938Y305435D03*
D129*
X235268Y305435D03*
D60*
X201930Y305435D03*
D29*
X179388Y305435D03*
D267*
X108268Y305435D03*
D32*
X36830Y305435D03*
D266*
X405130Y306070D03*
D39*
X262255Y306070D03*
D129*
X235268Y306070D03*
D60*
X201930Y306070D03*
D29*
X180023Y306070D03*
D267*
X108903Y306070D03*
D32*
X36830Y306070D03*
D266*
X405130Y306705D03*
D39*
X262255Y306705D03*
D44*
X234950Y306705D03*
D52*
X202248Y306705D03*
D29*
X180023Y306705D03*
D268*
X109538Y306705D03*
D31*
X37148Y306705D03*
D269*
X448310Y307340D03*
D54*
X344805Y307340D03*
D38*
X262255Y307340D03*
D129*
X234633Y307340D03*
D52*
X202248Y307340D03*
D39*
X180340Y307340D03*
D53*
X164465Y307340D03*
D229*
X96838Y307340D03*
D31*
X37148Y307340D03*
D269*
X448310Y307975D03*
D54*
X344805Y307975D03*
D28*
X262573Y307975D03*
D129*
X234633Y307975D03*
D52*
X202248Y307975D03*
D30*
X180658Y307975D03*
D77*
X165418Y307975D03*
D99*
X95885Y307975D03*
D19*
X37465Y307975D03*
D269*
X448310Y308610D03*
D58*
X344488Y308610D03*
D28*
X262573Y308610D03*
D129*
X234633Y308610D03*
D59*
X202248Y308610D03*
D30*
X181293Y308610D03*
D27*
X166688Y308610D03*
D91*
X94615Y308610D03*
D19*
X37465Y308610D03*
D270*
X447993Y309245D03*
D54*
X344170Y309245D03*
D28*
X262573Y309245D03*
D129*
X234633Y309245D03*
D59*
X202248Y309245D03*
D30*
X181293Y309245D03*
D29*
X169228Y309245D03*
D35*
X162560Y309245D03*
X151130Y309245D03*
D84*
X93980Y309245D03*
D74*
X37783Y309245D03*
D270*
X447993Y309880D03*
D58*
X343853Y309880D03*
D42*
X262255Y309880D03*
D20*
X234950Y309880D03*
D59*
X202248Y309880D03*
D38*
X181610Y309880D03*
D42*
X150495Y309880D03*
D79*
X93028Y309880D03*
D74*
X37783Y309880D03*
D270*
X447993Y310515D03*
D58*
X343853Y310515D03*
D36*
X262573Y310515D03*
D140*
X234950Y310515D03*
D59*
X202248Y310515D03*
D30*
X181928Y310515D03*
D31*
X149543Y310515D03*
D68*
X92075Y310515D03*
D74*
X37783Y310515D03*
D270*
X447993Y311150D03*
D54*
X343535Y311150D03*
D36*
X262573Y311150D03*
D34*
X234633Y311150D03*
D67*
X202248Y311150D03*
D38*
X182245Y311150D03*
D27*
X149543Y311150D03*
D58*
X91758Y311150D03*
D74*
X37783Y311150D03*
D271*
X447675Y311785D03*
D54*
X343535Y311785D03*
D70*
X262255Y311785D03*
D34*
X234633Y311785D03*
D67*
X202248Y311785D03*
D38*
X182245Y311785D03*
D65*
X149543Y311785D03*
D54*
X91440Y311785D03*
D25*
X38100Y311785D03*
D271*
X447675Y312420D03*
D58*
X343218Y312420D03*
D16*
X262573Y312420D03*
D34*
X234633Y312420D03*
D67*
X202248Y312420D03*
D28*
X182563Y312420D03*
D158*
X157163Y312420D03*
D51*
X91758Y312420D03*
D25*
X38100Y312420D03*
D271*
X447675Y313055D03*
D54*
X342900Y313055D03*
D49*
X262255Y313055D03*
D140*
X234315Y313055D03*
D67*
X202248Y313055D03*
D28*
X182563Y313055D03*
D153*
X156528Y313055D03*
D51*
X91758Y313055D03*
D25*
X38100Y313055D03*
D272*
X447358Y313690D03*
D58*
X342583Y313690D03*
D49*
X262255Y313690D03*
D140*
X234315Y313690D03*
D67*
X202248Y313690D03*
D38*
X182880Y313690D03*
D273*
X113030Y313690D03*
D23*
X38418Y313690D03*
D272*
X447358Y314325D03*
D58*
X342583Y314325D03*
D49*
X262255Y314325D03*
D140*
X234315Y314325D03*
D69*
X202565Y314325D03*
D28*
X183198Y314325D03*
D273*
X113030Y314325D03*
D23*
X38418Y314325D03*
D272*
X447358Y314960D03*
D63*
X342265Y314960D03*
D78*
X261938Y314960D03*
D140*
X234315Y314960D03*
D69*
X202565Y314960D03*
D28*
X183198Y314960D03*
D274*
X113348Y314960D03*
D85*
X38735Y314960D03*
D272*
X447358Y315595D03*
D63*
X341630Y315595D03*
D37*
X261938Y315595D03*
D140*
X234315Y315595D03*
D69*
X202565Y315595D03*
D28*
X183198Y315595D03*
D273*
X113665Y315595D03*
D85*
X38735Y315595D03*
D272*
X447358Y316230D03*
D63*
X341630Y316230D03*
D35*
X262255Y316230D03*
D34*
X233998Y316230D03*
D69*
X202565Y316230D03*
D38*
X183515Y316230D03*
D273*
X113665Y316230D03*
D27*
X39053Y316230D03*
D275*
X475298Y316865D03*
D104*
X409575Y316865D03*
D63*
X341630Y316865D03*
D35*
X262255Y316865D03*
D20*
X233680Y316865D03*
D69*
X202565Y316865D03*
D28*
X183833Y316865D03*
D268*
X113983Y316865D03*
D27*
X39053Y316865D03*
D276*
X476885Y317500D03*
D37*
X441008Y317500D03*
D78*
X435928Y317500D03*
D149*
X407353Y317500D03*
D66*
X341313Y317500D03*
D37*
X261938Y317500D03*
D20*
X233680Y317500D03*
D72*
X202883Y317500D03*
D28*
X183833Y317500D03*
D268*
X113983Y317500D03*
D15*
X39370Y317500D03*
D198*
X478473Y318135D03*
D37*
X441008Y318135D03*
D26*
X435610Y318135D03*
D37*
X431483Y318135D03*
D158*
X405448Y318135D03*
D66*
X341313Y318135D03*
D37*
X261938Y318135D03*
D20*
X233680Y318135D03*
D72*
X202883Y318135D03*
D28*
X183833Y318135D03*
D268*
X114618Y318135D03*
D15*
X39370Y318135D03*
D221*
X479425Y318770D03*
D35*
X435610Y318770D03*
D41*
X431483Y318770D03*
D160*
X404813Y318770D03*
D66*
X341313Y318770D03*
D37*
X261303Y318770D03*
D20*
X233680Y318770D03*
D72*
X202883Y318770D03*
D28*
X183833Y318770D03*
D268*
X114618Y318770D03*
D77*
X39688Y318770D03*
D222*
X480378Y319405D03*
D208*
X404178Y319405D03*
D66*
X341313Y319405D03*
D37*
X261303Y319405D03*
D129*
X233363Y319405D03*
D72*
X202883Y319405D03*
D28*
X183833Y319405D03*
D277*
X114935Y319405D03*
D77*
X39688Y319405D03*
D201*
X481013Y320040D03*
D216*
X403860Y320040D03*
D63*
X341630Y320040D03*
D37*
X260668Y320040D03*
D129*
X233363Y320040D03*
D72*
X202883Y320040D03*
D28*
X183833Y320040D03*
D277*
X114935Y320040D03*
D53*
X40005Y320040D03*
D206*
X481648Y320675D03*
D216*
X403860Y320675D03*
D63*
X341630Y320675D03*
D37*
X260033Y320675D03*
D129*
X233998Y320675D03*
D72*
X202883Y320675D03*
D28*
X183833Y320675D03*
D277*
X114935Y320675D03*
D53*
X40005Y320675D03*
D111*
X482283Y321310D03*
D207*
X403543Y321310D03*
D58*
X341948Y321310D03*
D37*
X260033Y321310D03*
D129*
X233998Y321310D03*
D72*
X202883Y321310D03*
D38*
X184150Y321310D03*
D36*
X174308Y321310D03*
D278*
X110490Y321310D03*
D56*
X40323Y321310D03*
D209*
X482918Y321945D03*
D142*
X403225Y321945D03*
D47*
X342900Y321945D03*
D37*
X259398Y321945D03*
D129*
X233998Y321945D03*
D69*
X203200Y321945D03*
D38*
X184150Y321945D03*
D49*
X175260Y321945D03*
D279*
X109538Y321945D03*
D56*
X40323Y321945D03*
D109*
X483235Y322580D03*
D24*
X402908Y322580D03*
D217*
X343853Y322580D03*
D35*
X259080Y322580D03*
D129*
X233998Y322580D03*
D69*
X203200Y322580D03*
D38*
X184150Y322580D03*
D26*
X175895Y322580D03*
D280*
X109538Y322580D03*
D56*
X40323Y322580D03*
D107*
X483870Y323215D03*
D24*
X402908Y323215D03*
D161*
X344488Y323215D03*
D41*
X258763Y323215D03*
D129*
X233998Y323215D03*
D69*
X203200Y323215D03*
D38*
X184150Y323215D03*
D37*
X176213Y323215D03*
D281*
X108903Y323215D03*
D61*
X40640Y323215D03*
D105*
X484505Y323850D03*
D140*
X402590Y323850D03*
D157*
X344805Y323850D03*
D129*
X233998Y323850D03*
D72*
X203518Y323850D03*
D38*
X184150Y323850D03*
D35*
X176530Y323850D03*
D282*
X108903Y323850D03*
D61*
X40640Y323850D03*
D246*
X484823Y324485D03*
D34*
X402273Y324485D03*
D232*
X345440Y324485D03*
D129*
X233998Y324485D03*
D72*
X203518Y324485D03*
D28*
X184468Y324485D03*
D283*
X108585Y324485D03*
D65*
X40958Y324485D03*
D104*
X485140Y325120D03*
D34*
X402273Y325120D03*
D239*
X345758Y325120D03*
D44*
X233680Y325120D03*
D72*
X203518Y325120D03*
D28*
X184468Y325120D03*
D284*
X108585Y325120D03*
D65*
X40958Y325120D03*
D103*
X485458Y325755D03*
D34*
X402273Y325755D03*
D285*
X346393Y325755D03*
D44*
X233680Y325755D03*
D72*
X203518Y325755D03*
D38*
X184150Y325755D03*
D284*
X108585Y325755D03*
D17*
X41275Y325755D03*
D144*
X485775Y326390D03*
D20*
X401955Y326390D03*
D237*
X347345Y326390D03*
D45*
X257175Y326390D03*
D44*
X233680Y326390D03*
D72*
X203518Y326390D03*
D38*
X184150Y326390D03*
D45*
X164465Y326390D03*
D286*
X108903Y326390D03*
D17*
X41275Y326390D03*
D210*
X486410Y327025D03*
D41*
X462598Y327025D03*
X419418Y327025D03*
D20*
X401955Y327025D03*
D241*
X347980Y327025D03*
D44*
X233680Y327025D03*
D72*
X203518Y327025D03*
D38*
X184150Y327025D03*
D287*
X110490Y327025D03*
D62*
X41593Y327025D03*
D147*
X486728Y327660D03*
D26*
X462915Y327660D03*
D35*
X419100Y327660D03*
D37*
X415608Y327660D03*
D60*
X400050Y327660D03*
D238*
X348933Y327660D03*
D44*
X233680Y327660D03*
D72*
X203518Y327660D03*
D30*
X183833Y327660D03*
D26*
X175895Y327660D03*
D287*
X111125Y327660D03*
D62*
X41593Y327660D03*
D211*
X487045Y328295D03*
D26*
X463550Y328295D03*
D45*
X460375Y328295D03*
D35*
X419100Y328295D03*
D37*
X415608Y328295D03*
D60*
X400050Y328295D03*
D275*
X352743Y328295D03*
D48*
X233363Y328295D03*
D72*
X203518Y328295D03*
D29*
X183833Y328295D03*
D78*
X176213Y328295D03*
D281*
X111443Y328295D03*
D82*
X41910Y328295D03*
D149*
X487363Y328930D03*
D78*
X463868Y328930D03*
D37*
X460058Y328930D03*
X418783Y328930D03*
D35*
X415290Y328930D03*
D60*
X400050Y328930D03*
D288*
X354965Y328930D03*
D18*
X233680Y328930D03*
D72*
X203518Y328930D03*
D85*
X181610Y328930D03*
D281*
X112078Y328930D03*
D82*
X41910Y328930D03*
D226*
X487680Y329565D03*
D26*
X464185Y329565D03*
D49*
X459740Y329565D03*
D45*
X422910Y329565D03*
D41*
X421323Y329565D03*
D35*
X418465Y329565D03*
X415290Y329565D03*
D60*
X400050Y329565D03*
X371475Y329565D03*
D35*
X353060Y329565D03*
D45*
X347980Y329565D03*
D41*
X344488Y329565D03*
D85*
X335915Y329565D03*
D18*
X233680Y329565D03*
D69*
X203835Y329565D03*
D27*
X181293Y329565D03*
D70*
X164465Y329565D03*
D261*
X108903Y329565D03*
D80*
X42228Y329565D03*
D155*
X488315Y330200D03*
D45*
X466725Y330200D03*
D37*
X464503Y330200D03*
D49*
X459740Y330200D03*
D45*
X426085Y330200D03*
D41*
X423228Y330200D03*
D35*
X420370Y330200D03*
D41*
X417513Y330200D03*
X414973Y330200D03*
D60*
X400050Y330200D03*
X371475Y330200D03*
D42*
X337185Y330200D03*
D18*
X233680Y330200D03*
D69*
X203835Y330200D03*
D85*
X181610Y330200D03*
D36*
X164783Y330200D03*
D289*
X108268Y330200D03*
D80*
X42228Y330200D03*
D34*
X491808Y330835D03*
D16*
X472758Y330835D03*
X465773Y330835D03*
D78*
X460693Y330835D03*
D37*
X426403Y330835D03*
X423228Y330835D03*
D35*
X419735Y330835D03*
D41*
X417513Y330835D03*
D60*
X400050Y330835D03*
X371475Y330835D03*
D78*
X337503Y330835D03*
D18*
X233680Y330835D03*
D69*
X203835Y330835D03*
D32*
X183515Y330835D03*
D26*
X175895Y330835D03*
D70*
X165100Y330835D03*
D229*
X108268Y330835D03*
D76*
X42545Y330835D03*
D34*
X491808Y331470D03*
D35*
X474345Y331470D03*
X464820Y331470D03*
D26*
X461010Y331470D03*
D37*
X456883Y331470D03*
D26*
X426720Y331470D03*
X422910Y331470D03*
D35*
X419735Y331470D03*
D41*
X414973Y331470D03*
D60*
X400050Y331470D03*
D55*
X371158Y331470D03*
D26*
X337185Y331470D03*
D48*
X233998Y331470D03*
D72*
X204153Y331470D03*
D29*
X183833Y331470D03*
D37*
X175578Y331470D03*
D70*
X165100Y331470D03*
D228*
X108585Y331470D03*
D72*
X42863Y331470D03*
D34*
X491808Y332105D03*
D41*
X469583Y332105D03*
D45*
X464185Y332105D03*
D78*
X461328Y332105D03*
X456883Y332105D03*
X427038Y332105D03*
D26*
X422910Y332105D03*
D35*
X419735Y332105D03*
D26*
X415925Y332105D03*
D60*
X400050Y332105D03*
D55*
X371158Y332105D03*
D45*
X336550Y332105D03*
D48*
X233998Y332105D03*
D72*
X204153Y332105D03*
D29*
X183833Y332105D03*
D41*
X175578Y332105D03*
D16*
X165418Y332105D03*
D228*
X108585Y332105D03*
D72*
X42863Y332105D03*
D34*
X491808Y332740D03*
D38*
X469265Y332740D03*
D37*
X461328Y332740D03*
D49*
X457200Y332740D03*
D41*
X453073Y332740D03*
D26*
X431800Y332740D03*
D78*
X427038Y332740D03*
X422593Y332740D03*
D45*
X419735Y332740D03*
D78*
X416243Y332740D03*
D60*
X400050Y332740D03*
D18*
X370840Y332740D03*
D55*
X233998Y332740D03*
D72*
X204153Y332740D03*
D29*
X183833Y332740D03*
D49*
X165735Y332740D03*
D227*
X108903Y332740D03*
D69*
X43180Y332740D03*
D34*
X491808Y333375D03*
D32*
X469265Y333375D03*
D45*
X460375Y333375D03*
D78*
X457518Y333375D03*
D37*
X453073Y333375D03*
D35*
X447040Y333375D03*
D49*
X432435Y333375D03*
D78*
X427038Y333375D03*
D26*
X422275Y333375D03*
D49*
X416560Y333375D03*
D60*
X400050Y333375D03*
D48*
X370523Y333375D03*
D55*
X233998Y333375D03*
D69*
X204470Y333375D03*
D29*
X183833Y333375D03*
D26*
X165735Y333375D03*
D227*
X108903Y333375D03*
D69*
X43180Y333375D03*
D34*
X491808Y334010D03*
D25*
X467995Y334010D03*
D26*
X457835Y334010D03*
D78*
X453073Y334010D03*
X447358Y334010D03*
D16*
X441008Y334010D03*
D70*
X432435Y334010D03*
D49*
X426720Y334010D03*
D26*
X422275Y334010D03*
D16*
X416878Y334010D03*
D60*
X400050Y334010D03*
D44*
X370205Y334010D03*
D55*
X233998Y334010D03*
D69*
X204470Y334010D03*
D29*
X183833Y334010D03*
D101*
X109220Y334010D03*
D67*
X43498Y334010D03*
D140*
X491490Y334645D03*
D85*
X467360Y334645D03*
D41*
X457518Y334645D03*
D49*
X453390Y334645D03*
X447040Y334645D03*
D70*
X440690Y334645D03*
D36*
X432753Y334645D03*
D49*
X426720Y334645D03*
D37*
X422593Y334645D03*
D70*
X417195Y334645D03*
D60*
X400050Y334645D03*
D129*
X369888Y334645D03*
D55*
X233998Y334645D03*
D69*
X204470Y334645D03*
D29*
X183833Y334645D03*
D101*
X109220Y334645D03*
D67*
X43498Y334645D03*
D140*
X491490Y335280D03*
D77*
X466408Y335280D03*
D16*
X453708Y335280D03*
D49*
X447040Y335280D03*
D36*
X440373Y335280D03*
X432753Y335280D03*
D49*
X426720Y335280D03*
D35*
X422910Y335280D03*
D42*
X417830Y335280D03*
D52*
X400368Y335280D03*
D20*
X369570Y335280D03*
D52*
X233998Y335280D03*
D69*
X204470Y335280D03*
D32*
X183515Y335280D03*
D100*
X109538Y335280D03*
D64*
X43815Y335280D03*
D140*
X491490Y335915D03*
D53*
X466090Y335915D03*
D70*
X453390Y335915D03*
D16*
X447358Y335915D03*
D42*
X440690Y335915D03*
D36*
X432753Y335915D03*
D49*
X426720Y335915D03*
D45*
X422910Y335915D03*
D207*
X404178Y335915D03*
D140*
X368935Y335915D03*
D52*
X233998Y335915D03*
D69*
X204470Y335915D03*
D32*
X183515Y335915D03*
D101*
X109855Y335915D03*
D59*
X44133Y335915D03*
D203*
X481965Y336550D03*
D49*
X452755Y336550D03*
D16*
X447358Y336550D03*
D42*
X440690Y336550D03*
D36*
X432753Y336550D03*
D78*
X426403Y336550D03*
D208*
X404813Y336550D03*
D24*
X368618Y336550D03*
D52*
X233998Y336550D03*
D67*
X204788Y336550D03*
D19*
X183515Y336550D03*
D100*
X110173Y336550D03*
D59*
X44133Y336550D03*
D206*
X481648Y337185D03*
D37*
X451803Y337185D03*
D16*
X447358Y337185D03*
D28*
X440373Y337185D03*
D42*
X432435Y337185D03*
D78*
X426403Y337185D03*
D213*
X405130Y337185D03*
D207*
X367983Y337185D03*
D52*
X233998Y337185D03*
D67*
X204788Y337185D03*
D31*
X183198Y337185D03*
D101*
X110490Y337185D03*
D73*
X44450Y337185D03*
D24*
X491173Y337820D03*
D62*
X463868Y337820D03*
D41*
X451168Y337820D03*
D16*
X447358Y337820D03*
D28*
X440373Y337820D03*
D42*
X432435Y337820D03*
D26*
X426720Y337820D03*
D160*
X405448Y337820D03*
D216*
X367665Y337820D03*
D73*
X234315Y337820D03*
D67*
X204788Y337820D03*
D19*
X182880Y337820D03*
D100*
X110808Y337820D03*
D52*
X44768Y337820D03*
D200*
X480060Y338455D03*
D16*
X447358Y338455D03*
D28*
X440373Y338455D03*
D42*
X432435Y338455D03*
D37*
X427038Y338455D03*
D212*
X405765Y338455D03*
D208*
X367348Y338455D03*
D73*
X234315Y338455D03*
D67*
X204788Y338455D03*
D25*
X182880Y338455D03*
D101*
X111125Y338455D03*
D52*
X44768Y338455D03*
D142*
X490855Y339090D03*
D76*
X462280Y339090D03*
D78*
X446723Y339090D03*
D28*
X440373Y339090D03*
D42*
X432435Y339090D03*
D35*
X427355Y339090D03*
D158*
X406083Y339090D03*
D160*
X366713Y339090D03*
D64*
X234315Y339090D03*
D67*
X204788Y339090D03*
D23*
X182563Y339090D03*
D227*
X112078Y339090D03*
D60*
X45085Y339090D03*
D207*
X490538Y339725D03*
D69*
X461010Y339725D03*
D37*
X446088Y339725D03*
D28*
X440373Y339725D03*
D42*
X432435Y339725D03*
D153*
X406718Y339725D03*
D158*
X366078Y339725D03*
D64*
X234315Y339725D03*
X205105Y339725D03*
D85*
X181610Y339725D03*
D26*
X170180Y339725D03*
D225*
X113030Y339725D03*
D60*
X45085Y339725D03*
D290*
X477838Y340360D03*
D28*
X440373Y340360D03*
D36*
X432753Y340360D03*
D226*
X407035Y340360D03*
X365760Y340360D03*
D67*
X234633Y340360D03*
D64*
X205105Y340360D03*
D27*
X181293Y340360D03*
D230*
X117158Y340360D03*
D55*
X45403Y340360D03*
D208*
X489903Y340995D03*
D64*
X458470Y340995D03*
D42*
X440055Y340995D03*
D16*
X433388Y340995D03*
D147*
X407988Y340995D03*
D211*
X365125Y340995D03*
D67*
X234633Y340995D03*
D59*
X205423Y340995D03*
D15*
X180975Y340995D03*
D258*
X116840Y340995D03*
D55*
X45403Y340995D03*
D208*
X489903Y341630D03*
D73*
X457200Y341630D03*
D16*
X439103Y341630D03*
D35*
X434975Y341630D03*
D23*
X423228Y341630D03*
D18*
X401320Y341630D03*
D210*
X364490Y341630D03*
D67*
X235268Y341630D03*
D59*
X205423Y341630D03*
D53*
X180340Y341630D03*
D291*
X116523Y341630D03*
D18*
X45720Y341630D03*
D160*
X489268Y342265D03*
D60*
X455930Y342265D03*
D246*
X410528Y342265D03*
D144*
X363855Y342265D03*
D67*
X235268Y342265D03*
D73*
X205740Y342265D03*
D56*
X180023Y342265D03*
D292*
X116523Y342265D03*
D48*
X46038Y342265D03*
D212*
X488950Y342900D03*
D203*
X443230Y342900D03*
D48*
X402273Y342900D03*
D105*
X363220Y342900D03*
D67*
X235903Y342900D03*
D73*
X205740Y342900D03*
D61*
X179705Y342900D03*
D261*
X116523Y342900D03*
D48*
X46038Y342900D03*
D271*
X447675Y343535D03*
D121*
X362268Y343535D03*
D67*
X235903Y343535D03*
D52*
X206058Y343535D03*
D65*
X179388Y343535D03*
D263*
X116205Y343535D03*
D44*
X46355Y343535D03*
D271*
X447675Y344170D03*
D111*
X360998Y344170D03*
D69*
X236220Y344170D03*
D60*
X205740Y344170D03*
D17*
X179070Y344170D03*
D225*
X116205Y344170D03*
D44*
X46355Y344170D03*
D271*
X447675Y344805D03*
D201*
X359728Y344805D03*
D69*
X236855Y344805D03*
D55*
X206058Y344805D03*
D62*
X178753Y344805D03*
D229*
X115888Y344805D03*
D129*
X46673Y344805D03*
D211*
X487045Y345440D03*
D243*
X426720Y345440D03*
D115*
X358458Y345440D03*
D69*
X236855Y345440D03*
D55*
X206058Y345440D03*
D82*
X178435Y345440D03*
D227*
X115888Y345440D03*
D129*
X46673Y345440D03*
D147*
X486728Y346075D03*
D240*
X426720Y346075D03*
D145*
X357505Y346075D03*
D72*
X237173Y346075D03*
D18*
X206375Y346075D03*
D80*
X178118Y346075D03*
D101*
X116205Y346075D03*
D20*
X46990Y346075D03*
D210*
X486410Y346710D03*
D235*
X426403Y346710D03*
D218*
X355918Y346710D03*
D72*
X237173Y346710D03*
D18*
X206375Y346710D03*
D80*
X177483Y346710D03*
D99*
X116205Y346710D03*
D34*
X47308Y346710D03*
D270*
X447993Y347345D03*
D251*
X352743Y347345D03*
D76*
X237490Y347345D03*
D48*
X206693Y347345D03*
D80*
X177483Y347345D03*
D96*
X116205Y347345D03*
D140*
X47625Y347345D03*
D269*
X448310Y347980D03*
D199*
X350203Y347980D03*
D39*
X295275Y347980D03*
D82*
X237490Y347980D03*
D129*
X206693Y347980D03*
D80*
X176848Y347980D03*
D96*
X116205Y347980D03*
D24*
X47943Y347980D03*
D269*
X448310Y348615D03*
D157*
X347345Y348615D03*
D85*
X296545Y348615D03*
D82*
X238125Y348615D03*
D20*
X207010Y348615D03*
D76*
X176530Y348615D03*
D91*
X116205Y348615D03*
D24*
X47943Y348615D03*
D269*
X448310Y349250D03*
D227*
X338138Y349250D03*
D82*
X238125Y349250D03*
D20*
X207010Y349250D03*
D76*
X176530Y349250D03*
D87*
X116205Y349250D03*
D142*
X48260Y349250D03*
D269*
X448310Y349885D03*
D228*
X337820Y349885D03*
D62*
X238443Y349885D03*
D140*
X207010Y349885D03*
D76*
X175895Y349885D03*
D48*
X148273Y349885D03*
D288*
X100330Y349885D03*
D207*
X48578Y349885D03*
D269*
X448310Y350520D03*
D229*
X337503Y350520D03*
D62*
X239078Y350520D03*
D24*
X207328Y350520D03*
D72*
X175578Y350520D03*
D60*
X148590Y350520D03*
D293*
X99060Y350520D03*
D216*
X48895Y350520D03*
D269*
X448310Y351155D03*
D225*
X337820Y351155D03*
D82*
X239395Y351155D03*
D24*
X207328Y351155D03*
D72*
X175578Y351155D03*
D73*
X149225Y351155D03*
D200*
X98425Y351155D03*
D216*
X48895Y351155D03*
D294*
X448628Y351790D03*
D225*
X337820Y351790D03*
D62*
X239713Y351790D03*
D207*
X207328Y351790D03*
D72*
X174943Y351790D03*
D59*
X149543Y351790D03*
D78*
X130493Y351790D03*
D223*
X97790Y351790D03*
D208*
X49213Y351790D03*
D294*
X448628Y352425D03*
D289*
X337503Y352425D03*
D17*
X240030Y352425D03*
D216*
X207645Y352425D03*
D72*
X174943Y352425D03*
D67*
X149543Y352425D03*
D70*
X131445Y352425D03*
D206*
X97473Y352425D03*
D213*
X49530Y352425D03*
D294*
X448628Y353060D03*
D289*
X337503Y353060D03*
D17*
X240665Y353060D03*
D216*
X207645Y353060D03*
D85*
X179070Y353060D03*
D69*
X149860Y353060D03*
D70*
X132080Y353060D03*
D111*
X97473Y353060D03*
D213*
X49530Y353060D03*
D294*
X448628Y353695D03*
D289*
X337503Y353695D03*
D62*
X240983Y353695D03*
D213*
X207645Y353695D03*
D74*
X179388Y353695D03*
D69*
X149860Y353695D03*
D36*
X132398Y353695D03*
D224*
X97155Y353695D03*
D160*
X49848Y353695D03*
D295*
X448945Y354330D03*
D261*
X337503Y354330D03*
D62*
X241618Y354330D03*
D160*
X207963Y354330D03*
D19*
X179705Y354330D03*
D72*
X149543Y354330D03*
D36*
X133033Y354330D03*
D109*
X97155Y354330D03*
D212*
X50165Y354330D03*
D295*
X448945Y354965D03*
D261*
X337503Y354965D03*
D17*
X241935Y354965D03*
D158*
X207963Y354965D03*
D32*
X179705Y354965D03*
D35*
X170180Y354965D03*
D76*
X149860Y354965D03*
D36*
X133033Y354965D03*
D121*
X96838Y354965D03*
D212*
X50165Y354965D03*
D295*
X448945Y355600D03*
D261*
X337503Y355600D03*
D65*
X242253Y355600D03*
D158*
X207963Y355600D03*
D29*
X180023Y355600D03*
D37*
X171133Y355600D03*
D76*
X149860Y355600D03*
D36*
X133033Y355600D03*
D106*
X96838Y355600D03*
D158*
X50483Y355600D03*
D295*
X448945Y356235D03*
D261*
X337503Y356235D03*
D65*
X242253Y356235D03*
D155*
X208280Y356235D03*
D29*
X180023Y356235D03*
D26*
X171450Y356235D03*
D76*
X149860Y356235D03*
D42*
X133350Y356235D03*
D106*
X96838Y356235D03*
D158*
X50483Y356235D03*
D75*
X462915Y356870D03*
D52*
X404178Y356870D03*
D292*
X337503Y356870D03*
D65*
X242888Y356870D03*
D226*
X208280Y356870D03*
D30*
X180023Y356870D03*
D37*
X171768Y356870D03*
D76*
X149860Y356870D03*
D42*
X133350Y356870D03*
D246*
X96838Y356870D03*
D155*
X50800Y356870D03*
D296*
X449263Y357505D03*
D292*
X337503Y357505D03*
D61*
X242570Y357505D03*
D226*
X208280Y357505D03*
D30*
X180023Y357505D03*
D26*
X172085Y357505D03*
D76*
X149860Y357505D03*
D70*
X133350Y357505D03*
D246*
X96838Y357505D03*
D155*
X50800Y357505D03*
D120*
X449580Y358140D03*
D292*
X337503Y358140D03*
D56*
X242888Y358140D03*
D149*
X208598Y358140D03*
D30*
X180023Y358140D03*
D26*
X172085Y358140D03*
D76*
X149860Y358140D03*
D70*
X133350Y358140D03*
D246*
X96838Y358140D03*
D153*
X51118Y358140D03*
D66*
X463868Y358775D03*
D55*
X405448Y358775D03*
D260*
X337820Y358775D03*
D61*
X243205Y358775D03*
D147*
X208598Y358775D03*
D38*
X179705Y358775D03*
D78*
X172403Y358775D03*
D72*
X149543Y358775D03*
D70*
X133350Y358775D03*
D104*
X97155Y358775D03*
D153*
X51118Y358775D03*
D120*
X449580Y359410D03*
D260*
X337820Y359410D03*
D56*
X243523Y359410D03*
D147*
X208598Y359410D03*
D38*
X179705Y359410D03*
D78*
X172403Y359410D03*
D72*
X149543Y359410D03*
D16*
X133033Y359410D03*
D103*
X96838Y359410D03*
D153*
X51118Y359410D03*
D120*
X449580Y360045D03*
D291*
X337503Y360045D03*
D53*
X243840Y360045D03*
D143*
X208598Y360045D03*
D38*
X179705Y360045D03*
D78*
X172403Y360045D03*
D69*
X149225Y360045D03*
D16*
X133033Y360045D03*
D103*
X96838Y360045D03*
D153*
X51118Y360045D03*
D49*
X505460Y360680D03*
D281*
X447358Y360680D03*
D258*
X337820Y360680D03*
D56*
X244158Y360680D03*
D144*
X208915Y360680D03*
D28*
X179388Y360680D03*
D78*
X172403Y360680D03*
D67*
X149543Y360680D03*
D49*
X132715Y360680D03*
D103*
X96838Y360680D03*
D226*
X51435Y360680D03*
D297*
X449898Y361315D03*
D258*
X337820Y361315D03*
D56*
X244158Y361315D03*
D144*
X208915Y361315D03*
D28*
X179388Y361315D03*
D78*
X172403Y361315D03*
D64*
X149225Y361315D03*
D78*
X132398Y361315D03*
D144*
X97155Y361315D03*
D226*
X51435Y361315D03*
D28*
X503873Y361950D03*
D289*
X447993Y361950D03*
D78*
X394018Y361950D03*
D286*
X337503Y361950D03*
D53*
X244475Y361950D03*
D104*
X208915Y361950D03*
D28*
X179388Y361950D03*
D26*
X172085Y361950D03*
D73*
X149225Y361950D03*
D26*
X132080Y361950D03*
D103*
X97473Y361950D03*
D226*
X51435Y361950D03*
D28*
X503873Y362585D03*
D228*
X448310Y362585D03*
D49*
X394335Y362585D03*
D286*
X337503Y362585D03*
D53*
X244475Y362585D03*
D104*
X208915Y362585D03*
D42*
X179070Y362585D03*
D78*
X171768Y362585D03*
D73*
X149225Y362585D03*
D37*
X131128Y362585D03*
D103*
X97473Y362585D03*
D149*
X51753Y362585D03*
D36*
X504508Y363220D03*
D35*
X499745Y363220D03*
D199*
X460058Y363220D03*
D72*
X411163Y363220D03*
D78*
X394653Y363220D03*
D286*
X337503Y363220D03*
D53*
X245110Y363220D03*
D246*
X209233Y363220D03*
D28*
X178753Y363220D03*
D26*
X171450Y363220D03*
D60*
X149225Y363220D03*
D41*
X131128Y363220D03*
D144*
X97790Y363220D03*
D149*
X51753Y363220D03*
D39*
X502920Y363855D03*
D191*
X459423Y363855D03*
D80*
X412433Y363855D03*
D45*
X398145Y363855D03*
D78*
X394653Y363855D03*
D230*
X337503Y363855D03*
D53*
X245110Y363855D03*
D105*
X208915Y363855D03*
D38*
X178435Y363855D03*
D37*
X171133Y363855D03*
D55*
X148908Y363855D03*
D103*
X98108Y363855D03*
D149*
X51753Y363855D03*
D39*
X502920Y364490D03*
D35*
X496570Y364490D03*
D34*
X478473Y364490D03*
D212*
X443230Y364490D03*
D65*
X413703Y364490D03*
D45*
X398780Y364490D03*
D49*
X394970Y364490D03*
D230*
X337503Y364490D03*
D53*
X245110Y364490D03*
D105*
X208915Y364490D03*
D38*
X177800Y364490D03*
D41*
X170498Y364490D03*
D44*
X148590Y364490D03*
D104*
X98425Y364490D03*
D211*
X52070Y364490D03*
D39*
X502920Y365125D03*
D35*
X495935Y365125D03*
D129*
X477838Y365125D03*
D213*
X443230Y365125D03*
D85*
X416560Y365125D03*
D49*
X395605Y365125D03*
D283*
X337820Y365125D03*
D77*
X245428Y365125D03*
D107*
X208915Y365125D03*
D30*
X177483Y365125D03*
D34*
X148273Y365125D03*
D246*
X99378Y365125D03*
D211*
X52070Y365125D03*
D29*
X502603Y365760D03*
D26*
X495300Y365760D03*
D44*
X476885Y365760D03*
D106*
X437833Y365760D03*
D41*
X407988Y365760D03*
D16*
X395923Y365760D03*
D282*
X337503Y365760D03*
D77*
X245428Y365760D03*
D107*
X208915Y365760D03*
D39*
X176530Y365760D03*
D142*
X147955Y365760D03*
D106*
X100013Y365760D03*
D147*
X52388Y365760D03*
D32*
X502285Y366395D03*
D78*
X494348Y366395D03*
D18*
X475615Y366395D03*
D213*
X442595Y366395D03*
D35*
X422275Y366395D03*
D70*
X410210Y366395D03*
D49*
X396240Y366395D03*
D282*
X337503Y366395D03*
D77*
X245428Y366395D03*
D107*
X208915Y366395D03*
D31*
X175578Y366395D03*
D160*
X147638Y366395D03*
D121*
X101283Y366395D03*
D147*
X52388Y366395D03*
D32*
X502285Y367030D03*
D16*
X493078Y367030D03*
D55*
X474663Y367030D03*
D208*
X442278Y367030D03*
D23*
X413703Y367030D03*
D16*
X396558Y367030D03*
D287*
X337820Y367030D03*
D77*
X246063Y367030D03*
D109*
X208915Y367030D03*
D292*
X129223Y367030D03*
D147*
X52388Y367030D03*
D31*
X501968Y367665D03*
D36*
X492443Y367665D03*
D205*
X455295Y367665D03*
D15*
X414655Y367665D03*
D16*
X397193Y367665D03*
D281*
X337503Y367665D03*
D77*
X246063Y367665D03*
D109*
X208915Y367665D03*
D233*
X129540Y367665D03*
D210*
X52705Y367665D03*
D31*
X501968Y368300D03*
D28*
X491173Y368300D03*
D62*
X474663Y368300D03*
D155*
X442595Y368300D03*
D15*
X414655Y368300D03*
D70*
X397510Y368300D03*
D298*
X337820Y368300D03*
D15*
X246380Y368300D03*
D109*
X208915Y368300D03*
D261*
X129223Y368300D03*
D210*
X52705Y368300D03*
D19*
X501650Y368935D03*
D38*
X490220Y368935D03*
D31*
X475933Y368935D03*
D153*
X442278Y368935D03*
D27*
X413703Y368935D03*
D70*
X398145Y368935D03*
D298*
X337820Y368935D03*
D15*
X246380Y368935D03*
D224*
X208915Y368935D03*
D261*
X129223Y368935D03*
D143*
X53023Y368935D03*
D74*
X501333Y369570D03*
D31*
X487998Y369570D03*
D45*
X463550Y369570D03*
D226*
X441960Y369570D03*
D15*
X412750Y369570D03*
D36*
X398463Y369570D03*
D280*
X338138Y369570D03*
D15*
X246380Y369570D03*
D224*
X208915Y369570D03*
D289*
X129223Y369570D03*
D143*
X53023Y369570D03*
D25*
X501015Y370205D03*
D62*
X482918Y370205D03*
D41*
X463868Y370205D03*
D149*
X441643Y370205D03*
D27*
X412433Y370205D03*
D28*
X399098Y370205D03*
D231*
X337820Y370205D03*
D15*
X247015Y370205D03*
D111*
X209233Y370205D03*
D289*
X129223Y370205D03*
D144*
X53340Y370205D03*
D23*
X500698Y370840D03*
D17*
X482600Y370840D03*
D45*
X464185Y370840D03*
D41*
X461963Y370840D03*
D226*
X440690Y370840D03*
D23*
X412433Y370840D03*
D28*
X399733Y370840D03*
D231*
X337820Y370840D03*
D77*
X247333Y370840D03*
D203*
X208915Y370840D03*
D229*
X129223Y370840D03*
D144*
X53340Y370840D03*
D85*
X500380Y371475D03*
D61*
X482600Y371475D03*
D144*
X441325Y371475D03*
D19*
X412115Y371475D03*
D30*
X400368Y371475D03*
D279*
X338138Y371475D03*
D53*
X247650Y371475D03*
D206*
X209233Y371475D03*
D229*
X129223Y371475D03*
D144*
X53340Y371475D03*
D27*
X500063Y372110D03*
D56*
X482283Y372110D03*
D104*
X441325Y372110D03*
D30*
X412433Y372110D03*
X401003Y372110D03*
D279*
X338138Y372110D03*
D77*
X247968Y372110D03*
D113*
X208915Y372110D03*
D228*
X128905Y372110D03*
D103*
X53658Y372110D03*
D15*
X499745Y372745D03*
D53*
X481330Y372745D03*
D106*
X441008Y372745D03*
D49*
X412115Y372745D03*
D32*
X401955Y372745D03*
D299*
X338455Y372745D03*
D53*
X248285Y372745D03*
D113*
X208915Y372745D03*
D101*
X128905Y372745D03*
D103*
X53658Y372745D03*
D53*
X499110Y373380D03*
X481330Y373380D03*
D209*
X439738Y373380D03*
D19*
X403225Y373380D03*
D278*
X338455Y373380D03*
D53*
X248920Y373380D03*
D223*
X208915Y373380D03*
D101*
X128905Y373380D03*
D103*
X53658Y373380D03*
D56*
X498793Y374015D03*
D53*
X480060Y374015D03*
D251*
X431483Y374015D03*
D278*
X338455Y374015D03*
D53*
X248920Y374015D03*
D222*
X208598Y374015D03*
D100*
X128588Y374015D03*
D104*
X53975Y374015D03*
D61*
X498475Y374650D03*
D53*
X479425Y374650D03*
D251*
X432118Y374650D03*
D297*
X338773Y374650D03*
D56*
X249238Y374650D03*
D222*
X208598Y374650D03*
D99*
X128905Y374650D03*
D104*
X53975Y374650D03*
D65*
X498158Y375285D03*
D15*
X478155Y375285D03*
D242*
X432753Y375285D03*
D120*
X338455Y375285D03*
D56*
X249873Y375285D03*
D115*
X208598Y375285D03*
D97*
X128588Y375285D03*
D104*
X53975Y375285D03*
D82*
X497205Y375920D03*
D74*
X478473Y375920D03*
D191*
X434023Y375920D03*
D120*
X338455Y375920D03*
D56*
X249873Y375920D03*
D115*
X208598Y375920D03*
D96*
X128270Y375920D03*
D246*
X54293Y375920D03*
D76*
X496570Y376555D03*
D45*
X481965Y376555D03*
D35*
X479425Y376555D03*
D45*
X477520Y376555D03*
D238*
X435293Y376555D03*
D296*
X338773Y376555D03*
D53*
X250190Y376555D03*
D221*
X208280Y376555D03*
D93*
X127953Y376555D03*
D246*
X54293Y376555D03*
D59*
X494983Y377190D03*
D285*
X437833Y377190D03*
D295*
X339090Y377190D03*
D56*
X250508Y377190D03*
D293*
X208280Y377190D03*
D91*
X128270Y377190D03*
D246*
X54293Y377190D03*
D230*
X453708Y377825D03*
D295*
X339090Y377825D03*
D56*
X250508Y377825D03*
D293*
X208280Y377825D03*
D89*
X127953Y377825D03*
D105*
X54610Y377825D03*
D284*
X454025Y378460D03*
D269*
X339090Y378460D03*
D53*
X250825Y378460D03*
D145*
X208280Y378460D03*
D87*
X127635Y378460D03*
D105*
X54610Y378460D03*
D284*
X454025Y379095D03*
D270*
X339408Y379095D03*
D56*
X251143Y379095D03*
D290*
X207963Y379095D03*
D84*
X127635Y379095D03*
D105*
X54610Y379095D03*
D286*
X454343Y379730D03*
D270*
X339408Y379730D03*
D53*
X251460Y379730D03*
D219*
X207963Y379730D03*
D83*
X127318Y379730D03*
D105*
X54610Y379730D03*
D258*
X454660Y380365D03*
D271*
X339725Y380365D03*
D53*
X251460Y380365D03*
D276*
X207645Y380365D03*
D81*
X127000Y380365D03*
D106*
X54928Y380365D03*
D291*
X454978Y381000D03*
D272*
X340043Y381000D03*
D53*
X251460Y381000D03*
D276*
X207645Y381000D03*
D79*
X126683Y381000D03*
D106*
X54928Y381000D03*
D260*
X454660Y381635D03*
D300*
X340360Y381635D03*
D53*
X252095Y381635D03*
D205*
X207645Y381635D03*
D75*
X126365Y381635D03*
D106*
X54928Y381635D03*
D162*
X464820Y382270D03*
D65*
X412433Y382270D03*
D300*
X340360Y382270D03*
D53*
X252095Y382270D03*
D301*
X207328Y382270D03*
D68*
X126365Y382270D03*
D106*
X54928Y382270D03*
D234*
X464820Y382905D03*
D53*
X412115Y382905D03*
D302*
X340678Y382905D03*
D53*
X252730Y382905D03*
D275*
X207328Y382905D03*
D66*
X126048Y382905D03*
D106*
X54928Y382905D03*
D45*
X507365Y383540D03*
D161*
X464503Y383540D03*
D15*
X412115Y383540D03*
D303*
X340995Y383540D03*
D53*
X252730Y383540D03*
D253*
X207010Y383540D03*
D66*
X126048Y383540D03*
D107*
X55245Y383540D03*
D41*
X507048Y384175D03*
D185*
X464503Y384175D03*
D85*
X412115Y384175D03*
D265*
X341313Y384175D03*
D77*
X253048Y384175D03*
D204*
X206693Y384175D03*
D66*
X126048Y384175D03*
D107*
X55245Y384175D03*
D35*
X506730Y384810D03*
D232*
X463550Y384810D03*
D25*
X412115Y384810D03*
D265*
X341948Y384810D03*
D77*
X253048Y384810D03*
D215*
X206693Y384810D03*
D66*
X126048Y384810D03*
D107*
X55245Y384810D03*
D26*
X506095Y385445D03*
D239*
X463233Y385445D03*
D19*
X412115Y385445D03*
D304*
X342265Y385445D03*
D15*
X253365Y385445D03*
D215*
X206693Y385445D03*
D66*
X126048Y385445D03*
D107*
X55245Y385445D03*
D78*
X505778Y386080D03*
D212*
X483235Y386080D03*
D226*
X443230Y386080D03*
D31*
X412433Y386080D03*
D267*
X342583Y386080D03*
D15*
X253365Y386080D03*
D214*
X207010Y386080D03*
D63*
X126365Y386080D03*
D107*
X55245Y386080D03*
D49*
X505460Y386715D03*
D208*
X483553Y386715D03*
D149*
X442913Y386715D03*
D26*
X415925Y386715D03*
D16*
X409893Y386715D03*
D277*
X342900Y386715D03*
D15*
X253365Y386715D03*
D214*
X207010Y386715D03*
D63*
X126365Y386715D03*
D121*
X55563Y386715D03*
D16*
X505143Y387350D03*
D142*
X483235Y387350D03*
D149*
X442278Y387350D03*
D45*
X413385Y387350D03*
D49*
X410210Y387350D03*
D277*
X343535Y387350D03*
D77*
X253683Y387350D03*
D251*
X207328Y387350D03*
D63*
X126365Y387350D03*
D121*
X55563Y387350D03*
D36*
X504508Y387985D03*
D140*
X483235Y387985D03*
D147*
X441643Y387985D03*
D70*
X411480Y387985D03*
D268*
X343853Y387985D03*
D15*
X254000Y387985D03*
D251*
X207328Y387985D03*
D63*
X126365Y387985D03*
D121*
X55563Y387985D03*
D42*
X504190Y388620D03*
D20*
X483235Y388620D03*
D210*
X441325Y388620D03*
D70*
X412115Y388620D03*
D273*
X344170Y388620D03*
D15*
X254000Y388620D03*
D251*
X207328Y388620D03*
D63*
X126365Y388620D03*
D121*
X55563Y388620D03*
D28*
X503873Y389255D03*
D48*
X482918Y389255D03*
D104*
X440690Y389255D03*
D36*
X413703Y389255D03*
D274*
X344488Y389255D03*
D15*
X254000Y389255D03*
D193*
X207645Y389255D03*
D63*
X126365Y389255D03*
D121*
X55563Y389255D03*
D38*
X503555Y389890D03*
D56*
X487998Y389890D03*
D30*
X473393Y389890D03*
D113*
X437515Y389890D03*
D305*
X344805Y389890D03*
D27*
X254318Y389890D03*
D193*
X207645Y389890D03*
D58*
X126683Y389890D03*
D109*
X55880Y389890D03*
D39*
X502920Y390525D03*
D61*
X487045Y390525D03*
D42*
X472440Y390525D03*
D206*
X437833Y390525D03*
D306*
X345758Y390525D03*
D15*
X254635Y390525D03*
D193*
X207645Y390525D03*
D58*
X126683Y390525D03*
D109*
X55880Y390525D03*
D307*
X394653Y391160D03*
D27*
X254953Y391160D03*
D242*
X207963Y391160D03*
D58*
X126683Y391160D03*
D109*
X55880Y391160D03*
D307*
X394653Y391795D03*
D27*
X254953Y391795D03*
D242*
X207963Y391795D03*
D58*
X126683Y391795D03*
D109*
X55880Y391795D03*
D307*
X394653Y392430D03*
D85*
X255270Y392430D03*
D202*
X208280Y392430D03*
D58*
X126683Y392430D03*
D109*
X55880Y392430D03*
D308*
X394970Y393065D03*
D85*
X255270Y393065D03*
D202*
X208280Y393065D03*
D240*
X131445Y393065D03*
D28*
X87313Y393065D03*
D109*
X55880Y393065D03*
D308*
X394970Y393700D03*
D23*
X255588Y393700D03*
D202*
X208280Y393700D03*
D237*
X131445Y393700D03*
D28*
X87313Y393700D03*
D109*
X55880Y393700D03*
D309*
X395288Y394335D03*
D23*
X255588Y394335D03*
D191*
X208598Y394335D03*
D188*
X131763Y394335D03*
D42*
X86995Y394335D03*
D109*
X55880Y394335D03*
D309*
X395288Y394970D03*
D85*
X255905Y394970D03*
D238*
X208598Y394970D03*
D241*
X132080Y394970D03*
D42*
X86995Y394970D03*
D209*
X56198Y394970D03*
D309*
X395288Y395605D03*
D23*
X256223Y395605D03*
D238*
X208598Y395605D03*
D241*
X132080Y395605D03*
D42*
X86995Y395605D03*
D209*
X56198Y395605D03*
D310*
X395605Y396240D03*
D23*
X256223Y396240D03*
D238*
X208598Y396240D03*
D199*
X132398Y396240D03*
D36*
X87313Y396240D03*
D209*
X56198Y396240D03*
D310*
X395605Y396875D03*
D25*
X256540Y396875D03*
D238*
X208598Y396875D03*
D245*
X132715Y396875D03*
D36*
X87313Y396875D03*
D209*
X56198Y396875D03*
D310*
X395605Y397510D03*
D74*
X256858Y397510D03*
D238*
X208598Y397510D03*
D236*
X132715Y397510D03*
D36*
X87313Y397510D03*
D209*
X56198Y397510D03*
D311*
X395923Y398145D03*
D74*
X256858Y398145D03*
D199*
X208598Y398145D03*
D191*
X133033Y398145D03*
D36*
X87313Y398145D03*
D209*
X56198Y398145D03*
D311*
X395923Y398780D03*
D74*
X256858Y398780D03*
D241*
X208915Y398780D03*
D242*
X133668Y398780D03*
D36*
X87313Y398780D03*
D209*
X56198Y398780D03*
D311*
X395923Y399415D03*
D19*
X257175Y399415D03*
D188*
X209233Y399415D03*
D76*
X157480Y399415D03*
D104*
X121920Y399415D03*
D36*
X87313Y399415D03*
D209*
X56198Y399415D03*
D311*
X395923Y400050D03*
D19*
X257175Y400050D03*
D188*
X209233Y400050D03*
D72*
X157163Y400050D03*
D32*
X134620Y400050D03*
D69*
X112395Y400050D03*
D36*
X87313Y400050D03*
D209*
X56198Y400050D03*
D312*
X396240Y400685D03*
D19*
X257175Y400685D03*
D188*
X209233Y400685D03*
D72*
X157163Y400685D03*
D65*
X112078Y400685D03*
D36*
X87313Y400685D03*
D209*
X56198Y400685D03*
D312*
X396240Y401320D03*
D31*
X257493Y401320D03*
D235*
X209233Y401320D03*
D76*
X156845Y401320D03*
D15*
X111125Y401320D03*
D36*
X87313Y401320D03*
D209*
X56198Y401320D03*
D312*
X396240Y401955D03*
D31*
X257493Y401955D03*
D237*
X209550Y401955D03*
D80*
X157163Y401955D03*
D85*
X109855Y401955D03*
D36*
X87313Y401955D03*
D209*
X56198Y401955D03*
D313*
X396558Y402590D03*
D31*
X257493Y402590D03*
D235*
X209868Y402590D03*
D62*
X157798Y402590D03*
D85*
X109220Y402590D03*
D36*
X87313Y402590D03*
D209*
X56198Y402590D03*
D313*
X396558Y403225D03*
D32*
X257810Y403225D03*
D240*
X209550Y403225D03*
D17*
X158115Y403225D03*
D23*
X108268Y403225D03*
D36*
X87313Y403225D03*
D209*
X56198Y403225D03*
D313*
X396558Y403860D03*
D32*
X257810Y403860D03*
D240*
X209550Y403860D03*
D65*
X158433Y403860D03*
D35*
X142240Y403860D03*
D74*
X107633Y403860D03*
D36*
X87313Y403860D03*
D209*
X56198Y403860D03*
D313*
X396558Y404495D03*
D32*
X257810Y404495D03*
D240*
X209550Y404495D03*
D61*
X158750Y404495D03*
D72*
X132398Y404495D03*
D74*
X106998Y404495D03*
D36*
X87313Y404495D03*
D209*
X56198Y404495D03*
D314*
X396875Y405130D03*
D29*
X258128Y405130D03*
D285*
X209868Y405130D03*
D56*
X159068Y405130D03*
D59*
X131763Y405130D03*
D74*
X106363Y405130D03*
D36*
X87948Y405130D03*
D209*
X56198Y405130D03*
D314*
X396875Y405765D03*
D32*
X258445Y405765D03*
D240*
X209550Y405765D03*
D53*
X159385Y405765D03*
D55*
X131763Y405765D03*
D74*
X105728Y405765D03*
D36*
X87948Y405765D03*
D209*
X56198Y405765D03*
D314*
X396875Y406400D03*
D29*
X258128Y406400D03*
D240*
X209550Y406400D03*
D77*
X159703Y406400D03*
D44*
X131445Y406400D03*
D19*
X105410Y406400D03*
D36*
X87948Y406400D03*
D209*
X56198Y406400D03*
D314*
X396875Y407035D03*
D29*
X258128Y407035D03*
D240*
X209550Y407035D03*
D15*
X160020Y407035D03*
D20*
X131445Y407035D03*
D19*
X104775Y407035D03*
D36*
X87948Y407035D03*
D209*
X56198Y407035D03*
D315*
X397193Y407670D03*
D29*
X258128Y407670D03*
D285*
X209868Y407670D03*
D27*
X160338Y407670D03*
D140*
X131445Y407670D03*
D19*
X104140Y407670D03*
D36*
X87948Y407670D03*
D209*
X56198Y407670D03*
D315*
X397193Y408305D03*
D29*
X258128Y408305D03*
D243*
X210185Y408305D03*
D85*
X160655Y408305D03*
D142*
X131445Y408305D03*
D19*
X103505Y408305D03*
D36*
X87948Y408305D03*
D209*
X56198Y408305D03*
D315*
X397193Y408940D03*
D29*
X258128Y408940D03*
D285*
X210503Y408940D03*
D23*
X160973Y408940D03*
D216*
X131445Y408940D03*
D19*
X103505Y408940D03*
D42*
X88265Y408940D03*
D209*
X56198Y408940D03*
D315*
X397193Y409575D03*
D39*
X257810Y409575D03*
D243*
X210185Y409575D03*
D25*
X161290Y409575D03*
D213*
X131445Y409575D03*
D19*
X102870Y409575D03*
D42*
X88265Y409575D03*
D209*
X56198Y409575D03*
D315*
X397193Y410210D03*
D30*
X258128Y410210D03*
D285*
X209868Y410210D03*
D23*
X161608Y410210D03*
D212*
X131445Y410210D03*
D31*
X102553Y410210D03*
D42*
X88265Y410210D03*
D209*
X56198Y410210D03*
D314*
X396875Y410845D03*
D28*
X258128Y410845D03*
D235*
X209868Y410845D03*
D25*
X161925Y410845D03*
D155*
X131445Y410845D03*
D31*
X101918Y410845D03*
D42*
X88265Y410845D03*
D209*
X56198Y410845D03*
D314*
X396875Y411480D03*
D36*
X258128Y411480D03*
D237*
X209550Y411480D03*
D74*
X162243Y411480D03*
D153*
X131763Y411480D03*
D19*
X101600Y411480D03*
D28*
X88583Y411480D03*
D209*
X56198Y411480D03*
D314*
X396875Y412115D03*
D16*
X258128Y412115D03*
D188*
X209233Y412115D03*
D19*
X162560Y412115D03*
D149*
X131763Y412115D03*
D31*
X101283Y412115D03*
D28*
X88583Y412115D03*
D224*
X56515Y412115D03*
D314*
X396875Y412750D03*
D26*
X258445Y412750D03*
D188*
X209233Y412750D03*
D31*
X162878Y412750D03*
D147*
X131763Y412750D03*
D31*
X100648Y412750D03*
D38*
X88900Y412750D03*
D224*
X56515Y412750D03*
D314*
X396875Y413385D03*
D241*
X208915Y413385D03*
D31*
X162878Y413385D03*
D210*
X131445Y413385D03*
D32*
X100330Y413385D03*
D38*
X88900Y413385D03*
D224*
X56515Y413385D03*
D313*
X396558Y414020D03*
D245*
X208280Y414020D03*
D32*
X163195Y414020D03*
D144*
X131445Y414020D03*
D82*
X95250Y414020D03*
D224*
X56515Y414020D03*
D313*
X396558Y414655D03*
D238*
X207963Y414655D03*
D29*
X163513Y414655D03*
D103*
X131763Y414655D03*
D62*
X94933Y414655D03*
D224*
X56515Y414655D03*
D313*
X396558Y415290D03*
D236*
X207645Y415290D03*
D29*
X163513Y415290D03*
D246*
X131763Y415290D03*
D17*
X94615Y415290D03*
D224*
X56515Y415290D03*
D313*
X396558Y415925D03*
D191*
X207328Y415925D03*
D30*
X163513Y415925D03*
D106*
X131763Y415925D03*
D65*
X94298Y415925D03*
D224*
X56515Y415925D03*
D313*
X396558Y416560D03*
D202*
X206375Y416560D03*
D38*
X163830Y416560D03*
D107*
X131445Y416560D03*
D65*
X94298Y416560D03*
D224*
X56515Y416560D03*
D312*
X396240Y417195D03*
D242*
X206058Y417195D03*
D38*
X163830Y417195D03*
D121*
X131763Y417195D03*
D61*
X93980Y417195D03*
D224*
X56515Y417195D03*
D312*
X396240Y417830D03*
D193*
X205740Y417830D03*
D42*
X163830Y417830D03*
D209*
X131763Y417830D03*
D56*
X93663Y417830D03*
D224*
X56515Y417830D03*
D312*
X396240Y418465D03*
D251*
X205423Y418465D03*
D36*
X164148Y418465D03*
D224*
X131445Y418465D03*
D53*
X93345Y418465D03*
D224*
X56515Y418465D03*
D311*
X395923Y419100D03*
D214*
X204470Y419100D03*
D16*
X164148Y419100D03*
D203*
X131445Y419100D03*
D15*
X93345Y419100D03*
D224*
X56515Y419100D03*
D311*
X395923Y419735D03*
D215*
X204153Y419735D03*
D26*
X164465Y419735D03*
D206*
X131763Y419735D03*
D27*
X93028Y419735D03*
D111*
X56833Y419735D03*
D311*
X395923Y420370D03*
D195*
X203200Y420370D03*
D113*
X131445Y420370D03*
D23*
X93028Y420370D03*
D111*
X56833Y420370D03*
D311*
X395923Y421005D03*
D253*
X202565Y421005D03*
D223*
X131445Y421005D03*
D25*
X92710Y421005D03*
D111*
X56833Y421005D03*
D311*
X395923Y421640D03*
D253*
X201930Y421640D03*
D200*
X131445Y421640D03*
D19*
X92710Y421640D03*
D203*
X57150Y421640D03*
D311*
X395923Y422275D03*
D253*
X200660Y422275D03*
D220*
X131763Y422275D03*
D31*
X92393Y422275D03*
D203*
X57150Y422275D03*
D310*
X395605Y422910D03*
D253*
X200025Y422910D03*
D198*
X131763Y422910D03*
D29*
X92393Y422910D03*
D206*
X57468Y422910D03*
D310*
X395605Y423545D03*
D204*
X198438Y423545D03*
D219*
X132398Y423545D03*
D38*
X92710Y423545D03*
D206*
X57468Y423545D03*
D310*
X395605Y424180D03*
D148*
X165735Y424180D03*
D42*
X92710Y424180D03*
D113*
X57785Y424180D03*
D309*
X395288Y424815D03*
D37*
X249238Y424815D03*
D306*
X164783Y424815D03*
D49*
X92710Y424815D03*
D201*
X58103Y424815D03*
D309*
X395288Y425450D03*
D16*
X249238Y425450D03*
D305*
X163830Y425450D03*
D41*
X93028Y425450D03*
D223*
X58420Y425450D03*
D309*
X395288Y426085D03*
D70*
X249555Y426085D03*
D273*
X162560Y426085D03*
D223*
X58420Y426085D03*
D308*
X394970Y426720D03*
D36*
X249238Y426720D03*
D273*
X161290Y426720D03*
D200*
X59055Y426720D03*
D307*
X394653Y427355D03*
D28*
X249238Y427355D03*
D277*
X160020Y427355D03*
D115*
X59373Y427355D03*
D316*
X394335Y427990D03*
D38*
X249555Y427990D03*
D277*
X158750Y427990D03*
D220*
X60008Y427990D03*
D316*
X394335Y428625D03*
D38*
X249555Y428625D03*
D267*
X157163Y428625D03*
D198*
X60643Y428625D03*
D317*
X394018Y429260D03*
D30*
X249238Y429260D03*
D318*
X124460Y429260D03*
D319*
X393700Y429895D03*
D38*
X248920Y429895D03*
D194*
X123508Y429895D03*
D319*
X393700Y430530D03*
D42*
X248920Y430530D03*
D320*
X123190Y430530D03*
D321*
X393383Y431165D03*
D36*
X248603Y431165D03*
D320*
X123190Y431165D03*
D322*
X393065Y431800D03*
D78*
X248603Y431800D03*
D194*
X123508Y431800D03*
D323*
X392748Y432435D03*
D131*
X123825Y432435D03*
D323*
X392748Y433070D03*
D131*
X123825Y433070D03*
D324*
X392430Y433705D03*
D37*
X223203Y433705D03*
D131*
X123825Y433705D03*
D128*
X392113Y434340D03*
D250*
X128270Y434340D03*
D127*
X391795Y434975D03*
D16*
X236538Y434975D03*
D325*
X128588Y434975D03*
D126*
X391478Y435610D03*
D326*
X136208Y435610D03*
D125*
X391160Y436245D03*
D327*
X136525Y436245D03*
D124*
X390843Y436880D03*
D328*
X137160Y436880D03*
D329*
X390525Y437515D03*
D330*
X138430Y437515D03*
D331*
X389890Y438150D03*
D332*
X139065Y438150D03*
D122*
X389255Y438785D03*
D315*
X141923Y438785D03*
D333*
X388620Y439420D03*
D312*
X142875Y439420D03*
D334*
X387985Y440055D03*
D307*
X144463Y440055D03*
D335*
X387033Y440690D03*
D319*
X145415Y440690D03*
D336*
X385128Y441325D03*
D323*
X146368Y441325D03*
D11*
X269558Y441960D03*
X269558Y442595D03*
X269558Y443230D03*
X269558Y443865D03*
X269558Y444500D03*
X269558Y445135D03*
X269558Y445770D03*
X269558Y446405D03*
X269558Y447040D03*
X269558Y447675D03*
X269558Y448310D03*
X269558Y448945D03*
X269558Y449580D03*
X269558Y450215D03*
X269558Y450850D03*
X269558Y451485D03*
X269558Y452120D03*
X269558Y452755D03*
X269558Y453390D03*
X269558Y454025D03*
X269558Y454660D03*
X269558Y455295D03*
X269558Y455930D03*
X269558Y456565D03*
X269558Y457200D03*
X269558Y457835D03*
X269558Y458470D03*
X269558Y459105D03*
X269558Y459740D03*
X269558Y460375D03*
X269558Y461010D03*
X269558Y461645D03*
X269558Y462280D03*
X269558Y462915D03*
X269558Y463550D03*
X269558Y464185D03*
X269558Y464820D03*
X269558Y465455D03*
X269558Y466090D03*
X269558Y466725D03*
X269558Y467360D03*
X269558Y467995D03*
X269558Y468630D03*
X269558Y469265D03*
X269558Y469900D03*
X269558Y470535D03*
X269558Y471170D03*
X269558Y471805D03*
D241*
X470535Y472440D03*
D62*
X418783Y472440D03*
D74*
X397828Y472440D03*
D105*
X363855Y472440D03*
D198*
X307023Y472440D03*
D65*
X263843Y472440D03*
D56*
X240983Y472440D03*
D67*
X214948Y472440D03*
D144*
X175260Y472440D03*
D62*
X138748Y472440D03*
D32*
X118745Y472440D03*
D69*
X97155Y472440D03*
D121*
X55563Y472440D03*
D153*
X487998Y473075D03*
D53*
X455295Y473075D03*
D38*
X438785Y473075D03*
D78*
X425133Y473075D03*
D29*
X414973Y473075D03*
D39*
X398145Y473075D03*
D31*
X378778Y473075D03*
X363538Y473075D03*
X348298Y473075D03*
D32*
X328295Y473075D03*
D29*
X314008Y473075D03*
X300038Y473075D03*
D31*
X285433Y473075D03*
D27*
X263208Y473075D03*
D78*
X246063Y473075D03*
D36*
X237808Y473075D03*
D17*
X215265Y473075D03*
D32*
X189230Y473075D03*
D31*
X174308Y473075D03*
D29*
X159703Y473075D03*
D78*
X145098Y473075D03*
D29*
X134938Y473075D03*
D38*
X118745Y473075D03*
D49*
X105410Y473075D03*
D31*
X93663Y473075D03*
D246*
X54293Y473075D03*
D153*
X487998Y473710D03*
D77*
X455613Y473710D03*
D28*
X439103Y473710D03*
D37*
X424498Y473710D03*
D30*
X415608Y473710D03*
D38*
X398780Y473710D03*
D29*
X378143Y473710D03*
D31*
X363538Y473710D03*
D29*
X348933Y473710D03*
D39*
X327660Y473710D03*
D29*
X314008Y473710D03*
X300038Y473710D03*
X286068Y473710D03*
D25*
X262890Y473710D03*
D37*
X245428Y473710D03*
D16*
X238443Y473710D03*
D77*
X215583Y473710D03*
D39*
X188595Y473710D03*
D31*
X174308Y473710D03*
D39*
X160020Y473710D03*
D37*
X144463Y473710D03*
D30*
X135573Y473710D03*
D28*
X119698Y473710D03*
D16*
X105728Y473710D03*
D32*
X93980Y473710D03*
D103*
X53658Y473710D03*
D226*
X487680Y474345D03*
D77*
X455613Y474345D03*
D42*
X439420Y474345D03*
D35*
X424180Y474345D03*
D30*
X415608Y474345D03*
D28*
X399733Y474345D03*
D39*
X377825Y474345D03*
D31*
X363538Y474345D03*
D30*
X349568Y474345D03*
X327343Y474345D03*
D29*
X314008Y474345D03*
X300038Y474345D03*
D30*
X286703Y474345D03*
D19*
X262890Y474345D03*
D35*
X245110Y474345D03*
D16*
X238443Y474345D03*
D27*
X215583Y474345D03*
D30*
X188278Y474345D03*
D31*
X174308Y474345D03*
D30*
X160338Y474345D03*
D35*
X144145Y474345D03*
D30*
X135573Y474345D03*
D28*
X119698Y474345D03*
D16*
X105728Y474345D03*
D39*
X94615Y474345D03*
D103*
X53658Y474345D03*
D226*
X487680Y474980D03*
D15*
X455295Y474980D03*
D42*
X440055Y474980D03*
D41*
X423863Y474980D03*
D38*
X415925Y474980D03*
D42*
X400050Y474980D03*
D30*
X377508Y474980D03*
D31*
X363538Y474980D03*
D38*
X349885Y474980D03*
X327025Y474980D03*
D29*
X314008Y474980D03*
X300038Y474980D03*
D38*
X287020Y474980D03*
D32*
X262890Y474980D03*
D41*
X244793Y474980D03*
D70*
X238125Y474980D03*
D85*
X215265Y474980D03*
D38*
X187960Y474980D03*
D31*
X174308Y474980D03*
D38*
X160655Y474980D03*
D41*
X143828Y474980D03*
D38*
X135890Y474980D03*
D42*
X120015Y474980D03*
D16*
X105728Y474980D03*
D30*
X94933Y474980D03*
D104*
X53975Y474980D03*
D149*
X487363Y475615D03*
D27*
X455613Y475615D03*
D36*
X440373Y475615D03*
D37*
X429578Y475615D03*
D45*
X423545Y475615D03*
D38*
X415925Y475615D03*
D39*
X401955Y475615D03*
D16*
X388938Y475615D03*
D38*
X377190Y475615D03*
D31*
X363538Y475615D03*
D28*
X350203Y475615D03*
D16*
X338138Y475615D03*
D28*
X326708Y475615D03*
D29*
X314008Y475615D03*
X300038Y475615D03*
D28*
X287338Y475615D03*
D16*
X275273Y475615D03*
D39*
X262890Y475615D03*
D37*
X250508Y475615D03*
D45*
X244475Y475615D03*
D70*
X238125Y475615D03*
D16*
X229553Y475615D03*
D85*
X214630Y475615D03*
D49*
X200025Y475615D03*
D28*
X187643Y475615D03*
D31*
X174308Y475615D03*
D28*
X160973Y475615D03*
D37*
X149543Y475615D03*
D45*
X143510Y475615D03*
D38*
X135890Y475615D03*
D29*
X121603Y475615D03*
D38*
X107315Y475615D03*
X95250Y475615D03*
D42*
X81915Y475615D03*
D104*
X53975Y475615D03*
D149*
X487363Y476250D03*
D27*
X455613Y476250D03*
D36*
X440373Y476250D03*
D70*
X429260Y476250D03*
D28*
X416243Y476250D03*
D29*
X402908Y476250D03*
D42*
X389255Y476250D03*
D28*
X376873Y476250D03*
D31*
X363538Y476250D03*
D42*
X350520Y476250D03*
X338455Y476250D03*
X326390Y476250D03*
D29*
X314008Y476250D03*
X300038Y476250D03*
D42*
X287655Y476250D03*
X275590Y476250D03*
D30*
X262573Y476250D03*
D70*
X250190Y476250D03*
X238125Y476250D03*
D28*
X230188Y476250D03*
D85*
X214630Y476250D03*
D38*
X200025Y476250D03*
D42*
X187325Y476250D03*
D31*
X174308Y476250D03*
D28*
X160973Y476250D03*
D70*
X149225Y476250D03*
D28*
X136208Y476250D03*
D32*
X122555Y476250D03*
D39*
X107950Y476250D03*
D28*
X95568Y476250D03*
D200*
X59055Y476250D03*
D149*
X487363Y476885D03*
D85*
X455295Y476885D03*
D36*
X441008Y476885D03*
D42*
X429260Y476885D03*
D28*
X416243Y476885D03*
D29*
X402908Y476885D03*
D30*
X388938Y476885D03*
D42*
X376555Y476885D03*
D31*
X363538Y476885D03*
D42*
X350520Y476885D03*
D30*
X338138Y476885D03*
D36*
X326073Y476885D03*
D29*
X314008Y476885D03*
X300038Y476885D03*
D42*
X287655Y476885D03*
D30*
X275273Y476885D03*
D28*
X262573Y476885D03*
D42*
X250190Y476885D03*
D27*
X233363Y476885D03*
D23*
X214313Y476885D03*
D32*
X200660Y476885D03*
D36*
X187008Y476885D03*
D31*
X174308Y476885D03*
D42*
X161290Y476885D03*
X149225Y476885D03*
D28*
X136208Y476885D03*
D32*
X122555Y476885D03*
D39*
X107950Y476885D03*
D28*
X95568Y476885D03*
D115*
X59373Y476885D03*
D211*
X487045Y477520D03*
D23*
X455613Y477520D03*
D36*
X441008Y477520D03*
D38*
X429260Y477520D03*
D28*
X416243Y477520D03*
D29*
X403543Y477520D03*
D39*
X389255Y477520D03*
D36*
X376238Y477520D03*
D31*
X363538Y477520D03*
D36*
X350838Y477520D03*
D39*
X338455Y477520D03*
D70*
X325755Y477520D03*
D29*
X314008Y477520D03*
X300038Y477520D03*
D36*
X287973Y477520D03*
D39*
X275590Y477520D03*
D42*
X262255Y477520D03*
D38*
X250190Y477520D03*
D15*
X233045Y477520D03*
D52*
X207963Y477520D03*
D36*
X187008Y477520D03*
D31*
X174308Y477520D03*
D42*
X161290Y477520D03*
D38*
X149225Y477520D03*
D28*
X136208Y477520D03*
D31*
X122873Y477520D03*
D29*
X108268Y477520D03*
D42*
X95885Y477520D03*
D221*
X59690Y477520D03*
D211*
X487045Y478155D03*
D23*
X455613Y478155D03*
D36*
X441008Y478155D03*
D39*
X429260Y478155D03*
D28*
X416243Y478155D03*
D29*
X403543Y478155D03*
D32*
X389255Y478155D03*
D36*
X376238Y478155D03*
D31*
X363538Y478155D03*
D36*
X350838Y478155D03*
D32*
X338455Y478155D03*
D70*
X325755Y478155D03*
D29*
X314008Y478155D03*
X300038Y478155D03*
D36*
X287973Y478155D03*
D32*
X275590Y478155D03*
D42*
X262255Y478155D03*
D39*
X250190Y478155D03*
D15*
X233045Y478155D03*
D60*
X207645Y478155D03*
D36*
X187008Y478155D03*
D31*
X174308Y478155D03*
D42*
X161290Y478155D03*
D39*
X149225Y478155D03*
D28*
X136208Y478155D03*
D31*
X122873Y478155D03*
D29*
X108268Y478155D03*
D42*
X95885Y478155D03*
D220*
X60008Y478155D03*
D211*
X487045Y478790D03*
D25*
X455295Y478790D03*
D36*
X441643Y478790D03*
D39*
X429260Y478790D03*
D28*
X416243Y478790D03*
D39*
X403860Y478790D03*
D31*
X388938Y478790D03*
D36*
X376238Y478790D03*
D31*
X363538Y478790D03*
D70*
X351155Y478790D03*
D31*
X338138Y478790D03*
D70*
X325755Y478790D03*
D29*
X314008Y478790D03*
X300038Y478790D03*
D70*
X288290Y478790D03*
D31*
X275273Y478790D03*
D36*
X262573Y478790D03*
D39*
X250190Y478790D03*
D15*
X233045Y478790D03*
D60*
X207645Y478790D03*
D70*
X186690Y478790D03*
D31*
X174308Y478790D03*
D36*
X161608Y478790D03*
D39*
X149225Y478790D03*
D28*
X136208Y478790D03*
D31*
X122873Y478790D03*
D29*
X108268Y478790D03*
D36*
X96203Y478790D03*
D293*
X60325Y478790D03*
D147*
X486728Y479425D03*
D74*
X455613Y479425D03*
D36*
X441643Y479425D03*
D29*
X428943Y479425D03*
D28*
X416243Y479425D03*
D39*
X403860Y479425D03*
D19*
X389255Y479425D03*
D70*
X375920Y479425D03*
D31*
X363538Y479425D03*
D70*
X351155Y479425D03*
D19*
X338455Y479425D03*
D16*
X325438Y479425D03*
D29*
X314008Y479425D03*
X300038Y479425D03*
D70*
X288290Y479425D03*
D19*
X275590Y479425D03*
D70*
X262255Y479425D03*
D39*
X250190Y479425D03*
D15*
X233045Y479425D03*
D55*
X207328Y479425D03*
D70*
X186690Y479425D03*
D31*
X174308Y479425D03*
D36*
X161608Y479425D03*
D29*
X148908Y479425D03*
D28*
X136208Y479425D03*
D31*
X122873Y479425D03*
D29*
X108268Y479425D03*
D36*
X96203Y479425D03*
D293*
X60325Y479425D03*
D147*
X486728Y480060D03*
D74*
X455613Y480060D03*
D36*
X441643Y480060D03*
D32*
X429260Y480060D03*
D28*
X416243Y480060D03*
D39*
X403860Y480060D03*
D74*
X388938Y480060D03*
D70*
X375920Y480060D03*
D31*
X363538Y480060D03*
D70*
X351155Y480060D03*
D74*
X338138Y480060D03*
D16*
X325438Y480060D03*
D29*
X314008Y480060D03*
X300038Y480060D03*
D70*
X288290Y480060D03*
D74*
X275273Y480060D03*
D70*
X262255Y480060D03*
D32*
X250190Y480060D03*
D15*
X233045Y480060D03*
D55*
X207328Y480060D03*
D70*
X186690Y480060D03*
D31*
X174308Y480060D03*
D36*
X161608Y480060D03*
D32*
X149225Y480060D03*
D28*
X136208Y480060D03*
D31*
X122873Y480060D03*
D29*
X108268Y480060D03*
D36*
X96203Y480060D03*
D293*
X60325Y480060D03*
D147*
X486728Y480695D03*
D19*
X455295Y480695D03*
D42*
X441960Y480695D03*
D32*
X429260Y480695D03*
D28*
X416243Y480695D03*
D30*
X404178Y480695D03*
D74*
X388938Y480695D03*
D70*
X375920Y480695D03*
D31*
X363538Y480695D03*
D16*
X351473Y480695D03*
D74*
X338138Y480695D03*
D16*
X325438Y480695D03*
D29*
X314008Y480695D03*
X300038Y480695D03*
D16*
X288608Y480695D03*
D74*
X275273Y480695D03*
D70*
X262255Y480695D03*
D32*
X250190Y480695D03*
D27*
X233363Y480695D03*
D55*
X207328Y480695D03*
D70*
X186690Y480695D03*
D31*
X174308Y480695D03*
D36*
X161608Y480695D03*
D32*
X149225Y480695D03*
D28*
X136208Y480695D03*
D31*
X122873Y480695D03*
D29*
X108268Y480695D03*
D70*
X96520Y480695D03*
D198*
X60643Y480695D03*
D210*
X486410Y481330D03*
D31*
X455613Y481330D03*
D42*
X441960Y481330D03*
D32*
X429260Y481330D03*
D28*
X416243Y481330D03*
D30*
X404178Y481330D03*
D25*
X389255Y481330D03*
D16*
X375603Y481330D03*
D31*
X363538Y481330D03*
D16*
X351473Y481330D03*
D25*
X338455Y481330D03*
D49*
X325120Y481330D03*
D29*
X314008Y481330D03*
X300038Y481330D03*
D16*
X288608Y481330D03*
D25*
X275590Y481330D03*
D16*
X261938Y481330D03*
D32*
X250190Y481330D03*
D85*
X233680Y481330D03*
D18*
X207645Y481330D03*
D70*
X186690Y481330D03*
D31*
X174308Y481330D03*
D36*
X161608Y481330D03*
D32*
X149225Y481330D03*
D28*
X136208Y481330D03*
D31*
X122873Y481330D03*
D29*
X108268Y481330D03*
D70*
X96520Y481330D03*
D198*
X60643Y481330D03*
D210*
X486410Y481965D03*
D31*
X455613Y481965D03*
D42*
X441960Y481965D03*
D32*
X429260Y481965D03*
D28*
X416243Y481965D03*
D30*
X404178Y481965D03*
D23*
X388938Y481965D03*
D16*
X375603Y481965D03*
D31*
X363538Y481965D03*
D16*
X351473Y481965D03*
D23*
X338138Y481965D03*
D49*
X325120Y481965D03*
D29*
X314008Y481965D03*
X300038Y481965D03*
D16*
X288608Y481965D03*
D23*
X275273Y481965D03*
D16*
X261938Y481965D03*
D32*
X250190Y481965D03*
D25*
X234315Y481965D03*
D18*
X207645Y481965D03*
D70*
X186690Y481965D03*
D31*
X174308Y481965D03*
D36*
X161608Y481965D03*
D32*
X149225Y481965D03*
D28*
X136208Y481965D03*
D31*
X122873Y481965D03*
D29*
X108268Y481965D03*
D70*
X96520Y481965D03*
D198*
X60643Y481965D03*
D210*
X486410Y482600D03*
D28*
X442278Y482600D03*
D32*
X429260Y482600D03*
D28*
X416243Y482600D03*
D30*
X404178Y482600D03*
D23*
X388938Y482600D03*
D16*
X375603Y482600D03*
D31*
X363538Y482600D03*
D16*
X351473Y482600D03*
D23*
X338138Y482600D03*
D49*
X325120Y482600D03*
D29*
X314008Y482600D03*
X300038Y482600D03*
D16*
X288608Y482600D03*
D23*
X275273Y482600D03*
D16*
X261938Y482600D03*
D32*
X250190Y482600D03*
D19*
X234950Y482600D03*
D48*
X207963Y482600D03*
D70*
X186690Y482600D03*
D31*
X174308Y482600D03*
D36*
X161608Y482600D03*
D32*
X149225Y482600D03*
D28*
X136208Y482600D03*
D31*
X122873Y482600D03*
D29*
X108268Y482600D03*
D70*
X96520Y482600D03*
D198*
X60643Y482600D03*
D143*
X486093Y483235D03*
D28*
X442278Y483235D03*
D32*
X429260Y483235D03*
D28*
X416243Y483235D03*
D30*
X404178Y483235D03*
D23*
X388938Y483235D03*
D16*
X375603Y483235D03*
D31*
X363538Y483235D03*
D16*
X351473Y483235D03*
D23*
X338138Y483235D03*
D49*
X325120Y483235D03*
D29*
X314008Y483235D03*
X300038Y483235D03*
D16*
X288608Y483235D03*
D23*
X275273Y483235D03*
D16*
X261938Y483235D03*
D32*
X250190Y483235D03*
D29*
X235903Y483235D03*
D48*
X208598Y483235D03*
D70*
X186690Y483235D03*
D31*
X174308Y483235D03*
D36*
X161608Y483235D03*
D32*
X149225Y483235D03*
D28*
X136208Y483235D03*
D31*
X122873Y483235D03*
D29*
X108268Y483235D03*
D70*
X96520Y483235D03*
D198*
X60643Y483235D03*
D143*
X486093Y483870D03*
D28*
X442278Y483870D03*
D32*
X429260Y483870D03*
D28*
X416243Y483870D03*
D30*
X404178Y483870D03*
D23*
X388938Y483870D03*
D16*
X375603Y483870D03*
D31*
X363538Y483870D03*
D16*
X351473Y483870D03*
D23*
X338138Y483870D03*
D49*
X325120Y483870D03*
D29*
X314008Y483870D03*
X300038Y483870D03*
D16*
X288608Y483870D03*
D23*
X275273Y483870D03*
D16*
X261938Y483870D03*
D32*
X250190Y483870D03*
D30*
X236538Y483870D03*
D44*
X208915Y483870D03*
D70*
X186690Y483870D03*
D31*
X174308Y483870D03*
D36*
X161608Y483870D03*
D32*
X149225Y483870D03*
D28*
X136208Y483870D03*
D31*
X122873Y483870D03*
D29*
X108268Y483870D03*
D70*
X96520Y483870D03*
D143*
X53023Y483870D03*
X486093Y484505D03*
D38*
X442595Y484505D03*
D32*
X429260Y484505D03*
D28*
X416243Y484505D03*
D30*
X404178Y484505D03*
D23*
X388938Y484505D03*
D16*
X375603Y484505D03*
D31*
X363538Y484505D03*
D16*
X351473Y484505D03*
D23*
X338138Y484505D03*
D49*
X325120Y484505D03*
D29*
X314008Y484505D03*
X300038Y484505D03*
D16*
X288608Y484505D03*
D23*
X275273Y484505D03*
D16*
X261938Y484505D03*
D32*
X250190Y484505D03*
D38*
X236855Y484505D03*
D44*
X209550Y484505D03*
D36*
X187008Y484505D03*
D31*
X174308Y484505D03*
D36*
X161608Y484505D03*
D32*
X149225Y484505D03*
D28*
X136208Y484505D03*
D31*
X122873Y484505D03*
D29*
X108268Y484505D03*
D70*
X96520Y484505D03*
D143*
X53023Y484505D03*
D144*
X485775Y485140D03*
D38*
X442595Y485140D03*
D32*
X429260Y485140D03*
D28*
X416243Y485140D03*
D30*
X404178Y485140D03*
D23*
X388938Y485140D03*
D16*
X375603Y485140D03*
D31*
X363538Y485140D03*
D16*
X351473Y485140D03*
D23*
X338138Y485140D03*
D49*
X325120Y485140D03*
D29*
X314008Y485140D03*
X300038Y485140D03*
D16*
X288608Y485140D03*
D23*
X275273Y485140D03*
D16*
X261938Y485140D03*
D32*
X250190Y485140D03*
D28*
X237173Y485140D03*
D129*
X210503Y485140D03*
D36*
X187008Y485140D03*
D31*
X174308Y485140D03*
D36*
X161608Y485140D03*
D32*
X149225Y485140D03*
D28*
X136208Y485140D03*
D31*
X122873Y485140D03*
D29*
X108268Y485140D03*
D70*
X96520Y485140D03*
D143*
X53023Y485140D03*
D144*
X485775Y485775D03*
D30*
X455613Y485775D03*
D38*
X442595Y485775D03*
D32*
X429260Y485775D03*
D28*
X416243Y485775D03*
D30*
X404178Y485775D03*
D23*
X388938Y485775D03*
D16*
X375603Y485775D03*
D31*
X363538Y485775D03*
D16*
X351473Y485775D03*
D23*
X338138Y485775D03*
D49*
X325120Y485775D03*
D29*
X314008Y485775D03*
X300038Y485775D03*
D16*
X288608Y485775D03*
D23*
X275273Y485775D03*
D16*
X261938Y485775D03*
D32*
X250190Y485775D03*
D42*
X237490Y485775D03*
D20*
X212090Y485775D03*
D42*
X187325Y485775D03*
D31*
X174308Y485775D03*
D36*
X161608Y485775D03*
D32*
X149225Y485775D03*
D28*
X136208Y485775D03*
D31*
X122873Y485775D03*
D29*
X108268Y485775D03*
D70*
X96520Y485775D03*
D143*
X53023Y485775D03*
D144*
X485775Y486410D03*
D30*
X455613Y486410D03*
X442913Y486410D03*
D32*
X429260Y486410D03*
D28*
X416243Y486410D03*
D30*
X404178Y486410D03*
D25*
X389255Y486410D03*
D16*
X375603Y486410D03*
D31*
X363538Y486410D03*
D16*
X351473Y486410D03*
D25*
X338455Y486410D03*
D49*
X325120Y486410D03*
D29*
X314008Y486410D03*
X300038Y486410D03*
D16*
X288608Y486410D03*
D25*
X275590Y486410D03*
D16*
X261938Y486410D03*
D32*
X250190Y486410D03*
D36*
X237808Y486410D03*
D20*
X213360Y486410D03*
D42*
X187325Y486410D03*
D31*
X174308Y486410D03*
D36*
X161608Y486410D03*
D32*
X149225Y486410D03*
D28*
X136208Y486410D03*
D31*
X122873Y486410D03*
D29*
X108268Y486410D03*
D70*
X96520Y486410D03*
D31*
X84138Y486410D03*
D143*
X53023Y486410D03*
D103*
X485458Y487045D03*
D38*
X455295Y487045D03*
D30*
X442913Y487045D03*
D32*
X429260Y487045D03*
D28*
X416243Y487045D03*
D30*
X404178Y487045D03*
D74*
X388938Y487045D03*
D70*
X375920Y487045D03*
D31*
X363538Y487045D03*
D16*
X351473Y487045D03*
D74*
X338138Y487045D03*
D16*
X325438Y487045D03*
D29*
X314008Y487045D03*
X300038Y487045D03*
D16*
X288608Y487045D03*
D74*
X275273Y487045D03*
D70*
X262255Y487045D03*
D32*
X250190Y487045D03*
D36*
X237808Y487045D03*
D20*
X214630Y487045D03*
D28*
X187643Y487045D03*
D31*
X174308Y487045D03*
D36*
X161608Y487045D03*
D32*
X149225Y487045D03*
D28*
X136208Y487045D03*
D31*
X122873Y487045D03*
D29*
X108268Y487045D03*
D36*
X96203Y487045D03*
D31*
X84138Y487045D03*
D143*
X53023Y487045D03*
D103*
X485458Y487680D03*
D28*
X455613Y487680D03*
D30*
X442913Y487680D03*
D32*
X429260Y487680D03*
D28*
X416243Y487680D03*
D39*
X403860Y487680D03*
D74*
X388938Y487680D03*
D70*
X375920Y487680D03*
D31*
X363538Y487680D03*
D70*
X351155Y487680D03*
D74*
X338138Y487680D03*
D16*
X325438Y487680D03*
D29*
X314008Y487680D03*
X300038Y487680D03*
D70*
X288290Y487680D03*
D74*
X275273Y487680D03*
D70*
X262255Y487680D03*
D32*
X250190Y487680D03*
D70*
X238125Y487680D03*
D44*
X215900Y487680D03*
D38*
X187960Y487680D03*
D31*
X174308Y487680D03*
D36*
X161608Y487680D03*
D32*
X149225Y487680D03*
D28*
X136208Y487680D03*
D31*
X122873Y487680D03*
D29*
X108268Y487680D03*
D36*
X96203Y487680D03*
D32*
X83820Y487680D03*
D143*
X53023Y487680D03*
D103*
X485458Y488315D03*
D28*
X455613Y488315D03*
D39*
X443230Y488315D03*
D32*
X429260Y488315D03*
D28*
X416243Y488315D03*
D39*
X403860Y488315D03*
D19*
X389255Y488315D03*
D70*
X375920Y488315D03*
D29*
X363538Y488315D03*
D70*
X351155Y488315D03*
D19*
X338455Y488315D03*
D16*
X325438Y488315D03*
D39*
X313690Y488315D03*
D30*
X300038Y488315D03*
D70*
X288290Y488315D03*
D19*
X275590Y488315D03*
D70*
X262255Y488315D03*
D32*
X250190Y488315D03*
D70*
X238125Y488315D03*
D48*
X216853Y488315D03*
D39*
X188595Y488315D03*
D29*
X174308Y488315D03*
D36*
X161608Y488315D03*
D32*
X149225Y488315D03*
D28*
X136208Y488315D03*
D31*
X122873Y488315D03*
D29*
X108268Y488315D03*
D36*
X96203Y488315D03*
D32*
X83820Y488315D03*
D144*
X53340Y488315D03*
D104*
X485140Y488950D03*
D42*
X455295Y488950D03*
D39*
X443230Y488950D03*
D32*
X429260Y488950D03*
D28*
X416243Y488950D03*
D39*
X403860Y488950D03*
D31*
X388938Y488950D03*
D70*
X375920Y488950D03*
D29*
X363538Y488950D03*
D70*
X351155Y488950D03*
D31*
X338138Y488950D03*
D16*
X325438Y488950D03*
D30*
X314008Y488950D03*
X300038Y488950D03*
D70*
X288290Y488950D03*
D31*
X275273Y488950D03*
D70*
X262255Y488950D03*
D32*
X250190Y488950D03*
D70*
X238125Y488950D03*
D18*
X217170Y488950D03*
D29*
X188913Y488950D03*
X174308Y488950D03*
D36*
X161608Y488950D03*
D32*
X149225Y488950D03*
D28*
X136208Y488950D03*
D31*
X122873Y488950D03*
D29*
X108268Y488950D03*
D36*
X96203Y488950D03*
D29*
X84138Y488950D03*
D144*
X53340Y488950D03*
D104*
X485140Y489585D03*
D36*
X455613Y489585D03*
D39*
X443230Y489585D03*
D32*
X429260Y489585D03*
D28*
X416243Y489585D03*
D29*
X403543Y489585D03*
D32*
X389255Y489585D03*
D36*
X376238Y489585D03*
D39*
X363220Y489585D03*
D42*
X351155Y489585D03*
D32*
X338455Y489585D03*
D70*
X325755Y489585D03*
D38*
X313690Y489585D03*
D30*
X300038Y489585D03*
D42*
X288290Y489585D03*
D32*
X275590Y489585D03*
D36*
X262573Y489585D03*
D32*
X250190Y489585D03*
D70*
X238125Y489585D03*
D60*
X217805Y489585D03*
D31*
X189548Y489585D03*
D39*
X173990Y489585D03*
D42*
X161925Y489585D03*
D32*
X149225Y489585D03*
D28*
X136208Y489585D03*
D31*
X122873Y489585D03*
D29*
X108268Y489585D03*
D42*
X95885Y489585D03*
D39*
X83820Y489585D03*
D144*
X53340Y489585D03*
D104*
X485140Y490220D03*
D36*
X455613Y490220D03*
D29*
X443548Y490220D03*
D32*
X429260Y490220D03*
D28*
X416243Y490220D03*
D29*
X403543Y490220D03*
X388938Y490220D03*
D36*
X376238Y490220D03*
D38*
X363220Y490220D03*
D42*
X351155Y490220D03*
D29*
X338138Y490220D03*
D70*
X325755Y490220D03*
D38*
X313690Y490220D03*
D28*
X300038Y490220D03*
D42*
X288290Y490220D03*
D29*
X275273Y490220D03*
D36*
X262573Y490220D03*
D32*
X250190Y490220D03*
D70*
X238125Y490220D03*
D52*
X218123Y490220D03*
D74*
X190183Y490220D03*
D38*
X173990Y490220D03*
D42*
X161925Y490220D03*
D32*
X149225Y490220D03*
D28*
X136208Y490220D03*
D31*
X122873Y490220D03*
D29*
X108268Y490220D03*
D42*
X95885Y490220D03*
D39*
X83820Y490220D03*
D103*
X53658Y490220D03*
D246*
X484823Y490855D03*
D70*
X455295Y490855D03*
D29*
X443548Y490855D03*
D32*
X429260Y490855D03*
D28*
X416243Y490855D03*
D32*
X403225Y490855D03*
D30*
X388938Y490855D03*
D42*
X376555Y490855D03*
X363220Y490855D03*
D28*
X350838Y490855D03*
D30*
X338138Y490855D03*
D36*
X326073Y490855D03*
D42*
X313690Y490855D03*
X299720Y490855D03*
D28*
X287973Y490855D03*
D30*
X275273Y490855D03*
D42*
X262890Y490855D03*
D32*
X250190Y490855D03*
D36*
X237808Y490855D03*
D73*
X218440Y490855D03*
D85*
X191135Y490855D03*
D42*
X173990Y490855D03*
X161925Y490855D03*
D32*
X149225Y490855D03*
D28*
X136208Y490855D03*
D31*
X122873Y490855D03*
D29*
X108268Y490855D03*
D28*
X95568Y490855D03*
D38*
X83820Y490855D03*
D103*
X53658Y490855D03*
D246*
X484823Y491490D03*
D16*
X455613Y491490D03*
D29*
X443548Y491490D03*
D32*
X429260Y491490D03*
D28*
X416243Y491490D03*
D32*
X403225Y491490D03*
D28*
X388938Y491490D03*
D42*
X376555Y491490D03*
D70*
X363220Y491490D03*
D38*
X351155Y491490D03*
D28*
X338138Y491490D03*
D36*
X326073Y491490D03*
D70*
X313690Y491490D03*
D16*
X300038Y491490D03*
D38*
X288290Y491490D03*
D28*
X275273Y491490D03*
D42*
X262890Y491490D03*
D32*
X250190Y491490D03*
D36*
X237808Y491490D03*
D64*
X218440Y491490D03*
D15*
X191770Y491490D03*
D70*
X173990Y491490D03*
D28*
X162243Y491490D03*
D32*
X149225Y491490D03*
D28*
X136208Y491490D03*
D31*
X122873Y491490D03*
D29*
X108268Y491490D03*
D38*
X95250Y491490D03*
D42*
X83820Y491490D03*
D104*
X53975Y491490D03*
D246*
X484823Y492125D03*
D16*
X455613Y492125D03*
D32*
X443865Y492125D03*
X429260Y492125D03*
D49*
X417830Y492125D03*
D70*
X400050Y492125D03*
D16*
X388938Y492125D03*
D28*
X376873Y492125D03*
D45*
X369570Y492125D03*
D26*
X363220Y492125D03*
D30*
X350838Y492125D03*
D16*
X338138Y492125D03*
D42*
X326390Y492125D03*
D45*
X319405Y492125D03*
D37*
X313373Y492125D03*
D41*
X305753Y492125D03*
D37*
X300038Y492125D03*
D30*
X287973Y492125D03*
D16*
X275273Y492125D03*
D28*
X263208Y492125D03*
D32*
X250190Y492125D03*
D36*
X237808Y492125D03*
D70*
X227330Y492125D03*
D77*
X214313Y492125D03*
D53*
X192405Y492125D03*
D45*
X179705Y492125D03*
D26*
X173990Y492125D03*
D28*
X162243Y492125D03*
D32*
X149225Y492125D03*
D49*
X137795Y492125D03*
D37*
X121603Y492125D03*
D49*
X105410Y492125D03*
D38*
X95250Y492125D03*
D70*
X83820Y492125D03*
D104*
X53975Y492125D03*
D105*
X484505Y492760D03*
D49*
X455295Y492760D03*
D32*
X443865Y492760D03*
X429260Y492760D03*
D49*
X417830Y492760D03*
D36*
X399733Y492760D03*
D38*
X377190Y492760D03*
D41*
X369253Y492760D03*
D29*
X350838Y492760D03*
D28*
X326708Y492760D03*
D41*
X319088Y492760D03*
D37*
X305753Y492760D03*
D29*
X287973Y492760D03*
D38*
X263525Y492760D03*
D32*
X250190Y492760D03*
D42*
X237490Y492760D03*
D15*
X214630Y492760D03*
D56*
X192723Y492760D03*
D41*
X179388Y492760D03*
D38*
X162560Y492760D03*
D32*
X149225Y492760D03*
D49*
X137795Y492760D03*
D37*
X121603Y492760D03*
D49*
X105410Y492760D03*
D30*
X94933Y492760D03*
D35*
X83820Y492760D03*
D246*
X54293Y492760D03*
D105*
X484505Y493395D03*
D78*
X455613Y493395D03*
D32*
X443865Y493395D03*
X429260Y493395D03*
D49*
X417830Y493395D03*
D42*
X399415Y493395D03*
D30*
X377508Y493395D03*
D35*
X368935Y493395D03*
D31*
X350838Y493395D03*
D38*
X327025Y493395D03*
D35*
X318770Y493395D03*
D26*
X305435Y493395D03*
D31*
X287973Y493395D03*
D30*
X263843Y493395D03*
D32*
X250190Y493395D03*
D28*
X237173Y493395D03*
D15*
X214630Y493395D03*
D61*
X193040Y493395D03*
D35*
X179070Y493395D03*
D30*
X162878Y493395D03*
D32*
X149225Y493395D03*
D49*
X137795Y493395D03*
D37*
X121603Y493395D03*
D49*
X105410Y493395D03*
D39*
X94615Y493395D03*
D105*
X54610Y493395D03*
X484505Y494030D03*
D78*
X455613Y494030D03*
D31*
X444183Y494030D03*
D32*
X429260Y494030D03*
D49*
X417830Y494030D03*
D38*
X398780Y494030D03*
D29*
X378143Y494030D03*
D37*
X368618Y494030D03*
D25*
X350520Y494030D03*
D39*
X327660Y494030D03*
D37*
X318453Y494030D03*
D49*
X305435Y494030D03*
D25*
X287655Y494030D03*
D29*
X264478Y494030D03*
D32*
X250190Y494030D03*
D38*
X236855Y494030D03*
D85*
X214630Y494030D03*
D65*
X193358Y494030D03*
D37*
X178753Y494030D03*
D39*
X163195Y494030D03*
D32*
X149225Y494030D03*
D49*
X137795Y494030D03*
D37*
X121603Y494030D03*
D49*
X105410Y494030D03*
D32*
X93980Y494030D03*
D106*
X54928Y494030D03*
X484188Y494665D03*
D26*
X455295Y494665D03*
D31*
X444183Y494665D03*
D32*
X429260Y494665D03*
D49*
X417830Y494665D03*
D39*
X398145Y494665D03*
D31*
X378778Y494665D03*
D78*
X367983Y494665D03*
D15*
X350520Y494665D03*
D32*
X328295Y494665D03*
D78*
X317818Y494665D03*
D36*
X305753Y494665D03*
D27*
X287338Y494665D03*
D31*
X265113Y494665D03*
D32*
X250190Y494665D03*
D39*
X236220Y494665D03*
D15*
X215265Y494665D03*
D65*
X193358Y494665D03*
D26*
X178435Y494665D03*
D32*
X163830Y494665D03*
X149225Y494665D03*
D49*
X137795Y494665D03*
D37*
X121603Y494665D03*
D49*
X105410Y494665D03*
D31*
X93663Y494665D03*
D121*
X55563Y494665D03*
D106*
X484188Y495300D03*
D37*
X455613Y495300D03*
D212*
X431165Y495300D03*
D53*
X400050Y495300D03*
D76*
X375285Y495300D03*
D65*
X350203Y495300D03*
D82*
X325120Y495300D03*
D39*
X305435Y495300D03*
D61*
X287020Y495300D03*
D210*
X251460Y495300D03*
D56*
X216218Y495300D03*
D17*
X193675Y495300D03*
D16*
X177483Y495300D03*
D158*
X151448Y495300D03*
D31*
X122873Y495300D03*
D29*
X108268Y495300D03*
D25*
X92710Y495300D03*
D209*
X56198Y495300D03*
D106*
X484188Y495935D03*
D37*
X455613Y495935D03*
D158*
X431483Y495935D03*
D255*
X307975Y495935D03*
D17*
X193675Y495935D03*
D107*
X156210Y495935D03*
D31*
X122873Y495935D03*
D29*
X108268Y495935D03*
D214*
X65405Y495935D03*
D107*
X483870Y496570D03*
D37*
X455613Y496570D03*
D158*
X431483Y496570D03*
D255*
X307975Y496570D03*
D17*
X193675Y496570D03*
D107*
X156210Y496570D03*
D31*
X122873Y496570D03*
D29*
X108268Y496570D03*
D214*
X65405Y496570D03*
D107*
X483870Y497205D03*
D41*
X455613Y497205D03*
D158*
X431483Y497205D03*
D255*
X307975Y497205D03*
D17*
X193675Y497205D03*
D107*
X156210Y497205D03*
D31*
X122873Y497205D03*
D29*
X108268Y497205D03*
D214*
X65405Y497205D03*
D107*
X483870Y497840D03*
D41*
X455613Y497840D03*
D155*
X431800Y497840D03*
D255*
X307975Y497840D03*
D65*
X193358Y497840D03*
D107*
X156210Y497840D03*
D31*
X122873Y497840D03*
D29*
X108268Y497840D03*
D214*
X65405Y497840D03*
D121*
X483553Y498475D03*
D41*
X455613Y498475D03*
D155*
X431800Y498475D03*
D256*
X307658Y498475D03*
D65*
X193358Y498475D03*
D107*
X156210Y498475D03*
D31*
X122873Y498475D03*
D29*
X108268Y498475D03*
D214*
X65405Y498475D03*
D121*
X483553Y499110D03*
D41*
X455613Y499110D03*
D155*
X431800Y499110D03*
D256*
X307658Y499110D03*
D61*
X193040Y499110D03*
D107*
X156210Y499110D03*
D31*
X122873Y499110D03*
D29*
X108268Y499110D03*
D214*
X65405Y499110D03*
D121*
X483553Y499745D03*
D211*
X431165Y499745D03*
D256*
X307658Y499745D03*
D61*
X193040Y499745D03*
D209*
X155258Y499745D03*
D25*
X121920Y499745D03*
D29*
X108268Y499745D03*
D214*
X65405Y499745D03*
D109*
X483235Y500380D03*
D337*
X328930Y500380D03*
D38*
X196850Y500380D03*
D28*
X187643Y500380D03*
D240*
X141605Y500380D03*
D214*
X65405Y500380D03*
D109*
X483235Y501015D03*
D338*
X328930Y501015D03*
D49*
X197485Y501015D03*
D28*
X187643Y501015D03*
D240*
X141605Y501015D03*
D214*
X65405Y501015D03*
D109*
X483235Y501650D03*
D339*
X328613Y501650D03*
D42*
X187325Y501650D03*
D240*
X141605Y501650D03*
D214*
X65405Y501650D03*
D209*
X482918Y502285D03*
D340*
X328295Y502285D03*
D42*
X187325Y502285D03*
D240*
X141605Y502285D03*
D214*
X65405Y502285D03*
D209*
X482918Y502920D03*
D341*
X328295Y502920D03*
D42*
X187325Y502920D03*
D240*
X141605Y502920D03*
D214*
X65405Y502920D03*
D209*
X482918Y503555D03*
D342*
X327660Y503555D03*
D38*
X187960Y503555D03*
D240*
X141605Y503555D03*
D214*
X65405Y503555D03*
D343*
X354013Y504190D03*
D29*
X188913Y504190D03*
D240*
X141605Y504190D03*
D214*
X65405Y504190D03*
D344*
X345758Y504825D03*
D240*
X141605Y504825D03*
D214*
X65405Y504825D03*
D11*
X269558Y505460D03*
X269558Y506095D03*
X269558Y506730D03*
X269558Y507365D03*
X269558Y508000D03*
X269558Y508635D03*
X269558Y509270D03*
X269558Y509905D03*
X269558Y510540D03*
X269558Y511175D03*
X269558Y511810D03*
X269558Y512445D03*
X269558Y513080D03*
X269558Y513715D03*
X269558Y514350D03*
X269558Y514985D03*
X269558Y515620D03*
X269558Y516255D03*
X269558Y516890D03*
X269558Y517525D03*
X269558Y518160D03*
X269558Y518795D03*
X269558Y519430D03*
X269558Y520065D03*
X269558Y520700D03*
X269558Y521335D03*
X269558Y521970D03*
X269558Y522605D03*
X269558Y523240D03*
X269558Y523875D03*
X269558Y524510D03*
X269558Y525145D03*
X269558Y525780D03*
X269558Y526415D03*
X269558Y527050D03*
X269558Y527685D03*
X269558Y528320D03*
X269558Y528955D03*
X269558Y529590D03*
X269558Y530225D03*
X269558Y530860D03*
X269558Y531495D03*
X269558Y532130D03*
X269558Y532765D03*
D345*
X378841Y51608D02*
X378841Y47879D01*
X378841Y51608D02*
X376977Y53472D01*
X375113Y51608D01*
X375113Y47879D01*
X375113Y50675D02*
X378841Y50675D01*
X370432Y47879D02*
X370432Y53472D01*
X373228Y50675D01*
X369499Y50675D01*
X362002Y51608D02*
X362002Y47879D01*
X362002Y51608D02*
X360137Y53472D01*
X358273Y51608D01*
X358273Y47879D01*
X358273Y50675D02*
X362002Y50675D01*
X356389Y52540D02*
X355457Y53472D01*
X353592Y53472D01*
X352660Y52540D01*
X352660Y51608D01*
X353592Y50675D01*
X354524Y50675D01*
X353592Y50675D02*
X352660Y49743D01*
X352660Y48811D01*
X353592Y47879D01*
X355457Y47879D01*
X356389Y48811D01*
X345162Y47879D02*
X345162Y51608D01*
X343298Y53472D01*
X341434Y51608D01*
X341434Y47879D01*
X341434Y50675D02*
X345162Y50675D01*
X339549Y47879D02*
X335821Y47879D01*
X339549Y47879D02*
X335821Y51608D01*
X335821Y52540D01*
X336753Y53472D01*
X338617Y53472D01*
X339549Y52540D01*
X328323Y51608D02*
X328323Y47879D01*
X328323Y51608D02*
X326459Y53472D01*
X324595Y51608D01*
X324595Y47879D01*
X324595Y50675D02*
X328323Y50675D01*
X322710Y51608D02*
X320846Y53472D01*
X320846Y47879D01*
X322710Y47879D02*
X318982Y47879D01*
X308688Y53472D02*
X307755Y52540D01*
X308688Y53472D02*
X310552Y53472D01*
X311484Y52540D01*
X311484Y51608D01*
X310552Y50675D01*
X308688Y50675D01*
X307755Y49743D01*
X307755Y48811D01*
X308688Y47879D01*
X310552Y47879D01*
X311484Y48811D01*
X305871Y47879D02*
X302142Y47879D01*
X305871Y47879D02*
X302142Y51608D01*
X302142Y52540D01*
X303074Y53472D01*
X304939Y53472D01*
X305871Y52540D01*
X291848Y53472D02*
X290916Y52540D01*
X291848Y53472D02*
X293712Y53472D01*
X294645Y52540D01*
X294645Y51608D01*
X293712Y50675D01*
X291848Y50675D01*
X290916Y49743D01*
X290916Y48811D01*
X291848Y47879D01*
X293712Y47879D01*
X294645Y48811D01*
X289032Y51608D02*
X287167Y53472D01*
X287167Y47879D01*
X285303Y47879D02*
X289032Y47879D01*
X226185Y52202D02*
X225253Y51270D01*
X226185Y52202D02*
X228049Y52202D01*
X228981Y51270D01*
X228981Y47541D01*
X228049Y46609D01*
X226185Y46609D01*
X225253Y47541D01*
X225253Y49405D01*
X227117Y49405D01*
X223368Y46609D02*
X219639Y46609D01*
X223368Y46609D02*
X219639Y50338D01*
X219639Y51270D01*
X220572Y52202D01*
X222436Y52202D01*
X223368Y51270D01*
X210277Y52202D02*
X210277Y46609D01*
X212142Y52202D02*
X208413Y52202D01*
X206529Y46609D02*
X202800Y46609D01*
X206529Y46609D02*
X202800Y50338D01*
X202800Y51270D01*
X203732Y52202D01*
X205597Y52202D01*
X206529Y51270D01*
X192506Y52202D02*
X191574Y51270D01*
X192506Y52202D02*
X194370Y52202D01*
X195302Y51270D01*
X195302Y47541D01*
X194370Y46609D01*
X192506Y46609D01*
X191574Y47541D01*
X191574Y49405D01*
X193438Y49405D01*
X189689Y50338D02*
X189689Y46609D01*
X189689Y50338D02*
X186893Y50338D01*
X185961Y49405D01*
X185961Y46609D01*
X180348Y46609D02*
X180348Y52202D01*
X180348Y46609D02*
X183144Y46609D01*
X184076Y47541D01*
X184076Y49405D01*
X183144Y50338D01*
X180348Y50338D01*
X172850Y52202D02*
X169122Y52202D01*
X172850Y52202D02*
X172850Y49405D01*
X170986Y50338D01*
X170054Y50338D01*
X169122Y49405D01*
X169122Y47541D01*
X170054Y46609D01*
X171918Y46609D01*
X172850Y47541D01*
X167237Y50338D02*
X165373Y46609D01*
X163508Y50338D01*
X154147Y52202D02*
X154147Y46609D01*
X156011Y52202D02*
X152282Y52202D01*
X150398Y46609D02*
X146669Y46609D01*
X150398Y46609D02*
X146669Y50338D01*
X146669Y51270D01*
X147601Y52202D01*
X149466Y52202D01*
X150398Y51270D01*
X136375Y52202D02*
X135443Y51270D01*
X136375Y52202D02*
X138239Y52202D01*
X139172Y51270D01*
X139172Y47541D01*
X138239Y46609D01*
X136375Y46609D01*
X135443Y47541D01*
X135443Y49405D01*
X137307Y49405D01*
X133558Y50338D02*
X131694Y52202D01*
X131694Y46609D01*
X133558Y46609D02*
X129830Y46609D01*
M02*
