G04 EAGLE Gerber X2 export*
%TF.Part,Single*%
%TF.FileFunction,Legend,Top,1*%
%TF.FilePolarity,Positive*%
%TF.GenerationSoftware,Autodesk,EAGLE,9.0.0*%
%TF.CreationDate,2018-07-03T14:12:15Z*%
G75*
%MOMM*%
%FSLAX34Y34*%
%LPD*%
%AMOC8*
5,1,8,0,0,1.08239X$1,22.5*%
G01*
%ADD10C,0.127000*%
%ADD11R,0.711200X0.025400*%
%ADD12R,0.609600X0.025400*%
%ADD13R,1.270000X0.025400*%
%ADD14R,1.117600X0.025400*%
%ADD15R,1.651000X0.025400*%
%ADD16R,1.422400X0.025400*%
%ADD17R,1.905000X0.025400*%
%ADD18R,1.676400X0.025400*%
%ADD19R,2.159000X0.025400*%
%ADD20R,2.387600X0.025400*%
%ADD21R,2.082800X0.025400*%
%ADD22R,1.879600X0.025400*%
%ADD23R,2.540000X0.025400*%
%ADD24R,2.260600X0.025400*%
%ADD25R,2.743200X0.025400*%
%ADD26R,2.413000X0.025400*%
%ADD27R,2.895600X0.025400*%
%ADD28R,2.565400X0.025400*%
%ADD29R,3.048000X0.025400*%
%ADD30R,2.717800X0.025400*%
%ADD31R,3.175000X0.025400*%
%ADD32R,2.819400X0.025400*%
%ADD33R,3.302000X0.025400*%
%ADD34R,2.971800X0.025400*%
%ADD35R,3.429000X0.025400*%
%ADD36R,3.073400X0.025400*%
%ADD37R,3.530600X0.025400*%
%ADD38R,3.632200X0.025400*%
%ADD39R,3.276600X0.025400*%
%ADD40R,3.733800X0.025400*%
%ADD41R,3.378200X0.025400*%
%ADD42R,3.835400X0.025400*%
%ADD43R,3.479800X0.025400*%
%ADD44R,3.937000X0.025400*%
%ADD45R,3.581400X0.025400*%
%ADD46R,4.013200X0.025400*%
%ADD47R,3.657600X0.025400*%
%ADD48R,4.089400X0.025400*%
%ADD49R,4.191000X0.025400*%
%ADD50R,4.267200X0.025400*%
%ADD51R,3.886200X0.025400*%
%ADD52R,4.343400X0.025400*%
%ADD53R,3.987800X0.025400*%
%ADD54R,4.394200X0.025400*%
%ADD55R,4.038600X0.025400*%
%ADD56R,4.470400X0.025400*%
%ADD57R,4.114800X0.025400*%
%ADD58R,4.546600X0.025400*%
%ADD59R,4.597400X0.025400*%
%ADD60R,4.648200X0.025400*%
%ADD61R,4.318000X0.025400*%
%ADD62R,4.724400X0.025400*%
%ADD63R,4.368800X0.025400*%
%ADD64R,4.775200X0.025400*%
%ADD65R,4.445000X0.025400*%
%ADD66R,4.826000X0.025400*%
%ADD67R,4.521200X0.025400*%
%ADD68R,4.876800X0.025400*%
%ADD69R,4.572000X0.025400*%
%ADD70R,4.927600X0.025400*%
%ADD71R,4.622800X0.025400*%
%ADD72R,4.978400X0.025400*%
%ADD73R,4.673600X0.025400*%
%ADD74R,5.029200X0.025400*%
%ADD75R,5.080000X0.025400*%
%ADD76R,5.130800X0.025400*%
%ADD77R,5.156200X0.025400*%
%ADD78R,5.207000X0.025400*%
%ADD79R,5.232400X0.025400*%
%ADD80R,5.283200X0.025400*%
%ADD81R,5.334000X0.025400*%
%ADD82R,5.359400X0.025400*%
%ADD83R,5.384800X0.025400*%
%ADD84R,5.435600X0.025400*%
%ADD85R,5.461000X0.025400*%
%ADD86R,5.257800X0.025400*%
%ADD87R,5.486400X0.025400*%
%ADD88R,5.308600X0.025400*%
%ADD89R,5.537200X0.025400*%
%ADD90R,5.588000X0.025400*%
%ADD91R,5.410200X0.025400*%
%ADD92R,5.613400X0.025400*%
%ADD93R,5.638800X0.025400*%
%ADD94R,5.664200X0.025400*%
%ADD95R,5.689600X0.025400*%
%ADD96R,5.562600X0.025400*%
%ADD97R,5.715000X0.025400*%
%ADD98R,5.740400X0.025400*%
%ADD99R,5.765800X0.025400*%
%ADD100R,2.590800X0.025400*%
%ADD101R,2.489200X0.025400*%
%ADD102R,2.438400X0.025400*%
%ADD103R,2.362200X0.025400*%
%ADD104R,2.311400X0.025400*%
%ADD105R,2.209800X0.025400*%
%ADD106R,5.791200X0.025400*%
%ADD107R,5.816600X0.025400*%
%ADD108R,2.108200X0.025400*%
%ADD109R,5.842000X0.025400*%
%ADD110R,2.641600X0.025400*%
%ADD111R,2.032000X0.025400*%
%ADD112R,2.006600X0.025400*%
%ADD113R,2.463800X0.025400*%
%ADD114R,1.981200X0.025400*%
%ADD115R,1.955800X0.025400*%
%ADD116R,2.336800X0.025400*%
%ADD117R,1.930400X0.025400*%
%ADD118R,2.286000X0.025400*%
%ADD119R,2.235200X0.025400*%
%ADD120R,2.184400X0.025400*%
%ADD121R,1.854200X0.025400*%
%ADD122R,2.133600X0.025400*%
%ADD123R,2.057400X0.025400*%
%ADD124R,1.828800X0.025400*%
%ADD125R,2.692400X0.025400*%
%ADD126R,2.794000X0.025400*%
%ADD127R,2.870200X0.025400*%
%ADD128R,2.946400X0.025400*%
%ADD129R,3.149600X0.025400*%
%ADD130R,3.225800X0.025400*%
%ADD131R,3.327400X0.025400*%
%ADD132R,3.810000X0.025400*%
%ADD133R,4.064000X0.025400*%
%ADD134R,4.140200X0.025400*%
%ADD135R,4.216400X0.025400*%
%ADD136R,4.419600X0.025400*%
%ADD137R,4.495800X0.025400*%
%ADD138R,4.292600X0.025400*%
%ADD139R,4.241800X0.025400*%
%ADD140R,4.165600X0.025400*%
%ADD141R,3.860800X0.025400*%
%ADD142R,3.708400X0.025400*%
%ADD143R,3.556000X0.025400*%
%ADD144R,3.200400X0.025400*%
%ADD145R,3.098800X0.025400*%
%ADD146R,3.022600X0.025400*%
%ADD147R,2.921000X0.025400*%
%ADD148R,1.803400X0.025400*%
%ADD149R,0.812800X0.025400*%
%ADD150R,0.736600X0.025400*%
%ADD151R,0.685800X0.025400*%
%ADD152R,0.660400X0.025400*%
%ADD153R,0.635000X0.025400*%
%ADD154R,0.584200X0.025400*%
%ADD155R,0.177800X0.025400*%
%ADD156R,0.558800X0.025400*%
%ADD157R,0.355600X0.025400*%
%ADD158R,0.533400X0.025400*%
%ADD159R,0.406400X0.025400*%
%ADD160R,0.508000X0.025400*%
%ADD161R,0.482600X0.025400*%
%ADD162R,0.457200X0.025400*%
%ADD163R,0.254000X0.025400*%
%ADD164R,0.203200X0.025400*%
%ADD165R,0.228600X0.025400*%
%ADD166R,0.431800X0.025400*%
%ADD167R,5.892800X0.025400*%
%ADD168R,5.867400X0.025400*%
%ADD169R,0.152400X0.025400*%
%ADD170R,5.181600X0.025400*%
%ADD171R,5.105400X0.025400*%
%ADD172R,0.304800X0.025400*%
%ADD173R,5.054600X0.025400*%
%ADD174R,5.003800X0.025400*%
%ADD175R,4.902200X0.025400*%
%ADD176R,4.953000X0.025400*%
%ADD177R,4.851400X0.025400*%
%ADD178R,4.800600X0.025400*%
%ADD179R,1.549400X0.025400*%
%ADD180R,1.498600X0.025400*%
%ADD181R,4.749800X0.025400*%
%ADD182R,1.447800X0.025400*%
%ADD183R,1.397000X0.025400*%
%ADD184R,1.346200X0.025400*%
%ADD185R,1.320800X0.025400*%
%ADD186R,1.244600X0.025400*%
%ADD187R,1.219200X0.025400*%
%ADD188R,1.143000X0.025400*%
%ADD189R,1.041400X0.025400*%
%ADD190R,3.962400X0.025400*%
%ADD191R,3.454400X0.025400*%
%ADD192R,3.352800X0.025400*%
%ADD193R,3.251200X0.025400*%
%ADD194R,3.124200X0.025400*%
%ADD195R,2.768600X0.025400*%
%ADD196R,2.667000X0.025400*%
%ADD197R,2.616200X0.025400*%
%ADD198R,2.514600X0.025400*%
%ADD199R,1.727200X0.025400*%
%ADD200R,1.625600X0.025400*%
%ADD201R,1.473200X0.025400*%
%ADD202R,1.371600X0.025400*%
%ADD203R,0.050800X0.025400*%
%ADD204R,1.066800X0.025400*%
%ADD205R,0.076200X0.025400*%
%ADD206R,0.127000X0.025400*%
%ADD207R,0.025400X0.025400*%
%ADD208R,0.101600X0.025400*%
%ADD209R,0.279400X0.025400*%
%ADD210R,0.330200X0.025400*%
%ADD211R,0.381000X0.025400*%
%ADD212R,0.762000X0.025400*%
%ADD213R,0.787400X0.025400*%
%ADD214R,0.889000X0.025400*%
%ADD215R,1.016000X0.025400*%
%ADD216R,1.168400X0.025400*%
%ADD217R,0.838200X0.025400*%
%ADD218R,0.990600X0.025400*%
%ADD219R,0.914400X0.025400*%
%ADD220R,1.092200X0.025400*%
%ADD221R,0.863600X0.025400*%
%ADD222R,0.965200X0.025400*%
%ADD223R,0.939800X0.025400*%
%ADD224R,1.295400X0.025400*%
%ADD225R,1.193800X0.025400*%
%ADD226R,1.752600X0.025400*%
%ADD227R,1.574800X0.025400*%
%ADD228C,0.203200*%
%ADD229C,0.228600*%
%ADD230C,0.152400*%
%ADD231C,0.076200*%
%ADD232R,0.863600X0.609600*%
%ADD233C,0.101600*%
%ADD234C,0.025400*%
%ADD235C,0.254000*%
%ADD236R,0.762000X0.457200*%
%ADD237R,0.762000X10.668000*%
%ADD238R,0.508000X1.905000*%
%ADD239R,0.508000X0.762000*%
%ADD240C,0.254000*%
%ADD241R,0.508000X2.540000*%
%ADD242R,1.905000X0.762000*%


D10*
X28448Y368681D02*
X28448Y384188D01*
X33617Y379019D01*
X38786Y384188D01*
X38786Y368681D01*
X43884Y368681D02*
X43884Y384188D01*
X43884Y368681D02*
X51638Y368681D01*
X54222Y371266D01*
X54222Y381604D01*
X51638Y384188D01*
X43884Y384188D01*
X59320Y379019D02*
X59320Y368681D01*
X59320Y379019D02*
X64489Y384188D01*
X69658Y379019D01*
X69658Y368681D01*
X69658Y376435D02*
X59320Y376435D01*
X82510Y384188D02*
X85094Y381604D01*
X82510Y384188D02*
X77341Y384188D01*
X74756Y381604D01*
X74756Y379019D01*
X77341Y376435D01*
X82510Y376435D01*
X85094Y373850D01*
X85094Y371266D01*
X82510Y368681D01*
X77341Y368681D01*
X74756Y371266D01*
X90192Y371266D02*
X90192Y368681D01*
X90192Y371266D02*
X92777Y371266D01*
X92777Y368681D01*
X90192Y368681D01*
X100495Y379019D02*
X105664Y379019D01*
X108248Y376435D01*
X108248Y368681D01*
X100495Y368681D01*
X97910Y371266D01*
X100495Y373850D01*
X108248Y373850D01*
X113346Y379019D02*
X115931Y379019D01*
X115931Y368681D01*
X118515Y368681D02*
X113346Y368681D01*
X115931Y384188D02*
X115931Y386773D01*
X38786Y356458D02*
X36202Y359042D01*
X31033Y359042D01*
X28448Y356458D01*
X28448Y346120D01*
X31033Y343535D01*
X36202Y343535D01*
X38786Y346120D01*
X46469Y343535D02*
X51638Y343535D01*
X54222Y346120D01*
X54222Y351289D01*
X51638Y353873D01*
X46469Y353873D01*
X43884Y351289D01*
X43884Y346120D01*
X46469Y343535D01*
X59320Y343535D02*
X59320Y353873D01*
X67074Y353873D01*
X69658Y351289D01*
X69658Y343535D01*
X77341Y346120D02*
X77341Y356458D01*
X77341Y346120D02*
X79925Y343535D01*
X79925Y353873D02*
X74756Y353873D01*
X85047Y353873D02*
X85047Y343535D01*
X85047Y348704D02*
X90216Y353873D01*
X92801Y353873D01*
X100495Y343535D02*
X105664Y343535D01*
X108248Y346120D01*
X108248Y351289D01*
X105664Y353873D01*
X100495Y353873D01*
X97910Y351289D01*
X97910Y346120D01*
X100495Y343535D01*
X113346Y359042D02*
X115931Y359042D01*
X115931Y343535D01*
X118515Y343535D02*
X113346Y343535D01*
X123637Y359042D02*
X126222Y359042D01*
X126222Y343535D01*
X128806Y343535D02*
X123637Y343535D01*
X136512Y343535D02*
X141681Y343535D01*
X136512Y343535D02*
X133928Y346120D01*
X133928Y351289D01*
X136512Y353873D01*
X141681Y353873D01*
X144266Y351289D01*
X144266Y348704D01*
X133928Y348704D01*
X149364Y343535D02*
X149364Y353873D01*
X149364Y348704D02*
X154533Y353873D01*
X157117Y353873D01*
X33617Y318389D02*
X28448Y328727D01*
X38786Y328727D02*
X33617Y318389D01*
X43884Y328727D02*
X49053Y333896D01*
X49053Y318389D01*
X43884Y318389D02*
X54222Y318389D01*
X59320Y318389D02*
X59320Y320974D01*
X61905Y320974D01*
X61905Y318389D01*
X59320Y318389D01*
X67038Y320974D02*
X67038Y331312D01*
X69623Y333896D01*
X74792Y333896D01*
X77376Y331312D01*
X77376Y320974D01*
X74792Y318389D01*
X69623Y318389D01*
X67038Y320974D01*
X77376Y331312D01*
D11*
X412877Y296672D03*
D12*
X485267Y296672D03*
D13*
X412877Y296926D03*
D14*
X485267Y296926D03*
D15*
X413004Y297180D03*
D16*
X485267Y297180D03*
D17*
X413004Y297434D03*
D18*
X485267Y297434D03*
D19*
X413004Y297688D03*
D17*
X485394Y297688D03*
D20*
X413131Y297942D03*
D21*
X485267Y297942D03*
D22*
X364363Y298196D03*
D23*
X413131Y298196D03*
D24*
X485394Y298196D03*
D22*
X364363Y298450D03*
D25*
X413131Y298450D03*
D26*
X485394Y298450D03*
D22*
X364363Y298704D03*
D27*
X413131Y298704D03*
D28*
X485394Y298704D03*
D22*
X364363Y298958D03*
D29*
X413131Y298958D03*
D30*
X485394Y298958D03*
D22*
X364363Y299212D03*
D31*
X413258Y299212D03*
D32*
X485394Y299212D03*
D22*
X364363Y299466D03*
D33*
X413131Y299466D03*
D34*
X485394Y299466D03*
D22*
X364363Y299720D03*
D35*
X413258Y299720D03*
D36*
X485394Y299720D03*
D22*
X364363Y299974D03*
D37*
X413258Y299974D03*
D31*
X485394Y299974D03*
D22*
X364363Y300228D03*
D38*
X413258Y300228D03*
D39*
X485394Y300228D03*
D22*
X364363Y300482D03*
D40*
X413258Y300482D03*
D41*
X485394Y300482D03*
D22*
X364363Y300736D03*
D42*
X413258Y300736D03*
D43*
X485394Y300736D03*
D22*
X364363Y300990D03*
D44*
X413258Y300990D03*
D45*
X485394Y300990D03*
D22*
X364363Y301244D03*
D46*
X413131Y301244D03*
D47*
X485267Y301244D03*
D22*
X364363Y301498D03*
D48*
X413258Y301498D03*
D40*
X485394Y301498D03*
D22*
X364363Y301752D03*
D49*
X413258Y301752D03*
D42*
X485394Y301752D03*
D22*
X364363Y302006D03*
D50*
X413131Y302006D03*
D51*
X485394Y302006D03*
D22*
X364363Y302260D03*
D52*
X413258Y302260D03*
D53*
X485394Y302260D03*
D22*
X364363Y302514D03*
D54*
X413258Y302514D03*
D55*
X485394Y302514D03*
D22*
X364363Y302768D03*
D56*
X413131Y302768D03*
D57*
X485267Y302768D03*
D22*
X364363Y303022D03*
D58*
X413258Y303022D03*
D49*
X485394Y303022D03*
D22*
X364363Y303276D03*
D59*
X413258Y303276D03*
D50*
X485267Y303276D03*
D22*
X364363Y303530D03*
D60*
X413258Y303530D03*
D61*
X485267Y303530D03*
D22*
X364363Y303784D03*
D62*
X413131Y303784D03*
D63*
X485267Y303784D03*
D22*
X364363Y304038D03*
D64*
X413131Y304038D03*
D65*
X485394Y304038D03*
D22*
X364363Y304292D03*
D66*
X413131Y304292D03*
D67*
X485267Y304292D03*
D22*
X364363Y304546D03*
D68*
X413131Y304546D03*
D69*
X485267Y304546D03*
D22*
X364363Y304800D03*
D70*
X413131Y304800D03*
D71*
X485267Y304800D03*
D22*
X364363Y305054D03*
D72*
X413131Y305054D03*
D73*
X485267Y305054D03*
D22*
X364363Y305308D03*
D74*
X413131Y305308D03*
D62*
X485267Y305308D03*
D22*
X364363Y305562D03*
D75*
X413131Y305562D03*
D64*
X485267Y305562D03*
D22*
X364363Y305816D03*
D76*
X413131Y305816D03*
D66*
X485267Y305816D03*
D22*
X364363Y306070D03*
D77*
X413258Y306070D03*
D68*
X485267Y306070D03*
D22*
X364363Y306324D03*
D78*
X413258Y306324D03*
D70*
X485267Y306324D03*
D22*
X364363Y306578D03*
D79*
X413131Y306578D03*
D72*
X485267Y306578D03*
D22*
X364363Y306832D03*
D80*
X413131Y306832D03*
D74*
X485267Y306832D03*
D22*
X364363Y307086D03*
D81*
X413131Y307086D03*
D75*
X485267Y307086D03*
D22*
X364363Y307340D03*
D82*
X413258Y307340D03*
D76*
X485267Y307340D03*
D22*
X364363Y307594D03*
D83*
X413131Y307594D03*
D77*
X485140Y307594D03*
D22*
X364363Y307848D03*
D84*
X413131Y307848D03*
D78*
X485140Y307848D03*
D22*
X364363Y308102D03*
D85*
X413258Y308102D03*
D86*
X485140Y308102D03*
D22*
X364363Y308356D03*
D87*
X413131Y308356D03*
D88*
X485140Y308356D03*
D22*
X364363Y308610D03*
D89*
X413131Y308610D03*
D81*
X485013Y308610D03*
D22*
X364363Y308864D03*
D89*
X413131Y308864D03*
D82*
X485140Y308864D03*
D22*
X364363Y309118D03*
D90*
X413131Y309118D03*
D91*
X485140Y309118D03*
D22*
X364363Y309372D03*
D92*
X413004Y309372D03*
D85*
X485140Y309372D03*
D22*
X364363Y309626D03*
D93*
X413131Y309626D03*
D87*
X485013Y309626D03*
D22*
X364363Y309880D03*
D94*
X413004Y309880D03*
D89*
X485013Y309880D03*
D22*
X364363Y310134D03*
D95*
X413131Y310134D03*
D96*
X485140Y310134D03*
D22*
X364363Y310388D03*
D97*
X413004Y310388D03*
D90*
X485013Y310388D03*
D22*
X364363Y310642D03*
D98*
X413131Y310642D03*
D93*
X485013Y310642D03*
D22*
X364363Y310896D03*
D99*
X413004Y310896D03*
D94*
X484886Y310896D03*
D22*
X364363Y311150D03*
D100*
X397129Y311150D03*
D101*
X429641Y311150D03*
D95*
X485013Y311150D03*
D22*
X364363Y311404D03*
D102*
X396367Y311404D03*
D103*
X430276Y311404D03*
D98*
X485013Y311404D03*
D22*
X364363Y311658D03*
D20*
X395859Y311658D03*
D24*
X430784Y311658D03*
D99*
X484886Y311658D03*
D22*
X364363Y311912D03*
D104*
X395478Y311912D03*
D105*
X431292Y311912D03*
D106*
X485013Y311912D03*
D22*
X364363Y312166D03*
D24*
X394970Y312166D03*
D19*
X431546Y312166D03*
D107*
X484886Y312166D03*
D22*
X364363Y312420D03*
D105*
X394716Y312420D03*
D108*
X431800Y312420D03*
D109*
X485013Y312420D03*
D22*
X364363Y312674D03*
D19*
X394462Y312674D03*
D21*
X432181Y312674D03*
D110*
X468757Y312674D03*
X501015Y312674D03*
D22*
X364363Y312928D03*
D19*
X394208Y312928D03*
D111*
X432435Y312928D03*
D23*
X467995Y312928D03*
X501777Y312928D03*
D22*
X364363Y313182D03*
D108*
X393954Y313182D03*
D112*
X432562Y313182D03*
D113*
X467614Y313182D03*
D102*
X502285Y313182D03*
D22*
X364363Y313436D03*
D21*
X393827Y313436D03*
D114*
X432943Y313436D03*
D26*
X467106Y313436D03*
D20*
X502793Y313436D03*
D22*
X364363Y313690D03*
D21*
X393573Y313690D03*
D115*
X433070Y313690D03*
D116*
X466725Y313690D03*
X503047Y313690D03*
D22*
X364363Y313944D03*
D111*
X393319Y313944D03*
D117*
X433197Y313944D03*
D104*
X466344Y313944D03*
X503428Y313944D03*
D22*
X364363Y314198D03*
D112*
X393192Y314198D03*
D17*
X433324Y314198D03*
D118*
X465963Y314198D03*
D24*
X503682Y314198D03*
D22*
X364363Y314452D03*
D111*
X393065Y314452D03*
D117*
X433451Y314452D03*
D119*
X465709Y314452D03*
D105*
X503936Y314452D03*
D22*
X364363Y314706D03*
D112*
X392938Y314706D03*
D17*
X433578Y314706D03*
D119*
X465455Y314706D03*
D120*
X504317Y314706D03*
D22*
X364363Y314960D03*
D114*
X392811Y314960D03*
D22*
X433705Y314960D03*
D120*
X465201Y314960D03*
D19*
X504444Y314960D03*
D22*
X364363Y315214D03*
D115*
X392684Y315214D03*
D22*
X433705Y315214D03*
D120*
X464947Y315214D03*
D19*
X504698Y315214D03*
D22*
X364363Y315468D03*
D114*
X392557Y315468D03*
D121*
X433832Y315468D03*
D122*
X464693Y315468D03*
D108*
X504952Y315468D03*
D22*
X364363Y315722D03*
D115*
X392430Y315722D03*
D22*
X433959Y315722D03*
D122*
X464439Y315722D03*
D21*
X505079Y315722D03*
D22*
X364363Y315976D03*
D117*
X392303Y315976D03*
D121*
X434086Y315976D03*
D108*
X464312Y315976D03*
D21*
X505333Y315976D03*
D22*
X364363Y316230D03*
D117*
X392303Y316230D03*
D121*
X434086Y316230D03*
D108*
X464058Y316230D03*
D123*
X505460Y316230D03*
D22*
X364363Y316484D03*
D17*
X392176Y316484D03*
D121*
X434086Y316484D03*
D21*
X463931Y316484D03*
D111*
X505587Y316484D03*
D22*
X364363Y316738D03*
D117*
X392049Y316738D03*
D124*
X434213Y316738D03*
D123*
X463804Y316738D03*
D111*
X505841Y316738D03*
D22*
X364363Y316992D03*
D17*
X391922Y316992D03*
D124*
X434213Y316992D03*
D123*
X463550Y316992D03*
D112*
X505968Y316992D03*
D22*
X364363Y317246D03*
D17*
X391922Y317246D03*
D124*
X434213Y317246D03*
D111*
X463423Y317246D03*
D114*
X506095Y317246D03*
D22*
X364363Y317500D03*
D17*
X391922Y317500D03*
D124*
X434213Y317500D03*
D111*
X463169Y317500D03*
D112*
X506222Y317500D03*
D22*
X364363Y317754D03*
X391795Y317754D03*
D121*
X434340Y317754D03*
D112*
X463042Y317754D03*
D114*
X506349Y317754D03*
D22*
X364363Y318008D03*
X391795Y318008D03*
D121*
X434340Y318008D03*
D112*
X462788Y318008D03*
D115*
X506476Y318008D03*
D22*
X364363Y318262D03*
D17*
X391668Y318262D03*
D121*
X434340Y318262D03*
D112*
X462788Y318262D03*
D115*
X506476Y318262D03*
D22*
X364363Y318516D03*
X391541Y318516D03*
D121*
X434340Y318516D03*
D114*
X462661Y318516D03*
D115*
X506730Y318516D03*
D22*
X364363Y318770D03*
X391541Y318770D03*
D121*
X434340Y318770D03*
D114*
X462407Y318770D03*
D115*
X506730Y318770D03*
D22*
X364363Y319024D03*
X391541Y319024D03*
D121*
X434340Y319024D03*
D114*
X462407Y319024D03*
D117*
X506857Y319024D03*
D22*
X364363Y319278D03*
X391541Y319278D03*
D121*
X434340Y319278D03*
D115*
X462280Y319278D03*
D17*
X506984Y319278D03*
D22*
X364363Y319532D03*
D121*
X391414Y319532D03*
D22*
X434213Y319532D03*
D115*
X462026Y319532D03*
D117*
X507111Y319532D03*
D22*
X364363Y319786D03*
D121*
X391414Y319786D03*
D22*
X434213Y319786D03*
D115*
X462026Y319786D03*
D17*
X507238Y319786D03*
D22*
X364363Y320040D03*
D121*
X391414Y320040D03*
D17*
X434086Y320040D03*
D115*
X461772Y320040D03*
D17*
X507238Y320040D03*
D22*
X364363Y320294D03*
D121*
X391414Y320294D03*
D17*
X434086Y320294D03*
D115*
X461772Y320294D03*
D17*
X507238Y320294D03*
D22*
X364363Y320548D03*
D121*
X391414Y320548D03*
D117*
X433959Y320548D03*
X461645Y320548D03*
D17*
X507492Y320548D03*
D22*
X364363Y320802D03*
D121*
X391414Y320802D03*
D117*
X433959Y320802D03*
X461645Y320802D03*
D17*
X507492Y320802D03*
D22*
X364363Y321056D03*
D121*
X391414Y321056D03*
D115*
X433832Y321056D03*
D117*
X461391Y321056D03*
D22*
X507619Y321056D03*
X364363Y321310D03*
D121*
X391414Y321310D03*
D114*
X433705Y321310D03*
D117*
X461391Y321310D03*
D22*
X507619Y321310D03*
X364363Y321564D03*
D121*
X391414Y321564D03*
D112*
X433578Y321564D03*
D17*
X461264Y321564D03*
D22*
X507619Y321564D03*
X364363Y321818D03*
D124*
X391287Y321818D03*
D111*
X433451Y321818D03*
D117*
X461137Y321818D03*
D121*
X507746Y321818D03*
D22*
X364363Y322072D03*
D123*
X433324Y322072D03*
D17*
X461010Y322072D03*
D22*
X507873Y322072D03*
X364363Y322326D03*
D21*
X433197Y322326D03*
D17*
X461010Y322326D03*
D22*
X507873Y322326D03*
X364363Y322580D03*
D21*
X432943Y322580D03*
D17*
X460756Y322580D03*
D22*
X507873Y322580D03*
X364363Y322834D03*
D122*
X432689Y322834D03*
D17*
X460756Y322834D03*
D121*
X508000Y322834D03*
D22*
X364363Y323088D03*
D19*
X432562Y323088D03*
D17*
X460756Y323088D03*
D121*
X508000Y323088D03*
D22*
X364363Y323342D03*
D105*
X432308Y323342D03*
D22*
X460629Y323342D03*
D121*
X508000Y323342D03*
D22*
X364363Y323596D03*
D24*
X432054Y323596D03*
D17*
X460502Y323596D03*
D121*
X508000Y323596D03*
D22*
X364363Y323850D03*
D104*
X431800Y323850D03*
D22*
X460375Y323850D03*
D121*
X508000Y323850D03*
D22*
X364363Y324104D03*
D20*
X431419Y324104D03*
D22*
X460375Y324104D03*
X508127Y324104D03*
X364363Y324358D03*
D26*
X431038Y324358D03*
D22*
X460375Y324358D03*
D121*
X508254Y324358D03*
D22*
X364363Y324612D03*
D101*
X430657Y324612D03*
D22*
X460375Y324612D03*
D121*
X508254Y324612D03*
D22*
X364363Y324866D03*
D28*
X430276Y324866D03*
D22*
X460121Y324866D03*
D121*
X508254Y324866D03*
D22*
X364363Y325120D03*
D110*
X429895Y325120D03*
D22*
X460121Y325120D03*
D121*
X508254Y325120D03*
D22*
X364363Y325374D03*
D125*
X429387Y325374D03*
D22*
X460121Y325374D03*
D121*
X508254Y325374D03*
D22*
X364363Y325628D03*
D126*
X428879Y325628D03*
D121*
X459994Y325628D03*
D22*
X364363Y325882D03*
D127*
X428498Y325882D03*
D121*
X459994Y325882D03*
D22*
X364363Y326136D03*
D128*
X427863Y326136D03*
D22*
X459867Y326136D03*
X364363Y326390D03*
D29*
X427355Y326390D03*
D22*
X459867Y326390D03*
X364363Y326644D03*
D129*
X426847Y326644D03*
D22*
X459867Y326644D03*
X364363Y326898D03*
D130*
X426212Y326898D03*
D121*
X459740Y326898D03*
D22*
X364363Y327152D03*
D131*
X425704Y327152D03*
D121*
X459740Y327152D03*
D22*
X364363Y327406D03*
D35*
X425196Y327406D03*
D121*
X459740Y327406D03*
D22*
X364363Y327660D03*
D43*
X424688Y327660D03*
D121*
X459740Y327660D03*
D22*
X364363Y327914D03*
D45*
X424180Y327914D03*
D22*
X459613Y327914D03*
X364363Y328168D03*
D47*
X423545Y328168D03*
D121*
X459486Y328168D03*
D22*
X364363Y328422D03*
D40*
X423164Y328422D03*
D121*
X459486Y328422D03*
D22*
X364363Y328676D03*
D132*
X422529Y328676D03*
D121*
X459486Y328676D03*
D22*
X364363Y328930D03*
D51*
X422148Y328930D03*
D121*
X459486Y328930D03*
D22*
X364363Y329184D03*
D44*
X421640Y329184D03*
D121*
X459486Y329184D03*
D22*
X364363Y329438D03*
D46*
X421259Y329438D03*
D121*
X459486Y329438D03*
D22*
X364363Y329692D03*
D133*
X420751Y329692D03*
D121*
X459486Y329692D03*
D22*
X364363Y329946D03*
D134*
X420370Y329946D03*
D121*
X459486Y329946D03*
D22*
X364363Y330200D03*
D49*
X419862Y330200D03*
D124*
X459359Y330200D03*
D22*
X364363Y330454D03*
D135*
X419481Y330454D03*
D121*
X459232Y330454D03*
D22*
X364363Y330708D03*
D50*
X418973Y330708D03*
D121*
X459232Y330708D03*
D22*
X364363Y330962D03*
D61*
X418719Y330962D03*
D121*
X459232Y330962D03*
D22*
X364363Y331216D03*
D52*
X418338Y331216D03*
D121*
X459232Y331216D03*
D22*
X364363Y331470D03*
D54*
X417830Y331470D03*
D121*
X459232Y331470D03*
D22*
X364363Y331724D03*
D136*
X417449Y331724D03*
D121*
X459232Y331724D03*
D22*
X364363Y331978D03*
D65*
X417068Y331978D03*
D121*
X459232Y331978D03*
D22*
X364363Y332232D03*
D56*
X416941Y332232D03*
D121*
X459232Y332232D03*
D22*
X364363Y332486D03*
D137*
X416560Y332486D03*
D121*
X459232Y332486D03*
D22*
X364363Y332740D03*
D67*
X416179Y332740D03*
D121*
X459232Y332740D03*
D22*
X364363Y332994D03*
D58*
X415798Y332994D03*
D121*
X459232Y332994D03*
D22*
X364363Y333248D03*
D58*
X415544Y333248D03*
D121*
X459232Y333248D03*
D22*
X364363Y333502D03*
D69*
X415163Y333502D03*
D121*
X459232Y333502D03*
D22*
X364363Y333756D03*
D58*
X414782Y333756D03*
D121*
X459232Y333756D03*
D22*
X364363Y334010D03*
D69*
X414401Y334010D03*
D121*
X459232Y334010D03*
D22*
X364363Y334264D03*
D69*
X414147Y334264D03*
D121*
X459232Y334264D03*
D22*
X364363Y334518D03*
D69*
X413893Y334518D03*
D121*
X459232Y334518D03*
D22*
X364363Y334772D03*
D69*
X413385Y334772D03*
D121*
X459232Y334772D03*
D22*
X364363Y335026D03*
D69*
X413131Y335026D03*
D121*
X459232Y335026D03*
D22*
X364363Y335280D03*
D69*
X412877Y335280D03*
D121*
X459232Y335280D03*
D22*
X364363Y335534D03*
D58*
X412496Y335534D03*
D121*
X459232Y335534D03*
D22*
X364363Y335788D03*
D58*
X412242Y335788D03*
D121*
X459232Y335788D03*
D22*
X364363Y336042D03*
D67*
X411861Y336042D03*
D121*
X459232Y336042D03*
D22*
X364363Y336296D03*
D137*
X411480Y336296D03*
D121*
X459232Y336296D03*
D22*
X364363Y336550D03*
D137*
X411226Y336550D03*
D121*
X459486Y336550D03*
D22*
X364363Y336804D03*
D56*
X410845Y336804D03*
D121*
X459486Y336804D03*
D22*
X364363Y337058D03*
D65*
X410464Y337058D03*
D121*
X459486Y337058D03*
D22*
X364363Y337312D03*
D136*
X410083Y337312D03*
D121*
X459486Y337312D03*
D22*
X364363Y337566D03*
D54*
X409702Y337566D03*
D121*
X459486Y337566D03*
D22*
X364363Y337820D03*
D63*
X409321Y337820D03*
D121*
X459486Y337820D03*
D22*
X364363Y338074D03*
D138*
X408940Y338074D03*
D121*
X459486Y338074D03*
D22*
X364363Y338328D03*
D50*
X408559Y338328D03*
D121*
X459486Y338328D03*
D22*
X364363Y338582D03*
D139*
X408178Y338582D03*
D121*
X459486Y338582D03*
D22*
X364363Y338836D03*
D140*
X407797Y338836D03*
D22*
X459613Y338836D03*
X364363Y339090D03*
D57*
X407289Y339090D03*
D121*
X459740Y339090D03*
D22*
X364363Y339344D03*
D133*
X406781Y339344D03*
D121*
X459740Y339344D03*
D22*
X364363Y339598D03*
D53*
X406400Y339598D03*
D121*
X459740Y339598D03*
D22*
X364363Y339852D03*
D44*
X405892Y339852D03*
D121*
X459740Y339852D03*
D22*
X364363Y340106D03*
D141*
X405511Y340106D03*
D22*
X459867Y340106D03*
X364363Y340360D03*
D132*
X405003Y340360D03*
D22*
X459867Y340360D03*
X364363Y340614D03*
D142*
X404495Y340614D03*
D22*
X459867Y340614D03*
X364363Y340868D03*
D47*
X403987Y340868D03*
D121*
X459994Y340868D03*
D22*
X364363Y341122D03*
D143*
X403479Y341122D03*
D121*
X459994Y341122D03*
D22*
X364363Y341376D03*
D43*
X402844Y341376D03*
D22*
X460121Y341376D03*
X364363Y341630D03*
D41*
X402336Y341630D03*
D22*
X460121Y341630D03*
X364363Y341884D03*
D33*
X401701Y341884D03*
D22*
X460121Y341884D03*
X364363Y342138D03*
D144*
X401193Y342138D03*
D22*
X460375Y342138D03*
X364363Y342392D03*
D145*
X400685Y342392D03*
D22*
X460375Y342392D03*
X364363Y342646D03*
D146*
X400050Y342646D03*
D22*
X460375Y342646D03*
X364363Y342900D03*
D147*
X399542Y342900D03*
D22*
X460375Y342900D03*
X364363Y343154D03*
D32*
X399034Y343154D03*
D17*
X460502Y343154D03*
D22*
X364363Y343408D03*
D30*
X398526Y343408D03*
D22*
X460629Y343408D03*
D148*
X508254Y343408D03*
D22*
X364363Y343662D03*
D110*
X397891Y343662D03*
D17*
X460756Y343662D03*
D121*
X508254Y343662D03*
D22*
X364363Y343916D03*
D28*
X397510Y343916D03*
D17*
X460756Y343916D03*
D121*
X508254Y343916D03*
D22*
X364363Y344170D03*
D113*
X397002Y344170D03*
D17*
X460756Y344170D03*
D121*
X508254Y344170D03*
D22*
X364363Y344424D03*
D20*
X396621Y344424D03*
D17*
X461010Y344424D03*
D22*
X508127Y344424D03*
X364363Y344678D03*
D103*
X396240Y344678D03*
D17*
X461010Y344678D03*
D22*
X508127Y344678D03*
X364363Y344932D03*
D118*
X395859Y344932D03*
D117*
X461137Y344932D03*
D22*
X508127Y344932D03*
X364363Y345186D03*
D119*
X395605Y345186D03*
D17*
X461264Y345186D03*
D22*
X508127Y345186D03*
X364363Y345440D03*
D120*
X395351Y345440D03*
D117*
X461391Y345440D03*
D22*
X507873Y345440D03*
X364363Y345694D03*
D122*
X395097Y345694D03*
D117*
X461391Y345694D03*
D22*
X507873Y345694D03*
X364363Y345948D03*
D108*
X394716Y345948D03*
D117*
X461645Y345948D03*
D22*
X507873Y345948D03*
X364363Y346202D03*
D21*
X394589Y346202D03*
D117*
X461645Y346202D03*
D22*
X507873Y346202D03*
X364363Y346456D03*
D111*
X394335Y346456D03*
D115*
X461772Y346456D03*
D17*
X507746Y346456D03*
D22*
X364363Y346710D03*
D112*
X394208Y346710D03*
D117*
X461899Y346710D03*
D17*
X507746Y346710D03*
D22*
X364363Y346964D03*
D114*
X394081Y346964D03*
D115*
X462026Y346964D03*
D117*
X507619Y346964D03*
D22*
X364363Y347218D03*
D115*
X393954Y347218D03*
X462026Y347218D03*
D17*
X507492Y347218D03*
D22*
X364363Y347472D03*
D117*
X393827Y347472D03*
D121*
X432054Y347472D03*
D115*
X462280Y347472D03*
D117*
X507365Y347472D03*
D22*
X364363Y347726D03*
D17*
X393700Y347726D03*
D121*
X432054Y347726D03*
D114*
X462407Y347726D03*
D117*
X507365Y347726D03*
D22*
X364363Y347980D03*
D17*
X393700Y347980D03*
D121*
X432054Y347980D03*
D114*
X462407Y347980D03*
D115*
X507238Y347980D03*
D22*
X364363Y348234D03*
X393573Y348234D03*
D121*
X432054Y348234D03*
D114*
X462661Y348234D03*
D115*
X507238Y348234D03*
D22*
X364363Y348488D03*
X393573Y348488D03*
D121*
X432054Y348488D03*
D112*
X462788Y348488D03*
D115*
X506984Y348488D03*
D22*
X364363Y348742D03*
D121*
X393446Y348742D03*
X432054Y348742D03*
D112*
X462788Y348742D03*
D114*
X506857Y348742D03*
D22*
X364363Y348996D03*
D121*
X393446Y348996D03*
X432054Y348996D03*
D112*
X463042Y348996D03*
D114*
X506857Y348996D03*
D22*
X364363Y349250D03*
D121*
X393446Y349250D03*
X432054Y349250D03*
D111*
X463169Y349250D03*
D112*
X506730Y349250D03*
D22*
X364363Y349504D03*
D121*
X393446Y349504D03*
X432054Y349504D03*
D111*
X463423Y349504D03*
D112*
X506476Y349504D03*
D22*
X364363Y349758D03*
D121*
X393446Y349758D03*
D22*
X431927Y349758D03*
D123*
X463550Y349758D03*
D112*
X506476Y349758D03*
D22*
X364363Y350012D03*
D121*
X393446Y350012D03*
X431800Y350012D03*
D123*
X463804Y350012D03*
D111*
X506349Y350012D03*
D22*
X364363Y350266D03*
D121*
X393446Y350266D03*
X431800Y350266D03*
D21*
X463931Y350266D03*
D111*
X506095Y350266D03*
D149*
X359029Y350520D03*
X369697Y350520D03*
D121*
X393446Y350520D03*
D22*
X431673Y350520D03*
D108*
X464058Y350520D03*
D123*
X505968Y350520D03*
D150*
X358648Y350774D03*
X370078Y350774D03*
D121*
X393446Y350774D03*
D22*
X431673Y350774D03*
D108*
X464312Y350774D03*
D21*
X505841Y350774D03*
D11*
X358267Y351028D03*
D151*
X370332Y351028D03*
D121*
X393446Y351028D03*
D22*
X431673Y351028D03*
D122*
X464439Y351028D03*
D21*
X505587Y351028D03*
D152*
X358013Y351282D03*
D153*
X370586Y351282D03*
D121*
X393446Y351282D03*
D17*
X431546Y351282D03*
D122*
X464693Y351282D03*
X505333Y351282D03*
D153*
X357886Y351536D03*
D12*
X370713Y351536D03*
D121*
X393700Y351536D03*
D17*
X431546Y351536D03*
D120*
X464947Y351536D03*
D19*
X505206Y351536D03*
D153*
X357632Y351790D03*
D154*
X370840Y351790D03*
D121*
X393700Y351790D03*
D17*
X431292Y351790D03*
D120*
X465201Y351790D03*
D19*
X504952Y351790D03*
D12*
X357505Y352044D03*
D155*
X364236Y352044D03*
D156*
X370967Y352044D03*
D121*
X393700Y352044D03*
D117*
X431165Y352044D03*
D119*
X465455Y352044D03*
D105*
X504698Y352044D03*
D154*
X357124Y352298D03*
D157*
X364363Y352298D03*
D158*
X371094Y352298D03*
D22*
X393827Y352298D03*
D115*
X431038Y352298D03*
D119*
X465709Y352298D03*
D24*
X504444Y352298D03*
D154*
X357124Y352552D03*
D159*
X364363Y352552D03*
D160*
X371221Y352552D03*
D22*
X393827Y352552D03*
D115*
X431038Y352552D03*
D118*
X465963Y352552D03*
D24*
X504190Y352552D03*
D156*
X356997Y352806D03*
D160*
X364363Y352806D03*
D161*
X371348Y352806D03*
D17*
X393954Y352806D03*
D115*
X430784Y352806D03*
D104*
X466344Y352806D03*
D116*
X503809Y352806D03*
D156*
X356997Y353060D03*
X364363Y353060D03*
D161*
X371348Y353060D03*
D17*
X394208Y353060D03*
D114*
X430657Y353060D03*
D116*
X466725Y353060D03*
D103*
X503428Y353060D03*
D156*
X356743Y353314D03*
D154*
X364236Y353314D03*
D162*
X371475Y353314D03*
D117*
X394335Y353314D03*
D112*
X430530Y353314D03*
D26*
X467106Y353314D03*
X503174Y353314D03*
D156*
X356743Y353568D03*
D163*
X362585Y353568D03*
X366141Y353568D03*
D162*
X371475Y353568D03*
D115*
X394462Y353568D03*
D123*
X430276Y353568D03*
D113*
X467614Y353568D03*
X502666Y353568D03*
D158*
X356616Y353822D03*
D164*
X362077Y353822D03*
D165*
X366522Y353822D03*
D166*
X371602Y353822D03*
D114*
X394589Y353822D03*
D123*
X430022Y353822D03*
D23*
X467995Y353822D03*
D28*
X502158Y353822D03*
D156*
X356489Y354076D03*
D164*
X361823Y354076D03*
D155*
X366776Y354076D03*
D166*
X371602Y354076D03*
D114*
X394843Y354076D03*
D108*
X429768Y354076D03*
D110*
X468757Y354076D03*
D125*
X501269Y354076D03*
D158*
X356362Y354330D03*
D155*
X361696Y354330D03*
X367030Y354330D03*
D166*
X371602Y354330D03*
D112*
X394970Y354330D03*
D19*
X429514Y354330D03*
D167*
X485267Y354330D03*
D156*
X356235Y354584D03*
D155*
X361696Y354584D03*
X367030Y354584D03*
D159*
X371729Y354584D03*
D123*
X395224Y354584D03*
D120*
X429133Y354584D03*
D168*
X485140Y354584D03*
D154*
X356108Y354838D03*
D155*
X361442Y354838D03*
X367284Y354838D03*
D159*
X371729Y354838D03*
D21*
X395605Y354838D03*
D119*
X428879Y354838D03*
D109*
X485267Y354838D03*
D154*
X356108Y355092D03*
D155*
X361442Y355092D03*
X367284Y355092D03*
D159*
X371729Y355092D03*
D19*
X395986Y355092D03*
D104*
X428498Y355092D03*
D107*
X485140Y355092D03*
D154*
X356108Y355346D03*
D169*
X361315Y355346D03*
D155*
X367284Y355346D03*
D159*
X371729Y355346D03*
D119*
X396367Y355346D03*
D103*
X427990Y355346D03*
D99*
X485140Y355346D03*
D12*
X355981Y355600D03*
D169*
X361315Y355600D03*
X367411Y355600D03*
D159*
X371729Y355600D03*
D104*
X397002Y355600D03*
D101*
X427355Y355600D03*
D98*
X485267Y355600D03*
D12*
X355981Y355854D03*
D169*
X361315Y355854D03*
D155*
X367284Y355854D03*
D159*
X371729Y355854D03*
D84*
X412623Y355854D03*
D97*
X485140Y355854D03*
D12*
X355981Y356108D03*
D169*
X361315Y356108D03*
D155*
X367284Y356108D03*
D159*
X371729Y356108D03*
D91*
X412496Y356108D03*
D95*
X485267Y356108D03*
D164*
X353695Y356362D03*
D159*
X356997Y356362D03*
D155*
X361442Y356362D03*
X367284Y356362D03*
D159*
X371729Y356362D03*
D83*
X412623Y356362D03*
D93*
X485267Y356362D03*
D164*
X353695Y356616D03*
D159*
X356997Y356616D03*
D155*
X361442Y356616D03*
X367284Y356616D03*
D159*
X371729Y356616D03*
D82*
X412496Y356616D03*
D90*
X485267Y356616D03*
D164*
X353441Y356870D03*
D159*
X356997Y356870D03*
D155*
X361696Y356870D03*
X367030Y356870D03*
D159*
X371729Y356870D03*
D81*
X412623Y356870D03*
D90*
X485267Y356870D03*
D165*
X353568Y357124D03*
D166*
X357124Y357124D03*
D155*
X361696Y357124D03*
X367030Y357124D03*
D166*
X371602Y357124D03*
D88*
X412496Y357124D03*
D89*
X485267Y357124D03*
D164*
X353441Y357378D03*
D166*
X357124Y357378D03*
D164*
X361823Y357378D03*
D155*
X366776Y357378D03*
D166*
X371602Y357378D03*
D80*
X412623Y357378D03*
D87*
X485267Y357378D03*
D164*
X353187Y357632D03*
D159*
X357251Y357632D03*
D165*
X362204Y357632D03*
X366522Y357632D03*
D159*
X371475Y357632D03*
D86*
X412496Y357632D03*
D84*
X485267Y357632D03*
D164*
X353187Y357886D03*
D166*
X357378Y357886D03*
D12*
X364363Y357886D03*
D166*
X371348Y357886D03*
D79*
X412623Y357886D03*
D91*
X485394Y357886D03*
D164*
X352933Y358140D03*
D166*
X357378Y358140D03*
D156*
X364363Y358140D03*
D166*
X371348Y358140D03*
D78*
X412496Y358140D03*
D83*
X485267Y358140D03*
D164*
X352933Y358394D03*
D162*
X357505Y358394D03*
D156*
X364363Y358394D03*
D162*
X371221Y358394D03*
D170*
X412623Y358394D03*
D81*
X485267Y358394D03*
D155*
X352806Y358648D03*
D162*
X357505Y358648D03*
D160*
X364363Y358648D03*
D166*
X371094Y358648D03*
D77*
X412496Y358648D03*
D80*
X485267Y358648D03*
D155*
X352806Y358902D03*
D162*
X357759Y358902D03*
D159*
X364363Y358902D03*
D162*
X370967Y358902D03*
D171*
X412496Y358902D03*
D79*
X485267Y358902D03*
D164*
X352679Y359156D03*
D161*
X357886Y359156D03*
D172*
X364363Y359156D03*
D162*
X370713Y359156D03*
D75*
X412623Y359156D03*
D170*
X485267Y359156D03*
D155*
X352552Y359410D03*
D162*
X358013Y359410D03*
D155*
X364236Y359410D03*
D161*
X370586Y359410D03*
D173*
X412496Y359410D03*
D77*
X485394Y359410D03*
D155*
X352552Y359664D03*
D160*
X358267Y359664D03*
X370459Y359664D03*
D174*
X412496Y359664D03*
D171*
X485394Y359664D03*
D164*
X352425Y359918D03*
D160*
X358521Y359918D03*
X370205Y359918D03*
D72*
X412623Y359918D03*
D173*
X485394Y359918D03*
D155*
X352298Y360172D03*
D158*
X358648Y360172D03*
X370078Y360172D03*
D70*
X412623Y360172D03*
D174*
X485394Y360172D03*
D164*
X352171Y360426D03*
D156*
X359029Y360426D03*
X369697Y360426D03*
D175*
X412496Y360426D03*
D176*
X485394Y360426D03*
D164*
X352171Y360680D03*
D12*
X359283Y360680D03*
X369443Y360680D03*
D177*
X412496Y360680D03*
D175*
X485394Y360680D03*
D164*
X351917Y360934D03*
D152*
X359791Y360934D03*
X368935Y360934D03*
D178*
X412496Y360934D03*
D177*
X485394Y360934D03*
D164*
X351917Y361188D03*
D179*
X364490Y361188D03*
D64*
X412623Y361188D03*
D178*
X485394Y361188D03*
D164*
X351917Y361442D03*
D180*
X364490Y361442D03*
D62*
X412623Y361442D03*
D181*
X485394Y361442D03*
D164*
X351663Y361696D03*
D180*
X364490Y361696D03*
D73*
X412623Y361696D03*
X485267Y361696D03*
D164*
X351663Y361950D03*
D182*
X364490Y361950D03*
D71*
X412623Y361950D03*
X485267Y361950D03*
D155*
X351536Y362204D03*
D16*
X364617Y362204D03*
D69*
X412623Y362204D03*
X485267Y362204D03*
D164*
X351409Y362458D03*
D183*
X364744Y362458D03*
D67*
X412623Y362458D03*
X485267Y362458D03*
D164*
X351409Y362712D03*
D184*
X364744Y362712D03*
D56*
X412623Y362712D03*
D65*
X485394Y362712D03*
D155*
X351282Y362966D03*
D185*
X364871Y362966D03*
D136*
X412623Y362966D03*
D63*
X485267Y362966D03*
D164*
X351155Y363220D03*
D186*
X364998Y363220D03*
D63*
X412623Y363220D03*
D61*
X485267Y363220D03*
D155*
X351028Y363474D03*
D187*
X365125Y363474D03*
D138*
X412496Y363474D03*
D50*
X485267Y363474D03*
D155*
X351028Y363728D03*
D188*
X365252Y363728D03*
D135*
X412623Y363728D03*
D140*
X485267Y363728D03*
D164*
X350901Y363982D03*
D14*
X365379Y363982D03*
D140*
X412623Y363982D03*
D57*
X485267Y363982D03*
D164*
X350647Y364236D03*
D189*
X365506Y364236D03*
D57*
X412623Y364236D03*
D46*
X485267Y364236D03*
D164*
X350647Y364490D03*
D150*
X364744Y364490D03*
D155*
X369824Y364490D03*
D46*
X412623Y364490D03*
D190*
X485267Y364490D03*
D165*
X350520Y364744D03*
D154*
X364744Y364744D03*
D164*
X369697Y364744D03*
D190*
X412623Y364744D03*
D141*
X485267Y364744D03*
D164*
X350393Y364998D03*
D159*
X364617Y364998D03*
D155*
X369570Y364998D03*
D51*
X412750Y364998D03*
D132*
X485267Y364998D03*
D164*
X350393Y365252D03*
X369443Y365252D03*
D132*
X412623Y365252D03*
D142*
X485267Y365252D03*
D164*
X350139Y365506D03*
X369443Y365506D03*
D142*
X412623Y365506D03*
D38*
X485140Y365506D03*
D164*
X350139Y365760D03*
D155*
X369316Y365760D03*
D47*
X412623Y365760D03*
D37*
X485140Y365760D03*
D155*
X350012Y366014D03*
D164*
X369189Y366014D03*
D143*
X412623Y366014D03*
D191*
X485267Y366014D03*
D155*
X350012Y366268D03*
D164*
X369189Y366268D03*
D191*
X412623Y366268D03*
D192*
X485267Y366268D03*
D164*
X349885Y366522D03*
X368935Y366522D03*
D192*
X412623Y366522D03*
D193*
X485267Y366522D03*
D155*
X349758Y366776D03*
D164*
X368935Y366776D03*
D193*
X412623Y366776D03*
D194*
X485140Y366776D03*
D155*
X349758Y367030D03*
X368808Y367030D03*
D129*
X412623Y367030D03*
D146*
X485140Y367030D03*
D164*
X349631Y367284D03*
X368681Y367284D03*
D146*
X412750Y367284D03*
D147*
X485140Y367284D03*
D155*
X349504Y367538D03*
D164*
X368681Y367538D03*
D147*
X412750Y367538D03*
D195*
X485140Y367538D03*
D164*
X349377Y367792D03*
D155*
X368554Y367792D03*
D195*
X412750Y367792D03*
D196*
X485140Y367792D03*
D164*
X349377Y368046D03*
X368427Y368046D03*
D197*
X412750Y368046D03*
D198*
X485140Y368046D03*
D164*
X349123Y368300D03*
X368427Y368300D03*
D113*
X412750Y368300D03*
D103*
X485140Y368300D03*
D164*
X349123Y368554D03*
D155*
X368300Y368554D03*
D104*
X412750Y368554D03*
D105*
X485140Y368554D03*
D155*
X348996Y368808D03*
D164*
X368173Y368808D03*
D122*
X412877Y368808D03*
D111*
X485013Y368808D03*
D164*
X348869Y369062D03*
X368173Y369062D03*
D117*
X412877Y369062D03*
D124*
X485013Y369062D03*
D164*
X348869Y369316D03*
D155*
X368046Y369316D03*
D199*
X412877Y369316D03*
D200*
X485013Y369316D03*
D155*
X348742Y369570D03*
D164*
X367919Y369570D03*
D201*
X412877Y369570D03*
D202*
X485013Y369570D03*
D164*
X348615Y369824D03*
X367919Y369824D03*
D14*
X412877Y369824D03*
D203*
X423545Y369824D03*
D204*
X485013Y369824D03*
D164*
X348615Y370078D03*
X367665Y370078D03*
D153*
X413004Y370078D03*
D203*
X423291Y370078D03*
D154*
X485140Y370078D03*
D155*
X348488Y370332D03*
D164*
X367665Y370332D03*
D205*
X423164Y370332D03*
D164*
X348361Y370586D03*
D155*
X367538Y370586D03*
D203*
X423037Y370586D03*
D164*
X348361Y370840D03*
X367411Y370840D03*
D203*
X422783Y370840D03*
D164*
X348107Y371094D03*
D155*
X367284Y371094D03*
D205*
X422656Y371094D03*
D164*
X348107Y371348D03*
D155*
X367284Y371348D03*
D205*
X422402Y371348D03*
D164*
X348107Y371602D03*
X367157Y371602D03*
D206*
X422148Y371602D03*
D207*
X431038Y371602D03*
D164*
X347853Y371856D03*
D155*
X367030Y371856D03*
D208*
X422021Y371856D03*
D207*
X431038Y371856D03*
D164*
X347853Y372110D03*
D155*
X367030Y372110D03*
D208*
X421767Y372110D03*
D207*
X431038Y372110D03*
D155*
X347726Y372364D03*
D164*
X366903Y372364D03*
D206*
X421640Y372364D03*
D207*
X431038Y372364D03*
D164*
X347599Y372618D03*
D155*
X366776Y372618D03*
D206*
X421386Y372618D03*
D203*
X431165Y372618D03*
D155*
X347472Y372872D03*
D164*
X366649Y372872D03*
D206*
X421132Y372872D03*
D203*
X431165Y372872D03*
D155*
X347472Y373126D03*
D164*
X366649Y373126D03*
D169*
X421005Y373126D03*
D205*
X431292Y373126D03*
D164*
X347345Y373380D03*
D155*
X366522Y373380D03*
D169*
X420751Y373380D03*
D203*
X431419Y373380D03*
D155*
X347218Y373634D03*
D164*
X366395Y373634D03*
D155*
X420624Y373634D03*
D205*
X431292Y373634D03*
D164*
X347091Y373888D03*
X366141Y373888D03*
D155*
X420370Y373888D03*
D203*
X431419Y373888D03*
D155*
X346964Y374142D03*
D164*
X366141Y374142D03*
D155*
X420116Y374142D03*
D203*
X431419Y374142D03*
D155*
X346964Y374396D03*
X366014Y374396D03*
D164*
X419989Y374396D03*
D205*
X431546Y374396D03*
D164*
X346837Y374650D03*
X365887Y374650D03*
X419735Y374650D03*
D205*
X431546Y374650D03*
D155*
X346710Y374904D03*
D164*
X365887Y374904D03*
D165*
X419608Y374904D03*
D208*
X431673Y374904D03*
D164*
X346583Y375158D03*
D155*
X365760Y375158D03*
D165*
X419354Y375158D03*
D208*
X431673Y375158D03*
D164*
X346583Y375412D03*
X365633Y375412D03*
D165*
X419100Y375412D03*
D206*
X431800Y375412D03*
D164*
X346329Y375666D03*
X365633Y375666D03*
D163*
X418973Y375666D03*
D206*
X431800Y375666D03*
D164*
X346329Y375920D03*
D155*
X365506Y375920D03*
D163*
X418719Y375920D03*
D206*
X431800Y375920D03*
D164*
X346329Y376174D03*
X365379Y376174D03*
D163*
X418465Y376174D03*
D206*
X431800Y376174D03*
D164*
X346075Y376428D03*
X365379Y376428D03*
D209*
X418338Y376428D03*
D169*
X431927Y376428D03*
D164*
X346075Y376682D03*
X365125Y376682D03*
D209*
X418084Y376682D03*
D206*
X432054Y376682D03*
D155*
X345948Y376936D03*
D164*
X365125Y376936D03*
D172*
X417957Y376936D03*
D155*
X432054Y376936D03*
D164*
X345821Y377190D03*
D155*
X364998Y377190D03*
D172*
X417703Y377190D03*
D169*
X432181Y377190D03*
D164*
X345821Y377444D03*
X364871Y377444D03*
D172*
X417449Y377444D03*
D155*
X432308Y377444D03*
X345694Y377698D03*
D164*
X364871Y377698D03*
D210*
X417322Y377698D03*
D164*
X432181Y377698D03*
X345567Y377952D03*
D155*
X364744Y377952D03*
D210*
X417068Y377952D03*
D155*
X432308Y377952D03*
D164*
X345567Y378206D03*
X364617Y378206D03*
D157*
X416941Y378206D03*
D155*
X432308Y378206D03*
D164*
X345313Y378460D03*
D155*
X364490Y378460D03*
D157*
X416687Y378460D03*
D164*
X432435Y378460D03*
X345313Y378714D03*
D155*
X364490Y378714D03*
D157*
X416433Y378714D03*
D164*
X432435Y378714D03*
X345313Y378968D03*
X364363Y378968D03*
D211*
X416306Y378968D03*
D165*
X432562Y378968D03*
D164*
X345059Y379222D03*
D155*
X364236Y379222D03*
D211*
X416052Y379222D03*
D165*
X432562Y379222D03*
D164*
X345059Y379476D03*
D155*
X364236Y379476D03*
D159*
X415925Y379476D03*
D164*
X432689Y379476D03*
D155*
X344932Y379730D03*
D164*
X364109Y379730D03*
D159*
X415671Y379730D03*
D165*
X432562Y379730D03*
D164*
X344805Y379984D03*
X364109Y379984D03*
D159*
X415417Y379984D03*
D165*
X432816Y379984D03*
D155*
X344678Y380238D03*
D164*
X363855Y380238D03*
D166*
X415290Y380238D03*
D165*
X432816Y380238D03*
D155*
X344678Y380492D03*
D164*
X363855Y380492D03*
D166*
X415036Y380492D03*
D163*
X432943Y380492D03*
D164*
X344551Y380746D03*
X363601Y380746D03*
D162*
X414909Y380746D03*
D163*
X432943Y380746D03*
D155*
X344424Y381000D03*
D164*
X363601Y381000D03*
D166*
X414782Y381000D03*
D209*
X433070Y381000D03*
D155*
X344424Y381254D03*
X363474Y381254D03*
D162*
X414655Y381254D03*
D209*
X433070Y381254D03*
D164*
X344297Y381508D03*
X363347Y381508D03*
D162*
X414401Y381508D03*
D209*
X433070Y381508D03*
D164*
X344297Y381762D03*
X363347Y381762D03*
D162*
X414147Y381762D03*
D209*
X433070Y381762D03*
D164*
X344043Y382016D03*
D155*
X363220Y382016D03*
D162*
X414147Y382016D03*
D172*
X433197Y382016D03*
D164*
X344043Y382270D03*
X363093Y382270D03*
D159*
X414147Y382270D03*
D172*
X433197Y382270D03*
D155*
X343916Y382524D03*
D164*
X363093Y382524D03*
D159*
X414147Y382524D03*
D210*
X433324Y382524D03*
D164*
X343789Y382778D03*
D155*
X362966Y382778D03*
D166*
X414274Y382778D03*
D210*
X433324Y382778D03*
D155*
X343662Y383032D03*
D164*
X362839Y383032D03*
D162*
X414401Y383032D03*
D157*
X433451Y383032D03*
D164*
X343535Y383286D03*
X362839Y383286D03*
D161*
X414528Y383286D03*
D210*
X433578Y383286D03*
D164*
X343535Y383540D03*
D169*
X350901Y383540D03*
D164*
X362585Y383540D03*
D160*
X414909Y383540D03*
D210*
X433578Y383540D03*
D164*
X343281Y383794D03*
D157*
X350901Y383794D03*
D164*
X362585Y383794D03*
D158*
X415036Y383794D03*
D210*
X433578Y383794D03*
D164*
X343281Y384048D03*
D162*
X350901Y384048D03*
D164*
X362331Y384048D03*
D156*
X415163Y384048D03*
D157*
X433705Y384048D03*
D155*
X343154Y384302D03*
D156*
X350901Y384302D03*
D164*
X362331Y384302D03*
D154*
X415290Y384302D03*
D157*
X433705Y384302D03*
D164*
X343027Y384556D03*
D153*
X351028Y384556D03*
D164*
X362331Y384556D03*
D154*
X415544Y384556D03*
D211*
X433832Y384556D03*
D164*
X343027Y384810D03*
D165*
X348742Y384810D03*
X353314Y384810D03*
X362204Y384810D03*
D12*
X415671Y384810D03*
D211*
X433832Y384810D03*
D155*
X342900Y385064D03*
D165*
X348234Y385064D03*
D164*
X353695Y385064D03*
D172*
X362585Y385064D03*
D153*
X415798Y385064D03*
D211*
X433832Y385064D03*
D164*
X342773Y385318D03*
D155*
X347980Y385318D03*
D164*
X353949Y385318D03*
D157*
X362839Y385318D03*
D152*
X415925Y385318D03*
D211*
X433832Y385318D03*
D164*
X342773Y385572D03*
D169*
X347599Y385572D03*
D155*
X354330Y385572D03*
D162*
X363093Y385572D03*
D152*
X416179Y385572D03*
D159*
X433959Y385572D03*
D155*
X342646Y385826D03*
D169*
X347345Y385826D03*
D206*
X354584Y385826D03*
D160*
X363347Y385826D03*
D11*
X416433Y385826D03*
D159*
X433959Y385826D03*
D164*
X342519Y386080D03*
D169*
X347091Y386080D03*
X354711Y386080D03*
D156*
X363601Y386080D03*
D150*
X416560Y386080D03*
D162*
X433959Y386080D03*
D155*
X342392Y386334D03*
D206*
X346964Y386334D03*
X354838Y386334D03*
D153*
X363728Y386334D03*
D150*
X416560Y386334D03*
D160*
X433705Y386334D03*
D155*
X342392Y386588D03*
D169*
X346837Y386588D03*
D206*
X355092Y386588D03*
D164*
X361569Y386588D03*
D161*
X365252Y386588D03*
D212*
X416941Y386588D03*
D156*
X433451Y386588D03*
D155*
X342392Y386842D03*
D206*
X346710Y386842D03*
D169*
X350901Y386842D03*
D206*
X355092Y386842D03*
D155*
X361442Y386842D03*
D162*
X366141Y386842D03*
D213*
X417068Y386842D03*
D153*
X433070Y386842D03*
D155*
X342138Y387096D03*
D208*
X346583Y387096D03*
D163*
X350901Y387096D03*
D206*
X355346Y387096D03*
D164*
X361315Y387096D03*
D166*
X366522Y387096D03*
D214*
X417576Y387096D03*
D150*
X432816Y387096D03*
D155*
X342138Y387350D03*
D208*
X346583Y387350D03*
D172*
X350901Y387350D03*
D206*
X355346Y387350D03*
D155*
X361188Y387350D03*
D162*
X366903Y387350D03*
D215*
X418211Y387350D03*
D213*
X432562Y387350D03*
D155*
X342138Y387604D03*
D206*
X346456Y387604D03*
D210*
X351028Y387604D03*
D206*
X355346Y387604D03*
D164*
X361061Y387604D03*
D161*
X367792Y387604D03*
D216*
X418973Y387604D03*
D217*
X432308Y387604D03*
D164*
X342011Y387858D03*
D206*
X346456Y387858D03*
D157*
X350901Y387858D03*
D208*
X355473Y387858D03*
D164*
X361061Y387858D03*
D162*
X368427Y387858D03*
D187*
X419481Y387858D03*
D207*
X425958Y387858D03*
D214*
X432054Y387858D03*
D164*
X342011Y388112D03*
D206*
X346456Y388112D03*
D211*
X351028Y388112D03*
D206*
X355600Y388112D03*
D164*
X360807Y388112D03*
D162*
X368681Y388112D03*
D24*
X424688Y388112D03*
D155*
X342138Y388366D03*
D206*
X346456Y388366D03*
D211*
X351028Y388366D03*
D206*
X355600Y388366D03*
D164*
X360807Y388366D03*
D162*
X369443Y388366D03*
D24*
X424688Y388366D03*
D164*
X342011Y388620D03*
D208*
X346329Y388620D03*
D159*
X350901Y388620D03*
D206*
X355600Y388620D03*
D155*
X360680Y388620D03*
D162*
X369951Y388620D03*
D119*
X424561Y388620D03*
D155*
X341884Y388874D03*
D208*
X346329Y388874D03*
D159*
X350901Y388874D03*
D208*
X355473Y388874D03*
D164*
X360553Y388874D03*
D162*
X370459Y388874D03*
D120*
X424561Y388874D03*
D164*
X342011Y389128D03*
D206*
X346456Y389128D03*
D211*
X351028Y389128D03*
D206*
X355600Y389128D03*
D164*
X360553Y389128D03*
D162*
X371221Y389128D03*
D19*
X424434Y389128D03*
D155*
X341884Y389382D03*
D206*
X346456Y389382D03*
D211*
X351028Y389382D03*
D208*
X355473Y389382D03*
D155*
X360426Y389382D03*
D162*
X371729Y389382D03*
D122*
X424307Y389382D03*
D164*
X342011Y389636D03*
D206*
X346456Y389636D03*
D157*
X350901Y389636D03*
D206*
X355600Y389636D03*
D164*
X360299Y389636D03*
D162*
X372491Y389636D03*
D108*
X424180Y389636D03*
D164*
X342011Y389890D03*
D208*
X346583Y389890D03*
D210*
X351028Y389890D03*
D206*
X355346Y389890D03*
D164*
X360299Y389890D03*
D161*
X372872Y389890D03*
D123*
X424180Y389890D03*
D164*
X342011Y390144D03*
D206*
X346710Y390144D03*
D163*
X350901Y390144D03*
D206*
X355346Y390144D03*
D155*
X360172Y390144D03*
D162*
X373507Y390144D03*
D123*
X424180Y390144D03*
D164*
X342011Y390398D03*
D206*
X346710Y390398D03*
D164*
X350901Y390398D03*
D206*
X355346Y390398D03*
D164*
X360045Y390398D03*
D161*
X374142Y390398D03*
D112*
X423926Y390398D03*
D164*
X342011Y390652D03*
D169*
X346837Y390652D03*
D208*
X350647Y390652D03*
D206*
X355092Y390652D03*
D164*
X360045Y390652D03*
D161*
X374904Y390652D03*
D112*
X423926Y390652D03*
D164*
X342011Y390906D03*
D206*
X346964Y390906D03*
D169*
X354965Y390906D03*
D155*
X359918Y390906D03*
D166*
X375158Y390906D03*
D115*
X423926Y390906D03*
D165*
X342138Y391160D03*
D169*
X347091Y391160D03*
D206*
X354838Y391160D03*
D164*
X359791Y391160D03*
D162*
X375793Y391160D03*
D117*
X423799Y391160D03*
D165*
X342138Y391414D03*
D206*
X347218Y391414D03*
X354584Y391414D03*
D164*
X359791Y391414D03*
D162*
X376555Y391414D03*
D17*
X423672Y391414D03*
D164*
X342265Y391668D03*
D155*
X347472Y391668D03*
D169*
X354457Y391668D03*
D164*
X359537Y391668D03*
D162*
X377063Y391668D03*
D22*
X423545Y391668D03*
D164*
X342265Y391922D03*
D155*
X347726Y391922D03*
X354076Y391922D03*
D164*
X359537Y391922D03*
D162*
X377571Y391922D03*
D124*
X423545Y391922D03*
D165*
X342392Y392176D03*
D155*
X347980Y392176D03*
D164*
X353695Y392176D03*
D155*
X359410Y392176D03*
D162*
X378333Y392176D03*
D124*
X423291Y392176D03*
D165*
X342392Y392430D03*
D164*
X348361Y392430D03*
X353441Y392430D03*
X359283Y392430D03*
D162*
X378841Y392430D03*
D17*
X422656Y392430D03*
D165*
X342646Y392684D03*
D172*
X349123Y392684D03*
X352679Y392684D03*
D155*
X359156Y392684D03*
D166*
X379222Y392684D03*
D114*
X422021Y392684D03*
D163*
X342519Y392938D03*
D12*
X350901Y392938D03*
D164*
X359029Y392938D03*
D162*
X380111Y392938D03*
D108*
X421132Y392938D03*
D163*
X342773Y393192D03*
D160*
X350901Y393192D03*
D165*
X358902Y393192D03*
D166*
X380492Y393192D03*
D24*
X420116Y393192D03*
D163*
X342773Y393446D03*
D159*
X350901Y393446D03*
D164*
X358775Y393446D03*
D161*
X381254Y393446D03*
D203*
X407289Y393446D03*
D116*
X419481Y393446D03*
D163*
X343027Y393700D03*
D172*
X351155Y393700D03*
D164*
X358521Y393700D03*
D162*
X381635Y393700D03*
D113*
X418592Y393700D03*
D209*
X343154Y393954D03*
D164*
X358521Y393954D03*
D162*
X382143Y393954D03*
D110*
X417703Y393954D03*
D209*
X343408Y394208D03*
D164*
X358267Y394208D03*
D162*
X382905Y394208D03*
D207*
X403098Y394208D03*
D125*
X416941Y394208D03*
D209*
X343408Y394462D03*
D165*
X358140Y394462D03*
D166*
X383540Y394462D03*
D204*
X407289Y394462D03*
D15*
X421894Y394462D03*
D172*
X343789Y394716D03*
D165*
X357886Y394716D03*
D166*
X384048Y394716D03*
D204*
X405511Y394716D03*
D18*
X421767Y394716D03*
D172*
X343789Y394970D03*
D165*
X357632Y394970D03*
D162*
X384683Y394970D03*
D215*
X404241Y394970D03*
D207*
X409702Y394970D03*
D18*
X421513Y394970D03*
D210*
X344170Y395224D03*
D163*
X357505Y395224D03*
D162*
X385445Y395224D03*
D204*
X402971Y395224D03*
D15*
X421386Y395224D03*
D157*
X344297Y395478D03*
D209*
X357124Y395478D03*
D166*
X385826Y395478D03*
D207*
X395478Y395478D03*
D204*
X401193Y395478D03*
D15*
X421132Y395478D03*
D157*
X344551Y395732D03*
D163*
X356997Y395732D03*
D162*
X386207Y395732D03*
D204*
X399669Y395732D03*
D207*
X405384Y395732D03*
D15*
X420878Y395732D03*
D159*
X344805Y395986D03*
D209*
X356616Y395986D03*
D159*
X386969Y395986D03*
D218*
X398272Y395986D03*
D203*
X403733Y395986D03*
D151*
X416052Y395986D03*
D219*
X424307Y395986D03*
D211*
X345186Y396240D03*
D172*
X356235Y396240D03*
D166*
X387350Y396240D03*
D189*
X397002Y396240D03*
D151*
X415798Y396240D03*
D11*
X425069Y396240D03*
D162*
X345567Y396494D03*
D210*
X355854Y396494D03*
D159*
X387731Y396494D03*
D207*
X390144Y396494D03*
D218*
X395732Y396494D03*
D207*
X401066Y396494D03*
D154*
X415290Y396494D03*
D153*
X425196Y396494D03*
D161*
X345948Y396748D03*
D157*
X355473Y396748D03*
D185*
X393065Y396748D03*
D154*
X415036Y396748D03*
D156*
X425323Y396748D03*
D158*
X346456Y397002D03*
D207*
X349504Y397002D03*
X352298Y397002D03*
D159*
X354711Y397002D03*
D220*
X392430Y397002D03*
D207*
X398526Y397002D03*
D158*
X414782Y397002D03*
D160*
X425323Y397002D03*
D186*
X350266Y397256D03*
D221*
X392049Y397256D03*
D160*
X414655Y397256D03*
D207*
X420116Y397256D03*
X420624Y397256D03*
D161*
X425450Y397256D03*
D216*
X350393Y397510D03*
D150*
X391668Y397510D03*
D158*
X414528Y397510D03*
D209*
X420116Y397510D03*
D161*
X425704Y397510D03*
D14*
X350139Y397764D03*
D162*
X390779Y397764D03*
D203*
X393573Y397764D03*
D160*
X414401Y397764D03*
D210*
X420116Y397764D03*
D162*
X425831Y397764D03*
D215*
X350139Y398018D03*
D210*
X390398Y398018D03*
D203*
X392557Y398018D03*
D161*
X414274Y398018D03*
D211*
X420116Y398018D03*
D166*
X425958Y398018D03*
D222*
X349885Y398272D03*
D209*
X390398Y398272D03*
D161*
X414274Y398272D03*
D162*
X420243Y398272D03*
D166*
X425958Y398272D03*
D213*
X349758Y398526D03*
D163*
X390525Y398526D03*
D162*
X414147Y398526D03*
D155*
X418846Y398526D03*
D169*
X421767Y398526D03*
D159*
X426085Y398526D03*
D153*
X349504Y398780D03*
D207*
X353060Y398780D03*
D165*
X390652Y398780D03*
D162*
X414147Y398780D03*
D169*
X418465Y398780D03*
X422021Y398780D03*
D159*
X426085Y398780D03*
D160*
X349123Y399034D03*
D207*
X382524Y399034D03*
X383032Y399034D03*
X383540Y399034D03*
X384048Y399034D03*
D165*
X390906Y399034D03*
D162*
X414147Y399034D03*
D206*
X418084Y399034D03*
X422148Y399034D03*
D159*
X426085Y399034D03*
D162*
X349631Y399288D03*
D172*
X383413Y399288D03*
D163*
X391033Y399288D03*
D162*
X414147Y399288D03*
D206*
X418084Y399288D03*
D169*
X422275Y399288D03*
D159*
X426085Y399288D03*
D166*
X350266Y399542D03*
D162*
X383413Y399542D03*
D165*
X391414Y399542D03*
D162*
X413893Y399542D03*
D206*
X418084Y399542D03*
D208*
X422275Y399542D03*
D159*
X426085Y399542D03*
D161*
X350774Y399796D03*
D156*
X383413Y399796D03*
D165*
X391668Y399796D03*
D166*
X414020Y399796D03*
D206*
X418084Y399796D03*
X422402Y399796D03*
D159*
X426085Y399796D03*
D162*
X351155Y400050D03*
D12*
X383413Y400050D03*
D165*
X391668Y400050D03*
D166*
X414020Y400050D03*
D208*
X417957Y400050D03*
D206*
X422402Y400050D03*
D211*
X426212Y400050D03*
D162*
X351917Y400304D03*
D165*
X381000Y400304D03*
D207*
X382524Y400304D03*
D163*
X385445Y400304D03*
D165*
X391922Y400304D03*
D166*
X414020Y400304D03*
D208*
X417957Y400304D03*
D206*
X422402Y400304D03*
D166*
X426212Y400304D03*
D162*
X352425Y400558D03*
D164*
X380619Y400558D03*
D155*
X386080Y400558D03*
D165*
X391922Y400558D03*
D166*
X414020Y400558D03*
D206*
X418084Y400558D03*
D208*
X422275Y400558D03*
D159*
X426085Y400558D03*
D166*
X353060Y400812D03*
D155*
X380238Y400812D03*
X386334Y400812D03*
D164*
X392049Y400812D03*
D162*
X414147Y400812D03*
D206*
X418084Y400812D03*
D208*
X422275Y400812D03*
D159*
X426085Y400812D03*
D166*
X353568Y401066D03*
D155*
X379984Y401066D03*
D169*
X386715Y401066D03*
D164*
X392049Y401066D03*
D162*
X414147Y401066D03*
D169*
X418211Y401066D03*
D206*
X422148Y401066D03*
D159*
X426085Y401066D03*
D162*
X354203Y401320D03*
D169*
X379857Y401320D03*
D155*
X386842Y401320D03*
D164*
X392303Y401320D03*
D162*
X414401Y401320D03*
D169*
X418465Y401320D03*
D206*
X421894Y401320D03*
D159*
X426085Y401320D03*
D162*
X354965Y401574D03*
D169*
X379603Y401574D03*
X387223Y401574D03*
D164*
X392303Y401574D03*
D162*
X414401Y401574D03*
D155*
X418846Y401574D03*
D169*
X421767Y401574D03*
D166*
X425958Y401574D03*
D162*
X355473Y401828D03*
D169*
X379349Y401828D03*
D206*
X387350Y401828D03*
D164*
X392557Y401828D03*
D162*
X414401Y401828D03*
D166*
X420116Y401828D03*
D159*
X425831Y401828D03*
D161*
X355854Y402082D03*
D206*
X379222Y402082D03*
D169*
X387477Y402082D03*
D164*
X392557Y402082D03*
D161*
X414528Y402082D03*
D157*
X420243Y402082D03*
D166*
X425704Y402082D03*
D162*
X356743Y402336D03*
D206*
X379222Y402336D03*
D169*
X383413Y402336D03*
D206*
X387604Y402336D03*
D164*
X392557Y402336D03*
D161*
X414782Y402336D03*
D172*
X420243Y402336D03*
D162*
X425577Y402336D03*
X357251Y402590D03*
D206*
X378968Y402590D03*
D165*
X383286Y402590D03*
D206*
X387604Y402590D03*
D164*
X392557Y402590D03*
D161*
X414782Y402590D03*
D165*
X420116Y402590D03*
D162*
X425577Y402590D03*
D166*
X357632Y402844D03*
D206*
X378968Y402844D03*
D172*
X383413Y402844D03*
D208*
X387731Y402844D03*
D155*
X392684Y402844D03*
D161*
X415036Y402844D03*
X425196Y402844D03*
X358394Y403098D03*
D208*
X378841Y403098D03*
D210*
X383286Y403098D03*
D206*
X387858Y403098D03*
D164*
X392811Y403098D03*
D160*
X415163Y403098D03*
D161*
X424942Y403098D03*
D166*
X358902Y403352D03*
D206*
X378714Y403352D03*
D157*
X383413Y403352D03*
D206*
X387858Y403352D03*
D155*
X392684Y403352D03*
D160*
X415417Y403352D03*
X424815Y403352D03*
D162*
X359537Y403606D03*
D206*
X378714Y403606D03*
D211*
X383286Y403606D03*
D206*
X387858Y403606D03*
D164*
X392811Y403606D03*
D156*
X415671Y403606D03*
D160*
X424561Y403606D03*
D162*
X360045Y403860D03*
D206*
X378714Y403860D03*
D159*
X383413Y403860D03*
D206*
X387858Y403860D03*
D164*
X392811Y403860D03*
D12*
X416179Y403860D03*
X424053Y403860D03*
D162*
X360553Y404114D03*
D206*
X378714Y404114D03*
D211*
X383286Y404114D03*
D206*
X387858Y404114D03*
D164*
X392811Y404114D03*
D202*
X419989Y404114D03*
D162*
X361315Y404368D03*
D206*
X378714Y404368D03*
D159*
X383413Y404368D03*
D206*
X387858Y404368D03*
D164*
X392811Y404368D03*
D185*
X419989Y404368D03*
D166*
X361950Y404622D03*
D206*
X378714Y404622D03*
D211*
X383286Y404622D03*
D206*
X387858Y404622D03*
D164*
X392811Y404622D03*
D185*
X419989Y404622D03*
D162*
X362331Y404876D03*
D206*
X378714Y404876D03*
D211*
X383286Y404876D03*
D206*
X387858Y404876D03*
D164*
X392811Y404876D03*
D13*
X419989Y404876D03*
D161*
X362966Y405130D03*
D208*
X378841Y405130D03*
D211*
X383286Y405130D03*
D206*
X387858Y405130D03*
D164*
X392811Y405130D03*
D187*
X419989Y405130D03*
D166*
X363728Y405384D03*
D206*
X378968Y405384D03*
D210*
X383286Y405384D03*
D206*
X387858Y405384D03*
D164*
X392811Y405384D03*
D216*
X419989Y405384D03*
D166*
X364236Y405638D03*
D206*
X378968Y405638D03*
D209*
X383286Y405638D03*
D206*
X387604Y405638D03*
D155*
X392684Y405638D03*
D14*
X419989Y405638D03*
D162*
X364617Y405892D03*
D206*
X378968Y405892D03*
D164*
X383413Y405892D03*
D206*
X387604Y405892D03*
D155*
X392684Y405892D03*
D204*
X419989Y405892D03*
D162*
X365379Y406146D03*
D206*
X379222Y406146D03*
D203*
X383159Y406146D03*
D207*
X383794Y406146D03*
D169*
X387477Y406146D03*
D164*
X392557Y406146D03*
D218*
X419862Y406146D03*
D162*
X365887Y406400D03*
D169*
X379349Y406400D03*
D206*
X387350Y406400D03*
D164*
X392557Y406400D03*
D219*
X419989Y406400D03*
D162*
X366395Y406654D03*
D206*
X379476Y406654D03*
D169*
X387223Y406654D03*
D164*
X392557Y406654D03*
D217*
X420116Y406654D03*
D162*
X367157Y406908D03*
D169*
X379603Y406908D03*
D206*
X387096Y406908D03*
D164*
X392303Y406908D03*
D213*
X419862Y406908D03*
D162*
X367665Y407162D03*
D169*
X379857Y407162D03*
X386715Y407162D03*
D164*
X392303Y407162D03*
D207*
X414528Y407162D03*
D217*
X419100Y407162D03*
D162*
X368427Y407416D03*
D155*
X379984Y407416D03*
X386588Y407416D03*
D164*
X392303Y407416D03*
D207*
X413512Y407416D03*
D217*
X418084Y407416D03*
D162*
X368935Y407670D03*
D155*
X380492Y407670D03*
X386334Y407670D03*
D164*
X392049Y407670D03*
D207*
X411988Y407670D03*
D223*
X417068Y407670D03*
D162*
X369443Y407924D03*
D165*
X380746Y407924D03*
D164*
X385953Y407924D03*
X392049Y407924D03*
D218*
X415798Y407924D03*
D162*
X370205Y408178D03*
D209*
X381254Y408178D03*
D207*
X383540Y408178D03*
D209*
X385318Y408178D03*
D164*
X392049Y408178D03*
D204*
X414401Y408178D03*
D207*
X420116Y408178D03*
D162*
X370713Y408432D03*
D154*
X383286Y408432D03*
D165*
X391922Y408432D03*
D207*
X407670Y408432D03*
D218*
X413004Y408432D03*
D203*
X418465Y408432D03*
D162*
X370967Y408686D03*
D158*
X383286Y408686D03*
D165*
X391668Y408686D03*
D207*
X405892Y408686D03*
D215*
X411353Y408686D03*
D207*
X416814Y408686D03*
D161*
X371856Y408940D03*
D159*
X383159Y408940D03*
D165*
X391668Y408940D03*
D204*
X410083Y408940D03*
D162*
X372491Y409194D03*
D209*
X383286Y409194D03*
D165*
X391414Y409194D03*
D207*
X403352Y409194D03*
D204*
X409067Y409194D03*
D166*
X372872Y409448D03*
D207*
X383540Y409448D03*
D165*
X391160Y409448D03*
D204*
X407543Y409448D03*
D162*
X373507Y409702D03*
D163*
X391033Y409702D03*
D203*
X400685Y409702D03*
D218*
X406146Y409702D03*
D207*
X411480Y409702D03*
D166*
X374142Y409956D03*
D163*
X390779Y409956D03*
D204*
X404241Y409956D03*
D207*
X409956Y409956D03*
D162*
X374777Y410210D03*
D165*
X390652Y410210D03*
D204*
X403225Y410210D03*
D162*
X375285Y410464D03*
D209*
X390398Y410464D03*
D207*
X395732Y410464D03*
D204*
X401447Y410464D03*
D162*
X376047Y410718D03*
D209*
X390144Y410718D03*
D207*
X394716Y410718D03*
D215*
X400177Y410718D03*
D207*
X405638Y410718D03*
D162*
X376555Y410972D03*
D209*
X389890Y410972D03*
D207*
X393192Y410972D03*
D204*
X398907Y410972D03*
D166*
X377190Y411226D03*
D210*
X389636Y411226D03*
D189*
X397256Y411226D03*
D166*
X377698Y411480D03*
D184*
X394208Y411480D03*
D162*
X378079Y411734D03*
D224*
X393446Y411734D03*
D162*
X379095Y411988D03*
D225*
X392430Y411988D03*
D160*
X379603Y412242D03*
D207*
X385572Y412242D03*
D204*
X391287Y412242D03*
D226*
X386334Y412496D03*
D207*
X395478Y412496D03*
D227*
X386207Y412750D03*
D184*
X385572Y413004D03*
D225*
X385318Y413258D03*
D150*
X383794Y413512D03*
D207*
X387858Y413512D03*
D208*
X389255Y413512D03*
D12*
X383921Y413766D03*
D166*
X383794Y414020D03*
D228*
X57150Y107950D02*
X50800Y101600D01*
X38100Y101600D02*
X31750Y107950D01*
X57150Y146050D02*
X50800Y152400D01*
X57150Y133350D02*
X50800Y127000D01*
X38100Y127000D02*
X31750Y133350D01*
X31750Y146050D01*
X38100Y152400D01*
X50800Y127000D02*
X57150Y120650D01*
X38100Y127000D02*
X31750Y120650D01*
X31750Y107950D01*
X50800Y177800D02*
X57150Y184150D01*
X38100Y177800D02*
X31750Y184150D01*
X50800Y177800D02*
X57150Y171450D01*
X57150Y158750D02*
X50800Y152400D01*
X38100Y152400D02*
X31750Y158750D01*
X31750Y171450D01*
X38100Y177800D01*
X57150Y222250D02*
X50800Y228600D01*
X57150Y209550D02*
X50800Y203200D01*
X38100Y203200D02*
X31750Y209550D01*
X31750Y222250D01*
X38100Y228600D01*
X50800Y203200D02*
X57150Y196850D01*
X38100Y203200D02*
X31750Y196850D01*
X31750Y184150D01*
X57150Y247650D02*
X50800Y254000D01*
X57150Y234950D02*
X50800Y228600D01*
X38100Y228600D02*
X31750Y234950D01*
X31750Y247650D01*
X38100Y254000D01*
X57150Y82550D02*
X50800Y76200D01*
X38100Y76200D02*
X31750Y82550D01*
X50800Y101600D02*
X57150Y95250D01*
X38100Y101600D02*
X31750Y95250D01*
X31750Y82550D01*
X57150Y57150D02*
X50800Y50800D01*
X38100Y50800D02*
X31750Y57150D01*
X50800Y76200D02*
X57150Y69850D01*
X38100Y76200D02*
X31750Y69850D01*
X31750Y57150D01*
X57150Y31750D02*
X50800Y25400D01*
X38100Y25400D01*
X31750Y31750D01*
X50800Y50800D02*
X57150Y44450D01*
X38100Y50800D02*
X31750Y44450D01*
X31750Y31750D01*
D229*
X31750Y254000D02*
X38100Y254000D01*
X31750Y254000D02*
X31750Y279400D01*
X57150Y279400D01*
X57150Y254000D02*
X50800Y254000D01*
D228*
X82550Y120650D02*
X82550Y107950D01*
X76200Y101600D01*
X63500Y101600D02*
X57150Y107950D01*
X82550Y146050D02*
X76200Y152400D01*
X82550Y146050D02*
X82550Y133350D01*
X76200Y127000D01*
X63500Y127000D02*
X57150Y133350D01*
X57150Y146050D01*
X63500Y152400D01*
X76200Y127000D02*
X82550Y120650D01*
X63500Y127000D02*
X57150Y120650D01*
X57150Y107950D01*
X82550Y184150D02*
X82550Y196850D01*
X82550Y184150D02*
X76200Y177800D01*
X63500Y177800D02*
X57150Y184150D01*
X76200Y177800D02*
X82550Y171450D01*
X82550Y158750D01*
X76200Y152400D01*
X63500Y152400D02*
X57150Y158750D01*
X57150Y171450D01*
X63500Y177800D01*
X82550Y222250D02*
X76200Y228600D01*
X82550Y222250D02*
X82550Y209550D01*
X76200Y203200D01*
X63500Y203200D02*
X57150Y209550D01*
X57150Y222250D01*
X63500Y228600D01*
X76200Y203200D02*
X82550Y196850D01*
X63500Y203200D02*
X57150Y196850D01*
X57150Y184150D01*
X82550Y247650D02*
X76200Y254000D01*
X82550Y247650D02*
X82550Y234950D01*
X76200Y228600D01*
X63500Y228600D02*
X57150Y234950D01*
X57150Y247650D01*
X63500Y254000D01*
X82550Y95250D02*
X82550Y82550D01*
X76200Y76200D01*
X63500Y76200D02*
X57150Y82550D01*
X76200Y101600D02*
X82550Y95250D01*
X63500Y101600D02*
X57150Y95250D01*
X57150Y82550D01*
X82550Y69850D02*
X82550Y57150D01*
X76200Y50800D01*
X63500Y50800D02*
X57150Y57150D01*
X76200Y76200D02*
X82550Y69850D01*
X63500Y76200D02*
X57150Y69850D01*
X57150Y57150D01*
X82550Y44450D02*
X82550Y31750D01*
X76200Y25400D01*
X63500Y25400D01*
X57150Y31750D01*
X76200Y50800D02*
X82550Y44450D01*
X63500Y50800D02*
X57150Y44450D01*
X57150Y31750D01*
D229*
X57150Y254000D02*
X63500Y254000D01*
X57150Y254000D02*
X57150Y279400D01*
X82550Y279400D01*
X82550Y254000D01*
X76200Y254000D01*
D228*
X482600Y101600D02*
X488950Y107950D01*
X469900Y101600D02*
X463550Y107950D01*
X488950Y146050D02*
X482600Y152400D01*
X488950Y133350D02*
X482600Y127000D01*
X469900Y127000D02*
X463550Y133350D01*
X463550Y146050D01*
X469900Y152400D01*
X482600Y127000D02*
X488950Y120650D01*
X469900Y127000D02*
X463550Y120650D01*
X463550Y107950D01*
X482600Y177800D02*
X488950Y184150D01*
X469900Y177800D02*
X463550Y184150D01*
X482600Y177800D02*
X488950Y171450D01*
X488950Y158750D02*
X482600Y152400D01*
X469900Y152400D02*
X463550Y158750D01*
X463550Y171450D01*
X469900Y177800D01*
X488950Y222250D02*
X482600Y228600D01*
X488950Y209550D02*
X482600Y203200D01*
X469900Y203200D02*
X463550Y209550D01*
X463550Y222250D01*
X469900Y228600D01*
X482600Y203200D02*
X488950Y196850D01*
X469900Y203200D02*
X463550Y196850D01*
X463550Y184150D01*
X488950Y247650D02*
X482600Y254000D01*
X488950Y234950D02*
X482600Y228600D01*
X469900Y228600D02*
X463550Y234950D01*
X463550Y247650D01*
X469900Y254000D01*
X488950Y82550D02*
X482600Y76200D01*
X469900Y76200D02*
X463550Y82550D01*
X482600Y101600D02*
X488950Y95250D01*
X469900Y101600D02*
X463550Y95250D01*
X463550Y82550D01*
X488950Y57150D02*
X482600Y50800D01*
X469900Y50800D02*
X463550Y57150D01*
X482600Y76200D02*
X488950Y69850D01*
X469900Y76200D02*
X463550Y69850D01*
X463550Y57150D01*
X488950Y31750D02*
X482600Y25400D01*
X469900Y25400D01*
X463550Y31750D01*
X482600Y50800D02*
X488950Y44450D01*
X469900Y50800D02*
X463550Y44450D01*
X463550Y31750D01*
D229*
X463550Y254000D02*
X469900Y254000D01*
X463550Y254000D02*
X463550Y279400D01*
X488950Y279400D01*
X488950Y254000D02*
X482600Y254000D01*
D228*
X514350Y120650D02*
X514350Y107950D01*
X508000Y101600D01*
X495300Y101600D02*
X488950Y107950D01*
X514350Y146050D02*
X508000Y152400D01*
X514350Y146050D02*
X514350Y133350D01*
X508000Y127000D01*
X495300Y127000D02*
X488950Y133350D01*
X488950Y146050D01*
X495300Y152400D01*
X508000Y127000D02*
X514350Y120650D01*
X495300Y127000D02*
X488950Y120650D01*
X488950Y107950D01*
X514350Y184150D02*
X514350Y196850D01*
X514350Y184150D02*
X508000Y177800D01*
X495300Y177800D02*
X488950Y184150D01*
X508000Y177800D02*
X514350Y171450D01*
X514350Y158750D01*
X508000Y152400D01*
X495300Y152400D02*
X488950Y158750D01*
X488950Y171450D01*
X495300Y177800D01*
X514350Y222250D02*
X508000Y228600D01*
X514350Y222250D02*
X514350Y209550D01*
X508000Y203200D01*
X495300Y203200D02*
X488950Y209550D01*
X488950Y222250D01*
X495300Y228600D01*
X508000Y203200D02*
X514350Y196850D01*
X495300Y203200D02*
X488950Y196850D01*
X488950Y184150D01*
X514350Y247650D02*
X508000Y254000D01*
X514350Y247650D02*
X514350Y234950D01*
X508000Y228600D01*
X495300Y228600D02*
X488950Y234950D01*
X488950Y247650D01*
X495300Y254000D01*
X514350Y95250D02*
X514350Y82550D01*
X508000Y76200D01*
X495300Y76200D02*
X488950Y82550D01*
X508000Y101600D02*
X514350Y95250D01*
X495300Y101600D02*
X488950Y95250D01*
X488950Y82550D01*
X514350Y69850D02*
X514350Y57150D01*
X508000Y50800D01*
X495300Y50800D02*
X488950Y57150D01*
X508000Y76200D02*
X514350Y69850D01*
X495300Y76200D02*
X488950Y69850D01*
X488950Y57150D01*
X514350Y44450D02*
X514350Y31750D01*
X508000Y25400D01*
X495300Y25400D01*
X488950Y31750D01*
X508000Y50800D02*
X514350Y44450D01*
X495300Y50800D02*
X488950Y44450D01*
X488950Y31750D01*
D229*
X488950Y254000D02*
X495300Y254000D01*
X488950Y254000D02*
X488950Y279400D01*
X514350Y279400D01*
X514350Y254000D01*
X508000Y254000D01*
D228*
X125400Y429200D02*
X125400Y482600D01*
X433400Y482600D02*
X433400Y429200D01*
X125400Y429200D01*
D10*
X260985Y513715D02*
X260985Y518545D01*
X260985Y513715D02*
X263400Y513715D01*
X264205Y514520D01*
X264205Y517740D01*
X263400Y518545D01*
X260985Y518545D01*
X266598Y518545D02*
X266598Y513715D01*
X266598Y518545D02*
X269013Y518545D01*
X269818Y517740D01*
X269818Y516935D01*
X269013Y516130D01*
X269818Y515325D01*
X269818Y514520D01*
X269013Y513715D01*
X266598Y513715D01*
X266598Y516130D02*
X269013Y516130D01*
X272211Y514520D02*
X273016Y513715D01*
X274626Y513715D01*
X275431Y514520D01*
X275431Y517740D01*
X274626Y518545D01*
X273016Y518545D01*
X272211Y517740D01*
X272211Y516935D01*
X273016Y516130D01*
X275431Y516130D01*
D230*
X267208Y280162D02*
X240792Y280162D01*
X257048Y329438D02*
X267208Y329438D01*
X257048Y329438D02*
X250952Y329438D01*
X240792Y329438D01*
X250952Y329438D02*
X250954Y329329D01*
X250960Y329221D01*
X250969Y329112D01*
X250983Y329004D01*
X251000Y328897D01*
X251022Y328790D01*
X251047Y328684D01*
X251075Y328579D01*
X251108Y328475D01*
X251144Y328373D01*
X251184Y328272D01*
X251227Y328172D01*
X251274Y328074D01*
X251325Y327977D01*
X251379Y327883D01*
X251436Y327790D01*
X251496Y327700D01*
X251560Y327611D01*
X251627Y327525D01*
X251696Y327442D01*
X251769Y327361D01*
X251845Y327283D01*
X251923Y327207D01*
X252004Y327134D01*
X252087Y327065D01*
X252173Y326998D01*
X252262Y326934D01*
X252352Y326874D01*
X252445Y326817D01*
X252539Y326763D01*
X252636Y326712D01*
X252734Y326665D01*
X252834Y326622D01*
X252935Y326582D01*
X253037Y326546D01*
X253141Y326513D01*
X253246Y326485D01*
X253352Y326460D01*
X253459Y326438D01*
X253566Y326421D01*
X253674Y326407D01*
X253783Y326398D01*
X253891Y326392D01*
X254000Y326390D01*
X254109Y326392D01*
X254217Y326398D01*
X254326Y326407D01*
X254434Y326421D01*
X254541Y326438D01*
X254648Y326460D01*
X254754Y326485D01*
X254859Y326513D01*
X254963Y326546D01*
X255065Y326582D01*
X255166Y326622D01*
X255266Y326665D01*
X255364Y326712D01*
X255461Y326763D01*
X255555Y326817D01*
X255648Y326874D01*
X255738Y326934D01*
X255827Y326998D01*
X255913Y327065D01*
X255996Y327134D01*
X256077Y327207D01*
X256155Y327283D01*
X256231Y327361D01*
X256304Y327442D01*
X256373Y327525D01*
X256440Y327611D01*
X256504Y327700D01*
X256564Y327790D01*
X256621Y327883D01*
X256675Y327977D01*
X256726Y328074D01*
X256773Y328172D01*
X256816Y328272D01*
X256856Y328373D01*
X256892Y328475D01*
X256925Y328579D01*
X256953Y328684D01*
X256978Y328790D01*
X257000Y328897D01*
X257017Y329004D01*
X257031Y329112D01*
X257040Y329221D01*
X257046Y329329D01*
X257048Y329438D01*
D231*
X229326Y330540D02*
X221361Y338506D01*
X229326Y338506D02*
X221361Y330540D01*
X221361Y334523D02*
X229326Y334523D01*
X225344Y330540D02*
X225344Y338506D01*
D10*
X164218Y343543D02*
X162311Y345450D01*
X158498Y345450D01*
X156591Y343543D01*
X156591Y335917D01*
X158498Y334010D01*
X162311Y334010D01*
X164218Y335917D01*
X168285Y334010D02*
X168285Y341637D01*
X172098Y345450D01*
X175911Y341637D01*
X175911Y334010D01*
X175911Y339730D02*
X168285Y339730D01*
X179979Y334010D02*
X179979Y345450D01*
X187605Y334010D01*
X187605Y345450D01*
X191673Y332103D02*
X199299Y332103D01*
X207180Y334010D02*
X207180Y345450D01*
X203367Y345450D02*
X210993Y345450D01*
X215061Y345450D02*
X215061Y334010D01*
X215061Y345450D02*
X220781Y345450D01*
X222687Y343543D01*
X222687Y339730D01*
X220781Y337823D01*
X215061Y337823D01*
X218874Y337823D02*
X222687Y334010D01*
X226755Y334010D02*
X226755Y341637D01*
X230568Y345450D01*
X234381Y341637D01*
X234381Y334010D01*
X234381Y339730D02*
X226755Y339730D01*
X238449Y334010D02*
X238449Y345450D01*
X246075Y334010D01*
X246075Y345450D01*
X255863Y345450D02*
X257769Y343543D01*
X255863Y345450D02*
X252049Y345450D01*
X250143Y343543D01*
X250143Y341637D01*
X252049Y339730D01*
X255863Y339730D01*
X257769Y337823D01*
X257769Y335917D01*
X255863Y334010D01*
X252049Y334010D01*
X250143Y335917D01*
X267557Y345450D02*
X269463Y343543D01*
X267557Y345450D02*
X263743Y345450D01*
X261837Y343543D01*
X261837Y335917D01*
X263743Y334010D01*
X267557Y334010D01*
X269463Y335917D01*
X273531Y334010D02*
X277344Y334010D01*
X275437Y334010D02*
X275437Y345450D01*
X273531Y345450D02*
X277344Y345450D01*
X281327Y345450D02*
X288953Y345450D01*
X281327Y345450D02*
X281327Y334010D01*
X288953Y334010D01*
X285140Y339730D02*
X281327Y339730D01*
X293021Y337823D02*
X293021Y345450D01*
X293021Y337823D02*
X296834Y334010D01*
X300647Y337823D01*
X300647Y345450D01*
X304715Y345450D02*
X312341Y345450D01*
X304715Y345450D02*
X304715Y334010D01*
X312341Y334010D01*
X308528Y339730D02*
X304715Y339730D01*
X316409Y334010D02*
X316409Y345450D01*
X322128Y345450D01*
X324035Y343543D01*
X324035Y339730D01*
X322128Y337823D01*
X316409Y337823D01*
X320222Y337823D02*
X324035Y334010D01*
D230*
X285750Y372110D02*
X285748Y372010D01*
X285742Y371911D01*
X285732Y371811D01*
X285719Y371713D01*
X285701Y371614D01*
X285680Y371517D01*
X285655Y371421D01*
X285626Y371325D01*
X285593Y371231D01*
X285557Y371138D01*
X285517Y371047D01*
X285473Y370957D01*
X285426Y370869D01*
X285376Y370783D01*
X285322Y370699D01*
X285265Y370617D01*
X285205Y370538D01*
X285141Y370460D01*
X285075Y370386D01*
X285006Y370314D01*
X284934Y370245D01*
X284860Y370179D01*
X284782Y370115D01*
X284703Y370055D01*
X284621Y369998D01*
X284537Y369944D01*
X284451Y369894D01*
X284363Y369847D01*
X284273Y369803D01*
X284182Y369763D01*
X284089Y369727D01*
X283995Y369694D01*
X283899Y369665D01*
X283803Y369640D01*
X283706Y369619D01*
X283607Y369601D01*
X283509Y369588D01*
X283409Y369578D01*
X283310Y369572D01*
X283210Y369570D01*
X285750Y389890D02*
X285748Y389990D01*
X285742Y390089D01*
X285732Y390189D01*
X285719Y390287D01*
X285701Y390386D01*
X285680Y390483D01*
X285655Y390579D01*
X285626Y390675D01*
X285593Y390769D01*
X285557Y390862D01*
X285517Y390953D01*
X285473Y391043D01*
X285426Y391131D01*
X285376Y391217D01*
X285322Y391301D01*
X285265Y391383D01*
X285205Y391462D01*
X285141Y391540D01*
X285075Y391614D01*
X285006Y391686D01*
X284934Y391755D01*
X284860Y391821D01*
X284782Y391885D01*
X284703Y391945D01*
X284621Y392002D01*
X284537Y392056D01*
X284451Y392106D01*
X284363Y392153D01*
X284273Y392197D01*
X284182Y392237D01*
X284089Y392273D01*
X283995Y392306D01*
X283899Y392335D01*
X283803Y392360D01*
X283706Y392381D01*
X283607Y392399D01*
X283509Y392412D01*
X283409Y392422D01*
X283310Y392428D01*
X283210Y392430D01*
X224790Y392430D02*
X224690Y392428D01*
X224591Y392422D01*
X224491Y392412D01*
X224393Y392399D01*
X224294Y392381D01*
X224197Y392360D01*
X224101Y392335D01*
X224005Y392306D01*
X223911Y392273D01*
X223818Y392237D01*
X223727Y392197D01*
X223637Y392153D01*
X223549Y392106D01*
X223463Y392056D01*
X223379Y392002D01*
X223297Y391945D01*
X223218Y391885D01*
X223140Y391821D01*
X223066Y391755D01*
X222994Y391686D01*
X222925Y391614D01*
X222859Y391540D01*
X222795Y391462D01*
X222735Y391383D01*
X222678Y391301D01*
X222624Y391217D01*
X222574Y391131D01*
X222527Y391043D01*
X222483Y390953D01*
X222443Y390862D01*
X222407Y390769D01*
X222374Y390675D01*
X222345Y390579D01*
X222320Y390483D01*
X222299Y390386D01*
X222281Y390287D01*
X222268Y390189D01*
X222258Y390089D01*
X222252Y389990D01*
X222250Y389890D01*
X222250Y372110D02*
X222252Y372010D01*
X222258Y371911D01*
X222268Y371811D01*
X222281Y371713D01*
X222299Y371614D01*
X222320Y371517D01*
X222345Y371421D01*
X222374Y371325D01*
X222407Y371231D01*
X222443Y371138D01*
X222483Y371047D01*
X222527Y370957D01*
X222574Y370869D01*
X222624Y370783D01*
X222678Y370699D01*
X222735Y370617D01*
X222795Y370538D01*
X222859Y370460D01*
X222925Y370386D01*
X222994Y370314D01*
X223066Y370245D01*
X223140Y370179D01*
X223218Y370115D01*
X223297Y370055D01*
X223379Y369998D01*
X223463Y369944D01*
X223549Y369894D01*
X223637Y369847D01*
X223727Y369803D01*
X223818Y369763D01*
X223911Y369727D01*
X224005Y369694D01*
X224101Y369665D01*
X224197Y369640D01*
X224294Y369619D01*
X224393Y369601D01*
X224491Y369588D01*
X224591Y369578D01*
X224690Y369572D01*
X224790Y369570D01*
X285750Y372110D02*
X285750Y389890D01*
X283210Y369570D02*
X279400Y369570D01*
X278130Y370840D01*
X279400Y392430D02*
X283210Y392430D01*
X279400Y392430D02*
X278130Y391160D01*
X229870Y370840D02*
X228600Y369570D01*
X229870Y370840D02*
X278130Y370840D01*
X229870Y391160D02*
X228600Y392430D01*
X229870Y391160D02*
X278130Y391160D01*
X228600Y369570D02*
X224790Y369570D01*
X224790Y392430D02*
X228600Y392430D01*
X222250Y389890D02*
X222250Y372110D01*
D232*
X217932Y381000D03*
X290068Y381000D03*
D10*
X198227Y391795D02*
X198227Y403235D01*
X203947Y403235D01*
X205854Y401328D01*
X205854Y397515D01*
X203947Y395608D01*
X198227Y395608D01*
X202040Y395608D02*
X205854Y391795D01*
X209921Y399422D02*
X213734Y403235D01*
X213734Y391795D01*
X209921Y391795D02*
X217548Y391795D01*
D233*
X185327Y304214D02*
X183378Y302265D01*
X183378Y298367D01*
X185327Y296418D01*
X193123Y296418D01*
X195072Y298367D01*
X195072Y302265D01*
X193123Y304214D01*
X185327Y308112D02*
X183378Y310061D01*
X183378Y313959D01*
X185327Y315908D01*
X187276Y315908D01*
X189225Y313959D01*
X189225Y312010D01*
X189225Y313959D02*
X191174Y315908D01*
X193123Y315908D01*
X195072Y313959D01*
X195072Y310061D01*
X193123Y308112D01*
X83727Y253414D02*
X81778Y251465D01*
X81778Y247567D01*
X83727Y245618D01*
X91523Y245618D01*
X93472Y247567D01*
X93472Y251465D01*
X91523Y253414D01*
X93472Y263159D02*
X81778Y263159D01*
X87625Y257312D01*
X87625Y265108D01*
D234*
X145814Y105286D02*
X145814Y101473D01*
X147720Y101473D01*
X148356Y102109D01*
X148356Y104651D01*
X147720Y105286D01*
X145814Y105286D01*
X149556Y104015D02*
X149556Y101473D01*
X149556Y104015D02*
X150827Y105286D01*
X152098Y104015D01*
X152098Y101473D01*
X152098Y103380D02*
X149556Y103380D01*
X155204Y105286D02*
X155840Y104651D01*
X155204Y105286D02*
X153933Y105286D01*
X153298Y104651D01*
X153298Y102109D01*
X153933Y101473D01*
X155204Y101473D01*
X155840Y102109D01*
X157040Y104015D02*
X158311Y105286D01*
X158311Y101473D01*
X157040Y101473D02*
X159582Y101473D01*
D228*
X165100Y122706D02*
X165100Y131294D01*
X139700Y131294D02*
X139700Y122706D01*
D235*
X136398Y116840D03*
D234*
X196614Y105286D02*
X196614Y101473D01*
X198520Y101473D01*
X199156Y102109D01*
X199156Y104651D01*
X198520Y105286D01*
X196614Y105286D01*
X200356Y104015D02*
X200356Y101473D01*
X200356Y104015D02*
X201627Y105286D01*
X202898Y104015D01*
X202898Y101473D01*
X202898Y103380D02*
X200356Y103380D01*
X206004Y105286D02*
X206640Y104651D01*
X206004Y105286D02*
X204733Y105286D01*
X204098Y104651D01*
X204098Y102109D01*
X204733Y101473D01*
X206004Y101473D01*
X206640Y102109D01*
X207840Y101473D02*
X210382Y101473D01*
X207840Y101473D02*
X210382Y104015D01*
X210382Y104651D01*
X209747Y105286D01*
X208475Y105286D01*
X207840Y104651D01*
D228*
X215900Y122706D02*
X215900Y131294D01*
X190500Y131294D02*
X190500Y122706D01*
D235*
X187198Y116840D03*
D234*
X432940Y232537D02*
X436753Y232537D01*
X432940Y232537D02*
X432940Y234444D01*
X433575Y235079D01*
X434846Y235079D01*
X435482Y234444D01*
X435482Y232537D01*
X435482Y233808D02*
X436753Y235079D01*
X436753Y236279D02*
X436753Y238821D01*
X436753Y236279D02*
X434211Y238821D01*
X433575Y238821D01*
X432940Y238186D01*
X432940Y236915D01*
X433575Y236279D01*
D236*
X444500Y241300D03*
D234*
X411353Y219837D02*
X407540Y219837D01*
X407540Y221744D01*
X408175Y222379D01*
X409446Y222379D01*
X410082Y221744D01*
X410082Y219837D01*
X410082Y221108D02*
X411353Y222379D01*
X408175Y223579D02*
X407540Y224215D01*
X407540Y225486D01*
X408175Y226121D01*
X408811Y226121D01*
X409446Y225486D01*
X409446Y224850D01*
X409446Y225486D02*
X410082Y226121D01*
X410717Y226121D01*
X411353Y225486D01*
X411353Y224215D01*
X410717Y223579D01*
D236*
X419100Y228600D03*
D234*
X182753Y156337D02*
X178940Y156337D01*
X178940Y158244D01*
X179575Y158879D01*
X180846Y158879D01*
X181482Y158244D01*
X181482Y156337D01*
X181482Y157608D02*
X182753Y158879D01*
X182753Y161986D02*
X178940Y161986D01*
X180846Y160079D01*
X180846Y162621D01*
D236*
X190500Y165100D03*
D234*
X119253Y156337D02*
X115440Y156337D01*
X115440Y158244D01*
X116075Y158879D01*
X117346Y158879D01*
X117982Y158244D01*
X117982Y156337D01*
X117982Y157608D02*
X119253Y158879D01*
X115440Y160079D02*
X115440Y162621D01*
X115440Y160079D02*
X117346Y160079D01*
X116711Y161350D01*
X116711Y161986D01*
X117346Y162621D01*
X118617Y162621D01*
X119253Y161986D01*
X119253Y160715D01*
X118617Y160079D01*
D236*
X127000Y165100D03*
D233*
X213365Y108722D02*
X215314Y106773D01*
X213365Y108722D02*
X209467Y108722D01*
X207518Y106773D01*
X207518Y98977D01*
X209467Y97028D01*
X213365Y97028D01*
X215314Y98977D01*
X219212Y108722D02*
X227008Y108722D01*
X219212Y108722D02*
X219212Y102875D01*
X223110Y104824D01*
X225059Y104824D01*
X227008Y102875D01*
X227008Y98977D01*
X225059Y97028D01*
X221161Y97028D01*
X219212Y98977D01*
X164514Y106773D02*
X162565Y108722D01*
X158667Y108722D01*
X156718Y106773D01*
X156718Y98977D01*
X158667Y97028D01*
X162565Y97028D01*
X164514Y98977D01*
X172310Y106773D02*
X176208Y108722D01*
X172310Y106773D02*
X168412Y102875D01*
X168412Y98977D01*
X170361Y97028D01*
X174259Y97028D01*
X176208Y98977D01*
X176208Y100926D01*
X174259Y102875D01*
X168412Y102875D01*
D228*
X370586Y244856D02*
X378460Y244856D01*
X378206Y275844D02*
X371094Y275844D01*
D231*
X342265Y266329D02*
X342265Y256372D01*
X344256Y254381D01*
X348239Y254381D01*
X350230Y256372D01*
X350230Y266329D01*
X353959Y262346D02*
X357942Y266329D01*
X357942Y254381D01*
X361924Y254381D02*
X353959Y254381D01*
D228*
X370586Y200406D02*
X378460Y200406D01*
X378206Y231394D02*
X371094Y231394D01*
D231*
X342265Y221879D02*
X342265Y211922D01*
X344256Y209931D01*
X348239Y209931D01*
X350230Y211922D01*
X350230Y221879D01*
X353959Y209931D02*
X361924Y209931D01*
X353959Y209931D02*
X361924Y217896D01*
X361924Y219888D01*
X359933Y221879D01*
X355950Y221879D01*
X353959Y219888D01*
D10*
X274320Y158750D02*
X245110Y160020D01*
X242570Y162560D01*
X242570Y256540D01*
X245110Y259080D01*
X274320Y260350D01*
X246126Y254508D02*
X246128Y254608D01*
X246134Y254709D01*
X246144Y254808D01*
X246158Y254908D01*
X246175Y255007D01*
X246197Y255105D01*
X246223Y255202D01*
X246252Y255298D01*
X246285Y255392D01*
X246322Y255486D01*
X246362Y255578D01*
X246406Y255668D01*
X246454Y255756D01*
X246505Y255843D01*
X246559Y255927D01*
X246617Y256009D01*
X246678Y256089D01*
X246742Y256166D01*
X246809Y256241D01*
X246879Y256313D01*
X246952Y256382D01*
X247027Y256448D01*
X247105Y256512D01*
X247185Y256572D01*
X247268Y256629D01*
X247353Y256682D01*
X247440Y256732D01*
X247529Y256779D01*
X247619Y256822D01*
X247711Y256862D01*
X247805Y256898D01*
X247900Y256930D01*
X247996Y256958D01*
X248094Y256983D01*
X248192Y257003D01*
X248291Y257020D01*
X248391Y257033D01*
X248490Y257042D01*
X248591Y257047D01*
X248691Y257048D01*
X248791Y257045D01*
X248892Y257038D01*
X248991Y257027D01*
X249091Y257012D01*
X249189Y256994D01*
X249287Y256971D01*
X249384Y256944D01*
X249479Y256914D01*
X249574Y256880D01*
X249667Y256842D01*
X249758Y256801D01*
X249848Y256756D01*
X249936Y256708D01*
X250022Y256656D01*
X250106Y256601D01*
X250187Y256542D01*
X250266Y256480D01*
X250343Y256416D01*
X250417Y256348D01*
X250488Y256277D01*
X250557Y256204D01*
X250622Y256128D01*
X250685Y256049D01*
X250744Y255968D01*
X250800Y255885D01*
X250853Y255800D01*
X250902Y255712D01*
X250948Y255623D01*
X250990Y255532D01*
X251029Y255439D01*
X251064Y255345D01*
X251095Y255250D01*
X251123Y255153D01*
X251146Y255056D01*
X251166Y254957D01*
X251182Y254858D01*
X251194Y254759D01*
X251202Y254658D01*
X251206Y254558D01*
X251206Y254458D01*
X251202Y254358D01*
X251194Y254257D01*
X251182Y254158D01*
X251166Y254059D01*
X251146Y253960D01*
X251123Y253863D01*
X251095Y253766D01*
X251064Y253671D01*
X251029Y253577D01*
X250990Y253484D01*
X250948Y253393D01*
X250902Y253304D01*
X250853Y253216D01*
X250800Y253131D01*
X250744Y253048D01*
X250685Y252967D01*
X250622Y252888D01*
X250557Y252812D01*
X250488Y252739D01*
X250417Y252668D01*
X250343Y252600D01*
X250266Y252536D01*
X250187Y252474D01*
X250106Y252415D01*
X250022Y252360D01*
X249936Y252308D01*
X249848Y252260D01*
X249758Y252215D01*
X249667Y252174D01*
X249574Y252136D01*
X249479Y252102D01*
X249384Y252072D01*
X249287Y252045D01*
X249189Y252022D01*
X249091Y252004D01*
X248991Y251989D01*
X248892Y251978D01*
X248791Y251971D01*
X248691Y251968D01*
X248591Y251969D01*
X248490Y251974D01*
X248391Y251983D01*
X248291Y251996D01*
X248192Y252013D01*
X248094Y252033D01*
X247996Y252058D01*
X247900Y252086D01*
X247805Y252118D01*
X247711Y252154D01*
X247619Y252194D01*
X247529Y252237D01*
X247440Y252284D01*
X247353Y252334D01*
X247268Y252387D01*
X247185Y252444D01*
X247105Y252504D01*
X247027Y252568D01*
X246952Y252634D01*
X246879Y252703D01*
X246809Y252775D01*
X246742Y252850D01*
X246678Y252927D01*
X246617Y253007D01*
X246559Y253089D01*
X246505Y253173D01*
X246454Y253260D01*
X246406Y253348D01*
X246362Y253438D01*
X246322Y253530D01*
X246285Y253624D01*
X246252Y253718D01*
X246223Y253814D01*
X246197Y253911D01*
X246175Y254009D01*
X246158Y254108D01*
X246144Y254208D01*
X246134Y254307D01*
X246128Y254408D01*
X246126Y254508D01*
X237363Y233614D02*
X237363Y229801D01*
X237363Y231708D02*
X225923Y231708D01*
X225923Y233614D02*
X225923Y229801D01*
X225923Y243317D02*
X227830Y245224D01*
X225923Y243317D02*
X225923Y239504D01*
X227830Y237597D01*
X235456Y237597D01*
X237363Y239504D01*
X237363Y243317D01*
X235456Y245224D01*
X229737Y249291D02*
X225923Y253104D01*
X237363Y253104D01*
X237363Y249291D02*
X237363Y256917D01*
D237*
X281940Y209550D03*
D238*
X275590Y253365D03*
D239*
X275590Y222250D03*
X275590Y196850D03*
D238*
X275590Y165735D03*
D233*
X424160Y136662D02*
X424160Y124968D01*
X424160Y136662D02*
X430007Y136662D01*
X431956Y134713D01*
X431956Y130815D01*
X430007Y128866D01*
X424160Y128866D01*
X428058Y128866D02*
X431956Y124968D01*
X439752Y134713D02*
X443650Y136662D01*
X439752Y134713D02*
X435854Y130815D01*
X435854Y126917D01*
X437803Y124968D01*
X441701Y124968D01*
X443650Y126917D01*
X443650Y128866D01*
X441701Y130815D01*
X435854Y130815D01*
X424160Y144018D02*
X424160Y155712D01*
X430007Y155712D01*
X431956Y153763D01*
X431956Y149865D01*
X430007Y147916D01*
X424160Y147916D01*
X428058Y147916D02*
X431956Y144018D01*
X435854Y155712D02*
X443650Y155712D01*
X443650Y153763D01*
X435854Y145967D01*
X435854Y144018D01*
X424160Y169418D02*
X424160Y181112D01*
X430007Y181112D01*
X431956Y179163D01*
X431956Y175265D01*
X430007Y173316D01*
X424160Y173316D01*
X428058Y173316D02*
X431956Y169418D01*
X435854Y179163D02*
X437803Y181112D01*
X441701Y181112D01*
X443650Y179163D01*
X443650Y177214D01*
X441701Y175265D01*
X443650Y173316D01*
X443650Y171367D01*
X441701Y169418D01*
X437803Y169418D01*
X435854Y171367D01*
X435854Y173316D01*
X437803Y175265D01*
X435854Y177214D01*
X435854Y179163D01*
X437803Y175265D02*
X441701Y175265D01*
X392410Y169418D02*
X392410Y181112D01*
X398257Y181112D01*
X400206Y179163D01*
X400206Y175265D01*
X398257Y173316D01*
X392410Y173316D01*
X396308Y173316D02*
X400206Y169418D01*
X404104Y171367D02*
X406053Y169418D01*
X409951Y169418D01*
X411900Y171367D01*
X411900Y179163D01*
X409951Y181112D01*
X406053Y181112D01*
X404104Y179163D01*
X404104Y177214D01*
X406053Y175265D01*
X411900Y175265D01*
X380716Y155712D02*
X380716Y144018D01*
X380716Y155712D02*
X386563Y155712D01*
X388512Y153763D01*
X388512Y149865D01*
X386563Y147916D01*
X380716Y147916D01*
X384614Y147916D02*
X388512Y144018D01*
X392410Y151814D02*
X396308Y155712D01*
X396308Y144018D01*
X392410Y144018D02*
X400206Y144018D01*
X404104Y145967D02*
X404104Y153763D01*
X406053Y155712D01*
X409951Y155712D01*
X411900Y153763D01*
X411900Y145967D01*
X409951Y144018D01*
X406053Y144018D01*
X404104Y145967D01*
X411900Y153763D01*
X380716Y136662D02*
X380716Y124968D01*
X380716Y136662D02*
X386563Y136662D01*
X388512Y134713D01*
X388512Y130815D01*
X386563Y128866D01*
X380716Y128866D01*
X384614Y128866D02*
X388512Y124968D01*
X392410Y132764D02*
X396308Y136662D01*
X396308Y124968D01*
X392410Y124968D02*
X400206Y124968D01*
X404104Y132764D02*
X408002Y136662D01*
X408002Y124968D01*
X404104Y124968D02*
X411900Y124968D01*
D230*
X369316Y112014D02*
X369316Y154686D01*
X316484Y154686D02*
X316484Y112014D01*
D231*
X317160Y108676D02*
X309194Y100711D01*
X309194Y108676D02*
X317160Y100711D01*
X313177Y100711D02*
X313177Y108676D01*
X317160Y104694D02*
X309194Y104694D01*
X336921Y100965D02*
X346878Y100965D01*
X348869Y102956D01*
X348869Y106939D01*
X346878Y108930D01*
X336921Y108930D01*
X338912Y112659D02*
X336921Y114650D01*
X336921Y118633D01*
X338912Y120624D01*
X340904Y120624D01*
X342895Y118633D01*
X342895Y116642D01*
X342895Y118633D02*
X344886Y120624D01*
X346878Y120624D01*
X348869Y118633D01*
X348869Y114650D01*
X346878Y112659D01*
D230*
X397764Y81534D02*
X440436Y81534D01*
X440436Y134366D02*
X397764Y134366D01*
D231*
X394426Y133690D02*
X386461Y141656D01*
X394426Y141656D02*
X386461Y133690D01*
X386461Y137673D02*
X394426Y137673D01*
X390444Y133690D02*
X390444Y141656D01*
X386715Y113929D02*
X386715Y103972D01*
X388706Y101981D01*
X392689Y101981D01*
X394680Y103972D01*
X394680Y113929D01*
X404383Y113929D02*
X404383Y101981D01*
X398409Y107955D02*
X404383Y113929D01*
X406374Y107955D02*
X398409Y107955D01*
X228841Y238891D02*
X227273Y237324D01*
X227273Y234188D01*
X228841Y232621D01*
X235111Y232621D01*
X236679Y234188D01*
X236679Y237324D01*
X235111Y238891D01*
X230408Y241976D02*
X227273Y245111D01*
X236679Y245111D01*
X236679Y241976D02*
X236679Y248247D01*
X196681Y174802D02*
X195113Y173234D01*
X195113Y170099D01*
X196681Y168531D01*
X202951Y168531D01*
X204519Y170099D01*
X204519Y173234D01*
X202951Y174802D01*
X204519Y177886D02*
X204519Y184157D01*
X204519Y177886D02*
X198248Y184157D01*
X196681Y184157D01*
X195113Y182589D01*
X195113Y179454D01*
X196681Y177886D01*
D233*
X436118Y52842D02*
X436118Y41148D01*
X436118Y52842D02*
X441965Y52842D01*
X443914Y50893D01*
X443914Y46995D01*
X441965Y45046D01*
X436118Y45046D01*
X440016Y45046D02*
X443914Y41148D01*
X447812Y48944D02*
X451710Y52842D01*
X451710Y41148D01*
X447812Y41148D02*
X455608Y41148D01*
X459506Y41148D02*
X467302Y41148D01*
X459506Y41148D02*
X467302Y48944D01*
X467302Y50893D01*
X465353Y52842D01*
X461455Y52842D01*
X459506Y50893D01*
X404368Y52842D02*
X404368Y41148D01*
X404368Y52842D02*
X410215Y52842D01*
X412164Y50893D01*
X412164Y46995D01*
X410215Y45046D01*
X404368Y45046D01*
X408266Y45046D02*
X412164Y41148D01*
X416062Y48944D02*
X419960Y52842D01*
X419960Y41148D01*
X416062Y41148D02*
X423858Y41148D01*
X427756Y50893D02*
X429705Y52842D01*
X433603Y52842D01*
X435552Y50893D01*
X435552Y48944D01*
X433603Y46995D01*
X431654Y46995D01*
X433603Y46995D02*
X435552Y45046D01*
X435552Y43097D01*
X433603Y41148D01*
X429705Y41148D01*
X427756Y43097D01*
D240*
X215900Y8890D02*
X165100Y8890D01*
X147320Y43180D02*
X147320Y57150D01*
X223520Y57150D02*
X233680Y57150D01*
X233680Y43180D01*
X157480Y57150D02*
X147320Y57150D01*
D234*
X179198Y63627D02*
X179198Y67440D01*
X177927Y67440D02*
X180469Y67440D01*
X181669Y67440D02*
X181669Y63627D01*
X181669Y65534D02*
X184211Y65534D01*
X184211Y67440D02*
X184211Y63627D01*
X185411Y63627D02*
X185411Y67440D01*
X187318Y67440D01*
X187953Y66805D01*
X187953Y65534D01*
X187318Y64898D01*
X185411Y64898D01*
X186682Y64898D02*
X187953Y63627D01*
X189789Y67440D02*
X191060Y67440D01*
X189789Y67440D02*
X189153Y66805D01*
X189153Y64263D01*
X189789Y63627D01*
X191060Y63627D01*
X191695Y64263D01*
X191695Y66805D01*
X191060Y67440D01*
X194166Y67440D02*
X194166Y63627D01*
X192895Y67440D02*
X195437Y67440D01*
X197908Y67440D02*
X197908Y63627D01*
X196637Y67440D02*
X199179Y67440D01*
X200379Y67440D02*
X200379Y63627D01*
X202922Y63627D01*
X204121Y67440D02*
X206664Y67440D01*
X204121Y67440D02*
X204121Y63627D01*
X206664Y63627D01*
X205393Y65534D02*
X204121Y65534D01*
D240*
X317500Y8890D02*
X368300Y8890D01*
X299720Y43180D02*
X299720Y57150D01*
X375920Y57150D02*
X386080Y57150D01*
X386080Y43180D01*
X309880Y57150D02*
X299720Y57150D01*
D234*
X330327Y63627D02*
X331598Y63627D01*
X330963Y63627D02*
X330963Y67440D01*
X331598Y67440D02*
X330327Y67440D01*
X332822Y67440D02*
X332822Y63627D01*
X335364Y63627D02*
X332822Y67440D01*
X335364Y67440D02*
X335364Y63627D01*
X336564Y63627D02*
X336564Y67440D01*
X338470Y67440D01*
X339106Y66805D01*
X339106Y65534D01*
X338470Y64898D01*
X336564Y64898D01*
X340306Y64263D02*
X340306Y67440D01*
X340306Y64263D02*
X340941Y63627D01*
X342212Y63627D01*
X342848Y64263D01*
X342848Y67440D01*
X345319Y67440D02*
X345319Y63627D01*
X344048Y67440D02*
X346590Y67440D01*
X349697Y67440D02*
X350332Y66805D01*
X349697Y67440D02*
X348426Y67440D01*
X347790Y66805D01*
X347790Y66169D01*
X348426Y65534D01*
X349697Y65534D01*
X350332Y64898D01*
X350332Y64263D01*
X349697Y63627D01*
X348426Y63627D01*
X347790Y64263D01*
D230*
X248920Y361950D02*
X208280Y361950D01*
X208280Y336550D01*
X248920Y336550D01*
X248920Y361950D01*
X234950Y349250D02*
X228600Y349250D01*
X218440Y342900D02*
X218440Y355600D01*
X228600Y349250D01*
X213360Y349250D01*
X218440Y342900D02*
X228600Y349250D01*
X228600Y342900D01*
X228600Y349250D02*
X228600Y355600D01*
D10*
X226167Y332115D02*
X226167Y320675D01*
X231887Y320675D01*
X233794Y322582D01*
X233794Y330208D01*
X231887Y332115D01*
X226167Y332115D01*
X237861Y328302D02*
X241674Y332115D01*
X241674Y320675D01*
X237861Y320675D02*
X245488Y320675D01*
D241*
X242570Y349250D03*
D242*
X198755Y349250D03*
X258445Y349250D03*
M02*
