G04 EAGLE Gerber X2 export*
%TF.Part,Single*%
%TF.FileFunction,Soldermask,Top,1*%
%TF.FilePolarity,Negative*%
%TF.GenerationSoftware,Autodesk,EAGLE,9.0.0*%
%TF.CreationDate,2018-07-03T14:12:15Z*%
G75*
%MOMM*%
%FSLAX34Y34*%
%LPD*%
%AMOC8*
5,1,8,0,0,1.08239X$1,22.5*%
G01*
%ADD10C,3.352400*%
%ADD11R,2.032000X2.032000*%
%ADD12C,2.032000*%
%ADD13C,5.232400*%
%ADD14R,2.133600X0.711200*%
%ADD15P,1.979475X8X202.500000*%
%ADD16R,1.152400X1.252400*%
%ADD17R,0.702400X1.352400*%
%ADD18R,1.252400X1.152400*%
%ADD19R,1.152400X0.752400*%
%ADD20C,1.676400*%
%ADD21R,0.711200X2.133600*%
%ADD22R,2.152400X1.652400*%
%ADD23R,0.752400X1.702400*%
%ADD24R,1.352400X1.952400*%
%ADD25C,1.828800*%
%ADD26C,0.858000*%
%ADD27C,1.108000*%
%ADD28C,0.838200*%


D10*
X120000Y60000D03*
X260000Y60000D03*
X420000Y60000D03*
X60000Y500000D03*
X480000Y500000D03*
X60000Y420000D03*
X480000Y420000D03*
D11*
X44450Y266700D03*
D12*
X44450Y241300D03*
X44450Y215900D03*
X44450Y190500D03*
X44450Y165100D03*
X44450Y139700D03*
X44450Y114300D03*
X44450Y88900D03*
X44450Y63500D03*
X44450Y38100D03*
D11*
X69850Y266700D03*
D12*
X69850Y241300D03*
X69850Y215900D03*
X69850Y190500D03*
X69850Y165100D03*
X69850Y139700D03*
X69850Y114300D03*
X69850Y88900D03*
X69850Y63500D03*
X69850Y38100D03*
D11*
X476250Y266700D03*
D12*
X476250Y241300D03*
X476250Y215900D03*
X476250Y190500D03*
X476250Y165100D03*
X476250Y139700D03*
X476250Y114300D03*
X476250Y88900D03*
X476250Y63500D03*
X476250Y38100D03*
D11*
X501650Y266700D03*
D12*
X501650Y241300D03*
X501650Y215900D03*
X501650Y190500D03*
X501650Y165100D03*
X501650Y139700D03*
X501650Y114300D03*
X501650Y88900D03*
X501650Y63500D03*
X501650Y38100D03*
D11*
X224000Y443000D03*
D12*
X251700Y443000D03*
X279400Y443000D03*
X307100Y443000D03*
X334800Y443000D03*
X237900Y471400D03*
X265600Y471400D03*
X293200Y471400D03*
X320900Y471400D03*
D13*
X154400Y457200D03*
X404400Y457200D03*
D14*
X229362Y323850D03*
X229362Y311150D03*
X229362Y298450D03*
X229362Y285750D03*
X278638Y285750D03*
X278638Y298450D03*
X278638Y311150D03*
X278638Y323850D03*
D15*
X304800Y381000D03*
X203200Y381000D03*
D16*
X203200Y296300D03*
X203200Y313300D03*
X101600Y245500D03*
X101600Y262500D03*
D17*
X161900Y140001D03*
X152400Y140001D03*
X142900Y140001D03*
X142900Y113999D03*
X161900Y113999D03*
X152400Y113999D03*
X212700Y140001D03*
X203200Y140001D03*
X193700Y140001D03*
X193700Y113999D03*
X212700Y113999D03*
X203200Y113999D03*
D16*
X444500Y232800D03*
X444500Y249800D03*
X419100Y220100D03*
X419100Y237100D03*
X190500Y156600D03*
X190500Y173600D03*
X127000Y156600D03*
X127000Y173600D03*
D18*
X207400Y88900D03*
X224400Y88900D03*
X156600Y88900D03*
X173600Y88900D03*
D19*
X360900Y269850D03*
X360900Y260350D03*
X360900Y250850D03*
X388400Y250850D03*
X388400Y269850D03*
X360900Y225400D03*
X360900Y215900D03*
X360900Y206400D03*
X388400Y206400D03*
X388400Y225400D03*
D20*
X267970Y234950D02*
X252730Y234950D01*
X252730Y209550D02*
X267970Y209550D01*
X267970Y184150D02*
X252730Y184150D01*
D16*
X446650Y146050D03*
X429650Y146050D03*
X446650Y165100D03*
X429650Y165100D03*
X446650Y190500D03*
X429650Y190500D03*
X414900Y190500D03*
X397900Y190500D03*
X414900Y165100D03*
X397900Y165100D03*
X414900Y146050D03*
X397900Y146050D03*
D21*
X323850Y108712D03*
X336550Y108712D03*
X349250Y108712D03*
X361950Y108712D03*
X361950Y157988D03*
X349250Y157988D03*
X336550Y157988D03*
X323850Y157988D03*
D14*
X394462Y127000D03*
X394462Y114300D03*
X394462Y101600D03*
X394462Y88900D03*
X443738Y88900D03*
X443738Y101600D03*
X443738Y114300D03*
X443738Y127000D03*
D22*
X215900Y249950D03*
X215900Y219950D03*
X215900Y169150D03*
X215900Y199150D03*
D16*
X436000Y31750D03*
X453000Y31750D03*
X404250Y31750D03*
X421250Y31750D03*
D23*
X165100Y50800D03*
X175100Y50800D03*
X185100Y50800D03*
X195100Y50800D03*
X205100Y50800D03*
X215100Y50800D03*
D24*
X152100Y15850D03*
X228100Y15850D03*
D23*
X317500Y50800D03*
X327500Y50800D03*
X337500Y50800D03*
X347500Y50800D03*
X357500Y50800D03*
X367500Y50800D03*
D24*
X304500Y15850D03*
X380500Y15850D03*
D25*
X177800Y349250D03*
X279400Y349250D03*
D26*
X444500Y134846D03*
X374650Y260350D03*
X374650Y215900D03*
X190500Y317500D03*
X127000Y184150D03*
X152400Y101600D03*
X203200Y101600D03*
D27*
X393700Y50800D03*
D26*
X196850Y31750D03*
X120650Y247650D03*
X171450Y114300D03*
X222250Y114300D03*
X406400Y247650D03*
X298450Y234950D03*
X114300Y266700D03*
X463550Y127000D03*
X323850Y177800D03*
X190500Y298450D03*
X330200Y66675D03*
D28*
X317500Y66675D03*
X323850Y142875D03*
X361950Y136525D03*
X336550Y142875D03*
X387350Y136525D03*
X355600Y123825D03*
D26*
X346075Y69850D03*
X381000Y165100D03*
D27*
X457200Y57150D03*
D26*
X374650Y69850D03*
X450850Y69850D03*
M02*
