G04 EAGLE Gerber X2 export*
%TF.Part,Single*%
%TF.FileFunction,Paste,Top*%
%TF.FilePolarity,Positive*%
%TF.GenerationSoftware,Autodesk,EAGLE,9.0.0*%
%TF.CreationDate,2018-07-03T14:12:15Z*%
G75*
%MOMM*%
%FSLAX34Y34*%
%LPD*%
%AMOC8*
5,1,8,0,0,1.08239X$1,22.5*%
G01*
%ADD10R,1.981200X0.558800*%
%ADD11R,1.000000X1.100000*%
%ADD12R,0.550000X1.200000*%
%ADD13R,1.100000X1.000000*%
%ADD14R,1.000000X0.600000*%
%ADD15R,0.558800X1.981200*%
%ADD16R,2.000000X1.500000*%
%ADD17R,0.600000X1.550000*%
%ADD18R,1.200000X1.800000*%


D10*
X229362Y323850D03*
X229362Y311150D03*
X229362Y298450D03*
X229362Y285750D03*
X278638Y285750D03*
X278638Y298450D03*
X278638Y311150D03*
X278638Y323850D03*
D11*
X203200Y296300D03*
X203200Y313300D03*
X101600Y245500D03*
X101600Y262500D03*
D12*
X161900Y140001D03*
X152400Y140001D03*
X142900Y140001D03*
X142900Y113999D03*
X161900Y113999D03*
X152400Y113999D03*
X212700Y140001D03*
X203200Y140001D03*
X193700Y140001D03*
X193700Y113999D03*
X212700Y113999D03*
X203200Y113999D03*
D11*
X444500Y232800D03*
X444500Y249800D03*
X419100Y220100D03*
X419100Y237100D03*
X190500Y156600D03*
X190500Y173600D03*
X127000Y156600D03*
X127000Y173600D03*
D13*
X207400Y88900D03*
X224400Y88900D03*
X156600Y88900D03*
X173600Y88900D03*
D14*
X360900Y269850D03*
X360900Y260350D03*
X360900Y250850D03*
X388400Y250850D03*
X388400Y269850D03*
X360900Y225400D03*
X360900Y215900D03*
X360900Y206400D03*
X388400Y206400D03*
X388400Y225400D03*
D11*
X446650Y146050D03*
X429650Y146050D03*
X446650Y165100D03*
X429650Y165100D03*
X446650Y190500D03*
X429650Y190500D03*
X414900Y190500D03*
X397900Y190500D03*
X414900Y165100D03*
X397900Y165100D03*
X414900Y146050D03*
X397900Y146050D03*
D15*
X323850Y108712D03*
X336550Y108712D03*
X349250Y108712D03*
X361950Y108712D03*
X361950Y157988D03*
X349250Y157988D03*
X336550Y157988D03*
X323850Y157988D03*
D10*
X394462Y127000D03*
X394462Y114300D03*
X394462Y101600D03*
X394462Y88900D03*
X443738Y88900D03*
X443738Y101600D03*
X443738Y114300D03*
X443738Y127000D03*
D16*
X215900Y249950D03*
X215900Y219950D03*
X215900Y169150D03*
X215900Y199150D03*
D11*
X436000Y31750D03*
X453000Y31750D03*
X404250Y31750D03*
X421250Y31750D03*
D17*
X165100Y50800D03*
X175100Y50800D03*
X185100Y50800D03*
X195100Y50800D03*
X205100Y50800D03*
X215100Y50800D03*
D18*
X152100Y15850D03*
X228100Y15850D03*
D17*
X317500Y50800D03*
X327500Y50800D03*
X337500Y50800D03*
X347500Y50800D03*
X357500Y50800D03*
X367500Y50800D03*
D18*
X304500Y15850D03*
X380500Y15850D03*
M02*
